<?xml version="1.0"?>
<!DOCTYPE svg PUBLIC "-//W3C//DTD SVG 1.1//EN" "http://www.w3.org/Graphics/SVG/1.1/DTD/svg11.dtd">
<svg version='1.1' width='50px' height='13px' xmlns='http://www.w3.org/2000/svg' xmlns:xlink='http://www.w3.org/1999/xlink'>
	<g transform="translate(-28.4265,-112.338)">
		<path d="M 28.4265 116.179 Q 28.4324 115.385 28.9559 114.829 Q 29.05 114.726 29.1471 114.624 Q 29.4794 114.362 29.8618 114.294 Q 30.0647 114.229 30.3206 114.221 Q 30.3706 114.218 30.4206 114.218 Q 30.7147 114.212 31.0147 114.212 Q 35.7618 114.203 40.4706 114.071 Q 42.3206 114.021 44.1676 113.95 Q 45.6059 113.9 47.0412 113.844 Q 59.8588 113.324 72.45 112.465 Q 74.0176 112.329 75.6 112.338 Q 76.3882 112.344 76.9441 112.897 Q 77.5412 113.444 77.5765 114.247 Q 77.6088 115.094 77.6412 115.962 Q 77.7206 118.382 77.7118 120.779 Q 77.7088 121.574 77.1324 122.126 Q 76.7941 122.485 76.3588 122.656 Q 76.1147 122.721 75.8235 122.738 Q 68.1529 123.247 60.4118 123.635 Q 57.9059 123.768 55.3912 123.888 Q 53.3235 123.982 51.25 124.068 Q 49.1676 124.15 47.0912 124.238 Q 46.9941 124.241 46.9 124.241 L 46.9 124.238 Q 45.7118 124.282 44.5235 124.321 Q 44.2765 124.326 44.0324 124.332 Q 43.5265 124.356 43.0206 124.376 Q 42.9235 124.379 42.8235 124.382 Q 39.2324 124.503 35.6235 124.591 Q 33.1 124.659 30.6118 124.603 Q 29.7735 124.588 29.2206 124.044 Q 28.6618 123.497 28.6235 122.7 Q 28.55 120.874 28.4912 118.997 Q 28.4588 117.6 28.4294 116.191 L 28.4265 116.179" fill="#0066CC"/>
	</g>
</svg>
