<?xml version="1.0"?>
<!DOCTYPE svg PUBLIC "-//W3C//DTD SVG 1.1//EN" "http://www.w3.org/Graphics/SVG/1.1/DTD/svg11.dtd">
<svg version='1.1' width='28px' height='47px' xmlns='http://www.w3.org/2000/svg' xmlns:xlink='http://www.w3.org/1999/xlink'>
	<g transform="translate(-233.137,-126.347)">
		<path d="M 233.137 138.903 Q 233.177 137.08 233.177 135.95 Q 233.163 135.233 233.23 134.583 Q 233.4 132.117 234.253 130.317 Q 234.28 130.243 234.307 130.17 Q 234.533 129.61 234.747 129.05 Q 236.59 128.26 238.407 127.687 Q 238.383 127.687 238.397 127.687 Q 242.12 126.493 245.98 126.4 Q 246.343 126.387 246.707 126.373 Q 246.743 126.373 246.757 126.373 Q 247.043 126.36 247.343 126.347 Q 249.99 126.427 252.323 127.197 Q 252.323 127.197 252.337 127.197 Q 253.113 127.457 253.88 127.843 Q 253.917 127.843 253.967 127.843 Q 253.967 127.843 253.967 127.843 Q 254.48 128.04 254.943 128.34 Q 254.93 128.327 254.93 128.327 Q 256.5 129.26 257.617 130.753 Q 258.373 131.743 258.913 133.023 Q 258.913 133.023 258.913 133.037 Q 260.05 135.973 260.573 139.75 Q 260.573 139.75 260.573 139.8 Q 260.76 141.14 260.783 142.567 Q 260.783 142.717 260.77 142.867 Q 260.807 143.44 260.82 144.013 Q 260.847 145.69 260.873 147.367 Q 260.913 150.82 260.927 154.233 Q 260.94 154.433 260.94 154.647 Q 260.913 155.72 260.94 156.847 L 260.94 156.897 Q 261.02 161.733 260.94 166.357 Q 260.967 168.97 260.873 171.17 Q 260.833 171.943 260.363 172.467 Q 259.953 172.907 259.443 173.007 Q 259.27 173.057 259.083 173.07 Q 258.71 173.083 258.347 173.083 Q 257.733 173.07 257.107 173.11 Q 255.917 173.137 254.54 172.657 Q 253.49 172.497 252.44 171.977 Q 251.763 171.803 251.307 171.187 Q 250.863 170.57 250.81 169.73 Q 250.623 165.503 250.423 160.663 L 250.423 160.65 Q 250.397 159.533 250.383 158.483 Q 250.17 154.87 250.037 151.15 Q 249.943 148.373 249.863 145.57 Q 249.85 145.293 249.837 145.017 Q 249.783 144.153 249.787 143.33 Q 249.787 143.23 249.8 143.143 Q 249.75 142.643 249.74 142.193 Q 249.543 141.79 249.347 141.357 Q 249.293 141.11 249.163 140.863 Q 249.163 140.827 249.163 140.827 Q 248.903 140.26 248.577 139.78 Q 248.22 138.91 247.473 138.31 Q 247.473 138.31 247.473 138.273 Q 246.78 137.527 245.7 137.233 Q 245.65 137.197 245.6 137.197 Q 244.283 136.743 242.247 136.73 Q 241.67 136.73 241.093 136.767 Q 239.3 136.95 237.543 137.557 Q 234.713 138.217 233.137 138.957 L 233.137 138.903" fill="#0066CC"/>
	</g>
</svg>
