<?xml version="1.0"?>
<!DOCTYPE svg PUBLIC "-//W3C//DTD SVG 1.1//EN" "http://www.w3.org/Graphics/SVG/1.1/DTD/svg11.dtd">
<svg version='1.1' width='49px' height='17px' xmlns='http://www.w3.org/2000/svg' xmlns:xlink='http://www.w3.org/1999/xlink'>
	<g transform="translate(-28.2794,-112.213)">
		<path d="M 28.2794 119.938 Q 28.2971 119.156 28.7676 118.588 Q 28.85 118.479 28.9412 118.371 Q 29.2382 118.085 29.5853 117.982 Q 29.7941 117.888 30.0618 117.862 Q 30.1118 117.853 30.1618 117.853 Q 30.4441 117.835 30.7441 117.835 Q 35.5853 117.809 40.3118 117.412 Q 42.1618 117.262 44.0029 117.05 Q 45.4176 116.9 46.8235 116.732 Q 59.3765 115.171 71.25 112.594 Q 72.7529 112.188 74.3 112.215 Q 75.0647 112.232 75.6324 112.791 Q 76.2235 113.332 76.3294 114.141 Q 76.4265 114.982 76.5235 115.885 Q 76.7618 118.347 76.7353 120.738 Q 76.7265 121.521 76.1971 122.079 Q 75.8824 122.456 75.4765 122.668 Q 75.2441 122.762 74.9706 122.815 Q 67.7588 124.341 60.3353 125.506 Q 57.9176 125.903 55.4735 126.265 Q 53.4706 126.547 51.45 126.803 Q 49.4029 127.05 47.3735 127.315 Q 47.2824 127.324 47.2 127.324 L 47.2 127.315 Q 46.0353 127.447 44.8706 127.562 Q 44.6294 127.579 44.3971 127.597 Q 43.8794 127.668 43.3618 127.729 Q 43.2706 127.738 43.1706 127.747 Q 39.5971 128.109 35.9706 128.374 Q 33.4 128.576 30.9353 128.409 Q 30.1206 128.365 29.5618 127.832 Q 28.9853 127.291 28.8706 126.5 Q 28.65 124.721 28.4735 122.791 Q 28.3765 121.4 28.2882 119.974 L 28.2794 119.938" fill="#0066CC"/>
	</g>
</svg>
