<?xml version="1.0"?>
<!DOCTYPE svg PUBLIC "-//W3C//DTD SVG 1.1//EN" "http://www.w3.org/Graphics/SVG/1.1/DTD/svg11.dtd">
<svg version='1.1' width='12px' height='48px' xmlns='http://www.w3.org/2000/svg' xmlns:xlink='http://www.w3.org/1999/xlink'>
	<g transform="translate(-186.31,-123.259)">
		<path d="M 186.31 128.797 Q 186.42 128.033 186.58 127.337 Q 186.647 127.05 186.763 126.79 Q 186.93 126.53 187.05 126.31 Q 187.05 126.273 187.05 126.237 Q 187.263 125.613 187.697 125.027 Q 188.107 124.44 188.7 123.89 Q 188.75 123.89 188.8 123.853 Q 189.963 123.377 191.2 123.267 Q 191.9 123.267 192.6 123.267 Q 193.253 123.23 193.84 123.377 Q 193.99 123.417 194.127 123.457 Q 194.697 123.613 195.173 123.847 Q 195.357 123.95 195.54 124.053 L 195.65 124.107 Q 195.76 124.183 195.87 124.26 Q 195.943 124.323 196.017 124.423 Q 196.09 124.523 196.163 124.623 Q 196.64 125.427 196.86 126.427 Q 196.86 126.627 196.897 126.827 Q 196.897 126.977 196.933 127.127 Q 197.007 127.913 197.117 128.7 Q 197.227 129.9 197.3 131.137 Q 197.373 132.573 197.41 133.973 L 197.41 165.013 Q 197.41 165.667 197.25 166.253 Q 197.183 166.59 197.09 166.887 Q 196.923 167.243 196.78 167.573 Q 196.547 167.977 196.35 168.417 Q 195.803 169.627 194.377 170.14 Q 194.063 170.25 193.75 170.36 Q 193.15 170.58 192.55 170.763 Q 192 170.91 191.45 170.947 Q 190.76 171.02 190.1 170.8 Q 189.577 170.62 189.147 170.34 Q 188.987 170.25 188.84 170.11 Q 188.033 169.537 187.41 168.743 Q 187.08 168.33 186.823 167.88 Q 186.53 167.28 186.31 166.643 L 186.31 128.943 L 186.31 128.797" fill="#0066CC"/>
	</g>
</svg>
