<?xml version="1.0"?>
<!DOCTYPE svg PUBLIC "-//W3C//DTD SVG 1.1//EN" "http://www.w3.org/Graphics/SVG/1.1/DTD/svg11.dtd">
<svg version='1.1' width='15px' height='47px' xmlns='http://www.w3.org/2000/svg' xmlns:xlink='http://www.w3.org/1999/xlink'>
	<g transform="translate(-48.3059,-133.641)">
		<path d="M 48.3059 135.288 L 48.4059 135.312 Q 48.6412 135.171 48.8765 135.029 Q 48.8765 135.029 48.9 135.006 Q 51.2882 134.3 53.7235 133.641 Q 53.7735 133.641 53.8706 133.712 Q 54.2824 133.829 54.8118 134.088 Q 55.9676 134.465 57.3118 135.171 Q 58.1118 139.071 59.4765 143.862 Q 62.4647 155.644 62.4647 167.756 Q 62.4647 172.485 62.2294 176.391 Q 62.1559 177.05 61.8176 177.553 Q 61.4529 178.103 60.9853 178.315 Q 59.6147 179.279 58.0324 179.585 Q 56.5441 179.985 55.1971 179.138 Q 54.6794 178.95 54.2941 178.4 Q 53.8824 177.85 53.7882 177.097 Q 53.5765 175 53.4118 172.5 Q 52.8235 162.397 51.4353 152.906 Q 50.1412 144.624 48.5882 136.624 Q 48.4706 136.121 48.3529 135.618 Q 48.3294 135.468 48.3059 135.341 L 48.3059 135.288" fill="#0066CC"/>
	</g>
</svg>
