<?xml version="1.0"?>
<!DOCTYPE svg PUBLIC "-//W3C//DTD SVG 1.1//EN" "http://www.w3.org/Graphics/SVG/1.1/DTD/svg11.dtd">
<svg version='1.1' width='15px' height='46px' xmlns='http://www.w3.org/2000/svg' xmlns:xlink='http://www.w3.org/1999/xlink'>
	<g transform="translate(-48.3941,-135.009)">
		<path d="M 48.3941 136.862 L 48.4941 136.888 Q 48.7088 136.729 48.9235 136.571 Q 48.9235 136.571 48.95 136.544 Q 51.2618 135.75 53.6265 135.009 Q 53.6765 135.009 53.7794 135.088 Q 54.1676 135.221 54.6882 135.512 Q 55.7824 135.935 57.0882 136.729 Q 57.9882 140.479 59.5235 145.238 Q 62.8853 156.806 62.8853 168.744 Q 62.8853 173.465 62.6206 177.259 Q 62.5441 177.9 62.2324 178.397 Q 61.8971 178.947 61.4647 179.185 Q 60.1853 180.271 58.6676 180.615 Q 57.2059 181.065 55.9029 180.112 Q 55.4206 179.9 55.0559 179.35 Q 54.6676 178.8 54.5618 178.053 Q 54.3235 176 54.1382 173.5 Q 53.4765 163.503 51.9147 154.194 Q 50.4588 146.026 48.7118 138.176 Q 48.5794 137.679 48.4471 137.182 Q 48.4206 137.032 48.3941 136.909 L 48.3941 136.862" fill="#0066CC"/>
	</g>
</svg>
