<?xml version="1.0"?>
<!DOCTYPE svg PUBLIC "-//W3C//DTD SVG 1.1//EN" "http://www.w3.org/Graphics/SVG/1.1/DTD/svg11.dtd">
<svg version='1.1' width='29px' height='47px' xmlns='http://www.w3.org/2000/svg' xmlns:xlink='http://www.w3.org/1999/xlink'>
	<g transform="translate(-233.03,-127.02)">
		<path d="M 233.03 138.63 Q 233.09 136.62 233.09 135.65 Q 233.07 134.9 233.17 134.25 Q 233.4 131.75 234.68 130.25 Q 234.72 130.19 234.76 130.13 Q 235.1 129.69 235.42 129.25 Q 237.31 128.64 239.16 128.18 Q 239.15 128.18 239.17 128.18 Q 242.98 127.24 246.82 127.1 Q 247.19 127.08 247.56 127.06 Q 247.59 127.06 247.61 127.06 Q 247.89 127.04 248.19 127.02 Q 250.81 127.04 253.21 127.77 Q 253.21 127.77 253.23 127.77 Q 254.02 128.01 254.82 128.39 Q 254.85 128.39 254.9 128.39 Q 254.9 128.39 254.9 128.39 Q 255.42 128.56 255.89 128.86 Q 255.87 128.84 255.87 128.84 Q 257.5 129.74 258.55 131.28 Q 259.26 132.29 259.72 133.61 Q 259.72 133.61 259.72 133.63 Q 260.65 136.66 261.16 140.45 Q 261.16 140.45 261.16 140.5 Q 261.34 141.86 261.35 143.3 Q 261.35 143.45 261.33 143.6 Q 261.36 144.16 261.38 144.72 Q 261.42 146.41 261.46 148.1 Q 261.52 151.58 261.54 155 Q 261.56 155.2 261.56 155.42 Q 261.52 156.48 261.56 157.62 L 261.56 157.67 Q 261.68 162.6 261.56 167.21 Q 261.6 169.93 261.46 172.03 Q 261.4 172.79 260.97 173.3 Q 260.58 173.76 260.09 173.86 Q 259.93 173.91 259.75 173.93 Q 259.39 173.95 259.02 173.95 Q 258.4 173.93 257.76 173.99 Q 256.65 174.03 255.26 173.31 Q 254.31 173.07 253.36 172.29 Q 252.77 172.03 252.36 171.38 Q 251.97 170.73 251.89 169.87 Q 251.61 165.73 251.31 160.67 L 251.31 160.65 Q 251.27 159.5 251.25 158.45 Q 250.93 154.83 250.73 151.05 Q 250.59 148.26 250.47 145.43 Q 250.45 145.14 250.43 144.85 Q 250.35 143.98 250.38 143.17 Q 250.38 143.07 250.4 142.99 Q 250.35 142.49 250.36 142.04 Q 250.09 141.71 249.82 141.31 Q 249.74 141.09 249.57 140.87 Q 249.57 140.84 249.57 140.84 Q 249.23 140.34 248.79 139.92 Q 248.38 139.19 247.46 138.69 Q 247.46 138.69 247.46 138.66 Q 246.72 138.04 245.6 137.8 Q 245.55 137.77 245.5 137.77 Q 244.15 137.39 242.12 137.37 Q 241.53 137.37 240.94 137.4 Q 239.1 137.55 237.39 138.01 Q 234.32 138.45 233.03 138.71 L 233.03 138.63" fill="#0066CC"/>
	</g>
</svg>
