<?xml version="1.0"?>
<!DOCTYPE svg PUBLIC "-//W3C//DTD SVG 1.1//EN" "http://www.w3.org/Graphics/SVG/1.1/DTD/svg11.dtd">
<svg version='1.1' width='38px' height='49px' xmlns='http://www.w3.org/2000/svg' xmlns:xlink='http://www.w3.org/1999/xlink'>
	<g transform="translate(-76.8,-127.426)">
		<path d="M 76.8 135.639 Q 76.9 134.739 77.2105 134 Q 77.2974 133.75 77.4211 133.537 Q 77.4211 133.487 77.4579 133.474 Q 78.1579 131.708 79.5711 130.866 Q 80.2368 130.568 81.0132 130.418 Q 81.2395 130.368 81.5026 130.355 Q 84.1921 130.297 87.1947 130.361 Q 87.2316 130.361 87.2684 130.347 Q 88.0079 130.382 88.7842 130.416 L 88.8211 130.416 L 94.2526 130.421 Q 94.3132 130.434 94.4 130.447 Q 94.6132 130.421 94.8263 130.432 Q 94.8763 130.432 94.9263 130.468 Q 100.587 129.563 105.158 128.045 Q 105.611 127.671 106.321 127.555 Q 106.874 127.316 107.818 127.518 Q 109.074 127.479 110.339 128.495 Q 110.353 128.495 110.366 128.532 Q 110.655 128.724 110.945 128.939 Q 111.476 129.311 111.932 129.876 Q 112.666 130.737 113.211 132.166 Q 113.4 132.642 113.539 133.118 Q 113.603 133.318 113.666 133.555 Q 113.826 135.158 113.979 137.145 Q 113.979 137.245 113.979 137.345 Q 113.976 140.75 113.811 144.818 Q 113.742 146.271 113.724 147.797 Q 113.724 147.847 113.724 147.897 Q 113.589 150.529 113.592 153.505 Q 113.592 153.505 113.592 153.505 Q 113.561 155.547 113.592 157.7 Q 113.584 160.455 113.626 163.371 Q 113.682 165.813 113.787 168.366 Q 113.787 168.466 113.787 168.566 Q 113.558 172.732 111.597 174.539 Q 111.474 174.679 111.313 174.782 Q 111.153 174.884 110.992 174.95 Q 110.905 175.039 110.855 175.092 Q 110.447 175.361 110 175.405 Q 109.739 175.471 109.466 175.45 Q 108.779 175.497 108.124 175.242 Q 106.168 174.553 105.482 171.255 Q 105.395 170.932 105.345 170.608 Q 104.187 165.713 103.834 161.063 Q 103.676 158.911 103.642 156.858 Q 103.642 156.858 103.642 156.821 Q 103.234 147.639 103.839 140.779 Q 103.682 140.379 103.547 140.003 Q 100.095 140.803 96.2184 141.339 Q 96.1053 141.389 95.9921 141.403 Q 94.2395 141.768 92.4605 142.121 Q 92.3737 142.134 92.3132 142.147 L 89.5605 142.842 Q 89.5105 142.842 89.4605 142.879 Q 87.3105 143.287 85.4184 143.289 Q 85.4184 143.289 85.4184 143.303 Q 79.0868 143.247 76.9421 136.318 Q 76.8289 136.018 76.8263 135.718 L 76.8 135.639" fill="#0066CC"/>
	</g>
</svg>
