<?xml version="1.0"?>
<!DOCTYPE svg PUBLIC "-//W3C//DTD SVG 1.1//EN" "http://www.w3.org/Graphics/SVG/1.1/DTD/svg11.dtd">
<svg version='1.1' width='30px' height='48px' xmlns='http://www.w3.org/2000/svg' xmlns:xlink='http://www.w3.org/1999/xlink'>
	<g transform="translate(-232.87,-128.023)">
		<path d="M 232.87 138.22 Q 232.96 135.93 232.96 135.2 Q 232.93 134.4 233.08 133.75 Q 233.4 131.2 235.32 130.15 Q 235.38 130.11 235.44 130.07 Q 235.95 129.81 236.43 129.55 Q 238.39 129.21 240.29 128.92 Q 240.3 128.92 240.33 128.92 Q 244.27 128.36 248.08 128.15 Q 248.46 128.12 248.84 128.09 Q 248.86 128.09 248.89 128.09 Q 249.16 128.06 249.46 128.03 Q 252.04 127.96 254.54 128.63 Q 254.54 128.63 254.57 128.63 Q 255.38 128.84 256.23 129.21 Q 256.25 129.21 256.3 129.21 Q 256.3 129.21 256.3 129.21 Q 256.83 129.34 257.31 129.64 Q 257.28 129.61 257.28 129.61 Q 259 130.46 259.95 132.07 Q 260.59 133.11 260.93 134.49 Q 260.93 134.49 260.93 134.52 Q 261.55 137.69 262.04 141.5 Q 262.04 141.5 262.04 141.55 Q 262.21 142.94 262.2 144.4 Q 262.2 144.55 262.17 144.7 Q 262.19 145.24 262.22 145.78 Q 262.28 147.49 262.34 149.2 Q 262.43 152.72 262.46 156.15 Q 262.49 156.35 262.49 156.58 Q 262.43 157.62 262.49 158.78 L 262.49 158.83 Q 262.67 163.9 262.49 168.49 Q 262.55 171.37 262.34 173.32 Q 262.25 174.06 261.88 174.55 Q 261.52 175.04 261.06 175.14 Q 260.92 175.19 260.75 175.22 Q 260.41 175.25 260.03 175.25 Q 259.4 175.22 258.74 175.31 Q 257.75 175.37 256.34 174.29 Q 255.54 173.93 254.74 172.76 Q 254.28 172.37 253.94 171.67 Q 253.63 170.97 253.51 170.08 Q 253.09 166.07 252.64 160.68 L 252.64 160.65 Q 252.58 159.45 252.55 158.4 Q 252.07 154.77 251.77 150.9 Q 251.56 148.09 251.38 145.22 Q 251.35 144.91 251.32 144.6 Q 251.2 143.72 251.27 142.93 Q 251.27 142.83 251.3 142.76 Q 251.25 142.26 251.29 141.81 Q 250.91 141.59 250.53 141.24 Q 250.41 141.06 250.18 140.88 Q 250.18 140.86 250.18 140.86 Q 249.72 140.46 249.11 140.13 Q 248.62 139.61 247.44 139.26 Q 247.44 139.26 247.44 139.24 Q 246.63 138.81 245.45 138.65 Q 245.4 138.63 245.35 138.63 Q 243.95 138.36 241.93 138.33 Q 241.32 138.33 240.71 138.35 Q 238.8 138.45 237.16 138.69 Q 233.73 138.8 232.87 138.34 L 232.87 138.22" fill="#0066CC"/>
	</g>
</svg>
