<?xml version="1.0"?>
<!DOCTYPE svg PUBLIC "-//W3C//DTD SVG 1.1//EN" "http://www.w3.org/Graphics/SVG/1.1/DTD/svg11.dtd">
<svg version='1.1' width='49px' height='47px' xmlns='http://www.w3.org/2000/svg' xmlns:xlink='http://www.w3.org/1999/xlink'>
	<g transform="translate(-125.208,-126.056)">
		<path d="M 125.306 151.947 Q 124.999 148.201 125.651 144.528 Q 126.078 142.229 127.015 140.181 Q 127.051 140.131 127.101 140.094 Q 127.725 138.629 128.622 137.301 Q 129.893 135.466 131.5 133.854 Q 133.181 132.059 135.249 130.684 Q 135.249 130.684 135.262 130.684 Q 135.262 130.684 135.262 130.684 Q 135.959 130.213 136.669 129.779 Q 137.987 128.975 139.404 128.307 Q 143.244 126.428 147.584 126.151 Q 147.571 126.165 147.571 126.165 Q 150.243 125.951 152.844 126.156 Q 156.063 126.347 159.101 127.41 Q 159.188 127.447 159.275 127.484 Q 159.422 127.584 159.569 127.697 Q 160.066 127.918 160.513 128.165 Q 160.626 128.188 160.753 128.225 Q 161.063 128.359 161.337 128.493 Q 161.847 128.763 162.344 129.034 Q 162.754 129.241 163.141 129.485 Q 165.178 130.712 166.662 132.544 Q 166.699 132.544 166.735 132.618 Q 168.319 134.6 169.237 137.054 Q 169.324 137.328 169.424 137.615 Q 169.89 138.482 170.203 139.453 Q 170.253 139.64 170.303 139.863 Q 170.353 139.963 170.403 140.063 Q 170.64 141.168 170.737 142.325 Q 170.834 143.332 170.871 144.303 Q 170.871 144.316 170.871 144.366 Q 170.871 144.503 170.907 144.64 Q 170.907 144.776 170.907 144.913 Q 170.981 144.903 171.091 144.929 Q 171.569 144.975 171.974 145.168 Q 172.01 145.157 172.047 145.221 Q 172.047 145.234 172.084 145.247 Q 172.341 145.313 172.562 145.416 Q 172.635 145.479 172.709 145.506 Q 173.076 145.488 173.481 145.654 Q 173.701 145.61 173.959 145.64 Q 173.996 145.653 173.996 145.666 Q 173.996 146.334 174.009 147.038 Q 174.035 149.8 173.893 152.509 Q 173.893 152.509 173.856 152.509 Q 173.351 152.701 172.957 152.821 Q 172.847 152.847 172.774 152.91 Q 172.576 152.937 172.416 152.963 Q 172.366 152.99 172.353 153.016 Q 172.279 152.993 172.206 153.006 Q 171.959 153.096 171.749 153.149 Q 171.662 153.125 171.612 153.138 Q 171.575 153.138 171.538 153.175 Q 171.451 153.188 171.401 153.201 Q 171.365 153.215 171.328 153.228 Q 171.328 153.265 171.328 153.265 Q 171.151 154.072 170.949 154.866 Q 170.796 155.4 170.593 155.934 Q 170.013 157.443 169.263 158.891 Q 169.063 159.275 168.863 159.622 Q 168.476 160.293 168.053 160.95 Q 167.016 162.588 165.706 164.05 Q 165.656 164.1 165.569 164.15 Q 165.543 164.15 165.543 164.15 Q 165.093 164.624 164.643 165.084 Q 163.882 165.841 163.099 166.509 Q 163.062 166.559 163.025 166.609 Q 161.347 168.034 159.488 169.149 Q 159.475 169.185 159.475 169.222 Q 159.438 169.222 159.401 169.222 Q 159.301 169.272 159.238 169.322 Q 156.894 170.676 154.396 171.521 Q 152.534 172.165 150.379 172.449 Q 148.678 172.696 146.91 172.696 Q 145.282 172.696 143.668 172.472 Q 141.493 172.125 139.441 171.428 Q 139.118 171.291 138.794 171.154 Q 136.979 170.434 135.351 169.463 Q 133.697 168.479 132.266 167.135 Q 132.266 167.135 132.266 167.135 Q 130.615 165.631 129.324 163.679 Q 129.274 163.593 129.26 163.543 Q 128.316 162.175 127.522 160.718 Q 127.522 160.718 127.522 160.718 Q 127.399 160.494 127.275 160.271 Q 127.188 160.221 127.188 160.171 Q 127.151 160.134 127.151 160.097 Q 126.504 158.209 126.107 156.344 Q 126.071 156.307 126.107 156.271 Q 125.587 154.369 125.343 152.441 Q 125.343 152.404 125.343 152.368 Q 125.306 152.194 125.306 152.021 L 125.306 151.947" fill="#0066CC"/>
		<path d="M 134.524 147.637 Q 134.671 146.522 135.028 145.421 Q 135.769 143.612 135.769 143.575 Q 136.363 142.371 137.097 141.343 Q 137.284 141.096 137.471 140.885 Q 137.694 140.515 137.991 140.218 Q 140.26 137.537 143.731 136.422 Q 146.846 135.447 150.069 135.147 Q 152.79 134.91 155.232 135.863 Q 155.643 136.047 156.04 136.268 Q 157.354 136.94 158.582 137.662 Q 159.34 138.126 159.987 138.665 Q 160.671 139.24 161.168 139.851 Q 161.391 140.132 161.578 140.426 Q 162.051 141.138 162.391 141.753 Q 162.649 142.547 162.796 143.415 Q 163.053 144.863 163.457 146.312 Q 163.531 146.622 163.604 146.932 Q 163.604 146.932 163.641 146.969 Q 163.641 147.019 163.678 147.069 Q 163.715 147.206 163.788 147.379 Q 163.788 147.429 163.825 147.479 Q 163.972 147.776 164.229 148.11 Q 164.229 148.11 164.266 148.147 Q 164.303 148.197 164.376 148.247 Q 164.303 148.347 164.266 148.447 Q 164.229 148.46 164.229 148.51 Q 164.119 148.894 164.082 149.278 Q 163.972 149.749 163.899 150.256 Q 163.862 150.269 163.862 150.319 Q 163.788 150.382 163.788 150.519 Q 163.751 150.693 163.715 150.903 Q 163.213 152.168 162.722 153.419 Q 162.575 153.729 162.378 154.003 Q 162.341 154.053 162.304 154.14 Q 162.084 154.668 161.826 155.196 Q 161.79 155.232 161.753 155.269 Q 160.906 156.481 160.097 157.685 L 160.084 157.735 Q 160.01 157.722 159.974 157.782 Q 159.753 157.987 159.532 158.154 Q 158.675 159.059 157.697 159.813 Q 155.641 161.312 153.351 162.453 Q 152.4 162.874 151.449 163.147 Q 151.425 163.147 151.388 163.147 Q 149.309 163.734 147.069 163.593 Q 144.149 163.391 141.593 162.251 Q 141.246 162.104 140.899 161.921 Q 140.862 161.884 140.788 161.884 Q 139.834 161.369 139.076 160.694 Q 139.026 160.621 138.976 160.584 Q 136.632 158.556 135.543 155.828 Q 135.556 155.791 135.556 155.754 Q 135.319 155.187 135.156 154.569 Q 134.843 153.531 134.679 152.443 Q 134.316 150.143 134.524 147.726 Q 134.524 147.69 134.524 147.69 L 134.524 147.637" fill="#0066CC"/>
	</g>
</svg>
