<?xml version="1.0"?>
<!DOCTYPE svg PUBLIC "-//W3C//DTD SVG 1.1//EN" "http://www.w3.org/Graphics/SVG/1.1/DTD/svg11.dtd">
<svg version='1.1' width='12px' height='46px' xmlns='http://www.w3.org/2000/svg' xmlns:xlink='http://www.w3.org/1999/xlink'>
	<g transform="translate(-179.47,-125.667)">
		<path d="M 179.47 128.227 Q 179.49 127.433 180.01 126.857 Q 180.227 126.6 180.493 126.43 Q 180.81 126.26 181.2 126.22 Q 181.2 126.213 181.2 126.207 Q 181.893 126.093 182.627 125.987 Q 183.397 125.88 184.2 125.78 Q 184.25 125.78 184.3 125.773 Q 185.493 125.687 186.7 125.667 Q 187.4 125.667 188.1 125.667 Q 188.873 125.66 189.43 126.137 Q 189.58 126.267 189.687 126.397 Q 190.077 126.793 190.163 127.327 Q 190.197 127.55 190.23 127.773 L 190.25 127.947 Q 190.27 128.083 190.29 128.22 Q 190.303 128.313 190.317 128.413 Q 190.33 128.513 190.343 128.613 Q 190.43 129.537 190.47 130.537 Q 190.47 130.737 190.477 130.937 Q 190.477 131.087 190.483 131.237 Q 190.497 131.993 190.517 132.75 Q 190.537 133.95 190.55 135.157 Q 190.563 136.563 190.57 137.963 L 190.57 168.643 Q 190.57 169.417 190.05 169.973 Q 189.833 170.28 189.53 170.457 Q 189.213 170.603 188.86 170.663 Q 188.327 170.737 187.8 170.817 Q 186.473 171.037 184.987 171.13 Q 184.643 171.15 184.3 171.17 Q 183.7 171.21 183.1 171.243 Q 182.55 171.27 182 171.277 Q 181.22 171.29 180.65 170.8 Q 180.187 170.44 180.027 169.98 Q 179.957 169.8 179.93 169.57 Q 179.783 168.607 179.67 167.603 Q 179.61 167.16 179.563 166.71 Q 179.51 166.11 179.47 165.503 L 179.47 128.253 L 179.47 128.227" fill="#0066CC"/>
	</g>
</svg>
