<?xml version="1.0"?>
<!DOCTYPE svg PUBLIC "-//W3C//DTD SVG 1.1//EN" "http://www.w3.org/Graphics/SVG/1.1/DTD/svg11.dtd">
<svg version='1.1' width='28px' height='58px' xmlns='http://www.w3.org/2000/svg' xmlns:xlink='http://www.w3.org/1999/xlink'>
	<g transform="translate(-192.064,-118.427)">
		<path d="M 192.09 126.89 Q 191.85 124.42 193.79 123.07 Q 194.86 122.36 196.38 122.04 Q 197.71 121.9 199.05 121.85 Q 202.42 121.72 205.8 122.4 Q 206.22 122.44 206.61 122.48 Q 207.07 121.52 207.54 120.67 Q 208 119.88 208.86 119.47 Q 209.67 119.04 210.87 118.94 Q 211.05 118.93 211.23 118.9 Q 211.29 118.92 211.35 118.94 Q 211.79 118.84 212.29 118.79 Q 213.19 118.59 214.22 118.51 Q 214.95 118.41 215.72 118.43 Q 217.63 118.47 218 119.37 Q 218.24 119.5 218.36 120.89 Q 218.38 121.8 218.4 122.96 Q 218.37 123.65 218.32 124.43 Q 218.29 124.87 218.26 125.33 Q 218.08 128.38 218.13 132.72 Q 218.14 135.22 218.25 138.21 Q 218.33 141.06 218.47 144.11 Q 218.81 151.5 219.11 157.2 Q 219.11 157.23 219.11 157.28 Q 219.12 158.39 219.23 159.53 Q 219.23 160.2 219.25 160.87 Q 219.34 162.87 219.27 164.73 Q 219.21 167.56 218.72 169.88 Q 218.46 171.27 218 172.33 Q 217.43 173.87 216.6 174.58 Q 216.46 174.73 216.29 174.88 Q 214.83 176.36 213.21 176.09 Q 212.34 175.94 211.45 175.41 Q 210.78 174.99 210.06 174.37 Q 209.5 173.8 208.88 173.14 Q 209.07 168.39 208.84 160.16 Q 208.79 159.16 208.77 158.13 Q 208.6 151.81 208.66 143.67 Q 208.66 142.78 208.64 141.91 Q 208.64 141.78 208.64 141.62 Q 208.62 140.69 208.6 139.79 Q 208.56 138.9 208.36 138.33 Q 207.41 135.82 206.34 133.69 Q 206.11 133.22 205.83 132.8 Q 205.65 132.53 205.39 132.29 Q 205.19 132.11 204.96 131.99 Q 204.6 131.74 204.18 131.58 Q 203.28 131.32 202.38 131.2 Q 202.12 131.16 201.86 131.12 Q 201.39 131.1 200.92 131.08 Q 199.38 130.85 197.88 130.6 L 197.86 130.6 Q 196.47 130.34 195.33 129.93 Q 194.67 129.66 194.07 129.33 Q 194.07 129.31 194.07 129.31 Q 193.45 128.98 193 128.56 Q 192.46 127.94 192.16 127.29 Q 192.1 127.11 192.09 126.95 L 192.09 126.89" fill="#0066CC"/>
	</g>
</svg>
