<?xml version="1.0"?>
<!DOCTYPE svg PUBLIC "-//W3C//DTD SVG 1.1//EN" "http://www.w3.org/Graphics/SVG/1.1/DTD/svg11.dtd">
<svg version='1.1' width='29px' height='35px' xmlns='http://www.w3.org/2000/svg' xmlns:xlink='http://www.w3.org/1999/xlink'>
	<g transform="translate(-236.15,-132.729)">
		<path d="M 236.15 140.011 Q 236.221 139.055 236.313 138.411 Q 236.384 137.755 236.447 137.563 Q 236.503 136.895 236.753 136.392 Q 237.187 134.997 238.579 134.461 Q 239.153 134.274 239.842 134.203 Q 239.921 134.203 240 134.203 Q 246.261 134.311 251.547 133.266 Q 251.568 133.266 251.618 133.266 Q 251.847 133.195 252.105 133.124 Q 254.163 132.726 256.316 132.729 Q 256.316 132.729 256.345 132.729 Q 256.884 132.774 257.482 132.876 Q 257.561 132.884 257.639 132.892 Q 257.639 132.892 257.668 132.892 Q 257.668 132.892 257.668 132.892 Q 258.113 132.858 258.529 132.989 Q 258.5 132.961 258.5 132.961 Q 260.939 133.361 261.75 135.45 Q 261.771 135.45 261.792 135.479 Q 262.445 136.882 263.292 138.534 Q 263.511 138.947 263.737 139.411 Q 263.758 139.411 263.779 139.439 Q 264.266 140.3 264.468 141.358 Q 264.489 141.466 264.482 141.574 Q 264.876 143.192 264.9 145.126 Q 264.9 145.213 264.9 145.3 Q 264.924 148.097 264.932 150.808 Q 264.961 150.966 264.961 151.153 Q 264.903 152.005 264.961 152.974 Q 264.961 152.995 264.961 153.045 Q 265.018 154.416 265.047 155.729 Q 265.076 158.505 264.792 161.008 Q 264.718 165.461 263.358 166.521 Q 263.113 166.65 262.782 166.692 Q 262.753 166.692 262.724 166.692 Q 262.242 166.789 261.732 166.961 Q 261.045 167.25 259.889 166.208 Q 259.497 165.976 259.084 165.342 Q 256.692 162.608 255.889 154.805 Q 255.889 154.805 255.889 154.776 Q 255.832 153.792 255.845 152.932 Q 255.647 151.189 255.676 149.297 Q 255.124 148.468 254.65 147.653 Q 253.837 146.313 253.116 144.942 Q 253.024 144.753 252.932 144.563 Q 252.647 144.147 252.566 143.797 Q 252.545 143.739 252.553 143.711 Q 252.418 143.463 252.371 143.245 Q 251.897 143.308 251.424 143.205 Q 250.837 143.087 249.729 143.034 Q 247.666 143.318 242.208 142.987 Q 236.795 142.663 236.15 140.068 L 236.15 140.011" fill="#0066CC"/>
	</g>
</svg>
