<?xml version="1.0"?>
<!DOCTYPE svg PUBLIC "-//W3C//DTD SVG 1.1//EN" "http://www.w3.org/Graphics/SVG/1.1/DTD/svg11.dtd">
<svg version='1.1' width='43px' height='39px' xmlns='http://www.w3.org/2000/svg' xmlns:xlink='http://www.w3.org/1999/xlink'>
	<g transform="translate(-128.025,-133.456)">
		<path d="M 128.059 154.471 Q 127.885 151.165 128.615 148.179 Q 129.079 146.244 129.997 144.559 Q 130.015 144.509 130.065 144.491 Q 130.65 143.294 131.471 142.215 Q 132.626 140.762 134.1 139.494 Q 135.609 138.138 137.485 137.088 Q 137.485 137.088 137.518 137.088 Q 137.518 137.088 137.518 137.088 Q 138.138 136.732 138.791 136.394 Q 139.918 135.8 141.144 135.324 Q 144.391 133.979 148.138 133.665 Q 148.106 133.697 148.106 133.697 Q 150.376 133.465 152.691 133.459 Q 155.432 133.421 158.165 133.853 Q 158.232 133.871 158.3 133.888 Q 158.371 133.988 158.441 134.121 Q 158.862 134.226 159.232 134.397 Q 159.365 134.382 159.529 134.4 Q 159.782 134.438 160.018 134.476 Q 160.471 134.632 160.891 134.788 Q 161.244 134.862 161.612 134.953 Q 163.629 135.568 165.018 136.941 Q 165.035 136.941 165.053 136.976 Q 166.541 138.5 167.268 140.744 Q 167.335 140.979 167.435 141.247 Q 167.997 141.924 168.329 142.779 Q 168.379 142.947 168.429 143.132 Q 168.479 143.232 168.529 143.332 Q 168.747 144.226 168.768 145.25 Q 168.788 146.124 168.806 146.979 Q 168.806 147.012 168.806 147.062 Q 168.806 147.179 168.824 147.297 Q 168.824 147.415 168.824 147.532 Q 168.859 147.579 168.912 147.644 Q 169.141 147.9 169.335 148.226 Q 169.353 148.274 169.371 148.356 Q 169.371 148.388 169.388 148.421 Q 169.512 148.582 169.618 148.762 Q 169.653 148.844 169.688 148.909 Q 169.865 149.082 170.059 149.344 Q 170.165 149.453 170.288 149.597 Q 170.306 149.629 170.306 149.662 Q 170.306 150.138 170.338 150.632 Q 170.403 153.05 170.126 155.338 Q 170.126 155.338 170.109 155.338 Q 169.815 155.665 169.574 155.956 Q 169.521 156.021 169.485 156.103 Q 169.365 156.168 169.262 156.232 Q 169.212 156.297 169.179 156.362 Q 169.144 156.376 169.109 156.409 Q 168.938 156.556 168.785 156.685 Q 168.718 156.7 168.668 156.732 Q 168.65 156.732 168.632 156.75 Q 168.565 156.782 168.515 156.815 Q 168.497 156.847 168.479 156.879 Q 168.479 156.897 168.479 156.897 Q 168.265 157.571 167.985 158.212 Q 167.756 158.65 167.476 159.088 Q 166.782 160.176 166.032 161.262 Q 165.832 161.55 165.632 161.821 Q 165.265 162.376 164.879 162.9 Q 163.862 164.232 162.609 165.35 Q 162.559 165.4 162.491 165.45 Q 162.426 165.45 162.426 165.45 Q 161.976 165.885 161.526 166.288 Q 160.824 166.912 160.135 167.388 Q 160.118 167.438 160.1 167.488 Q 158.671 168.588 157.232 169.435 Q 157.2 169.453 157.2 169.471 Q 157.182 169.471 157.165 169.471 Q 157.065 169.521 156.982 169.571 Q 154.791 170.715 152.656 171.406 Q 151.138 171.897 149.194 172.085 Q 147.779 172.256 146.203 172.256 Q 144.824 172.256 143.476 172.071 Q 141.626 171.8 139.862 171.179 Q 139.576 171.062 139.291 170.944 Q 137.744 170.338 136.365 169.482 Q 134.921 168.594 133.662 167.403 Q 133.662 167.403 133.662 167.403 Q 132.297 166.109 131.235 164.444 Q 131.185 164.376 131.153 164.326 Q 130.362 163.15 129.721 161.826 Q 129.721 161.826 129.721 161.826 Q 129.635 161.641 129.55 161.456 Q 129.482 161.406 129.482 161.356 Q 129.465 161.338 129.465 161.321 Q 128.894 159.738 128.574 158.141 Q 128.556 158.124 128.574 158.106 Q 128.168 156.491 128.076 154.812 Q 128.076 154.794 128.076 154.776 Q 128.059 154.641 128.059 154.506 L 128.059 154.471" fill="#0066CC"/>
		<path d="M 138.385 152.168 Q 138.456 151.321 138.679 150.506 Q 139.191 149.118 139.191 149.1 Q 139.632 148.106 140.271 147.326 Q 140.438 147.156 140.606 147.003 Q 140.791 146.747 141.012 146.526 Q 142.803 144.668 145.509 143.821 Q 147.706 143.171 150.241 142.871 Q 152.197 142.653 154.124 143.032 Q 154.476 143.121 154.797 143.226 Q 155.844 143.497 156.824 143.818 Q 157.447 144.015 158.018 144.247 Q 158.606 144.497 159.026 144.765 Q 159.212 144.874 159.379 145.015 Q 159.815 145.382 160.212 145.729 Q 160.335 146.371 160.406 147.047 Q 160.529 148.132 160.724 149.218 Q 160.759 149.471 160.794 149.724 Q 160.794 149.724 160.812 149.741 Q 160.812 149.791 160.829 149.841 Q 160.847 149.959 160.882 150.094 Q 160.882 150.144 160.9 150.194 Q 160.971 150.415 161.094 150.653 Q 161.094 150.653 161.112 150.671 Q 161.129 150.721 161.165 150.771 Q 161.129 150.871 161.112 150.971 Q 161.094 151.003 161.094 151.053 Q 161.041 151.341 161.024 151.629 Q 160.971 151.985 160.935 152.359 Q 160.918 152.391 160.918 152.441 Q 160.882 152.524 160.882 152.641 Q 160.865 152.776 160.847 152.929 Q 160.632 153.926 160.371 154.891 Q 160.3 155.144 160.179 155.379 Q 160.162 155.429 160.144 155.497 Q 160.038 155.776 159.915 156.056 Q 159.897 156.074 159.879 156.091 Q 159.109 156.959 158.721 157.953 L 158.688 158.003 Q 158.653 157.971 158.635 157.974 Q 158.529 157.968 158.424 157.944 Q 157.7 158.638 156.971 159.182 Q 155.412 160.318 153.715 161.229 Q 153.05 161.535 152.385 161.771 Q 152.4 161.771 152.382 161.771 Q 150.838 162.338 149.191 162.426 Q 147.035 162.512 144.976 161.965 Q 144.706 161.894 144.435 161.806 Q 144.418 161.788 144.382 161.788 Q 143.638 161.541 143.015 161.191 Q 142.965 161.156 142.915 161.138 Q 140.724 160.009 139.576 158.179 Q 139.609 158.162 139.609 158.144 Q 139.391 157.768 139.209 157.341 Q 138.876 156.609 138.694 155.826 Q 138.312 154.176 138.385 152.315 Q 138.385 152.297 138.385 152.297 L 138.385 152.168" fill="#0066CC"/>
	</g>
</svg>
