<?xml version="1.0"?>
<!DOCTYPE svg PUBLIC "-//W3C//DTD SVG 1.1//EN" "http://www.w3.org/Graphics/SVG/1.1/DTD/svg11.dtd">
<svg version='1.1' width='28px' height='49px' xmlns='http://www.w3.org/2000/svg' xmlns:xlink='http://www.w3.org/1999/xlink'>
	<g transform="translate(-190.612,-123.09)">
		<path d="M 190.63 129.83 Q 190.45 127.84 192.23 126.49 Q 193.22 125.82 194.36 125.38 Q 195.47 125 196.65 124.75 Q 199.54 124.14 202.6 124.6 Q 202.94 124.58 203.27 124.56 Q 204.19 124.14 205.08 123.89 Q 205.9 123.66 206.82 123.69 Q 207.69 123.68 208.69 123.88 Q 208.85 123.91 209.01 123.9 Q 209.03 123.94 209.05 123.98 Q 209.43 123.88 209.83 123.83 Q 210.63 123.53 211.54 123.37 Q 212.25 123.17 212.94 123.11 Q 214.41 122.99 215.3 123.59 Q 215.78 123.8 216.22 124.53 Q 216.36 125.4 216.5 126.32 Q 216.49 126.95 216.44 127.61 Q 216.43 127.99 216.42 128.41 Q 216.36 131.16 216.51 134.94 Q 216.58 137.14 216.75 139.77 Q 216.91 142.42 217.09 144.97 Q 217.57 151.6 217.97 156.6 Q 217.97 156.61 217.97 156.66 Q 217.94 157.63 218.11 158.71 Q 218.11 159.3 218.15 159.89 Q 218.28 161.69 218.09 163.41 Q 217.87 165.82 217.04 167.96 Q 216.62 169.09 215.9 169.91 Q 215.01 170.99 213.9 171.26 Q 213.72 171.31 213.53 171.36 Q 211.81 172.12 210.57 171.13 Q 209.88 170.58 209.35 169.77 Q 208.96 169.13 208.62 168.39 Q 208.4 167.7 208.16 166.98 Q 208.09 161.93 207.88 155.72 Q 207.83 154.82 207.79 153.91 Q 207.6 148.27 207.62 141.19 Q 207.62 140.36 207.58 139.57 Q 207.58 139.46 207.58 139.34 Q 207.54 138.53 207.5 137.73 Q 207.42 136.8 207.02 136.51 Q 205.17 134.94 203.08 134.13 Q 202.67 133.94 202.21 133.8 Q 201.95 133.71 201.63 133.63 Q 201.43 133.57 201.22 133.53 Q 200.9 133.48 200.56 133.46 Q 199.76 133.44 198.96 133.5 Q 198.74 133.52 198.52 133.54 Q 198.03 133.6 197.54 133.66 Q 196.16 133.65 194.86 133.6 L 194.82 133.6 Q 193.49 133.48 192.61 133.01 Q 192.09 132.72 191.69 132.31 Q 191.69 132.27 191.69 132.27 Q 191.25 131.86 191 131.42 Q 190.62 130.78 190.62 130.13 Q 190.6 129.97 190.63 129.85 L 190.63 129.83" fill="#0066CC"/>
	</g>
</svg>
