<?xml version="1.0"?>
<!DOCTYPE svg PUBLIC "-//W3C//DTD SVG 1.1//EN" "http://www.w3.org/Graphics/SVG/1.1/DTD/svg11.dtd">
<svg version='1.1' width='46px' height='30px' xmlns='http://www.w3.org/2000/svg' xmlns:xlink='http://www.w3.org/1999/xlink'>
	<g transform="translate(-27.8015,-111.808)">
		<path d="M 27.8015 132.154 Q 27.8574 131.41 28.1559 130.804 Q 28.2 130.676 28.2721 130.549 Q 28.4544 130.187 28.6868 129.969 Q 28.9147 129.779 29.2206 129.696 Q 29.2706 129.668 29.3206 129.668 Q 29.5647 129.612 29.8647 129.612 Q 35.0118 129.528 39.7956 128.271 Q 41.6456 127.796 43.4676 127.125 Q 44.8059 126.65 46.1162 126.119 Q 57.8088 121.174 67.35 113.015 Q 68.6426 111.729 70.075 111.813 Q 70.7632 111.869 71.3691 112.447 Q 71.9412 112.969 72.2765 113.797 Q 72.5838 114.619 72.8912 115.637 Q 73.6456 118.232 73.5618 120.604 Q 73.5338 121.349 73.1574 121.926 Q 72.9191 122.36 72.6088 122.706 Q 72.4147 122.896 72.1985 123.063 Q 66.4779 127.897 60.0868 131.585 Q 57.9559 132.843 55.7412 133.988 Q 53.9485 134.882 52.1 135.693 Q 50.1676 136.475 48.2912 137.313 Q 48.2191 137.341 48.175 137.341 L 48.175 137.313 Q 47.0868 137.732 45.9985 138.096 Q 45.7765 138.151 45.5824 138.207 Q 45.0265 138.431 44.4706 138.626 Q 44.3985 138.654 44.2985 138.682 Q 40.7824 139.828 37.0985 140.666 Q 34.375 141.309 31.9868 140.778 Q 31.2485 140.638 30.6706 140.144 Q 30.0368 139.622 29.6735 138.85 Q 28.975 137.224 28.4162 135.122 Q 28.1088 133.75 27.8294 132.266 L 27.8015 132.154" fill="#0066CC"/>
	</g>
</svg>
