<?xml version="1.0"?>
<!DOCTYPE svg PUBLIC "-//W3C//DTD SVG 1.1//EN" "http://www.w3.org/Graphics/SVG/1.1/DTD/svg11.dtd">
<svg version='1.1' width='28px' height='54px' xmlns='http://www.w3.org/2000/svg' xmlns:xlink='http://www.w3.org/1999/xlink'>
	<g transform="translate(-191.339,-120.768)">
		<path d="M 191.36 128.36 Q 191.15 126.13 193.01 124.78 Q 194.04 124.09 195.37 123.71 Q 196.59 123.45 197.85 123.3 Q 200.98 122.93 204.2 123.5 Q 204.58 123.51 204.94 123.52 Q 205.63 122.83 206.31 122.28 Q 206.95 121.77 207.84 121.58 Q 208.68 121.36 209.78 121.41 Q 209.95 121.42 210.12 121.4 Q 210.16 121.43 210.2 121.46 Q 210.61 121.36 211.06 121.31 Q 211.91 121.06 212.88 120.94 Q 213.6 120.79 214.33 120.77 Q 216.02 120.73 216.65 121.48 Q 217.01 121.65 217.29 122.71 Q 217.37 123.6 217.45 124.64 Q 217.43 125.3 217.38 126.02 Q 217.36 126.43 217.34 126.87 Q 217.22 129.77 217.32 133.83 Q 217.36 136.18 217.5 138.99 Q 217.62 141.74 217.78 144.54 Q 218.19 151.55 218.54 156.9 Q 218.54 156.92 218.54 156.97 Q 218.53 158.01 218.67 159.12 Q 218.67 159.75 218.7 160.38 Q 218.81 162.28 218.68 164.07 Q 218.54 166.69 217.88 168.92 Q 217.54 170.18 216.95 171.12 Q 216.22 172.43 215.25 172.92 Q 215.09 173.02 214.91 173.12 Q 213.32 174.24 211.89 173.61 Q 211.11 173.26 210.4 172.59 Q 209.87 172.06 209.34 171.38 Q 208.95 170.75 208.52 170.06 Q 208.58 165.16 208.36 157.94 Q 208.31 156.99 208.28 156.02 Q 208.1 150.04 208.14 142.43 Q 208.14 141.57 208.11 140.74 Q 208.11 140.62 208.11 140.48 Q 208.08 139.61 208.05 138.76 Q 207.99 137.85 207.69 137.42 Q 206.29 135.38 204.71 133.91 Q 204.39 133.58 204.02 133.3 Q 203.8 133.12 203.51 132.96 Q 203.31 132.84 203.09 132.76 Q 202.75 132.61 202.37 132.52 Q 201.52 132.38 200.67 132.35 Q 200.43 132.34 200.19 132.33 Q 199.71 132.35 199.23 132.37 Q 197.77 132.25 196.37 132.1 L 196.34 132.1 Q 194.98 131.91 193.97 131.47 Q 193.38 131.19 192.88 130.82 Q 192.88 130.79 192.88 130.79 Q 192.35 130.42 192 129.99 Q 191.54 129.36 191.39 128.71 Q 191.35 128.54 191.36 128.4 L 191.36 128.36" fill="#0066CC"/>
	</g>
</svg>
