<?xml version="1.0"?>
<!DOCTYPE svg PUBLIC "-//W3C//DTD SVG 1.1//EN" "http://www.w3.org/Graphics/SVG/1.1/DTD/svg11.dtd">
<svg version='1.1' width='96px' height='44px' xmlns='http://www.w3.org/2000/svg' xmlns:xlink='http://www.w3.org/1999/xlink'>
	<g transform="translate(-98.8058,-202.45)">
		<path d="M 129.65 220.25 Q 154.185 221.576 169.625 221.5 Q 185.066 221.426 191.65 220.4 Q 197.789 225.977 189.725 228 Q 185.446 229.139 181.025 229.025 Q 160.187 228.537 139.35 228.05 Q 120.131 227.604 101.075 229.075 Q 101.025 229.071 100.975 229.075 Q 99.2871 229.206 98.975 227.35 Q 98.1861 222.885 101.075 221.4 Q 102.606 220.618 105.175 220.675 Q 117.07 221.02 127 213.75 Q 131.102 210.737 132.35 215.95 Q 132.813 217.995 129.65 220.25 Z M 140.15 245.1 Q 139.534 245.422 139.025 245.8 Q 139.23 245.025 139.425 244.25 Q 140.222 242.65 141.725 242.1 Q 142.25 241.95 142.775 241.85 Q 144.57 243.006 145.425 244.5 Q 144.566 244.229 143.55 244.05 Q 141.85 244.2 140.15 245.1 Z M 119.2 233.05 Q 119.754 233.09 120.3 233.15 Q 124.352 233.605 135.275 234.15 Q 146.198 234.69 162.75 233.9 Q 174.35 233.342 178.325 233.05 Q 180.018 232.926 180.325 232.85 Q 180.737 232.877 181.125 232.95 Q 181.578 232.993 182.025 233.05 Q 182.376 233.095 182.725 233.15 Q 190.24 239.371 179.3 241.6 Q 176.612 242.14 173.725 241.975 Q 145.5 240.402 117.275 241.25 Q 110.431 241.467 108.3 237.225 Q 106.641 233.99 111.15 233.4 Q 112.966 233.153 114.65 233.05 Q 117.055 232.901 119.2 233.05 Z M 125.5 204.25 Q 147.217 203.986 168.125 202.45 Q 177.569 206.047 168.675 210.15 Q 166.177 211.285 162.925 211.5 Q 141.91 212.885 122.05 210.05 Q 120.75 209.862 120.45 208.75 Q 119.459 204.33 125.5 204.25 Z" fill="#0066CC"/>
	</g>
</svg>
