<?xml version="1.0"?>
<!DOCTYPE svg PUBLIC "-//W3C//DTD SVG 1.1//EN" "http://www.w3.org/Graphics/SVG/1.1/DTD/svg11.dtd">
<svg version='1.1' width='42px' height='39px' xmlns='http://www.w3.org/2000/svg' xmlns:xlink='http://www.w3.org/1999/xlink'>
	<g transform="translate(-128.241,-134.013)">
		<path d="M 128.271 154.665 Q 128.107 151.393 128.843 148.46 Q 129.31 146.553 130.226 144.896 Q 130.243 144.846 130.293 144.829 Q 130.875 143.653 131.69 142.593 Q 132.837 141.169 134.3 139.928 Q 135.796 138.606 137.657 137.581 Q 137.657 137.581 137.691 137.581 Q 137.691 137.581 137.691 137.581 Q 138.306 137.234 138.954 136.903 Q 140.066 136.325 141.278 135.863 Q 144.479 134.56 148.181 134.243 Q 148.147 134.276 148.147 134.276 Q 150.387 134.043 152.679 134.021 Q 155.384 133.965 158.093 134.349 Q 158.159 134.365 158.225 134.381 Q 158.29 134.481 158.354 134.615 Q 158.769 134.712 159.134 134.876 Q 159.268 134.859 159.435 134.875 Q 159.684 134.906 159.916 134.937 Q 160.365 135.084 160.779 135.231 Q 161.128 135.294 161.494 135.374 Q 163.51 135.941 164.891 137.279 Q 164.907 137.279 164.924 137.312 Q 166.404 138.8 167.116 141.028 Q 167.182 141.26 167.282 141.526 Q 167.851 142.188 168.185 143.035 Q 168.235 143.201 168.285 143.384 Q 168.335 143.484 168.385 143.584 Q 168.601 144.462 168.616 145.475 Q 168.631 146.338 168.647 147.185 Q 168.647 147.219 168.647 147.269 Q 168.647 147.385 168.663 147.501 Q 168.663 147.618 168.663 147.734 Q 168.696 147.785 168.744 147.853 Q 168.954 148.125 169.132 148.462 Q 169.149 148.513 169.165 148.597 Q 169.165 148.631 169.181 148.665 Q 169.294 148.834 169.391 149.019 Q 169.424 149.103 169.456 149.171 Q 169.618 149.359 169.796 149.628 Q 169.893 149.749 170.006 149.901 Q 170.022 149.935 170.022 149.969 Q 170.022 150.431 170.056 150.909 Q 170.124 153.3 169.837 155.556 Q 169.837 155.556 169.821 155.556 Q 169.543 155.893 169.313 156.197 Q 169.265 156.265 169.232 156.349 Q 169.118 156.416 169.019 156.484 Q 168.969 156.551 168.935 156.619 Q 168.903 156.637 168.871 156.671 Q 168.706 156.822 168.557 156.957 Q 168.491 156.975 168.441 157.009 Q 168.425 157.009 168.409 157.025 Q 168.343 157.059 168.293 157.093 Q 168.276 157.126 168.26 157.16 Q 168.26 157.176 168.26 157.176 Q 168.043 157.84 167.757 158.469 Q 167.522 158.9 167.237 159.331 Q 166.534 160.387 165.784 161.444 Q 165.584 161.725 165.384 161.99 Q 165.018 162.537 164.635 163.05 Q 163.619 164.359 162.371 165.45 Q 162.321 165.5 162.254 165.55 Q 162.187 165.55 162.187 165.55 Q 161.737 165.982 161.287 166.381 Q 160.588 166.994 159.907 167.456 Q 159.891 167.506 159.875 167.556 Q 158.465 168.631 157.059 169.457 Q 157.025 169.474 157.025 169.49 Q 157.009 169.49 156.993 169.49 Q 156.893 169.54 156.809 169.59 Q 154.629 170.718 152.522 171.397 Q 151.031 171.876 149.103 172.057 Q 147.71 172.222 146.149 172.222 Q 144.788 172.222 143.462 172.04 Q 141.637 171.775 139.894 171.16 Q 139.612 171.044 139.329 170.928 Q 137.803 170.331 136.443 169.484 Q 135.015 168.603 133.769 167.424 Q 133.769 167.424 133.769 167.424 Q 132.426 166.146 131.382 164.503 Q 131.332 164.437 131.299 164.387 Q 130.519 163.225 129.89 161.912 Q 129.89 161.912 129.89 161.912 Q 129.807 161.729 129.725 161.547 Q 129.659 161.497 129.659 161.447 Q 129.643 161.431 129.643 161.415 Q 129.078 159.856 128.763 158.279 Q 128.747 158.263 128.763 158.247 Q 128.366 156.654 128.287 154.994 Q 128.287 154.978 128.287 154.962 Q 128.271 154.829 128.271 154.697 L 128.271 154.665" fill="#0066CC"/>
		<path d="M 138.682 152.516 Q 138.747 151.69 138.96 150.897 Q 139.454 149.541 139.454 149.525 Q 139.884 148.547 140.515 147.787 Q 140.681 147.622 140.847 147.474 Q 141.029 147.226 141.244 147.012 Q 142.999 145.216 145.646 144.39 Q 147.772 143.765 150.254 143.465 Q 152.151 143.249 154.038 143.584 Q 154.387 143.665 154.701 143.762 Q 155.728 144.001 156.688 144.291 Q 157.301 144.468 157.866 144.676 Q 158.447 144.901 158.862 145.143 Q 159.044 145.238 159.21 145.368 Q 159.643 145.709 160.044 146.035 Q 160.157 146.665 160.222 147.326 Q 160.335 148.384 160.513 149.441 Q 160.546 149.69 160.578 149.938 Q 160.578 149.938 160.594 149.954 Q 160.594 150.004 160.61 150.054 Q 160.626 150.171 160.659 150.303 Q 160.659 150.353 160.675 150.403 Q 160.74 150.618 160.853 150.849 Q 160.853 150.849 160.869 150.865 Q 160.885 150.915 160.918 150.965 Q 160.885 151.065 160.869 151.165 Q 160.853 151.199 160.853 151.249 Q 160.804 151.529 160.788 151.81 Q 160.74 152.157 160.707 152.521 Q 160.691 152.554 160.691 152.604 Q 160.659 152.688 160.659 152.804 Q 160.643 152.937 160.626 153.085 Q 160.434 154.062 160.19 155.004 Q 160.125 155.253 160.01 155.485 Q 159.994 155.535 159.978 155.601 Q 159.881 155.862 159.768 156.122 Q 159.751 156.138 159.735 156.154 Q 158.971 156.996 158.615 157.974 L 158.581 158.024 Q 158.549 157.99 158.532 157.988 Q 158.435 157.966 158.338 157.928 Q 157.625 158.606 156.915 159.134 Q 155.394 160.241 153.743 161.135 Q 153.1 161.432 152.457 161.665 Q 152.475 161.665 152.459 161.665 Q 150.956 162.231 149.354 162.337 Q 147.257 162.444 145.237 161.943 Q 144.972 161.878 144.707 161.797 Q 144.691 161.781 144.659 161.781 Q 143.931 161.554 143.318 161.229 Q 143.268 161.197 143.218 161.181 Q 141.038 160.121 139.887 158.36 Q 139.921 158.344 139.921 158.328 Q 139.704 157.966 139.521 157.554 Q 139.187 156.846 139.003 156.087 Q 138.619 154.487 138.682 152.668 Q 138.682 152.651 138.682 152.651 L 138.682 152.516" fill="#0066CC"/>
	</g>
</svg>
