<?xml version="1.0"?>
<!DOCTYPE svg PUBLIC "-//W3C//DTD SVG 1.1//EN" "http://www.w3.org/Graphics/SVG/1.1/DTD/svg11.dtd">
<svg version='1.1' width='44px' height='40px' xmlns='http://www.w3.org/2000/svg' xmlns:xlink='http://www.w3.org/1999/xlink'>
	<g transform="translate(-27.4338,-111.497)">
		<path d="M 27.4338 141.551 Q 27.5191 140.837 27.6853 140.201 Q 27.7 140.059 27.7574 139.916 Q 27.8515 139.496 27.9956 139.19 Q 28.2382 138.926 28.5735 138.799 Q 28.6235 138.756 28.6735 138.756 Q 28.8882 138.671 29.1882 138.671 Q 34.5706 138.543 39.3985 136.624 Q 41.2485 135.899 43.0559 134.875 Q 44.3353 134.15 45.5721 133.34 Q 56.6029 125.791 64.35 113.338 Q 65.4809 111.376 66.825 111.504 Q 67.4544 111.59 68.0897 112.182 Q 68.6471 112.69 69.1588 113.532 Q 69.6279 114.34 70.0971 115.446 Q 71.2485 118.144 71.1206 120.501 Q 71.0779 121.216 70.8191 121.809 Q 70.6397 122.287 70.4029 122.735 Q 70.2382 122.999 70.0662 123.254 Q 65.4926 130.632 59.8956 136.262 Q 57.9853 138.181 55.9471 139.929 Q 54.3162 141.294 52.6 142.531 Q 50.7559 143.725 48.9971 145.004 Q 48.9397 145.047 48.925 145.047 L 48.925 145.004 Q 47.8956 145.644 46.8662 146.199 Q 46.6588 146.284 46.4941 146.369 Q 45.9088 146.71 45.3235 147.009 Q 45.2662 147.051 45.1662 147.094 Q 41.6941 148.843 37.9662 150.122 Q 35.125 151.103 32.7956 150.293 Q 32.1162 150.079 31.5235 149.615 Q 30.8456 149.107 30.2912 148.35 Q 29.225 146.841 28.3721 144.607 Q 27.9029 143.25 27.4765 141.722 L 27.4338 141.551" fill="#0066CC"/>
	</g>
</svg>
