<?xml version="1.0"?>
<!DOCTYPE svg PUBLIC "-//W3C//DTD SVG 1.1//EN" "http://www.w3.org/Graphics/SVG/1.1/DTD/svg11.dtd">
<svg version='1.1' width='52px' height='51px' xmlns='http://www.w3.org/2000/svg' xmlns:xlink='http://www.w3.org/1999/xlink'>
	<g transform="translate(-123.897,-122.606)">
		<path d="M 124.035 150.782 Q 123.666 146.834 124.284 142.843 Q 124.693 140.376 125.638 138.16 Q 125.684 138.11 125.734 138.065 Q 126.375 136.476 127.307 135.034 Q 128.631 133.022 130.3 131.251 Q 132.06 129.253 134.216 127.728 Q 134.216 127.728 134.221 127.728 Q 134.221 127.728 134.221 127.728 Q 134.953 127.204 135.69 126.726 Q 137.096 125.825 138.601 125.069 Q 142.715 122.943 147.328 122.684 Q 147.324 122.688 147.324 122.688 Q 150.181 122.484 152.915 122.785 Q 156.354 123.082 159.534 124.437 Q 159.629 124.482 159.725 124.528 Q 159.907 124.628 160.09 124.732 Q 160.622 125.006 161.104 125.288 Q 161.209 125.329 161.318 125.375 Q 161.654 125.553 161.946 125.731 Q 162.482 126.054 163.015 126.378 Q 163.451 126.647 163.847 126.962 Q 165.893 128.471 167.421 130.515 Q 167.466 130.515 167.512 130.606 Q 169.14 132.8 170.146 135.351 Q 170.241 135.643 170.341 135.938 Q 170.763 136.894 171.068 137.918 Q 171.118 138.113 171.168 138.354 Q 171.218 138.454 171.268 138.554 Q 171.513 139.756 171.646 140.975 Q 171.778 142.044 171.824 143.068 Q 171.824 143.072 171.824 143.122 Q 171.824 143.268 171.869 143.413 Q 171.869 143.559 171.869 143.704 Q 171.96 143.668 172.097 143.676 Q 172.69 143.625 173.191 143.756 Q 173.237 143.719 173.282 143.774 Q 173.282 143.778 173.328 143.782 Q 173.647 143.804 173.921 143.872 Q 174.012 143.926 174.103 143.935 Q 174.559 143.829 175.06 143.951 Q 175.334 143.837 175.653 143.813 Q 175.699 143.818 175.699 143.822 Q 175.699 144.578 175.703 145.379 Q 175.712 148.3 175.631 151.203 Q 175.631 151.203 175.585 151.203 Q 174.984 151.334 174.519 151.374 Q 174.382 151.382 174.291 151.437 Q 174.059 151.446 173.872 151.454 Q 173.822 151.463 173.818 151.472 Q 173.726 151.431 173.635 151.435 Q 173.353 151.499 173.116 151.516 Q 173.021 151.475 172.971 151.479 Q 172.925 151.479 172.879 151.525 Q 172.784 151.529 172.734 151.534 Q 172.688 151.538 172.643 151.543 Q 172.643 151.588 172.643 151.588 Q 172.484 152.457 172.316 153.322 Q 172.199 153.9 172.031 154.478 Q 171.504 156.181 170.754 157.797 Q 170.554 158.225 170.354 158.607 Q 169.959 159.331 169.518 160.05 Q 168.472 161.829 167.135 163.45 Q 167.085 163.5 166.99 163.55 Q 166.981 163.55 166.981 163.55 Q 166.531 164.041 166.081 164.528 Q 165.294 165.347 164.466 166.103 Q 164.421 166.153 164.375 166.203 Q 162.582 167.778 160.529 169.016 Q 160.525 169.062 160.525 169.107 Q 160.479 169.107 160.434 169.107 Q 160.334 169.157 160.279 169.207 Q 157.865 170.659 155.199 171.574 Q 153.178 172.288 150.926 172.616 Q 149.093 172.899 147.237 172.899 Q 145.494 172.899 143.756 172.657 Q 141.431 172.275 139.247 171.543 Q 138.906 171.397 138.565 171.251 Q 136.626 170.478 134.884 169.454 Q 133.132 168.426 131.622 167.012 Q 131.622 167.012 131.622 167.012 Q 129.838 165.41 128.441 163.326 Q 128.391 163.231 128.387 163.181 Q 127.372 161.725 126.507 160.206 Q 126.507 160.206 126.507 160.206 Q 126.366 159.965 126.225 159.724 Q 126.129 159.674 126.129 159.624 Q 126.084 159.578 126.084 159.532 Q 125.401 157.503 124.969 155.515 Q 124.924 155.469 124.969 155.424 Q 124.396 153.39 124.081 151.347 Q 124.081 151.301 124.081 151.256 Q 124.035 151.065 124.035 150.874 L 124.035 150.782" fill="#0066CC"/>
		<path d="M 132.741 145.546 Q 132.924 144.307 133.343 143.074 Q 134.19 141.071 134.19 141.025 Q 134.854 139.724 135.632 138.581 Q 135.828 138.299 136.024 138.062 Q 136.265 137.638 136.597 137.306 Q 139.087 134.246 142.91 133.007 Q 146.449 131.882 149.99 131.582 Q 153.063 131.337 155.744 132.554 Q 156.181 132.782 156.613 133.056 Q 158.051 133.913 159.394 134.821 Q 160.213 135.409 160.896 136.088 Q 161.624 136.813 162.156 137.584 Q 162.397 137.944 162.593 138.309 Q 163.084 139.179 163.397 139.918 Q 163.716 140.782 163.899 141.738 Q 164.218 143.354 164.719 144.971 Q 164.81 145.307 164.901 145.644 Q 164.901 145.644 164.947 145.69 Q 164.947 145.74 164.993 145.79 Q 165.038 145.935 165.129 146.126 Q 165.129 146.176 165.175 146.226 Q 165.357 146.559 165.676 146.937 Q 165.676 146.937 165.722 146.982 Q 165.768 147.032 165.859 147.082 Q 165.768 147.182 165.722 147.282 Q 165.676 147.287 165.676 147.337 Q 165.54 147.765 165.494 148.193 Q 165.357 148.716 165.266 149.285 Q 165.221 149.29 165.221 149.34 Q 165.129 149.394 165.129 149.54 Q 165.084 149.731 165.038 149.968 Q 164.404 151.356 163.807 152.74 Q 163.625 153.076 163.393 153.368 Q 163.347 153.418 163.301 153.513 Q 163.028 154.156 162.709 154.799 Q 162.663 154.844 162.618 154.89 Q 161.735 156.26 160.732 157.562 L 160.728 157.612 Q 160.637 157.607 160.591 157.694 Q 160.318 157.996 160.044 158.251 Q 159.125 159.253 158.032 160.104 Q 155.747 161.771 153.184 163.018 Q 152.1 163.491 151.016 163.782 Q 150.975 163.782 150.929 163.782 Q 148.603 164.378 146.09 164.131 Q 142.816 163.797 140.031 162.384 Q 139.649 162.201 139.266 161.974 Q 139.221 161.928 139.129 161.928 Q 138.078 161.29 137.259 160.465 Q 137.209 160.374 137.159 160.328 Q 134.744 157.885 133.681 154.743 Q 133.685 154.697 133.685 154.651 Q 133.44 153.996 133.285 153.29 Q 132.981 152.11 132.826 150.881 Q 132.472 148.281 132.741 145.609 Q 132.741 145.563 132.741 145.563 L 132.741 145.546" fill="#0066CC"/>
	</g>
</svg>
