<?xml version="1.0"?>
<!DOCTYPE svg PUBLIC "-//W3C//DTD SVG 1.1//EN" "http://www.w3.org/Graphics/SVG/1.1/DTD/svg11.dtd">
<svg version='1.1' width='26px' height='22px' xmlns='http://www.w3.org/2000/svg' xmlns:xlink='http://www.w3.org/1999/xlink'>
	<g transform="translate(-239.75,-134.535)">
		<path d="M 239.75 142.621 Q 239.842 141.961 239.976 141.421 Q 240.068 141.061 240.195 140.826 Q 240.355 140.389 240.605 140.034 Q 241.124 139.145 242.158 138.671 Q 242.605 138.547 243.084 138.455 Q 243.142 138.455 243.2 138.455 Q 247.671 137.721 251.695 136.382 Q 251.737 136.382 251.787 136.382 Q 251.995 136.289 252.211 136.197 Q 253.826 135.653 255.432 135.108 Q 255.432 135.108 255.439 135.108 Q 255.768 135.047 256.113 135.003 Q 256.171 134.968 256.229 134.934 Q 256.229 134.934 256.237 134.934 Q 256.237 134.934 256.237 134.934 Q 256.576 134.816 256.908 134.779 Q 256.9 134.771 256.9 134.771 Q 258.729 134.371 260.15 134.65 Q 260.192 134.65 260.234 134.658 Q 261.539 134.713 262.934 135.018 Q 263.321 135.095 263.674 135.221 Q 263.716 135.221 263.758 135.229 Q 264.582 135.5 265.037 136.116 Q 265.079 136.182 265.113 136.247 Q 265.803 137.234 265.7 138.853 Q 265.7 138.876 265.7 138.9 Q 265.597 141.045 265.563 143.166 Q 265.571 143.282 265.571 143.405 Q 265.555 144.111 265.571 144.847 Q 265.571 144.889 265.571 144.939 Q 265.587 145.932 265.595 146.908 Q 265.603 149.011 265.234 150.966 Q 264.887 153.671 263.716 155.342 Q 263.576 155.45 263.413 155.534 Q 263.405 155.534 263.397 155.534 Q 263.084 155.779 262.763 155.971 Q 262.139 156.45 261.279 156.166 Q 260.845 156.103 260.368 155.784 Q 256.734 153.766 256.479 148.911 Q 256.479 148.911 256.479 148.903 Q 256.463 148.234 256.539 147.563 Q 256.595 146.179 257.003 144.645 Q 256.197 144.637 255.45 144.705 Q 254.174 144.776 253.032 144.984 Q 252.897 145.005 252.763 145.026 Q 252.395 145.095 252.082 145.145 Q 252.039 145.129 252.005 145.121 Q 251.787 145.126 251.592 145.139 Q 251.245 145.266 250.897 145.311 Q 250.374 145.424 249.708 145.518 Q 247.182 146.287 244.166 145.724 Q 241.089 145.126 239.75 142.637 L 239.75 142.621" fill="#0066CC"/>
	</g>
</svg>
