<?xml version="1.0"?>
<!DOCTYPE svg PUBLIC "-//W3C//DTD SVG 1.1//EN" "http://www.w3.org/Graphics/SVG/1.1/DTD/svg11.dtd">
<svg version='1.1' width='32px' height='50px' xmlns='http://www.w3.org/2000/svg' xmlns:xlink='http://www.w3.org/1999/xlink'>
	<g transform="translate(-137.467,-123.213)">
		<path d="M 137.467 126.067 Q 137.467 125.761 137.561 125.467 Q 137.674 125.174 137.88 124.937 Q 137.887 124.887 137.937 124.837 Q 138.2 124.53 138.607 124.324 Q 138.757 124.267 138.907 124.217 Q 139.157 124.154 139.45 124.054 Q 139.85 123.941 140.293 123.848 Q 140.7 123.748 141.143 123.661 Q 141.543 123.58 141.937 123.5 Q 143.039 123.372 144.23 123.272 Q 144.517 123.261 144.798 123.25 Q 145.365 123.228 145.926 123.213 Q 148.878 123.226 151.835 123.65 Q 154.187 123.963 156.172 124.457 Q 157.652 124.809 158.909 125.291 Q 158.909 125.298 158.952 125.348 Q 160.47 125.924 161.857 126.761 Q 163.2 127.554 164.407 128.615 Q 164.407 128.622 164.45 128.628 Q 164.985 129.067 165.433 129.6 Q 166.72 130.991 167.535 132.737 Q 167.572 132.83 167.622 132.967 Q 167.665 133.067 167.709 133.174 Q 167.933 133.643 168.113 134.113 L 168.07 134.113 Q 169.276 137.224 169.309 141.465 L 169.322 143.735 Q 169.322 143.935 169.328 144.135 Q 169.348 147.004 169.367 149.88 Q 169.38 151.487 169.387 153.093 Q 169.387 153.393 169.393 153.693 Q 169.42 160.063 169.407 166.459 Q 169.407 167.565 169.387 168.678 Q 169.367 169.341 169.348 170.004 Q 169.335 170.404 169.154 170.767 Q 169.011 171.08 168.78 171.35 Q 168.313 171.876 167.635 172.061 Q 167.585 172.067 167.528 172.074 Q 167.022 172.107 166.515 172.146 Q 165.609 172.204 164.683 172.224 Q 163.876 172.243 163.076 172.204 Q 161.657 172.133 160.341 172.002 Q 160.341 172.002 160.341 172.002 Q 159.861 171.893 159.493 171.654 Q 159.276 171.504 159.102 171.311 Q 158.58 170.754 158.58 170.024 Q 158.587 168.261 158.593 166.548 Q 158.593 166.191 158.593 165.841 Q 158.613 163.428 158.626 161.022 Q 158.633 158.702 158.639 156.383 Q 158.639 154.97 158.646 153.557 Q 158.646 152.55 158.646 151.557 Q 158.646 146.18 158.6 140.804 Q 158.6 140.654 158.6 140.548 Q 158.5 139.167 158.139 138.135 Q 158.096 138.128 158.096 138.078 Q 157.648 137.059 156.852 136.474 Q 155.92 135.726 154.552 135.413 Q 154.509 135.37 154.509 135.37 Q 152.867 134.854 151.176 134.65 Q 149.659 134.37 147.787 134.393 Q 147.065 134.413 146.343 134.483 Q 146.3 134.476 146.3 134.47 Q 144.863 134.509 143.463 134.678 Q 141.97 134.865 140.52 135.189 Q 140.202 135.267 139.841 135.215 Q 139.661 135.189 139.437 135.163 Q 138.722 135.078 138.224 134.522 Q 137.683 133.933 137.65 133.133 Q 137.637 132.726 137.624 132.32 Q 137.578 130.663 137.526 129.02 Q 137.5 127.557 137.467 126.093 L 137.467 126.067" fill="#0066CC"/>
	</g>
</svg>
