<?xml version="1.0"?>
<!DOCTYPE svg PUBLIC "-//W3C//DTD SVG 1.1//EN" "http://www.w3.org/Graphics/SVG/1.1/DTD/svg11.dtd">
<svg version='1.1' width='28px' height='63px' xmlns='http://www.w3.org/2000/svg' xmlns:xlink='http://www.w3.org/1999/xlink'>
	<g transform="translate(-192.788,-116.057)">
		<path d="M 192.82 125.42 Q 192.55 122.71 194.57 121.36 Q 195.68 120.63 197.39 120.37 Q 198.83 120.35 200.25 120.4 Q 203.86 120.51 207.4 121.3 Q 207.86 121.37 208.28 121.44 Q 208.51 120.21 208.77 119.06 Q 209.05 117.99 209.88 117.36 Q 210.66 116.72 211.96 116.47 Q 212.15 116.44 212.34 116.4 Q 212.42 116.41 212.5 116.42 Q 212.97 116.32 213.52 116.27 Q 214.47 116.12 215.56 116.08 Q 216.3 116.03 217.11 116.09 Q 219.24 116.21 219.35 117.26 Q 219.47 117.35 219.43 119.07 Q 219.39 120 219.35 121.28 Q 219.31 122 219.26 122.84 Q 219.22 123.31 219.18 123.79 Q 218.94 126.99 218.94 131.61 Q 218.92 134.26 219 137.43 Q 219.04 140.38 219.16 143.68 Q 219.43 151.45 219.68 157.5 Q 219.68 157.54 219.68 157.59 Q 219.71 158.77 219.79 159.94 Q 219.79 160.65 219.8 161.36 Q 219.87 163.46 219.86 165.39 Q 219.88 168.43 219.56 170.84 Q 219.38 172.36 219.05 173.54 Q 218.64 175.31 217.95 176.24 Q 217.83 176.44 217.67 176.64 Q 216.34 178.48 214.53 178.57 Q 213.57 178.62 212.5 178.23 Q 211.69 177.92 210.78 177.36 Q 210.05 176.85 209.24 176.22 Q 209.56 171.62 209.32 162.38 Q 209.27 161.33 209.26 160.24 Q 209.1 153.58 209.18 144.91 Q 209.18 143.99 209.17 143.08 Q 209.17 142.94 209.17 142.76 Q 209.16 141.77 209.15 140.82 Q 209.13 139.95 209.03 139.24 Q 208.53 136.26 207.97 133.47 Q 207.83 132.86 207.64 132.3 Q 207.5 131.94 207.27 131.62 Q 207.07 131.38 206.83 131.22 Q 206.45 130.87 205.99 130.64 Q 205.04 130.26 204.09 130.05 Q 203.81 129.98 203.53 129.91 Q 203.07 129.85 202.61 129.79 Q 200.99 129.45 199.39 129.1 L 199.38 129.1 Q 197.96 128.77 196.69 128.39 Q 195.96 128.13 195.26 127.84 Q 195.26 127.83 195.26 127.83 Q 194.55 127.54 194 127.13 Q 193.38 126.52 192.93 125.87 Q 192.85 125.68 192.82 125.5 L 192.82 125.42" fill="#0066CC"/>
	</g>
</svg>
