<?xml version="1.0"?>
<!DOCTYPE svg PUBLIC "-//W3C//DTD SVG 1.1//EN" "http://www.w3.org/Graphics/SVG/1.1/DTD/svg11.dtd">
<svg version='1.1' width='9px' height='78px' xmlns='http://www.w3.org/2000/svg' xmlns:xlink='http://www.w3.org/1999/xlink'>
	<g transform="translate(-227.468,-108.767)">
		<path d="M 227.468 178.382 Q 227.505 177.732 227.541 176.509 Q 227.677 173.186 227.836 167.541 Q 227.891 164.355 227.945 161.055 Q 228.264 145.586 228.25 135.686 Q 228.232 134.405 228.214 133.205 Q 228.15 125.855 228.041 121.782 Q 228.023 120.982 228.005 120.218 Q 227.982 118.95 227.977 117.809 Q 227.973 117.259 228.005 116.709 Q 228.014 114.4 228.164 112 Q 228.164 111.75 228.164 111.5 Q 228.741 110.395 229.527 109.991 Q 229.705 109.85 229.882 109.709 Q 230.75 109.055 231.741 108.955 Q 232.723 108.536 233.636 109.05 Q 233.886 109.577 234.191 110.2 Q 235.55 113.2 235.959 117.255 Q 236.032 118.65 236.014 120.136 Q 235.545 146.777 235.75 173.018 Q 235.786 175.2 235.823 177.382 Q 235.877 180.014 235.682 182.573 Q 235.632 182.873 235.55 183.141 Q 235.518 183.191 235.486 183.241 Q 234.623 185.182 233.036 185.5 Q 231.827 186.018 230.545 185.955 Q 230.309 185.791 229.991 185.623 Q 229.855 185.545 229.782 185.5 Q 229.523 185.25 229.264 184.991 Q 228.568 183.336 227.673 180.845 Q 227.623 180.495 227.605 180.145 Q 227.586 179.695 227.568 179.245 Q 227.518 178.845 227.468 178.445 L 227.468 178.382" fill="#0066CC"/>
	</g>
</svg>
