<?xml version="1.0"?>
<!DOCTYPE svg PUBLIC "-//W3C//DTD SVG 1.1//EN" "http://www.w3.org/Graphics/SVG/1.1/DTD/svg11.dtd">
<svg version='1.1' width='27px' height='47px' xmlns='http://www.w3.org/2000/svg' xmlns:xlink='http://www.w3.org/1999/xlink'>
	<g transform="translate(-189.05,-124.975)">
		<path d="M 215.4 142.575 L 215.4 169.45 Q 215.399 170.228 214.825 170.775 Q 214.256 171.34 213.45 171.35 L 206.275 171.35 Q 205.469 171.34 204.9 170.775 Q 204.313 170.228 204.3 169.45 L 204.3 145.85 Q 204.3 143.127 204.05 140.825 L 204.05 140.8 Q 203.791 138.753 203.2 137.55 Q 203.186 137.526 203.175 137.5 Q 202.581 136.522 201.6 136.075 Q 201.537 136.05 201.475 136.025 Q 200.252 135.428 198.175 135.425 Q 195.935 135.447 193.525 136.625 Q 191.221 137.735 189.05 139.425 L 189.05 128.675 Q 190.821 127.497 192.575 126.7 L 192.525 126.7 Q 196.078 124.977 200 124.975 Q 207.301 124.982 211.425 129.7 Q 215.41 134.091 215.4 142.575 Z" fill="#0066CC"/>
	</g>
</svg>
