<?xml version="1.0"?>
<!DOCTYPE svg PUBLIC "-//W3C//DTD SVG 1.1//EN" "http://www.w3.org/Graphics/SVG/1.1/DTD/svg11.dtd">
<svg version='1.1' width='28px' height='52px' xmlns='http://www.w3.org/2000/svg' xmlns:xlink='http://www.w3.org/1999/xlink'>
	<g transform="translate(-191.097,-121.544)">
		<path d="M 191.117 128.85 Q 190.917 126.7 192.75 125.35 Q 193.767 124.667 195.033 124.267 Q 196.217 123.967 197.45 123.783 Q 200.5 123.333 203.667 123.867 Q 204.033 123.867 204.383 123.867 Q 205.15 123.267 205.9 122.817 Q 206.6 122.4 207.5 122.283 Q 208.35 122.133 209.417 122.233 Q 209.583 122.25 209.75 122.233 Q 209.783 122.267 209.817 122.3 Q 210.217 122.2 210.65 122.15 Q 211.483 121.883 212.433 121.75 Q 213.15 121.583 213.867 121.55 Q 215.483 121.483 216.2 122.183 Q 216.6 122.367 216.933 123.317 Q 217.033 124.2 217.133 125.2 Q 217.117 125.85 217.067 126.55 Q 217.05 126.95 217.033 127.383 Q 216.933 130.233 217.05 134.2 Q 217.1 136.5 217.25 139.25 Q 217.383 141.967 217.55 144.683 Q 217.983 151.567 218.35 156.8 Q 218.35 156.817 218.35 156.867 Q 218.333 157.883 218.483 158.983 Q 218.483 159.6 218.517 160.217 Q 218.633 162.083 218.483 163.85 Q 218.317 166.4 217.6 168.6 Q 217.233 169.817 216.6 170.717 Q 215.817 171.95 214.8 172.367 Q 214.633 172.45 214.45 172.533 Q 212.817 173.533 211.45 172.783 Q 210.7 172.367 210.05 171.65 Q 209.567 171.083 209.1 170.383 Q 208.767 169.733 208.4 169.033 Q 208.417 164.083 208.2 157.2 Q 208.15 156.267 208.117 155.317 Q 207.933 149.45 207.967 142.017 Q 207.967 141.167 207.933 140.35 Q 207.933 140.233 207.933 140.1 Q 207.9 139.25 207.867 138.417 Q 207.8 137.5 207.467 137.117 Q 205.917 135.233 204.167 133.983 Q 203.817 133.7 203.417 133.467 Q 203.183 133.317 202.883 133.183 Q 202.683 133.083 202.467 133.017 Q 202.133 132.9 201.767 132.833 Q 200.933 132.733 200.1 132.733 Q 199.867 132.733 199.633 132.733 Q 199.15 132.767 198.667 132.8 Q 197.233 132.717 195.867 132.6 L 195.833 132.6 Q 194.483 132.433 193.517 131.983 Q 192.95 131.7 192.483 131.317 Q 192.483 131.283 192.483 131.283 Q 191.983 130.9 191.667 130.467 Q 191.233 129.833 191.133 129.183 Q 191.1 129.017 191.117 128.883 L 191.117 128.85" fill="#0066CC"/>
	</g>
</svg>
