<?xml version="1.0"?>
<!DOCTYPE svg PUBLIC "-//W3C//DTD SVG 1.1//EN" "http://www.w3.org/Graphics/SVG/1.1/DTD/svg11.dtd">
<svg version='1.1' width='51px' height='50px' xmlns='http://www.w3.org/2000/svg' xmlns:xlink='http://www.w3.org/1999/xlink'>
	<g transform="translate(-116.247,-124.003)">
		<path d="M 166.175 138 Q 166.209 138.327 166.25 138.65 Q 166.55 141.3 164.05 141.7 Q 161.2 142.15 158.7 140.55 Q 158.256 140.272 157.825 140.075 Q 157.605 139.661 157.35 139.25 Q 157.308 139.178 157.3 139.1 Q 156.625 138.008 155.7 137.15 Q 155.619 137.109 155.55 137.05 Q 152.318 134.039 148.05 133.1 Q 146.78 132.807 145.5 132.65 Q 142.735 132.313 139.925 132.6 L 139.9 132.6 Q 138.577 132.834 137.3 133.25 Q 137.227 133.275 137.15 133.275 Q 136.116 133.554 135.2 134.15 Q 135.176 134.162 135.15 134.175 Q 135.125 134.188 135.1 134.2 Q 133.502 135.028 132 136.05 Q 131.599 136.339 131.225 136.65 Q 127.991 139.262 126.65 143.25 Q 125.451 146.917 125.15 150.725 L 125.15 150.775 Q 124.876 154.533 126.8 157.65 Q 127.775 159.174 128.75 160.55 Q 129.404 161.417 130.15 162.1 Q 130.194 162.15 130.225 162.2 Q 132.838 164.481 136.25 165.2 Q 138.323 165.667 140.35 166.325 Q 140.376 166.336 140.4 166.35 Q 140.451 166.37 140.5 166.4 Q 140.671 166.495 140.85 166.55 Q 140.902 166.569 140.95 166.6 Q 141.342 166.832 141.7 167.15 Q 141.7 167.312 141.7 167.475 Q 142.368 168.06 142.25 168.975 Q 142.275 169.137 142.275 169.3 Q 142.32 169.864 142.025 170.575 Q 141.999 171.138 141.65 171.85 Q 141.312 172.559 140.675 172.725 Q 140.369 172.964 139.95 173 L 139.95 173.05 Q 139.191 173.116 138.45 173.225 Q 138.464 173.176 138.475 173.125 Q 138.159 173.087 137.85 173.05 L 137.825 173.05 Q 135.528 172.97 133.15 172.45 Q 133.057 172.426 132.975 172.375 Q 132.734 172.315 132.5 172.25 Q 128.361 171.13 124.95 168.65 Q 124.886 168.601 124.85 168.55 Q 121.415 166.1 119.3 162.35 Q 116.931 158.313 116.45 153.7 Q 116.143 150.928 116.3 147.95 Q 116.554 143.24 118.8 138.95 Q 119.61 137.429 120.575 135.975 Q 121.09 135.203 121.65 134.45 Q 123.266 132.268 125.35 130.45 Q 127.196 128.796 129.3 127.4 Q 132.983 125.035 137.4 124.35 Q 141.532 123.777 145.575 124.15 L 145.6 124.15 Q 145.85 124.17 146.1 124.2 L 146.2 124.2 Q 148.314 124.555 150.375 125.15 Q 150.441 125.139 150.5 125.15 Q 152.575 125.621 154.65 126.35 Q 154.687 126.36 154.725 126.375 Q 154.789 126.417 154.85 126.475 Q 156.658 127.536 158.375 128.725 Q 158.467 128.747 158.55 128.8 Q 162.542 131.493 164.85 135.45 Q 165.582 136.683 166.175 138 Z" fill="#0066CC"/>
	</g>
</svg>
