<?xml version="1.0"?>
<!DOCTYPE svg PUBLIC "-//W3C//DTD SVG 1.1//EN" "http://www.w3.org/Graphics/SVG/1.1/DTD/svg11.dtd">
<svg version='1.1' width='36px' height='47px' xmlns='http://www.w3.org/2000/svg' xmlns:xlink='http://www.w3.org/1999/xlink'>
	<g transform="translate(-81.9333,-127.266)">
		<path d="M 81.9333 132.08 Q 82.12 130.973 82.7467 130.177 Q 82.7533 130.127 82.8033 130.127 Q 83.32 129.1 84.0967 128.39 Q 84.09 128.39 84.09 128.39 Q 85.0033 127.587 86.3133 127.323 Q 86.5133 127.273 86.7567 127.267 Q 89.4233 127.253 92.37 127.513 Q 93.0633 127.6 93.8 127.693 Q 93.85 127.693 93.8567 127.693 Q 96.78 127.893 99.6433 128.237 Q 99.6933 128.237 99.7433 128.28 Q 103.237 128.137 106.153 127.967 Q 107.853 127.817 109.383 127.62 Q 109.763 127.333 110.44 127.357 Q 110.907 127.257 111.843 127.683 Q 112.907 128.073 113.987 129.747 Q 113.987 129.753 113.987 129.803 Q 115.347 132.117 116.177 135.233 Q 116.177 135.283 116.177 135.383 Q 116.22 135.577 116.263 135.813 Q 116.22 137.357 116.307 139.29 Q 116.307 139.39 116.307 139.49 Q 116.047 143.983 116.393 149.473 Q 116.393 149.523 116.393 149.573 Q 116.437 152.053 116.61 154.923 L 116.61 154.923 Q 116.827 159.847 117.26 165.42 Q 117.297 166.133 117.267 166.813 Q 117.23 167.493 117.167 168.143 Q 117.15 168.533 117.14 168.923 Q 117.127 169.01 117.113 169.097 Q 116.597 172.867 114.043 173.863 Q 113.893 173.95 113.7 173.993 Q 113.507 174.037 113.313 174.037 Q 113.213 174.08 113.157 174.073 Q 112.787 174.14 112.437 174.093 Q 112.3 174.087 112.163 174.037 Q 111.877 174.003 111.597 173.883 Q 111.187 173.75 110.84 173.523 Q 108.977 172.187 108.37 168.337 Q 106.767 161.483 106.507 155.28 L 106.507 155.237 Q 106.203 151.41 106.073 148.017 Q 105.987 145.057 105.997 142.453 Q 105.997 142.447 105.997 142.447 Q 105.957 140.453 105.977 138.783 Q 105.883 138.77 105.79 138.757 Q 105.79 138.763 105.797 138.763 Q 104.547 138.803 103.2 138.917 Q 103.1 138.91 103.007 138.91 Q 101.237 139.047 99.2733 139.22 Q 99.13 139.22 98.9867 139.22 Q 98.8867 139.263 98.7867 139.263 Q 96.52 139.667 94.2333 140.16 Q 93.41 140.33 92.5867 140.507 Q 92.5367 140.507 92.4867 140.55 Q 90.41 140.9 88.6933 140.837 Q 83.4933 139.32 81.9767 132.653 Q 81.9333 132.453 81.9333 132.253 L 81.9333 132.08" fill="#0066CC"/>
	</g>
</svg>
