<?xml version="1.0"?>
<!DOCTYPE svg PUBLIC "-//W3C//DTD SVG 1.1//EN" "http://www.w3.org/Graphics/SVG/1.1/DTD/svg11.dtd">
<svg version='1.1' width='11px' height='65px' xmlns='http://www.w3.org/2000/svg' xmlns:xlink='http://www.w3.org/1999/xlink'>
	<g transform="translate(-82.4235,-111.513)">
		<path d="M 82.4235 118.297 Q 82.4235 117.518 82.7471 116.894 Q 83.0706 116.15 83.5706 115.759 Q 85.7 113.968 88.0029 112.094 Q 88.5147 111.641 88.9088 111.541 Q 89.1059 111.503 89.2147 111.524 Q 89.2941 111.494 89.3353 111.544 Q 89.5618 111.524 90.3853 112.162 Q 92.6294 113.365 92.4029 118.932 Q 92.1559 125.324 92.0529 130.624 Q 92.0324 131.776 92.0118 132.909 Q 92.0118 133.009 92.0118 133.088 Q 91.9912 136.871 92.0118 140.488 L 92.0529 140.547 Q 92.0324 141.088 92.0324 141.629 L 92.0529 141.668 Q 92.0529 143.482 92.0529 145.276 L 92.0324 145.335 Q 91.9706 154.776 92.0118 163.641 Q 92.0118 163.812 92.0118 163.982 Q 92.0324 166.974 92.0941 169.821 Q 92.1147 170.6 91.8118 171.232 Q 91.4794 171.885 91.0294 172.194 Q 90.1588 172.997 89.3382 173.738 Q 88.2353 174.871 87.0088 175.776 Q 86.5088 176.147 86.1647 176.153 Q 85.8 176.262 85.7176 176.162 Q 85.3882 176.353 84.3794 175.144 Q 82.5676 173.556 82.5265 168.035 Q 82.5059 161.003 82.5471 150.1 Q 82.5471 149.929 82.5471 149.759 Q 82.5676 140.665 82.6088 130.685 Q 82.5265 130.588 82.4647 130.491 L 82.4441 122.25 Q 82.4235 120.826 82.4235 119.382 Q 82.4235 118.85 82.4235 118.338 L 82.4235 118.297" fill="#0066CC"/>
	</g>
</svg>
