<?xml version="1.0"?>
<!DOCTYPE svg PUBLIC "-//W3C//DTD SVG 1.1//EN" "http://www.w3.org/Graphics/SVG/1.1/DTD/svg11.dtd">
<svg version='1.1' width='10px' height='77px' xmlns='http://www.w3.org/2000/svg' xmlns:xlink='http://www.w3.org/1999/xlink'>
	<g transform="translate(-80.2632,-109.093)">
		<path d="M 80.2632 124.376 Q 80.2632 123.616 80.3765 122.878 Q 80.4897 122 80.6647 121.246 Q 81.475 117.791 82.5735 114.178 Q 82.8176 113.304 83.0206 112.554 Q 83.1221 112.249 83.1926 111.963 Q 83.2529 111.628 83.3324 111.353 Q 83.7691 109.688 85.3574 109.294 Q 89.6853 107.993 89.2485 115.109 Q 88.7721 122.513 88.5735 127.813 Q 88.5338 129.062 88.4941 130.271 Q 88.4941 130.371 88.4941 130.431 Q 88.4544 134.615 88.4941 138.481 L 88.5735 138.501 Q 88.5338 139.081 88.5338 139.66 L 88.5735 139.641 Q 88.5735 141.609 88.5735 143.537 L 88.5338 143.557 Q 88.4147 154.012 88.4941 163.354 Q 88.4941 163.544 88.4941 163.734 Q 88.5338 167.088 88.6529 170.165 Q 88.6926 170.925 88.6191 171.634 Q 88.5353 172.382 88.4103 172.978 Q 88.1706 174.526 87.9809 175.956 Q 87.7574 178.14 87.2956 179.887 Q 87.1206 180.601 86.9676 181.124 Q 86.775 181.844 86.6162 182.394 Q 85.9809 185.224 84.0353 185.353 Q 80.5412 185.772 80.4618 178.607 Q 80.4221 172.474 80.5015 158.875 Q 80.5015 158.685 80.5015 158.496 Q 80.5412 148.943 80.6206 137.682 Q 80.4618 137.681 80.3426 137.679 L 80.3029 128.75 Q 80.2632 127.212 80.2632 125.634 Q 80.2632 125.025 80.2632 124.456 L 80.2632 124.376" fill="#0066CC"/>
	</g>
</svg>
