<?xml version="1.0"?>
<!DOCTYPE svg PUBLIC "-//W3C//DTD SVG 1.1//EN" "http://www.w3.org/Graphics/SVG/1.1/DTD/svg11.dtd">
<svg version='1.1' width='46px' height='33px' xmlns='http://www.w3.org/2000/svg' xmlns:xlink='http://www.w3.org/1999/xlink'>
	<g transform="translate(-27.6912,-111.715)">
		<path d="M 27.6912 134.974 Q 27.7559 134.238 28.0147 133.624 Q 28.05 133.491 28.1176 133.359 Q 28.2735 132.979 28.4794 132.735 Q 28.7118 132.524 29.0265 132.426 Q 29.0765 132.394 29.1265 132.394 Q 29.3618 132.329 29.6618 132.329 Q 34.8794 132.232 39.6765 130.776 Q 41.5265 130.226 43.3441 129.45 Q 44.6647 128.9 45.9529 128.285 Q 57.4471 122.559 66.45 113.112 Q 67.6941 111.624 69.1 111.721 Q 69.7706 111.785 70.3853 112.368 Q 70.9529 112.885 71.3412 113.718 Q 71.6971 114.535 72.0529 115.579 Q 72.9265 118.206 72.8294 120.574 Q 72.7971 121.309 72.4559 121.891 Q 72.2353 122.338 71.9471 122.715 Q 71.7618 122.926 71.5588 123.121 Q 66.1824 128.718 60.0294 132.988 Q 57.9647 134.444 55.8029 135.771 Q 54.0588 136.806 52.25 137.744 Q 50.3441 138.65 48.5029 139.621 Q 48.4353 139.653 48.4 139.653 L 48.4 139.621 Q 47.3294 140.106 46.2588 140.526 Q 46.0412 140.591 45.8559 140.656 Q 45.2912 140.915 44.7265 141.141 Q 44.6588 141.174 44.5588 141.206 Q 41.0559 142.532 37.3588 143.503 Q 34.6 144.247 32.2294 143.632 Q 31.5088 143.471 30.9265 142.985 Q 30.2794 142.468 29.8588 141.7 Q 29.05 140.109 28.4029 137.968 Q 28.0471 136.6 27.7235 135.103 L 27.6912 134.974" fill="#0066CC"/>
	</g>
</svg>
