<?xml version="1.0"?>
<!DOCTYPE svg PUBLIC "-//W3C//DTD SVG 1.1//EN" "http://www.w3.org/Graphics/SVG/1.1/DTD/svg11.dtd">
<svg version='1.1' width='25px' height='73px' xmlns='http://www.w3.org/2000/svg' xmlns:xlink='http://www.w3.org/1999/xlink'>
	<g transform="translate(-197.086,-111.229)">
		<path d="M 197.086 124.659 Q 197.255 120.118 201.9 118.836 Q 207.173 117.927 211.677 117.782 Q 211.718 117.764 211.759 117.745 Q 211.759 116.155 211.9 114.714 Q 211.918 114.586 211.936 114.459 Q 212.177 113.232 213.027 112.477 Q 214.127 111.459 216.25 111.255 Q 217.568 111.145 218.768 111.495 Q 218.809 111.505 218.85 111.514 Q 219.486 111.723 220.245 112.014 Q 222.141 112.532 222 113.868 Q 221.955 114.664 221.436 121.186 Q 220.832 128.905 221.205 142.123 Q 221.205 142.491 221.205 142.859 Q 221.505 156.786 221.814 166.632 Q 222.045 173.341 221.418 177.227 Q 221.223 178.245 220.927 179.018 Q 219.786 182.032 217.505 182.818 Q 215.345 183.968 212.064 182.164 Q 211.905 180.905 211.582 178.795 Q 211.832 174.491 211.764 167.264 Q 211.7 163.845 211.7 159.814 Q 211.668 153.655 211.664 146.086 Q 211.664 145.936 211.664 145.745 Q 211.595 140.268 211.5 134.686 Q 211.45 133.909 211.359 133.173 Q 211.277 132.705 211.105 132.277 Q 210.941 131.968 210.736 131.741 Q 210.4 131.273 209.982 130.927 Q 209.155 130.3 208.327 129.836 Q 208.082 129.691 207.836 129.545 Q 206.959 129.045 206.082 128.577 Q 203.864 128.7 201.741 128.168 Q 201.382 128.068 201.032 127.968 Q 200.195 127.7 199.432 127.414 Q 198.614 127.091 198.073 126.591 Q 197.482 125.927 197.127 125.186 Q 197.082 124.968 197.086 124.741 L 197.086 124.659" fill="#0066CC"/>
	</g>
</svg>
