<?xml version="1.0"?>
<!DOCTYPE svg PUBLIC "-//W3C//DTD SVG 1.1//EN" "http://www.w3.org/Graphics/SVG/1.1/DTD/svg11.dtd">
<svg version='1.1' width='39px' height='49px' xmlns='http://www.w3.org/2000/svg' xmlns:xlink='http://www.w3.org/1999/xlink'>
	<g transform="translate(-73.8,-128.223)">
		<path d="M 73.8 138.679 Q 73.9 137.779 74.1711 137 Q 74.2447 136.75 74.3421 136.524 Q 74.3421 136.474 74.3658 136.447 Q 75.0658 134.616 76.4921 133.682 Q 77.2237 133.437 78.0263 133.287 Q 78.2789 133.237 78.5553 133.211 Q 81.2842 132.995 84.3395 132.821 Q 84.3632 132.821 84.3868 132.795 Q 85.1658 132.763 85.9684 132.732 L 85.9921 132.732 L 91.5553 132.342 Q 91.5763 132.368 91.65 132.395 Q 91.8763 132.342 92.1026 132.313 Q 92.1526 132.313 92.2026 132.337 Q 97.8237 131.076 102.566 129.189 Q 103.071 128.842 103.742 128.661 Q 104.347 128.382 105.187 128.387 Q 106.547 128.058 107.879 128.389 Q 107.905 128.389 107.932 128.413 Q 108.261 128.447 108.589 128.479 Q 109.253 128.521 109.813 128.903 Q 110.732 129.474 111.421 130.982 Q 111.65 131.484 111.829 131.987 Q 111.905 132.187 111.982 132.411 Q 112.353 134.066 112.558 136.039 Q 112.558 136.139 112.558 136.239 Q 112.753 139.75 112.271 143.937 Q 112.084 145.442 111.947 146.995 Q 111.947 147.045 111.947 147.095 Q 111.629 149.858 111.434 152.861 Q 111.434 152.861 111.434 152.861 Q 111.271 154.995 111.184 157.2 Q 111.018 160.061 110.903 163.042 Q 110.813 165.576 110.774 168.182 Q 110.774 168.282 110.774 168.382 Q 110.466 172.363 109.045 174.829 Q 108.947 175.008 108.826 175.163 Q 108.705 175.318 108.584 175.45 Q 108.511 175.579 108.461 175.684 Q 108.145 176.071 107.75 176.261 Q 107.529 176.392 107.282 176.45 Q 106.608 176.695 105.847 176.584 Q 103.537 176.355 102.863 172.861 Q 102.789 172.563 102.739 172.266 Q 101.674 167.226 101.518 162.326 Q 101.453 160.121 101.484 158.016 Q 101.484 158.016 101.484 157.992 Q 101.418 148.679 102.379 141.358 Q 102.063 141.208 101.745 141.055 Q 98.2395 142.105 94.3368 142.879 Q 94.2105 142.929 94.0842 142.955 Q 92.2789 143.387 90.4211 143.792 Q 90.3474 143.818 90.3263 143.845 L 87.5211 144.684 Q 87.4711 144.684 87.4211 144.708 Q 85.2711 145.274 83.2868 145.579 Q 83.2868 145.579 83.2868 145.605 Q 76.5737 146.445 74.0342 139.437 Q 73.9079 139.137 73.8526 138.837 L 73.8 138.679" fill="#0066CC"/>
	</g>
</svg>
