<?xml version="1.0"?>
<!DOCTYPE svg PUBLIC "-//W3C//DTD SVG 1.1//EN" "http://www.w3.org/Graphics/SVG/1.1/DTD/svg11.dtd">
<svg version='1.1' width='46px' height='29px' xmlns='http://www.w3.org/2000/svg' xmlns:xlink='http://www.w3.org/1999/xlink'>
	<g transform="translate(-27.8382,-111.839)">
		<path d="M 27.8382 131.215 Q 27.8912 130.468 28.2029 129.865 Q 28.25 129.738 28.3235 129.612 Q 28.5147 129.256 28.7559 129.047 Q 28.9824 128.865 29.2853 128.785 Q 29.3353 128.759 29.3853 128.759 Q 29.6324 128.706 29.9324 128.706 Q 35.0559 128.626 39.8353 127.435 Q 41.6853 126.985 43.5088 126.35 Q 44.8529 125.9 46.1706 125.397 Q 57.9294 120.712 67.65 112.982 Q 68.9588 111.765 70.4 111.844 Q 71.0941 111.897 71.6971 112.474 Q 72.2706 112.997 72.5882 113.824 Q 72.8794 114.647 73.1706 115.656 Q 73.8853 118.241 73.8059 120.615 Q 73.7794 121.362 73.3912 121.938 Q 73.1471 122.368 72.8294 122.703 Q 72.6324 122.885 72.4118 123.044 Q 66.5765 127.624 60.1059 131.118 Q 57.9529 132.309 55.7206 133.394 Q 53.9118 134.241 52.05 135.009 Q 50.1088 135.75 48.2206 136.544 Q 48.1471 136.571 48.1 136.571 L 48.1 136.544 Q 47.0059 136.941 45.9118 137.285 Q 45.6882 137.338 45.4912 137.391 Q 44.9382 137.603 44.3853 137.788 Q 44.3118 137.815 44.2118 137.841 Q 40.6912 138.926 37.0118 139.721 Q 34.3 140.329 31.9059 139.826 Q 31.1618 139.694 30.5853 139.197 Q 29.9559 138.674 29.6118 137.9 Q 28.95 136.262 28.4206 134.174 Q 28.1294 132.8 27.8647 131.321 L 27.8382 131.215" fill="#0066CC"/>
	</g>
</svg>
