<?xml version="1.0"?>
<!DOCTYPE svg PUBLIC "-//W3C//DTD SVG 1.1//EN" "http://www.w3.org/Graphics/SVG/1.1/DTD/svg11.dtd">
<svg version='1.1' width='9px' height='78px' xmlns='http://www.w3.org/2000/svg' xmlns:xlink='http://www.w3.org/1999/xlink'>
	<g transform="translate(-225.832,-108.627)">
		<path d="M 225.832 177.393 Q 225.845 176.618 225.859 175.566 Q 225.973 172.039 226.064 166.609 Q 226.084 163.32 226.105 160.145 Q 226.286 144.439 226.375 134.664 Q 226.368 133.37 226.361 132.17 Q 226.4 124.695 226.359 120.668 Q 226.352 119.868 226.345 119.082 Q 226.368 117.825 226.398 116.616 Q 226.427 116.066 226.47 115.516 Q 226.536 113.15 226.686 110.75 Q 226.686 110.5 226.686 110.25 Q 227.434 109.18 228.448 109.059 Q 228.67 108.975 228.893 108.891 Q 230 108.52 231.184 108.67 Q 232.302 108.514 233.114 109.175 Q 233.239 109.873 233.384 110.575 Q 234.05 114.075 234.391 117.97 Q 234.418 119.4 234.411 120.864 Q 234.08 147.698 233.875 174.007 Q 233.889 176.2 233.902 178.393 Q 233.923 181.036 233.818 183.652 Q 233.768 183.952 233.675 184.209 Q 233.632 184.259 233.589 184.309 Q 232.577 186.193 230.639 186.125 Q 229.248 186.257 227.83 185.92 Q 227.616 185.609 227.309 185.327 Q 227.195 185.205 227.168 185.125 Q 226.977 184.75 226.786 184.434 Q 226.432 182.314 226.002 179.88 Q 225.952 179.53 225.945 179.18 Q 225.939 178.73 225.932 178.28 Q 225.882 177.88 225.832 177.48 L 225.832 177.393" fill="#0066CC"/>
	</g>
</svg>
