<?xml version="1.0"?>
<!DOCTYPE svg PUBLIC "-//W3C//DTD SVG 1.1//EN" "http://www.w3.org/Graphics/SVG/1.1/DTD/svg11.dtd">
<svg version='1.1' width='28px' height='45px' xmlns='http://www.w3.org/2000/svg' xmlns:xlink='http://www.w3.org/1999/xlink'>
	<g transform="translate(-189.522,-125.389)">
		<path d="M 189.581 130.325 Q 190.125 128.8 191.844 127.675 Q 191.894 127.625 191.944 127.575 Q 191.925 127.575 191.925 127.575 Q 193.9 126.45 195.994 125.863 Q 197.45 125.469 198.969 125.406 Q 200.344 125.344 201.694 125.513 Q 205.219 125.294 208.2 126.838 Q 208.331 126.906 208.463 126.944 Q 208.481 126.994 208.5 127.044 Q 208.85 127.075 209.181 127.138 Q 209.894 127.106 210.631 127.225 Q 210.713 127.213 210.794 127.2 Q 213.1 127.331 214.738 129.256 Q 214.975 130.088 215.194 130.925 Q 215.25 131.544 215.275 132.163 Q 215.431 134.506 215.525 137.537 Q 215.556 138.306 215.588 139.106 Q 215.65 141.25 215.775 143.662 Q 216.244 152.631 216.65 159.694 L 216.65 159.725 Q 216.619 160.644 216.744 161.656 Q 216.744 162.206 216.775 162.756 Q 216.806 163.275 216.806 163.794 Q 216.838 164.469 216.6 165.05 Q 216.375 165.631 216.013 166.006 Q 214.963 167.35 213.463 168.631 Q 212.719 169.256 211.756 169.694 Q 211.638 169.756 211.519 169.819 Q 210.856 170.069 210.275 169.956 Q 209.663 169.894 209.206 169.581 Q 209.175 169.563 209.144 169.544 Q 208.019 169.163 207.394 167.75 Q 207.019 166.963 206.8 166.05 Q 206.644 165.3 206.55 164.519 L 206.175 150.694 Q 206.144 149.288 206.113 147.819 Q 206.081 145.369 205.956 142.912 Q 205.956 142.894 205.956 142.894 Q 205.863 141.125 205.638 139.613 Q 205.638 139.613 205.638 139.594 Q 205.563 139.181 205.469 138.806 Q 205.281 138.225 205.006 137.787 Q 204.988 137.738 204.969 137.706 Q 204.619 136.931 204.138 136.25 Q 203.85 135.7 203.356 135.575 Q 203.306 135.544 203.256 135.544 Q 201.213 134.95 198.956 135.244 Q 196.606 135.469 194.113 136.419 Q 193.706 136.269 193.3 136.15 Q 192.488 135.706 191.738 135.231 L 191.706 135.213 Q 190.425 134.525 189.956 133.088 L 189.956 133.056 Q 189.363 131.681 189.581 130.4 L 189.581 130.325" fill="#0066CC"/>
	</g>
</svg>
