<?xml version="1.0"?>
<!DOCTYPE svg PUBLIC "-//W3C//DTD SVG 1.1//EN" "http://www.w3.org/Graphics/SVG/1.1/DTD/svg11.dtd">
<svg version='1.1' width='49px' height='15px' xmlns='http://www.w3.org/2000/svg' xmlns:xlink='http://www.w3.org/1999/xlink'>
	<g transform="translate(-28.3529,-112.275)">
		<path d="M 28.3529 118.059 Q 28.3647 117.271 28.8618 116.709 Q 28.95 116.603 29.0441 116.497 Q 29.3588 116.224 29.7235 116.138 Q 29.9294 116.059 30.1912 116.041 Q 30.2412 116.035 30.2912 116.035 Q 30.5794 116.024 30.8794 116.024 Q 35.6735 116.006 40.3912 115.741 Q 42.2412 115.641 44.0853 115.5 Q 45.5118 115.4 46.9324 115.288 Q 59.6176 114.247 71.85 112.529 Q 73.3853 112.259 74.95 112.276 Q 75.7265 112.288 76.2882 112.844 Q 76.8824 113.388 76.9529 114.194 Q 77.0176 115.038 77.0824 115.924 Q 77.2412 118.365 77.2235 120.759 Q 77.2176 121.547 76.6647 122.103 Q 76.3382 122.471 75.9176 122.662 Q 75.6794 122.741 75.3971 122.776 Q 67.9559 123.794 60.3735 124.571 Q 57.9118 124.835 55.4324 125.076 Q 53.3971 125.265 51.35 125.435 Q 49.2853 125.6 47.2324 125.776 Q 47.1382 125.782 47.05 125.782 L 47.05 125.776 Q 45.8735 125.865 44.6971 125.941 Q 44.4529 125.953 44.2147 125.965 Q 43.7029 126.012 43.1912 126.053 Q 43.0971 126.059 42.9971 126.065 Q 39.4147 126.306 35.7971 126.482 Q 33.25 126.618 30.7735 126.506 Q 29.9471 126.476 29.3912 125.938 Q 28.8235 125.394 28.7471 124.6 Q 28.6 122.797 28.4824 120.894 Q 28.4176 119.5 28.3588 118.082 L 28.3529 118.059" fill="#0066CC"/>
	</g>
</svg>
