<?xml version="1.0"?>
<!DOCTYPE svg PUBLIC "-//W3C//DTD SVG 1.1//EN" "http://www.w3.org/Graphics/SVG/1.1/DTD/svg11.dtd">
<svg version='1.1' width='41px' height='37px' xmlns='http://www.w3.org/2000/svg' xmlns:xlink='http://www.w3.org/1999/xlink'>
	<g transform="translate(-128.886,-135.672)">
		<path d="M 128.906 155.247 Q 128.774 152.076 129.526 149.303 Q 130.003 147.479 130.915 145.906 Q 130.926 145.856 130.976 145.844 Q 131.55 144.729 132.347 143.726 Q 133.468 142.391 134.9 141.229 Q 136.356 140.009 138.174 139.059 Q 138.174 139.059 138.212 139.059 Q 138.212 139.059 138.212 139.059 Q 138.809 138.738 139.444 138.429 Q 140.512 137.9 141.679 137.482 Q 144.744 136.303 148.309 135.976 Q 148.271 136.015 148.271 136.015 Q 150.418 135.776 152.644 135.706 Q 155.238 135.597 157.876 135.835 Q 157.938 135.847 158 135.859 Q 158.047 135.959 158.094 136.097 Q 158.491 136.168 158.838 136.315 Q 158.976 136.288 159.153 136.3 Q 159.388 136.309 159.612 136.318 Q 160.047 136.438 160.444 136.559 Q 160.779 136.591 161.141 136.635 Q 163.153 137.062 164.512 138.294 Q 164.524 138.294 164.535 138.318 Q 165.994 139.7 166.662 141.879 Q 166.724 142.103 166.824 142.365 Q 167.415 142.982 167.753 143.803 Q 167.803 143.965 167.853 144.138 Q 167.903 144.238 167.953 144.338 Q 168.165 145.168 168.162 146.15 Q 168.159 146.982 168.171 147.803 Q 168.171 147.841 168.171 147.891 Q 168.171 148.003 168.182 148.115 Q 168.182 148.226 168.182 148.338 Q 168.206 148.403 168.241 148.479 Q 168.394 148.8 168.524 149.168 Q 168.535 149.232 168.547 149.321 Q 168.547 149.359 168.559 149.397 Q 168.641 149.588 168.712 149.791 Q 168.735 149.879 168.759 149.956 Q 168.876 150.188 169.006 150.479 Q 169.076 150.635 169.159 150.815 Q 169.171 150.853 169.171 150.891 Q 169.171 151.309 169.209 151.738 Q 169.285 154.05 168.968 156.209 Q 168.968 156.209 168.956 156.209 Q 168.726 156.576 168.532 156.921 Q 168.497 156.997 168.474 157.085 Q 168.376 157.162 168.291 157.238 Q 168.241 157.315 168.203 157.391 Q 168.179 157.418 168.156 157.456 Q 168.009 157.621 167.874 157.774 Q 167.812 157.8 167.762 157.838 Q 167.75 157.838 167.738 157.85 Q 167.676 157.888 167.626 157.926 Q 167.615 157.965 167.603 158.003 Q 167.603 158.015 167.603 158.015 Q 167.376 158.647 167.074 159.241 Q 166.821 159.65 166.518 160.059 Q 165.788 161.018 165.038 161.991 Q 164.838 162.25 164.638 162.497 Q 164.276 163.018 163.903 163.5 Q 162.891 164.738 161.656 165.75 Q 161.606 165.8 161.544 165.85 Q 161.468 165.85 161.468 165.85 Q 161.018 166.274 160.568 166.659 Q 159.882 167.241 159.224 167.659 Q 159.212 167.709 159.2 167.759 Q 157.847 168.759 156.538 169.524 Q 156.5 169.535 156.5 169.547 Q 156.488 169.547 156.476 169.547 Q 156.376 169.597 156.288 169.647 Q 154.144 170.726 152.121 171.371 Q 150.709 171.815 148.829 171.974 Q 147.503 172.121 145.985 172.121 Q 144.682 172.121 143.418 171.947 Q 141.668 171.7 139.991 171.103 Q 139.718 170.991 139.444 170.879 Q 137.979 170.309 136.676 169.488 Q 135.297 168.629 134.091 167.485 Q 134.091 167.485 134.091 167.485 Q 132.815 166.256 131.824 164.679 Q 131.774 164.618 131.735 164.568 Q 130.991 163.45 130.397 162.168 Q 130.397 162.168 130.397 162.168 Q 130.324 161.994 130.25 161.821 Q 130.188 161.771 130.188 161.721 Q 130.176 161.709 130.176 161.697 Q 129.629 160.209 129.332 158.694 Q 129.321 158.682 129.332 158.671 Q 128.962 157.144 128.918 155.541 Q 128.918 155.529 128.918 155.518 Q 128.906 155.394 128.906 155.271 L 128.906 155.247" fill="#0066CC"/>
		<path d="M 139.574 153.562 Q 139.621 152.797 139.803 152.071 Q 140.244 150.812 140.244 150.8 Q 140.638 149.871 141.247 149.168 Q 141.409 149.021 141.571 148.885 Q 141.744 148.665 141.941 148.468 Q 143.585 146.862 146.056 146.097 Q 147.971 145.547 150.294 145.247 Q 152.015 145.035 153.782 145.238 Q 154.118 145.297 154.415 145.368 Q 155.379 145.515 156.282 145.712 Q 156.865 145.826 157.412 145.965 Q 157.971 146.115 158.368 146.276 Q 158.541 146.332 158.703 146.426 Q 159.126 146.688 159.541 146.953 Q 159.624 147.547 159.671 148.165 Q 159.753 149.138 159.882 150.112 Q 159.906 150.347 159.929 150.582 Q 159.929 150.582 159.941 150.594 Q 159.941 150.644 159.953 150.694 Q 159.965 150.806 159.988 150.929 Q 159.988 150.979 160 151.029 Q 160.047 151.226 160.129 151.435 Q 160.129 151.435 160.141 151.447 Q 160.153 151.497 160.176 151.547 Q 160.153 151.647 160.141 151.747 Q 160.129 151.785 160.129 151.835 Q 160.094 152.094 160.082 152.353 Q 160.047 152.674 160.024 153.006 Q 160.012 153.044 160.012 153.094 Q 159.988 153.182 159.988 153.294 Q 159.976 153.418 159.965 153.553 Q 159.838 154.468 159.647 155.344 Q 159.6 155.579 159.503 155.803 Q 159.491 155.853 159.479 155.915 Q 159.409 156.118 159.326 156.321 Q 159.315 156.332 159.303 156.344 Q 158.556 157.106 158.297 158.035 L 158.259 158.085 Q 158.235 158.047 158.224 158.032 Q 158.153 157.962 158.082 157.879 Q 157.4 158.509 156.747 158.988 Q 155.341 160.012 153.826 160.853 Q 153.25 161.124 152.674 161.347 Q 152.7 161.347 152.688 161.347 Q 151.309 161.909 149.844 162.068 Q 147.924 162.241 146.018 161.876 Q 145.771 161.829 145.524 161.771 Q 145.512 161.759 145.488 161.759 Q 144.809 161.594 144.226 161.344 Q 144.176 161.321 144.126 161.309 Q 141.982 160.456 140.818 158.903 Q 140.856 158.891 140.856 158.879 Q 140.644 158.562 140.456 158.194 Q 140.118 157.556 139.929 156.868 Q 139.541 155.418 139.574 153.726 Q 139.574 153.715 139.574 153.715 L 139.574 153.562" fill="#0066CC"/>
	</g>
</svg>
