<?xml version="1.0"?>
<!DOCTYPE svg PUBLIC "-//W3C//DTD SVG 1.1//EN" "http://www.w3.org/Graphics/SVG/1.1/DTD/svg11.dtd">
<svg version='1.1' width='49px' height='18px' xmlns='http://www.w3.org/2000/svg' xmlns:xlink='http://www.w3.org/1999/xlink'>
	<g transform="translate(-28.2426,-112.182)">
		<path d="M 28.2426 120.878 Q 28.2632 120.099 28.7206 119.528 Q 28.8 119.418 28.8897 119.307 Q 29.1779 119.016 29.5162 118.904 Q 29.7265 118.803 29.9971 118.772 Q 30.0471 118.762 30.0971 118.762 Q 30.3765 118.741 30.6765 118.741 Q 35.5412 118.71 40.2721 118.247 Q 42.1221 118.072 43.9618 117.825 Q 45.3706 117.65 46.7691 117.454 Q 59.2559 115.632 70.95 112.626 Q 72.4368 112.153 73.975 112.184 Q 74.7338 112.204 75.3044 112.765 Q 75.8941 113.304 76.0176 114.115 Q 76.1309 114.954 76.2441 115.866 Q 76.5221 118.338 76.4912 120.728 Q 76.4809 121.507 75.9632 122.068 Q 75.6544 122.449 75.2559 122.671 Q 75.0265 122.772 74.7574 122.834 Q 67.6603 124.615 60.3162 125.974 Q 57.9206 126.437 55.4941 126.859 Q 53.5074 127.188 51.5 127.487 Q 49.4618 127.775 47.4441 128.084 Q 47.3544 128.094 47.275 128.094 L 47.275 128.084 Q 46.1162 128.238 44.9574 128.372 Q 44.7176 128.393 44.4882 128.413 Q 43.9676 128.496 43.4471 128.568 Q 43.3574 128.578 43.2574 128.588 Q 39.6882 129.01 36.0574 129.319 Q 33.475 129.556 31.0162 129.36 Q 30.2074 129.309 29.6471 128.779 Q 29.0662 128.24 28.9324 127.45 Q 28.675 125.682 28.4691 123.74 Q 28.3559 122.35 28.2529 120.919 L 28.2426 120.878" fill="#0066CC"/>
	</g>
</svg>
