<?xml version="1.0"?>
<!DOCTYPE svg PUBLIC "-//W3C//DTD SVG 1.1//EN" "http://www.w3.org/Graphics/SVG/1.1/DTD/svg11.dtd">
<svg version='1.1' width='12px' height='49px' xmlns='http://www.w3.org/2000/svg' xmlns:xlink='http://www.w3.org/1999/xlink'>
	<g transform="translate(-188.59,-122.441)">
		<path d="M 188.59 128.987 Q 188.73 128.233 188.77 127.497 Q 188.787 127.2 188.853 126.91 Q 188.97 126.62 189 126.34 Q 189 126.293 189 126.247 Q 189.053 125.453 189.387 124.707 Q 189.677 123.96 190.2 123.26 Q 190.25 123.26 190.3 123.213 Q 191.453 122.607 192.7 122.467 Q 193.4 122.467 194.1 122.467 Q 194.713 122.42 195.31 122.457 Q 195.46 122.467 195.607 122.477 Q 196.237 122.553 196.843 122.687 Q 197.077 122.75 197.31 122.813 L 197.45 122.827 Q 197.59 122.883 197.73 122.94 Q 197.823 122.993 197.917 123.093 Q 198.01 123.193 198.103 123.293 Q 198.71 124.057 198.99 125.057 Q 198.99 125.257 199.037 125.457 Q 199.037 125.607 199.083 125.757 Q 199.177 126.553 199.317 127.35 Q 199.457 128.55 199.55 129.797 Q 199.643 131.243 199.69 132.643 L 199.69 163.803 Q 199.69 164.417 199.65 165.013 Q 199.633 165.36 199.61 165.697 Q 199.493 166.123 199.42 166.543 Q 199.287 167.057 199.2 167.617 Q 198.913 169.157 197.507 169.81 Q 197.203 169.95 196.9 170.09 Q 196.3 170.37 195.7 170.603 Q 195.15 170.79 194.6 170.837 Q 193.94 170.93 193.25 170.8 Q 192.707 170.68 192.187 170.46 Q 191.997 170.4 191.81 170.29 Q 190.783 169.847 189.99 169.123 Q 189.57 168.72 189.243 168.27 Q 188.87 167.67 188.59 167.023 L 188.59 129.173 L 188.59 128.987" fill="#0066CC"/>
	</g>
</svg>
