<?xml version="1.0"?>
<!DOCTYPE svg PUBLIC "-//W3C//DTD SVG 1.1//EN" "http://www.w3.org/Graphics/SVG/1.1/DTD/svg11.dtd">
<svg version='1.1' width='27px' height='47px' xmlns='http://www.w3.org/2000/svg' xmlns:xlink='http://www.w3.org/1999/xlink'>
	<g transform="translate(-95.8,-124.975)">
		<path d="M 95.8 139.425 L 95.8 128.675 Q 97.5713 127.497 99.325 126.7 L 99.3 126.7 Q 102.852 124.977 106.775 124.975 Q 114.063 124.982 118.175 129.7 Q 122.172 134.091 122.175 142.575 L 122.175 169.45 Q 122.162 170.228 121.575 170.775 Q 121.006 171.34 120.2 171.35 L 113.025 171.35 Q 112.231 171.34 111.675 170.775 Q 111.088 170.228 111.075 169.45 L 111.075 145.85 Q 111.075 143.127 110.825 140.825 L 110.825 140.8 Q 110.548 138.71 109.925 137.5 L 109.975 137.55 Q 109.379 136.533 108.375 136.075 Q 108.3 136.05 108.225 136.025 Q 107.014 135.428 104.95 135.425 Q 102.697 135.447 100.275 136.625 Q 97.9703 137.735 95.8 139.425 Z" fill="#0066CC"/>
	</g>
</svg>
