<?xml version="1.0"?>
<!DOCTYPE svg PUBLIC "-//W3C//DTD SVG 1.1//EN" "http://www.w3.org/Graphics/SVG/1.1/DTD/svg11.dtd">
<svg version='1.1' width='30px' height='47px' xmlns='http://www.w3.org/2000/svg' xmlns:xlink='http://www.w3.org/1999/xlink'>
	<g transform="translate(-91.5333,-125.763)">
		<path d="M 91.5333 129.74 Q 92.11 129.053 92.8567 128.497 Q 92.8933 128.447 92.9433 128.447 Q 93.76 127.75 94.6567 127.22 Q 94.62 127.22 94.62 127.22 Q 95.5933 126.627 96.7233 126.303 Q 96.9233 126.253 97.1367 126.217 Q 99.6533 125.693 102.36 125.773 Q 103.023 125.8 103.7 125.863 Q 103.75 125.863 103.787 125.863 Q 106.59 126.063 109.063 126.827 Q 109.113 126.827 109.163 126.84 Q 112.177 127.627 114.493 129.167 Q 115.743 129.917 116.733 130.86 Q 117.023 131.083 117.37 131.437 Q 117.687 131.787 118.113 132.333 Q 118.787 133.353 119.327 134.907 Q 119.327 134.943 119.327 134.993 Q 120.057 137.367 120.347 140.333 Q 120.347 140.383 120.347 140.483 Q 120.36 140.647 120.373 140.823 Q 120.36 142.337 120.387 143.97 Q 120.387 144.07 120.387 144.17 Q 120.307 148.633 120.413 153.403 Q 120.413 153.453 120.413 153.503 Q 120.427 155.893 120.48 158.403 L 120.48 158.403 Q 120.547 163.207 120.68 168.21 Q 120.657 168.983 120.267 169.573 Q 119.84 170.163 119.267 170.363 Q 118.95 170.483 118.67 170.603 Q 118.597 170.63 118.523 170.657 Q 116.357 171.817 113.563 172.123 Q 113.413 172.15 113.25 172.163 Q 113.087 172.177 112.923 172.177 Q 112.823 172.19 112.737 172.153 Q 112.277 172.07 111.927 171.813 Q 111.85 171.777 111.773 171.727 Q 111.547 171.543 111.357 171.333 Q 111.127 171.05 111.02 170.703 Q 110.447 168.527 110.26 165.577 Q 109.767 159.383 109.687 153.39 L 109.687 153.377 Q 109.593 149.88 109.553 146.517 Q 109.527 143.737 109.357 141.343 Q 109.357 141.307 109.357 141.307 Q 109.137 139.343 108.797 138.033 Q 108.733 137.96 108.67 137.887 Q 108.67 137.923 108.707 137.923 Q 107.907 137.243 106.8 136.967 Q 106.7 136.93 106.637 136.93 Q 105.227 136.557 103.203 136.61 Q 103.09 136.61 102.977 136.61 Q 102.877 136.623 102.777 136.623 Q 100.66 136.817 98.4333 137.73 Q 97.73 137.99 97.0267 138.287 Q 96.9767 138.287 96.9267 138.3 Q 95.18 139.1 93.6133 139.877 Q 92.0133 135.81 91.5467 130.193 Q 91.5333 129.993 91.5333 129.793 L 91.5333 129.74" fill="#0066CC"/>
	</g>
</svg>
