<?xml version="1.0"?>
<!DOCTYPE svg PUBLIC "-//W3C//DTD SVG 1.1//EN" "http://www.w3.org/Graphics/SVG/1.1/DTD/svg11.dtd">
<svg version='1.1' width='17px' height='45px' xmlns='http://www.w3.org/2000/svg' xmlns:xlink='http://www.w3.org/1999/xlink'>
	<g transform="translate(-48.8353,-141.847)">
		<path d="M 48.8353 144.729 L 48.9353 144.771 Q 49.0471 144.524 49.1588 144.276 Q 49.1588 144.276 49.2 144.235 Q 51.1294 143 53.1412 141.847 Q 53.1912 141.847 53.3235 141.971 Q 53.5941 142.176 54.0706 142.629 Q 54.8559 143.288 55.9706 144.524 Q 57.3706 147.524 59.7588 152.121 Q 64.9882 162.615 64.9882 173.685 Q 64.9882 178.362 64.5765 181.597 Q 64.4853 182.15 64.3059 182.618 Q 64.1176 183.168 63.8618 183.538 Q 63.0382 185.226 61.8441 185.762 Q 60.5147 186.462 59.4324 184.979 Q 59.1265 184.65 58.8647 184.1 Q 58.5941 183.55 58.4294 182.832 Q 58.0588 181 57.7706 178.5 Q 56.7412 169.032 54.3118 160.635 Q 52.0471 153.041 49.3294 145.941 Q 49.1235 145.474 48.9176 145.006 Q 48.8765 144.856 48.8353 144.747 L 48.8353 144.729" fill="#0066CC"/>
	</g>
</svg>
