<?xml version="1.0"?>
<!DOCTYPE svg PUBLIC "-//W3C//DTD SVG 1.1//EN" "http://www.w3.org/Graphics/SVG/1.1/DTD/svg11.dtd">
<svg version='1.1' width='42px' height='38px' xmlns='http://www.w3.org/2000/svg' xmlns:xlink='http://www.w3.org/1999/xlink'>
	<g transform="translate(-128.456,-134.569)">
		<path d="M 128.482 154.859 Q 128.329 151.621 129.071 148.741 Q 129.541 146.862 130.456 145.232 Q 130.471 145.182 130.521 145.168 Q 131.1 144.012 131.909 142.971 Q 133.047 141.576 134.5 140.362 Q 135.982 139.074 137.829 138.074 Q 137.829 138.074 137.865 138.074 Q 137.865 138.074 137.865 138.074 Q 138.474 137.735 139.118 137.412 Q 140.215 136.85 141.412 136.403 Q 144.568 135.141 148.224 134.821 Q 148.188 134.856 148.188 134.856 Q 150.397 134.621 152.668 134.582 Q 155.335 134.509 158.021 134.844 Q 158.085 134.859 158.15 134.874 Q 158.209 134.974 158.268 135.109 Q 158.676 135.197 159.035 135.356 Q 159.171 135.335 159.341 135.35 Q 159.585 135.374 159.815 135.397 Q 160.259 135.535 160.668 135.674 Q 161.012 135.726 161.376 135.794 Q 163.391 136.315 164.765 137.618 Q 164.779 137.618 164.794 137.647 Q 166.268 139.1 166.965 141.312 Q 167.029 141.541 167.129 141.806 Q 167.706 142.453 168.041 143.291 Q 168.091 143.456 168.141 143.635 Q 168.191 143.735 168.241 143.835 Q 168.456 144.697 168.465 145.7 Q 168.474 146.553 168.488 147.391 Q 168.488 147.426 168.488 147.476 Q 168.488 147.591 168.503 147.706 Q 168.503 147.821 168.503 147.935 Q 168.532 147.991 168.576 148.062 Q 168.768 148.35 168.929 148.697 Q 168.944 148.753 168.959 148.838 Q 168.959 148.874 168.974 148.909 Q 169.076 149.085 169.165 149.276 Q 169.194 149.362 169.224 149.432 Q 169.371 149.635 169.532 149.912 Q 169.621 150.044 169.724 150.206 Q 169.738 150.241 169.738 150.276 Q 169.738 150.724 169.774 151.185 Q 169.844 153.55 169.547 155.774 Q 169.547 155.774 169.532 155.774 Q 169.271 156.121 169.053 156.438 Q 169.009 156.509 168.979 156.594 Q 168.871 156.665 168.776 156.735 Q 168.726 156.806 168.691 156.876 Q 168.662 156.897 168.632 156.932 Q 168.474 157.088 168.329 157.229 Q 168.265 157.25 168.215 157.285 Q 168.2 157.285 168.185 157.3 Q 168.121 157.335 168.071 157.371 Q 168.056 157.406 168.041 157.441 Q 168.041 157.456 168.041 157.456 Q 167.821 158.109 167.529 158.726 Q 167.288 159.15 166.997 159.574 Q 166.285 160.597 165.535 161.626 Q 165.335 161.9 165.135 162.159 Q 164.771 162.697 164.391 163.2 Q 163.376 164.485 162.132 165.55 Q 162.082 165.6 162.018 165.65 Q 161.947 165.65 161.947 165.65 Q 161.497 166.079 161.047 166.474 Q 160.353 167.076 159.679 167.524 Q 159.665 167.574 159.65 167.624 Q 158.259 168.674 156.885 169.479 Q 156.85 169.494 156.85 169.509 Q 156.835 169.509 156.821 169.509 Q 156.721 169.559 156.635 169.609 Q 154.468 170.721 152.388 171.388 Q 150.924 171.856 149.012 172.029 Q 147.641 172.188 146.094 172.188 Q 144.753 172.188 143.447 172.009 Q 141.647 171.75 139.926 171.141 Q 139.647 171.026 139.368 170.912 Q 137.862 170.324 136.521 169.485 Q 135.109 168.612 133.876 167.444 Q 133.876 167.444 133.876 167.444 Q 132.556 166.182 131.529 164.562 Q 131.479 164.497 131.444 164.447 Q 130.676 163.3 130.059 161.997 Q 130.059 161.997 130.059 161.997 Q 129.979 161.818 129.9 161.638 Q 129.835 161.588 129.835 161.538 Q 129.821 161.524 129.821 161.509 Q 129.262 159.974 128.953 158.418 Q 128.938 158.403 128.953 158.388 Q 128.565 156.818 128.497 155.176 Q 128.497 155.162 128.497 155.147 Q 128.482 155.018 128.482 154.888 L 128.482 154.859" fill="#0066CC"/>
		<path d="M 138.979 152.865 Q 139.038 152.059 139.241 151.288 Q 139.718 149.965 139.718 149.95 Q 140.135 148.988 140.759 148.247 Q 140.924 148.088 141.088 147.944 Q 141.268 147.706 141.476 147.497 Q 143.194 145.765 145.782 144.959 Q 147.838 144.359 150.268 144.059 Q 152.106 143.844 153.953 144.135 Q 154.297 144.209 154.606 144.297 Q 155.612 144.506 156.553 144.765 Q 157.156 144.921 157.715 145.106 Q 158.288 145.306 158.697 145.521 Q 158.876 145.603 159.041 145.721 Q 159.471 146.035 159.876 146.341 Q 159.979 146.959 160.038 147.606 Q 160.141 148.635 160.303 149.665 Q 160.332 149.909 160.362 150.153 Q 160.362 150.153 160.376 150.168 Q 160.376 150.218 160.391 150.268 Q 160.406 150.382 160.435 150.512 Q 160.435 150.562 160.45 150.612 Q 160.509 150.821 160.612 151.044 Q 160.612 151.044 160.626 151.059 Q 160.641 151.109 160.671 151.159 Q 160.641 151.259 160.626 151.359 Q 160.612 151.394 160.612 151.444 Q 160.568 151.718 160.553 151.991 Q 160.509 152.329 160.479 152.682 Q 160.465 152.718 160.465 152.768 Q 160.435 152.853 160.435 152.968 Q 160.421 153.097 160.406 153.241 Q 160.235 154.197 160.009 155.118 Q 159.95 155.362 159.841 155.591 Q 159.826 155.641 159.812 155.706 Q 159.724 155.947 159.621 156.188 Q 159.606 156.203 159.591 156.218 Q 158.832 157.032 158.509 157.994 L 158.474 158.044 Q 158.444 158.009 158.429 158.003 Q 158.341 157.965 158.253 157.912 Q 157.55 158.574 156.859 159.085 Q 155.376 160.165 153.771 161.041 Q 153.15 161.329 152.529 161.559 Q 152.55 161.559 152.535 161.559 Q 151.074 162.124 149.518 162.247 Q 147.479 162.376 145.497 161.921 Q 145.238 161.862 144.979 161.788 Q 144.965 161.774 144.935 161.774 Q 144.224 161.568 143.621 161.268 Q 143.571 161.238 143.521 161.224 Q 141.353 160.232 140.197 158.541 Q 140.232 158.526 140.232 158.512 Q 140.018 158.165 139.832 157.768 Q 139.497 157.082 139.312 156.347 Q 138.926 154.797 138.979 153.021 Q 138.979 153.006 138.979 153.006 L 138.979 152.865" fill="#0066CC"/>
	</g>
</svg>
