<?xml version="1.0"?>
<!DOCTYPE svg PUBLIC "-//W3C//DTD SVG 1.1//EN" "http://www.w3.org/Graphics/SVG/1.1/DTD/svg11.dtd">
<svg version='1.1' width='47px' height='28px' xmlns='http://www.w3.org/2000/svg' xmlns:xlink='http://www.w3.org/1999/xlink'>
	<g transform="translate(-27.875,-111.87)">
		<path d="M 27.875 130.275 Q 27.925 129.525 28.25 128.925 Q 28.3 128.8 28.375 128.675 Q 28.575 128.325 28.825 128.125 Q 29.05 127.95 29.35 127.875 Q 29.4 127.85 29.45 127.85 Q 29.7 127.8 30 127.8 Q 35.1 127.725 39.875 126.6 Q 41.725 126.175 43.55 125.575 Q 44.9 125.15 46.225 124.675 Q 58.05 120.25 67.95 112.95 Q 69.275 111.8 70.725 111.875 Q 71.425 111.925 72.025 112.5 Q 72.6 113.025 72.9 113.85 Q 73.175 114.675 73.45 115.675 Q 74.125 118.25 74.05 120.625 Q 74.025 121.375 73.625 121.95 Q 73.375 122.375 73.05 122.7 Q 72.85 122.875 72.625 123.025 Q 66.675 127.35 60.125 130.65 Q 57.95 131.775 55.7 132.8 Q 53.875 133.6 52 134.325 Q 50.05 135.025 48.15 135.775 Q 48.075 135.8 48.025 135.8 L 48.025 135.775 Q 46.925 136.15 45.825 136.475 Q 45.6 136.525 45.4 136.575 Q 44.85 136.775 44.3 136.95 Q 44.225 136.975 44.125 137 Q 40.6 138.025 36.925 138.775 Q 34.225 139.35 31.825 138.875 Q 31.075 138.75 30.5 138.25 Q 29.875 137.725 29.55 136.95 Q 28.925 135.3 28.425 133.225 Q 28.15 131.85 27.9 130.375 L 27.875 130.275" fill="#0066CC"/>
	</g>
</svg>
