<?xml version="1.0"?>
<!DOCTYPE svg PUBLIC "-//W3C//DTD SVG 1.1//EN" "http://www.w3.org/Graphics/SVG/1.1/DTD/svg11.dtd">
<svg version='1.1' width='31px' height='48px' xmlns='http://www.w3.org/2000/svg' xmlns:xlink='http://www.w3.org/1999/xlink'>
	<g transform="translate(-232.763,-128.681)">
		<path d="M 232.763 137.947 Q 232.873 135.47 232.873 134.9 Q 232.837 134.067 233.02 133.417 Q 233.4 130.833 235.747 130.083 Q 235.82 130.057 235.893 130.03 Q 236.517 129.89 237.103 129.75 Q 239.11 129.59 241.043 129.413 Q 241.067 129.413 241.103 129.413 Q 245.13 129.107 248.92 128.85 Q 249.307 128.813 249.693 128.777 Q 249.707 128.777 249.743 128.777 Q 250.007 128.74 250.307 128.703 Q 252.86 128.573 255.427 129.203 Q 255.427 129.203 255.463 129.203 Q 256.287 129.393 257.17 129.757 Q 257.183 129.757 257.233 129.757 Q 257.233 129.757 257.233 129.757 Q 257.77 129.86 258.257 130.16 Q 258.22 130.123 258.22 130.123 Q 260 130.94 260.883 132.597 Q 261.477 133.657 261.737 135.077 Q 261.737 135.077 261.737 135.113 Q 262.15 138.377 262.627 142.2 Q 262.627 142.2 262.627 142.25 Q 262.79 143.66 262.767 145.133 Q 262.767 145.283 262.73 145.433 Q 262.743 145.96 262.78 146.487 Q 262.853 148.21 262.927 149.933 Q 263.037 153.48 263.073 156.917 Q 263.11 157.117 263.11 157.353 Q 263.037 158.38 263.11 159.553 L 263.11 159.603 Q 263.33 164.767 263.11 169.343 Q 263.183 172.33 262.927 174.18 Q 262.817 174.907 262.487 175.383 Q 262.147 175.893 261.707 175.993 Q 261.58 176.043 261.417 176.08 Q 261.09 176.117 260.703 176.117 Q 260.067 176.08 259.393 176.19 Q 258.483 176.263 257.06 174.943 Q 256.36 174.503 255.66 173.073 Q 255.287 172.597 254.993 171.863 Q 254.737 171.13 254.59 170.22 Q 254.077 166.297 253.527 160.687 L 253.527 160.65 Q 253.453 159.417 253.417 158.367 Q 252.83 154.73 252.463 150.8 Q 252.207 147.977 251.987 145.08 Q 251.95 144.757 251.913 144.433 Q 251.767 143.547 251.863 142.77 Q 251.863 142.67 251.9 142.607 Q 251.85 142.107 251.91 141.657 Q 251.457 141.51 251.003 141.193 Q 250.857 141.04 250.587 140.887 Q 250.587 140.873 250.587 140.873 Q 250.047 140.54 249.323 140.27 Q 248.78 139.89 247.427 139.64 Q 247.427 139.64 247.427 139.627 Q 246.57 139.323 245.35 139.217 Q 245.3 139.203 245.25 139.203 Q 243.817 139.007 241.803 138.97 Q 241.18 138.97 240.557 138.983 Q 238.6 139.05 237.007 139.143 Q 233.337 139.033 232.763 138.093 L 232.763 137.947" fill="#0066CC"/>
	</g>
</svg>
