<?xml version="1.0"?>
<!DOCTYPE svg PUBLIC "-//W3C//DTD SVG 1.1//EN" "http://www.w3.org/Graphics/SVG/1.1/DTD/svg11.dtd">
<svg version='1.1' width='28px' height='57px' xmlns='http://www.w3.org/2000/svg' xmlns:xlink='http://www.w3.org/1999/xlink'>
	<g transform="translate(-191.822,-119.21)">
		<path d="M 191.847 127.38 Q 191.617 124.99 193.53 123.64 Q 194.587 122.937 196.043 122.597 Q 197.337 122.417 198.65 122.333 Q 201.94 122.123 205.267 122.767 Q 205.673 122.797 206.053 122.827 Q 206.59 121.957 207.13 121.207 Q 207.65 120.51 208.52 120.173 Q 209.34 119.813 210.507 119.763 Q 210.683 119.76 210.86 119.733 Q 210.913 119.757 210.967 119.78 Q 211.397 119.68 211.88 119.63 Q 212.763 119.413 213.773 119.32 Q 214.5 119.203 215.257 119.21 Q 217.093 119.223 217.55 120.073 Q 217.83 120.217 218.003 121.497 Q 218.043 122.4 218.083 123.52 Q 218.057 124.2 218.007 124.96 Q 217.98 125.39 217.953 125.843 Q 217.793 128.843 217.86 133.09 Q 217.88 135.54 218 138.47 Q 218.093 141.287 218.24 144.253 Q 218.603 151.517 218.92 157.1 Q 218.92 157.127 218.92 157.177 Q 218.923 158.263 219.043 159.393 Q 219.043 160.05 219.067 160.707 Q 219.163 162.673 219.073 164.51 Q 218.987 167.27 218.44 169.56 Q 218.153 170.907 217.65 171.927 Q 217.027 173.39 216.15 174.027 Q 216.003 174.16 215.83 174.293 Q 214.327 175.653 212.77 175.263 Q 211.93 175.047 211.1 174.47 Q 210.477 174.013 209.82 173.373 Q 209.317 172.783 208.76 172.113 Q 208.907 167.313 208.68 159.42 Q 208.63 158.437 208.607 157.427 Q 208.433 151.22 208.487 143.257 Q 208.487 142.377 208.463 141.52 Q 208.463 141.393 208.463 141.24 Q 208.44 140.33 208.417 139.447 Q 208.37 138.55 208.137 138.027 Q 207.037 135.673 205.797 133.763 Q 205.537 133.34 205.227 132.967 Q 205.033 132.727 204.763 132.513 Q 204.563 132.353 204.337 132.247 Q 203.983 132.03 203.577 131.893 Q 202.693 131.673 201.81 131.583 Q 201.557 131.553 201.303 131.523 Q 200.83 131.517 200.357 131.51 Q 198.843 131.317 197.377 131.1 L 197.353 131.1 Q 195.973 130.863 194.877 130.443 Q 194.24 130.17 193.673 129.827 Q 193.673 129.803 193.673 129.803 Q 193.083 129.46 192.667 129.037 Q 192.153 128.413 191.903 127.763 Q 191.85 127.587 191.847 127.433 L 191.847 127.38" fill="#0066CC"/>
	</g>
</svg>
