<?xml version="1.0"?>
<!DOCTYPE svg PUBLIC "-//W3C//DTD SVG 1.1//EN" "http://www.w3.org/Graphics/SVG/1.1/DTD/svg11.dtd">
<svg version='1.1' width='42px' height='52px' xmlns='http://www.w3.org/2000/svg' xmlns:xlink='http://www.w3.org/1999/xlink'>
	<g transform="translate(-68.4,-127.146)">
		<path d="M 70.925 138.725 Q 74.7502 138.044 79.175 137.25 L 79.175 137.2 L 86.675 135.8 Q 86.6725 135.853 86.675 135.9 Q 96.3166 132.646 104.35 127.65 Q 105.233 127.1 106 127.15 Q 107.238 127.212 108.175 128.825 Q 111.386 134.451 109.5 142.35 Q 107.821 149.241 106.825 156.275 Q 106.405 159.355 106 162.45 Q 105.126 169.117 104.325 175.825 Q 103.957 178.585 101.75 179 Q 98.8078 179.578 98.125 175.75 Q 97.1734 170.269 97.325 164.575 Q 97.7633 152.421 99.725 142.4 Q 93.6961 145.11 86.725 146.8 Q 86.7234 146.856 86.725 146.9 L 79.45 149.7 L 79.425 149.725 Q 71.5881 152.365 68.4 144.125 Q 68.5111 143.262 68.675 142.4 Q 69.2484 139.994 70.925 138.725 Z" fill="#0066CC"/>
	</g>
</svg>
