<?xml version="1.0"?>
<!DOCTYPE svg PUBLIC "-//W3C//DTD SVG 1.1//EN" "http://www.w3.org/Graphics/SVG/1.1/DTD/svg11.dtd">
<svg version='1.1' width='38px' height='34px' xmlns='http://www.w3.org/2000/svg' xmlns:xlink='http://www.w3.org/1999/xlink'>
	<g transform="translate(-129.957,-138.313)">
		<path d="M 129.965 156.218 Q 129.884 153.216 130.666 150.707 Q 131.157 149.024 132.062 147.59 Q 132.066 147.54 132.116 147.535 Q 132.675 146.524 133.443 145.616 Q 134.519 144.428 135.9 143.399 Q 137.29 142.347 139.034 141.522 Q 139.034 141.522 139.079 141.522 Q 139.079 141.522 139.079 141.522 Q 139.647 141.246 140.26 140.974 Q 141.254 140.525 142.349 140.181 Q 145.185 139.207 148.522 138.866 Q 148.476 138.912 148.476 138.912 Q 150.469 138.666 152.585 138.515 Q 154.996 138.318 157.516 138.313 Q 157.571 138.318 157.625 138.322 Q 157.643 138.422 157.66 138.568 Q 158.028 138.594 158.346 138.712 Q 158.491 138.671 158.682 138.675 Q 158.896 138.647 159.104 138.619 Q 159.518 138.696 159.885 138.772 Q 160.199 138.753 160.553 138.738 Q 162.557 138.929 163.879 139.985 Q 163.884 139.985 163.888 139.994 Q 165.31 141.2 165.904 143.299 Q 165.959 143.507 166.059 143.762 Q 166.687 144.306 167.032 145.082 Q 167.082 145.237 167.132 145.396 Q 167.182 145.496 167.232 145.596 Q 167.437 146.344 167.404 147.275 Q 167.372 148.056 167.376 148.832 Q 167.376 148.878 167.376 148.928 Q 167.376 149.032 167.381 149.137 Q 167.381 149.241 167.381 149.346 Q 167.39 149.432 167.403 149.524 Q 167.46 149.925 167.509 150.344 Q 167.513 150.431 167.518 150.526 Q 167.518 150.572 167.522 150.618 Q 167.553 150.846 167.579 151.078 Q 167.588 151.174 167.597 151.265 Q 167.641 151.571 167.69 151.899 Q 167.716 152.113 167.747 152.337 Q 167.751 152.382 167.751 152.428 Q 167.751 152.772 167.797 153.121 Q 167.888 155.3 167.519 157.297 Q 167.519 157.297 167.515 157.297 Q 167.366 157.716 167.231 158.126 Q 167.218 158.218 167.209 158.313 Q 167.141 158.404 167.078 158.496 Q 167.028 158.587 166.982 158.678 Q 166.974 158.719 166.965 158.765 Q 166.847 158.951 166.734 159.134 Q 166.679 159.175 166.629 159.221 Q 166.625 159.221 166.621 159.225 Q 166.566 159.271 166.516 159.316 Q 166.512 159.362 166.507 159.407 Q 166.507 159.412 166.507 159.412 Q 166.266 159.993 165.934 160.528 Q 165.651 160.9 165.319 161.272 Q 164.546 162.069 163.796 162.903 Q 163.596 163.125 163.396 163.343 Q 163.041 163.819 162.682 164.25 Q 161.678 165.371 160.465 166.25 Q 160.415 166.3 160.36 166.35 Q 160.269 166.35 160.269 166.35 Q 159.819 166.759 159.369 167.122 Q 158.706 167.653 158.084 167.997 Q 158.079 168.047 158.075 168.097 Q 156.818 168.972 155.671 169.634 Q 155.625 169.638 155.625 169.643 Q 155.621 169.643 155.616 169.643 Q 155.516 169.693 155.421 169.743 Q 153.335 170.741 151.451 171.326 Q 150.172 171.712 148.374 171.834 Q 147.157 171.951 145.713 171.951 Q 144.506 171.951 143.344 171.793 Q 141.719 171.575 140.153 171.007 Q 139.894 170.903 139.635 170.799 Q 138.274 170.272 137.066 169.496 Q 135.768 168.674 134.628 167.588 Q 134.628 167.588 134.628 167.588 Q 133.462 166.44 132.559 164.974 Q 132.509 164.919 132.463 164.869 Q 131.778 163.825 131.243 162.594 Q 131.243 162.594 131.243 162.594 Q 131.184 162.435 131.125 162.276 Q 131.071 162.226 131.071 162.176 Q 131.066 162.172 131.066 162.168 Q 130.549 160.797 130.281 159.385 Q 130.276 159.381 130.281 159.376 Q 129.954 157.96 129.969 156.453 Q 129.969 156.449 129.969 156.444 Q 129.965 156.335 129.965 156.226 L 129.965 156.218" fill="#0066CC"/>
		<path d="M 141.059 155.304 Q 141.076 154.643 141.207 154.026 Q 141.56 152.929 141.56 152.925 Q 141.896 152.076 142.468 151.469 Q 142.622 151.351 142.776 151.238 Q 142.935 151.062 143.103 150.894 Q 144.563 149.604 146.74 148.943 Q 148.301 148.518 150.36 148.218 Q 151.787 148.013 153.356 147.996 Q 153.669 148.018 153.937 148.044 Q 154.799 148.037 155.606 148.079 Q 156.137 148.091 156.654 148.112 Q 157.176 148.137 157.544 148.166 Q 157.703 148.156 157.857 148.191 Q 158.266 148.321 158.703 148.482 Q 158.734 149.018 158.751 149.562 Q 158.782 150.396 158.831 151.229 Q 158.84 151.443 158.849 151.656 Q 158.849 151.656 158.853 151.66 Q 158.853 151.71 158.857 151.76 Q 158.862 151.865 158.871 151.974 Q 158.871 152.024 158.875 152.074 Q 158.893 152.241 158.924 152.413 Q 158.924 152.413 158.928 152.418 Q 158.932 152.468 158.941 152.518 Q 158.932 152.618 158.928 152.718 Q 158.924 152.763 158.924 152.813 Q 158.91 153.035 158.906 153.257 Q 158.893 153.534 158.884 153.815 Q 158.879 153.86 158.879 153.91 Q 158.871 154.006 158.871 154.11 Q 158.866 154.219 158.862 154.332 Q 158.846 155.144 158.743 155.91 Q 158.725 156.124 158.657 156.332 Q 158.653 156.382 158.649 156.437 Q 158.622 156.544 158.591 156.651 Q 158.587 156.656 158.582 156.66 Q 157.865 157.29 157.768 158.138 L 157.722 158.188 Q 157.713 158.143 157.709 158.106 Q 157.682 157.954 157.656 157.799 Q 157.025 158.347 156.468 158.746 Q 155.253 159.629 153.966 160.382 Q 153.5 160.609 153.034 160.818 Q 153.075 160.818 153.071 160.818 Q 151.897 161.372 150.66 161.619 Q 149.034 161.903 147.319 161.766 Q 147.101 161.749 146.884 161.726 Q 146.879 161.722 146.871 161.722 Q 146.272 161.66 145.741 161.535 Q 145.691 161.526 145.641 161.522 Q 143.556 161.015 142.369 159.807 Q 142.415 159.803 142.415 159.799 Q 142.21 159.554 142.015 159.26 Q 141.669 158.74 141.474 158.169 Q 141.078 156.969 141.059 155.491 Q 141.059 155.487 141.059 155.487 L 141.059 155.304" fill="#0066CC"/>
	</g>
</svg>
