<?xml version="1.0"?>
<!DOCTYPE svg PUBLIC "-//W3C//DTD SVG 1.1//EN" "http://www.w3.org/Graphics/SVG/1.1/DTD/svg11.dtd">
<svg version='1.1' width='13px' height='48px' xmlns='http://www.w3.org/2000/svg' xmlns:xlink='http://www.w3.org/1999/xlink'>
	<g transform="translate(-47.9971,-128.854)">
		<path d="M 47.9971 129.781 L 48.0971 129.794 Q 48.4044 129.715 48.7118 129.635 Q 48.7118 129.635 48.725 129.622 Q 51.3809 129.225 54.0632 128.854 Q 54.1132 128.854 54.1897 128.894 Q 54.6838 128.96 55.2441 129.106 Q 56.6162 129.318 58.0941 129.715 Q 58.5441 134.14 59.3118 139.044 Q 60.9926 151.578 60.9926 164.297 Q 60.9926 169.057 60.8603 173.354 Q 60.7971 174.075 60.3662 174.599 Q 59.8985 175.149 59.3074 175.268 Q 57.6176 175.81 55.8088 175.982 Q 54.2279 176.207 52.7265 175.731 Q 52.0853 175.625 51.6279 175.075 Q 51.1338 174.525 51.0809 173.751 Q 50.9618 171.5 50.8691 169 Q 50.5382 158.526 49.7574 148.397 Q 49.0294 139.713 48.1559 131.188 Q 48.0897 130.665 48.0235 130.141 Q 48.0103 129.991 47.9971 129.854 L 47.9971 129.781" fill="#0066CC"/>
	</g>
</svg>
