<?xml version="1.0"?>
<!DOCTYPE svg PUBLIC "-//W3C//DTD SVG 1.1//EN" "http://www.w3.org/Graphics/SVG/1.1/DTD/svg11.dtd">
<svg version='1.1' width='28px' height='60px' xmlns='http://www.w3.org/2000/svg' xmlns:xlink='http://www.w3.org/1999/xlink'>
	<g transform="translate(-192.305,-117.64)">
		<path d="M 192.333 126.4 Q 192.083 123.85 194.05 122.5 Q 195.133 121.783 196.717 121.483 Q 198.083 121.383 199.45 121.367 Q 202.9 121.317 206.333 122.033 Q 206.767 122.083 207.167 122.133 Q 207.55 121.083 207.95 120.133 Q 208.35 119.25 209.2 118.767 Q 210 118.267 211.233 118.117 Q 211.417 118.1 211.6 118.067 Q 211.667 118.083 211.733 118.1 Q 212.183 118 212.7 117.95 Q 213.617 117.767 214.667 117.7 Q 215.4 117.617 216.183 117.65 Q 218.167 117.717 218.45 118.667 Q 218.65 118.783 218.717 120.283 Q 218.717 121.2 218.717 122.4 Q 218.683 123.1 218.633 123.9 Q 218.6 124.35 218.567 124.817 Q 218.367 127.917 218.4 132.35 Q 218.4 134.9 218.5 137.95 Q 218.567 140.833 218.7 143.967 Q 219.017 151.483 219.3 157.3 Q 219.3 157.333 219.3 157.383 Q 219.317 158.517 219.417 159.667 Q 219.417 160.35 219.433 161.033 Q 219.517 163.067 219.467 164.95 Q 219.433 167.85 219 170.2 Q 218.767 171.633 218.35 172.733 Q 217.833 174.35 217.05 175.133 Q 216.917 175.3 216.75 175.467 Q 215.333 177.067 213.65 176.917 Q 212.75 176.833 211.8 176.35 Q 211.083 175.967 210.3 175.367 Q 209.683 174.817 209 174.167 Q 209.233 169.467 209 160.9 Q 208.95 159.883 208.933 158.833 Q 208.767 152.4 208.833 144.083 Q 208.833 143.183 208.817 142.3 Q 208.817 142.167 208.817 142 Q 208.8 141.05 208.783 140.133 Q 208.75 139.25 208.583 138.633 Q 207.783 135.967 206.883 133.617 Q 206.683 133.1 206.433 132.633 Q 206.267 132.333 206.017 132.067 Q 205.817 131.867 205.583 131.733 Q 205.217 131.45 204.783 131.267 Q 203.867 130.967 202.95 130.817 Q 202.683 130.767 202.417 130.717 Q 201.95 130.683 201.483 130.65 Q 199.917 130.383 198.383 130.1 L 198.367 130.1 Q 196.967 129.817 195.783 129.417 Q 195.1 129.15 194.467 128.833 Q 194.467 128.817 194.467 128.817 Q 193.817 128.5 193.333 128.083 Q 192.767 127.467 192.417 126.817 Q 192.35 126.633 192.333 126.467 L 192.333 126.4" fill="#0066CC"/>
	</g>
</svg>
