<?xml version="1.0"?>
<!DOCTYPE svg PUBLIC "-//W3C//DTD SVG 1.1//EN" "http://www.w3.org/Graphics/SVG/1.1/DTD/svg11.dtd">
<svg version='1.1' width='12px' height='47px' xmlns='http://www.w3.org/2000/svg' xmlns:xlink='http://www.w3.org/1999/xlink'>
	<g transform="translate(-181.75,-124.866)">
		<path d="M 181.75 128.417 Q 181.8 127.633 182.2 127.017 Q 182.367 126.75 182.583 126.55 Q 182.85 126.35 183.15 126.25 Q 183.15 126.233 183.15 126.217 Q 183.683 125.933 184.317 125.667 Q 184.967 125.4 185.7 125.15 Q 185.75 125.15 185.8 125.133 Q 186.983 124.917 188.2 124.867 Q 188.9 124.867 189.6 124.867 Q 190.333 124.85 190.9 125.217 Q 191.05 125.317 191.167 125.417 Q 191.617 125.733 191.833 126.167 Q 191.917 126.35 192 126.533 L 192.05 126.667 Q 192.1 126.783 192.15 126.9 Q 192.183 126.983 192.217 127.083 Q 192.25 127.183 192.283 127.283 Q 192.5 128.167 192.6 129.167 Q 192.6 129.367 192.617 129.567 Q 192.617 129.717 192.633 129.867 Q 192.667 130.633 192.717 131.4 Q 192.767 132.6 192.8 133.817 Q 192.833 135.233 192.85 136.633 L 192.85 167.433 Q 192.85 168.167 192.45 168.733 Q 192.283 169.05 192.05 169.267 Q 191.783 169.483 191.5 169.633 Q 191.067 169.817 190.65 170.017 Q 189.583 170.567 188.117 170.8 Q 187.783 170.85 187.45 170.9 Q 186.85 171 186.25 171.083 Q 185.7 171.15 185.15 171.167 Q 184.4 171.2 183.8 170.8 Q 183.317 170.5 183.067 170.1 Q 182.967 169.95 182.9 169.75 Q 182.533 168.917 182.25 167.983 Q 182.1 167.55 181.983 167.1 Q 181.85 166.5 181.75 165.883 L 181.75 128.483 L 181.75 128.417" fill="#0066CC"/>
	</g>
</svg>
