<?xml version="1.0"?>
<!DOCTYPE svg PUBLIC "-//W3C//DTD SVG 1.1//EN" "http://www.w3.org/Graphics/SVG/1.1/DTD/svg11.dtd">
<svg version='1.1' width='27px' height='47px' xmlns='http://www.w3.org/2000/svg' xmlns:xlink='http://www.w3.org/1999/xlink'>
	<g transform="translate(-233.35,-124.975)">
		<path d="M 237.825 136.625 Q 235.52 137.735 233.35 139.425 L 233.4 128.65 Q 235.146 127.486 236.875 126.7 L 236.825 126.7 Q 240.378 124.977 244.3 124.975 Q 251.601 124.982 255.725 129.7 Q 259.71 134.091 259.7 142.575 L 259.7 169.45 Q 259.699 170.228 259.125 170.775 Q 258.556 171.34 257.75 171.35 L 250.575 171.35 Q 249.769 171.34 249.2 170.775 Q 248.626 170.228 248.625 169.45 L 248.625 145.85 Q 248.613 143.127 248.35 140.825 L 248.35 140.8 Q 248.091 138.753 247.5 137.55 Q 247.486 137.526 247.475 137.5 Q 246.88 136.522 245.9 136.075 Q 245.837 136.05 245.775 136.025 Q 244.552 135.428 242.475 135.425 Q 240.235 135.447 237.825 136.625 Z" fill="#0066CC"/>
	</g>
</svg>
