<?xml version="1.0"?>
<!DOCTYPE svg PUBLIC "-//W3C//DTD SVG 1.1//EN" "http://www.w3.org/Graphics/SVG/1.1/DTD/svg11.dtd">
<svg version='1.1' width='34px' height='48px' xmlns='http://www.w3.org/2000/svg' xmlns:xlink='http://www.w3.org/1999/xlink'>
	<g transform="translate(-135.189,-124.204)">
		<path d="M 135.189 127.589 Q 135.189 127.287 135.287 126.989 Q 135.391 126.691 135.593 126.446 Q 135.596 126.396 135.646 126.346 Q 135.9 126.043 136.302 125.841 Q 136.452 125.789 136.602 125.739 Q 136.852 125.685 137.15 125.585 Q 137.55 125.48 137.998 125.383 Q 138.4 125.283 138.848 125.187 Q 139.248 125.093 139.646 125 Q 140.713 124.824 141.943 124.624 Q 142.239 124.587 142.533 124.55 Q 143.122 124.476 143.709 124.404 Q 146.826 124.109 149.978 124.25 Q 152.496 124.354 154.624 124.652 Q 156.217 124.87 157.57 125.23 Q 157.57 125.233 157.617 125.283 Q 159.257 125.741 160.752 126.487 Q 162.2 127.185 163.502 128.172 Q 163.502 128.174 163.55 128.176 Q 164.128 128.589 164.611 129.1 Q 166.007 130.43 166.878 132.146 Q 166.924 132.243 166.974 132.389 Q 167.022 132.489 167.07 132.591 Q 167.311 133.048 167.504 133.504 L 167.457 133.504 Q 168.759 136.541 168.77 140.822 L 168.774 143.078 Q 168.774 143.278 168.776 143.478 Q 168.783 146.335 168.789 149.193 Q 168.793 150.796 168.796 152.398 Q 168.796 152.698 168.798 152.998 Q 168.807 159.354 168.802 165.72 Q 168.802 166.822 168.796 167.926 Q 168.789 168.58 168.783 169.235 Q 168.778 169.635 168.585 169.989 Q 168.437 170.293 168.193 170.55 Q 167.704 171.059 166.978 171.187 Q 166.928 171.189 166.876 171.191 Q 166.374 171.202 165.872 171.215 Q 164.97 171.235 164.061 171.241 Q 163.259 171.248 162.459 171.235 Q 161.052 171.211 159.68 171.167 Q 159.68 171.167 159.68 171.167 Q 159.187 171.098 158.798 170.885 Q 158.559 170.735 158.367 170.537 Q 157.793 169.985 157.793 169.241 Q 157.796 167.487 157.798 165.783 Q 157.798 165.43 157.798 165.08 Q 157.804 162.676 157.809 160.274 Q 157.811 157.967 157.813 155.661 Q 157.813 154.257 157.815 152.852 Q 157.815 151.85 157.815 150.852 Q 157.815 145.493 157.8 140.135 Q 157.8 139.985 157.8 139.883 Q 157.7 138.489 157.313 137.478 Q 157.265 137.476 157.265 137.426 Q 156.783 136.42 155.917 135.891 Q 154.907 135.209 153.417 135.004 Q 153.37 134.957 153.37 134.957 Q 151.589 134.585 149.759 134.55 Q 148.12 134.457 146.096 134.698 Q 145.322 134.804 144.548 134.961 Q 144.5 134.959 144.5 134.957 Q 142.954 135.17 141.454 135.526 Q 139.857 135.922 138.307 136.463 Q 137.967 136.589 137.58 136.572 Q 137.387 136.563 137.146 136.554 Q 136.374 136.526 135.841 135.974 Q 135.261 135.411 135.25 134.611 Q 135.246 134.209 135.241 133.807 Q 135.226 132.154 135.209 130.507 Q 135.2 129.052 135.189 127.598 L 135.189 127.589" fill="#0066CC"/>
	</g>
</svg>
