<?xml version="1.0"?>
<!DOCTYPE svg PUBLIC "-//W3C//DTD SVG 1.1//EN" "http://www.w3.org/Graphics/SVG/1.1/DTD/svg11.dtd">
<svg version='1.1' width='16px' height='45px' xmlns='http://www.w3.org/2000/svg' xmlns:xlink='http://www.w3.org/1999/xlink'>
	<g transform="translate(-48.7912,-141.163)">
		<path d="M 48.7912 143.943 L 48.8912 143.982 Q 49.0132 143.744 49.1353 143.506 Q 49.1353 143.506 49.175 143.466 Q 51.1426 142.275 53.1897 141.163 Q 53.2397 141.163 53.3691 141.282 Q 53.6515 141.481 54.1324 141.918 Q 54.9485 142.553 56.0824 143.744 Q 57.4324 146.819 59.7353 151.432 Q 64.7779 162.034 64.7779 173.191 Q 64.7779 177.872 64.3809 181.163 Q 64.2912 181.725 64.0985 182.196 Q 63.8956 182.746 63.6221 183.103 Q 62.7529 184.731 61.5265 185.247 Q 60.1838 185.922 59.0794 184.493 Q 58.7559 184.175 58.4838 183.625 Q 58.2015 183.075 58.0426 182.354 Q 57.6853 180.5 57.4074 178 Q 56.4147 168.479 54.0721 159.991 Q 51.8882 152.34 49.2676 145.165 Q 49.0691 144.694 48.8706 144.224 Q 48.8309 144.074 48.7912 143.963 L 48.7912 143.943" fill="#0066CC"/>
	</g>
</svg>
