<?xml version="1.0"?>
<!DOCTYPE svg PUBLIC "-//W3C//DTD SVG 1.1//EN" "http://www.w3.org/Graphics/SVG/1.1/DTD/svg11.dtd">
<svg version='1.1' width='30px' height='36px' xmlns='http://www.w3.org/2000/svg' xmlns:xlink='http://www.w3.org/1999/xlink'>
	<g transform="translate(-235.7,-132.42)">
		<path d="M 235.7 139.684 Q 235.768 138.692 235.855 138.034 Q 235.924 137.342 235.979 137.155 Q 236.021 136.458 236.271 135.937 Q 236.695 134.479 238.132 133.934 Q 238.721 133.739 239.437 133.671 Q 239.518 133.671 239.6 133.671 Q 246.084 133.884 251.529 132.876 Q 251.547 132.876 251.597 132.876 Q 251.829 132.808 252.092 132.739 Q 254.205 132.361 256.426 132.432 Q 256.426 132.432 256.458 132.432 Q 257.024 132.489 257.653 132.611 Q 257.734 132.624 257.816 132.637 Q 257.816 132.637 257.847 132.637 Q 257.847 132.637 257.847 132.637 Q 258.305 132.613 258.732 132.766 Q 258.7 132.734 258.7 132.734 Q 261.216 133.234 261.95 135.55 Q 261.968 135.55 261.987 135.582 Q 262.558 137.153 263.337 138.974 Q 263.534 139.429 263.745 139.934 Q 263.763 139.934 263.782 139.966 Q 264.226 140.9 264.397 142.013 Q 264.416 142.126 264.403 142.239 Q 264.761 143.937 264.8 145.911 Q 264.8 146.005 264.8 146.1 Q 264.839 148.979 264.853 151.763 Q 264.884 151.926 264.884 152.121 Q 264.821 152.992 264.884 153.989 Q 264.884 154.008 264.884 154.058 Q 264.947 155.476 264.979 156.832 Q 265.011 159.692 264.737 162.263 Q 264.697 166.934 263.313 167.918 Q 263.055 168.05 262.703 168.087 Q 262.671 168.087 262.639 168.087 Q 262.137 168.166 261.603 168.334 Q 260.908 168.6 259.716 167.463 Q 259.329 167.211 258.924 166.537 Q 256.687 163.713 255.816 155.542 Q 255.816 155.542 255.816 155.511 Q 255.753 154.487 255.758 153.603 Q 255.529 151.816 255.511 149.879 Q 254.989 148.947 254.55 148.021 Q 253.795 146.505 253.126 144.937 Q 253.039 144.721 252.953 144.505 Q 252.679 144.029 252.626 143.629 Q 252.608 143.566 252.621 143.534 Q 252.497 143.255 252.468 143.008 Q 251.979 143.063 251.489 142.942 Q 250.895 142.795 249.732 142.724 Q 247.726 142.947 241.963 142.645 Q 236.258 142.355 235.7 139.747 L 235.7 139.684" fill="#0066CC"/>
	</g>
</svg>
