<?xml version="1.0"?>
<!DOCTYPE svg PUBLIC "-//W3C//DTD SVG 1.1//EN" "http://www.w3.org/Graphics/SVG/1.1/DTD/svg11.dtd">
<svg version='1.1' width='15px' height='46px' xmlns='http://www.w3.org/2000/svg' xmlns:xlink='http://www.w3.org/1999/xlink'>
	<g transform="translate(-48.5265,-137.06)">
		<path d="M 48.5265 139.222 L 48.6265 139.253 Q 48.8103 139.068 48.9941 138.882 Q 48.9941 138.882 49.025 138.851 Q 51.2221 137.925 53.4809 137.06 Q 53.5309 137.06 53.6426 137.153 Q 53.9956 137.307 54.5029 137.647 Q 55.5044 138.141 56.7529 139.068 Q 57.8029 142.593 59.5941 147.303 Q 63.5162 158.549 63.5162 170.226 Q 63.5162 174.934 63.2074 178.56 Q 63.1265 179.175 62.8544 179.663 Q 62.5632 180.213 62.1838 180.491 Q 61.0412 181.757 59.6206 182.159 Q 58.1985 182.684 56.9618 181.572 Q 56.5324 181.325 56.1985 180.775 Q 55.8456 180.225 55.7221 179.487 Q 55.4441 177.5 55.2279 175 Q 54.4559 165.162 52.6338 156.126 Q 50.9353 148.131 48.8971 140.506 Q 48.7426 140.018 48.5882 139.529 Q 48.5574 139.379 48.5265 139.26 L 48.5265 139.222" fill="#0066CC"/>
	</g>
</svg>
