<?xml version="1.0"?>
<!DOCTYPE svg PUBLIC "-//W3C//DTD SVG 1.1//EN" "http://www.w3.org/Graphics/SVG/1.1/DTD/svg11.dtd">
<svg version='1.1' width='10px' height='67px' xmlns='http://www.w3.org/2000/svg' xmlns:xlink='http://www.w3.org/1999/xlink'>
	<g transform="translate(-81.925,-111.3)">
		<path d="M 81.925 119.7 Q 81.925 118.925 82.2 118.275 Q 82.475 117.5 82.9 117.025 Q 84.725 114.85 86.75 112.575 Q 87.2 112.025 87.55 111.775 Q 87.725 111.675 87.825 111.625 Q 87.9 111.525 87.95 111.5 Q 88.225 111.1 89.225 111.5 Q 91.95 112.125 91.675 118.05 Q 91.375 124.675 91.25 129.975 Q 91.225 131.15 91.2 132.3 Q 91.2 132.4 91.2 132.475 Q 91.175 136.35 91.2 140.025 L 91.25 140.075 Q 91.225 140.625 91.225 141.175 L 91.25 141.2 Q 91.25 143.05 91.25 144.875 L 91.225 144.925 Q 91.15 154.6 91.2 163.575 Q 91.2 163.75 91.2 163.925 Q 91.225 167 91.3 169.9 Q 91.325 170.675 91.075 171.325 Q 90.8 172 90.425 172.375 Q 89.7 173.35 89.025 174.25 Q 88.125 175.625 87.075 176.725 Q 86.65 177.175 86.35 177.3 Q 86.025 177.55 85.925 177.6 Q 85.525 178.4 84.3 177.5 Q 82.1 176.375 82.05 170.475 Q 82.025 163.65 82.075 152.125 Q 82.075 151.95 82.075 151.775 Q 82.1 142.575 82.15 132.3 Q 82.05 132.225 81.975 132.15 L 81.95 123.75 Q 81.925 122.3 81.925 120.825 Q 81.925 120.275 81.925 119.75 L 81.925 119.7" fill="#0066CC"/>
	</g>
</svg>
