<?xml version="1.0"?>
<!DOCTYPE svg PUBLIC "-//W3C//DTD SVG 1.1//EN" "http://www.w3.org/Graphics/SVG/1.1/DTD/svg11.dtd">
<svg version='1.1' width='51px' height='49px' xmlns='http://www.w3.org/2000/svg' xmlns:xlink='http://www.w3.org/1999/xlink'>
	<g transform="translate(-124.553,-124.332)">
		<path d="M 124.671 151.365 Q 124.332 147.518 124.968 143.685 Q 125.385 141.303 126.326 139.171 Q 126.368 139.121 126.418 139.079 Q 127.05 137.553 127.965 136.168 Q 129.262 134.244 130.9 132.553 Q 132.621 130.656 134.732 129.206 Q 134.732 129.206 134.741 129.206 Q 134.741 129.206 134.741 129.206 Q 135.456 128.709 136.179 128.253 Q 137.541 127.4 139.003 126.688 Q 142.979 124.685 147.456 124.418 Q 147.447 124.426 147.447 124.426 Q 150.212 124.218 152.879 124.471 Q 156.209 124.715 159.318 125.924 Q 159.409 125.965 159.5 126.006 Q 159.665 126.106 159.829 126.215 Q 160.344 126.462 160.809 126.726 Q 160.918 126.759 161.035 126.8 Q 161.359 126.956 161.641 127.112 Q 162.165 127.409 162.679 127.706 Q 163.103 127.944 163.494 128.224 Q 165.535 129.591 167.041 131.529 Q 167.082 131.529 167.124 131.612 Q 168.729 133.7 169.691 136.203 Q 169.782 136.485 169.882 136.776 Q 170.326 137.688 170.635 138.685 Q 170.685 138.876 170.735 139.109 Q 170.785 139.209 170.835 139.309 Q 171.076 140.462 171.191 141.65 Q 171.306 142.688 171.347 143.685 Q 171.347 143.694 171.347 143.744 Q 171.347 143.885 171.388 144.026 Q 171.388 144.168 171.388 144.309 Q 171.471 144.285 171.594 144.303 Q 172.129 144.3 172.582 144.462 Q 172.624 144.438 172.665 144.497 Q 172.665 144.506 172.706 144.515 Q 172.994 144.559 173.241 144.644 Q 173.324 144.703 173.406 144.721 Q 173.818 144.659 174.271 144.803 Q 174.518 144.724 174.806 144.726 Q 174.847 144.735 174.847 144.744 Q 174.847 145.456 174.856 146.209 Q 174.874 149.05 174.762 151.856 Q 174.762 151.856 174.721 151.856 Q 174.168 152.018 173.738 152.097 Q 173.615 152.115 173.532 152.174 Q 173.318 152.191 173.144 152.209 Q 173.094 152.226 173.085 152.244 Q 173.003 152.212 172.921 152.221 Q 172.656 152.297 172.432 152.332 Q 172.341 152.3 172.291 152.309 Q 172.25 152.309 172.209 152.35 Q 172.118 152.359 172.068 152.368 Q 172.026 152.376 171.985 152.385 Q 171.985 152.426 171.985 152.426 Q 171.818 153.265 171.632 154.094 Q 171.497 154.65 171.312 155.206 Q 170.759 156.812 170.009 158.344 Q 169.809 158.75 169.609 159.115 Q 169.218 159.812 168.785 160.5 Q 167.744 162.209 166.421 163.75 Q 166.371 163.8 166.279 163.85 Q 166.262 163.85 166.262 163.85 Q 165.812 164.332 165.362 164.806 Q 164.588 165.594 163.782 166.306 Q 163.741 166.356 163.7 166.406 Q 161.965 167.906 160.009 169.082 Q 160 169.124 160 169.165 Q 159.959 169.165 159.918 169.165 Q 159.818 169.215 159.759 169.265 Q 157.379 170.668 154.797 171.547 Q 152.856 172.226 150.653 172.532 Q 148.885 172.797 147.074 172.797 Q 145.388 172.797 143.712 172.565 Q 141.462 172.2 139.344 171.485 Q 139.012 171.344 138.679 171.203 Q 136.803 170.456 135.118 169.459 Q 133.415 168.453 131.944 167.074 Q 131.944 167.074 131.944 167.074 Q 130.226 165.521 128.882 163.503 Q 128.832 163.412 128.824 163.362 Q 127.844 161.95 127.015 160.462 Q 127.015 160.462 127.015 160.462 Q 126.882 160.229 126.75 159.997 Q 126.659 159.947 126.659 159.897 Q 126.618 159.856 126.618 159.815 Q 125.953 157.856 125.538 155.929 Q 125.497 155.888 125.538 155.847 Q 124.991 153.879 124.712 151.894 Q 124.712 151.853 124.712 151.812 Q 124.671 151.629 124.671 151.447 L 124.671 151.365" fill="#0066CC"/>
		<path d="M 133.632 146.591 Q 133.797 145.415 134.185 144.247 Q 134.979 142.341 134.979 142.3 Q 135.609 141.047 136.365 139.962 Q 136.556 139.697 136.747 139.474 Q 136.979 139.076 137.294 138.762 Q 139.674 135.891 143.321 134.715 Q 146.647 133.665 150.029 133.365 Q 152.926 133.124 155.488 134.209 Q 155.912 134.415 156.326 134.662 Q 157.703 135.426 158.988 136.241 Q 159.776 136.768 160.441 137.376 Q 161.147 138.026 161.662 138.718 Q 161.894 139.038 162.085 139.368 Q 162.568 140.159 162.894 140.835 Q 163.182 141.665 163.347 142.576 Q 163.635 144.109 164.088 145.641 Q 164.171 145.965 164.253 146.288 Q 164.253 146.288 164.294 146.329 Q 164.294 146.379 164.335 146.429 Q 164.376 146.571 164.459 146.753 Q 164.459 146.803 164.5 146.853 Q 164.665 147.168 164.953 147.524 Q 164.953 147.524 164.994 147.565 Q 165.035 147.615 165.118 147.665 Q 165.035 147.765 164.994 147.865 Q 164.953 147.874 164.953 147.924 Q 164.829 148.329 164.788 148.735 Q 164.665 149.232 164.582 149.771 Q 164.541 149.779 164.541 149.829 Q 164.459 149.888 164.459 150.029 Q 164.418 150.212 164.376 150.435 Q 163.809 151.762 163.265 153.079 Q 163.1 153.403 162.885 153.685 Q 162.844 153.735 162.803 153.826 Q 162.556 154.412 162.268 154.997 Q 162.226 155.038 162.185 155.079 Q 161.321 156.371 160.415 157.624 L 160.406 157.674 Q 160.324 157.665 160.282 157.738 Q 160.035 157.991 159.788 158.203 Q 158.9 159.156 157.865 159.959 Q 155.694 161.541 153.268 162.735 Q 152.25 163.182 151.232 163.465 Q 151.2 163.465 151.159 163.465 Q 148.956 164.056 146.579 163.862 Q 143.482 163.594 140.812 162.318 Q 140.447 162.153 140.082 161.947 Q 140.041 161.906 139.959 161.906 Q 138.956 161.329 138.168 160.579 Q 138.118 160.497 138.068 160.456 Q 135.688 158.221 134.612 155.285 Q 134.621 155.244 134.621 155.203 Q 134.379 154.591 134.221 153.929 Q 133.912 152.821 133.753 151.662 Q 133.394 149.212 133.632 146.668 Q 133.632 146.626 133.632 146.626 L 133.632 146.591" fill="#0066CC"/>
	</g>
</svg>
