<?xml version="1.0"?>
<!DOCTYPE svg PUBLIC "-//W3C//DTD SVG 1.1//EN" "http://www.w3.org/Graphics/SVG/1.1/DTD/svg11.dtd">
<svg version='1.1' width='13px' height='48px' xmlns='http://www.w3.org/2000/svg' xmlns:xlink='http://www.w3.org/1999/xlink'>
	<g transform="translate(-47.8206,-126.119)">
		<path d="M 47.8206 126.634 L 47.9206 126.641 Q 48.2691 126.597 48.6176 126.553 Q 48.6176 126.553 48.625 126.546 Q 51.4338 126.325 54.2574 126.119 Q 54.3074 126.119 54.3721 126.141 Q 54.9132 126.178 55.4912 126.259 Q 56.9868 126.376 58.5412 126.597 Q 58.7912 131.322 59.2176 136.291 Q 60.1515 149.254 60.1515 162.321 Q 60.1515 167.099 60.0779 171.619 Q 60.0206 172.375 59.5368 172.91 Q 59.0103 173.46 58.3485 173.526 Q 56.4765 173.828 54.5382 173.924 Q 52.9044 174.049 51.3147 173.784 Q 50.6029 173.725 50.1044 173.175 Q 49.5632 172.625 49.5338 171.84 Q 49.4676 169.5 49.4162 167 Q 49.2324 156.315 48.7985 145.821 Q 48.3941 136.907 47.9088 128.082 Q 47.8721 127.547 47.8353 127.012 Q 47.8279 126.862 47.8206 126.719 L 47.8206 126.634" fill="#0066CC"/>
	</g>
</svg>
