<?xml version="1.0"?>
<!DOCTYPE svg PUBLIC "-//W3C//DTD SVG 1.1//EN" "http://www.w3.org/Graphics/SVG/1.1/DTD/svg11.dtd">
<svg version='1.1' width='12px' height='48px' xmlns='http://www.w3.org/2000/svg' xmlns:xlink='http://www.w3.org/1999/xlink'>
	<g transform="translate(-185.55,-123.528)">
		<path d="M 185.55 128.733 Q 185.65 127.967 185.85 127.283 Q 185.933 127 186.067 126.75 Q 186.25 126.5 186.4 126.3 Q 186.4 126.267 186.4 126.233 Q 186.667 125.667 187.133 125.133 Q 187.583 124.6 188.2 124.1 Q 188.25 124.1 188.3 124.067 Q 189.467 123.633 190.7 123.533 Q 191.4 123.533 192.1 123.533 Q 192.767 123.5 193.35 123.683 Q 193.5 123.733 193.633 123.783 Q 194.183 123.967 194.617 124.233 Q 194.783 124.35 194.95 124.467 L 195.05 124.533 Q 195.15 124.617 195.25 124.7 Q 195.317 124.767 195.383 124.867 Q 195.45 124.967 195.517 125.067 Q 195.95 125.883 196.15 126.883 Q 196.15 127.083 196.183 127.283 Q 196.183 127.433 196.217 127.583 Q 196.283 128.367 196.383 129.15 Q 196.483 130.35 196.55 131.583 Q 196.617 133.017 196.65 134.417 L 196.65 165.417 Q 196.65 166.083 196.45 166.667 Q 196.367 167 196.25 167.283 Q 196.067 167.617 195.9 167.917 Q 195.633 168.283 195.4 168.683 Q 194.767 169.783 193.333 170.25 Q 193.017 170.35 192.7 170.45 Q 192.1 170.65 191.5 170.817 Q 190.95 170.95 190.4 170.983 Q 189.7 171.05 189.05 170.8 Q 188.533 170.6 188.133 170.3 Q 187.983 170.2 187.85 170.05 Q 187.117 169.433 186.55 168.617 Q 186.25 168.2 186.017 167.75 Q 185.75 167.15 185.55 166.517 L 185.55 128.867 L 185.55 128.733" fill="#0066CC"/>
	</g>
</svg>
