<?xml version="1.0"?>
<!DOCTYPE svg PUBLIC "-//W3C//DTD SVG 1.1//EN" "http://www.w3.org/Graphics/SVG/1.1/DTD/svg11.dtd">
<svg version='1.1' width='23px' height='77px' xmlns='http://www.w3.org/2000/svg' xmlns:xlink='http://www.w3.org/1999/xlink'>
	<g transform="translate(-200.555,-108.709)">
		<path d="M 200.623 125.368 Q 201.409 120.936 205.4 118.973 Q 210.045 116.855 213.505 115.164 Q 213.536 115.127 213.568 115.091 Q 213.568 113.409 213.8 111.977 Q 213.836 111.823 213.873 111.668 Q 214.205 110.414 215.155 109.705 Q 216.355 108.768 218.55 108.709 Q 219.986 108.691 220.886 109.341 Q 220.918 109.359 220.95 109.377 Q 221.423 109.795 221.991 110.277 Q 223.432 111.114 223.3 112.586 Q 223.209 114.127 222.773 120.123 Q 222.214 128.759 222.559 141.695 Q 222.559 142.082 222.559 142.468 Q 222.859 156.423 223.177 167.214 Q 223.391 173.832 222.936 178.255 Q 222.795 179.291 222.555 180.136 Q 221.623 183.214 219.659 184.536 Q 217.691 186.586 214.527 185.027 Q 214.059 183.959 213.364 181.841 Q 213.714 177.482 213.727 169.927 Q 213.7 166.391 213.7 162.177 Q 213.686 155.809 213.627 147.923 Q 213.627 147.773 213.627 147.591 Q 213.541 141.986 213.4 136.123 Q 213.35 135.318 213.268 134.545 Q 213.205 134.059 213.059 133.605 Q 212.932 133.286 212.773 133.032 Q 212.5 132.545 212.164 132.155 Q 211.509 131.4 210.855 130.773 Q 210.664 130.582 210.473 130.391 Q 209.768 129.691 209.064 129.005 Q 206.827 129.8 204.732 129.286 Q 204.364 129.186 204.014 129.086 Q 203.141 128.8 202.414 128.477 Q 201.577 128.082 201.145 127.482 Q 200.664 126.755 200.555 125.923 Q 200.564 125.686 200.623 125.432 L 200.623 125.368" fill="#0066CC"/>
	</g>
</svg>
