<?xml version="1.0"?>
<!DOCTYPE svg PUBLIC "-//W3C//DTD SVG 1.1//EN" "http://www.w3.org/Graphics/SVG/1.1/DTD/svg11.dtd">
<svg version='1.1' width='37px' height='49px' xmlns='http://www.w3.org/2000/svg' xmlns:xlink='http://www.w3.org/1999/xlink'>
	<g transform="translate(-77.4,-127.221)">
		<path d="M 77.4 135.032 Q 77.5 134.132 77.8184 133.4 Q 77.9079 133.15 78.0368 132.939 Q 78.0368 132.889 78.0763 132.879 Q 78.7763 131.126 80.1868 130.303 Q 80.8395 129.995 81.6105 129.845 Q 81.8316 129.795 82.0921 129.784 Q 84.7737 129.758 87.7658 129.868 Q 87.8053 129.868 87.8447 129.858 Q 88.5763 129.905 89.3474 129.953 L 89.3868 129.953 L 94.7921 130.037 Q 94.8605 130.047 94.95 130.058 Q 95.1605 130.037 95.3711 130.055 Q 95.4211 130.055 95.4711 130.095 Q 101.139 129.261 105.676 127.816 Q 106.118 127.437 106.837 127.334 Q 107.379 127.103 108.345 127.345 Q 109.579 127.363 110.832 128.516 Q 110.842 128.516 110.853 128.555 Q 111.134 128.779 111.416 129.032 Q 111.921 129.468 112.355 130.071 Q 113.053 130.989 113.568 132.403 Q 113.75 132.874 113.882 133.345 Q 113.942 133.545 114.003 133.784 Q 114.121 135.376 114.263 137.366 Q 114.263 137.466 114.263 137.566 Q 114.221 140.95 114.118 144.995 Q 114.074 146.437 114.079 147.958 Q 114.079 148.008 114.079 148.058 Q 113.982 150.663 114.024 153.634 Q 114.024 153.634 114.024 153.634 Q 114.018 155.658 114.074 157.8 Q 114.097 160.534 114.171 163.437 Q 114.255 165.861 114.389 168.403 Q 114.389 168.503 114.389 168.603 Q 114.176 172.805 112.108 174.482 Q 111.979 174.613 111.811 174.705 Q 111.642 174.797 111.474 174.85 Q 111.384 174.932 111.334 174.974 Q 110.908 175.218 110.45 175.234 Q 110.182 175.287 109.903 175.25 Q 109.213 175.258 108.579 174.974 Q 106.695 174.192 106.005 170.934 Q 105.916 170.605 105.866 170.276 Q 104.689 165.411 104.297 160.811 Q 104.121 158.668 104.074 156.626 Q 104.074 156.626 104.074 156.587 Q 103.597 147.432 104.132 140.663 Q 104.005 140.213 103.908 139.792 Q 100.466 140.542 96.5947 141.032 Q 96.4842 141.082 96.3737 141.092 Q 94.6316 141.445 92.8684 141.787 Q 92.7789 141.797 92.7105 141.808 L 89.9684 142.474 Q 89.9184 142.474 89.8684 142.513 Q 87.7184 142.889 85.8447 142.832 Q 85.8447 142.832 85.8447 142.842 Q 79.5895 142.608 77.5237 135.695 Q 77.4132 135.395 77.4211 135.095 L 77.4 135.032" fill="#0066CC"/>
	</g>
</svg>
