<?xml version="1.0"?>
<!DOCTYPE svg PUBLIC "-//W3C//DTD SVG 1.1//EN" "http://www.w3.org/Graphics/SVG/1.1/DTD/svg11.dtd">
<svg version='1.1' width='14px' height='47px' xmlns='http://www.w3.org/2000/svg' xmlns:xlink='http://www.w3.org/1999/xlink'>
	<g transform="translate(-48.2176,-132.274)">
		<path d="M 48.2176 133.715 L 48.3176 133.735 Q 48.5735 133.612 48.8294 133.488 Q 48.8294 133.488 48.85 133.468 Q 51.3147 132.85 53.8206 132.274 Q 53.8706 132.274 53.9618 132.335 Q 54.3971 132.438 54.9353 132.665 Q 56.1529 132.994 57.5353 133.612 Q 58.2353 137.662 59.4294 142.485 Q 62.0441 154.482 62.0441 166.768 Q 62.0441 171.506 61.8382 175.524 Q 61.7676 176.2 61.4029 176.709 Q 61.0088 177.259 60.5059 177.444 Q 59.0441 178.288 57.3971 178.556 Q 55.8824 178.906 54.4912 178.165 Q 53.9382 178 53.5324 177.45 Q 53.0971 176.9 53.0147 176.141 Q 52.8294 174 52.6853 171.5 Q 52.1706 161.291 50.9559 151.618 Q 49.8235 143.221 48.4647 135.071 Q 48.3618 134.562 48.2588 134.053 Q 48.2382 133.903 48.2176 133.774 L 48.2176 133.715" fill="#0066CC"/>
	</g>
</svg>
