<?xml version="1.0"?>
<!DOCTYPE svg PUBLIC "-//W3C//DTD SVG 1.1//EN" "http://www.w3.org/Graphics/SVG/1.1/DTD/svg11.dtd">
<svg version='1.1' width='30px' height='48px' xmlns='http://www.w3.org/2000/svg' xmlns:xlink='http://www.w3.org/1999/xlink'>
	<g transform="translate(-232.923,-127.691)">
		<path d="M 232.923 138.357 Q 233.003 136.16 233.003 135.35 Q 232.977 134.567 233.11 133.917 Q 233.4 131.383 235.107 130.183 Q 235.16 130.137 235.213 130.09 Q 235.667 129.77 236.093 129.45 Q 238.03 129.02 239.913 128.673 Q 239.917 128.673 239.943 128.673 Q 243.84 127.987 247.66 127.8 Q 248.037 127.773 248.413 127.747 Q 248.437 127.747 248.463 127.747 Q 248.737 127.72 249.037 127.693 Q 251.63 127.653 254.097 128.343 Q 254.097 128.343 254.123 128.343 Q 254.927 128.563 255.76 128.937 Q 255.783 128.937 255.833 128.937 Q 255.833 128.937 255.833 128.937 Q 256.36 129.08 256.837 129.38 Q 256.81 129.353 256.81 129.353 Q 258.5 130.22 259.483 131.807 Q 260.147 132.837 260.527 134.197 Q 260.527 134.197 260.527 134.223 Q 261.25 137.347 261.747 141.15 Q 261.747 141.15 261.747 141.2 Q 261.92 142.58 261.917 144.033 Q 261.917 144.183 261.89 144.333 Q 261.913 144.88 261.94 145.427 Q 261.993 147.13 262.047 148.833 Q 262.127 152.34 262.153 155.767 Q 262.18 155.967 262.18 156.193 Q 262.127 157.24 262.18 158.393 L 262.18 158.443 Q 262.34 163.467 262.18 168.063 Q 262.233 170.89 262.047 172.89 Q 261.967 173.637 261.577 174.133 Q 261.207 174.613 260.737 174.713 Q 260.59 174.763 260.417 174.79 Q 260.07 174.817 259.693 174.817 Q 259.067 174.79 258.413 174.87 Q 257.383 174.923 255.98 173.963 Q 255.13 173.643 254.28 172.603 Q 253.777 172.257 253.413 171.573 Q 253.077 170.89 252.97 170.01 Q 252.597 165.957 252.197 160.677 L 252.197 160.65 Q 252.143 159.467 252.117 158.417 Q 251.69 154.79 251.423 150.95 Q 251.237 148.147 251.077 145.29 Q 251.05 144.987 251.023 144.683 Q 250.917 143.807 250.973 143.01 Q 250.973 142.91 251 142.837 Q 250.95 142.337 250.98 141.887 Q 250.637 141.63 250.293 141.263 Q 250.187 141.07 249.977 140.877 Q 249.977 140.853 249.977 140.853 Q 249.557 140.42 249.003 140.06 Q 248.54 139.47 247.447 139.07 Q 247.447 139.07 247.447 139.047 Q 246.66 138.553 245.5 138.367 Q 245.45 138.343 245.4 138.343 Q 244.017 138.037 241.993 138.01 Q 241.39 138.01 240.787 138.033 Q 238.9 138.15 237.237 138.463 Q 233.927 138.683 232.923 138.463 L 232.923 138.357" fill="#0066CC"/>
	</g>
</svg>
