<?xml version="1.0"?>
<!DOCTYPE svg PUBLIC "-//W3C//DTD SVG 1.1//EN" "http://www.w3.org/Graphics/SVG/1.1/DTD/svg11.dtd">
<svg version='1.1' width='14px' height='61px' xmlns='http://www.w3.org/2000/svg' xmlns:xlink='http://www.w3.org/1999/xlink'>
	<g transform="translate(-164.695,-116.166)">
		<path d="M 164.695 119.495 Q 164.695 119.145 164.732 118.868 Q 164.914 118.541 165.132 118.286 Q 165.4 117.923 165.741 117.632 Q 166.032 117.341 166.323 117.123 Q 166.627 116.868 166.932 116.723 Q 167.077 116.591 167.223 116.509 Q 167.405 116.405 167.55 116.336 Q 167.841 116.264 168.095 116.191 Q 169.177 116.091 169.786 116.391 Q 170.127 116.618 170.482 116.895 Q 170.518 116.927 170.555 116.959 Q 171.568 118.227 172.418 119.618 Q 173.023 120.564 173.559 121.586 Q 174.209 123.014 174.845 124.509 Q 174.895 124.564 174.959 124.618 Q 175.1 124.9 175.268 125.195 Q 175.591 125.855 176.041 126.664 Q 176.159 126.927 176.291 127.205 Q 176.382 127.35 176.473 127.495 Q 176.514 127.605 176.568 127.764 Q 176.686 127.982 176.818 128.255 Q 176.818 128.291 176.832 128.327 Q 176.964 128.623 177.095 128.945 Q 177.227 129.268 177.373 129.618 Q 177.441 129.891 177.545 130.191 Q 177.595 130.491 177.645 130.805 Q 177.632 131.045 177.632 131.286 Q 177.595 131.35 177.632 131.414 Q 177.632 131.514 177.632 131.65 Q 177.677 132.877 177.723 134.105 Q 177.727 135.795 177.745 137.5 Q 177.732 140.368 177.718 143.236 Q 177.705 143.45 177.727 143.664 Q 177.709 145.191 177.691 146.718 Q 177.695 148.259 177.727 149.85 Q 177.723 150.977 177.718 152.105 Q 177.741 152.668 177.727 153.232 Q 177.727 153.545 177.764 153.859 Q 177.759 160.564 177.659 167.414 Q 177.659 168.591 177.55 169.805 Q 177.368 170.982 177.223 172.195 Q 176.968 173.323 176.75 174.486 Q 176.314 174.882 175.841 175.314 Q 175.164 175.927 174.377 176.309 Q 173.773 176.677 173.205 176.718 Q 172.768 176.723 172.455 176.691 Q 171.886 176.623 171.586 176.409 Q 171.514 176.341 171.441 176.273 Q 171.295 176.127 171.223 175.982 Q 171.25 175.486 171.277 174.991 Q 171.341 174.359 171.405 173.764 Q 171.405 173.595 171.418 173.464 Q 171.468 173.182 171.518 172.9 Q 171.632 172.1 171.723 171.336 Q 171.736 171.055 171.75 170.786 Q 171.75 170.664 171.764 170.568 Q 171.827 169.914 171.891 169.259 Q 171.918 168.786 171.982 168.327 Q 171.955 168.145 171.914 167.964 Q 171.9 167.895 171.873 167.827 Q 171.764 167.377 171.586 166.959 Q 171.477 166.677 171.355 166.382 Q 171.164 166.018 170.959 165.518 Q 170.7 164.823 170.468 164.059 Q 170.305 163.564 170.168 163.082 Q 170.036 161.955 169.905 160.827 Q 169.8 159.6 169.659 158.386 Q 169.532 157.159 169.445 155.932 Q 168.909 149.018 168.141 142.182 Q 168.105 141.918 168.068 141.655 Q 168.032 141.118 167.959 140.582 Q 167.764 139.291 167.545 138.027 Q 167.327 136.65 167.109 135.309 Q 166.818 133.518 166.514 131.764 Q 166.477 131.6 166.441 131.436 Q 166.005 128.832 165.568 126.3 Q 165.314 124.559 165.023 122.891 Q 164.877 121.35 164.695 119.809 Q 164.695 119.673 164.695 119.536 L 164.695 119.495" fill="#0066CC"/>
	</g>
</svg>
