<?xml version="1.0"?>
<!DOCTYPE svg PUBLIC "-//W3C//DTD SVG 1.1//EN" "http://www.w3.org/Graphics/SVG/1.1/DTD/svg11.dtd">
<svg version='1.1' width='9px' height='78px' xmlns='http://www.w3.org/2000/svg' xmlns:xlink='http://www.w3.org/1999/xlink'>
	<g transform="translate(-229.759,-108.789)">
		<path d="M 229.759 179.766 Q 229.827 179.291 229.895 177.83 Q 230.064 174.793 230.318 168.845 Q 230.42 165.802 230.523 162.327 Q 231.032 147.193 230.875 137.118 Q 230.841 135.852 230.807 134.652 Q 230.6 127.477 230.395 123.341 Q 230.361 122.541 230.327 121.809 Q 230.241 120.525 230.189 119.48 Q 230.136 118.93 230.152 118.38 Q 230.082 116.15 230.232 113.75 Q 230.232 113.5 230.232 113.25 Q 230.57 112.098 231.039 111.295 Q 231.152 111.075 231.266 110.855 Q 231.8 109.802 232.52 109.352 Q 233.311 108.568 234.368 108.875 Q 234.793 109.164 235.32 109.675 Q 237.65 111.975 238.155 116.252 Q 238.291 117.6 238.257 119.118 Q 237.598 145.489 238.375 171.634 Q 238.443 173.8 238.511 175.966 Q 238.614 178.582 238.291 181.061 Q 238.241 181.361 238.175 181.645 Q 238.159 181.695 238.143 181.745 Q 237.486 183.766 236.393 184.625 Q 235.439 185.684 234.348 186.002 Q 234.08 186.045 233.745 186.036 Q 233.577 186.023 233.441 186.025 Q 233.086 185.95 232.732 185.77 Q 231.559 184.768 230.011 182.198 Q 229.961 181.848 229.927 181.498 Q 229.893 181.048 229.859 180.598 Q 229.809 180.198 229.759 179.798 L 229.759 179.766" fill="#0066CC"/>
	</g>
</svg>
