<?xml version="1.0"?>
<!DOCTYPE svg PUBLIC "-//W3C//DTD SVG 1.1//EN" "http://www.w3.org/Graphics/SVG/1.1/DTD/svg11.dtd">
<svg version='1.1' width='54px' height='24px' xmlns='http://www.w3.org/2000/svg' xmlns:xlink='http://www.w3.org/1999/xlink'>
	<g transform="translate(-119.55,-202.45)">
		<path d="M 129.75 220.15 L 123.8 223.8 L 123.55 224.2 L 122.3 224.8 L 122.05 225.2 Q 120.811 225.834 119.55 226.35 Q 119.55 222.188 119.55 218 Q 123.404 216.383 127 213.75 Q 131.102 210.737 132.35 215.95 Q 132.793 217.904 129.925 220.05 L 129.9 220.05 Q 129.83 220.095 129.75 220.15 Z M 125.5 204.25 Q 147.217 203.986 168.125 202.45 Q 177.569 206.047 168.675 210.15 Q 166.177 211.285 162.925 211.5 Q 141.91 212.885 122.05 210.05 Q 120.75 209.862 120.45 208.75 Q 119.459 204.33 125.5 204.25 Z" fill="#0066CC"/>
	</g>
</svg>
