<?xml version="1.0"?>
<!DOCTYPE svg PUBLIC "-//W3C//DTD SVG 1.1//EN" "http://www.w3.org/Graphics/SVG/1.1/DTD/svg11.dtd">
<svg version='1.1' width='12px' height='49px' xmlns='http://www.w3.org/2000/svg' xmlns:xlink='http://www.w3.org/1999/xlink'>
	<g transform="translate(-47.7324,-124.751)">
		<path d="M 47.7324 125.06 L 47.8324 125.065 Q 48.2015 125.038 48.5706 125.012 Q 48.5706 125.012 48.575 125.007 Q 51.4603 124.875 54.3544 124.751 Q 54.4044 124.751 54.4632 124.765 Q 55.0279 124.787 55.6147 124.835 Q 57.1721 124.906 58.7647 125.038 Q 58.9147 129.913 59.1706 134.915 Q 59.7309 148.093 59.7309 161.332 Q 59.7309 166.119 59.6868 170.751 Q 59.6324 171.525 59.1221 172.066 Q 58.5662 172.616 57.8691 172.656 Q 55.9059 172.837 53.9029 172.894 Q 52.2426 172.969 50.6088 172.81 Q 49.8618 172.775 49.3426 172.225 Q 48.7779 171.675 48.7603 170.884 Q 48.7206 168.5 48.6897 166 Q 48.5794 155.209 48.3191 144.532 Q 48.0765 135.504 47.7853 126.529 Q 47.7632 125.988 47.7412 125.447 Q 47.7368 125.297 47.7324 125.151 L 47.7324 125.06" fill="#0066CC"/>
	</g>
</svg>
