<?xml version="1.0"?>
<!DOCTYPE svg PUBLIC "-//W3C//DTD SVG 1.1//EN" "http://www.w3.org/Graphics/SVG/1.1/DTD/svg11.dtd">
<svg version='1.1' width='9px' height='78px' xmlns='http://www.w3.org/2000/svg' xmlns:xlink='http://www.w3.org/1999/xlink'>
	<g transform="translate(-80.0971,-108.818)">
		<path d="M 80.0971 124.844 Q 80.0971 124.085 80.1941 123.338 Q 80.2912 122.45 80.4412 121.668 Q 81.15 118.085 82.1559 114.338 Q 82.3794 113.432 82.5676 112.632 Q 82.6618 112.306 82.7294 111.997 Q 82.7882 111.638 82.8706 111.338 Q 83.3235 109.547 84.9706 109.074 Q 89.4588 107.579 89.0059 114.815 Q 88.5118 122.297 88.3059 127.597 Q 88.2647 128.853 88.2235 130.068 Q 88.2235 130.168 88.2235 130.226 Q 88.1824 134.441 88.2235 138.326 L 88.3059 138.344 Q 88.2647 138.926 88.2647 139.509 L 88.3059 139.485 Q 88.3059 141.465 88.3059 143.403 L 88.2647 143.421 Q 88.1412 153.953 88.2235 163.332 Q 88.2235 163.524 88.2235 163.715 Q 88.2647 167.097 88.3882 170.191 Q 88.4294 170.95 88.3735 171.665 Q 88.3088 172.421 88.2088 173.038 Q 88.0176 174.644 87.8765 176.126 Q 87.7206 178.391 87.3176 180.203 Q 87.1676 180.944 87.0294 181.506 Q 86.85 182.274 86.6853 182.874 Q 86.0265 185.906 84.0088 186.138 Q 80.3853 186.712 80.3029 179.421 Q 80.2618 173.356 80.3441 159.55 Q 80.3441 159.359 80.3441 159.168 Q 80.3853 149.579 80.4676 138.221 Q 80.3029 138.226 80.1794 138.232 L 80.1382 129.25 Q 80.0971 127.703 80.0971 126.115 Q 80.0971 125.5 80.0971 124.926 L 80.0971 124.844" fill="#0066CC"/>
	</g>
</svg>
