<?xml version="1.0"?>
<!DOCTYPE svg PUBLIC "-//W3C//DTD SVG 1.1//EN" "http://www.w3.org/Graphics/SVG/1.1/DTD/svg11.dtd">
<svg version='1.1' width='31px' height='42px' xmlns='http://www.w3.org/2000/svg' xmlns:xlink='http://www.w3.org/1999/xlink'>
	<g transform="translate(-234.35,-131.412)">
		<path d="M 234.35 138.705 Q 234.411 137.603 234.482 136.905 Q 234.542 136.103 234.574 135.932 Q 234.576 135.147 234.826 134.571 Q 235.218 132.924 236.789 132.355 Q 237.426 132.137 238.221 132.076 Q 238.311 132.076 238.4 132.076 Q 245.555 132.605 251.474 131.708 Q 251.484 131.708 251.534 131.708 Q 251.774 131.647 252.053 131.587 Q 254.332 131.263 256.758 131.539 Q 256.758 131.539 256.797 131.539 Q 257.442 131.637 258.166 131.813 Q 258.255 131.842 258.345 131.871 Q 258.345 131.871 258.384 131.871 Q 258.384 131.871 258.384 131.871 Q 258.882 131.879 259.339 132.095 Q 259.3 132.055 259.3 132.055 Q 262.045 132.855 262.55 135.85 Q 262.561 135.85 262.571 135.889 Q 262.897 137.966 263.471 140.292 Q 263.605 140.874 263.768 141.505 Q 263.779 141.505 263.789 141.545 Q 264.108 142.7 264.184 143.979 Q 264.195 144.108 264.166 144.237 Q 264.413 146.171 264.5 148.263 Q 264.5 148.382 264.5 148.5 Q 264.587 151.624 264.616 154.629 Q 264.655 154.808 264.655 155.026 Q 264.576 155.953 264.655 157.037 Q 264.655 157.047 264.655 157.097 Q 264.734 158.658 264.774 160.139 Q 264.813 163.253 264.571 166.029 Q 264.634 171.355 263.179 172.111 Q 262.882 172.25 262.466 172.271 Q 262.426 172.271 262.387 172.271 Q 261.821 172.295 261.216 172.455 Q 260.497 172.65 259.195 171.229 Q 258.824 170.913 258.442 170.121 Q 256.671 167.029 255.595 157.753 Q 255.595 157.753 255.595 157.713 Q 255.516 156.571 255.497 155.616 Q 255.174 153.695 255.013 151.624 Q 254.587 150.384 254.25 149.126 Q 253.668 147.082 253.158 144.921 Q 253.087 144.626 253.016 144.332 Q 252.774 143.674 252.808 143.124 Q 252.797 143.045 252.826 143.005 Q 252.734 142.632 252.761 142.297 Q 252.224 142.329 251.687 142.153 Q 251.068 141.918 249.739 141.792 Q 247.908 141.834 241.229 141.618 Q 234.647 141.432 234.35 138.784 L 234.35 138.705" fill="#0066CC"/>
	</g>
</svg>
