<?xml version="1.0"?>
<!DOCTYPE svg PUBLIC "-//W3C//DTD SVG 1.1//EN" "http://www.w3.org/Graphics/SVG/1.1/DTD/svg11.dtd">
<svg version='1.1' width='9px' height='79px' xmlns='http://www.w3.org/2000/svg' xmlns:xlink='http://www.w3.org/1999/xlink'>
	<g transform="translate(-224.85,-108.325)">
		<path d="M 230.85 108.5 Q 232.05 108.5 232.8 109.25 L 233.425 118.4 Q 233.273 146.855 232.75 174.6 L 232.7 184.3 Q 232.63 184.635 232.45 184.95 Q 231.35 186.8 229.2 186.5 Q 227.71 186.382 226.2 185.9 Q 225.978 185.512 225.7 185.15 Q 225.6 185 225.6 184.9 Q 225.465 184.45 225.275 184.075 L 224.85 176.8 Q 224.929 172.735 225 166.05 Q 225.05 145.65 225.25 134.05 Q 225.354 124.673 225.35 120 Q 225.327 119.189 225.325 118.4 L 225.8 109.5 Q 226.65 108.45 227.8 108.5 Q 229.3 108.15 230.85 108.5 Z" fill="#0066CC"/>
	</g>
</svg>
