<?xml version="1.0"?>
<!DOCTYPE svg PUBLIC "-//W3C//DTD SVG 1.1//EN" "http://www.w3.org/Graphics/SVG/1.1/DTD/svg11.dtd">
<svg version='1.1' width='27px' height='46px' xmlns='http://www.w3.org/2000/svg' xmlns:xlink='http://www.w3.org/1999/xlink'>
	<g transform="translate(-189.144,-125.08)">
		<path d="M 189.156 129.025 Q 190.625 127.8 192.369 126.975 Q 192.419 126.925 192.469 126.875 Q 192.425 126.875 192.425 126.875 Q 194.5 125.85 196.719 125.413 Q 198.25 125.094 199.794 125.081 Q 201.269 125.069 202.619 125.263 Q 206.244 125.619 209 127.488 Q 209.106 127.581 209.213 127.669 Q 209.256 127.719 209.3 127.769 Q 209.65 127.975 209.956 128.188 Q 210.619 128.581 211.206 129.125 Q 211.263 129.162 211.319 129.2 Q 213.1 130.706 214.188 133.131 Q 214.475 133.938 214.719 134.825 Q 214.85 135.469 214.975 136.113 Q 215.406 138.581 215.425 141.588 Q 215.431 142.381 215.438 143.181 Q 215.45 145.45 215.475 147.813 Q 215.569 156.206 215.65 164.219 L 215.65 164.225 Q 215.644 165.169 215.669 166.131 Q 215.669 166.681 215.675 167.231 Q 215.681 167.775 215.681 168.319 Q 215.688 169.094 215.2 169.65 Q 214.675 170.206 213.963 170.281 Q 211.912 170.55 209.813 170.806 Q 208.744 170.931 207.631 171.019 Q 207.488 171.031 207.344 171.044 Q 206.531 171.094 205.975 170.631 Q 205.413 170.219 205.281 169.556 Q 205.275 169.512 205.269 169.469 Q 205.044 168.113 204.919 166.55 Q 204.844 165.713 204.8 164.85 Q 204.769 164.1 204.75 163.344 L 204.675 149.219 Q 204.669 147.738 204.663 146.244 Q 204.656 143.594 204.431 141.262 Q 204.431 141.219 204.431 141.219 Q 204.213 139.225 203.688 137.963 Q 203.688 137.963 203.688 137.919 Q 203.512 137.556 203.294 137.281 Q 202.856 136.725 202.281 136.438 Q 202.238 136.388 202.194 136.381 Q 201.444 135.906 200.388 135.65 Q 199.85 135.5 199.231 135.475 Q 199.181 135.469 199.131 135.469 Q 196.963 135.35 194.631 136.369 Q 192.281 137.294 190.063 138.844 Q 189.981 138.294 189.9 137.75 Q 189.738 136.581 189.588 135.406 L 189.581 135.363 Q 189.325 133.825 189.231 132.138 L 189.231 132.131 Q 189.113 130.656 189.156 129.2 L 189.156 129.025" fill="#0066CC"/>
	</g>
</svg>
