<?xml version="1.0"?>
<!DOCTYPE svg PUBLIC "-//W3C//DTD SVG 1.1//EN" "http://www.w3.org/Graphics/SVG/1.1/DTD/svg11.dtd">
<svg version='1.1' width='27px' height='57px' xmlns='http://www.w3.org/2000/svg' xmlns:xlink='http://www.w3.org/1999/xlink'>
	<g transform="translate(-144.302,-119)">
		<path d="M 144.302 121.502 Q 144.302 121.183 144.383 120.902 Q 144.522 120.622 144.741 120.411 Q 144.761 120.361 144.811 120.311 Q 145.1 119.991 145.52 119.772 Q 145.67 119.702 145.82 119.652 Q 146.07 119.563 146.35 119.463 Q 146.75 119.324 147.18 119.243 Q 147.6 119.143 148.03 119.083 Q 148.43 119.041 148.811 119 Q 150.017 119.015 151.091 119.215 Q 151.352 119.283 151.593 119.35 Q 152.096 119.485 152.578 119.639 Q 155.035 120.578 157.404 121.85 Q 159.261 122.789 160.815 123.87 Q 161.957 124.626 162.926 125.474 Q 162.926 125.493 162.957 125.543 Q 164.109 126.472 165.17 127.583 Q 166.2 128.663 167.12 129.946 Q 167.12 129.965 167.15 129.985 Q 167.554 130.502 167.898 131.1 Q 168.859 132.674 169.504 134.511 Q 169.515 134.591 169.565 134.702 Q 169.596 134.802 169.626 134.922 Q 169.798 135.43 169.939 135.939 L 169.909 135.939 Q 170.828 139.272 170.926 143.396 L 170.965 145.704 Q 170.965 145.904 170.985 146.104 Q 171.043 149.013 171.102 151.941 Q 171.141 153.561 171.161 155.18 Q 171.161 155.48 171.18 155.78 Q 171.259 162.189 171.22 168.676 Q 171.22 169.796 171.161 170.935 Q 171.102 171.624 171.043 172.313 Q 171.004 172.713 170.863 173.102 Q 170.733 173.441 170.541 173.75 Q 170.139 174.328 169.604 174.683 Q 169.554 174.702 169.485 174.722 Q 168.965 174.82 168.446 174.937 Q 167.526 175.113 166.548 175.172 Q 165.728 175.23 164.928 175.113 Q 163.47 174.898 162.324 174.507 Q 162.324 174.507 162.324 174.507 Q 161.883 174.28 161.58 173.963 Q 161.428 173.813 161.307 173.633 Q 160.941 173.063 160.941 172.372 Q 160.961 170.583 160.98 168.843 Q 160.98 168.474 160.98 168.124 Q 161.039 165.685 161.078 163.265 Q 161.098 160.907 161.117 158.548 Q 161.117 157.109 161.137 155.67 Q 161.137 154.65 161.137 153.67 Q 161.137 148.241 161 142.813 Q 161 142.663 161 142.543 Q 160.9 141.202 160.617 140.104 Q 160.587 140.085 160.587 140.035 Q 160.243 138.976 159.657 138.222 Q 158.959 137.278 157.957 136.639 Q 157.926 136.609 157.926 136.609 Q 156.702 135.663 155.428 134.95 Q 154.276 134.109 152.861 133.48 Q 152.296 133.239 151.73 133.048 Q 151.7 133.028 151.7 133.009 Q 150.589 132.526 149.489 132.135 Q 148.309 131.696 147.159 131.367 Q 146.907 131.302 146.624 131.146 Q 146.483 131.067 146.311 130.989 Q 145.765 130.735 145.372 130.165 Q 144.948 129.498 144.85 128.698 Q 144.811 128.278 144.772 127.859 Q 144.635 126.189 144.478 124.559 Q 144.4 123.07 144.302 121.58 L 144.302 121.502" fill="#0066CC"/>
	</g>
</svg>
