<?xml version="1.0"?>
<!DOCTYPE svg PUBLIC "-//W3C//DTD SVG 1.1//EN" "http://www.w3.org/Graphics/SVG/1.1/DTD/svg11.dtd">
<svg version='1.1' width='37px' height='33px' xmlns='http://www.w3.org/2000/svg' xmlns:xlink='http://www.w3.org/1999/xlink'>
	<g transform="translate(-130.575,-139.775)">
		<path d="M 165.575 144.575 Q 167.063 145.658 166.95 147.95 Q 166.8 150.95 166.95 153.95 Q 167.1 156.85 166.25 159.45 Q 165.8 160.9 164.6 162 Q 163.6 162.9 162.65 163.85 Q 161.382 165.494 159.55 166.65 Q 159.106 167.062 158.625 167.4 Q 158.013 167.914 157.4 168.175 L 157.4 168.275 Q 156.224 169.111 155.125 169.675 L 155.075 169.7 Q 152.957 170.742 151.05 171.3 Q 149.087 171.867 145.525 171.85 Q 142.45 171.844 139.75 170.75 Q 137.05 169.66 134.95 167.625 L 134.925 167.625 Q 132.961 165.674 131.75 162.85 L 131.75 162.825 Q 130.572 159.956 130.575 156.8 Q 130.574 151.939 132.725 148.575 Q 132.752 148.551 132.775 148.525 Q 134.86 145.039 139.525 143 Q 139.563 142.988 139.6 142.975 Q 143.424 141.217 148.625 140.6 L 148.6 140.65 Q 152.699 140.102 157.3 139.775 Q 157.351 139.778 157.4 139.775 L 157.4 140.025 Q 157.733 140.066 158.05 140.125 Q 158.4 140.026 158.8 140 Q 159.195 140.033 159.55 140.1 Q 159.859 140.035 160.2 140 Q 164.35 140.1 165.45 144.15 Q 165.511 144.365 165.575 144.575 Z M 157.4 149.15 L 157.4 149.25 Q 157.367 149.253 157.325 149.25 Q 157.196 149.267 157.05 149.275 Q 155.297 149.442 153.1 149.65 Q 149.406 150.017 147.125 150.675 L 147.15 150.625 Q 144.756 151.372 143.175 152.85 Q 141.936 154.093 141.925 156.35 Q 141.936 158.964 143.35 160.35 L 143.3 160.35 Q 144.964 161.684 148.075 161.675 Q 150.966 161.685 153.3 160.5 L 153.25 160.5 Q 155.382 159.373 157.3 157.825 Q 157.33 157.804 157.35 157.775 Q 157.379 157.767 157.4 157.75 L 157.4 158.25 Q 157.425 158.22 157.45 158.2 Q 157.45 157.35 158.15 156.85 Q 158.25 154.4 158.2 151.9 Q 158.2 150.65 158.2 149.4 Q 157.763 149.322 157.4 149.15 Z" fill="#0066CC"/>
	</g>
</svg>
