<?xml version="1.0"?>
<!DOCTYPE svg PUBLIC "-//W3C//DTD SVG 1.1//EN" "http://www.w3.org/Graphics/SVG/1.1/DTD/svg11.dtd">
<svg version='1.1' width='14px' height='47px' xmlns='http://www.w3.org/2000/svg' xmlns:xlink='http://www.w3.org/1999/xlink'>
	<g transform="translate(-48.1294,-130.906)">
		<path d="M 48.1294 132.141 L 48.2294 132.159 Q 48.5059 132.053 48.7824 131.947 Q 48.7824 131.947 48.8 131.929 Q 51.3412 131.4 53.9176 130.906 Q 53.9676 130.906 54.0529 130.959 Q 54.5118 131.047 55.0588 131.241 Q 56.3382 131.524 57.7588 132.053 Q 58.3588 136.253 59.3824 141.109 Q 61.6235 153.321 61.6235 165.779 Q 61.6235 170.526 61.4471 174.656 Q 61.3794 175.35 60.9882 175.865 Q 60.5647 176.415 60.0265 176.574 Q 58.4735 177.297 56.7618 177.526 Q 55.2206 177.826 53.7853 177.191 Q 53.1971 177.05 52.7706 176.5 Q 52.3118 175.95 52.2412 175.185 Q 52.0824 173 51.9588 170.5 Q 51.5176 160.185 50.4765 150.329 Q 49.5059 141.818 48.3412 133.518 Q 48.2529 133.003 48.1647 132.488 Q 48.1471 132.338 48.1294 132.206 L 48.1294 132.141" fill="#0066CC"/>
	</g>
</svg>
