<?xml version="1.0"?>
<!DOCTYPE svg PUBLIC "-//W3C//DTD SVG 1.1//EN" "http://www.w3.org/Graphics/SVG/1.1/DTD/svg11.dtd">
<svg version='1.1' width='47px' height='45px' xmlns='http://www.w3.org/2000/svg' xmlns:xlink='http://www.w3.org/1999/xlink'>
	<g transform="translate(-126.078,-128.349)">
		<path d="M 126.153 152.724 Q 125.887 149.113 126.563 145.651 Q 127.001 143.465 127.932 141.528 Q 127.963 141.478 128.013 141.447 Q 128.625 140.065 129.499 138.813 Q 130.734 137.096 132.3 135.59 Q 133.928 133.929 135.937 132.654 Q 135.937 132.654 135.956 132.654 Q 135.956 132.654 135.956 132.654 Q 136.629 132.219 137.322 131.815 Q 138.581 131.075 139.94 130.466 Q 143.597 128.751 147.754 128.463 Q 147.735 128.482 147.735 128.482 Q 150.284 128.263 152.797 128.403 Q 155.869 128.524 158.813 129.393 Q 158.894 129.424 158.975 129.454 Q 159.099 129.554 159.222 129.674 Q 159.696 129.859 160.119 130.082 Q 160.238 130.094 160.376 130.125 Q 160.669 130.229 160.931 130.334 Q 161.424 130.569 161.897 130.804 Q 162.29 130.971 162.671 131.168 Q 164.701 132.206 166.156 133.897 Q 166.187 133.897 166.218 133.959 Q 167.772 135.8 168.631 138.19 Q 168.712 138.451 168.812 138.732 Q 169.307 139.541 169.626 140.476 Q 169.676 140.657 169.726 140.869 Q 169.776 140.969 169.826 141.069 Q 170.057 142.109 170.131 143.225 Q 170.204 144.191 170.235 145.126 Q 170.235 145.146 170.235 145.196 Q 170.235 145.326 170.266 145.457 Q 170.266 145.588 170.266 145.719 Q 170.328 145.726 170.421 145.765 Q 170.822 145.875 171.162 146.109 Q 171.193 146.116 171.224 146.185 Q 171.224 146.204 171.254 146.224 Q 171.471 146.319 171.656 146.446 Q 171.718 146.515 171.779 146.553 Q 172.088 146.594 172.428 146.79 Q 172.613 146.793 172.829 146.857 Q 172.86 146.876 172.86 146.896 Q 172.86 147.504 172.879 148.144 Q 172.918 150.8 172.734 153.379 Q 172.734 153.379 172.703 153.379 Q 172.263 153.613 171.916 153.785 Q 171.824 153.824 171.762 153.893 Q 171.588 153.931 171.446 153.969 Q 171.396 154.007 171.376 154.046 Q 171.315 154.034 171.253 154.053 Q 171.029 154.16 170.837 154.237 Q 170.756 154.225 170.706 154.244 Q 170.675 154.244 170.644 154.275 Q 170.563 154.294 170.513 154.313 Q 170.482 154.332 170.451 154.351 Q 170.451 154.382 170.451 154.382 Q 170.263 155.149 170.037 155.896 Q 169.86 156.4 169.634 156.904 Q 169.019 158.284 168.269 159.621 Q 168.069 159.975 167.869 160.299 Q 167.488 160.934 167.076 161.55 Q 166.046 163.094 164.753 164.45 Q 164.703 164.5 164.622 164.55 Q 164.584 164.55 164.584 164.55 Q 164.134 165.012 163.684 165.454 Q 162.941 166.171 162.187 166.779 Q 162.156 166.829 162.125 166.879 Q 160.524 168.204 158.794 169.237 Q 158.775 169.268 158.775 169.299 Q 158.744 169.299 158.713 169.299 Q 158.613 169.349 158.544 169.399 Q 156.247 170.688 153.86 171.485 Q 152.104 172.082 150.015 172.337 Q 148.401 172.56 146.693 172.56 Q 145.141 172.56 143.609 172.349 Q 141.534 172.025 139.571 171.351 Q 139.259 171.221 138.947 171.09 Q 137.215 170.404 135.663 169.469 Q 134.074 168.515 132.696 167.218 Q 132.696 167.218 132.696 167.218 Q 131.132 165.778 129.912 163.915 Q 129.862 163.834 129.843 163.784 Q 128.946 162.475 128.199 161.059 Q 128.199 161.059 128.199 161.059 Q 128.087 160.847 127.975 160.635 Q 127.894 160.585 127.894 160.535 Q 127.863 160.504 127.863 160.474 Q 127.24 158.679 126.866 156.897 Q 126.835 156.866 126.866 156.835 Q 126.381 155.022 126.184 153.171 Q 126.184 153.14 126.184 153.109 Q 126.153 152.947 126.153 152.785 L 126.153 152.724" fill="#0066CC"/>
		<path d="M 135.712 149.031 Q 135.835 147.999 136.151 146.985 Q 136.822 145.306 136.822 145.275 Q 137.369 144.135 138.074 143.184 Q 138.254 142.96 138.435 142.768 Q 138.647 142.432 138.921 142.159 Q 141.043 139.731 144.278 138.699 Q 147.11 137.824 150.122 137.524 Q 152.607 137.293 154.891 138.069 Q 155.284 138.224 155.657 138.409 Q 156.89 138.957 158.041 139.556 Q 158.757 139.938 159.381 140.382 Q 160.035 140.857 160.509 141.363 Q 160.721 141.591 160.901 141.838 Q 161.363 142.444 161.721 142.976 Q 161.937 143.724 162.06 144.532 Q 162.276 145.869 162.616 147.206 Q 162.678 147.499 162.74 147.791 Q 162.74 147.791 162.771 147.822 Q 162.771 147.872 162.801 147.922 Q 162.832 148.053 162.894 148.215 Q 162.894 148.265 162.925 148.315 Q 163.049 148.588 163.265 148.893 Q 163.265 148.893 163.296 148.924 Q 163.326 148.974 163.388 149.024 Q 163.326 149.124 163.296 149.224 Q 163.265 149.243 163.265 149.293 Q 163.172 149.647 163.141 150.001 Q 163.049 150.437 162.987 150.903 Q 162.956 150.922 162.956 150.972 Q 162.894 151.041 162.894 151.172 Q 162.863 151.334 162.832 151.526 Q 162.419 152.709 161.999 153.872 Q 161.875 154.165 161.701 154.426 Q 161.671 154.476 161.64 154.557 Q 161.454 155.009 161.238 155.46 Q 161.207 155.491 161.176 155.522 Q 160.353 156.628 159.674 157.768 L 159.654 157.818 Q 159.593 157.799 159.562 157.841 Q 159.376 157.981 159.191 158.09 Q 158.375 158.929 157.474 159.619 Q 155.571 161.006 153.463 162.076 Q 152.6 162.462 151.737 162.724 Q 151.725 162.724 151.694 162.724 Q 149.779 163.304 147.722 163.234 Q 145.037 163.121 142.634 162.163 Q 142.31 162.04 141.987 161.885 Q 141.956 161.854 141.894 161.854 Q 141.004 161.422 140.288 160.847 Q 140.238 160.785 140.188 160.754 Q 137.891 159.003 136.784 156.551 Q 136.803 156.521 136.803 156.49 Q 136.572 155.981 136.403 155.422 Q 136.084 154.478 135.915 153.484 Q 135.546 151.384 135.712 149.138 Q 135.712 149.107 135.712 149.107 L 135.712 149.031" fill="#0066CC"/>
	</g>
</svg>
