<?xml version="1.0"?>
<!DOCTYPE svg PUBLIC "-//W3C//DTD SVG 1.1//EN" "http://www.w3.org/Graphics/SVG/1.1/DTD/svg11.dtd">
<svg version='1.1' width='11px' height='82px' xmlns='http://www.w3.org/2000/svg' xmlns:xlink='http://www.w3.org/1999/xlink'>
	<g transform="translate(-176.55,-108.508)">
		<path d="M 184.325 108.575 Q 184.662 108.623 185 108.775 L 185.025 108.775 Q 185.375 108.925 185.725 109.175 Q 186.125 109.425 186.475 109.775 Q 186.725 109.975 186.975 110.275 Q 187.025 110.575 187.075 110.925 Q 186.925 112.775 186.825 114.625 Q 186.575 116.425 186.375 118.275 Q 185.647 123.146 185 128.075 Q 184.624 130.941 184.275 133.825 Q 183.063 148.975 183.8 163.975 Q 183.86 165.075 183.925 166.175 Q 184.03 167.825 184.15 169.475 Q 184.3 172.175 184.5 174.875 Q 184.7 177.575 184.95 180.325 Q 184.975 180.719 185 181.125 Q 185.181 183.925 185.4 186.775 Q 185.264 187.379 185 187.9 Q 184.391 189.077 183.1 189.775 Q 182.4 190.175 181.65 190.075 Q 180.7 189.975 179.85 189.525 Q 179.25 189.225 178.75 188.875 Q 178.4 187.675 178.05 186.475 Q 177.8 185.175 177.55 183.925 Q 177.35 182.625 177.3 181.325 Q 176.8 173.989 176.65 166.8 Q 176.655 166.487 176.65 166.175 Q 176.61 164.32 176.6 162.475 Q 176.577 159.137 176.55 155.8 Q 176.551 155.6 176.55 155.4 L 176.55 142.9 Q 176.554 142.746 176.55 142.6 Q 176.551 142.562 176.55 142.525 Q 176.62 140.258 176.725 138 Q 176.871 135.168 177.075 132.35 Q 177.357 128.455 177.775 124.575 Q 178.575 118.025 180.275 111.975 Q 180.575 111.075 181.025 110.225 Q 181.675 109.175 182.925 108.675 Q 183.225 108.575 183.575 108.525 Q 183.925 108.475 184.325 108.575 Z" fill="#0066CC"/>
	</g>
</svg>
