<?xml version="1.0"?>
<!DOCTYPE svg PUBLIC "-//W3C//DTD SVG 1.1//EN" "http://www.w3.org/Graphics/SVG/1.1/DTD/svg11.dtd">
<svg version='1.1' width='38px' height='49px' xmlns='http://www.w3.org/2000/svg' xmlns:xlink='http://www.w3.org/1999/xlink'>
	<g transform="translate(-76.2,-127.627)">
		<path d="M 76.2 136.247 Q 76.3 135.347 76.6026 134.6 Q 76.6868 134.35 76.8053 134.134 Q 76.8053 134.084 76.8395 134.068 Q 77.5395 132.289 78.9553 131.429 Q 79.6342 131.142 80.4158 130.992 Q 80.6474 130.942 80.9132 130.926 Q 83.6105 130.837 86.6237 130.853 Q 86.6579 130.853 86.6921 130.837 Q 87.4395 130.858 88.2211 130.879 L 88.2553 130.879 L 93.7132 130.805 Q 93.7658 130.821 93.85 130.837 Q 94.0658 130.805 94.2816 130.808 Q 94.3316 130.808 94.3816 130.842 Q 100.034 129.866 104.639 128.274 Q 105.103 127.905 105.805 127.776 Q 106.368 127.529 107.292 127.692 Q 108.568 127.595 109.847 128.474 Q 109.863 128.474 109.879 128.508 Q 110.176 128.668 110.474 128.847 Q 111.032 129.153 111.508 129.682 Q 112.279 130.484 112.853 131.929 Q 113.05 132.411 113.197 132.892 Q 113.263 133.092 113.329 133.326 Q 113.532 134.939 113.695 136.924 Q 113.695 137.024 113.695 137.124 Q 113.732 140.55 113.503 144.642 Q 113.411 146.105 113.368 147.637 Q 113.368 147.687 113.368 147.737 Q 113.197 150.395 113.161 153.376 Q 113.161 153.376 113.161 153.376 Q 113.103 155.437 113.111 157.6 Q 113.071 160.376 113.082 163.305 Q 113.108 165.766 113.184 168.329 Q 113.184 168.429 113.184 168.529 Q 112.939 172.658 111.087 174.597 Q 110.968 174.745 110.816 174.858 Q 110.663 174.971 110.511 175.05 Q 110.426 175.147 110.376 175.211 Q 109.987 175.503 109.55 175.576 Q 109.297 175.655 109.029 175.65 Q 108.345 175.737 107.668 175.511 Q 105.642 174.913 104.958 171.576 Q 104.874 171.258 104.824 170.939 Q 103.684 166.016 103.371 161.316 Q 103.232 159.153 103.211 157.089 Q 103.211 157.089 103.211 157.055 Q 102.871 147.847 103.547 140.895 Q 103.358 140.545 103.187 140.213 Q 99.7237 141.063 95.8421 141.647 Q 95.7263 141.697 95.6105 141.713 Q 93.8474 142.092 92.0526 142.455 Q 91.9684 142.471 91.9158 142.487 L 89.1526 143.211 Q 89.1026 143.211 89.0526 143.245 Q 86.9026 143.684 84.9921 143.747 Q 84.9921 143.747 84.9921 143.763 Q 78.5842 143.887 76.3605 136.942 Q 76.2447 136.642 76.2316 136.342 L 76.2 136.247" fill="#0066CC"/>
	</g>
</svg>
