<?xml version="1.0"?>
<!DOCTYPE svg PUBLIC "-//W3C//DTD SVG 1.1//EN" "http://www.w3.org/Graphics/SVG/1.1/DTD/svg11.dtd">
<svg version='1.1' width='29px' height='54px' xmlns='http://www.w3.org/2000/svg' xmlns:xlink='http://www.w3.org/1999/xlink'>
	<g transform="translate(-142.024,-120.492)">
		<path d="M 142.024 123.024 Q 142.024 122.709 142.109 122.424 Q 142.239 122.139 142.454 121.92 Q 142.47 121.87 142.52 121.82 Q 142.8 121.504 143.215 121.289 Q 143.365 121.224 143.515 121.174 Q 143.765 121.093 144.05 120.993 Q 144.45 120.863 144.885 120.778 Q 145.3 120.678 145.735 120.609 Q 146.135 120.554 146.52 120.5 Q 147.691 120.467 148.804 120.567 Q 149.074 120.609 149.328 120.65 Q 149.852 120.733 150.361 120.83 Q 152.983 121.461 155.548 122.45 Q 157.57 123.18 159.267 124.065 Q 160.522 124.687 161.587 125.413 Q 161.587 125.428 161.622 125.478 Q 162.896 126.289 164.065 127.309 Q 165.2 128.293 166.215 129.502 Q 166.215 129.517 166.25 129.533 Q 166.698 130.024 167.076 130.6 Q 168.146 132.113 168.848 133.92 Q 168.867 134.004 168.917 134.124 Q 168.952 134.224 168.987 134.339 Q 169.176 134.835 169.33 135.33 L 169.296 135.33 Q 170.311 138.589 170.387 142.752 L 170.417 145.048 Q 170.417 145.248 170.433 145.448 Q 170.478 148.343 170.524 151.254 Q 170.554 152.87 170.57 154.485 Q 170.57 154.785 170.585 155.085 Q 170.646 161.48 170.615 167.937 Q 170.615 169.052 170.57 170.183 Q 170.524 170.863 170.478 171.543 Q 170.448 171.943 170.293 172.324 Q 170.159 172.654 169.954 172.95 Q 169.53 173.511 168.948 173.809 Q 168.898 173.824 168.833 173.839 Q 168.317 173.915 167.802 174.007 Q 166.887 174.143 165.926 174.189 Q 165.111 174.235 164.311 174.143 Q 162.865 173.976 161.663 173.672 Q 161.663 173.672 161.663 173.672 Q 161.209 173.485 160.885 173.193 Q 160.711 173.043 160.572 172.859 Q 160.154 172.293 160.154 171.589 Q 160.17 169.809 160.185 168.078 Q 160.185 167.713 160.185 167.363 Q 160.23 164.933 160.261 162.517 Q 160.276 160.172 160.291 157.826 Q 160.291 156.396 160.307 154.965 Q 160.307 153.95 160.307 152.965 Q 160.307 147.554 160.2 142.143 Q 160.2 141.993 160.2 141.878 Q 160.1 140.524 159.791 139.448 Q 159.757 139.433 159.757 139.383 Q 159.378 138.337 158.722 137.639 Q 157.946 136.761 156.822 136.23 Q 156.787 136.196 156.787 136.196 Q 155.424 135.393 154.011 134.85 Q 152.737 134.196 151.17 133.785 Q 150.552 133.63 149.935 133.526 Q 149.9 133.511 149.9 133.496 Q 148.68 133.187 147.48 132.983 Q 146.196 132.752 144.946 132.641 Q 144.672 132.624 144.363 132.502 Q 144.209 132.441 144.02 132.38 Q 143.417 132.183 142.989 131.617 Q 142.526 130.976 142.45 130.176 Q 142.42 129.761 142.389 129.346 Q 142.283 127.68 142.161 126.046 Q 142.1 124.565 142.024 123.085 L 142.024 123.024" fill="#0066CC"/>
	</g>
</svg>
