<?xml version="1.0"?>
<!DOCTYPE svg PUBLIC "-//W3C//DTD SVG 1.1//EN" "http://www.w3.org/Graphics/SVG/1.1/DTD/svg11.dtd">
<svg version='1.1' width='32px' height='48px' xmlns='http://www.w3.org/2000/svg' xmlns:xlink='http://www.w3.org/1999/xlink'>
	<g transform="translate(-232.603,-129.652)">
		<path d="M 232.603 137.537 Q 232.743 134.78 232.743 134.45 Q 232.697 133.567 232.93 132.917 Q 233.4 130.283 236.387 129.983 Q 236.48 129.977 236.573 129.97 Q 237.367 130.01 238.113 130.05 Q 240.19 130.16 242.173 130.153 Q 242.217 130.153 242.263 130.153 Q 246.42 130.227 250.18 129.9 Q 250.577 129.853 250.973 129.807 Q 250.977 129.807 251.023 129.807 Q 251.277 129.76 251.577 129.713 Q 254.09 129.493 256.757 130.063 Q 256.757 130.063 256.803 130.063 Q 257.647 130.223 258.58 130.577 Q 258.583 130.577 258.633 130.577 Q 258.633 130.577 258.633 130.577 Q 259.18 130.64 259.677 130.94 Q 259.63 130.893 259.63 130.893 Q 261.5 131.66 262.283 133.387 Q 262.807 134.477 262.947 135.957 Q 262.947 135.957 262.947 136.003 Q 263.05 139.407 263.507 143.25 Q 263.507 143.25 263.507 143.3 Q 263.66 144.74 263.617 146.233 Q 263.617 146.383 263.57 146.533 Q 263.573 147.04 263.62 147.547 Q 263.713 149.29 263.807 151.033 Q 263.947 154.62 263.993 158.067 Q 264.04 158.267 264.04 158.513 Q 263.947 159.52 264.04 160.713 L 264.04 160.763 Q 264.32 166.067 264.04 170.623 Q 264.133 173.77 263.807 175.47 Q 263.667 176.177 263.397 176.633 Q 263.087 177.173 262.677 177.273 Q 262.57 177.323 262.417 177.37 Q 262.11 177.417 261.713 177.417 Q 261.067 177.37 260.373 177.51 Q 259.583 177.603 258.14 175.923 Q 257.59 175.363 257.04 173.543 Q 256.797 172.937 256.573 172.153 Q 256.397 171.37 256.21 170.43 Q 255.557 166.637 254.857 160.697 L 254.857 160.65 Q 254.763 159.367 254.717 158.317 Q 253.97 154.67 253.503 150.65 Q 253.177 147.807 252.897 144.87 Q 252.85 144.527 252.803 144.183 Q 252.617 143.287 252.753 142.53 Q 252.753 142.43 252.8 142.377 Q 252.75 141.877 252.84 141.427 Q 252.277 141.39 251.713 141.123 Q 251.527 141.01 251.197 140.897 Q 251.197 140.893 251.197 140.893 Q 250.537 140.66 249.643 140.48 Q 249.02 140.31 247.407 140.21 Q 247.407 140.21 247.407 140.207 Q 246.48 140.093 245.2 140.067 Q 245.15 140.063 245.1 140.063 Q 243.617 139.977 241.613 139.93 Q 240.97 139.93 240.327 139.933 Q 238.3 139.95 236.777 139.823 Q 232.747 139.383 232.603 137.723 L 232.603 137.537" fill="#0066CC"/>
	</g>
</svg>
