<?xml version="1.0"?>
<!DOCTYPE svg PUBLIC "-//W3C//DTD SVG 1.1//EN" "http://www.w3.org/Graphics/SVG/1.1/DTD/svg11.dtd">
<svg version='1.1' width='28px' height='30px' xmlns='http://www.w3.org/2000/svg' xmlns:xlink='http://www.w3.org/1999/xlink'>
	<g transform="translate(-237.5,-133.621)">
		<path d="M 237.5 140.989 Q 237.579 140.145 237.687 139.539 Q 237.766 138.995 237.853 138.787 Q 237.947 138.205 238.197 137.758 Q 238.663 136.553 239.921 136.039 Q 240.447 135.876 241.058 135.797 Q 241.129 135.797 241.2 135.797 Q 246.789 135.589 251.603 134.434 Q 251.632 134.434 251.682 134.434 Q 251.903 134.355 252.145 134.276 Q 254.037 133.824 255.984 133.621 Q 255.984 133.621 256.005 133.621 Q 256.466 133.626 256.968 133.674 Q 257.039 133.666 257.111 133.658 Q 257.111 133.658 257.132 133.658 Q 257.132 133.658 257.132 133.658 Q 257.537 133.592 257.921 133.661 Q 257.9 133.639 257.9 133.639 Q 260.111 133.739 261.15 135.15 Q 261.179 135.15 261.208 135.171 Q 262.105 136.068 263.158 137.216 Q 263.439 137.503 263.713 137.839 Q 263.742 137.839 263.771 137.861 Q 264.384 138.5 264.682 139.392 Q 264.711 139.484 264.718 139.576 Q 265.224 140.958 265.2 142.774 Q 265.2 142.837 265.2 142.9 Q 265.176 145.453 265.168 147.942 Q 265.189 148.084 265.189 148.247 Q 265.147 149.045 265.189 149.926 Q 265.189 149.955 265.189 150.005 Q 265.232 151.234 265.253 152.421 Q 265.274 154.945 264.958 157.242 Q 264.782 161.039 263.492 162.329 Q 263.287 162.45 263.018 162.508 Q 262.997 162.508 262.976 162.508 Q 262.558 162.661 262.118 162.839 Q 261.455 163.2 260.411 162.442 Q 260.003 162.274 259.566 161.758 Q 256.708 159.292 256.111 152.595 Q 256.111 152.595 256.111 152.574 Q 256.068 151.708 256.105 150.918 Q 256.003 149.311 256.174 147.553 Q 255.526 147.032 254.95 146.547 Q 253.963 145.737 253.084 144.958 Q 252.976 144.847 252.868 144.737 Q 252.553 144.503 252.384 144.303 Q 252.355 144.261 252.347 144.239 Q 252.182 144.087 252.079 143.955 Q 251.653 144.042 251.226 143.995 Q 250.663 143.963 249.721 143.966 Q 247.484 144.432 242.942 144.013 Q 238.405 143.587 237.5 141.032 L 237.5 140.989" fill="#0066CC"/>
	</g>
</svg>
