<?xml version="1.0"?>
<!DOCTYPE svg PUBLIC "-//W3C//DTD SVG 1.1//EN" "http://www.w3.org/Graphics/SVG/1.1/DTD/svg11.dtd">
<svg version='1.1' width='31px' height='52px' xmlns='http://www.w3.org/2000/svg' xmlns:xlink='http://www.w3.org/1999/xlink'>
	<g transform="translate(-139.746,-121.92)">
		<path d="M 139.746 124.546 Q 139.746 124.235 139.835 123.946 Q 139.957 123.657 140.167 123.428 Q 140.178 123.378 140.228 123.328 Q 140.5 123.017 140.911 122.807 Q 141.061 122.746 141.211 122.696 Q 141.461 122.624 141.75 122.524 Q 142.15 122.402 142.589 122.313 Q 143 122.213 143.439 122.135 Q 143.839 122.067 144.228 122 Q 145.365 121.92 146.517 121.92 Q 146.796 121.935 147.063 121.95 Q 147.609 121.98 148.143 122.022 Q 150.93 122.343 153.691 123.05 Q 155.878 123.572 157.72 124.261 Q 159.087 124.748 160.248 125.352 Q 160.248 125.363 160.287 125.413 Q 161.683 126.107 162.961 127.035 Q 164.2 127.924 165.311 129.059 Q 165.311 129.07 165.35 129.08 Q 165.841 129.546 166.254 130.1 Q 167.433 131.552 168.191 133.328 Q 168.22 133.417 168.27 133.546 Q 168.309 133.646 168.348 133.757 Q 168.554 134.239 168.722 134.722 L 168.683 134.722 Q 169.793 137.907 169.848 142.109 L 169.87 144.391 Q 169.87 144.591 169.88 144.791 Q 169.913 147.674 169.946 150.567 Q 169.967 152.178 169.978 153.789 Q 169.978 154.089 169.989 154.389 Q 170.033 160.772 170.011 167.198 Q 170.011 168.309 169.978 169.43 Q 169.946 170.102 169.913 170.774 Q 169.891 171.174 169.724 171.546 Q 169.585 171.867 169.367 172.15 Q 168.922 172.693 168.291 172.935 Q 168.241 172.946 168.18 172.957 Q 167.67 173.011 167.159 173.076 Q 166.248 173.174 165.304 173.207 Q 164.493 173.239 163.693 173.174 Q 162.261 173.054 161.002 172.837 Q 161.002 172.837 161.002 172.837 Q 160.535 172.689 160.189 172.424 Q 159.993 172.274 159.837 172.085 Q 159.367 171.524 159.367 170.807 Q 159.378 169.035 159.389 167.313 Q 159.389 166.952 159.389 166.602 Q 159.422 164.18 159.443 161.77 Q 159.454 159.437 159.465 157.104 Q 159.465 155.683 159.476 154.261 Q 159.476 153.25 159.476 152.261 Q 159.476 146.867 159.4 141.474 Q 159.4 141.324 159.4 141.213 Q 159.3 139.846 158.965 138.791 Q 158.926 138.78 158.926 138.73 Q 158.513 137.698 157.787 137.057 Q 156.933 136.243 155.687 135.822 Q 155.648 135.783 155.648 135.783 Q 154.146 135.124 152.593 134.75 Q 151.198 134.283 149.478 134.089 Q 148.809 134.022 148.139 134.004 Q 148.1 133.993 148.1 133.983 Q 146.772 133.848 145.472 133.83 Q 144.083 133.809 142.733 133.915 Q 142.437 133.946 142.102 133.859 Q 141.935 133.815 141.728 133.772 Q 141.07 133.63 140.607 133.07 Q 140.104 132.454 140.05 131.654 Q 140.028 131.243 140.007 130.833 Q 139.93 129.172 139.843 127.533 Q 139.8 126.061 139.746 124.589 L 139.746 124.546" fill="#0066CC"/>
	</g>
</svg>
