<?xml version="1.0"?>
<!DOCTYPE svg PUBLIC "-//W3C//DTD SVG 1.1//EN" "http://www.w3.org/Graphics/SVG/1.1/DTD/svg11.dtd">
<svg version='1.1' width='50px' height='48px' xmlns='http://www.w3.org/2000/svg' xmlns:xlink='http://www.w3.org/1999/xlink'>
	<g transform="translate(-124.99,-125.482)">
		<path d="M 125.094 151.753 Q 124.776 147.974 125.424 144.247 Q 125.847 141.921 126.785 139.844 Q 126.824 139.794 126.874 139.756 Q 127.5 138.271 128.403 136.924 Q 129.682 135.059 131.3 133.421 Q 132.994 131.591 135.076 130.191 Q 135.076 130.191 135.088 130.191 Q 135.088 130.191 135.088 130.191 Q 135.791 129.712 136.506 129.271 Q 137.838 128.45 139.271 127.768 Q 143.156 125.847 147.541 125.574 Q 147.529 125.585 147.529 125.585 Q 150.232 125.374 152.856 125.594 Q 156.112 125.803 159.174 126.915 Q 159.262 126.953 159.35 126.991 Q 159.503 127.091 159.656 127.203 Q 160.159 127.432 160.612 127.685 Q 160.724 127.712 160.847 127.75 Q 161.162 127.891 161.438 128.032 Q 161.953 128.312 162.456 128.591 Q 162.871 128.809 163.259 129.065 Q 165.297 130.338 166.788 132.206 Q 166.826 132.206 166.865 132.282 Q 168.456 134.3 169.388 136.771 Q 169.476 137.047 169.576 137.335 Q 170.035 138.218 170.347 139.197 Q 170.397 139.385 170.447 139.612 Q 170.497 139.712 170.547 139.812 Q 170.785 140.932 170.888 142.1 Q 170.991 143.118 171.029 144.097 Q 171.029 144.109 171.029 144.159 Q 171.029 144.297 171.068 144.435 Q 171.068 144.574 171.068 144.712 Q 171.144 144.697 171.259 144.721 Q 171.756 144.75 172.176 144.932 Q 172.215 144.918 172.253 144.979 Q 172.253 144.991 172.291 145.003 Q 172.559 145.062 172.788 145.159 Q 172.865 145.221 172.941 145.244 Q 173.324 145.212 173.744 145.371 Q 173.974 145.315 174.241 145.335 Q 174.279 145.347 174.279 145.359 Q 174.279 146.041 174.291 146.762 Q 174.315 149.55 174.182 152.291 Q 174.182 152.291 174.144 152.291 Q 173.624 152.474 173.218 152.579 Q 173.103 152.603 173.026 152.665 Q 172.824 152.688 172.659 152.712 Q 172.609 152.735 172.597 152.759 Q 172.521 152.732 172.444 152.744 Q 172.191 152.829 171.976 152.876 Q 171.888 152.85 171.838 152.862 Q 171.8 152.862 171.762 152.9 Q 171.674 152.912 171.624 152.924 Q 171.585 152.935 171.547 152.947 Q 171.547 152.985 171.547 152.985 Q 171.374 153.803 171.176 154.609 Q 171.029 155.15 170.832 155.691 Q 170.262 157.232 169.512 158.709 Q 169.312 159.1 169.112 159.453 Q 168.724 160.132 168.297 160.8 Q 167.259 162.462 165.944 163.95 Q 165.894 164 165.806 164.05 Q 165.782 164.05 165.782 164.05 Q 165.332 164.526 164.882 164.991 Q 164.118 165.759 163.326 166.441 Q 163.288 166.491 163.25 166.541 Q 161.553 167.991 159.662 169.126 Q 159.65 169.165 159.65 169.203 Q 159.612 169.203 159.574 169.203 Q 159.474 169.253 159.412 169.303 Q 157.056 170.674 154.529 171.529 Q 152.641 172.185 150.471 172.476 Q 148.747 172.729 146.965 172.729 Q 145.318 172.729 143.682 172.503 Q 141.482 172.15 139.409 171.447 Q 139.082 171.309 138.756 171.171 Q 136.921 170.441 135.274 169.462 Q 133.603 168.471 132.159 167.115 Q 132.159 167.115 132.159 167.115 Q 130.485 165.594 129.176 163.621 Q 129.126 163.532 129.115 163.482 Q 128.159 162.1 127.353 160.632 Q 127.353 160.632 127.353 160.632 Q 127.226 160.406 127.1 160.179 Q 127.012 160.129 127.012 160.079 Q 126.974 160.041 126.974 160.003 Q 126.321 158.091 125.918 156.206 Q 125.879 156.168 125.918 156.129 Q 125.388 154.206 125.132 152.259 Q 125.132 152.221 125.132 152.182 Q 125.094 152.006 125.094 151.829 L 125.094 151.753" fill="#0066CC"/>
		<path d="M 134.226 147.288 Q 134.379 146.153 134.747 145.029 Q 135.506 143.188 135.506 143.15 Q 136.112 141.929 136.853 140.882 Q 137.041 140.629 137.229 140.415 Q 137.456 140.035 137.759 139.732 Q 140.065 136.988 143.594 135.853 Q 146.779 134.853 150.056 134.553 Q 152.835 134.315 155.318 135.312 Q 155.732 135.503 156.135 135.732 Q 157.471 136.435 158.718 137.188 Q 159.485 137.674 160.138 138.235 Q 160.829 138.835 161.332 139.474 Q 161.559 139.768 161.747 140.074 Q 162.224 140.812 162.559 141.447 Q 162.826 142.253 162.979 143.135 Q 163.247 144.612 163.668 146.088 Q 163.744 146.403 163.821 146.718 Q 163.821 146.718 163.859 146.756 Q 163.859 146.806 163.897 146.856 Q 163.935 146.994 164.012 147.171 Q 164.012 147.221 164.05 147.271 Q 164.203 147.574 164.471 147.915 Q 164.471 147.915 164.509 147.953 Q 164.547 148.003 164.624 148.053 Q 164.547 148.153 164.509 148.253 Q 164.471 148.265 164.471 148.315 Q 164.356 148.706 164.318 149.097 Q 164.203 149.576 164.126 150.094 Q 164.088 150.106 164.088 150.156 Q 164.012 150.218 164.012 150.356 Q 163.974 150.532 163.935 150.747 Q 163.412 152.032 162.903 153.306 Q 162.75 153.621 162.547 153.897 Q 162.509 153.947 162.471 154.035 Q 162.241 154.582 161.974 155.129 Q 161.935 155.168 161.897 155.206 Q 161.044 156.444 160.203 157.665 L 160.191 157.715 Q 160.115 157.703 160.076 157.768 Q 159.847 157.988 159.618 158.171 Q 158.75 159.091 157.753 159.862 Q 155.659 161.388 153.324 162.547 Q 152.35 162.976 151.376 163.253 Q 151.35 163.253 151.312 163.253 Q 149.191 163.841 146.906 163.682 Q 143.926 163.459 141.332 162.274 Q 140.979 162.121 140.626 161.929 Q 140.588 161.891 140.512 161.891 Q 139.541 161.356 138.774 160.656 Q 138.724 160.579 138.674 160.541 Q 136.318 158.444 135.232 155.647 Q 135.244 155.609 135.244 155.571 Q 135.006 154.988 134.844 154.356 Q 134.532 153.294 134.371 152.182 Q 134.009 149.832 134.226 147.374 Q 134.226 147.335 134.226 147.335 L 134.226 147.288" fill="#0066CC"/>
	</g>
</svg>
