<?xml version="1.0"?>
<!DOCTYPE svg PUBLIC "-//W3C//DTD SVG 1.1//EN" "http://www.w3.org/Graphics/SVG/1.1/DTD/svg11.dtd">
<svg version='1.1' width='15px' height='46px' xmlns='http://www.w3.org/2000/svg' xmlns:xlink='http://www.w3.org/1999/xlink'>
	<g transform="translate(-48.35,-134.325)">
		<path d="M 48.35 136.075 L 48.45 136.1 Q 48.675 135.95 48.9 135.8 Q 48.9 135.8 48.925 135.775 Q 51.275 135.025 53.675 134.325 Q 53.725 134.325 53.825 134.4 Q 54.225 134.525 54.75 134.8 Q 55.875 135.2 57.2 135.95 Q 58.05 139.775 59.5 144.55 Q 62.675 156.225 62.675 168.25 Q 62.675 172.975 62.425 176.825 Q 62.35 177.475 62.025 177.975 Q 61.675 178.525 61.225 178.75 Q 59.9 179.775 58.35 180.1 Q 56.875 180.525 55.55 179.625 Q 55.05 179.425 54.675 178.875 Q 54.275 178.325 54.175 177.575 Q 53.95 175.5 53.775 173 Q 53.15 162.95 51.675 153.55 Q 50.3 145.325 48.65 137.4 Q 48.525 136.9 48.4 136.4 Q 48.375 136.25 48.35 136.125 L 48.35 136.075" fill="#0066CC"/>
	</g>
</svg>
