<?xml version="1.0"?>
<!DOCTYPE svg PUBLIC "-//W3C//DTD SVG 1.1//EN" "http://www.w3.org/Graphics/SVG/1.1/DTD/svg11.dtd">
<svg version='1.1' width='28px' height='55px' xmlns='http://www.w3.org/2000/svg' xmlns:xlink='http://www.w3.org/1999/xlink'>
	<g transform="translate(-191.58,-119.99)">
		<path d="M 191.603 127.87 Q 191.383 125.56 193.27 124.21 Q 194.313 123.513 195.707 123.153 Q 196.963 122.933 198.25 122.817 Q 201.46 122.527 204.733 123.133 Q 205.127 123.153 205.497 123.173 Q 206.11 122.393 206.72 121.743 Q 207.3 121.14 208.18 120.877 Q 209.01 120.587 210.143 120.587 Q 210.317 120.59 210.49 120.567 Q 210.537 120.593 210.583 120.62 Q 211.003 120.52 211.47 120.47 Q 212.337 120.237 213.327 120.13 Q 214.05 119.997 214.793 119.99 Q 216.557 119.977 217.1 120.777 Q 217.42 120.933 217.647 122.103 Q 217.707 123 217.767 124.08 Q 217.743 124.75 217.693 125.49 Q 217.67 125.91 217.647 126.357 Q 217.507 129.307 217.59 133.46 Q 217.62 135.86 217.75 138.73 Q 217.857 141.513 218.01 144.397 Q 218.397 151.533 218.73 157 Q 218.73 157.023 218.73 157.073 Q 218.727 158.137 218.857 159.257 Q 218.857 159.9 218.883 160.543 Q 218.987 162.477 218.877 164.29 Q 218.763 166.98 218.16 169.24 Q 217.847 170.543 217.3 171.523 Q 216.623 172.91 215.7 173.473 Q 215.547 173.59 215.37 173.707 Q 213.823 174.947 212.33 174.437 Q 211.52 174.153 210.75 173.53 Q 210.173 173.037 209.58 172.377 Q 209.133 171.767 208.64 171.087 Q 208.743 166.237 208.52 158.68 Q 208.47 157.713 208.443 156.723 Q 208.267 150.63 208.313 142.843 Q 208.313 141.973 208.287 141.13 Q 208.287 141.007 208.287 140.86 Q 208.26 139.97 208.233 139.103 Q 208.18 138.2 207.913 137.723 Q 206.663 135.527 205.253 133.837 Q 204.963 133.46 204.623 133.133 Q 204.417 132.923 204.137 132.737 Q 203.937 132.597 203.713 132.503 Q 203.367 132.32 202.973 132.207 Q 202.107 132.027 201.24 131.967 Q 200.993 131.947 200.747 131.927 Q 200.27 131.933 199.793 131.94 Q 198.307 131.783 196.873 131.6 L 196.847 131.6 Q 195.477 131.387 194.423 130.957 Q 193.81 130.68 193.277 130.323 Q 193.277 130.297 193.277 130.297 Q 192.717 129.94 192.333 129.513 Q 191.847 128.887 191.647 128.237 Q 191.6 128.063 191.603 127.917 L 191.603 127.87" fill="#0066CC"/>
	</g>
</svg>
