<?xml version="1.0"?>
<!DOCTYPE svg PUBLIC "-//W3C//DTD SVG 1.1//EN" "http://www.w3.org/Graphics/SVG/1.1/DTD/svg11.dtd">
<svg version='1.1' width='16px' height='45px' xmlns='http://www.w3.org/2000/svg' xmlns:xlink='http://www.w3.org/1999/xlink'>
	<g transform="translate(-48.6588,-139.112)">
		<path d="M 48.6588 141.582 L 48.7588 141.618 Q 48.9118 141.406 49.0647 141.194 Q 49.0647 141.194 49.1 141.159 Q 51.1824 140.1 53.3353 139.112 Q 53.3853 139.112 53.5059 139.218 Q 53.8235 139.394 54.3176 139.782 Q 55.2265 140.347 56.4176 141.406 Q 57.6176 144.706 59.6647 149.368 Q 64.1471 160.291 64.1471 171.709 Q 64.1471 176.403 63.7941 179.862 Q 63.7088 180.45 63.4765 180.929 Q 63.2294 181.479 62.9029 181.797 Q 61.8971 183.244 60.5735 183.703 Q 59.1912 184.303 58.0206 183.032 Q 57.6441 182.75 57.3412 182.2 Q 57.0235 181.65 56.8824 180.921 Q 56.5647 179 56.3176 176.5 Q 55.4353 166.821 53.3529 158.059 Q 51.4118 150.235 49.0824 142.835 Q 48.9059 142.356 48.7294 141.876 Q 48.6941 141.726 48.6588 141.612 L 48.6588 141.582" fill="#0066CC"/>
	</g>
</svg>
