<?xml version="1.0"?>
<!DOCTYPE svg PUBLIC "-//W3C//DTD SVG 1.1//EN" "http://www.w3.org/Graphics/SVG/1.1/DTD/svg11.dtd">
<svg version='1.1' width='10px' height='76px' xmlns='http://www.w3.org/2000/svg' xmlns:xlink='http://www.w3.org/1999/xlink'>
	<g transform="translate(-80.4294,-109.363)">
		<path d="M 80.4294 123.909 Q 80.4294 123.147 80.5588 122.418 Q 80.6882 121.55 80.8882 120.824 Q 81.8 117.497 82.9912 114.018 Q 83.2559 113.176 83.4735 112.476 Q 83.5824 112.191 83.6559 111.929 Q 83.7176 111.618 83.7941 111.368 Q 84.2147 109.829 85.7441 109.515 Q 89.9118 108.406 89.4912 115.403 Q 89.0324 122.729 88.8412 128.029 Q 88.8029 129.271 88.7647 130.474 Q 88.7647 130.574 88.7647 130.635 Q 88.7265 134.788 88.7647 138.635 L 88.8412 138.659 Q 88.8029 139.235 88.8029 139.812 L 88.8412 139.797 Q 88.8412 141.753 88.8412 143.671 L 88.8029 143.694 Q 88.6882 154.071 88.7647 163.376 Q 88.7647 163.565 88.7647 163.753 Q 88.8029 167.079 88.9176 170.138 Q 88.9559 170.9 88.8647 171.603 Q 88.7618 172.344 88.6118 172.918 Q 88.3235 174.409 88.0853 175.785 Q 87.7941 177.888 87.2735 179.571 Q 87.0735 180.259 86.9059 180.741 Q 86.7 181.415 86.5471 181.915 Q 85.9353 184.541 84.0618 184.568 Q 80.6971 184.832 80.6206 177.794 Q 80.5824 171.591 80.6588 158.2 Q 80.6588 158.012 80.6588 157.824 Q 80.6971 148.306 80.7735 137.144 Q 80.6206 137.135 80.5059 137.126 L 80.4676 128.25 Q 80.4294 126.721 80.4294 125.153 Q 80.4294 124.55 80.4294 123.985 L 80.4294 123.909" fill="#0066CC"/>
	</g>
</svg>
