<?xml version="1.0"?>
<!DOCTYPE svg PUBLIC "-//W3C//DTD SVG 1.1//EN" "http://www.w3.org/Graphics/SVG/1.1/DTD/svg11.dtd">
<svg version='1.1' width='27px' height='24px' xmlns='http://www.w3.org/2000/svg' xmlns:xlink='http://www.w3.org/1999/xlink'>
	<g transform="translate(-239.3,-134.433)">
		<path d="M 239.3 142.295 Q 239.389 141.597 239.518 141.045 Q 239.608 140.647 239.726 140.418 Q 239.874 139.953 240.124 139.579 Q 240.632 138.626 241.711 138.145 Q 242.174 138.013 242.679 137.924 Q 242.739 137.924 242.8 137.924 Q 247.495 137.295 251.676 135.992 Q 251.716 135.992 251.766 135.992 Q 251.976 135.903 252.197 135.813 Q 253.868 135.287 255.542 134.811 Q 255.542 134.811 255.553 134.811 Q 255.908 134.763 256.284 134.737 Q 256.345 134.708 256.405 134.679 Q 256.405 134.679 256.416 134.679 Q 256.416 134.679 256.416 134.679 Q 256.768 134.571 257.111 134.555 Q 257.1 134.545 257.1 134.545 Q 259.005 134.245 260.35 134.75 Q 260.389 134.75 260.429 134.761 Q 261.653 134.984 262.979 135.458 Q 263.345 135.576 263.682 135.745 Q 263.721 135.745 263.761 135.755 Q 264.542 136.1 264.966 136.771 Q 265.005 136.842 265.034 136.913 Q 265.687 137.979 265.6 139.637 Q 265.6 139.668 265.6 139.7 Q 265.513 141.926 265.484 144.121 Q 265.495 144.242 265.495 144.374 Q 265.474 145.097 265.495 145.863 Q 265.495 145.903 265.495 145.953 Q 265.516 146.992 265.526 148.011 Q 265.537 150.197 265.179 152.221 Q 264.866 155.145 263.671 156.739 Q 263.518 156.85 263.334 156.929 Q 263.324 156.929 263.313 156.929 Q 262.979 157.155 262.634 157.345 Q 262.003 157.8 261.105 157.421 Q 260.676 157.337 260.208 156.979 Q 256.729 154.871 256.405 149.647 Q 256.405 149.647 256.405 149.637 Q 256.384 148.929 256.453 148.234 Q 256.476 146.805 256.837 145.226 Q 256.063 145.116 255.35 145.074 Q 254.132 144.968 253.042 144.979 Q 252.913 144.974 252.784 144.968 Q 252.426 144.976 252.142 144.976 Q 252.103 144.955 252.074 144.945 Q 251.866 144.918 251.689 144.903 Q 251.326 145.021 250.963 145.047 Q 250.432 145.132 249.711 145.208 Q 247.242 145.916 243.921 145.382 Q 240.553 144.818 239.3 142.316 L 239.3 142.295" fill="#0066CC"/>
	</g>
</svg>
