<?xml version="1.0"?>
<!DOCTYPE svg PUBLIC "-//W3C//DTD SVG 1.1//EN" "http://www.w3.org/Graphics/SVG/1.1/DTD/svg11.dtd">
<svg version='1.1' width='11px' height='64px' xmlns='http://www.w3.org/2000/svg' xmlns:xlink='http://www.w3.org/1999/xlink'>
	<g transform="translate(-83.2544,-111.1)">
		<path d="M 83.2544 115.959 Q 83.2544 115.172 83.6588 114.593 Q 84.0632 113.9 84.6882 113.649 Q 87.325 112.497 90.0912 111.293 Q 90.7059 111.001 91.1735 111.151 Q 91.4074 111.216 91.5309 111.354 Q 91.6176 111.443 91.6441 111.618 Q 91.7897 112.229 92.3191 113.265 Q 93.7618 115.431 93.6162 120.403 Q 93.4574 126.404 93.3912 131.704 Q 93.3779 132.821 93.3647 133.924 Q 93.3647 134.024 93.3647 134.11 Q 93.3515 137.738 93.3647 141.26 L 93.3912 141.334 Q 93.3779 141.86 93.3779 142.387 L 93.3912 142.447 Q 93.3912 144.203 93.3912 145.946 L 93.3779 146.019 Q 93.3382 155.071 93.3647 163.751 Q 93.3647 163.915 93.3647 164.078 Q 93.3779 166.929 93.4176 169.688 Q 93.4309 170.475 93.0397 171.078 Q 92.6118 171.694 92.0368 171.893 Q 90.9235 172.409 89.8603 172.885 Q 88.4191 173.613 86.8985 174.196 Q 86.2735 174.434 85.8559 174.241 Q 85.425 174.115 85.3721 173.765 Q 85.1603 172.941 84.5118 171.218 Q 83.3471 168.857 83.3206 163.969 Q 83.3074 156.591 83.3338 146.725 Q 83.3338 146.562 83.3338 146.399 Q 83.3471 137.481 83.3735 127.994 Q 83.3206 127.86 83.2809 127.726 L 83.2676 119.75 Q 83.2544 118.371 83.2544 116.978 Q 83.2544 116.475 83.2544 115.985 L 83.2544 115.959" fill="#0066CC"/>
	</g>
</svg>
