<?xml version="1.0"?>
<!DOCTYPE svg PUBLIC "-//W3C//DTD SVG 1.1//EN" "http://www.w3.org/Graphics/SVG/1.1/DTD/svg11.dtd">
<svg version='1.1' width='9px' height='78px' xmlns='http://www.w3.org/2000/svg' xmlns:xlink='http://www.w3.org/1999/xlink'>
	<g transform="translate(-229.105,-108.797)">
		<path d="M 229.105 179.37 Q 229.164 178.845 229.223 177.452 Q 229.382 174.334 229.609 168.473 Q 229.698 165.389 229.786 161.964 Q 230.241 146.734 230.125 136.709 Q 230.095 135.439 230.066 134.239 Q 229.9 127.014 229.723 122.895 Q 229.693 122.095 229.664 121.355 Q 229.595 120.075 229.557 119.002 Q 229.518 118.452 229.539 117.902 Q 229.491 115.65 229.641 113.25 Q 229.641 113 229.641 112.75 Q 230.048 111.611 230.607 110.923 Q 230.739 110.725 230.87 110.527 Q 231.5 109.589 232.298 109.239 Q 233.143 108.559 234.159 108.925 Q 234.534 109.282 234.998 109.825 Q 237.05 112.325 237.527 116.539 Q 237.645 117.9 237.616 119.409 Q 237.011 145.857 237.625 172.03 Q 237.684 174.2 237.743 176.37 Q 237.832 178.991 237.545 181.493 Q 237.495 181.793 237.425 182.073 Q 237.405 182.123 237.384 182.173 Q 236.668 184.17 235.434 184.875 Q 234.407 185.78 233.261 185.989 Q 233.002 185.973 232.673 185.918 Q 232.514 185.886 232.395 185.875 Q 232.068 185.75 231.741 185.548 Q 230.705 184.359 229.343 181.811 Q 229.293 181.461 229.264 181.111 Q 229.234 180.661 229.205 180.211 Q 229.155 179.811 229.105 179.411 L 229.105 179.37" fill="#0066CC"/>
	</g>
</svg>
