<?xml version="1.0"?>
<!DOCTYPE svg PUBLIC "-//W3C//DTD SVG 1.1//EN" "http://www.w3.org/Graphics/SVG/1.1/DTD/svg11.dtd">
<svg version='1.1' width='48px' height='21px' xmlns='http://www.w3.org/2000/svg' xmlns:xlink='http://www.w3.org/1999/xlink'>
	<g transform="translate(-28.1324,-112.088)">
		<path d="M 28.1324 123.697 Q 28.1618 122.926 28.5794 122.347 Q 28.65 122.232 28.7353 122.118 Q 28.9971 121.809 29.3088 121.671 Q 29.5235 121.547 29.8029 121.503 Q 29.8529 121.488 29.9029 121.488 Q 30.1735 121.459 30.4735 121.459 Q 35.4088 121.415 40.1529 120.753 Q 42.0029 120.503 43.8382 120.15 Q 45.2294 119.9 46.6059 119.621 Q 58.8941 117.018 70.05 112.724 Q 71.4882 112.047 73 112.091 Q 73.7412 112.121 74.3206 112.685 Q 74.9059 113.221 75.0824 114.035 Q 75.2441 114.871 75.4059 115.809 Q 75.8029 118.312 75.7588 120.697 Q 75.7441 121.468 75.2618 122.032 Q 74.9706 122.426 74.5941 122.679 Q 74.3735 122.803 74.1176 122.891 Q 67.3647 125.435 60.2588 127.376 Q 57.9294 128.038 55.5559 128.641 Q 53.6176 129.112 51.65 129.538 Q 49.6382 129.95 47.6559 130.391 Q 47.5706 130.406 47.5 130.406 L 47.5 130.391 Q 46.3588 130.612 45.2176 130.803 Q 44.9824 130.832 44.7618 130.862 Q 44.2324 130.979 43.7029 131.082 Q 43.6176 131.097 43.5176 131.112 Q 39.9618 131.715 36.3176 132.156 Q 33.7 132.494 31.2588 132.215 Q 30.4676 132.141 29.9029 131.621 Q 29.3088 131.085 29.1176 130.3 Q 28.75 128.568 28.4559 126.585 Q 28.2941 125.2 28.1471 123.756 L 28.1324 123.697" fill="#0066CC"/>
	</g>
</svg>
