<?xml version="1.0"?>
<!DOCTYPE svg PUBLIC "-//W3C//DTD SVG 1.1//EN" "http://www.w3.org/Graphics/SVG/1.1/DTD/svg11.dtd">
<svg version='1.1' width='11px' height='62px' xmlns='http://www.w3.org/2000/svg' xmlns:xlink='http://www.w3.org/1999/xlink'>
	<g transform="translate(-84.4176,-110.163)">
		<path d="M 84.4176 112.685 Q 84.4176 111.888 84.9353 111.371 Q 85.4529 110.75 86.2529 110.694 Q 89.6 110.438 93.0147 110.171 Q 93.7735 110.106 94.3441 110.606 Q 94.6294 110.815 94.7735 111.118 Q 94.8706 111.371 94.8765 111.721 Q 94.9088 113.218 95.0265 114.809 Q 95.3471 118.324 95.3147 122.462 Q 95.2794 127.918 95.2647 133.218 Q 95.2618 134.282 95.2588 135.344 Q 95.2588 135.444 95.2588 135.541 Q 95.2559 138.953 95.2588 142.341 L 95.2647 142.435 Q 95.2618 142.941 95.2618 143.447 L 95.2647 143.538 Q 95.2647 145.212 95.2647 146.882 L 95.2618 146.976 Q 95.2529 155.482 95.2588 163.906 Q 95.2588 164.059 95.2588 164.212 Q 95.2618 166.868 95.2706 169.503 Q 95.2735 170.3 94.7588 170.862 Q 94.1971 171.426 93.4471 171.471 Q 91.9941 171.585 90.5912 171.691 Q 88.6765 171.853 86.7441 171.982 Q 85.9441 172.035 85.4235 171.565 Q 84.9 171.109 84.8882 170.409 Q 84.8412 168.165 84.6971 165.721 Q 84.4382 162.279 84.4324 158.276 Q 84.4294 150.415 84.4353 142 Q 84.4353 141.847 84.4353 141.694 Q 84.4382 133.024 84.4441 124.226 Q 84.4324 124.041 84.4235 123.856 L 84.4206 116.25 Q 84.4176 114.932 84.4176 113.612 Q 84.4176 113.15 84.4176 112.691 L 84.4176 112.685" fill="#0066CC"/>
	</g>
</svg>
