<?xml version="1.0"?>
<!DOCTYPE svg PUBLIC "-//W3C//DTD SVG 1.1//EN" "http://www.w3.org/Graphics/SVG/1.1/DTD/svg11.dtd">
<svg version='1.1' width='29px' height='47px' xmlns='http://www.w3.org/2000/svg' xmlns:xlink='http://www.w3.org/1999/xlink'>
	<g transform="translate(-92.6,-125.574)">
		<path d="M 92.6 129.48 Q 93.22 128.84 93.98 128.31 Q 94.02 128.26 94.07 128.26 Q 94.92 127.6 95.83 127.09 Q 95.79 127.09 95.79 127.09 Q 96.77 126.52 97.88 126.19 Q 98.08 126.14 98.29 126.1 Q 100.79 125.52 103.47 125.58 Q 104.13 125.6 104.8 125.66 Q 104.85 125.66 104.89 125.66 Q 107.68 125.86 110.11 126.67 Q 110.16 126.67 110.21 126.68 Q 113.17 127.57 115.42 129.3 Q 116.62 130.15 117.55 131.22 Q 117.83 131.5 118.14 131.89 Q 118.44 132.29 118.81 132.85 Q 119.44 133.94 119.92 135.48 Q 119.92 135.52 119.92 135.57 Q 120.58 137.95 120.81 140.9 Q 120.81 140.95 120.81 141.05 Q 120.82 141.21 120.83 141.38 Q 120.82 142.89 120.84 144.49 Q 120.84 144.59 120.84 144.69 Q 120.78 149.15 120.86 153.84 Q 120.86 153.89 120.86 153.94 Q 120.87 156.32 120.91 158.79 L 120.91 158.79 Q 120.96 163.58 121.06 168.52 Q 121.03 169.3 120.6 169.88 Q 120.13 170.46 119.5 170.61 Q 119.15 170.7 118.84 170.79 Q 118.76 170.81 118.68 170.83 Q 116.33 171.7 113.51 171.93 Q 113.36 171.95 113.2 171.96 Q 113.04 171.97 112.88 171.97 Q 112.78 171.98 112.69 171.94 Q 112.22 171.84 111.87 171.56 Q 111.8 171.52 111.73 171.47 Q 111.51 171.27 111.33 171.05 Q 111.12 170.75 111.04 170.39 Q 110.61 168.12 110.47 165.27 Q 110.1 159.15 110.04 153.18 L 110.04 153.17 Q 109.97 149.71 109.94 146.35 Q 109.92 143.59 109.73 141.22 Q 109.73 141.18 109.73 141.18 Q 109.49 139.22 109.11 137.95 Q 109.05 137.87 108.99 137.79 Q 108.99 137.83 109.03 137.83 Q 108.28 137.07 107.2 136.75 Q 107.1 136.71 107.04 136.71 Q 105.67 136.28 103.64 136.32 Q 103.53 136.32 103.42 136.32 Q 103.32 136.33 103.22 136.33 Q 101.12 136.5 98.9 137.46 Q 98.21 137.73 97.52 138.04 Q 97.47 138.04 97.42 138.05 Q 95.71 138.9 94.16 139.77 Q 92.96 135.42 92.61 129.92 Q 92.6 129.72 92.6 129.52 L 92.6 129.48" fill="#0066CC"/>
	</g>
</svg>
