<?xml version="1.0"?>
<!DOCTYPE svg PUBLIC "-//W3C//DTD SVG 1.1//EN" "http://www.w3.org/Graphics/SVG/1.1/DTD/svg11.dtd">
<svg version='1.1' width='17px' height='44px' xmlns='http://www.w3.org/2000/svg' xmlns:xlink='http://www.w3.org/1999/xlink'>
	<g transform="translate(-48.9235,-143.215)">
		<path d="M 48.9235 146.303 L 49.0235 146.347 Q 49.1147 146.082 49.2059 145.818 Q 49.2059 145.818 49.25 145.774 Q 51.1029 144.45 53.0441 143.215 Q 53.0941 143.215 53.2324 143.347 Q 53.4794 143.568 53.9471 144.053 Q 54.6706 144.759 55.7471 146.082 Q 57.2471 148.932 59.8059 153.497 Q 65.4088 163.776 65.4088 174.674 Q 65.4088 179.341 64.9676 182.465 Q 64.8735 183 64.7206 183.462 Q 64.5618 184.012 64.3412 184.409 Q 63.6088 186.218 62.4794 186.791 Q 61.1765 187.541 60.1382 185.953 Q 59.8676 185.6 59.6265 185.05 Q 59.3794 184.5 59.2029 183.788 Q 58.8059 182 58.4971 179.5 Q 57.3941 170.138 54.7912 161.924 Q 52.3647 154.444 49.4529 147.494 Q 49.2324 147.032 49.0118 146.571 Q 48.9676 146.421 48.9235 146.315 L 48.9235 146.303" fill="#0066CC"/>
	</g>
</svg>
