<?xml version="1.0"?>
<!DOCTYPE svg PUBLIC "-//W3C//DTD SVG 1.1//EN" "http://www.w3.org/Graphics/SVG/1.1/DTD/svg11.dtd">
<svg version='1.1' width='42px' height='51px' xmlns='http://www.w3.org/2000/svg' xmlns:xlink='http://www.w3.org/1999/xlink'>
	<g transform="translate(-69.6,-127.511)">
		<path d="M 69.6 142.934 Q 69.7 142.034 69.9158 141.2 Q 69.9711 140.95 70.0316 140.705 Q 70.0316 140.655 70.0368 140.611 Q 70.7368 138.687 72.1816 137.624 Q 73.0053 137.453 73.8447 137.303 Q 74.1342 137.253 74.4289 137.208 Q 77.2132 136.771 80.3421 136.266 Q 80.3474 136.266 80.3526 136.221 Q 81.1868 136.097 82.0263 135.974 L 82.0316 135.974 L 87.7789 135.032 Q 87.7447 135.076 87.8 135.121 Q 88.0447 135.032 88.2895 134.947 Q 88.3395 134.947 88.3895 134.953 Q 93.9553 133.195 98.9368 130.792 Q 99.5158 130.482 100.132 130.208 Q 100.811 129.874 101.503 129.603 Q 103.011 128.868 104.434 128.242 Q 104.479 128.242 104.524 128.247 Q 104.908 128.061 105.292 127.834 Q 106.139 127.416 106.847 127.539 Q 108.024 127.705 108.916 129.324 Q 109.2 129.863 109.434 130.403 Q 109.529 130.603 109.624 130.808 Q 110.289 132.537 110.568 134.492 Q 110.568 134.592 110.568 134.692 Q 111.039 138.35 110.116 142.703 Q 109.763 144.282 109.461 145.871 Q 109.461 145.921 109.461 145.971 Q 108.884 148.918 108.413 151.958 Q 108.413 151.958 108.413 151.958 Q 108.066 154.221 107.813 156.5 Q 107.426 159.508 107.089 162.582 Q 106.797 165.245 106.555 167.924 Q 106.555 168.024 106.555 168.124 Q 106.137 171.847 105.471 175.234 Q 105.411 175.468 105.345 175.697 Q 105.279 175.926 105.213 176.15 Q 105.158 176.334 105.108 176.513 Q 104.921 177.066 104.6 177.458 Q 104.434 177.682 104.224 177.85 Q 103.568 178.371 102.661 178.463 Q 99.8526 178.879 99.1974 175.108 Q 99.1421 174.847 99.0921 174.587 Q 98.1553 169.345 98.2763 164.095 Q 98.3395 161.816 98.4632 159.637 Q 98.4632 159.637 98.4632 159.632 Q 98.8763 150.134 100.334 142.168 Q 99.7974 142.368 99.2211 142.529 Q 95.6421 143.929 91.7026 145.034 Q 91.5579 145.084 91.4132 145.129 Q 89.5342 145.653 87.5658 146.132 Q 87.5105 146.176 87.5447 146.221 L 84.6658 147.263 Q 84.6158 147.263 84.5658 147.268 Q 82.4158 148.055 80.3026 148.784 Q 80.3026 148.784 80.3026 148.829 Q 73.0553 150.921 69.9632 143.803 Q 69.8184 143.503 69.6895 143.203 L 69.6 142.934" fill="#0066CC"/>
	</g>
</svg>
