<?xml version="1.0"?>
<!DOCTYPE svg PUBLIC "-//W3C//DTD SVG 1.1//EN" "http://www.w3.org/Graphics/SVG/1.1/DTD/svg11.dtd">
<svg version='1.1' width='85px' height='83px' xmlns='http://www.w3.org/2000/svg' xmlns:xlink='http://www.w3.org/1999/xlink'>
	<g transform="translate(-102.775,-28)">
		<path d="M 186.55 84.65 Q 185.064 89.0428 173.05 88.025 Q 161.044 87.0039 142.5 87.5 Q 140.81 94.4711 138.1 100.5 Q 147.344 98.7021 158.4 98.2 Q 158.4 102.473 158.4 106.75 Q 155.184 107.166 151.975 107.6 Q 144.941 108.596 138.05 110.275 Q 130.15 112.16 124.525 108.95 Q 121.912 107.431 123.35 105.125 Q 128.346 97.0916 131.6 87.45 Q 127.254 87.2111 121.975 87.475 Q 116.697 87.7447 108.75 88.325 Q 100.805 88.8963 103.425 83.425 Q 104.561 81.0643 107.9 80.7 Q 117.92 79.6461 126.7 79.9 L 132.95 79.95 Q 133.744 75.5252 134.425 71.7 Q 135.694 70.0234 138.1 69.45 Q 138.963 69.2861 139.825 69.175 Q 148.116 72.3832 145.4 80.3 Q 172.195 80.0482 180.125 80.15 Q 188.046 80.2551 186.55 84.65 Z M 172.325 67.05 Q 161.788 67.0143 151.925 60.675 Q 142.064 54.3297 141.625 53.625 Q 132.957 63.4754 118.425 70.075 Q 115.216 71.5486 111.025 69.45 Q 104.1 65.9859 109.175 63.625 Q 123.781 56.7938 132.625 46.075 Q 138.622 38.7691 138.9 29.625 Q 138.898 29.3498 139 29.1 Q 139.141 28.7346 139.5 28.425 Q 139.873 28.3236 140.275 28.275 Q 141.086 28.1111 141.925 28 Q 143.636 28.5051 145.025 29.1 Q 153.159 32.5928 150.55 39.15 Q 148.242 44.9982 144.55 50.075 Q 144.858 50.0164 145.175 49.95 L 145.125 49.85 Q 152.315 53.5287 160.175 56.525 Q 168.073 59.5174 177.175 60.75 Q 186.236 61.9904 184.55 64.55 Q 182.866 67.0957 172.325 67.05 Z" fill="#0066CC"/>
	</g>
</svg>
