<?xml version="1.0"?>
<!DOCTYPE svg PUBLIC "-//W3C//DTD SVG 1.1//EN" "http://www.w3.org/Graphics/SVG/1.1/DTD/svg11.dtd">
<svg version='1.1' width='9px' height='79px' xmlns='http://www.w3.org/2000/svg' xmlns:xlink='http://www.w3.org/1999/xlink'>
	<g transform="translate(-79.9309,-108.538)">
		<path d="M 79.9309 125.312 Q 79.9309 124.554 80.0118 123.799 Q 80.0926 122.9 80.2176 122.09 Q 80.825 118.379 81.7382 114.499 Q 81.9412 113.56 82.1147 112.71 Q 82.2015 112.363 82.2662 112.031 Q 82.3235 111.649 82.4088 111.324 Q 82.8779 109.406 84.5838 108.853 Q 89.2324 107.166 88.7632 114.521 Q 88.2515 122.081 88.0382 127.381 Q 87.9956 128.644 87.9529 129.865 Q 87.9529 129.965 87.9529 130.022 Q 87.9103 134.268 87.9529 138.172 L 88.0382 138.187 Q 87.9956 138.772 87.9956 139.357 L 88.0382 139.329 Q 88.0382 141.321 88.0382 143.269 L 87.9956 143.284 Q 87.8676 153.894 87.9529 163.31 Q 87.9529 163.503 87.9529 163.696 Q 87.9956 167.106 88.1235 170.218 Q 88.1662 170.975 88.1279 171.696 Q 88.0824 172.459 88.0074 173.099 Q 87.8647 174.762 87.7721 176.297 Q 87.6838 178.643 87.3397 180.519 Q 87.2147 181.287 87.0912 181.888 Q 86.925 182.703 86.7544 183.353 Q 86.0721 186.588 83.9824 186.924 Q 80.2294 187.651 80.1441 180.234 Q 80.1015 174.238 80.1868 160.225 Q 80.1868 160.032 80.1868 159.84 Q 80.2294 150.216 80.3147 138.759 Q 80.1441 138.772 80.0162 138.785 L 79.9735 129.75 Q 79.9309 128.194 79.9309 126.596 Q 79.9309 125.975 79.9309 125.397 L 79.9309 125.312" fill="#0066CC"/>
	</g>
</svg>
