<?xml version="1.0"?>
<!DOCTYPE svg PUBLIC "-//W3C//DTD SVG 1.1//EN" "http://www.w3.org/Graphics/SVG/1.1/DTD/svg11.dtd">
<svg version='1.1' width='45px' height='42px' xmlns='http://www.w3.org/2000/svg' xmlns:xlink='http://www.w3.org/1999/xlink'>
	<g transform="translate(-127.162,-131.2)">
		<path d="M 127.212 153.694 Q 126.997 150.253 127.703 147.056 Q 128.156 145.009 129.079 143.212 Q 129.103 143.162 129.153 143.138 Q 129.75 141.859 130.594 140.703 Q 131.785 139.132 133.3 137.759 Q 134.862 136.268 136.797 135.118 Q 136.797 135.118 136.824 135.118 Q 136.824 135.118 136.824 135.118 Q 137.468 134.726 138.138 134.359 Q 139.324 133.7 140.609 133.165 Q 144.038 131.656 147.968 131.353 Q 147.941 131.379 147.941 131.379 Q 150.335 131.153 152.738 131.212 Q 155.626 131.244 158.453 131.871 Q 158.526 131.894 158.6 131.918 Q 158.694 132.018 158.788 132.144 Q 159.232 132.285 159.626 132.479 Q 159.753 132.476 159.906 132.5 Q 160.176 132.568 160.424 132.635 Q 160.894 132.826 161.338 133.018 Q 161.709 133.132 162.082 133.271 Q 164.106 134.074 165.524 135.588 Q 165.547 135.588 165.571 135.635 Q 167.088 137.3 167.874 139.609 Q 167.947 139.856 168.047 140.129 Q 168.579 140.865 168.906 141.756 Q 168.956 141.929 169.006 142.126 Q 169.056 142.226 169.106 142.326 Q 169.329 143.285 169.374 144.35 Q 169.418 145.265 169.441 146.156 Q 169.441 146.182 169.441 146.232 Q 169.441 146.356 169.465 146.479 Q 169.465 146.603 169.465 146.726 Q 169.512 146.756 169.582 146.809 Q 169.888 147 170.147 147.285 Q 170.171 147.315 170.194 147.391 Q 170.194 147.418 170.218 147.444 Q 170.382 147.576 170.524 147.732 Q 170.571 147.809 170.618 147.862 Q 170.853 147.976 171.112 148.209 Q 171.253 148.271 171.418 148.379 Q 171.441 148.406 171.441 148.432 Q 171.441 148.968 171.468 149.526 Q 171.521 152.05 171.285 154.468 Q 171.285 154.468 171.262 154.468 Q 170.903 154.753 170.615 154.991 Q 170.544 155.044 170.497 155.121 Q 170.353 155.174 170.232 155.226 Q 170.182 155.279 170.156 155.332 Q 170.109 155.335 170.062 155.362 Q 169.868 155.491 169.697 155.597 Q 169.624 155.6 169.574 155.626 Q 169.55 155.626 169.526 155.65 Q 169.453 155.676 169.403 155.703 Q 169.379 155.729 169.356 155.756 Q 169.356 155.779 169.356 155.779 Q 169.153 156.494 168.897 157.182 Q 168.691 157.65 168.435 158.118 Q 167.776 159.335 167.026 160.532 Q 166.826 160.85 166.626 161.144 Q 166.253 161.735 165.856 162.3 Q 164.832 163.726 163.562 164.95 Q 163.512 165 163.438 165.05 Q 163.385 165.05 163.385 165.05 Q 162.935 165.497 162.485 165.918 Q 161.765 166.582 161.047 167.118 Q 161.024 167.168 161 167.218 Q 159.494 168.418 157.926 169.347 Q 157.9 169.371 157.9 169.394 Q 157.876 169.394 157.853 169.394 Q 157.753 169.444 157.676 169.494 Q 155.438 170.703 153.191 171.441 Q 151.568 171.979 149.559 172.197 Q 148.056 172.391 146.421 172.391 Q 144.965 172.391 143.535 172.194 Q 141.585 171.9 139.732 171.256 Q 139.435 171.132 139.138 171.009 Q 137.509 170.368 136.053 169.476 Q 134.544 168.559 133.232 167.321 Q 133.232 167.321 133.232 167.321 Q 131.779 165.962 130.647 164.209 Q 130.597 164.135 130.571 164.085 Q 129.732 162.85 129.044 161.485 Q 129.044 161.485 129.044 161.485 Q 128.947 161.288 128.85 161.091 Q 128.776 161.041 128.776 160.991 Q 128.753 160.968 128.753 160.944 Q 128.159 159.268 127.815 157.588 Q 127.791 157.565 127.815 157.541 Q 127.374 155.838 127.235 154.082 Q 127.235 154.059 127.235 154.035 Q 127.212 153.888 127.212 153.741 L 127.212 153.694" fill="#0066CC"/>
		<path d="M 137.197 150.774 Q 137.291 149.844 137.556 148.941 Q 138.138 147.424 138.138 147.4 Q 138.626 146.341 139.294 145.485 Q 139.468 145.291 139.641 145.121 Q 139.838 144.829 140.082 144.585 Q 142.021 142.474 144.962 141.544 Q 147.441 140.794 150.188 140.494 Q 152.379 140.271 154.465 140.826 Q 154.835 140.944 155.179 141.085 Q 156.309 141.479 157.365 141.924 Q 158.029 142.203 158.624 142.529 Q 159.241 142.879 159.685 143.253 Q 159.882 143.415 160.056 143.603 Q 160.503 144.076 160.882 144.506 Q 161.047 145.194 161.141 145.929 Q 161.306 147.126 161.565 148.324 Q 161.612 148.594 161.659 148.865 Q 161.659 148.865 161.682 148.888 Q 161.682 148.938 161.706 148.988 Q 161.729 149.112 161.776 149.259 Q 161.776 149.309 161.8 149.359 Q 161.894 149.603 162.059 149.871 Q 162.059 149.871 162.082 149.894 Q 162.106 149.944 162.153 149.994 Q 162.106 150.094 162.082 150.194 Q 162.059 150.221 162.059 150.271 Q 161.988 150.588 161.965 150.906 Q 161.894 151.297 161.847 151.712 Q 161.824 151.738 161.824 151.788 Q 161.776 151.865 161.776 151.988 Q 161.753 152.135 161.729 152.306 Q 161.426 153.385 161.094 154.438 Q 161 154.709 160.856 154.956 Q 160.832 155.006 160.809 155.079 Q 160.668 155.435 160.503 155.791 Q 160.479 155.815 160.456 155.838 Q 159.662 156.812 159.144 157.871 L 159.118 157.921 Q 159.071 157.894 159.047 157.915 Q 158.906 157.974 158.765 158.009 Q 158 158.768 157.194 159.376 Q 155.482 160.624 153.603 161.606 Q 152.85 161.947 152.097 162.194 Q 152.1 162.194 152.076 162.194 Q 150.368 162.768 148.538 162.785 Q 146.147 162.782 143.935 162.053 Q 143.641 161.959 143.347 161.841 Q 143.324 161.818 143.276 161.818 Q 142.468 161.488 141.803 161.038 Q 141.753 160.991 141.703 160.968 Q 139.465 159.562 138.335 157.456 Q 138.362 157.432 138.362 157.409 Q 138.138 156.974 137.962 156.488 Q 137.635 155.662 137.459 154.785 Q 137.082 152.935 137.197 150.903 Q 137.197 150.879 137.197 150.879 L 137.197 150.774" fill="#0066CC"/>
	</g>
</svg>
