<?xml version="1.0"?>
<!DOCTYPE svg PUBLIC "-//W3C//DTD SVG 1.1//EN" "http://www.w3.org/Graphics/SVG/1.1/DTD/svg11.dtd">
<svg version='1.1' width='9px' height='78px' xmlns='http://www.w3.org/2000/svg' xmlns:xlink='http://www.w3.org/1999/xlink'>
	<g transform="translate(-226.486,-108.705)">
		<path d="M 226.486 177.789 Q 226.509 177.064 226.532 175.943 Q 226.655 172.498 226.773 166.982 Q 226.807 163.734 226.841 160.509 Q 227.077 144.898 227.125 135.073 Q 227.114 133.784 227.102 132.584 Q 227.1 125.159 227.032 121.114 Q 227.02 120.314 227.009 119.536 Q 227.014 118.275 227.03 117.093 Q 227.045 116.543 227.084 115.993 Q 227.127 113.65 227.277 111.25 Q 227.277 111 227.277 110.75 Q 227.957 109.666 228.88 109.432 Q 229.084 109.325 229.289 109.218 Q 230.3 108.734 231.407 108.784 Q 232.47 108.523 233.323 109.125 Q 233.498 109.755 233.707 110.425 Q 234.65 113.725 235.018 117.684 Q 235.064 119.1 235.052 120.573 Q 234.666 147.33 234.625 173.611 Q 234.648 175.8 234.67 177.989 Q 234.705 180.627 234.564 183.22 Q 234.514 183.52 234.425 183.782 Q 234.386 183.832 234.348 183.882 Q 233.395 185.789 231.598 185.875 Q 230.28 186.161 228.916 185.934 Q 228.693 185.682 228.382 185.445 Q 228.259 185.341 228.214 185.275 Q 227.995 184.95 227.777 184.657 Q 227.286 182.723 226.67 180.266 Q 226.62 179.916 226.609 179.566 Q 226.598 179.116 226.586 178.666 Q 226.536 178.266 226.486 177.866 L 226.486 177.789" fill="#0066CC"/>
	</g>
</svg>
