<?xml version="1.0"?>
<!DOCTYPE svg PUBLIC "-//W3C//DTD SVG 1.1//EN" "http://www.w3.org/Graphics/SVG/1.1/DTD/svg11.dtd">
<svg version='1.1' width='40px' height='49px' xmlns='http://www.w3.org/2000/svg' xmlns:xlink='http://www.w3.org/1999/xlink'>
	<g transform="translate(-73.2,-128.303)">
		<path d="M 73.2 139.287 Q 73.3 138.387 73.5632 137.6 Q 73.6342 137.35 73.7263 137.121 Q 73.7263 137.071 73.7474 137.042 Q 74.4474 135.197 75.8763 134.245 Q 76.6211 134.011 77.4289 133.861 Q 77.6868 133.811 77.9658 133.782 Q 80.7026 133.534 83.7684 133.313 Q 83.7895 133.313 83.8105 133.284 Q 84.5974 133.239 85.4053 133.195 L 85.4263 133.195 L 91.0158 132.726 Q 91.0289 132.755 91.1 132.784 Q 91.3289 132.726 91.5579 132.689 Q 91.6079 132.689 91.6579 132.711 Q 97.2711 131.379 102.047 129.418 Q 102.563 129.076 103.226 128.882 Q 103.842 128.595 104.661 128.561 Q 106.042 128.174 107.387 128.368 Q 107.416 128.368 107.445 128.389 Q 107.782 128.392 108.118 128.387 Q 108.808 128.363 109.389 128.708 Q 110.345 129.221 111.063 130.745 Q 111.3 131.253 111.487 131.761 Q 111.566 131.961 111.645 132.182 Q 112.058 133.847 112.274 135.818 Q 112.274 135.918 112.274 136.018 Q 112.508 139.55 111.963 143.761 Q 111.753 145.276 111.592 146.834 Q 111.592 146.884 111.592 146.934 Q 111.237 149.724 111.003 152.732 Q 111.003 152.732 111.003 152.732 Q 110.813 154.884 110.703 157.1 Q 110.505 159.982 110.358 162.976 Q 110.239 165.529 110.171 168.145 Q 110.171 168.245 110.171 168.345 Q 109.847 172.289 108.534 174.887 Q 108.442 175.074 108.329 175.239 Q 108.216 175.405 108.103 175.55 Q 108.032 175.687 107.982 175.803 Q 107.684 176.213 107.3 176.432 Q 107.087 176.576 106.845 176.65 Q 106.174 176.934 105.392 176.853 Q 103.011 176.716 102.339 173.182 Q 102.268 172.889 102.218 172.597 Q 101.171 167.529 101.055 162.579 Q 101.008 160.363 101.053 158.247 Q 101.053 158.247 101.053 158.226 Q 101.055 148.887 102.087 141.474 Q 101.739 141.374 101.384 141.266 Q 97.8684 142.366 93.9605 143.187 Q 93.8316 143.237 93.7026 143.266 Q 91.8868 143.711 90.0132 144.126 Q 89.9421 144.155 89.9289 144.184 L 87.1132 145.053 Q 87.0632 145.053 87.0132 145.074 Q 84.8632 145.671 82.8605 146.037 Q 82.8605 146.037 82.8605 146.066 Q 76.0711 147.084 73.4526 140.061 Q 73.3237 139.761 73.2579 139.461 L 73.2 139.287" fill="#0066CC"/>
	</g>
</svg>
