<?xml version="1.0"?>
<!DOCTYPE svg PUBLIC "-//W3C//DTD SVG 1.1//EN" "http://www.w3.org/Graphics/SVG/1.1/DTD/svg11.dtd">
<svg version='1.1' width='44px' height='41px' xmlns='http://www.w3.org/2000/svg' xmlns:xlink='http://www.w3.org/1999/xlink'>
	<g transform="translate(-27.3971,-111.465)">
		<path d="M 27.3971 142.491 Q 27.4853 141.779 27.6382 141.141 Q 27.65 140.997 27.7059 140.853 Q 27.7912 140.426 27.9265 140.112 Q 28.1706 139.841 28.5088 139.709 Q 28.5588 139.665 28.6088 139.665 Q 28.8206 139.576 29.1206 139.576 Q 34.5265 139.444 39.3588 137.459 Q 41.2088 136.709 43.0147 135.65 Q 44.2882 134.9 45.5176 134.062 Q 56.4824 126.253 64.05 113.371 Q 65.1647 111.341 66.5 111.474 Q 67.1235 111.562 67.7618 112.156 Q 68.3176 112.662 68.8471 113.506 Q 69.3324 114.312 69.8176 115.426 Q 71.0088 118.135 70.8765 120.491 Q 70.8324 121.203 70.5853 121.797 Q 70.4118 122.279 70.1824 122.738 Q 70.0206 123.009 69.8529 123.274 Q 65.3941 130.906 59.8765 136.729 Q 57.9882 138.715 55.9676 140.524 Q 54.3529 141.935 52.65 143.215 Q 50.8147 144.45 49.0676 145.774 Q 49.0118 145.818 49 145.818 L 49 145.774 Q 47.9765 146.435 46.9529 147.009 Q 46.7471 147.097 46.5853 147.185 Q 45.9971 147.538 45.4088 147.847 Q 45.3529 147.891 45.2529 147.935 Q 41.7853 149.744 38.0529 151.068 Q 35.2 152.082 32.8765 151.244 Q 32.2029 151.024 31.6088 150.562 Q 30.9265 150.056 30.3529 149.3 Q 29.25 147.803 28.3676 145.556 Q 27.8824 144.2 27.4412 142.668 L 27.3971 142.491" fill="#0066CC"/>
	</g>
</svg>
