<?xml version="1.0"?>
<!DOCTYPE svg PUBLIC "-//W3C//DTD SVG 1.1//EN" "http://www.w3.org/Graphics/SVG/1.1/DTD/svg11.dtd">
<svg version='1.1' width='12px' height='49px' xmlns='http://www.w3.org/2000/svg' xmlns:xlink='http://www.w3.org/1999/xlink'>
	<g transform="translate(-47.6441,-123.384)">
		<path d="M 47.6441 123.487 L 47.7441 123.488 Q 48.1338 123.479 48.5235 123.471 Q 48.5235 123.471 48.525 123.469 Q 51.4868 123.425 54.4515 123.384 Q 54.5015 123.384 54.5544 123.388 Q 55.1426 123.396 55.7382 123.412 Q 57.3574 123.435 58.9882 123.479 Q 59.0382 128.504 59.1235 133.538 Q 59.3103 146.931 59.3103 160.344 Q 59.3103 165.14 59.2956 169.884 Q 59.2441 170.675 58.7074 171.222 Q 58.1221 171.772 57.3897 171.785 Q 55.3353 171.846 53.2676 171.865 Q 51.5809 171.89 49.9029 171.837 Q 49.1206 171.825 48.5809 171.275 Q 47.9926 170.725 47.9868 169.928 Q 47.9735 167.5 47.9632 165 Q 47.9265 154.103 47.8397 143.244 Q 47.7588 134.101 47.6618 124.976 Q 47.6544 124.429 47.6471 123.882 Q 47.6456 123.732 47.6441 123.584 L 47.6441 123.487" fill="#0066CC"/>
	</g>
</svg>
