<?xml version="1.0"?>
<!DOCTYPE svg PUBLIC "-//W3C//DTD SVG 1.1//EN" "http://www.w3.org/Graphics/SVG/1.1/DTD/svg11.dtd">
<svg version='1.1' width='11px' height='65px' xmlns='http://www.w3.org/2000/svg' xmlns:xlink='http://www.w3.org/1999/xlink'>
	<g transform="translate(-82.7559,-111.385)">
		<path d="M 82.7559 117.362 Q 82.7559 116.579 83.1118 115.974 Q 83.4676 115.25 84.0176 114.915 Q 86.35 113.379 88.8382 111.774 Q 89.3912 111.385 89.8147 111.385 Q 90.0265 111.388 90.1412 111.456 Q 90.2235 111.474 90.2588 111.574 Q 90.4529 111.806 91.1588 112.603 Q 93.0824 114.191 92.8882 119.521 Q 92.6765 125.756 92.5882 131.056 Q 92.5706 132.194 92.5529 133.315 Q 92.5529 133.415 92.5529 133.497 Q 92.5353 137.218 92.5529 140.797 L 92.5882 140.862 Q 92.5706 141.397 92.5706 141.932 L 92.5882 141.979 Q 92.5882 143.771 92.5882 145.544 L 92.5706 145.609 Q 92.5176 154.894 92.5529 163.685 Q 92.5529 163.853 92.5529 164.021 Q 92.5706 166.956 92.6235 169.768 Q 92.6412 170.55 92.3029 171.171 Q 91.9324 171.809 91.4324 172.074 Q 90.4647 172.762 89.5471 173.397 Q 88.3088 174.368 86.9647 175.144 Q 86.4147 175.462 86.0412 175.388 Q 85.65 175.403 85.5794 175.203 Q 85.2971 174.988 84.4324 173.574 Q 82.8794 171.676 82.8441 166.409 Q 82.8265 159.238 82.8618 148.75 Q 82.8618 148.582 82.8618 148.415 Q 82.8794 139.391 82.9147 129.609 Q 82.8441 129.497 82.7912 129.385 L 82.7735 121.25 Q 82.7559 119.844 82.7559 118.421 Q 82.7559 117.9 82.7559 117.397 L 82.7559 117.362" fill="#0066CC"/>
	</g>
</svg>
