<?xml version="1.0"?>
<!DOCTYPE svg PUBLIC "-//W3C//DTD SVG 1.1//EN" "http://www.w3.org/Graphics/SVG/1.1/DTD/svg11.dtd">
<svg version='1.1' width='37px' height='33px' xmlns='http://www.w3.org/2000/svg' xmlns:xlink='http://www.w3.org/1999/xlink'>
	<g transform="translate(-130.384,-139.304)">
		<path d="M 130.388 156.606 Q 130.328 153.672 131.122 151.269 Q 131.619 149.641 132.521 148.263 Q 132.522 148.213 132.572 148.212 Q 133.125 147.241 133.881 146.372 Q 134.94 145.243 136.3 144.266 Q 137.663 143.282 139.378 142.507 Q 139.378 142.507 139.426 142.507 Q 139.426 142.507 139.426 142.507 Q 139.982 142.249 140.587 141.991 Q 141.551 141.575 142.616 141.26 Q 145.362 140.369 148.607 140.022 Q 148.559 140.071 148.559 140.071 Q 150.49 139.822 152.562 139.638 Q 154.899 139.406 157.372 139.304 Q 157.424 139.306 157.475 139.307 Q 157.481 139.407 157.487 139.556 Q 157.843 139.565 158.149 139.671 Q 158.297 139.624 158.494 139.625 Q 158.699 139.582 158.901 139.54 Q 159.306 139.599 159.662 139.657 Q 159.966 139.618 160.318 139.579 Q 162.319 139.676 163.626 140.662 Q 163.628 140.662 163.629 140.665 Q 165.037 141.8 165.601 143.866 Q 165.653 144.069 165.753 144.321 Q 166.396 144.835 166.744 145.594 Q 166.794 145.746 166.844 145.899 Q 166.894 145.999 166.944 146.099 Q 167.146 146.815 167.101 147.725 Q 167.057 148.485 167.059 149.244 Q 167.059 149.293 167.059 149.343 Q 167.059 149.444 167.06 149.546 Q 167.06 149.647 167.06 149.749 Q 167.063 149.844 167.068 149.941 Q 167.087 150.375 167.103 150.815 Q 167.104 150.91 167.106 151.009 Q 167.106 151.057 167.107 151.106 Q 167.118 151.349 167.126 151.593 Q 167.129 151.691 167.132 151.788 Q 167.147 152.124 167.163 152.466 Q 167.172 152.704 167.182 152.946 Q 167.184 152.994 167.184 153.043 Q 167.184 153.357 167.232 153.674 Q 167.329 155.8 166.94 157.732 Q 166.94 157.732 166.938 157.732 Q 166.822 158.172 166.71 158.609 Q 166.706 158.706 166.703 158.804 Q 166.647 158.901 166.593 158.999 Q 166.543 159.096 166.494 159.193 Q 166.491 159.24 166.488 159.288 Q 166.382 159.484 166.278 159.678 Q 166.226 159.725 166.176 159.774 Q 166.175 159.774 166.174 159.775 Q 166.122 159.824 166.072 159.872 Q 166.071 159.921 166.069 159.969 Q 166.069 159.971 166.069 159.971 Q 165.822 160.531 165.478 161.043 Q 165.184 161.4 164.84 161.757 Q 164.049 162.49 163.299 163.268 Q 163.099 163.475 162.899 163.681 Q 162.547 164.14 162.194 164.55 Q 161.193 165.624 159.988 166.45 Q 159.938 166.5 159.887 166.55 Q 159.79 166.55 159.79 166.55 Q 159.34 166.953 158.89 167.307 Q 158.235 167.818 157.628 168.132 Q 157.626 168.182 157.625 168.232 Q 156.406 169.057 155.324 169.678 Q 155.275 169.679 155.275 169.681 Q 155.274 169.681 155.272 169.681 Q 155.172 169.731 155.074 169.781 Q 153.012 170.747 151.184 171.309 Q 149.957 171.671 148.191 171.778 Q 147.019 171.884 145.604 171.884 Q 144.435 171.884 143.315 171.731 Q 141.74 171.525 140.218 170.969 Q 139.965 170.868 139.712 170.766 Q 138.391 170.257 137.222 169.499 Q 135.956 168.691 134.843 167.629 Q 134.843 167.629 134.843 167.629 Q 133.721 166.513 132.853 165.091 Q 132.803 165.04 132.754 164.99 Q 132.093 163.975 131.581 162.765 Q 131.581 162.765 131.581 162.765 Q 131.528 162.612 131.475 162.459 Q 131.424 162.409 131.424 162.359 Q 131.422 162.357 131.422 162.356 Q 130.916 161.032 130.66 159.662 Q 130.659 159.66 130.66 159.659 Q 130.351 158.287 130.39 156.818 Q 130.39 156.816 130.39 156.815 Q 130.388 156.712 130.388 156.609 L 130.388 156.606" fill="#0066CC"/>
		<path d="M 141.653 156.001 Q 141.659 155.381 141.769 154.809 Q 142.087 153.776 142.087 153.775 Q 142.399 152.959 142.956 152.39 Q 143.107 152.284 143.259 152.179 Q 143.412 152.021 143.568 151.865 Q 144.954 150.701 147.013 150.081 Q 148.434 149.706 150.387 149.406 Q 151.696 149.204 153.185 149.099 Q 153.49 149.106 153.746 149.115 Q 154.566 149.046 155.335 149.026 Q 155.846 148.997 156.351 148.971 Q 156.859 148.946 157.215 148.922 Q 157.368 148.885 157.519 148.897 Q 157.922 148.974 158.368 149.094 Q 158.378 149.606 158.384 150.121 Q 158.394 150.899 158.41 151.676 Q 158.413 151.881 158.416 152.085 Q 158.416 152.085 158.418 152.087 Q 158.418 152.137 158.419 152.187 Q 158.421 152.288 158.424 152.391 Q 158.424 152.441 158.425 152.491 Q 158.431 152.647 158.441 152.804 Q 158.441 152.804 158.443 152.806 Q 158.444 152.856 158.447 152.906 Q 158.444 153.006 158.443 153.106 Q 158.441 153.154 158.441 153.204 Q 158.437 153.412 158.435 153.619 Q 158.431 153.878 158.428 154.138 Q 158.426 154.187 158.426 154.237 Q 158.424 154.335 158.424 154.437 Q 158.422 154.54 158.421 154.644 Q 158.449 155.415 158.381 156.137 Q 158.375 156.341 158.319 156.544 Q 158.318 156.594 158.316 156.646 Q 158.307 156.715 158.297 156.784 Q 158.296 156.785 158.294 156.787 Q 157.588 157.363 157.556 158.179 L 157.507 158.229 Q 157.504 158.181 157.503 158.135 Q 157.494 157.951 157.485 157.766 Q 156.875 158.282 156.356 158.649 Q 155.218 159.476 154.022 160.194 Q 153.6 160.403 153.178 160.606 Q 153.225 160.606 153.224 160.606 Q 152.132 161.157 150.987 161.44 Q 149.478 161.768 147.84 161.722 Q 147.634 161.716 147.428 161.709 Q 147.426 161.707 147.424 161.707 Q 146.857 161.687 146.347 161.612 Q 146.297 161.609 146.247 161.607 Q 144.185 161.238 142.99 160.169 Q 143.038 160.168 143.038 160.166 Q 142.837 159.951 142.638 159.687 Q 142.29 159.213 142.091 158.69 Q 141.693 157.59 141.653 156.197 Q 141.653 156.196 141.653 156.196 L 141.653 156.001" fill="#0066CC"/>
	</g>
</svg>
