<?xml version="1.0"?>
<!DOCTYPE svg PUBLIC "-//W3C//DTD SVG 1.1//EN" "http://www.w3.org/Graphics/SVG/1.1/DTD/svg11.dtd">
<svg version='1.1' width='28px' height='45px' xmlns='http://www.w3.org/2000/svg' xmlns:xlink='http://www.w3.org/1999/xlink'>
	<g transform="translate(-189.711,-125.502)">
		<path d="M 189.794 130.975 Q 189.875 129.3 191.581 128.025 Q 191.631 127.975 191.681 127.925 Q 191.675 127.925 191.675 127.925 Q 193.6 126.75 195.631 126.088 Q 197.05 125.656 198.556 125.569 Q 199.881 125.481 201.231 125.638 Q 204.706 125.131 207.8 126.513 Q 207.944 126.569 208.088 126.581 Q 208.094 126.631 208.1 126.681 Q 208.45 126.625 208.794 126.613 Q 209.531 126.369 210.344 126.275 Q 210.438 126.238 210.531 126.2 Q 213.1 125.644 215.013 127.319 Q 215.225 128.162 215.431 128.975 Q 215.45 129.581 215.425 130.188 Q 215.444 132.469 215.575 135.512 Q 215.619 136.269 215.663 137.069 Q 215.75 139.15 215.925 141.588 Q 216.581 150.844 217.15 157.431 L 217.15 157.475 Q 217.106 158.381 217.281 159.419 Q 217.281 159.969 217.325 160.519 Q 217.369 161.025 217.369 161.531 Q 217.413 162.156 217.3 162.75 Q 217.225 163.344 217.038 163.869 Q 216.488 165.75 215.288 167.544 Q 214.706 168.419 213.819 169.031 Q 213.713 169.119 213.606 169.206 Q 213.019 169.556 212.425 169.619 Q 211.788 169.731 211.169 169.594 Q 211.125 169.588 211.081 169.581 Q 209.506 169.688 208.631 168.35 Q 208.106 167.588 207.8 166.65 Q 207.581 165.9 207.45 165.106 L 206.925 151.431 Q 206.881 150.063 206.838 148.606 Q 206.794 146.256 206.719 143.738 Q 206.719 143.731 206.719 143.731 Q 206.688 142.075 206.613 140.438 Q 206.613 140.438 206.613 140.431 Q 206.588 139.994 206.556 139.569 Q 206.494 138.975 206.369 138.463 Q 206.363 138.412 206.356 138.369 Q 206.206 137.444 206.013 136.55 Q 205.85 135.8 205.419 135.625 Q 205.369 135.581 205.319 135.581 Q 203.338 134.75 201.119 134.681 Q 198.769 134.556 196.138 135.206 Q 195.569 135.256 195 135.35 Q 193.863 135.269 192.813 135.144 L 192.769 135.137 Q 190.975 134.875 190.319 133.563 L 190.319 133.519 Q 189.488 132.194 189.794 131 L 189.794 130.975" fill="#0066CC"/>
	</g>
</svg>
