<?xml version="1.0"?>
<!DOCTYPE svg PUBLIC "-//W3C//DTD SVG 1.1//EN" "http://www.w3.org/Graphics/SVG/1.1/DTD/svg11.dtd">
<svg version='1.1' width='17px' height='44px' xmlns='http://www.w3.org/2000/svg' xmlns:xlink='http://www.w3.org/1999/xlink'>
	<g transform="translate(-48.8794,-142.531)">
		<path d="M 48.8794 145.516 L 48.9794 145.559 Q 49.0809 145.303 49.1824 145.047 Q 49.1824 145.047 49.225 145.004 Q 51.1162 143.725 53.0926 142.531 Q 53.1426 142.531 53.2779 142.659 Q 53.5368 142.872 54.0088 143.341 Q 54.7632 144.024 55.8588 145.303 Q 57.3088 148.228 59.7824 152.809 Q 65.1985 163.196 65.1985 174.179 Q 65.1985 178.851 64.7721 182.031 Q 64.6794 182.575 64.5132 183.04 Q 64.3397 183.59 64.1015 183.974 Q 63.3235 185.722 62.1618 186.276 Q 60.8456 187.001 59.7853 185.466 Q 59.4971 185.125 59.2456 184.575 Q 58.9868 184.025 58.8162 183.31 Q 58.4324 181.5 58.1338 179 Q 57.0676 169.585 54.5515 161.279 Q 52.2059 153.743 49.3912 146.718 Q 49.1779 146.253 48.9647 145.788 Q 48.9221 145.638 48.8794 145.531 L 48.8794 145.516" fill="#0066CC"/>
	</g>
</svg>
