<?xml version="1.0"?>
<!DOCTYPE svg PUBLIC "-//W3C//DTD SVG 1.1//EN" "http://www.w3.org/Graphics/SVG/1.1/DTD/svg11.dtd">
<svg version='1.1' width='9px' height='78px' xmlns='http://www.w3.org/2000/svg' xmlns:xlink='http://www.w3.org/1999/xlink'>
	<g transform="translate(-226.159,-108.675)">
		<path d="M 226.159 177.591 Q 226.177 176.841 226.195 175.755 Q 226.314 172.268 226.418 166.795 Q 226.445 163.527 226.473 160.327 Q 226.682 144.668 226.75 134.868 Q 226.741 133.577 226.732 132.377 Q 226.75 124.927 226.695 120.891 Q 226.686 120.091 226.677 119.309 Q 226.691 118.05 226.714 116.855 Q 226.736 116.305 226.777 115.755 Q 226.832 113.4 226.982 111 Q 226.982 110.75 226.982 110.5 Q 227.695 109.423 228.664 109.245 Q 228.877 109.15 229.091 109.055 Q 230.15 108.627 231.295 108.727 Q 232.386 108.518 233.218 109.15 Q 233.368 109.814 233.545 110.5 Q 234.35 113.9 234.705 117.827 Q 234.741 119.25 234.732 120.718 Q 234.373 147.514 234.25 173.809 Q 234.268 176 234.286 178.191 Q 234.314 180.832 234.191 183.436 Q 234.141 183.736 234.05 183.995 Q 234.009 184.045 233.968 184.095 Q 232.986 185.991 231.118 186 Q 229.764 186.209 228.373 185.927 Q 228.155 185.645 227.845 185.386 Q 227.727 185.273 227.691 185.2 Q 227.486 184.85 227.282 184.545 Q 226.859 182.518 226.336 180.073 Q 226.286 179.723 226.277 179.373 Q 226.268 178.923 226.259 178.473 Q 226.209 178.073 226.159 177.673 L 226.159 177.591" fill="#0066CC"/>
	</g>
</svg>
