<?xml version="1.0"?>
<!DOCTYPE svg PUBLIC "-//W3C//DTD SVG 1.1//EN" "http://www.w3.org/Graphics/SVG/1.1/DTD/svg11.dtd">
<svg version='1.1' width='49px' height='47px' xmlns='http://www.w3.org/2000/svg' xmlns:xlink='http://www.w3.org/1999/xlink'>
	<g transform="translate(-125.425,-126.63)">
		<path d="M 125.518 152.141 Q 125.221 148.429 125.879 144.809 Q 126.309 142.538 127.244 140.518 Q 127.279 140.468 127.329 140.432 Q 127.95 138.988 128.841 137.679 Q 130.103 135.874 131.7 134.288 Q 133.368 132.526 135.421 131.176 Q 135.421 131.176 135.435 131.176 Q 135.435 131.176 135.435 131.176 Q 136.126 130.715 136.832 130.288 Q 138.135 129.5 139.538 128.847 Q 143.332 127.009 147.626 126.729 Q 147.612 126.744 147.612 126.744 Q 150.253 126.529 152.832 126.718 Q 156.015 126.891 159.029 127.906 Q 159.115 127.941 159.2 127.976 Q 159.341 128.076 159.482 128.191 Q 159.974 128.403 160.415 128.644 Q 160.529 128.665 160.659 128.7 Q 160.965 128.826 161.235 128.953 Q 161.741 129.215 162.232 129.476 Q 162.638 129.674 163.024 129.906 Q 165.059 131.085 166.535 132.882 Q 166.571 132.882 166.606 132.953 Q 168.182 134.9 169.085 137.338 Q 169.171 137.609 169.271 137.894 Q 169.744 138.747 170.059 139.709 Q 170.109 139.894 170.159 140.115 Q 170.209 140.215 170.259 140.315 Q 170.494 141.403 170.585 142.55 Q 170.676 143.547 170.712 144.509 Q 170.712 144.524 170.712 144.574 Q 170.712 144.709 170.747 144.844 Q 170.747 144.979 170.747 145.115 Q 170.818 145.109 170.924 145.138 Q 171.382 145.2 171.771 145.403 Q 171.806 145.397 171.841 145.462 Q 171.841 145.476 171.876 145.491 Q 172.124 145.565 172.335 145.674 Q 172.406 145.738 172.476 145.768 Q 172.829 145.765 173.218 145.938 Q 173.429 145.906 173.676 145.944 Q 173.712 145.959 173.712 145.974 Q 173.712 146.626 173.726 147.315 Q 173.756 150.05 173.603 152.726 Q 173.603 152.726 173.568 152.726 Q 173.079 152.929 172.697 153.062 Q 172.591 153.091 172.521 153.156 Q 172.329 153.185 172.174 153.215 Q 172.124 153.244 172.109 153.274 Q 172.038 153.253 171.968 153.268 Q 171.726 153.362 171.521 153.421 Q 171.435 153.4 171.385 153.415 Q 171.35 153.415 171.315 153.45 Q 171.229 153.465 171.179 153.479 Q 171.144 153.494 171.109 153.509 Q 171.109 153.544 171.109 153.544 Q 170.929 154.341 170.721 155.124 Q 170.562 155.65 170.353 156.176 Q 169.765 157.653 169.015 159.074 Q 168.815 159.45 168.615 159.791 Q 168.229 160.453 167.809 161.1 Q 166.774 162.715 165.468 164.15 Q 165.418 164.2 165.332 164.25 Q 165.303 164.25 165.303 164.25 Q 164.853 164.721 164.403 165.176 Q 163.647 165.924 162.871 166.576 Q 162.835 166.626 162.8 166.676 Q 161.141 168.076 159.315 169.171 Q 159.3 169.206 159.3 169.241 Q 159.265 169.241 159.229 169.241 Q 159.129 169.291 159.065 169.341 Q 156.732 170.679 154.262 171.512 Q 152.426 172.144 150.288 172.421 Q 148.609 172.662 146.856 172.662 Q 145.247 172.662 143.653 172.441 Q 141.503 172.1 139.474 171.409 Q 139.153 171.274 138.832 171.138 Q 137.038 170.426 135.429 169.465 Q 133.791 168.488 132.374 167.156 Q 132.374 167.156 132.374 167.156 Q 130.744 165.668 129.471 163.738 Q 129.421 163.653 129.406 163.603 Q 128.474 162.25 127.691 160.803 Q 127.691 160.803 127.691 160.803 Q 127.571 160.582 127.45 160.362 Q 127.365 160.312 127.365 160.262 Q 127.329 160.226 127.329 160.191 Q 126.688 158.326 126.297 156.482 Q 126.262 156.447 126.297 156.412 Q 125.785 154.532 125.553 152.624 Q 125.553 152.588 125.553 152.553 Q 125.518 152.382 125.518 152.212 L 125.518 152.141" fill="#0066CC"/>
		<path d="M 134.821 147.985 Q 134.962 146.891 135.309 145.812 Q 136.032 144.035 136.032 144 Q 136.615 142.812 137.341 141.803 Q 137.526 141.562 137.712 141.356 Q 137.932 140.994 138.224 140.703 Q 140.456 138.085 143.868 136.991 Q 146.912 136.041 150.082 135.741 Q 152.744 135.506 155.147 136.415 Q 155.553 136.591 155.944 136.803 Q 157.238 137.444 158.447 138.135 Q 159.194 138.579 159.835 139.094 Q 160.512 139.644 161.003 140.229 Q 161.224 140.497 161.409 140.779 Q 161.879 141.465 162.224 142.059 Q 162.471 142.841 162.612 143.694 Q 162.859 145.115 163.247 146.535 Q 163.318 146.841 163.388 147.147 Q 163.388 147.147 163.424 147.182 Q 163.424 147.232 163.459 147.282 Q 163.494 147.418 163.565 147.588 Q 163.565 147.638 163.6 147.688 Q 163.741 147.979 163.988 148.306 Q 163.988 148.306 164.024 148.341 Q 164.059 148.391 164.129 148.441 Q 164.059 148.541 164.024 148.641 Q 163.988 148.656 163.988 148.706 Q 163.882 149.082 163.847 149.459 Q 163.741 149.921 163.671 150.418 Q 163.635 150.432 163.635 150.482 Q 163.565 150.547 163.565 150.682 Q 163.529 150.853 163.494 151.059 Q 163.015 152.303 162.541 153.532 Q 162.4 153.838 162.209 154.109 Q 162.174 154.159 162.138 154.244 Q 161.926 154.753 161.679 155.262 Q 161.644 155.297 161.609 155.332 Q 160.768 156.518 159.991 157.706 L 159.976 157.756 Q 159.906 157.741 159.871 157.797 Q 159.659 157.985 159.447 158.138 Q 158.6 159.026 157.641 159.765 Q 155.624 161.235 153.379 162.359 Q 152.45 162.771 151.521 163.041 Q 151.5 163.041 151.465 163.041 Q 149.426 163.626 147.232 163.503 Q 144.371 163.324 141.853 162.229 Q 141.512 162.088 141.171 161.912 Q 141.135 161.876 141.065 161.876 Q 140.126 161.382 139.379 160.732 Q 139.329 160.662 139.279 160.626 Q 136.947 158.668 135.853 156.009 Q 135.868 155.974 135.868 155.938 Q 135.632 155.385 135.468 154.782 Q 135.153 153.768 134.988 152.703 Q 134.624 150.453 134.821 148.079 Q 134.821 148.044 134.821 148.044 L 134.821 147.985" fill="#0066CC"/>
	</g>
</svg>
