<?xml version="1.0"?>
<!DOCTYPE svg PUBLIC "-//W3C//DTD SVG 1.1//EN" "http://www.w3.org/Graphics/SVG/1.1/DTD/svg11.dtd">
<svg version='1.1' width='48px' height='45px' xmlns='http://www.w3.org/2000/svg' xmlns:xlink='http://www.w3.org/1999/xlink'>
	<g transform="translate(-125.86,-127.776)">
		<path d="M 125.941 152.529 Q 125.665 148.885 126.335 145.371 Q 126.771 143.156 127.703 141.191 Q 127.735 141.141 127.785 141.109 Q 128.4 139.706 129.279 138.435 Q 130.524 136.688 132.1 135.156 Q 133.741 133.462 135.765 132.162 Q 135.765 132.162 135.782 132.162 Q 135.782 132.162 135.782 132.162 Q 136.462 131.718 137.159 131.306 Q 138.432 130.55 139.806 129.926 Q 143.509 128.171 147.712 127.885 Q 147.694 127.903 147.694 127.903 Q 150.274 127.685 152.809 127.841 Q 155.918 127.979 158.885 128.897 Q 158.968 128.929 159.05 128.962 Q 159.179 129.062 159.309 129.179 Q 159.788 129.374 160.218 129.603 Q 160.335 129.618 160.471 129.65 Q 160.768 129.762 161.032 129.874 Q 161.529 130.118 162.009 130.362 Q 162.406 130.538 162.788 130.747 Q 164.821 131.832 166.282 133.559 Q 166.315 133.559 166.347 133.624 Q 167.909 135.5 168.782 137.906 Q 168.865 138.171 168.965 138.453 Q 169.453 139.276 169.771 140.221 Q 169.821 140.403 169.871 140.618 Q 169.921 140.718 169.971 140.818 Q 170.203 141.874 170.282 143 Q 170.362 143.976 170.394 144.921 Q 170.394 144.938 170.394 144.988 Q 170.394 145.121 170.426 145.253 Q 170.426 145.385 170.426 145.518 Q 170.491 145.521 170.588 145.556 Q 171.009 145.65 171.365 145.874 Q 171.397 145.876 171.429 145.944 Q 171.429 145.962 171.462 145.979 Q 171.688 146.068 171.882 146.188 Q 171.947 146.256 172.012 146.291 Q 172.335 146.318 172.691 146.506 Q 172.885 146.497 173.112 146.553 Q 173.144 146.571 173.144 146.588 Q 173.144 147.212 173.162 147.868 Q 173.197 150.55 173.024 153.162 Q 173.024 153.162 172.991 153.162 Q 172.535 153.385 172.176 153.544 Q 172.079 153.579 172.015 153.647 Q 171.835 153.682 171.688 153.718 Q 171.638 153.753 171.621 153.788 Q 171.556 153.774 171.491 153.791 Q 171.262 153.894 171.065 153.965 Q 170.982 153.95 170.932 153.968 Q 170.9 153.968 170.868 154 Q 170.785 154.018 170.735 154.035 Q 170.703 154.053 170.671 154.071 Q 170.671 154.103 170.671 154.103 Q 170.485 154.879 170.265 155.638 Q 170.094 156.15 169.874 156.662 Q 169.268 158.074 168.518 159.438 Q 168.318 159.8 168.118 160.129 Q 167.735 160.774 167.321 161.4 Q 166.288 162.968 164.991 164.35 Q 164.941 164.4 164.859 164.45 Q 164.824 164.45 164.824 164.45 Q 164.374 164.915 163.924 165.362 Q 163.176 166.088 162.415 166.712 Q 162.382 166.762 162.35 166.812 Q 160.729 168.162 158.968 169.215 Q 158.95 169.247 158.95 169.279 Q 158.918 169.279 158.885 169.279 Q 158.785 169.329 158.718 169.379 Q 156.409 170.685 153.994 171.494 Q 152.212 172.103 150.106 172.365 Q 148.471 172.594 146.747 172.594 Q 145.176 172.594 143.624 172.379 Q 141.524 172.05 139.538 171.371 Q 139.224 171.238 138.909 171.106 Q 137.156 170.412 135.585 169.468 Q 133.979 168.506 132.588 167.197 Q 132.588 167.197 132.588 167.197 Q 131.003 165.741 129.765 163.856 Q 129.715 163.774 129.697 163.724 Q 128.788 162.4 128.029 160.974 Q 128.029 160.974 128.029 160.974 Q 127.915 160.759 127.8 160.544 Q 127.718 160.494 127.718 160.444 Q 127.685 160.412 127.685 160.379 Q 127.056 158.562 126.676 156.759 Q 126.644 156.726 126.676 156.694 Q 126.182 154.859 125.974 152.988 Q 125.974 152.956 125.974 152.924 Q 125.941 152.759 125.941 152.594 L 125.941 152.529" fill="#0066CC"/>
		<path d="M 135.415 148.682 Q 135.544 147.629 135.871 146.594 Q 136.559 144.882 136.559 144.85 Q 137.118 143.694 137.829 142.724 Q 138.012 142.494 138.194 142.297 Q 138.409 141.953 138.688 141.674 Q 140.847 139.182 144.141 138.129 Q 147.044 137.229 150.109 136.929 Q 152.653 136.697 154.976 137.518 Q 155.374 137.679 155.753 137.874 Q 157.006 138.453 158.176 139.082 Q 158.903 139.485 159.532 139.953 Q 160.194 140.453 160.674 140.985 Q 160.888 141.226 161.071 141.485 Q 161.535 142.118 161.888 142.671 Q 162.115 143.429 162.244 144.253 Q 162.471 145.618 162.826 146.982 Q 162.891 147.279 162.956 147.576 Q 162.956 147.576 162.988 147.609 Q 162.988 147.659 163.021 147.709 Q 163.053 147.841 163.118 148.006 Q 163.118 148.056 163.15 148.106 Q 163.279 148.385 163.506 148.697 Q 163.506 148.697 163.538 148.729 Q 163.571 148.779 163.635 148.829 Q 163.571 148.929 163.538 149.029 Q 163.506 149.047 163.506 149.097 Q 163.409 149.459 163.376 149.821 Q 163.279 150.265 163.215 150.741 Q 163.182 150.759 163.182 150.809 Q 163.118 150.876 163.118 151.009 Q 163.085 151.174 163.053 151.371 Q 162.618 152.574 162.179 153.759 Q 162.05 154.056 161.871 154.321 Q 161.838 154.371 161.806 154.453 Q 161.612 154.924 161.385 155.394 Q 161.353 155.426 161.321 155.459 Q 160.491 156.591 159.779 157.747 L 159.762 157.797 Q 159.697 157.779 159.665 157.826 Q 159.471 157.982 159.276 158.106 Q 158.45 158.962 157.529 159.668 Q 155.588 161.082 153.435 162.171 Q 152.55 162.565 151.665 162.829 Q 151.65 162.829 151.618 162.829 Q 149.662 163.412 147.559 163.324 Q 144.815 163.188 142.374 162.185 Q 142.044 162.056 141.715 161.894 Q 141.682 161.862 141.618 161.862 Q 140.712 161.409 139.985 160.809 Q 139.935 160.744 139.885 160.712 Q 137.576 158.891 136.474 156.371 Q 136.491 156.338 136.491 156.306 Q 136.259 155.782 136.091 155.209 Q 135.774 154.241 135.606 153.224 Q 135.238 151.074 135.415 148.785 Q 135.415 148.753 135.415 148.753 L 135.415 148.682" fill="#0066CC"/>
	</g>
</svg>
