<?xml version="1.0"?>
<!DOCTYPE svg PUBLIC "-//W3C//DTD SVG 1.1//EN" "http://www.w3.org/Graphics/SVG/1.1/DTD/svg11.dtd">
<svg version='1.1' width='28px' height='51px' xmlns='http://www.w3.org/2000/svg' xmlns:xlink='http://www.w3.org/1999/xlink'>
	<g transform="translate(-190.855,-122.318)">
		<path d="M 190.873 129.34 Q 190.683 127.27 192.49 125.92 Q 193.493 125.243 194.697 124.823 Q 195.843 124.483 197.05 124.267 Q 200.02 123.737 203.133 124.233 Q 203.487 124.223 203.827 124.213 Q 204.67 123.703 205.49 123.353 Q 206.25 123.03 207.16 122.987 Q 208.02 122.907 209.053 123.057 Q 209.217 123.08 209.38 123.067 Q 209.407 123.103 209.433 123.14 Q 209.823 123.04 210.24 122.99 Q 211.057 122.707 211.987 122.56 Q 212.7 122.377 213.403 122.33 Q 214.947 122.237 215.75 122.887 Q 216.19 123.083 216.577 123.923 Q 216.697 124.8 216.817 125.76 Q 216.803 126.4 216.753 127.08 Q 216.74 127.47 216.727 127.897 Q 216.647 130.697 216.78 134.57 Q 216.84 136.82 217 139.51 Q 217.147 142.193 217.32 144.827 Q 217.777 151.583 218.16 156.7 Q 218.16 156.713 218.16 156.763 Q 218.137 157.757 218.297 158.847 Q 218.297 159.45 218.333 160.053 Q 218.457 161.887 218.287 163.63 Q 218.093 166.11 217.32 168.28 Q 216.927 169.453 216.25 170.313 Q 215.413 171.47 214.35 171.813 Q 214.177 171.88 213.99 171.947 Q 212.313 172.827 211.01 171.957 Q 210.29 171.473 209.7 170.71 Q 209.263 170.107 208.86 169.387 Q 208.583 168.717 208.28 168.007 Q 208.253 163.007 208.04 156.46 Q 207.99 155.543 207.953 154.613 Q 207.767 148.86 207.793 141.603 Q 207.793 140.763 207.757 139.96 Q 207.757 139.847 207.757 139.72 Q 207.72 138.89 207.683 138.073 Q 207.61 137.15 207.243 136.813 Q 205.543 135.087 203.623 134.057 Q 203.243 133.82 202.813 133.633 Q 202.567 133.513 202.257 133.407 Q 202.057 133.327 201.843 133.273 Q 201.517 133.19 201.163 133.147 Q 200.347 133.087 199.53 133.117 Q 199.303 133.127 199.077 133.137 Q 198.59 133.183 198.103 133.23 Q 196.697 133.183 195.363 133.1 L 195.327 133.1 Q 193.987 132.957 193.063 132.497 Q 192.52 132.21 192.087 131.813 Q 192.087 131.777 192.087 131.777 Q 191.617 131.38 191.333 130.943 Q 190.927 130.307 190.877 129.657 Q 190.85 129.493 190.873 129.367 L 190.873 129.34" fill="#0066CC"/>
	</g>
</svg>
