<?xml version="1.0"?>
<!DOCTYPE svg PUBLIC "-//W3C//DTD SVG 1.1//EN" "http://www.w3.org/Graphics/SVG/1.1/DTD/svg11.dtd">
<svg version='1.1' width='28px' height='46px' xmlns='http://www.w3.org/2000/svg' xmlns:xlink='http://www.w3.org/1999/xlink'>
	<g transform="translate(-190.083,-124.625)">
		<path d="M 190.143 130.81 Q 189.983 128.98 191.71 127.63 Q 192.673 126.973 193.687 126.493 Q 194.723 126.033 195.85 125.717 Q 198.58 124.947 201.533 125.333 Q 201.847 125.293 202.157 125.253 Q 203.23 125.013 204.26 124.963 Q 205.2 124.92 206.14 125.097 Q 207.03 125.227 207.963 125.527 Q 208.117 125.57 208.27 125.567 Q 208.277 125.613 208.283 125.66 Q 208.643 125.56 209.01 125.51 Q 209.777 125.177 210.647 124.99 Q 211.35 124.757 212.013 124.67 Q 213.337 124.497 214.4 124.997 Q 214.96 125.233 215.507 125.743 Q 215.687 126.6 215.867 127.44 Q 215.863 128.05 215.813 128.67 Q 215.81 129.03 215.807 129.437 Q 215.787 132.087 215.97 135.68 Q 216.06 137.78 216.25 140.29 Q 216.437 142.873 216.63 145.257 Q 217.157 151.633 217.59 156.4 Q 217.59 156.403 217.59 156.453 Q 217.547 157.377 217.737 158.437 Q 217.737 159 217.783 159.563 Q 217.927 161.297 217.697 162.97 Q 217.423 165.24 216.48 167.32 Q 216.007 168.363 215.2 169.103 Q 214.203 170.03 213 170.153 Q 212.807 170.17 212.61 170.187 Q 210.803 170.707 209.69 169.477 Q 209.06 168.793 208.65 167.89 Q 208.353 167.177 208.14 166.397 Q 208.033 165.667 207.92 164.927 Q 207.763 159.777 207.56 154.24 Q 207.51 153.373 207.463 152.503 Q 207.267 147.09 207.273 140.363 Q 207.273 139.553 207.227 138.79 Q 207.227 138.687 207.227 138.58 Q 207.18 137.81 207.133 137.043 Q 207.04 136.1 206.573 135.903 Q 204.423 134.647 201.993 134.277 Q 201.523 134.18 201.003 134.133 Q 200.717 134.103 200.377 134.077 Q 200.177 134.057 199.973 134.043 Q 199.667 134.06 199.353 134.087 Q 198.587 134.147 197.82 134.267 Q 197.613 134.307 197.407 134.347 Q 196.91 134.433 196.413 134.52 Q 195.087 134.583 193.853 134.6 L 193.807 134.6 Q 192.497 134.527 191.703 134.037 Q 191.23 133.74 190.897 133.303 Q 190.897 133.257 190.897 133.257 Q 190.517 132.82 190.333 132.373 Q 190.007 131.727 190.107 131.077 Q 190.1 130.923 190.143 130.817 L 190.143 130.81" fill="#0066CC"/>
	</g>
</svg>
