<?xml version="1.0"?>
<!DOCTYPE svg PUBLIC "-//W3C//DTD SVG 1.1//EN" "http://www.w3.org/Graphics/SVG/1.1/DTD/svg11.dtd">
<svg version='1.1' width='27px' height='46px' xmlns='http://www.w3.org/2000/svg' xmlns:xlink='http://www.w3.org/1999/xlink'>
	<g transform="translate(-189.333,-125.237)">
		<path d="M 189.369 129.675 Q 190.375 128.3 192.106 127.325 Q 192.156 127.275 192.206 127.225 Q 192.175 127.225 192.175 127.225 Q 194.2 126.15 196.356 125.638 Q 197.85 125.281 199.381 125.244 Q 200.806 125.206 202.156 125.388 Q 205.731 125.456 208.6 127.163 Q 208.719 127.244 208.838 127.306 Q 208.869 127.356 208.9 127.406 Q 209.25 127.525 209.569 127.663 Q 210.256 127.844 210.919 128.175 Q 210.988 128.188 211.056 128.2 Q 213.1 129.019 214.463 131.194 Q 214.725 132.013 214.956 132.875 Q 215.05 133.506 215.125 134.137 Q 215.419 136.544 215.475 139.563 Q 215.494 140.344 215.513 141.144 Q 215.55 143.35 215.625 145.738 Q 215.906 154.419 216.15 161.956 L 216.15 161.975 Q 216.131 162.906 216.206 163.894 Q 216.206 164.444 216.225 164.994 Q 216.244 165.525 216.244 166.056 Q 216.263 166.781 215.9 167.35 Q 215.525 167.919 214.988 168.144 Q 213.438 168.95 211.638 169.719 Q 210.731 170.094 209.694 170.356 Q 209.563 170.394 209.431 170.431 Q 208.694 170.581 208.125 170.294 Q 207.538 170.056 207.244 169.569 Q 207.225 169.538 207.206 169.506 Q 206.531 168.638 206.156 167.15 Q 205.931 166.338 205.8 165.45 Q 205.706 164.7 205.65 163.931 L 205.425 149.956 Q 205.406 148.512 205.388 147.031 Q 205.369 144.481 205.194 142.088 Q 205.194 142.056 205.194 142.056 Q 205.038 140.175 204.663 138.787 Q 204.663 138.787 204.663 138.756 Q 204.538 138.369 204.381 138.044 Q 204.069 137.475 203.644 137.113 Q 203.613 137.063 203.581 137.044 Q 203.031 136.419 202.263 135.95 Q 201.85 135.6 201.294 135.525 Q 201.244 135.506 201.194 135.506 Q 199.088 135.15 196.794 135.806 Q 194.444 136.381 192.088 137.631 Q 191.844 137.281 191.6 136.95 Q 191.113 136.144 190.663 135.319 L 190.644 135.287 Q 189.875 134.175 189.594 132.613 L 189.594 132.594 Q 189.238 131.169 189.369 129.8 L 189.369 129.675" fill="#0066CC"/>
	</g>
</svg>
