<?xml version="1.0"?>
<!DOCTYPE svg PUBLIC "-//W3C//DTD SVG 1.1//EN" "http://www.w3.org/Graphics/SVG/1.1/DTD/svg11.dtd">
<svg version='1.1' width='43px' height='40px' xmlns='http://www.w3.org/2000/svg' xmlns:xlink='http://www.w3.org/1999/xlink'>
	<g transform="translate(-127.81,-132.896)">
		<path d="M 127.847 154.276 Q 127.663 150.937 128.387 147.899 Q 128.849 145.935 129.768 144.222 Q 129.787 144.172 129.837 144.153 Q 130.425 142.935 131.251 141.837 Q 132.416 140.354 133.9 139.06 Q 135.422 137.671 137.313 136.596 Q 137.313 136.596 137.344 136.596 Q 137.344 136.596 137.344 136.596 Q 137.971 136.231 138.628 135.885 Q 139.769 135.275 141.01 134.784 Q 144.303 133.399 148.096 133.087 Q 148.065 133.118 148.065 133.118 Q 150.366 132.887 152.703 132.897 Q 155.481 132.876 158.237 133.357 Q 158.306 133.376 158.375 133.396 Q 158.451 133.496 158.528 133.626 Q 158.954 133.741 159.331 133.918 Q 159.462 133.906 159.624 133.925 Q 159.881 133.971 160.119 134.016 Q 160.576 134.181 161.003 134.346 Q 161.36 134.429 161.729 134.532 Q 163.749 135.194 165.144 136.603 Q 165.163 136.603 165.182 136.641 Q 166.678 138.2 167.419 140.46 Q 167.488 140.699 167.588 140.968 Q 168.143 141.659 168.474 142.524 Q 168.524 142.693 168.574 142.881 Q 168.624 142.981 168.674 143.081 Q 168.893 143.991 168.919 145.025 Q 168.946 145.909 168.965 146.774 Q 168.965 146.804 168.965 146.854 Q 168.965 146.974 168.984 147.093 Q 168.984 147.212 168.984 147.331 Q 169.022 147.374 169.079 147.435 Q 169.328 147.675 169.538 147.991 Q 169.557 148.034 169.576 148.115 Q 169.576 148.146 169.596 148.176 Q 169.729 148.331 169.844 148.504 Q 169.882 148.585 169.921 148.647 Q 170.112 148.806 170.322 149.06 Q 170.437 149.157 170.571 149.293 Q 170.59 149.324 170.59 149.354 Q 170.59 149.846 170.621 150.356 Q 170.682 152.8 170.416 155.121 Q 170.416 155.121 170.397 155.121 Q 170.087 155.437 169.834 155.715 Q 169.776 155.776 169.738 155.857 Q 169.612 155.919 169.504 155.981 Q 169.454 156.043 169.424 156.104 Q 169.385 156.116 169.347 156.147 Q 169.171 156.29 169.013 156.413 Q 168.944 156.425 168.894 156.456 Q 168.875 156.456 168.856 156.475 Q 168.787 156.506 168.737 156.537 Q 168.718 156.568 168.699 156.599 Q 168.699 156.618 168.699 156.618 Q 168.487 157.301 168.213 157.954 Q 167.99 158.4 167.716 158.846 Q 167.031 159.966 166.281 161.079 Q 166.081 161.375 165.881 161.651 Q 165.512 162.216 165.124 162.75 Q 164.104 164.106 162.847 165.25 Q 162.797 165.3 162.728 165.35 Q 162.666 165.35 162.666 165.35 Q 162.216 165.788 161.766 166.196 Q 161.059 166.829 160.363 167.321 Q 160.344 167.371 160.325 167.421 Q 158.876 168.546 157.406 169.413 Q 157.375 169.432 157.375 169.451 Q 157.356 169.451 157.337 169.451 Q 157.237 169.501 157.156 169.551 Q 154.953 170.712 152.79 171.415 Q 151.246 171.918 149.285 172.113 Q 147.849 172.29 146.257 172.29 Q 144.859 172.29 143.491 172.101 Q 141.616 171.825 139.829 171.199 Q 139.541 171.079 139.253 170.96 Q 137.685 170.346 136.287 169.481 Q 134.826 168.585 133.554 167.382 Q 133.554 167.382 133.554 167.382 Q 132.168 166.072 131.088 164.385 Q 131.038 164.316 131.007 164.266 Q 130.204 163.075 129.551 161.741 Q 129.551 161.741 129.551 161.741 Q 129.463 161.553 129.375 161.365 Q 129.306 161.315 129.306 161.265 Q 129.287 161.246 129.287 161.226 Q 128.71 159.621 128.384 158.003 Q 128.365 157.984 128.384 157.965 Q 127.969 156.328 127.866 154.629 Q 127.866 154.61 127.866 154.591 Q 127.847 154.453 127.847 154.315 L 127.847 154.276" fill="#0066CC"/>
		<path d="M 138.088 151.819 Q 138.165 150.951 138.399 150.115 Q 138.928 148.694 138.928 148.675 Q 139.381 147.665 140.026 146.866 Q 140.196 146.69 140.365 146.532 Q 140.553 146.268 140.779 146.041 Q 142.607 144.119 145.372 143.251 Q 147.64 142.576 150.228 142.276 Q 152.243 142.057 154.209 142.481 Q 154.566 142.576 154.893 142.691 Q 155.96 142.993 156.959 143.344 Q 157.593 143.562 158.169 143.818 Q 158.765 144.093 159.191 144.387 Q 159.379 144.509 159.549 144.662 Q 159.987 145.056 160.379 145.424 Q 160.513 146.076 160.59 146.768 Q 160.724 147.881 160.934 148.994 Q 160.972 149.251 161.01 149.509 Q 161.01 149.509 161.029 149.528 Q 161.029 149.578 161.049 149.628 Q 161.068 149.747 161.106 149.885 Q 161.106 149.935 161.125 149.985 Q 161.201 150.212 161.335 150.457 Q 161.335 150.457 161.354 150.476 Q 161.374 150.526 161.412 150.576 Q 161.374 150.676 161.354 150.776 Q 161.335 150.807 161.335 150.857 Q 161.278 151.153 161.259 151.449 Q 161.201 151.813 161.163 152.197 Q 161.144 152.228 161.144 152.278 Q 161.106 152.359 161.106 152.478 Q 161.087 152.616 161.068 152.774 Q 160.831 153.791 160.551 154.778 Q 160.475 155.035 160.349 155.274 Q 160.329 155.324 160.31 155.393 Q 160.196 155.691 160.062 155.99 Q 160.043 156.009 160.024 156.028 Q 159.247 156.922 158.826 157.932 L 158.796 157.982 Q 158.757 157.951 158.738 157.959 Q 158.624 157.969 158.509 157.96 Q 157.775 158.671 157.026 159.231 Q 155.429 160.394 153.687 161.324 Q 153 161.638 152.313 161.876 Q 152.325 161.876 152.306 161.876 Q 150.721 162.446 149.028 162.516 Q 146.813 162.579 144.716 161.987 Q 144.44 161.91 144.163 161.815 Q 144.144 161.796 144.106 161.796 Q 143.346 161.528 142.712 161.153 Q 142.662 161.115 142.612 161.096 Q 140.409 159.897 139.266 157.999 Q 139.297 157.979 139.297 157.96 Q 139.078 157.569 138.897 157.128 Q 138.566 156.372 138.385 155.566 Q 138.004 153.866 138.088 151.962 Q 138.088 151.943 138.088 151.943 L 138.088 151.819" fill="#0066CC"/>
	</g>
</svg>
