<?xml version="1.0"?>
<!DOCTYPE svg PUBLIC "-//W3C//DTD SVG 1.1//EN" "http://www.w3.org/Graphics/SVG/1.1/DTD/svg11.dtd">
<svg version='1.1' width='33px' height='48px' xmlns='http://www.w3.org/2000/svg' xmlns:xlink='http://www.w3.org/1999/xlink'>
	<g transform="translate(-136.328,-123.762)">
		<path d="M 136.328 126.828 Q 136.328 126.524 136.424 126.228 Q 136.533 125.933 136.737 125.691 Q 136.741 125.641 136.791 125.591 Q 137.05 125.287 137.454 125.083 Q 137.604 125.028 137.754 124.978 Q 138.004 124.92 138.3 124.82 Q 138.7 124.711 139.146 124.615 Q 139.55 124.515 139.996 124.424 Q 140.396 124.337 140.791 124.25 Q 141.876 124.098 143.087 123.948 Q 143.378 123.924 143.665 123.9 Q 144.243 123.852 144.817 123.809 Q 147.852 123.667 150.907 123.95 Q 153.341 124.159 155.398 124.554 Q 156.935 124.839 158.239 125.261 Q 158.239 125.265 158.285 125.315 Q 159.863 125.833 161.304 126.624 Q 162.7 127.37 163.954 128.393 Q 163.954 128.398 164 128.402 Q 164.557 128.828 165.022 129.35 Q 166.363 130.711 167.207 132.441 Q 167.248 132.537 167.298 132.678 Q 167.343 132.778 167.389 132.883 Q 167.622 133.346 167.809 133.809 L 167.763 133.809 Q 169.017 136.883 169.039 141.143 L 169.048 143.407 Q 169.048 143.607 169.052 143.807 Q 169.065 146.67 169.078 149.537 Q 169.087 151.141 169.091 152.746 Q 169.091 153.046 169.096 153.346 Q 169.113 159.709 169.104 166.089 Q 169.104 167.193 169.091 168.302 Q 169.078 168.961 169.065 169.62 Q 169.057 170.02 168.87 170.378 Q 168.724 170.687 168.487 170.95 Q 168.009 171.467 167.307 171.624 Q 167.257 171.628 167.202 171.633 Q 166.698 171.654 166.193 171.68 Q 165.289 171.72 164.372 171.733 Q 163.567 171.746 162.767 171.72 Q 161.354 171.672 160.011 171.585 Q 160.011 171.585 160.011 171.585 Q 159.524 171.496 159.146 171.27 Q 158.917 171.12 158.735 170.924 Q 158.187 170.37 158.187 169.633 Q 158.191 167.874 158.196 166.165 Q 158.196 165.811 158.196 165.461 Q 158.209 163.052 158.217 160.648 Q 158.222 158.335 158.226 156.022 Q 158.226 154.613 158.23 153.204 Q 158.23 152.2 158.23 151.204 Q 158.23 145.837 158.2 140.47 Q 158.2 140.32 158.2 140.215 Q 158.1 138.828 157.726 137.807 Q 157.68 137.802 157.68 137.752 Q 157.215 136.739 156.385 136.183 Q 155.413 135.467 153.985 135.209 Q 153.939 135.163 153.939 135.163 Q 152.228 134.72 150.467 134.6 Q 148.889 134.413 146.941 134.546 Q 146.193 134.609 145.446 134.722 Q 145.4 134.717 145.4 134.713 Q 143.909 134.839 142.459 135.102 Q 140.913 135.393 139.413 135.826 Q 139.085 135.928 138.711 135.893 Q 138.524 135.876 138.291 135.859 Q 137.548 135.802 137.033 135.248 Q 136.472 134.672 136.45 133.872 Q 136.441 133.467 136.433 133.063 Q 136.402 131.409 136.367 129.763 Q 136.35 128.304 136.328 126.846 L 136.328 126.828" fill="#0066CC"/>
	</g>
</svg>
