<?xml version="1.0"?>
<!DOCTYPE svg PUBLIC "-//W3C//DTD SVG 1.1//EN" "http://www.w3.org/Graphics/SVG/1.1/DTD/svg11.dtd">
<svg version='1.1' width='10px' height='73px' xmlns='http://www.w3.org/2000/svg' xmlns:xlink='http://www.w3.org/1999/xlink'>
	<g transform="translate(-80.9279,-110.137)">
		<path d="M 80.9279 122.506 Q 80.9279 121.74 81.1059 121.037 Q 81.2838 120.2 81.5588 119.557 Q 82.775 116.615 84.2441 113.537 Q 84.5706 112.793 84.8324 112.243 Q 84.9632 112.019 85.0456 111.828 Q 85.1118 111.587 85.1794 111.412 Q 85.5515 110.253 86.9044 110.176 Q 90.5912 109.646 90.2191 116.285 Q 89.8132 123.378 89.6441 128.678 Q 89.6103 129.897 89.5765 131.082 Q 89.5765 131.182 89.5765 131.249 Q 89.5426 135.309 89.5765 139.099 L 89.6441 139.131 Q 89.6103 139.699 89.6103 140.266 L 89.6441 140.265 Q 89.6441 142.185 89.6441 144.072 L 89.6103 144.104 Q 89.5088 154.247 89.5765 163.443 Q 89.5765 163.626 89.5765 163.81 Q 89.6103 167.053 89.7118 170.059 Q 89.7456 170.825 89.6015 171.51 Q 89.4412 172.229 89.2162 172.737 Q 88.7824 174.056 88.3985 175.274 Q 87.9044 177.134 87.2074 178.622 Q 86.9324 179.231 86.7206 179.594 Q 86.475 180.126 86.3397 180.476 Q 85.7985 182.494 84.1412 182.212 Q 81.1647 182.013 81.0971 175.354 Q 81.0632 168.944 81.1309 156.175 Q 81.1309 155.991 81.1309 155.807 Q 81.1647 146.396 81.2324 135.529 Q 81.0971 135.499 80.9956 135.468 L 80.9618 126.75 Q 80.9279 125.247 80.9279 123.71 Q 80.9279 123.125 80.9279 122.574 L 80.9279 122.506" fill="#0066CC"/>
	</g>
</svg>
