<?xml version="1.0"?>
<!DOCTYPE svg PUBLIC "-//W3C//DTD SVG 1.1//EN" "http://www.w3.org/Graphics/SVG/1.1/DTD/svg11.dtd">
<svg version='1.1' width='38px' height='49px' xmlns='http://www.w3.org/2000/svg' xmlns:xlink='http://www.w3.org/1999/xlink'>
	<g transform="translate(-75.6,-127.825)">
		<path d="M 75.6 136.855 Q 75.7 135.955 75.9947 135.2 Q 76.0763 134.95 76.1895 134.732 Q 76.1895 134.682 76.2211 134.663 Q 76.9211 132.871 78.3395 131.992 Q 79.0316 131.716 79.8184 131.566 Q 80.0553 131.516 80.3237 131.497 Q 83.0289 131.376 86.0526 131.345 Q 86.0842 131.345 86.1158 131.326 Q 86.8711 131.334 87.6579 131.342 L 87.6895 131.342 L 93.1737 131.189 Q 93.2184 131.208 93.3 131.226 Q 93.5184 131.189 93.7368 131.184 Q 93.7868 131.184 93.8368 131.216 Q 99.4816 130.168 104.121 128.503 Q 104.595 128.139 105.289 127.997 Q 105.863 127.742 106.766 127.866 Q 108.063 127.711 109.355 128.453 Q 109.374 128.453 109.392 128.484 Q 109.697 128.613 110.003 128.755 Q 110.587 128.995 111.084 129.487 Q 111.892 130.232 112.495 131.692 Q 112.7 132.179 112.855 132.666 Q 112.924 132.866 112.992 133.097 Q 113.237 134.721 113.411 136.703 Q 113.411 136.803 113.411 136.903 Q 113.487 140.35 113.195 144.466 Q 113.079 145.939 113.013 147.476 Q 113.013 147.526 113.013 147.576 Q 112.805 150.261 112.729 153.247 Q 112.729 153.247 112.729 153.247 Q 112.645 155.326 112.629 157.5 Q 112.558 160.297 112.537 163.239 Q 112.534 165.718 112.582 168.292 Q 112.582 168.392 112.582 168.492 Q 112.321 172.584 110.576 174.655 Q 110.463 174.811 110.318 174.934 Q 110.174 175.058 110.029 175.15 Q 109.947 175.255 109.897 175.329 Q 109.526 175.645 109.1 175.747 Q 108.855 175.839 108.592 175.85 Q 107.911 175.976 107.213 175.779 Q 105.116 175.274 104.434 171.897 Q 104.353 171.584 104.303 171.271 Q 103.182 166.318 102.908 161.568 Q 102.787 159.395 102.779 157.321 Q 102.779 157.321 102.779 157.289 Q 102.508 148.055 103.255 141.011 Q 103.034 140.711 102.826 140.424 Q 99.3526 141.324 95.4658 141.955 Q 95.3474 142.005 95.2289 142.024 Q 93.4553 142.416 91.6447 142.789 Q 91.5632 142.808 91.5184 142.826 L 88.7447 143.579 Q 88.6947 143.579 88.6447 143.611 Q 86.4947 144.082 84.5658 144.205 Q 84.5658 144.205 84.5658 144.224 Q 78.0816 144.526 75.7789 137.566 Q 75.6605 137.266 75.6368 136.966 L 75.6 136.855" fill="#0066CC"/>
	</g>
</svg>
