<?xml version="1.0"?>
<!DOCTYPE svg PUBLIC "-//W3C//DTD SVG 1.1//EN" "http://www.w3.org/Graphics/SVG/1.1/DTD/svg11.dtd">
<svg version='1.1' width='11px' height='64px' xmlns='http://www.w3.org/2000/svg' xmlns:xlink='http://www.w3.org/1999/xlink'>
	<g transform="translate(-83.0882,-111.206)">
		<path d="M 83.0882 116.426 Q 83.0882 115.641 83.4765 115.053 Q 83.8647 114.35 84.4647 114.071 Q 87 112.791 89.6735 111.453 Q 90.2676 111.129 90.7206 111.229 Q 90.9471 111.274 91.0676 111.388 Q 91.1529 111.453 91.1824 111.603 Q 91.3441 112.088 91.9324 113.044 Q 93.5353 115.018 93.3735 120.109 Q 93.1971 126.188 93.1235 131.488 Q 93.1088 132.612 93.0941 133.721 Q 93.0941 133.821 93.0941 133.906 Q 93.0794 137.565 93.0941 141.106 L 93.1235 141.176 Q 93.1088 141.706 93.1088 142.235 L 93.1235 142.291 Q 93.1235 144.059 93.1235 145.812 L 93.1088 145.882 Q 93.0647 155.012 93.0941 163.729 Q 93.0941 163.894 93.0941 164.059 Q 93.1088 166.938 93.1529 169.715 Q 93.1676 170.5 92.7941 171.109 Q 92.3853 171.732 91.8353 171.953 Q 90.7706 172.526 89.7559 173.056 Q 88.3824 173.865 86.9206 174.512 Q 86.3206 174.776 85.9176 174.624 Q 85.5 174.544 85.4412 174.244 Q 85.2059 173.624 84.4853 172.003 Q 83.1912 169.797 83.1618 164.782 Q 83.1471 157.474 83.1765 147.4 Q 83.1765 147.235 83.1765 147.071 Q 83.1912 138.118 83.2206 128.532 Q 83.1618 128.406 83.1176 128.279 L 83.1029 120.25 Q 83.0882 118.862 83.0882 117.459 Q 83.0882 116.95 83.0882 116.456 L 83.0882 116.426" fill="#0066CC"/>
	</g>
</svg>
