<?xml version="1.0"?>
<!DOCTYPE svg PUBLIC "-//W3C//DTD SVG 1.1//EN" "http://www.w3.org/Graphics/SVG/1.1/DTD/svg11.dtd">
<svg version='1.1' width='48px' height='23px' xmlns='http://www.w3.org/2000/svg' xmlns:xlink='http://www.w3.org/1999/xlink'>
	<g transform="translate(-28.0588,-112.026)">
		<path d="M 28.0588 125.576 Q 28.0941 124.812 28.4853 124.226 Q 28.55 124.109 28.6324 123.991 Q 28.8765 123.671 29.1706 123.515 Q 29.3882 123.376 29.6735 123.324 Q 29.7235 123.306 29.7735 123.306 Q 30.0382 123.271 30.3382 123.271 Q 35.3206 123.218 40.0735 122.424 Q 41.9235 122.124 43.7559 121.7 Q 45.1353 121.4 46.4971 121.065 Q 58.6529 117.941 69.45 112.788 Q 70.8559 111.976 72.35 112.029 Q 73.0794 112.065 73.6647 112.632 Q 74.2471 113.165 74.4588 113.982 Q 74.6529 114.815 74.8471 115.771 Q 75.3235 118.294 75.2706 120.676 Q 75.2529 121.441 74.7941 122.009 Q 74.5147 122.412 74.1529 122.685 Q 73.9382 122.824 73.6912 122.929 Q 67.1676 125.982 60.2206 128.312 Q 57.9353 129.106 55.5971 129.829 Q 53.6912 130.394 51.75 130.906 Q 49.7559 131.4 47.7971 131.929 Q 47.7147 131.947 47.65 131.947 L 47.65 131.929 Q 46.5206 132.194 45.3912 132.424 Q 45.1588 132.459 44.9441 132.494 Q 44.4088 132.635 43.8735 132.759 Q 43.7912 132.776 43.6912 132.794 Q 40.1441 133.518 36.4912 134.047 Q 33.85 134.453 31.4206 134.118 Q 30.6412 134.029 30.0735 133.515 Q 29.4706 132.982 29.2412 132.2 Q 28.8 130.491 28.4471 128.482 Q 28.2529 127.1 28.0765 125.647 L 28.0588 125.576" fill="#0066CC"/>
	</g>
</svg>
