<?xml version="1.0"?>
<!DOCTYPE svg PUBLIC "-//W3C//DTD SVG 1.1//EN" "http://www.w3.org/Graphics/SVG/1.1/DTD/svg11.dtd">
<svg version='1.1' width='40px' height='50px' xmlns='http://www.w3.org/2000/svg' xmlns:xlink='http://www.w3.org/1999/xlink'>
	<g transform="translate(-72,-128.146)">
		<path d="M 72 140.503 Q 72.1 139.603 72.3474 138.8 Q 72.4132 138.55 72.4947 138.316 Q 72.4947 138.266 72.5105 138.232 Q 73.2105 136.361 74.6447 135.371 Q 75.4158 135.158 76.2342 135.008 Q 76.5026 134.958 76.7868 134.924 Q 79.5395 134.613 82.6263 134.297 Q 82.6421 134.297 82.6579 134.263 Q 83.4605 134.192 84.2789 134.121 L 84.2947 134.121 L 89.9368 133.495 Q 89.9342 133.529 90 133.563 Q 90.2342 133.495 90.4684 133.442 Q 90.5184 133.442 90.5684 133.458 Q 96.1658 131.984 101.011 129.876 Q 101.547 129.545 102.195 129.324 Q 102.832 129.021 103.608 128.908 Q 105.032 128.405 106.403 128.326 Q 106.437 128.326 106.471 128.342 Q 106.824 128.282 107.176 128.203 Q 107.918 128.047 108.542 128.318 Q 109.571 128.716 110.347 130.271 Q 110.6 130.789 110.803 131.308 Q 110.887 131.508 110.971 131.724 Q 111.468 133.411 111.705 135.376 Q 111.705 135.476 111.705 135.576 Q 112.018 139.15 111.347 143.408 Q 111.089 144.945 110.882 146.513 Q 110.882 146.563 110.882 146.613 Q 110.453 149.455 110.139 152.474 Q 110.139 152.474 110.139 152.474 Q 109.897 154.663 109.739 156.9 Q 109.479 159.824 109.268 162.845 Q 109.092 165.434 108.966 168.071 Q 108.966 168.171 108.966 168.271 Q 108.611 172.142 107.513 175.003 Q 107.432 175.205 107.334 175.392 Q 107.237 175.579 107.139 175.75 Q 107.074 175.903 107.024 176.039 Q 106.763 176.497 106.4 176.774 Q 106.203 176.945 105.971 177.05 Q 105.305 177.413 104.482 177.389 Q 101.958 177.437 101.292 173.824 Q 101.226 173.542 101.176 173.261 Q 100.166 168.134 100.129 163.084 Q 100.118 160.847 100.189 158.711 Q 100.189 158.711 100.189 158.695 Q 100.329 149.303 101.503 141.705 Q 101.092 141.705 100.663 141.687 Q 97.1263 142.887 93.2079 143.803 Q 93.0737 143.853 92.9395 143.887 Q 91.1026 144.358 89.1974 144.795 Q 89.1316 144.829 89.1342 144.863 L 86.2974 145.789 Q 86.2474 145.789 86.1974 145.805 Q 84.0474 146.466 82.0079 146.953 Q 82.0079 146.953 82.0079 146.987 Q 75.0658 148.363 72.2895 141.308 Q 72.1553 141.008 72.0684 140.708 L 72 140.503" fill="#0066CC"/>
	</g>
</svg>
