<?xml version="1.0"?>
<!DOCTYPE svg PUBLIC "-//W3C//DTD SVG 1.1//EN" "http://www.w3.org/Graphics/SVG/1.1/DTD/svg11.dtd">
<svg version='1.1' width='45px' height='37px' xmlns='http://www.w3.org/2000/svg' xmlns:xlink='http://www.w3.org/1999/xlink'>
	<g transform="translate(-27.5441,-111.59)">
		<path d="M 27.5441 138.732 Q 27.6206 138.009 27.8265 137.382 Q 27.85 137.244 27.9118 137.106 Q 28.0324 136.703 28.2029 136.424 Q 28.4412 136.182 28.7676 136.068 Q 28.8176 136.029 28.8676 136.029 Q 29.0912 135.953 29.3912 135.953 Q 34.7029 135.838 39.5176 134.118 Q 41.3676 133.468 43.1794 132.55 Q 44.4765 131.9 45.7353 131.174 Q 56.9647 124.406 65.25 113.241 Q 66.4294 111.482 67.8 111.597 Q 68.4471 111.674 69.0735 112.262 Q 69.6353 112.774 70.0941 113.612 Q 70.5147 114.424 70.9353 115.503 Q 71.9676 118.171 71.8529 120.532 Q 71.8147 121.256 71.5206 121.844 Q 71.3235 122.309 71.0647 122.726 Q 70.8912 122.968 70.7059 123.197 Q 65.7882 129.812 59.9529 134.859 Q 57.9765 136.579 55.8853 138.147 Q 54.2059 139.371 52.45 140.479 Q 50.5794 141.55 48.7853 142.697 Q 48.7235 142.735 48.7 142.735 L 48.7 142.697 Q 47.6529 143.271 46.6059 143.768 Q 46.3941 143.844 46.2206 143.921 Q 45.6441 144.226 45.0676 144.494 Q 45.0059 144.532 44.9059 144.571 Q 41.4206 146.138 37.7059 147.285 Q 34.9 148.165 32.5529 147.438 Q 31.8559 147.247 31.2676 146.774 Q 30.6029 146.262 30.1059 145.5 Q 29.15 143.956 28.3853 141.762 Q 27.9647 140.4 27.5824 138.885 L 27.5441 138.732" fill="#0066CC"/>
	</g>
</svg>
