<?xml version="1.0"?>
<!DOCTYPE svg PUBLIC "-//W3C//DTD SVG 1.1//EN" "http://www.w3.org/Graphics/SVG/1.1/DTD/svg11.dtd">
<svg version='1.1' width='12px' height='48px' xmlns='http://www.w3.org/2000/svg' xmlns:xlink='http://www.w3.org/1999/xlink'>
	<g transform="translate(-187.07,-122.989)">
		<path d="M 187.07 128.86 Q 187.19 128.1 187.31 127.39 Q 187.36 127.1 187.46 126.83 Q 187.61 126.56 187.7 126.32 Q 187.7 126.28 187.7 126.24 Q 187.86 125.56 188.26 124.92 Q 188.63 124.28 189.2 123.68 Q 189.25 123.68 189.3 123.64 Q 190.46 123.12 191.7 123 Q 192.4 123 193.1 123 Q 193.74 122.96 194.33 123.07 Q 194.48 123.1 194.62 123.13 Q 195.21 123.26 195.73 123.46 Q 195.93 123.55 196.13 123.64 L 196.25 123.68 Q 196.37 123.75 196.49 123.82 Q 196.57 123.88 196.65 123.98 Q 196.73 124.08 196.81 124.18 Q 197.33 124.97 197.57 125.97 Q 197.57 126.17 197.61 126.37 Q 197.61 126.52 197.65 126.67 Q 197.73 127.46 197.85 128.25 Q 197.97 129.45 198.05 130.69 Q 198.13 132.13 198.17 133.53 L 198.17 164.61 Q 198.17 165.25 198.05 165.84 Q 198 166.18 197.93 166.49 Q 197.78 166.87 197.66 167.23 Q 197.46 167.67 197.3 168.15 Q 196.84 169.47 195.42 170.03 Q 195.11 170.15 194.8 170.27 Q 194.2 170.51 193.6 170.71 Q 193.05 170.87 192.5 170.91 Q 191.82 170.99 191.15 170.8 Q 190.62 170.64 190.16 170.38 Q 189.99 170.3 189.83 170.17 Q 188.95 169.64 188.27 168.87 Q 187.91 168.46 187.63 168.01 Q 187.31 167.41 187.07 166.77 L 187.07 129.02 L 187.07 128.86" fill="#0066CC"/>
	</g>
</svg>
