<?xml version="1.0"?>
<!DOCTYPE svg PUBLIC "-//W3C//DTD SVG 1.1//EN" "http://www.w3.org/Graphics/SVG/1.1/DTD/svg11.dtd">
<svg version='1.1' width='26px' height='21px' xmlns='http://www.w3.org/2000/svg' xmlns:xlink='http://www.w3.org/1999/xlink'>
	<g transform="translate(-117.25,-152.836)">
		<path d="M 118.45 154.6 Q 118.5 154.55 118.6 154.45 Q 118.85 154.2 118.95 153.9 Q 119 153.8 119.05 153.7 Q 119.1 153.6 119.15 153.5 Q 119.25 153.4 119.35 153.3 Q 119.5 153.2 119.6 153.1 Q 120.35 153.05 121.1 152.9 Q 121.85 152.75 122.5 152.95 Q 123.25 153.15 124 153.3 Q 124.2 153.3 124.35 153.35 Q 124.858 153.952 125.45 154.45 Q 125.858 156.124 126.8 157.65 Q 127.775 159.174 128.75 160.55 Q 129.404 161.417 130.15 162.1 Q 130.194 162.15 130.225 162.2 Q 132.838 164.481 136.25 165.2 Q 138.323 165.667 140.35 166.325 Q 140.376 166.336 140.4 166.35 Q 140.451 166.37 140.5 166.4 Q 140.671 166.495 140.85 166.55 Q 140.902 166.569 140.95 166.6 Q 141.342 166.832 141.7 167.15 Q 141.7 167.312 141.7 167.475 Q 142.368 168.06 142.25 168.975 Q 142.275 169.137 142.275 169.3 Q 142.32 169.864 142.025 170.575 Q 141.999 171.138 141.65 171.85 Q 141.312 172.559 140.675 172.725 Q 140.369 172.964 139.95 173 L 139.95 173.05 Q 139.191 173.116 138.45 173.225 Q 138.464 173.176 138.475 173.125 Q 138.159 173.087 137.85 173.05 L 137.825 173.05 Q 135.528 172.97 133.15 172.45 Q 133.057 172.426 132.975 172.375 Q 132.734 172.315 132.5 172.25 Q 128.361 171.13 124.95 168.65 Q 124.886 168.601 124.85 168.55 Q 121.415 166.1 119.3 162.35 Q 117.984 160.107 117.25 157.675 Q 117.25 157.483 117.25 157.25 Q 117.25 157.15 117.25 157.05 Q 117.85 156.5 118.05 155.75 Q 118.15 155.45 118.3 155.15 Q 118.35 155 118.4 154.8 Q 118.45 154.7 118.45 154.6 Z" fill="#0066CC"/>
	</g>
</svg>
