<?xml version="1.0"?>
<!DOCTYPE svg PUBLIC "-//W3C//DTD SVG 1.1//EN" "http://www.w3.org/Graphics/SVG/1.1/DTD/svg11.dtd">
<svg version='1.1' width='29px' height='48px' xmlns='http://www.w3.org/2000/svg' xmlns:xlink='http://www.w3.org/1999/xlink'>
	<g transform="translate(-232.977,-127.357)">
		<path d="M 232.977 138.493 Q 233.047 136.39 233.047 135.5 Q 233.023 134.733 233.14 134.083 Q 233.4 131.567 234.893 130.217 Q 234.94 130.163 234.987 130.11 Q 235.383 129.73 235.757 129.35 Q 237.67 128.83 239.537 128.427 Q 239.533 128.427 239.557 128.427 Q 243.41 127.613 247.24 127.45 Q 247.613 127.427 247.987 127.403 Q 248.013 127.403 248.037 127.403 Q 248.313 127.38 248.613 127.357 Q 251.22 127.347 253.653 128.057 Q 253.653 128.057 253.677 128.057 Q 254.473 128.287 255.29 128.663 Q 255.317 128.663 255.367 128.663 Q 255.367 128.663 255.367 128.663 Q 255.89 128.82 256.363 129.12 Q 256.34 129.097 256.34 129.097 Q 258 129.98 259.017 131.543 Q 259.703 132.563 260.123 133.903 Q 260.123 133.903 260.123 133.927 Q 260.95 137.003 261.453 140.8 Q 261.453 140.8 261.453 140.85 Q 261.63 142.22 261.633 143.667 Q 261.633 143.817 261.61 143.967 Q 261.637 144.52 261.66 145.073 Q 261.707 146.77 261.753 148.467 Q 261.823 151.96 261.847 155.383 Q 261.87 155.583 261.87 155.807 Q 261.823 156.86 261.87 158.007 L 261.87 158.057 Q 262.01 163.033 261.87 167.637 Q 261.917 170.41 261.753 172.46 Q 261.683 173.213 261.273 173.717 Q 260.893 174.187 260.413 174.287 Q 260.26 174.337 260.083 174.36 Q 259.73 174.383 259.357 174.383 Q 258.733 174.36 258.087 174.43 Q 257.017 174.477 255.62 173.637 Q 254.72 173.357 253.82 172.447 Q 253.273 172.143 252.887 171.477 Q 252.523 170.81 252.43 169.94 Q 252.103 165.843 251.753 160.673 L 251.753 160.65 Q 251.707 159.483 251.683 158.433 Q 251.31 154.81 251.077 151 Q 250.913 148.203 250.773 145.36 Q 250.75 145.063 250.727 144.767 Q 250.633 143.893 250.677 143.09 Q 250.677 142.99 250.7 142.913 Q 250.65 142.413 250.67 141.963 Q 250.363 141.67 250.057 141.287 Q 249.963 141.08 249.773 140.873 Q 249.773 140.847 249.773 140.847 Q 249.393 140.38 248.897 139.99 Q 248.46 139.33 247.453 138.88 Q 247.453 138.88 247.453 138.853 Q 246.69 138.297 245.55 138.083 Q 245.5 138.057 245.45 138.057 Q 244.083 137.713 242.057 137.69 Q 241.46 137.69 240.863 137.717 Q 239 137.85 237.313 138.237 Q 234.123 138.567 232.977 138.587 L 232.977 138.493" fill="#0066CC"/>
	</g>
</svg>
