<?xml version="1.0"?>
<!DOCTYPE svg PUBLIC "-//W3C//DTD SVG 1.1//EN" "http://www.w3.org/Graphics/SVG/1.1/DTD/svg11.dtd">
<svg version='1.1' width='28px' height='66px' xmlns='http://www.w3.org/2000/svg' xmlns:xlink='http://www.w3.org/1999/xlink'>
	<g transform="translate(-193.271,-114.457)">
		<path d="M 193.307 124.44 Q 193.017 121.57 195.09 120.22 Q 196.227 119.477 198.063 119.257 Q 199.577 119.317 201.05 119.433 Q 204.82 119.703 208.467 120.567 Q 208.953 120.657 209.393 120.747 Q 209.47 119.337 209.59 117.987 Q 209.75 116.73 210.56 115.953 Q 211.32 115.173 212.687 114.823 Q 212.883 114.78 213.08 114.733 Q 213.173 114.737 213.267 114.74 Q 213.757 114.64 214.34 114.59 Q 215.323 114.473 216.453 114.46 Q 217.2 114.443 218.037 114.53 Q 220.313 114.703 220.25 115.853 Q 220.29 115.917 220.143 117.857 Q 220.063 118.8 219.983 120.16 Q 219.937 120.9 219.887 121.78 Q 219.84 122.27 219.793 122.763 Q 219.513 126.063 219.48 130.87 Q 219.44 133.62 219.5 136.91 Q 219.513 139.927 219.62 143.393 Q 219.843 151.417 220.06 157.7 Q 220.06 157.747 220.06 157.797 Q 220.103 159.023 220.163 160.213 Q 220.163 160.95 220.167 161.687 Q 220.223 163.853 220.253 165.83 Q 220.327 169.01 220.12 171.48 Q 219.993 173.087 219.75 174.347 Q 219.447 176.27 218.85 177.347 Q 218.743 177.58 218.59 177.813 Q 217.347 179.893 215.41 180.223 Q 214.39 180.407 213.2 180.11 Q 212.297 179.873 211.26 179.353 Q 210.417 178.883 209.48 178.273 Q 209.887 173.773 209.64 163.86 Q 209.59 162.777 209.587 161.647 Q 209.433 154.76 209.527 145.737 Q 209.527 144.797 209.523 143.86 Q 209.523 143.713 209.523 143.52 Q 209.52 142.49 209.517 141.507 Q 209.51 140.65 209.477 139.847 Q 209.277 136.553 209.057 133.323 Q 208.977 132.62 208.847 131.967 Q 208.733 131.547 208.523 131.173 Q 208.323 130.893 208.077 130.707 Q 207.683 130.29 207.197 130.013 Q 206.213 129.553 205.23 129.283 Q 204.937 129.193 204.643 129.103 Q 204.19 129.017 203.737 128.93 Q 202.063 128.517 200.397 128.1 L 200.393 128.1 Q 198.953 127.723 197.597 127.363 Q 196.82 127.11 196.053 126.847 Q 196.053 126.843 196.053 126.843 Q 195.283 126.58 194.667 126.177 Q 193.993 125.573 193.443 124.923 Q 193.35 124.727 193.307 124.533 L 193.307 124.44" fill="#0066CC"/>
	</g>
</svg>
