<?xml version="1.0"?>
<!DOCTYPE svg PUBLIC "-//W3C//DTD SVG 1.1//EN" "http://www.w3.org/Graphics/SVG/1.1/DTD/svg11.dtd">
<svg version='1.1' width='15px' height='70px' xmlns='http://www.w3.org/2000/svg' xmlns:xlink='http://www.w3.org/1999/xlink'>
	<g transform="translate(-161.732,-111.045)">
		<path d="M 161.732 113.732 Q 161.732 113.382 161.777 113.123 Q 162.005 112.814 162.277 112.595 Q 162.6 112.241 163.014 111.977 Q 163.377 111.714 163.741 111.541 Q 164.109 111.323 164.477 111.241 Q 164.659 111.164 164.841 111.136 Q 165.068 111.068 165.25 111.045 Q 165.614 111.055 165.932 111.064 Q 167.259 111.264 167.995 111.964 Q 168.409 112.473 168.827 113.032 Q 168.873 113.109 168.918 113.186 Q 170.123 115.709 171.073 118.373 Q 171.741 120.255 172.286 122.195 Q 172.936 124.905 173.482 127.636 Q 173.532 127.755 173.586 127.873 Q 173.7 128.4 173.823 128.932 Q 174.064 130.018 174.314 131.155 Q 174.386 131.509 174.464 131.868 Q 174.527 132.05 174.591 132.232 Q 174.605 132.368 174.623 132.555 Q 174.695 132.827 174.773 133.118 Q 174.773 133.164 174.777 133.209 Q 174.855 133.541 174.932 133.882 Q 175.009 134.223 175.091 134.573 Q 175.114 134.864 175.182 135.164 Q 175.232 135.464 175.282 135.768 Q 175.277 135.982 175.277 136.195 Q 175.232 136.25 175.277 136.305 Q 175.277 136.405 175.277 136.55 Q 175.359 137.759 175.441 138.968 Q 175.509 140.632 175.582 142.3 Q 175.677 145.123 175.773 147.945 Q 175.768 148.15 175.809 148.355 Q 175.836 149.864 175.864 151.373 Q 175.932 152.886 176.009 154.45 Q 176.041 155.559 176.073 156.668 Q 176.114 157.223 176.109 157.777 Q 176.109 158.082 176.155 158.386 Q 176.286 164.955 176.186 171.705 Q 176.186 172.864 176.05 174.068 Q 175.823 175.227 175.641 176.432 Q 175.323 177.541 175.05 178.695 Q 174.505 179.027 173.914 179.405 Q 173.055 179.909 172.059 180.136 Q 171.291 180.359 170.568 180.173 Q 170.023 180.041 169.618 179.864 Q 168.895 179.541 168.495 179.036 Q 168.405 178.914 168.314 178.791 Q 168.132 178.509 168.041 178.227 Q 168.05 177.295 168.059 176.364 Q 168.114 175.186 168.168 174.055 Q 168.168 173.732 168.173 173.455 Q 168.223 172.927 168.273 172.4 Q 168.377 170.9 168.441 169.445 Q 168.445 168.918 168.45 168.395 Q 168.45 168.155 168.455 167.923 Q 168.509 166.705 168.564 165.486 Q 168.573 164.595 168.627 163.709 Q 168.618 163.382 168.605 163.055 Q 168.6 162.932 168.591 162.809 Q 168.555 162.059 168.495 161.386 Q 168.459 160.959 168.418 160.527 Q 168.355 159.973 168.286 159.373 Q 168.2 158.541 168.123 157.686 Q 168.068 157.155 168.023 156.627 Q 167.945 155.518 167.868 154.409 Q 167.8 153.2 167.686 151.995 Q 167.577 150.786 167.482 149.577 Q 166.936 142.773 166.014 136.027 Q 165.968 135.773 165.923 135.518 Q 165.877 134.973 165.786 134.427 Q 165.555 133.164 165.282 131.909 Q 165.009 130.55 164.736 129.236 Q 164.373 127.473 164.005 125.755 Q 163.959 125.6 163.914 125.445 Q 163.368 122.877 162.823 120.4 Q 162.505 118.686 162.141 117.064 Q 161.959 115.55 161.732 114.036 Q 161.732 113.891 161.732 113.745 L 161.732 113.732" fill="#0066CC"/>
	</g>
</svg>
