<?xml version="1.0"?>
<!DOCTYPE svg PUBLIC "-//W3C//DTD SVG 1.1//EN" "http://www.w3.org/Graphics/SVG/1.1/DTD/svg11.dtd">
<svg version='1.1' width='12px' height='49px' xmlns='http://www.w3.org/2000/svg' xmlns:xlink='http://www.w3.org/1999/xlink'>
	<g transform="translate(-47.6882,-124.068)">
		<path d="M 47.6882 124.274 L 47.7882 124.276 Q 48.1676 124.259 48.5471 124.241 Q 48.5471 124.241 48.55 124.238 Q 51.4735 124.15 54.4029 124.068 Q 54.4529 124.068 54.5088 124.076 Q 55.0853 124.091 55.6765 124.124 Q 57.2647 124.171 58.8765 124.259 Q 58.9765 129.209 59.1471 134.226 Q 59.5206 147.512 59.5206 160.838 Q 59.5206 165.629 59.4912 170.318 Q 59.4382 171.1 58.9147 171.644 Q 58.3441 172.194 57.6294 172.221 Q 55.6206 172.341 53.5853 172.379 Q 51.9118 172.429 50.2559 172.324 Q 49.4912 172.3 48.9618 171.75 Q 48.3853 171.2 48.3735 170.406 Q 48.3471 168 48.3265 165.5 Q 48.2529 154.656 48.0794 143.888 Q 47.9176 134.803 47.7235 125.753 Q 47.7088 125.209 47.6941 124.665 Q 47.6912 124.515 47.6882 124.368 L 47.6882 124.274" fill="#0066CC"/>
	</g>
</svg>
