<?xml version="1.0"?>
<!DOCTYPE svg PUBLIC "-//W3C//DTD SVG 1.1//EN" "http://www.w3.org/Graphics/SVG/1.1/DTD/svg11.dtd">
<svg version='1.1' width='9px' height='83px' xmlns='http://www.w3.org/2000/svg' xmlns:xlink='http://www.w3.org/1999/xlink'>
	<g transform="translate(-79.2662,-107.384)">
		<path d="M 79.2662 127.182 Q 79.2662 126.431 79.2824 125.64 Q 79.2985 124.7 79.3235 123.778 Q 79.525 119.556 80.0676 115.14 Q 80.1882 114.072 80.3029 113.022 Q 80.3603 112.593 80.4132 112.166 Q 80.4647 111.69 80.5618 111.265 Q 81.0956 108.841 83.0368 107.971 Q 88.3265 105.513 87.7926 113.344 Q 87.2103 121.216 86.9676 126.516 Q 86.9191 127.809 86.8706 129.053 Q 86.8706 129.153 86.8706 129.204 Q 86.8221 133.574 86.8706 137.554 L 86.9676 137.557 Q 86.9191 138.154 86.9191 138.751 L 86.9676 138.706 Q 86.9676 140.744 86.9676 142.734 L 86.9191 142.737 Q 86.7735 153.659 86.8706 163.222 Q 86.8706 163.421 86.8706 163.619 Q 86.9191 167.141 87.0647 170.324 Q 87.1132 171.075 87.1456 171.819 Q 87.1765 172.612 87.2015 173.34 Q 87.2529 175.232 87.3544 176.979 Q 87.5368 179.649 87.4279 181.784 Q 87.4029 182.657 87.3382 183.418 Q 87.225 184.421 87.0309 185.271 Q 86.2544 189.318 83.8765 190.065 Q 79.6059 191.41 79.5088 183.487 Q 79.4603 177.768 79.5574 162.925 Q 79.5574 162.726 79.5574 162.528 Q 79.6059 152.763 79.7029 140.912 Q 79.5088 140.954 79.3632 140.997 L 79.3147 131.75 Q 79.2662 130.159 79.2662 128.519 Q 79.2662 127.875 79.2662 127.279 L 79.2662 127.182" fill="#0066CC"/>
	</g>
</svg>
