<?xml version="1.0"?>
<!DOCTYPE svg PUBLIC "-//W3C//DTD SVG 1.1//EN" "http://www.w3.org/Graphics/SVG/1.1/DTD/svg11.dtd">
<svg version='1.1' width='34px' height='47px' xmlns='http://www.w3.org/2000/svg' xmlns:xlink='http://www.w3.org/1999/xlink'>
	<g transform="translate(-85.1333,-126.829)">
		<path d="M 85.1333 131.3 Q 85.45 130.333 86.1167 129.617 Q 86.1333 129.567 86.1833 129.567 Q 86.8 128.65 87.6167 128 Q 87.6 128 87.6 128 Q 88.5333 127.267 89.7833 126.983 Q 89.9833 126.933 90.2167 126.917 Q 92.8333 126.733 95.7 126.933 Q 96.3833 127 97.1 127.083 Q 97.15 127.083 97.1667 127.083 Q 100.05 127.283 102.783 127.767 Q 102.833 127.767 102.883 127.8 Q 106.217 127.967 108.933 128.367 Q 110.483 128.517 111.833 128.7 Q 112.183 128.583 112.75 128.717 Q 113.167 128.767 113.933 129.233 Q 114.867 129.833 115.767 131.467 Q 115.767 131.483 115.767 131.533 Q 116.917 133.867 117.567 136.933 Q 117.567 136.983 117.567 137.083 Q 117.6 137.267 117.633 137.483 Q 117.6 139.017 117.667 140.85 Q 117.667 140.95 117.667 141.05 Q 117.467 145.533 117.733 150.783 Q 117.733 150.833 117.733 150.883 Q 117.767 153.333 117.9 156.083 L 117.9 156.083 Q 118.067 160.967 118.4 166.35 Q 118.417 167.083 118.267 167.733 Q 118.1 168.383 117.867 168.883 Q 117.75 169.183 117.65 169.483 Q 117.617 169.55 117.583 169.617 Q 116.517 172.517 113.883 173.283 Q 113.733 173.35 113.55 173.383 Q 113.367 173.417 113.183 173.417 Q 113.083 173.45 113.017 173.433 Q 112.617 173.45 112.267 173.333 Q 112.15 173.317 112.033 173.267 Q 111.767 173.183 111.517 173.033 Q 111.167 172.85 110.9 172.583 Q 109.467 170.967 109 167.417 Q 107.767 160.783 107.567 154.65 L 107.567 154.617 Q 107.333 150.9 107.233 147.517 Q 107.167 144.617 107.117 142.083 Q 107.117 142.067 107.117 142.067 Q 107.017 140.083 106.917 138.533 Q 106.833 138.5 106.75 138.467 Q 106.75 138.483 106.767 138.483 Q 105.667 138.283 104.4 138.267 Q 104.3 138.25 104.217 138.25 Q 102.567 138.217 100.583 138.35 Q 100.45 138.35 100.317 138.35 Q 100.217 138.383 100.117 138.383 Q 97.9 138.717 95.6333 139.35 Q 94.85 139.55 94.0667 139.767 Q 94.0167 139.767 93.9667 139.8 Q 92 140.3 90.3333 140.517 Q 86.3333 138.15 85.1667 131.833 Q 85.1333 131.633 85.1333 131.433 L 85.1333 131.3" fill="#0066CC"/>
	</g>
</svg>
