<?xml version="1.0"?>
<!DOCTYPE svg PUBLIC "-//W3C//DTD SVG 1.1//EN" "http://www.w3.org/Graphics/SVG/1.1/DTD/svg11.dtd">
<svg version='1.1' width='26px' height='59px' xmlns='http://www.w3.org/2000/svg' xmlns:xlink='http://www.w3.org/1999/xlink'>
	<g transform="translate(-146.58,-117.5)">
		<path d="M 146.58 119.98 Q 146.58 119.657 146.657 119.38 Q 146.804 119.104 147.028 118.902 Q 147.052 118.852 147.102 118.802 Q 147.4 118.478 147.824 118.254 Q 147.974 118.18 148.124 118.13 Q 148.374 118.033 148.65 117.933 Q 149.05 117.785 149.476 117.709 Q 149.9 117.609 150.326 117.557 Q 150.726 117.528 151.102 117.5 Q 152.343 117.563 153.378 117.863 Q 153.63 117.957 153.859 118.05 Q 154.339 118.237 154.796 118.448 Q 157.087 119.696 159.261 121.25 Q 160.952 122.398 162.363 123.674 Q 163.391 124.565 164.265 125.535 Q 164.265 125.559 164.291 125.609 Q 165.322 126.654 166.274 127.857 Q 167.2 129.033 168.024 130.389 Q 168.024 130.413 168.05 130.437 Q 168.411 130.98 168.72 131.6 Q 169.572 133.235 170.161 135.102 Q 170.163 135.178 170.213 135.28 Q 170.239 135.38 170.265 135.504 Q 170.42 136.026 170.548 136.548 L 170.522 136.548 Q 171.346 139.954 171.465 144.039 L 171.513 146.361 Q 171.513 146.561 171.537 146.761 Q 171.609 149.683 171.68 152.628 Q 171.728 154.252 171.752 155.876 Q 171.752 156.176 171.776 156.476 Q 171.872 162.898 171.824 169.415 Q 171.824 170.539 171.752 171.687 Q 171.68 172.385 171.609 173.083 Q 171.561 173.483 171.433 173.88 Q 171.307 174.228 171.128 174.55 Q 170.748 175.146 170.261 175.557 Q 170.211 175.58 170.137 175.604 Q 169.613 175.724 169.089 175.867 Q 168.165 176.083 167.17 176.154 Q 166.346 176.226 165.546 176.083 Q 164.074 175.82 162.985 175.341 Q 162.985 175.341 162.985 175.341 Q 162.557 175.076 162.276 174.733 Q 162.146 174.583 162.041 174.407 Q 161.728 173.833 161.728 173.154 Q 161.752 171.357 161.776 169.609 Q 161.776 169.235 161.776 168.885 Q 161.848 166.437 161.896 164.013 Q 161.92 161.641 161.943 159.27 Q 161.943 157.822 161.967 156.374 Q 161.967 155.35 161.967 154.374 Q 161.967 148.928 161.8 143.483 Q 161.8 143.333 161.8 143.209 Q 161.7 141.88 161.443 140.761 Q 161.417 140.737 161.417 140.687 Q 161.109 139.615 160.591 138.804 Q 159.972 137.796 159.091 137.048 Q 159.065 137.022 159.065 137.022 Q 157.98 135.933 156.846 135.05 Q 155.815 134.022 154.552 133.176 Q 154.039 132.848 153.526 132.57 Q 153.5 132.546 153.5 132.522 Q 152.498 131.865 151.498 131.287 Q 150.422 130.639 149.372 130.093 Q 149.141 129.98 148.885 129.789 Q 148.757 129.693 148.602 129.598 Q 148.113 129.287 147.754 128.713 Q 147.37 128.02 147.25 127.22 Q 147.202 126.796 147.154 126.372 Q 146.987 124.698 146.796 123.072 Q 146.7 121.574 146.58 120.076 L 146.58 119.98" fill="#0066CC"/>
	</g>
</svg>
