<?xml version="1.0"?>
<!DOCTYPE svg PUBLIC "-//W3C//DTD SVG 1.1//EN" "http://www.w3.org/Graphics/SVG/1.1/DTD/svg11.dtd">
<svg version='1.1' width='24px' height='75px' xmlns='http://www.w3.org/2000/svg' xmlns:xlink='http://www.w3.org/1999/xlink'>
	<g transform="translate(-198.834,-109.975)">
		<path d="M 198.855 125.014 Q 199.332 120.527 203.65 118.905 Q 208.609 117.391 212.591 116.473 Q 212.627 116.445 212.664 116.418 Q 212.664 114.782 212.85 113.345 Q 212.877 113.205 212.905 113.064 Q 213.191 111.823 214.091 111.091 Q 215.241 110.114 217.4 109.982 Q 218.777 109.918 219.827 110.418 Q 219.864 110.432 219.9 110.445 Q 220.455 110.759 221.118 111.145 Q 222.786 111.823 222.65 113.227 Q 222.582 114.395 222.105 120.655 Q 221.523 128.832 221.882 141.909 Q 221.882 142.286 221.882 142.664 Q 222.182 156.605 222.495 166.923 Q 222.718 173.586 222.177 177.741 Q 222.009 178.768 221.741 179.577 Q 220.705 182.623 218.582 183.677 Q 216.518 185.277 213.295 183.595 Q 212.982 182.432 212.473 180.318 Q 212.773 175.986 212.745 168.595 Q 212.7 165.118 212.7 160.995 Q 212.677 154.732 212.645 147.005 Q 212.645 146.855 212.645 146.668 Q 212.568 141.127 212.45 135.405 Q 212.4 134.614 212.314 133.859 Q 212.241 133.382 212.082 132.941 Q 211.936 132.627 211.755 132.386 Q 211.45 131.909 211.073 131.541 Q 210.332 130.85 209.591 130.305 Q 209.373 130.136 209.155 129.968 Q 208.364 129.368 207.573 128.791 Q 205.345 129.25 203.236 128.727 Q 202.873 128.627 202.523 128.527 Q 201.668 128.25 200.923 127.945 Q 200.095 127.586 199.609 127.036 Q 199.073 126.341 198.841 125.555 Q 198.823 125.327 198.855 125.086 L 198.855 125.014" fill="#0066CC"/>
	</g>
</svg>
