<?xml version="1.0"?>
<!DOCTYPE svg PUBLIC "-//W3C//DTD SVG 1.1//EN" "http://www.w3.org/Graphics/SVG/1.1/DTD/svg11.dtd">
<svg version='1.1' width='17px' height='72px' xmlns='http://www.w3.org/2000/svg' xmlns:xlink='http://www.w3.org/1999/xlink'>
	<g transform="translate(-157.972,-109.926)">
		<path d="M 157.972 112.372 Q 157.972 112.026 158.026 111.772 Q 158.217 111.517 158.463 111.359 Q 158.509 111.309 158.559 111.259 Q 158.9 110.913 159.346 110.667 Q 159.496 110.572 159.646 110.522 Q 159.896 110.38 160.15 110.28 Q 160.55 110.089 160.954 110.035 Q 161.4 109.935 161.804 109.926 Q 162.204 109.963 162.559 110 Q 163.974 110.302 164.813 111.102 Q 165.022 111.326 165.185 111.55 Q 165.557 111.998 165.883 112.491 Q 167.348 115.283 168.543 118.25 Q 169.409 120.441 170.102 122.696 Q 170.565 124.261 170.961 125.839 Q 170.961 125.885 170.965 125.935 Q 171.387 127.567 171.796 129.226 Q 172.2 130.88 172.546 132.607 Q 172.546 132.652 172.55 132.698 Q 172.693 133.372 172.828 134.1 Q 173.137 136.039 173.443 138.059 Q 173.402 138.113 173.452 138.172 Q 173.457 138.272 173.461 138.417 Q 173.528 139.004 173.591 139.591 L 173.587 139.591 Q 173.933 143.367 174.161 147.257 L 174.252 149.643 Q 174.252 149.843 174.298 150.043 Q 174.435 153.03 174.572 156.063 Q 174.663 157.709 174.709 159.354 Q 174.709 159.654 174.754 159.954 Q 174.937 166.441 174.846 173.111 Q 174.846 174.257 174.709 175.448 Q 174.572 176.189 174.435 176.93 Q 174.343 177.33 174.28 177.772 Q 174.176 178.163 174.063 178.55 Q 173.791 179.233 173.543 179.926 Q 173.493 179.972 173.398 180.017 Q 172.852 180.246 172.307 180.52 Q 171.361 180.93 170.278 181.067 Q 169.433 181.204 168.633 180.93 Q 167.096 180.428 166.289 179.515 Q 166.289 179.515 166.289 179.515 Q 165.926 179.054 165.754 178.58 Q 165.733 178.43 165.715 178.276 Q 165.663 177.68 165.663 177.067 Q 165.709 175.226 165.754 173.435 Q 165.754 173.039 165.754 172.689 Q 165.891 170.198 165.983 167.752 Q 166.028 165.315 166.074 162.878 Q 166.074 161.387 166.12 159.896 Q 166.12 158.85 166.12 157.896 Q 166.12 152.363 165.8 146.83 Q 165.8 146.68 165.8 146.535 Q 165.7 145.272 165.574 144.043 Q 165.57 143.998 165.57 143.948 Q 165.435 142.811 165.265 141.717 Q 165.037 140.383 164.765 139.091 Q 164.761 139.087 164.761 139.087 Q 164.372 137.28 163.933 135.55 Q 163.511 133.587 163.009 131.654 Q 162.757 130.891 162.504 130.178 Q 162.5 130.133 162.5 130.087 Q 162.041 128.561 161.541 127.048 Q 160.987 125.357 160.437 123.724 Q 160.315 123.372 160.189 123.007 Q 160.126 122.824 160.059 122.641 Q 159.852 122.048 159.667 121.452 Q 159.478 120.628 159.25 119.828 Q 159.159 119.383 159.067 118.937 Q 158.748 117.241 158.383 115.637 Q 158.2 114.096 157.972 112.554 L 157.972 112.372" fill="#0066CC"/>
	</g>
</svg>
