<?xml version="1.0"?>
<!DOCTYPE svg PUBLIC "-//W3C//DTD SVG 1.1//EN" "http://www.w3.org/Graphics/SVG/1.1/DTD/svg11.dtd">
<svg version='1.1' width='39px' height='49px' xmlns='http://www.w3.org/2000/svg' xmlns:xlink='http://www.w3.org/1999/xlink'>
	<g transform="translate(-74.4,-128.114)">
		<path d="M 74.4 138.071 Q 74.5 137.171 74.7789 136.4 Q 74.8553 136.15 74.9579 135.926 Q 74.9579 135.876 74.9842 135.853 Q 75.6842 134.034 77.1079 133.118 Q 77.8263 132.863 78.6237 132.713 Q 78.8711 132.663 79.1447 132.639 Q 81.8658 132.455 84.9105 132.329 Q 84.9368 132.329 84.9632 132.305 Q 85.7342 132.287 86.5316 132.268 L 86.5579 132.268 L 92.0947 131.958 Q 92.1237 131.982 92.2 132.005 Q 92.4237 131.958 92.6474 131.937 Q 92.6974 131.937 92.7474 131.963 Q 98.3763 130.774 103.084 128.961 Q 103.579 128.608 104.258 128.439 Q 104.853 128.168 105.713 128.213 Q 107.053 127.942 108.371 128.411 Q 108.395 128.411 108.418 128.437 Q 108.739 128.503 109.061 128.571 Q 109.697 128.679 110.237 129.097 Q 111.118 129.726 111.779 131.218 Q 112 131.716 112.171 132.213 Q 112.245 132.413 112.318 132.639 Q 112.647 134.284 112.842 136.261 Q 112.842 136.361 112.842 136.461 Q 112.997 139.95 112.579 144.113 Q 112.416 145.608 112.303 147.155 Q 112.303 147.205 112.303 147.255 Q 112.021 149.992 111.866 152.989 Q 111.866 152.989 111.866 152.989 Q 111.729 155.105 111.666 157.3 Q 111.532 160.139 111.447 163.108 Q 111.387 165.624 111.376 168.218 Q 111.376 168.318 111.376 168.418 Q 111.084 172.437 109.555 174.771 Q 109.453 174.942 109.324 175.087 Q 109.195 175.232 109.066 175.35 Q 108.989 175.471 108.939 175.566 Q 108.605 175.929 108.2 176.089 Q 107.971 176.208 107.718 176.25 Q 107.042 176.455 106.303 176.316 Q 104.063 175.995 103.387 172.539 Q 103.311 172.237 103.261 171.934 Q 102.176 166.924 101.982 162.074 Q 101.897 159.879 101.916 157.784 Q 101.916 157.784 101.916 157.758 Q 101.782 148.471 102.671 141.242 Q 102.387 141.042 102.105 140.845 Q 98.6105 141.845 94.7132 142.571 Q 94.5895 142.621 94.4658 142.645 Q 92.6711 143.063 90.8289 143.458 Q 90.7526 143.482 90.7237 143.505 L 87.9289 144.316 Q 87.8789 144.316 87.8289 144.342 Q 85.6789 144.876 83.7132 145.121 Q 83.7132 145.121 83.7132 145.145 Q 77.0763 145.805 74.6158 138.813 Q 74.4921 138.513 74.4474 138.213 L 74.4 138.071" fill="#0066CC"/>
	</g>
</svg>
