<?xml version="1.0"?>
<!DOCTYPE svg PUBLIC "-//W3C//DTD SVG 1.1//EN" "http://www.w3.org/Graphics/SVG/1.1/DTD/svg11.dtd">
<svg version='1.1' width='13px' height='48px' xmlns='http://www.w3.org/2000/svg' xmlns:xlink='http://www.w3.org/1999/xlink'>
	<g transform="translate(-47.9088,-127.487)">
		<path d="M 47.9088 128.207 L 48.0088 128.218 Q 48.3368 128.156 48.6647 128.094 Q 48.6647 128.094 48.675 128.084 Q 51.4074 127.775 54.1603 127.487 Q 54.2103 127.487 54.2809 127.518 Q 54.7985 127.569 55.3676 127.682 Q 56.8015 127.847 58.3176 128.156 Q 58.6676 132.731 59.2647 137.668 Q 60.5721 150.416 60.5721 163.309 Q 60.5721 168.078 60.4691 172.487 Q 60.4088 173.225 59.9515 173.754 Q 59.4544 174.304 58.8279 174.397 Q 57.0471 174.819 55.1735 174.953 Q 53.5662 175.128 52.0206 174.757 Q 51.3441 174.675 50.8662 174.125 Q 50.3485 173.575 50.3074 172.796 Q 50.2147 170.5 50.1426 168 Q 49.8853 157.421 49.2779 147.109 Q 48.7118 138.31 48.0324 129.635 Q 47.9809 129.106 47.9294 128.576 Q 47.9191 128.426 47.9088 128.287 L 47.9088 128.207" fill="#0066CC"/>
	</g>
</svg>
