<?xml version="1.0"?>
<!DOCTYPE svg PUBLIC "-//W3C//DTD SVG 1.1//EN" "http://www.w3.org/Graphics/SVG/1.1/DTD/svg11.dtd">
<svg version='1.1' width='45px' height='43px' xmlns='http://www.w3.org/2000/svg' xmlns:xlink='http://www.w3.org/1999/xlink'>
	<g transform="translate(-107.029,-28)">
		<path d="M 140.275 28.275 Q 141.086 28.1111 141.925 28 Q 143.636 28.5051 145.025 29.1 Q 153.159 32.5928 150.55 39.15 Q 148.242 44.9982 144.55 50.075 Q 144.858 50.0164 145.175 49.95 L 145.125 49.85 Q 147.136 50.8789 149.2 51.85 Q 149.2 55.3824 149.2 58.925 Q 141.999 54.2248 141.625 53.625 Q 132.957 63.4754 118.425 70.075 Q 115.216 71.5486 111.025 69.45 Q 104.1 65.9859 109.175 63.625 Q 123.781 56.7938 132.625 46.075 Q 138.622 38.7691 138.9 29.625 Q 138.898 29.3498 139 29.1 Q 139.141 28.7346 139.5 28.425 Q 139.873 28.3236 140.275 28.275 Z" fill="#0066CC"/>
	</g>
</svg>
