<?xml version="1.0"?>
<!DOCTYPE svg PUBLIC "-//W3C//DTD SVG 1.1//EN" "http://www.w3.org/Graphics/SVG/1.1/DTD/svg11.dtd">
<svg version='1.1' width='37px' height='49px' xmlns='http://www.w3.org/2000/svg' xmlns:xlink='http://www.w3.org/1999/xlink'>
	<g transform="translate(-78.6,-126.805)">
		<path d="M 78.6 133.816 Q 78.7 132.916 79.0342 132.2 Q 79.1289 131.95 79.2684 131.745 Q 79.2684 131.695 79.3132 131.689 Q 80.0132 129.963 81.4184 129.176 Q 82.0447 128.847 82.8053 128.697 Q 83.0158 128.647 83.2711 128.642 Q 85.9368 128.679 88.9079 128.884 Q 88.9526 128.884 88.9974 128.879 Q 89.7132 128.953 90.4737 129.026 L 90.5184 129.026 L 95.8711 129.268 Q 95.9553 129.274 96.05 129.279 Q 96.2553 129.268 96.4605 129.303 Q 96.5105 129.303 96.5605 129.347 Q 102.245 128.655 106.713 127.358 Q 107.134 126.968 107.868 126.892 Q 108.389 126.676 109.397 126.997 Q 110.589 127.132 111.816 128.558 Q 111.821 128.558 111.826 128.603 Q 112.092 128.889 112.358 129.216 Q 112.811 129.784 113.203 130.461 Q 113.826 131.495 114.284 132.876 Q 114.45 133.337 114.566 133.797 Q 114.621 133.997 114.676 134.242 Q 114.711 135.813 114.832 137.808 Q 114.832 137.908 114.832 138.008 Q 114.711 141.35 114.734 145.347 Q 114.737 146.768 114.789 148.279 Q 114.789 148.329 114.789 148.379 Q 114.766 150.932 114.887 153.892 Q 114.887 153.892 114.887 153.892 Q 114.934 155.879 115.037 158 Q 115.124 160.692 115.261 163.568 Q 115.403 165.955 115.595 168.476 Q 115.595 168.576 115.595 168.676 Q 115.413 172.953 113.129 174.366 Q 112.989 174.482 112.805 174.553 Q 112.621 174.624 112.437 174.65 Q 112.342 174.716 112.292 174.737 Q 111.829 174.934 111.35 174.892 Q 111.066 174.918 110.776 174.85 Q 110.082 174.779 109.489 174.437 Q 107.747 173.471 107.053 170.292 Q 106.958 169.953 106.908 169.613 Q 105.695 164.805 105.224 160.305 Q 105.011 158.184 104.937 156.163 Q 104.937 156.163 104.937 156.118 Q 104.324 147.016 104.716 140.432 Q 104.653 139.882 104.629 139.371 Q 101.208 140.021 97.3474 140.416 Q 97.2421 140.466 97.1368 140.471 Q 95.4158 140.797 93.6842 141.118 Q 93.5895 141.124 93.5053 141.129 L 90.7842 141.737 Q 90.7342 141.737 90.6842 141.782 Q 88.5342 142.095 86.6974 141.916 Q 86.6974 141.916 86.6974 141.921 Q 80.5947 141.329 78.6868 134.447 Q 78.5816 134.147 78.6105 133.847 L 78.6 133.816" fill="#0066CC"/>
	</g>
</svg>
