<?xml version="1.0"?>
<!DOCTYPE svg PUBLIC "-//W3C//DTD SVG 1.1//EN" "http://www.w3.org/Graphics/SVG/1.1/DTD/svg11.dtd">
<svg version='1.1' width='12px' height='48px' xmlns='http://www.w3.org/2000/svg' xmlns:xlink='http://www.w3.org/1999/xlink'>
	<g transform="translate(-184.03,-124.064)">
		<path d="M 184.03 128.607 Q 184.11 127.833 184.39 127.177 Q 184.507 126.9 184.673 126.67 Q 184.89 126.44 185.1 126.28 Q 185.1 126.253 185.1 126.227 Q 185.473 125.773 186.007 125.347 Q 186.537 124.92 187.2 124.52 Q 187.25 124.52 187.3 124.493 Q 188.473 124.147 189.7 124.067 Q 190.4 124.067 191.1 124.067 Q 191.793 124.04 192.37 124.297 Q 192.52 124.367 192.647 124.437 Q 193.157 124.673 193.503 125.007 Q 193.637 125.15 193.77 125.293 L 193.85 125.387 Q 193.93 125.483 194.01 125.58 Q 194.063 125.653 194.117 125.753 Q 194.17 125.853 194.223 125.953 Q 194.57 126.797 194.73 127.797 Q 194.73 127.997 194.757 128.197 Q 194.757 128.347 194.783 128.497 Q 194.837 129.273 194.917 130.05 Q 194.997 131.25 195.05 132.477 Q 195.103 133.903 195.13 135.303 L 195.13 166.223 Q 195.13 166.917 194.85 167.493 Q 194.733 167.82 194.57 168.077 Q 194.353 168.363 194.14 168.603 Q 193.807 168.897 193.5 169.217 Q 192.693 170.097 191.247 170.47 Q 190.923 170.55 190.6 170.63 Q 190 170.79 189.4 170.923 Q 188.85 171.03 188.3 171.057 Q 187.58 171.11 186.95 170.8 Q 186.447 170.56 186.107 170.22 Q 185.977 170.1 185.87 169.93 Q 185.283 169.227 184.83 168.363 Q 184.59 167.94 184.403 167.49 Q 184.19 166.89 184.03 166.263 L 184.03 128.713 L 184.03 128.607" fill="#0066CC"/>
	</g>
</svg>
