<?xml version="1.0"?>
<!DOCTYPE svg PUBLIC "-//W3C//DTD SVG 1.1//EN" "http://www.w3.org/Graphics/SVG/1.1/DTD/svg11.dtd">
<svg version='1.1' width='49px' height='19px' xmlns='http://www.w3.org/2000/svg' xmlns:xlink='http://www.w3.org/1999/xlink'>
	<g transform="translate(-28.2059,-112.151)">
		<path d="M 28.2059 121.818 Q 28.2294 121.041 28.6735 120.468 Q 28.75 120.356 28.8382 120.244 Q 29.1176 119.947 29.4471 119.826 Q 29.6588 119.718 29.9324 119.682 Q 29.9824 119.671 30.0324 119.671 Q 30.3088 119.647 30.6088 119.647 Q 35.4971 119.612 40.2324 119.082 Q 42.0824 118.882 43.9206 118.6 Q 45.3235 118.4 46.7147 118.176 Q 59.1353 116.094 70.65 112.659 Q 72.1206 112.118 73.65 112.153 Q 74.4029 112.176 74.9765 112.738 Q 75.5647 113.276 75.7059 114.088 Q 75.8353 114.926 75.9647 115.847 Q 76.2824 118.329 76.2471 120.718 Q 76.2353 121.494 75.7294 122.056 Q 75.4265 122.441 75.0353 122.674 Q 74.8088 122.782 74.5441 122.853 Q 67.5618 124.888 60.2971 126.441 Q 57.9235 126.971 55.5147 127.453 Q 53.5441 127.829 51.55 128.171 Q 49.5206 128.5 47.5147 128.853 Q 47.4265 128.865 47.35 128.865 L 47.35 128.853 Q 46.1971 129.029 45.0441 129.182 Q 44.8059 129.206 44.5794 129.229 Q 44.0559 129.324 43.5324 129.406 Q 43.4441 129.418 43.3441 129.429 Q 39.7794 129.912 36.1441 130.265 Q 33.55 130.535 31.0971 130.312 Q 30.2941 130.253 29.7324 129.726 Q 29.1471 129.188 28.9941 128.4 Q 28.7 126.644 28.4647 124.688 Q 28.3353 123.3 28.2176 121.865 L 28.2059 121.818" fill="#0066CC"/>
	</g>
</svg>
