<?xml version="1.0"?>
<!DOCTYPE svg PUBLIC "-//W3C//DTD SVG 1.1//EN" "http://www.w3.org/Graphics/SVG/1.1/DTD/svg11.dtd">
<svg version='1.1' width='11px' height='63px' xmlns='http://www.w3.org/2000/svg' xmlns:xlink='http://www.w3.org/1999/xlink'>
	<g transform="translate(-83.4206,-110.986)">
		<path d="M 83.4206 115.491 Q 83.4206 114.703 83.8412 114.132 Q 84.2618 113.45 84.9118 113.226 Q 87.65 112.203 90.5088 111.132 Q 91.1441 110.874 91.6265 111.074 Q 91.8676 111.159 91.9941 111.321 Q 92.0824 111.432 92.1059 111.632 Q 92.2353 112.371 92.7059 113.485 Q 93.9882 115.844 93.8588 120.697 Q 93.7176 126.621 93.6588 131.921 Q 93.6471 133.029 93.6353 134.126 Q 93.6353 134.226 93.6353 134.315 Q 93.6235 137.912 93.6353 141.415 L 93.6588 141.491 Q 93.6471 142.015 93.6471 142.538 L 93.6588 142.603 Q 93.6588 144.347 93.6588 146.079 L 93.6471 146.156 Q 93.6118 155.129 93.6353 163.774 Q 93.6353 163.935 93.6353 164.097 Q 93.6471 166.921 93.6824 169.662 Q 93.6941 170.45 93.2853 171.047 Q 92.8382 171.656 92.2382 171.832 Q 91.0765 172.291 89.9647 172.715 Q 88.4559 173.362 86.8765 173.879 Q 86.2265 174.091 85.7941 173.859 Q 85.35 173.685 85.3029 173.285 Q 85.1147 172.259 84.5382 170.432 Q 83.5029 167.918 83.4794 163.156 Q 83.4676 155.709 83.4912 146.05 Q 83.4912 145.888 83.4912 145.726 Q 83.5029 136.844 83.5265 127.456 Q 83.4794 127.315 83.4441 127.174 L 83.4324 119.25 Q 83.4206 117.879 83.4206 116.497 Q 83.4206 116 83.4206 115.515 L 83.4206 115.491" fill="#0066CC"/>
	</g>
</svg>
