<?xml version="1.0"?>
<!DOCTYPE svg PUBLIC "-//W3C//DTD SVG 1.1//EN" "http://www.w3.org/Graphics/SVG/1.1/DTD/svg11.dtd">
<svg version='1.1' width='12px' height='48px' xmlns='http://www.w3.org/2000/svg' xmlns:xlink='http://www.w3.org/1999/xlink'>
	<g transform="translate(-184.79,-123.796)">
		<path d="M 184.79 128.67 Q 184.88 127.9 185.12 127.23 Q 185.22 126.95 185.37 126.71 Q 185.57 126.47 185.75 126.29 Q 185.75 126.26 185.75 126.23 Q 186.07 125.72 186.57 125.24 Q 187.06 124.76 187.7 124.31 Q 187.75 124.31 187.8 124.28 Q 188.97 123.89 190.2 123.8 Q 190.9 123.8 191.6 123.8 Q 192.28 123.77 192.86 123.99 Q 193.01 124.05 193.14 124.11 Q 193.67 124.32 194.06 124.62 Q 194.21 124.75 194.36 124.88 L 194.45 124.96 Q 194.54 125.05 194.63 125.14 Q 194.69 125.21 194.75 125.31 Q 194.81 125.41 194.87 125.51 Q 195.26 126.34 195.44 127.34 Q 195.44 127.54 195.47 127.74 Q 195.47 127.89 195.5 128.04 Q 195.56 128.82 195.65 129.6 Q 195.74 130.8 195.8 132.03 Q 195.86 133.46 195.89 134.86 L 195.89 165.82 Q 195.89 166.5 195.65 167.08 Q 195.55 167.41 195.41 167.68 Q 195.21 167.99 195.02 168.26 Q 194.72 168.59 194.45 168.95 Q 193.73 169.94 192.29 170.36 Q 191.97 170.45 191.65 170.54 Q 191.05 170.72 190.45 170.87 Q 189.9 170.99 189.35 171.02 Q 188.64 171.08 188 170.8 Q 187.49 170.58 187.12 170.26 Q 186.98 170.15 186.86 169.99 Q 186.2 169.33 185.69 168.49 Q 185.42 168.07 185.21 167.62 Q 184.97 167.02 184.79 166.39 L 184.79 128.79 L 184.79 128.67" fill="#0066CC"/>
	</g>
</svg>
