<?xml version="1.0"?>
<!DOCTYPE svg PUBLIC "-//W3C//DTD SVG 1.1//EN" "http://www.w3.org/Graphics/SVG/1.1/DTD/svg11.dtd">
<svg version='1.1' width='17px' height='44px' xmlns='http://www.w3.org/2000/svg' xmlns:xlink='http://www.w3.org/1999/xlink'>
	<g transform="translate(-49.0118,-144.582)">
		<path d="M 49.0118 147.876 L 49.1118 147.924 Q 49.1824 147.641 49.2529 147.359 Q 49.2529 147.359 49.3 147.312 Q 51.0765 145.9 52.9471 144.582 Q 52.9971 144.582 53.1412 144.724 Q 53.3647 144.959 53.8235 145.476 Q 54.4853 146.229 55.5235 147.641 Q 57.1235 150.341 59.8529 154.874 Q 65.8294 164.938 65.8294 175.662 Q 65.8294 180.321 65.3588 183.332 Q 65.2618 183.85 65.1353 184.306 Q 65.0059 184.856 64.8206 185.279 Q 64.1794 187.209 63.1147 187.821 Q 61.8382 188.621 60.8441 186.926 Q 60.6088 186.55 60.3882 186 Q 60.1647 185.45 59.9765 184.744 Q 59.5529 183 59.2235 180.5 Q 58.0471 171.244 55.2706 163.212 Q 52.6824 155.847 49.5765 149.047 Q 49.3412 148.591 49.1059 148.135 Q 49.0588 147.985 49.0118 147.882 L 49.0118 147.876" fill="#0066CC"/>
	</g>
</svg>
