<?xml version="1.0"?>
<!DOCTYPE svg PUBLIC "-//W3C//DTD SVG 1.1//EN" "http://www.w3.org/Graphics/SVG/1.1/DTD/svg11.dtd">
<svg version='1.1' width='12px' height='47px' xmlns='http://www.w3.org/2000/svg' xmlns:xlink='http://www.w3.org/1999/xlink'>
	<g transform="translate(-183.27,-124.332)">
		<path d="M 183.27 128.543 Q 183.34 127.767 183.66 127.123 Q 183.793 126.85 183.977 126.63 Q 184.21 126.41 184.45 126.27 Q 184.45 126.247 184.45 126.223 Q 184.877 125.827 185.443 125.453 Q 186.013 125.08 186.7 124.73 Q 186.75 124.73 186.8 124.707 Q 187.977 124.403 189.2 124.333 Q 189.9 124.333 190.6 124.333 Q 191.307 124.31 191.88 124.603 Q 192.03 124.683 192.153 124.763 Q 192.643 125.027 192.947 125.393 Q 193.063 125.55 193.18 125.707 L 193.25 125.813 Q 193.32 125.917 193.39 126.02 Q 193.437 126.097 193.483 126.197 Q 193.53 126.297 193.577 126.397 Q 193.88 127.253 194.02 128.253 Q 194.02 128.453 194.043 128.653 Q 194.043 128.803 194.067 128.953 Q 194.113 129.727 194.183 130.5 Q 194.253 131.7 194.3 132.923 Q 194.347 134.347 194.37 135.747 L 194.37 166.627 Q 194.37 167.333 194.05 167.907 Q 193.917 168.23 193.73 168.473 Q 193.497 168.737 193.26 168.947 Q 192.893 169.203 192.55 169.483 Q 191.657 170.253 190.203 170.58 Q 189.877 170.65 189.55 170.72 Q 188.95 170.86 188.35 170.977 Q 187.8 171.07 187.25 171.093 Q 186.52 171.14 185.9 170.8 Q 185.403 170.54 185.093 170.18 Q 184.973 170.05 184.88 169.87 Q 184.367 169.123 183.97 168.237 Q 183.76 167.81 183.597 167.36 Q 183.41 166.76 183.27 166.137 L 183.27 128.637 L 183.27 128.543" fill="#0066CC"/>
	</g>
</svg>
