<?xml version="1.0"?>
<!DOCTYPE svg PUBLIC "-//W3C//DTD SVG 1.1//EN" "http://www.w3.org/Graphics/SVG/1.1/DTD/svg11.dtd">
<svg version='1.1' width='17px' height='73px' xmlns='http://www.w3.org/2000/svg' xmlns:xlink='http://www.w3.org/1999/xlink'>
	<g transform="translate(-159.111,-109.163)">
		<path d="M 159.111 111.611 Q 159.111 111.263 159.163 111.011 Q 159.359 110.759 159.607 110.604 Q 159.654 110.554 159.704 110.504 Q 160.05 110.157 160.498 109.909 Q 160.648 109.811 160.798 109.761 Q 161.048 109.615 161.3 109.515 Q 161.7 109.32 162.102 109.267 Q 162.55 109.167 162.952 109.163 Q 163.352 109.207 163.704 109.25 Q 165.137 109.576 165.957 110.426 Q 166.161 110.663 166.317 110.9 Q 166.678 111.374 166.991 111.896 Q 168.374 114.841 169.472 117.95 Q 170.254 120.246 170.876 122.598 Q 171.283 124.23 171.63 125.87 Q 171.63 125.917 171.633 125.967 Q 171.993 127.659 172.348 129.363 Q 172.7 131.065 172.998 132.828 Q 172.998 132.876 173 132.924 Q 173.122 133.611 173.239 134.35 Q 173.493 136.32 173.772 138.354 Q 173.726 138.407 173.776 138.461 Q 173.778 138.561 173.78 138.709 Q 173.839 139.302 173.896 139.896 L 173.893 139.896 Q 174.191 143.709 174.43 147.578 L 174.526 149.972 Q 174.526 150.172 174.574 150.372 Q 174.717 153.365 174.861 156.407 Q 174.957 158.054 175.004 159.702 Q 175.004 160.002 175.052 160.302 Q 175.243 166.796 175.148 173.48 Q 175.148 174.628 175.004 175.824 Q 174.861 176.57 174.717 177.315 Q 174.622 177.715 174.565 178.161 Q 174.463 178.557 174.357 178.95 Q 174.096 179.641 173.872 180.363 Q 173.822 180.411 173.724 180.459 Q 173.176 180.698 172.628 180.985 Q 171.68 181.415 170.589 181.559 Q 169.741 181.702 168.941 181.415 Q 167.398 180.889 166.62 179.933 Q 166.62 179.933 166.62 179.933 Q 166.263 179.452 166.102 178.965 Q 166.091 178.815 166.083 178.663 Q 166.057 178.065 166.057 177.459 Q 166.104 175.613 166.152 173.817 Q 166.152 173.42 166.152 173.07 Q 166.296 170.574 166.391 168.126 Q 166.439 165.683 166.487 163.239 Q 166.487 161.743 166.535 160.248 Q 166.535 159.2 166.535 158.248 Q 166.535 152.707 166.2 147.165 Q 166.2 147.015 166.2 146.867 Q 166.1 145.611 165.987 144.372 Q 165.985 144.324 165.985 144.274 Q 165.867 143.13 165.733 142.009 Q 165.543 140.641 165.333 139.296 Q 165.33 139.293 165.33 139.293 Q 165.011 137.415 164.641 135.6 Q 164.28 133.543 163.854 131.502 Q 163.628 130.696 163.402 129.939 Q 163.4 129.891 163.4 129.843 Q 162.996 128.23 162.546 126.624 Q 162.043 124.828 161.543 123.087 Q 161.433 122.711 161.32 122.328 Q 161.263 122.137 161.204 121.946 Q 161.026 121.324 160.859 120.726 Q 160.689 119.889 160.45 119.089 Q 160.354 118.641 160.259 118.193 Q 159.924 116.496 159.541 114.893 Q 159.35 113.348 159.111 111.802 L 159.111 111.611" fill="#0066CC"/>
	</g>
</svg>
