<?xml version="1.0"?>
<!DOCTYPE svg PUBLIC "-//W3C//DTD SVG 1.1//EN" "http://www.w3.org/Graphics/SVG/1.1/DTD/svg11.dtd">
<svg version='1.1' width='44px' height='40px' xmlns='http://www.w3.org/2000/svg' xmlns:xlink='http://www.w3.org/1999/xlink'>
	<g transform="translate(-127.594,-132.333)">
		<path d="M 127.635 154.082 Q 127.441 150.709 128.159 147.618 Q 128.618 145.626 129.538 143.885 Q 129.559 143.835 129.609 143.815 Q 130.2 142.576 131.032 141.459 Q 132.206 139.947 133.7 138.626 Q 135.235 137.203 137.141 136.103 Q 137.141 136.103 137.171 136.103 Q 137.171 136.103 137.171 136.103 Q 137.803 135.729 138.465 135.376 Q 139.621 134.75 140.876 134.244 Q 144.215 132.818 148.053 132.509 Q 148.024 132.538 148.024 132.538 Q 150.356 132.309 152.715 132.335 Q 155.529 132.332 158.309 132.862 Q 158.379 132.882 158.45 132.903 Q 158.532 133.003 158.615 133.132 Q 159.047 133.256 159.429 133.438 Q 159.559 133.429 159.718 133.45 Q 159.979 133.503 160.221 133.556 Q 160.682 133.729 161.115 133.903 Q 161.476 133.997 161.847 134.112 Q 163.868 134.821 165.271 136.265 Q 165.291 136.265 165.312 136.306 Q 166.815 137.9 167.571 140.176 Q 167.641 140.418 167.741 140.688 Q 168.288 141.394 168.618 142.268 Q 168.668 142.438 168.718 142.629 Q 168.768 142.729 168.818 142.829 Q 169.038 143.756 169.071 144.8 Q 169.103 145.694 169.124 146.568 Q 169.124 146.597 169.124 146.647 Q 169.124 146.768 169.144 146.888 Q 169.144 147.009 169.144 147.129 Q 169.185 147.168 169.247 147.226 Q 169.515 147.45 169.741 147.756 Q 169.762 147.794 169.782 147.874 Q 169.782 147.903 169.803 147.932 Q 169.947 148.079 170.071 148.247 Q 170.112 148.326 170.153 148.385 Q 170.359 148.529 170.585 148.776 Q 170.709 148.862 170.853 148.988 Q 170.874 149.018 170.874 149.047 Q 170.874 149.553 170.903 150.079 Q 170.962 152.55 170.706 154.903 Q 170.706 154.903 170.685 154.903 Q 170.359 155.209 170.094 155.474 Q 170.032 155.532 169.991 155.612 Q 169.859 155.671 169.747 155.729 Q 169.697 155.788 169.668 155.847 Q 169.626 155.856 169.585 155.885 Q 169.403 156.024 169.241 156.141 Q 169.171 156.15 169.121 156.179 Q 169.1 156.179 169.079 156.2 Q 169.009 156.229 168.959 156.259 Q 168.938 156.288 168.918 156.318 Q 168.918 156.338 168.918 156.338 Q 168.709 157.032 168.441 157.697 Q 168.224 158.15 167.956 158.603 Q 167.279 159.756 166.529 160.897 Q 166.329 161.2 166.129 161.482 Q 165.759 162.056 165.368 162.6 Q 164.347 163.979 163.085 165.15 Q 163.035 165.2 162.965 165.25 Q 162.906 165.25 162.906 165.25 Q 162.456 165.691 162.006 166.103 Q 161.294 166.747 160.591 167.253 Q 160.571 167.303 160.55 167.353 Q 159.082 168.503 157.579 169.391 Q 157.55 169.412 157.55 169.432 Q 157.529 169.432 157.509 169.432 Q 157.409 169.482 157.329 169.532 Q 155.115 170.709 152.924 171.424 Q 151.353 171.938 149.376 172.141 Q 147.918 172.324 146.312 172.324 Q 144.894 172.324 143.506 172.132 Q 141.606 171.85 139.797 171.218 Q 139.506 171.097 139.215 170.976 Q 137.626 170.353 136.209 169.479 Q 134.732 168.576 133.447 167.362 Q 133.447 167.362 133.447 167.362 Q 132.038 166.035 130.941 164.326 Q 130.891 164.256 130.862 164.206 Q 130.047 163 129.382 161.656 Q 129.382 161.656 129.382 161.656 Q 129.291 161.465 129.2 161.274 Q 129.129 161.224 129.129 161.174 Q 129.109 161.153 129.109 161.132 Q 128.526 159.503 128.194 157.865 Q 128.174 157.844 128.194 157.824 Q 127.771 156.165 127.656 154.447 Q 127.656 154.426 127.656 154.406 Q 127.635 154.265 127.635 154.124 L 127.635 154.082" fill="#0066CC"/>
		<path d="M 137.791 151.471 Q 137.874 150.582 138.118 149.724 Q 138.665 148.271 138.665 148.25 Q 139.129 147.224 139.782 146.406 Q 139.953 146.224 140.124 146.062 Q 140.315 145.788 140.547 145.556 Q 142.412 143.571 145.235 142.682 Q 147.574 141.982 150.215 141.682 Q 152.288 141.462 154.294 141.929 Q 154.656 142.032 154.988 142.156 Q 156.076 142.488 157.094 142.871 Q 157.738 143.109 158.321 143.388 Q 158.924 143.688 159.356 144.009 Q 159.547 144.144 159.718 144.309 Q 160.159 144.729 160.547 145.118 Q 160.691 145.782 160.774 146.488 Q 160.918 147.629 161.144 148.771 Q 161.185 149.032 161.226 149.294 Q 161.226 149.294 161.247 149.315 Q 161.247 149.365 161.268 149.415 Q 161.288 149.535 161.329 149.676 Q 161.329 149.726 161.35 149.776 Q 161.432 150.009 161.576 150.262 Q 161.576 150.262 161.597 150.282 Q 161.618 150.332 161.659 150.382 Q 161.618 150.482 161.597 150.582 Q 161.576 150.612 161.576 150.662 Q 161.515 150.965 161.494 151.268 Q 161.432 151.641 161.391 152.035 Q 161.371 152.065 161.371 152.115 Q 161.329 152.194 161.329 152.315 Q 161.309 152.456 161.288 152.618 Q 161.029 153.656 160.732 154.665 Q 160.65 154.926 160.518 155.168 Q 160.497 155.218 160.476 155.288 Q 160.353 155.606 160.209 155.924 Q 160.188 155.944 160.168 155.965 Q 159.385 156.885 158.932 157.912 L 158.903 157.962 Q 158.862 157.932 158.841 157.944 Q 158.718 157.971 158.594 157.976 Q 157.85 158.703 157.082 159.279 Q 155.447 160.471 153.659 161.418 Q 152.95 161.741 152.241 161.982 Q 152.25 161.982 152.229 161.982 Q 150.603 162.553 148.865 162.606 Q 146.591 162.647 144.456 162.009 Q 144.174 161.926 143.891 161.824 Q 143.871 161.803 143.829 161.803 Q 143.053 161.515 142.409 161.115 Q 142.359 161.074 142.309 161.053 Q 140.094 159.785 138.956 157.818 Q 138.985 157.797 138.985 157.776 Q 138.765 157.371 138.585 156.915 Q 138.256 156.135 138.076 155.306 Q 137.697 153.556 137.791 151.609 Q 137.791 151.588 137.791 151.588 L 137.791 151.471" fill="#0066CC"/>
	</g>
</svg>
