<?xml version="1.0"?>
<!DOCTYPE svg PUBLIC "-//W3C//DTD SVG 1.1//EN" "http://www.w3.org/Graphics/SVG/1.1/DTD/svg11.dtd">
<svg version='1.1' width='28px' height='47px' xmlns='http://www.w3.org/2000/svg' xmlns:xlink='http://www.w3.org/1999/xlink'>
	<g transform="translate(-233.243,-125.673)">
		<path d="M 233.243 139.177 Q 233.263 137.54 233.263 136.25 Q 233.257 135.567 233.29 134.917 Q 233.4 132.483 233.827 130.383 Q 233.84 130.297 233.853 130.21 Q 233.967 129.53 234.073 128.85 Q 235.87 127.88 237.653 127.193 Q 237.617 127.193 237.623 127.193 Q 241.26 125.747 245.14 125.7 Q 245.497 125.693 245.853 125.687 Q 245.897 125.687 245.903 125.687 Q 246.197 125.68 246.497 125.673 Q 249.17 125.813 251.437 126.623 Q 251.437 126.623 251.443 126.623 Q 252.207 126.903 252.94 127.297 Q 252.983 127.297 253.033 127.297 Q 253.033 127.297 253.033 127.297 Q 253.54 127.52 253.997 127.82 Q 253.99 127.813 253.99 127.813 Q 255.5 128.78 256.683 130.227 Q 257.487 131.197 258.107 132.437 Q 258.107 132.437 258.107 132.443 Q 259.45 135.287 259.987 139.05 Q 259.987 139.05 259.987 139.1 Q 260.18 140.42 260.217 141.833 Q 260.217 141.983 260.21 142.133 Q 260.253 142.72 260.26 143.307 Q 260.273 144.97 260.287 146.633 Q 260.307 150.06 260.313 153.467 Q 260.32 153.667 260.32 153.873 Q 260.307 154.96 260.32 156.073 L 260.32 156.123 Q 260.36 160.867 260.32 165.503 Q 260.333 168.01 260.287 170.31 Q 260.267 171.097 259.757 171.633 Q 259.327 172.053 258.797 172.153 Q 258.61 172.203 258.417 172.21 Q 258.03 172.217 257.673 172.217 Q 257.067 172.21 256.453 172.23 Q 255.183 172.243 253.82 172.003 Q 252.67 171.923 251.52 171.663 Q 250.757 171.577 250.253 170.993 Q 249.757 170.41 249.73 169.59 Q 249.637 165.277 249.537 160.657 L 249.537 160.65 Q 249.523 159.567 249.517 158.517 Q 249.41 154.91 249.343 151.25 Q 249.297 148.487 249.257 145.71 Q 249.25 145.447 249.243 145.183 Q 249.217 144.327 249.193 143.49 Q 249.193 143.39 249.2 143.297 Q 249.15 142.797 249.12 142.347 Q 248.997 141.87 248.873 141.403 Q 248.847 141.13 248.757 140.857 Q 248.757 140.813 248.757 140.813 Q 248.577 140.18 248.363 139.64 Q 248.06 138.63 247.487 137.93 Q 247.487 137.93 247.487 137.887 Q 246.84 137.013 245.8 136.667 Q 245.75 136.623 245.7 136.623 Q 244.417 136.097 242.373 136.09 Q 241.81 136.09 241.247 136.133 Q 239.5 136.35 237.697 137.103 Q 235.107 137.983 233.243 139.203 L 233.243 139.177" fill="#0066CC"/>
	</g>
</svg>
