<?xml version="1.0"?>
<!DOCTYPE svg PUBLIC "-//W3C//DTD SVG 1.1//EN" "http://www.w3.org/Graphics/SVG/1.1/DTD/svg11.dtd">
<svg version='1.1' width='9px' height='81px' xmlns='http://www.w3.org/2000/svg' xmlns:xlink='http://www.w3.org/1999/xlink'>
	<g transform="translate(-79.5985,-107.968)">
		<path d="M 79.5985 126.247 Q 79.5985 125.493 79.6471 124.719 Q 79.6956 123.8 79.7706 122.934 Q 80.175 118.968 80.9029 114.819 Q 81.0647 113.816 81.2088 112.866 Q 81.2809 112.478 81.3397 112.099 Q 81.3941 111.669 81.4853 111.294 Q 81.9868 109.124 83.8103 108.412 Q 88.7794 106.34 88.2779 113.932 Q 87.7309 121.649 87.5029 126.949 Q 87.4574 128.226 87.4118 129.459 Q 87.4118 129.559 87.4118 129.613 Q 87.3662 133.921 87.4118 137.863 L 87.5029 137.872 Q 87.4574 138.463 87.4574 139.054 L 87.5029 139.018 Q 87.5029 141.032 87.5029 143.001 L 87.4574 143.01 Q 87.3206 153.776 87.4118 163.266 Q 87.4118 163.462 87.4118 163.657 Q 87.4574 167.124 87.5941 170.271 Q 87.6397 171.025 87.6368 171.757 Q 87.6294 172.535 87.6044 173.219 Q 87.5588 174.997 87.5632 176.638 Q 87.6103 179.146 87.3838 181.151 Q 87.3088 181.972 87.2147 182.653 Q 87.075 183.562 86.8926 184.312 Q 86.1632 187.953 83.9294 188.494 Q 79.9176 189.531 79.8265 181.86 Q 79.7809 176.003 79.8721 161.575 Q 79.8721 161.379 79.8721 161.184 Q 79.9176 151.49 80.0088 139.835 Q 79.8265 139.863 79.6897 139.891 L 79.6441 130.75 Q 79.5985 129.176 79.5985 127.557 Q 79.5985 126.925 79.5985 126.338 L 79.5985 126.247" fill="#0066CC"/>
	</g>
</svg>
