<?xml version="1.0"?>
<!DOCTYPE svg PUBLIC "-//W3C//DTD SVG 1.1//EN" "http://www.w3.org/Graphics/SVG/1.1/DTD/svg11.dtd">
<svg version='1.1' width='44px' height='43px' xmlns='http://www.w3.org/2000/svg' xmlns:xlink='http://www.w3.org/1999/xlink'>
	<g transform="translate(-27.3235,-111.403)">
		<path d="M 27.3235 144.371 Q 27.4176 143.665 27.5441 143.021 Q 27.55 142.874 27.6029 142.726 Q 27.6706 142.288 27.7882 141.956 Q 28.0353 141.671 28.3794 141.529 Q 28.4294 141.482 28.4794 141.482 Q 28.6853 141.388 28.9853 141.388 Q 34.4382 141.247 39.2794 139.129 Q 41.1294 138.329 42.9324 137.2 Q 44.1941 136.4 45.4088 135.506 Q 56.2412 127.176 63.45 113.435 Q 64.5324 111.271 65.85 111.412 Q 66.4618 111.506 67.1059 112.103 Q 67.6588 112.606 68.2235 113.453 Q 68.7412 114.256 69.2588 115.388 Q 70.5294 118.118 70.3882 120.471 Q 70.3412 121.176 70.1176 121.774 Q 69.9559 122.265 69.7412 122.744 Q 69.5853 123.029 69.4265 123.312 Q 65.1971 131.453 59.8382 137.665 Q 57.9941 139.782 56.0088 141.712 Q 54.4265 143.218 52.75 144.582 Q 50.9324 145.9 49.2088 147.312 Q 49.1559 147.359 49.15 147.359 L 49.15 147.312 Q 48.1382 148.018 47.1265 148.629 Q 46.9235 148.724 46.7676 148.818 Q 46.1735 149.194 45.5794 149.524 Q 45.5265 149.571 45.4265 149.618 Q 41.9676 151.547 38.2265 152.959 Q 35.35 154.041 33.0382 153.147 Q 32.3765 152.912 31.7794 152.456 Q 31.0882 151.953 30.4765 151.2 Q 29.3 149.726 28.3588 147.453 Q 27.8412 146.1 27.3706 144.559 L 27.3235 144.371" fill="#0066CC"/>
	</g>
</svg>
