<?xml version="1.0"?>
<!DOCTYPE svg PUBLIC "-//W3C//DTD SVG 1.1//EN" "http://www.w3.org/Graphics/SVG/1.1/DTD/svg11.dtd">
<svg version='1.1' width='9px' height='78px' xmlns='http://www.w3.org/2000/svg' xmlns:xlink='http://www.w3.org/1999/xlink'>
	<g transform="translate(-226.814,-108.73)">
		<path d="M 226.814 177.986 Q 226.841 177.286 226.868 176.132 Q 226.995 172.727 227.127 167.168 Q 227.168 163.941 227.209 160.691 Q 227.473 145.127 227.5 135.277 Q 227.486 133.991 227.473 132.791 Q 227.45 125.391 227.368 121.336 Q 227.355 120.536 227.341 119.764 Q 227.336 118.5 227.345 117.332 Q 227.355 116.782 227.391 116.232 Q 227.423 113.9 227.573 111.5 Q 227.573 111.25 227.573 111 Q 228.218 109.909 229.095 109.618 Q 229.291 109.5 229.486 109.382 Q 230.45 108.841 231.518 108.841 Q 232.555 108.527 233.427 109.1 Q 233.627 109.695 233.868 110.35 Q 234.95 113.55 235.332 117.541 Q 235.386 118.95 235.373 120.427 Q 234.959 147.145 235 173.414 Q 235.027 175.6 235.055 177.786 Q 235.095 180.423 234.936 183.005 Q 234.886 183.305 234.8 183.568 Q 234.764 183.618 234.727 183.668 Q 233.805 185.586 232.077 185.75 Q 230.795 186.114 229.459 185.941 Q 229.232 185.718 228.918 185.505 Q 228.791 185.409 228.736 185.35 Q 228.505 185.05 228.273 184.768 Q 227.714 182.927 227.005 180.459 Q 226.955 180.109 226.941 179.759 Q 226.927 179.309 226.914 178.859 Q 226.864 178.459 226.814 178.059 L 226.814 177.986" fill="#0066CC"/>
	</g>
</svg>
