<?xml version="1.0"?>
<!DOCTYPE svg PUBLIC "-//W3C//DTD SVG 1.1//EN" "http://www.w3.org/Graphics/SVG/1.1/DTD/svg11.dtd">
<svg version='1.1' width='46px' height='31px' xmlns='http://www.w3.org/2000/svg' xmlns:xlink='http://www.w3.org/1999/xlink'>
	<g transform="translate(-27.7647,-111.777)">
		<path d="M 27.7647 133.094 Q 27.8235 132.353 28.1088 131.744 Q 28.15 131.615 28.2206 131.485 Q 28.3941 131.118 28.6176 130.891 Q 28.8471 130.694 29.1559 130.606 Q 29.2059 130.576 29.2559 130.576 Q 29.4971 130.518 29.7971 130.518 Q 34.9676 130.429 39.7559 129.106 Q 41.6059 128.606 43.4265 127.9 Q 44.7588 127.4 46.0618 126.841 Q 57.6882 121.635 67.05 113.047 Q 68.3265 111.694 69.75 111.782 Q 70.4324 111.841 71.0412 112.421 Q 71.6118 112.941 71.9647 113.771 Q 72.2882 114.591 72.6118 115.618 Q 73.4059 118.224 73.3176 120.594 Q 73.2882 121.335 72.9235 121.915 Q 72.6912 122.353 72.3882 122.709 Q 72.1971 122.906 71.9853 123.082 Q 66.3794 128.171 60.0676 132.053 Q 57.9588 133.376 55.7618 134.582 Q 53.9853 135.524 52.15 136.376 Q 50.2265 137.2 48.3618 138.082 Q 48.2912 138.112 48.25 138.112 L 48.25 138.082 Q 47.1676 138.524 46.0853 138.906 Q 45.8647 138.965 45.6735 139.024 Q 45.1147 139.259 44.5559 139.465 Q 44.4853 139.494 44.3853 139.524 Q 40.8735 140.729 37.1853 141.612 Q 34.45 142.288 32.0676 141.729 Q 31.3353 141.582 30.7559 141.091 Q 30.1176 140.571 29.7353 139.8 Q 29 138.185 28.4118 136.071 Q 28.0882 134.7 27.7941 133.212 L 27.7647 133.094" fill="#0066CC"/>
	</g>
</svg>
