<?xml version="1.0"?>
<!DOCTYPE svg PUBLIC "-//W3C//DTD SVG 1.1//EN" "http://www.w3.org/Graphics/SVG/1.1/DTD/svg11.dtd">
<svg version='1.1' width='44px' height='42px' xmlns='http://www.w3.org/2000/svg' xmlns:xlink='http://www.w3.org/1999/xlink'>
	<g transform="translate(-27.3603,-111.434)">
		<path d="M 27.3603 143.431 Q 27.4515 142.722 27.5912 142.081 Q 27.6 141.935 27.6544 141.79 Q 27.7309 141.357 27.8574 141.034 Q 28.1029 140.756 28.4441 140.619 Q 28.4941 140.574 28.5441 140.574 Q 28.7529 140.482 29.0529 140.482 Q 34.4824 140.346 39.3191 138.294 Q 41.1691 137.519 42.9735 136.425 Q 44.2412 135.65 45.4632 134.784 Q 56.3618 126.715 63.75 113.403 Q 64.8485 111.306 66.175 111.443 Q 66.7926 111.534 67.4338 112.129 Q 67.9882 112.634 68.5353 113.479 Q 69.0368 114.284 69.5382 115.407 Q 70.7691 118.126 70.6324 120.481 Q 70.5868 121.19 70.3515 121.785 Q 70.1838 122.272 69.9618 122.741 Q 69.8029 123.019 69.6397 123.293 Q 65.2956 131.179 59.8574 137.197 Q 57.9912 139.249 55.9882 141.118 Q 54.3897 142.576 52.7 143.899 Q 50.8735 145.175 49.1382 146.543 Q 49.0838 146.588 49.075 146.588 L 49.075 146.543 Q 48.0574 147.226 47.0397 147.819 Q 46.8353 147.91 46.6765 148.001 Q 46.0853 148.366 45.4941 148.685 Q 45.4397 148.731 45.3397 148.776 Q 41.8765 150.646 38.1397 152.013 Q 35.275 153.062 32.9574 152.196 Q 32.2897 151.968 31.6941 151.509 Q 31.0074 151.004 30.4147 150.25 Q 29.275 148.765 28.3632 146.504 Q 27.8618 145.15 27.4059 143.613 L 27.3603 143.431" fill="#0066CC"/>
	</g>
</svg>
