<?xml version="1.0"?>
<!DOCTYPE svg PUBLIC "-//W3C//DTD SVG 1.1//EN" "http://www.w3.org/Graphics/SVG/1.1/DTD/svg11.dtd">
<svg version='1.1' width='14px' height='47px' xmlns='http://www.w3.org/2000/svg' xmlns:xlink='http://www.w3.org/1999/xlink'>
	<g transform="translate(-48.0853,-130.222)">
		<path d="M 48.0853 131.354 L 48.1853 131.371 Q 48.4721 131.274 48.7588 131.176 Q 48.7588 131.176 48.775 131.16 Q 51.3544 130.675 53.9662 130.222 Q 54.0162 130.222 54.0985 130.271 Q 54.5691 130.351 55.1206 130.529 Q 56.4309 130.788 57.8706 131.274 Q 58.4206 135.549 59.3588 140.421 Q 61.4132 152.74 61.4132 165.285 Q 61.4132 170.037 61.2515 174.222 Q 61.1853 174.925 60.7809 175.443 Q 60.3426 175.993 59.7868 176.138 Q 58.1882 176.801 56.4441 177.012 Q 54.8897 177.287 53.4324 176.704 Q 52.8265 176.575 52.3897 176.025 Q 51.9191 175.475 51.8544 174.707 Q 51.7088 172.5 51.5956 170 Q 51.1912 159.632 50.2368 149.685 Q 49.3471 141.116 48.2794 132.741 Q 48.1985 132.224 48.1176 131.706 Q 48.1015 131.556 48.0853 131.422 L 48.0853 131.354" fill="#0066CC"/>
	</g>
</svg>
