<?xml version="1.0"?>
<!DOCTYPE svg PUBLIC "-//W3C//DTD SVG 1.1//EN" "http://www.w3.org/Graphics/SVG/1.1/DTD/svg11.dtd">
<svg version='1.1' width='10px' height='72px' xmlns='http://www.w3.org/2000/svg' xmlns:xlink='http://www.w3.org/1999/xlink'>
	<g transform="translate(-81.0941,-110.38)">
		<path d="M 81.0941 122.038 Q 81.0941 121.271 81.2882 120.576 Q 81.4824 119.75 81.7824 119.135 Q 83.1 116.321 84.6618 113.376 Q 85.0088 112.665 85.2853 112.165 Q 85.4235 111.962 85.5088 111.794 Q 85.5765 111.576 85.6412 111.426 Q 85.9971 110.394 87.2912 110.397 Q 90.8176 110.059 90.4618 116.579 Q 90.0735 123.594 89.9118 128.894 Q 89.8794 130.106 89.8471 131.285 Q 89.8471 131.385 89.8471 131.453 Q 89.8147 135.482 89.8471 139.253 L 89.9118 139.288 Q 89.8794 139.853 89.8794 140.418 L 89.9118 140.421 Q 89.9118 142.329 89.9118 144.206 L 89.8794 144.241 Q 89.7824 154.306 89.8471 163.465 Q 89.8471 163.647 89.8471 163.829 Q 89.8794 167.044 89.9765 170.032 Q 90.0088 170.8 89.8471 171.479 Q 89.6676 172.191 89.4176 172.676 Q 88.9353 173.938 88.5029 175.103 Q 87.9412 176.882 87.1853 178.306 Q 86.8853 178.888 86.6588 179.212 Q 86.4 179.697 86.2706 179.997 Q 85.7529 181.812 84.1676 181.426 Q 81.3206 181.074 81.2559 174.541 Q 81.2235 168.062 81.2882 155.5 Q 81.2882 155.318 81.2882 155.135 Q 81.3206 145.759 81.3853 134.991 Q 81.2559 134.953 81.1588 134.915 L 81.1265 126.25 Q 81.0941 124.756 81.0941 123.229 Q 81.0941 122.65 81.0941 122.103 L 81.0941 122.038" fill="#0066CC"/>
	</g>
</svg>
