<?xml version="1.0"?>
<!DOCTYPE svg PUBLIC "-//W3C//DTD SVG 1.1//EN" "http://www.w3.org/Graphics/SVG/1.1/DTD/svg11.dtd">
<svg version='1.1' width='69px' height='27px' xmlns='http://www.w3.org/2000/svg' xmlns:xlink='http://www.w3.org/1999/xlink'>
	<g transform="translate(-104.55,-202.45)">
		<path d="M 122.3 224.8 L 122.05 225.2 Q 115.9 228.35 109.2 228.55 Q 106.873 228.671 104.55 228.825 Q 104.55 224.759 104.55 220.675 Q 104.854 220.668 105.175 220.675 Q 117.07 221.02 127 213.75 Q 131.102 210.737 132.35 215.95 Q 132.793 217.904 129.925 220.05 L 129.9 220.05 Q 129.83 220.095 129.75 220.15 L 123.8 223.8 L 123.55 224.2 Z M 120.45 208.75 Q 119.459 204.33 125.5 204.25 Q 147.217 203.986 168.125 202.45 Q 177.569 206.047 168.675 210.15 Q 166.177 211.285 162.925 211.5 Q 141.91 212.885 122.05 210.05 Q 120.75 209.862 120.45 208.75 Z" fill="#0066CC"/>
	</g>
</svg>
