<?xml version="1.0"?>
<!DOCTYPE svg PUBLIC "-//W3C//DTD SVG 1.1//EN" "http://www.w3.org/Graphics/SVG/1.1/DTD/svg11.dtd">
<svg version='1.1' width='11px' height='63px' xmlns='http://www.w3.org/2000/svg' xmlns:xlink='http://www.w3.org/1999/xlink'>
	<g transform="translate(-83.7529,-110.736)">
		<path d="M 83.7529 114.556 Q 83.7529 113.765 84.2059 113.212 Q 84.6588 112.55 85.3588 112.382 Q 88.3 111.615 91.3441 110.812 Q 92.0206 110.618 92.5324 110.918 Q 92.7882 111.044 92.9206 111.253 Q 93.0118 111.412 93.0294 111.662 Q 93.1265 112.653 93.4794 113.926 Q 94.4412 116.671 94.3441 121.285 Q 94.2382 127.053 94.1941 132.353 Q 94.1853 133.447 94.1765 134.532 Q 94.1765 134.632 94.1765 134.724 Q 94.1676 138.259 94.1765 141.724 L 94.1941 141.806 Q 94.1853 142.324 94.1853 142.841 L 94.1941 142.915 Q 94.1941 144.635 94.1941 146.347 L 94.1853 146.429 Q 94.1588 155.247 94.1765 163.818 Q 94.1765 163.976 94.1765 164.135 Q 94.1853 166.903 94.2118 169.609 Q 94.2206 170.4 93.7765 170.985 Q 93.2912 171.579 92.6412 171.712 Q 91.3824 172.056 90.1735 172.374 Q 88.5294 172.859 86.8324 173.247 Q 86.1324 173.406 85.6706 173.094 Q 85.2 172.826 85.1647 172.326 Q 85.0235 170.894 84.5912 168.862 Q 83.8147 166.038 83.7971 161.529 Q 83.7882 153.944 83.8059 144.7 Q 83.8059 144.541 83.8059 144.382 Q 83.8147 135.571 83.8324 126.379 Q 83.7971 126.224 83.7706 126.068 L 83.7618 118.25 Q 83.7529 116.897 83.7529 115.535 Q 83.7529 115.05 83.7529 114.574 L 83.7529 114.556" fill="#0066CC"/>
	</g>
</svg>
