<?xml version="1.0"?>
<!DOCTYPE svg PUBLIC "-//W3C//DTD SVG 1.1//EN" "http://www.w3.org/Graphics/SVG/1.1/DTD/svg11.dtd">
<svg version='1.1' width='39px' height='49px' xmlns='http://www.w3.org/2000/svg' xmlns:xlink='http://www.w3.org/1999/xlink'>
	<g transform="translate(-75,-127.984)">
		<path d="M 75 137.463 Q 75.1 136.563 75.3868 135.8 Q 75.4658 135.55 75.5737 135.329 Q 75.5737 135.279 75.6026 135.258 Q 76.3026 133.453 77.7237 132.555 Q 78.4289 132.289 79.2211 132.139 Q 79.4632 132.089 79.7342 132.068 Q 82.4474 131.916 85.4816 131.837 Q 85.5105 131.837 85.5395 131.816 Q 86.3026 131.811 87.0947 131.805 L 87.1237 131.805 L 92.6342 131.574 Q 92.6711 131.595 92.75 131.616 Q 92.9711 131.574 93.1921 131.561 Q 93.2421 131.561 93.2921 131.589 Q 98.9289 130.471 103.603 128.732 Q 104.087 128.374 104.774 128.218 Q 105.358 127.955 106.239 128.039 Q 107.558 127.826 108.863 128.432 Q 108.884 128.432 108.905 128.461 Q 109.218 128.558 109.532 128.663 Q 110.142 128.837 110.661 129.292 Q 111.505 129.979 112.137 131.455 Q 112.35 131.947 112.513 132.439 Q 112.584 132.639 112.655 132.868 Q 112.942 134.503 113.126 136.482 Q 113.126 136.582 113.126 136.682 Q 113.242 140.15 112.887 144.289 Q 112.747 145.774 112.658 147.316 Q 112.658 147.366 112.658 147.416 Q 112.413 150.126 112.297 153.118 Q 112.297 153.118 112.297 153.118 Q 112.187 155.216 112.147 157.4 Q 112.045 160.218 111.992 163.174 Q 111.961 165.671 111.979 168.255 Q 111.979 168.355 111.979 168.455 Q 111.703 172.511 110.066 174.713 Q 109.958 174.876 109.821 175.011 Q 109.684 175.145 109.547 175.25 Q 109.468 175.363 109.418 175.447 Q 109.066 175.787 108.65 175.918 Q 108.413 176.024 108.155 176.05 Q 107.476 176.216 106.758 176.047 Q 104.589 175.634 103.911 172.218 Q 103.832 171.911 103.782 171.603 Q 102.679 166.621 102.445 161.821 Q 102.342 159.637 102.347 157.553 Q 102.347 157.553 102.347 157.524 Q 102.145 148.263 102.963 141.126 Q 102.711 140.876 102.466 140.634 Q 98.9816 141.584 95.0895 142.263 Q 94.9684 142.313 94.8474 142.334 Q 93.0632 142.739 91.2368 143.124 Q 91.1579 143.145 91.1211 143.166 L 88.3368 143.947 Q 88.2868 143.947 88.2368 143.976 Q 86.0868 144.479 84.1395 144.663 Q 84.1395 144.663 84.1395 144.684 Q 77.5789 145.166 75.1974 138.189 Q 75.0763 137.889 75.0421 137.589 L 75 137.463" fill="#0066CC"/>
	</g>
</svg>
