<?xml version="1.0"?>
<!DOCTYPE svg PUBLIC "-//W3C//DTD SVG 1.1//EN" "http://www.w3.org/Graphics/SVG/1.1/DTD/svg11.dtd">
<svg version='1.1' width='48px' height='22px' xmlns='http://www.w3.org/2000/svg' xmlns:xlink='http://www.w3.org/1999/xlink'>
	<g transform="translate(-28.0956,-112.057)">
		<path d="M 28.0956 124.637 Q 28.1279 123.869 28.5324 123.287 Q 28.6 123.171 28.6838 123.054 Q 28.9368 122.74 29.2397 122.593 Q 29.4559 122.462 29.7382 122.413 Q 29.7882 122.397 29.8382 122.397 Q 30.1059 122.365 30.4059 122.365 Q 35.3647 122.316 40.1132 121.588 Q 41.9632 121.313 43.7971 120.925 Q 45.1824 120.65 46.5515 120.343 Q 58.7735 117.479 69.75 112.756 Q 71.1721 112.012 72.675 112.06 Q 73.4103 112.093 73.9926 112.659 Q 74.5765 113.193 74.7706 114.009 Q 74.9485 114.843 75.1265 115.79 Q 75.5632 118.303 75.5147 120.687 Q 75.4985 121.454 75.0279 122.021 Q 74.7426 122.419 74.3735 122.682 Q 74.1559 122.813 73.9044 122.91 Q 67.2662 125.709 60.2397 127.844 Q 57.9324 128.572 55.5765 129.235 Q 53.6544 129.753 51.7 130.222 Q 49.6971 130.675 47.7265 131.16 Q 47.6426 131.176 47.575 131.176 L 47.575 131.16 Q 46.4397 131.403 45.3044 131.613 Q 45.0706 131.646 44.8529 131.678 Q 44.3206 131.807 43.7882 131.921 Q 43.7044 131.937 43.6044 131.953 Q 40.0529 132.616 36.4044 133.101 Q 33.775 133.474 31.3397 133.166 Q 30.5544 133.085 29.9882 132.568 Q 29.3897 132.034 29.1794 131.25 Q 28.775 129.529 28.4515 127.534 Q 28.2735 126.15 28.1118 124.701 L 28.0956 124.637" fill="#0066CC"/>
	</g>
</svg>
