<?xml version="1.0"?>
<!DOCTYPE svg PUBLIC "-//W3C//DTD SVG 1.1//EN" "http://www.w3.org/Graphics/SVG/1.1/DTD/svg11.dtd">
<svg version='1.1' width='20px' height='85px' xmlns='http://www.w3.org/2000/svg' xmlns:xlink='http://www.w3.org/1999/xlink'>
	<g transform="translate(-205.579,-104.865)">
		<path d="M 205.927 126.432 Q 207.641 122.164 210.65 119.177 Q 214.355 115.245 216.245 111.236 Q 216.264 111.173 216.282 111.109 Q 216.282 109.291 216.65 107.873 Q 216.714 107.677 216.777 107.482 Q 217.245 106.186 218.345 105.545 Q 219.695 104.732 222 104.891 Q 223.614 105.009 224.064 106.109 Q 224.082 106.141 224.1 106.173 Q 224.327 106.905 224.609 107.673 Q 225.368 108.986 225.25 110.664 Q 225.091 113.323 224.777 118.527 Q 224.286 128.541 224.591 141.055 Q 224.591 141.468 224.591 141.882 Q 224.891 155.877 225.223 168.086 Q 225.409 174.568 225.214 179.795 Q 225.155 180.859 224.995 181.814 Q 224.377 184.986 222.891 187.114 Q 221.209 190.514 218.223 189.323 Q 217.291 188.541 216.036 186.409 Q 216.536 181.968 216.673 173.923 Q 216.7 170.209 216.7 165.723 Q 216.714 159.041 216.573 150.677 Q 216.573 150.527 216.573 150.359 Q 216.459 144.564 216.25 138.277 Q 216.2 137.432 216.132 136.605 Q 216.095 136.091 215.991 135.595 Q 215.918 135.264 215.827 134.968 Q 215.65 134.455 215.436 133.995 Q 215.041 133.05 214.645 132.177 Q 214.536 131.918 214.427 131.659 Q 213.982 130.659 213.536 129.645 Q 211.273 131.45 209.218 130.964 Q 208.836 130.864 208.486 130.764 Q 207.559 130.45 206.886 130.073 Q 206.023 129.568 205.755 128.818 Q 205.436 127.995 205.695 127.027 Q 205.786 126.764 205.927 126.468 L 205.927 126.432" fill="#0066CC"/>
	</g>
</svg>
