<?xml version="1.0"?>
<!DOCTYPE svg PUBLIC "-//W3C//DTD SVG 1.1//EN" "http://www.w3.org/Graphics/SVG/1.1/DTD/svg11.dtd">
<svg version='1.1' width='30px' height='53px' xmlns='http://www.w3.org/2000/svg' xmlns:xlink='http://www.w3.org/1999/xlink'>
	<g transform="translate(-140.885,-121.22)">
		<path d="M 140.885 123.785 Q 140.885 123.472 140.972 123.185 Q 141.098 122.898 141.311 122.674 Q 141.324 122.624 141.374 122.574 Q 141.65 122.261 142.063 122.048 Q 142.213 121.985 142.363 121.935 Q 142.613 121.859 142.9 121.759 Q 143.3 121.633 143.737 121.546 Q 144.15 121.446 144.587 121.372 Q 144.987 121.311 145.374 121.25 Q 146.528 121.193 147.661 121.243 Q 147.935 121.272 148.196 121.3 Q 148.73 121.357 149.252 121.426 Q 151.957 121.902 154.62 122.75 Q 156.724 123.376 158.493 124.163 Q 159.804 124.717 160.917 125.383 Q 160.917 125.396 160.954 125.446 Q 162.289 126.198 163.513 127.172 Q 164.7 128.109 165.763 129.28 Q 165.763 129.293 165.8 129.307 Q 166.27 129.785 166.665 130.35 Q 167.789 131.833 168.52 133.624 Q 168.543 133.711 168.593 133.835 Q 168.63 133.935 168.667 134.048 Q 168.865 134.537 169.026 135.026 L 168.989 135.026 Q 170.052 138.248 170.117 142.43 L 170.143 144.72 Q 170.143 144.92 170.157 145.12 Q 170.196 148.009 170.235 150.911 Q 170.261 152.524 170.274 154.137 Q 170.274 154.437 170.287 154.737 Q 170.339 161.126 170.313 167.567 Q 170.313 168.68 170.274 169.807 Q 170.235 170.483 170.196 171.159 Q 170.17 171.559 170.009 171.935 Q 169.872 172.261 169.661 172.55 Q 169.226 173.102 168.62 173.372 Q 168.57 173.385 168.507 173.398 Q 167.993 173.463 167.48 173.541 Q 166.567 173.659 165.615 173.698 Q 164.802 173.737 164.002 173.659 Q 162.563 173.515 161.333 173.254 Q 161.333 173.254 161.333 173.254 Q 160.872 173.087 160.537 172.809 Q 160.352 172.659 160.204 172.472 Q 159.761 171.909 159.761 171.198 Q 159.774 169.422 159.787 167.696 Q 159.787 167.333 159.787 166.983 Q 159.826 164.557 159.852 162.143 Q 159.865 159.804 159.878 157.465 Q 159.878 156.039 159.891 154.613 Q 159.891 153.6 159.891 152.613 Q 159.891 147.211 159.8 141.809 Q 159.8 141.659 159.8 141.546 Q 159.7 140.185 159.378 139.12 Q 159.341 139.107 159.341 139.057 Q 158.946 138.017 158.254 137.348 Q 157.439 136.502 156.254 136.026 Q 156.217 135.989 156.217 135.989 Q 154.785 135.259 153.302 134.8 Q 151.967 134.239 150.324 133.937 Q 149.68 133.826 149.037 133.765 Q 149 133.752 149 133.739 Q 147.726 133.517 146.476 133.407 Q 145.139 133.28 143.839 133.278 Q 143.554 133.285 143.233 133.18 Q 143.072 133.128 142.874 133.076 Q 142.243 132.907 141.798 132.343 Q 141.315 131.715 141.25 130.915 Q 141.224 130.502 141.198 130.089 Q 141.107 128.426 141.002 126.789 Q 140.95 125.313 140.885 123.837 L 140.885 123.785" fill="#0066CC"/>
	</g>
</svg>
