<?xml version="1.0"?>
<!DOCTYPE svg PUBLIC "-//W3C//DTD SVG 1.1//EN" "http://www.w3.org/Graphics/SVG/1.1/DTD/svg11.dtd">
<svg version='1.1' width='40px' height='36px' xmlns='http://www.w3.org/2000/svg' xmlns:xlink='http://www.w3.org/1999/xlink'>
	<g transform="translate(-129.315,-136.757)">
		<path d="M 129.329 155.635 Q 129.218 152.532 129.982 149.865 Q 130.465 148.097 131.374 146.579 Q 131.382 146.529 131.432 146.521 Q 132 145.447 132.785 144.482 Q 133.888 143.206 135.3 142.097 Q 136.729 140.944 138.518 140.044 Q 138.518 140.044 138.559 140.044 Q 138.559 140.044 138.559 140.044 Q 139.144 139.741 139.771 139.447 Q 140.809 138.95 141.947 138.562 Q 144.921 137.465 148.394 137.132 Q 148.353 137.174 148.353 137.174 Q 150.438 136.932 152.621 136.829 Q 155.141 136.685 157.732 136.826 Q 157.791 136.835 157.85 136.844 Q 157.885 136.944 157.921 137.085 Q 158.306 137.138 158.641 137.274 Q 158.782 137.241 158.965 137.25 Q 159.191 137.244 159.409 137.238 Q 159.835 137.341 160.221 137.444 Q 160.547 137.456 160.906 137.476 Q 162.915 137.809 164.259 138.971 Q 164.268 138.971 164.276 138.988 Q 165.721 140.3 166.359 142.447 Q 166.418 142.665 166.518 142.924 Q 167.124 143.512 167.465 144.315 Q 167.515 144.474 167.565 144.641 Q 167.615 144.741 167.665 144.841 Q 167.874 145.638 167.859 146.6 Q 167.844 147.412 167.853 148.215 Q 167.853 148.256 167.853 148.306 Q 167.853 148.415 167.862 148.524 Q 167.862 148.632 167.862 148.741 Q 167.879 148.815 167.906 148.897 Q 168.021 149.25 168.118 149.638 Q 168.126 149.712 168.135 149.803 Q 168.135 149.844 168.144 149.885 Q 168.206 150.091 168.259 150.306 Q 168.276 150.397 168.294 150.479 Q 168.382 150.741 168.479 151.047 Q 168.532 151.226 168.594 151.424 Q 168.603 151.465 168.603 151.506 Q 168.603 151.894 168.644 152.291 Q 168.726 154.55 168.388 156.644 Q 168.388 156.644 168.379 156.644 Q 168.182 157.032 168.012 157.403 Q 167.985 157.485 167.968 157.576 Q 167.882 157.659 167.806 157.741 Q 167.756 157.824 167.715 157.906 Q 167.697 157.938 167.679 157.979 Q 167.544 158.153 167.418 158.318 Q 167.359 158.35 167.309 158.391 Q 167.3 158.391 167.291 158.4 Q 167.232 158.441 167.182 158.482 Q 167.174 158.524 167.165 158.565 Q 167.165 158.574 167.165 158.574 Q 166.932 159.185 166.618 159.756 Q 166.353 160.15 166.038 160.544 Q 165.291 161.438 164.541 162.356 Q 164.341 162.6 164.141 162.835 Q 163.782 163.338 163.415 163.8 Q 162.406 164.991 161.179 165.95 Q 161.129 166 161.071 166.05 Q 160.988 166.05 160.988 166.05 Q 160.538 166.468 160.088 166.844 Q 159.412 167.406 158.768 167.794 Q 158.759 167.844 158.75 167.894 Q 157.435 168.844 156.191 169.568 Q 156.15 169.576 156.15 169.585 Q 156.141 169.585 156.132 169.585 Q 156.032 169.635 155.941 169.685 Q 153.821 170.732 151.853 171.353 Q 150.494 171.774 148.647 171.918 Q 147.365 172.053 145.876 172.053 Q 144.612 172.053 143.388 171.885 Q 141.688 171.65 140.056 171.065 Q 139.788 170.956 139.521 170.847 Q 138.097 170.294 136.832 169.491 Q 135.485 168.647 134.306 167.526 Q 134.306 167.526 134.306 167.526 Q 133.074 166.329 132.118 164.797 Q 132.068 164.738 132.026 164.688 Q 131.306 163.6 130.735 162.338 Q 130.735 162.338 130.735 162.338 Q 130.668 162.171 130.6 162.003 Q 130.541 161.953 130.541 161.903 Q 130.532 161.894 130.532 161.885 Q 129.997 160.444 129.712 158.971 Q 129.703 158.962 129.712 158.953 Q 129.359 157.471 129.338 155.906 Q 129.338 155.897 129.338 155.888 Q 129.329 155.771 129.329 155.653 L 129.329 155.635" fill="#0066CC"/>
		<path d="M 140.168 154.259 Q 140.203 153.535 140.365 152.853 Q 140.771 151.659 140.771 151.65 Q 141.141 150.753 141.735 150.088 Q 141.894 149.953 142.053 149.826 Q 142.221 149.624 142.406 149.438 Q 143.976 147.959 146.329 147.235 Q 148.103 146.735 150.321 146.435 Q 151.924 146.226 153.612 146.341 Q 153.938 146.385 154.224 146.438 Q 155.147 146.524 156.012 146.659 Q 156.574 146.732 157.109 146.824 Q 157.653 146.924 158.038 147.032 Q 158.206 147.062 158.365 147.132 Q 158.782 147.341 159.206 147.565 Q 159.268 148.135 159.303 148.724 Q 159.365 149.641 159.462 150.559 Q 159.479 150.785 159.497 151.012 Q 159.497 151.012 159.506 151.021 Q 159.506 151.071 159.515 151.121 Q 159.524 151.229 159.541 151.347 Q 159.541 151.397 159.55 151.447 Q 159.585 151.632 159.647 151.826 Q 159.647 151.826 159.656 151.835 Q 159.665 151.885 159.682 151.935 Q 159.665 152.035 159.656 152.135 Q 159.647 152.176 159.647 152.226 Q 159.621 152.471 159.612 152.715 Q 159.585 153.018 159.568 153.329 Q 159.559 153.371 159.559 153.421 Q 159.541 153.512 159.541 153.621 Q 159.532 153.738 159.524 153.865 Q 159.441 154.738 159.285 155.571 Q 159.25 155.797 159.165 156.015 Q 159.156 156.065 159.147 156.124 Q 159.094 156.288 159.032 156.453 Q 159.024 156.462 159.015 156.471 Q 158.279 157.179 158.085 158.076 L 158.044 158.126 Q 158.026 158.085 158.018 158.062 Q 157.965 157.959 157.912 157.847 Q 157.25 158.444 156.635 158.891 Q 155.306 159.859 153.882 160.665 Q 153.35 160.918 152.818 161.135 Q 152.85 161.135 152.841 161.135 Q 151.544 161.694 150.171 161.888 Q 148.368 162.106 146.538 161.832 Q 146.303 161.797 146.068 161.753 Q 146.059 161.744 146.041 161.744 Q 145.394 161.621 144.832 161.421 Q 144.782 161.403 144.732 161.394 Q 142.612 160.679 141.438 159.265 Q 141.479 159.256 141.479 159.247 Q 141.271 158.959 141.079 158.621 Q 140.738 158.029 140.547 157.388 Q 140.156 156.038 140.168 154.432 Q 140.168 154.424 140.168 154.424 L 140.168 154.259" fill="#0066CC"/>
	</g>
</svg>
