<?xml version="1.0"?>
<!DOCTYPE svg PUBLIC "-//W3C//DTD SVG 1.1//EN" "http://www.w3.org/Graphics/SVG/1.1/DTD/svg11.dtd">
<svg version='1.1' width='17px' height='44px' xmlns='http://www.w3.org/2000/svg' xmlns:xlink='http://www.w3.org/1999/xlink'>
	<g transform="translate(-49.0559,-145.266)">
		<path d="M 49.0559 148.663 L 49.1559 148.712 Q 49.2162 148.421 49.2765 148.129 Q 49.2765 148.129 49.325 148.081 Q 51.0632 146.625 52.8985 145.266 Q 52.9485 145.266 53.0956 145.412 Q 53.3074 145.654 53.7618 146.188 Q 54.3926 146.965 55.4118 148.421 Q 57.0618 151.046 59.8765 155.562 Q 66.0397 165.519 66.0397 176.156 Q 66.0397 180.81 65.5544 183.766 Q 65.4559 184.275 65.3426 184.728 Q 65.2279 185.278 65.0603 185.715 Q 64.4647 187.704 63.4324 188.335 Q 62.1691 189.16 61.1971 187.413 Q 60.9794 187.025 60.7691 186.475 Q 60.5574 185.925 60.3632 185.222 Q 59.9265 183.5 59.5868 181 Q 58.3735 171.797 55.5103 163.856 Q 52.8412 156.549 49.6382 149.824 Q 49.3956 149.371 49.1529 148.918 Q 49.1044 148.768 49.0559 148.666 L 49.0559 148.663" fill="#0066CC"/>
	</g>
</svg>
