<?xml version="1.0"?>
<!DOCTYPE svg PUBLIC "-//W3C//DTD SVG 1.1//EN" "http://www.w3.org/Graphics/SVG/1.1/DTD/svg11.dtd">
<svg version='1.1' width='18px' height='91px' xmlns='http://www.w3.org/2000/svg' xmlns:xlink='http://www.w3.org/1999/xlink'>
	<g transform="translate(-208.766,-102.256)">
		<path d="M 209.464 127.141 Q 211.795 122.982 214.15 119.314 Q 217.227 114.173 218.073 108.618 Q 218.082 108.536 218.091 108.455 Q 218.091 106.545 218.55 105.136 Q 218.632 104.914 218.714 104.691 Q 219.273 103.368 220.473 102.773 Q 221.923 102.041 224.3 102.345 Q 226.032 102.555 226.182 103.955 Q 226.191 103.995 226.2 104.036 Q 226.264 104.977 226.355 105.936 Q 226.659 107.568 226.55 109.382 Q 226.345 112.786 226.114 117.464 Q 225.668 128.395 225.945 140.627 Q 225.945 141.059 225.945 141.491 Q 226.245 155.514 226.586 168.668 Q 226.755 175.059 226.732 180.823 Q 226.727 181.905 226.623 182.932 Q 226.214 186.168 225.045 188.832 Q 223.555 193.132 220.686 192.186 Q 219.445 191.595 217.818 189.455 Q 218.418 184.959 218.636 176.586 Q 218.7 172.755 218.7 168.086 Q 218.732 161.195 218.536 152.514 Q 218.536 152.364 218.536 152.205 Q 218.405 146.282 218.15 139.714 Q 218.1 138.841 218.041 137.977 Q 218.023 137.445 217.945 136.923 Q 217.909 136.582 217.864 136.259 Q 217.75 135.727 217.618 135.223 Q 217.395 134.15 217.173 133.114 Q 217.118 132.809 217.064 132.505 Q 216.791 131.305 216.518 130.073 Q 214.236 132.55 212.209 132.082 Q 211.818 131.982 211.468 131.882 Q 210.505 131.55 209.868 131.136 Q 208.986 130.559 208.827 129.709 Q 208.618 128.823 209.123 127.764 Q 209.268 127.482 209.464 127.159 L 209.464 127.141" fill="#0066CC"/>
	</g>
</svg>
