<?xml version="1.0"?>
<!DOCTYPE svg PUBLIC "-//W3C//DTD SVG 1.1//EN" "http://www.w3.org/Graphics/SVG/1.1/DTD/svg11.dtd">
<svg version='1.1' width='10px' height='70px' xmlns='http://www.w3.org/2000/svg' xmlns:xlink='http://www.w3.org/1999/xlink'>
	<g transform="translate(-81.4265,-110.81)">
		<path d="M 81.4265 121.103 Q 81.4265 120.332 81.6529 119.656 Q 81.8794 118.85 82.2294 118.291 Q 83.75 115.732 85.4971 113.056 Q 85.8853 112.409 86.1912 112.009 Q 86.3441 111.847 86.4353 111.726 Q 86.5059 111.556 86.5647 111.456 Q 86.8882 110.676 88.0647 110.838 Q 91.2706 110.885 90.9471 117.168 Q 90.5941 124.026 90.4471 129.326 Q 90.4176 130.524 90.3882 131.691 Q 90.3882 131.791 90.3882 131.862 Q 90.3588 135.829 90.3882 139.562 L 90.4471 139.603 Q 90.4176 140.162 90.4176 140.721 L 90.4471 140.732 Q 90.4471 142.618 90.4471 144.474 L 90.4176 144.515 Q 90.3294 154.424 90.3882 163.509 Q 90.3882 163.688 90.3882 163.868 Q 90.4176 167.026 90.5059 169.979 Q 90.5353 170.75 90.3382 171.418 Q 90.1206 172.115 89.8206 172.556 Q 89.2412 173.703 88.7118 174.762 Q 88.0147 176.379 87.1412 177.674 Q 86.7912 178.203 86.5353 178.447 Q 86.25 178.838 86.1324 179.038 Q 85.6618 180.447 84.2206 179.856 Q 81.6324 179.194 81.5735 172.915 Q 81.5441 166.297 81.6029 154.15 Q 81.6029 153.971 81.6029 153.791 Q 81.6324 144.485 81.6912 133.915 Q 81.5735 133.862 81.4853 133.809 L 81.4559 125.25 Q 81.4265 123.774 81.4265 122.268 Q 81.4265 121.7 81.4265 121.162 L 81.4265 121.103" fill="#0066CC"/>
	</g>
</svg>
