<?xml version="1.0"?>
<!DOCTYPE svg PUBLIC "-//W3C//DTD SVG 1.1//EN" "http://www.w3.org/Graphics/SVG/1.1/DTD/svg11.dtd">
<svg version='1.1' width='33px' height='47px' xmlns='http://www.w3.org/2000/svg' xmlns:xlink='http://www.w3.org/1999/xlink'>
	<g transform="translate(-86.2,-126.663)">
		<path d="M 86.2 131.04 Q 86.56 130.12 87.24 129.43 Q 87.26 129.38 87.31 129.38 Q 87.96 128.5 88.79 127.87 Q 88.77 127.87 88.77 127.87 Q 89.71 127.16 90.94 126.87 Q 91.14 126.82 91.37 126.8 Q 93.97 126.56 96.81 126.74 Q 97.49 126.8 98.2 126.88 Q 98.25 126.88 98.27 126.88 Q 101.14 127.08 103.83 127.61 Q 103.88 127.61 103.93 127.64 Q 107.21 127.91 109.86 128.5 Q 111.36 128.75 112.65 129.06 Q 112.99 129 113.52 129.17 Q 113.92 129.27 114.63 129.75 Q 115.52 130.42 116.36 132.04 Q 116.36 132.06 116.36 132.11 Q 117.44 134.45 118.03 137.5 Q 118.03 137.55 118.03 137.65 Q 118.06 137.83 118.09 138.04 Q 118.06 139.57 118.12 141.37 Q 118.12 141.47 118.12 141.57 Q 117.94 146.05 118.18 151.22 Q 118.18 151.27 118.18 151.32 Q 118.21 153.76 118.33 156.47 L 118.33 156.47 Q 118.48 161.34 118.78 166.66 Q 118.79 167.4 118.6 168.04 Q 118.39 168.68 118.1 169.13 Q 117.95 169.4 117.82 169.67 Q 117.78 169.73 117.74 169.79 Q 116.49 172.4 113.83 173.09 Q 113.68 173.15 113.5 173.18 Q 113.32 173.21 113.14 173.21 Q 113.04 173.24 112.97 173.22 Q 112.56 173.22 112.21 173.08 Q 112.1 173.06 111.99 173.01 Q 111.73 172.91 111.49 172.75 Q 111.16 172.55 110.92 172.27 Q 109.63 170.56 109.21 167.11 Q 108.1 160.55 107.92 154.44 L 107.92 154.41 Q 107.71 150.73 107.62 147.35 Q 107.56 144.47 107.49 141.96 Q 107.49 141.94 107.49 141.94 Q 107.37 139.96 107.23 138.45 Q 107.15 138.41 107.07 138.37 Q 107.07 138.39 107.09 138.39 Q 106.04 138.11 104.8 138.05 Q 104.7 138.03 104.62 138.03 Q 103.01 137.94 101.02 138.06 Q 100.89 138.06 100.76 138.06 Q 100.66 138.09 100.56 138.09 Q 98.36 138.4 96.1 139.08 Q 95.33 139.29 94.56 139.52 Q 94.51 139.52 94.46 139.55 Q 92.53 140.1 90.88 140.41 Q 87.28 137.76 86.23 131.56 Q 86.2 131.36 86.2 131.16 L 86.2 131.04" fill="#0066CC"/>
	</g>
</svg>
