<?xml version="1.0"?>
<!DOCTYPE svg PUBLIC "-//W3C//DTD SVG 1.1//EN" "http://www.w3.org/Graphics/SVG/1.1/DTD/svg11.dtd">
<svg version='1.1' width='9px' height='80px' xmlns='http://www.w3.org/2000/svg' xmlns:xlink='http://www.w3.org/1999/xlink'>
	<g transform="translate(-79.7647,-108.255)">
		<path d="M 79.7647 125.779 Q 79.7647 125.024 79.8294 124.259 Q 79.8941 123.35 79.9941 122.512 Q 80.5 118.674 81.3206 114.659 Q 81.5029 113.688 81.6618 112.788 Q 81.7412 112.421 81.8029 112.065 Q 81.8588 111.659 81.9471 111.309 Q 82.4324 109.265 84.1971 108.632 Q 89.0059 106.753 88.5206 114.226 Q 87.9912 121.865 87.7706 127.165 Q 87.7265 128.435 87.6824 129.662 Q 87.6824 129.762 87.6824 129.818 Q 87.6382 134.094 87.6824 138.018 L 87.7706 138.029 Q 87.7265 138.618 87.7265 139.206 L 87.7706 139.174 Q 87.7706 141.176 87.7706 143.135 L 87.7265 143.147 Q 87.5941 153.835 87.6824 163.288 Q 87.6824 163.482 87.6824 163.676 Q 87.7265 167.115 87.8588 170.244 Q 87.9029 171 87.8824 171.726 Q 87.8559 172.497 87.8059 173.159 Q 87.7118 174.879 87.6676 176.468 Q 87.6471 178.894 87.3618 180.835 Q 87.2618 181.629 87.1529 182.271 Q 87 183.132 86.8235 183.832 Q 86.1176 187.271 83.9559 187.709 Q 80.0735 188.591 79.9853 181.047 Q 79.9412 175.121 80.0294 160.9 Q 80.0294 160.706 80.0294 160.512 Q 80.0735 150.853 80.1618 139.297 Q 79.9853 139.318 79.8529 139.338 L 79.8088 130.25 Q 79.7647 128.685 79.7647 127.076 Q 79.7647 126.45 79.7647 125.868 L 79.7647 125.779" fill="#0066CC"/>
	</g>
</svg>
