<?xml version="1.0"?>
<!DOCTYPE svg PUBLIC "-//W3C//DTD SVG 1.1//EN" "http://www.w3.org/Graphics/SVG/1.1/DTD/svg11.dtd">
<svg version='1.1' width='32px' height='45px' xmlns='http://www.w3.org/2000/svg' xmlns:xlink='http://www.w3.org/1999/xlink'>
	<g transform="translate(-233.45,-130.701)">
		<path d="M 233.45 138.053 Q 233.505 136.876 233.566 136.153 Q 233.621 135.276 233.637 135.116 Q 233.613 134.274 233.863 133.661 Q 234.234 131.887 235.895 131.303 Q 236.563 131.068 237.411 131.013 Q 237.505 131.013 237.6 131.013 Q 245.203 131.753 251.437 130.929 Q 251.442 130.929 251.492 130.929 Q 251.737 130.874 252.026 130.818 Q 254.416 130.532 256.979 130.945 Q 256.979 130.945 257.024 130.945 Q 257.721 131.068 258.508 131.282 Q 258.603 131.321 258.697 131.361 Q 258.697 131.361 258.742 131.361 Q 258.742 131.361 258.742 131.361 Q 259.266 131.389 259.745 131.647 Q 259.7 131.603 259.7 131.603 Q 262.597 132.603 262.95 136.05 Q 262.955 136.05 262.961 136.095 Q 263.124 138.508 263.561 141.171 Q 263.653 141.837 263.784 142.553 Q 263.789 142.553 263.795 142.597 Q 264.029 143.9 264.042 145.289 Q 264.047 145.429 264.008 145.568 Q 264.182 147.661 264.3 149.832 Q 264.3 149.966 264.3 150.1 Q 264.418 153.387 264.458 156.539 Q 264.503 156.729 264.503 156.963 Q 264.413 157.926 264.503 159.068 Q 264.503 159.074 264.503 159.124 Q 264.592 160.779 264.637 162.345 Q 264.682 165.626 264.461 168.539 Q 264.592 174.303 263.089 174.905 Q 262.766 175.05 262.308 175.061 Q 262.263 175.061 262.218 175.061 Q 261.611 175.047 260.958 175.203 Q 260.224 175.35 258.847 173.739 Q 258.487 173.382 258.121 172.511 Q 256.661 169.239 255.447 159.226 Q 255.447 159.226 255.447 159.182 Q 255.358 157.961 255.324 156.958 Q 254.937 154.947 254.682 152.787 Q 254.318 151.342 254.05 149.863 Q 253.584 147.466 253.179 144.911 Q 253.118 144.563 253.058 144.216 Q 252.837 143.437 252.929 142.787 Q 252.924 142.697 252.963 142.653 Q 252.892 142.216 252.955 141.824 Q 252.387 141.839 251.818 141.626 Q 251.184 141.334 249.745 141.171 Q 248.029 141.092 240.739 140.934 Q 233.574 140.816 233.45 138.142 L 233.45 138.053" fill="#0066CC"/>
	</g>
</svg>
