<?xml version="1.0"?>
<!DOCTYPE svg PUBLIC "-//W3C//DTD SVG 1.1//EN" "http://www.w3.org/Graphics/SVG/1.1/DTD/svg11.dtd">
<svg version='1.1' width='10px' height='78px' xmlns='http://www.w3.org/2000/svg' xmlns:xlink='http://www.w3.org/1999/xlink'>
	<g transform="translate(-232.05,-108.679)">
		<path d="M 232.625 111.975 Q 233.215 107.466 236.45 109.125 Q 240.693 111.256 240.475 118.1 Q 239.615 146.325 241.175 174.55 Q 241.34 177.437 240.8 180.125 Q 238.57 191.065 232.35 183.55 Q 232.295 183.201 232.25 182.85 Q 232.193 182.403 232.15 181.95 Q 232.077 181.562 232.05 181.15 Q 232.126 180.843 232.25 179.15 Q 232.541 175.174 233.1 163.575 Q 233.903 147.023 233.375 136.1 Q 232.83 125.177 232.375 121.125 Q 232.314 120.579 232.275 120.025 Q 232.126 117.88 232.275 115.475 Q 232.378 113.791 232.625 111.975 Z" fill="#0066CC"/>
	</g>
</svg>
