<?xml version="1.0"?>
<!DOCTYPE svg PUBLIC "-//W3C//DTD SVG 1.1//EN" "http://www.w3.org/Graphics/SVG/1.1/DTD/svg11.dtd">
<svg version='1.1' width='38px' height='49px' xmlns='http://www.w3.org/2000/svg' xmlns:xlink='http://www.w3.org/1999/xlink'>
	<g transform="translate(-79.1943,-126.595)">
		<path d="M 79.2 133.208 Q 79.3 132.308 79.6421 131.6 Q 79.7395 131.35 79.8842 131.147 Q 79.8842 131.097 79.9316 131.095 Q 80.6316 129.382 82.0342 128.613 Q 82.6474 128.274 83.4026 128.124 Q 83.6079 128.074 83.8605 128.071 Q 86.5184 128.139 89.4789 128.392 Q 89.5263 128.392 89.5737 128.389 Q 90.2816 128.476 91.0368 128.563 L 91.0842 128.563 L 96.4105 128.884 Q 96.5026 128.887 96.6 128.889 Q 96.8026 128.884 97.0053 128.926 Q 97.0553 128.926 97.1053 128.974 Q 102.797 128.353 107.232 127.129 Q 107.642 126.734 108.384 126.671 Q 108.895 126.463 109.924 126.824 Q 111.095 127.016 112.308 128.579 Q 112.311 128.579 112.313 128.626 Q 112.571 128.945 112.829 129.308 Q 113.255 129.942 113.626 130.655 Q 114.213 131.747 114.642 133.113 Q 114.8 133.568 114.908 134.024 Q 114.961 134.224 115.013 134.471 Q 115.005 136.032 115.116 138.029 Q 115.116 138.129 115.116 138.229 Q 114.955 141.55 115.042 145.524 Q 115.068 146.934 115.145 148.439 Q 115.145 148.489 115.145 148.539 Q 115.158 151.066 115.318 154.021 Q 115.318 154.021 115.318 154.021 Q 115.392 155.989 115.518 158.1 Q 115.637 160.771 115.805 163.634 Q 115.976 166.003 116.197 168.513 Q 116.197 168.613 116.197 168.713 Q 116.032 173.026 113.639 174.308 Q 113.495 174.416 113.303 174.476 Q 113.111 174.537 112.918 174.55 Q 112.821 174.608 112.771 174.618 Q 112.289 174.792 111.8 174.721 Q 111.508 174.734 111.213 174.65 Q 110.516 174.539 109.945 174.168 Q 108.274 173.111 107.576 169.971 Q 107.479 169.626 107.429 169.282 Q 106.197 164.503 105.687 160.053 Q 105.455 157.942 105.368 155.932 Q 105.368 155.932 105.368 155.884 Q 104.687 146.808 105.008 140.316 Q 104.976 139.716 104.989 139.161 Q 101.579 139.761 97.7237 140.108 Q 97.6211 140.158 97.5184 140.161 Q 95.8079 140.474 94.0921 140.784 Q 93.9947 140.787 93.9026 140.789 L 91.1921 141.368 Q 91.1421 141.368 91.0921 141.416 Q 88.9421 141.697 87.1237 141.458 Q 87.1237 141.458 87.1237 141.461 Q 81.0974 140.689 79.2684 133.824 Q 79.1658 133.524 79.2053 133.224 L 79.2 133.208" fill="#0066CC"/>
	</g>
</svg>
