<?xml version="1.0"?>
<!DOCTYPE svg PUBLIC "-//W3C//DTD SVG 1.1//EN" "http://www.w3.org/Graphics/SVG/1.1/DTD/svg11.dtd">
<svg version='1.1' width='47px' height='25px' xmlns='http://www.w3.org/2000/svg' xmlns:xlink='http://www.w3.org/1999/xlink'>
	<g transform="translate(-27.9853,-111.964)">
		<path d="M 27.9853 127.456 Q 28.0265 126.697 28.3912 126.106 Q 28.45 125.985 28.5294 125.865 Q 28.7559 125.532 29.0324 125.359 Q 29.2529 125.206 29.5441 125.144 Q 29.5941 125.124 29.6441 125.124 Q 29.9029 125.082 30.2029 125.082 Q 35.2324 125.021 39.9941 124.094 Q 41.8441 123.744 43.6735 123.25 Q 45.0412 122.9 46.3882 122.509 Q 58.4118 118.865 68.85 112.853 Q 70.2235 111.906 71.7 111.968 Q 72.4176 112.009 73.0088 112.579 Q 73.5882 113.109 73.8353 113.929 Q 74.0618 114.759 74.2882 115.732 Q 74.8441 118.276 74.7824 120.656 Q 74.7618 121.415 74.3265 121.985 Q 74.0588 122.397 73.7118 122.691 Q 73.5029 122.844 73.2647 122.968 Q 66.9706 126.529 60.1824 129.247 Q 57.9412 130.174 55.6382 131.018 Q 53.7647 131.676 51.85 132.274 Q 49.8735 132.85 47.9382 133.468 Q 47.8588 133.488 47.8 133.488 L 47.8 133.468 Q 46.6824 133.776 45.5647 134.044 Q 45.3353 134.085 45.1265 134.126 Q 44.5853 134.291 44.0441 134.435 Q 43.9647 134.456 43.8647 134.476 Q 40.3265 135.321 36.6647 135.938 Q 34 136.412 31.5824 136.021 Q 30.8147 135.918 30.2441 135.409 Q 29.6324 134.879 29.3647 134.1 Q 28.85 132.415 28.4382 130.379 Q 28.2118 129 28.0059 127.538 L 27.9853 127.456" fill="#0066CC"/>
	</g>
</svg>
