<?xml version="1.0"?>
<!DOCTYPE svg PUBLIC "-//W3C//DTD SVG 1.1//EN" "http://www.w3.org/Graphics/SVG/1.1/DTD/svg11.dtd">
<svg version='1.1' width='45px' height='35px' xmlns='http://www.w3.org/2000/svg' xmlns:xlink='http://www.w3.org/1999/xlink'>
	<g transform="translate(-27.6176,-111.652)">
		<path d="M 27.6176 136.853 Q 27.6882 136.124 27.9206 135.503 Q 27.95 135.368 28.0147 135.232 Q 28.1529 134.841 28.3412 134.579 Q 28.5765 134.353 28.8971 134.247 Q 28.9471 134.212 28.9971 134.212 Q 29.2265 134.141 29.5265 134.141 Q 34.7912 134.035 39.5971 132.447 Q 41.4471 131.847 43.2618 131 Q 44.5706 130.4 45.8441 129.729 Q 57.2059 123.482 65.85 113.176 Q 67.0618 111.553 68.45 111.659 Q 69.1088 111.729 69.7294 112.315 Q 70.2941 112.829 70.7176 113.665 Q 71.1059 114.479 71.4941 115.541 Q 72.4471 118.188 72.3412 120.553 Q 72.3059 121.282 71.9882 121.868 Q 71.7794 122.324 71.5059 122.721 Q 71.3265 122.947 71.1324 123.159 Q 65.9853 129.265 59.9912 133.924 Q 57.9706 135.512 55.8441 136.959 Q 54.1324 138.088 52.35 139.112 Q 50.4618 140.1 48.6441 141.159 Q 48.5794 141.194 48.55 141.194 L 48.55 141.159 Q 47.4912 141.688 46.4324 142.147 Q 46.2176 142.218 46.0382 142.288 Q 45.4676 142.571 44.8971 142.818 Q 44.8324 142.853 44.7324 142.888 Q 41.2382 144.335 37.5324 145.394 Q 34.75 146.206 32.3912 145.535 Q 31.6824 145.359 31.0971 144.879 Q 30.4412 144.365 29.9824 143.6 Q 29.1 142.032 28.3941 139.865 Q 28.0059 138.5 27.6529 136.994 L 27.6176 136.853" fill="#0066CC"/>
	</g>
</svg>
