<?xml version="1.0"?>
<!DOCTYPE svg PUBLIC "-//W3C//DTD SVG 1.1//EN" "http://www.w3.org/Graphics/SVG/1.1/DTD/svg11.dtd">
<svg version='1.1' width='10px' height='68px' xmlns='http://www.w3.org/2000/svg' xmlns:xlink='http://www.w3.org/1999/xlink'>
	<g transform="translate(-81.7588,-111.158)">
		<path d="M 81.7588 120.168 Q 81.7588 119.394 82.0176 118.735 Q 82.2765 117.95 82.6765 117.447 Q 84.4 115.144 86.3324 112.735 Q 86.7618 112.153 87.0971 111.853 Q 87.2647 111.732 87.3618 111.659 Q 87.4353 111.535 87.4882 111.485 Q 87.7794 110.959 88.8382 111.279 Q 91.7235 111.712 91.4324 117.756 Q 91.1147 124.459 90.9824 129.759 Q 90.9559 130.941 90.9294 132.097 Q 90.9294 132.197 90.9294 132.271 Q 90.9029 136.176 90.9294 139.871 L 90.9824 139.918 Q 90.9559 140.471 90.9559 141.024 L 90.9824 141.044 Q 90.9824 142.906 90.9824 144.741 L 90.9559 144.788 Q 90.8765 154.541 90.9294 163.553 Q 90.9294 163.729 90.9294 163.906 Q 90.9559 167.009 91.0353 169.926 Q 91.0618 170.7 90.8294 171.356 Q 90.5735 172.038 90.2235 172.435 Q 89.5471 173.468 88.9206 174.421 Q 88.0882 175.876 87.0971 177.041 Q 86.6971 177.518 86.4118 177.682 Q 86.1 177.979 85.9941 178.079 Q 85.5706 179.082 84.2735 178.285 Q 81.9441 177.315 81.8912 171.288 Q 81.8647 164.532 81.9176 152.8 Q 81.9176 152.624 81.9176 152.447 Q 81.9441 143.212 81.9971 132.838 Q 81.8912 132.771 81.8118 132.703 L 81.7853 124.25 Q 81.7588 122.791 81.7588 121.306 Q 81.7588 120.75 81.7588 120.221 L 81.7588 120.168" fill="#0066CC"/>
	</g>
</svg>
