<?xml version="1.0"?>
<!DOCTYPE svg PUBLIC "-//W3C//DTD SVG 1.1//EN" "http://www.w3.org/Graphics/SVG/1.1/DTD/svg11.dtd">
<svg version='1.1' width='16px' height='46px' xmlns='http://www.w3.org/2000/svg' xmlns:xlink='http://www.w3.org/1999/xlink'>
	<g transform="translate(-48.5706,-137.744)">
		<path d="M 48.5706 140.009 L 48.6706 140.041 Q 48.8441 139.847 49.0176 139.653 Q 49.0176 139.653 49.05 139.621 Q 51.2088 138.65 53.4324 137.744 Q 53.4824 137.744 53.5971 137.841 Q 53.9382 138.003 54.4412 138.359 Q 55.4118 138.876 56.6412 139.847 Q 57.7412 143.297 59.6176 147.991 Q 63.7265 159.129 63.7265 170.721 Q 63.7265 175.424 63.4029 178.994 Q 63.3206 179.6 63.0618 180.085 Q 62.7853 180.635 62.4235 180.926 Q 61.3265 182.253 59.9382 182.674 Q 58.5294 183.224 57.3147 182.059 Q 56.9029 181.8 56.5794 181.25 Q 56.2382 180.7 56.1088 179.965 Q 55.8176 178 55.5912 175.5 Q 54.7824 165.715 52.8735 156.771 Q 51.0941 148.832 48.9588 141.282 Q 48.7971 140.797 48.6353 140.312 Q 48.6029 140.162 48.5706 140.044 L 48.5706 140.009" fill="#0066CC"/>
	</g>
</svg>
