<?xml version="1.0"?>
<!DOCTYPE svg PUBLIC "-//W3C//DTD SVG 1.1//EN" "http://www.w3.org/Graphics/SVG/1.1/DTD/svg11.dtd">
<svg version='1.1' width='13px' height='48px' xmlns='http://www.w3.org/2000/svg' xmlns:xlink='http://www.w3.org/1999/xlink'>
	<g transform="translate(-47.9529,-128.171)">
		<path d="M 47.9529 128.994 L 48.0529 129.006 Q 48.3706 128.935 48.6882 128.865 Q 48.6882 128.865 48.7 128.853 Q 51.3941 128.5 54.1118 128.171 Q 54.1618 128.171 54.2353 128.206 Q 54.7412 128.265 55.3059 128.394 Q 56.7088 128.582 58.2059 128.935 Q 58.6059 133.435 59.2882 138.356 Q 60.7824 150.997 60.7824 163.803 Q 60.7824 168.568 60.6647 172.921 Q 60.6029 173.65 60.1588 174.176 Q 59.6765 174.726 59.0676 174.832 Q 57.3324 175.315 55.4912 175.468 Q 53.8971 175.668 52.3735 175.244 Q 51.7147 175.15 51.2471 174.6 Q 50.7412 174.05 50.6941 173.274 Q 50.5882 171 50.5059 168.5 Q 50.2118 157.974 49.5176 147.753 Q 48.8706 139.012 48.0941 130.412 Q 48.0353 129.885 47.9765 129.359 Q 47.9647 129.209 47.9529 129.071 L 47.9529 128.994" fill="#0066CC"/>
	</g>
</svg>
