<?xml version="1.0"?>
<!DOCTYPE svg PUBLIC "-//W3C//DTD SVG 1.1//EN" "http://www.w3.org/Graphics/SVG/1.1/DTD/svg11.dtd">
<svg version='1.1' width='45px' height='38px' xmlns='http://www.w3.org/2000/svg' xmlns:xlink='http://www.w3.org/1999/xlink'>
	<g transform="translate(-27.5074,-111.559)">
		<path d="M 27.5074 139.672 Q 27.5868 138.951 27.7794 138.322 Q 27.8 138.182 27.8603 138.043 Q 27.9721 137.634 28.1338 137.346 Q 28.3735 137.097 28.7029 136.978 Q 28.7529 136.938 28.8029 136.938 Q 29.0235 136.859 29.3235 136.859 Q 34.6588 136.74 39.4779 134.953 Q 41.3279 134.278 43.1382 133.325 Q 44.4294 132.65 45.6809 131.896 Q 56.8441 124.868 64.95 113.274 Q 66.1132 111.447 67.475 111.566 Q 68.1162 111.646 68.7456 112.235 Q 69.3059 112.746 69.7824 113.585 Q 70.2191 114.396 70.6559 115.484 Q 71.7279 118.162 71.6088 120.522 Q 71.5691 121.243 71.2868 121.832 Q 71.0956 122.301 70.8441 122.729 Q 70.6735 122.978 70.4926 123.216 Q 65.6897 130.085 59.9338 135.326 Q 57.9794 137.113 55.9059 138.741 Q 54.2426 140.012 52.5 141.163 Q 50.6382 142.275 48.8559 143.466 Q 48.7956 143.506 48.775 143.506 L 48.775 143.466 Q 47.7338 144.062 46.6926 144.578 Q 46.4824 144.657 46.3118 144.737 Q 45.7324 145.054 45.1529 145.332 Q 45.0926 145.372 44.9926 145.412 Q 41.5118 147.04 37.7926 148.231 Q 34.975 149.144 32.6338 148.39 Q 31.9426 148.191 31.3529 147.721 Q 30.6838 147.21 30.1676 146.45 Q 29.175 144.918 28.3809 142.71 Q 27.9441 141.35 27.5471 139.831 L 27.5074 139.672" fill="#0066CC"/>
	</g>
</svg>
