<?xml version="1.0"?>
<!DOCTYPE svg PUBLIC "-//W3C//DTD SVG 1.1//EN" "http://www.w3.org/Graphics/SVG/1.1/DTD/svg11.dtd">
<svg version='1.1' width='20px' height='68px' xmlns='http://www.w3.org/2000/svg' xmlns:xlink='http://www.w3.org/1999/xlink'>
	<g transform="translate(-154.554,-112.215)">
		<path d="M 154.554 114.654 Q 154.554 114.315 154.615 114.054 Q 154.793 113.793 155.033 113.622 Q 155.072 113.572 155.122 113.522 Q 155.45 113.183 155.889 112.943 Q 156.039 112.854 156.189 112.804 Q 156.439 112.676 156.7 112.576 Q 157.1 112.398 157.511 112.337 Q 157.95 112.237 158.361 112.215 Q 158.761 112.233 159.122 112.25 Q 160.485 112.48 161.383 113.13 Q 161.604 113.315 161.787 113.5 Q 162.191 113.87 162.557 114.278 Q 164.27 116.607 165.759 119.15 Q 166.872 121.028 167.78 122.989 Q 168.413 124.352 168.952 125.748 Q 168.952 125.787 168.963 125.837 Q 169.567 127.293 170.139 128.815 Q 170.7 130.326 171.189 131.941 Q 171.189 131.98 171.2 132.02 Q 171.409 132.654 171.596 133.35 Q 172.067 135.198 172.459 137.172 Q 172.43 137.233 172.48 137.304 Q 172.491 137.404 172.502 137.543 Q 172.596 138.111 172.678 138.678 L 172.667 138.678 Q 173.157 142.343 173.352 146.291 L 173.43 148.659 Q 173.43 148.859 173.47 149.059 Q 173.587 152.026 173.704 155.033 Q 173.783 156.672 173.822 158.311 Q 173.822 158.611 173.861 158.911 Q 174.017 165.378 173.939 172.002 Q 173.939 173.141 173.822 174.32 Q 173.704 175.048 173.587 175.776 Q 173.509 176.176 173.426 176.604 Q 173.315 176.983 173.183 177.35 Q 172.878 178.007 172.559 178.615 Q 172.509 178.654 172.42 178.693 Q 171.88 178.889 171.341 179.124 Q 170.402 179.476 169.346 179.593 Q 168.507 179.711 167.707 179.476 Q 166.189 179.046 165.298 178.263 Q 165.298 178.263 165.298 178.263 Q 164.915 177.861 164.711 177.426 Q 164.657 177.276 164.613 177.115 Q 164.483 176.526 164.483 175.893 Q 164.522 174.065 164.561 172.287 Q 164.561 171.898 164.561 171.548 Q 164.678 169.07 164.757 166.63 Q 164.796 164.213 164.835 161.796 Q 164.835 160.317 164.874 158.839 Q 164.874 157.8 164.874 156.839 Q 164.874 151.333 164.6 145.826 Q 164.6 145.676 164.6 145.537 Q 164.5 144.254 164.335 143.059 Q 164.324 143.02 164.324 142.97 Q 164.137 141.852 163.863 140.843 Q 163.517 139.607 163.063 138.478 Q 163.052 138.467 163.052 138.467 Q 162.454 136.876 161.807 135.4 Q 161.202 133.717 160.472 132.111 Q 160.141 131.478 159.811 130.896 Q 159.8 130.857 159.8 130.817 Q 159.178 129.552 158.528 128.32 Q 157.817 126.941 157.117 125.635 Q 156.963 125.354 156.798 125.041 Q 156.715 124.885 156.622 124.728 Q 156.33 124.22 156.093 123.63 Q 155.846 122.846 155.65 122.046 Q 155.572 121.607 155.493 121.167 Q 155.22 119.478 154.907 117.867 Q 154.75 116.339 154.554 114.811 L 154.554 114.654" fill="#0066CC"/>
	</g>
</svg>
