<?xml version="1.0"?>
<!DOCTYPE svg PUBLIC "-//W3C//DTD SVG 1.1//EN" "http://www.w3.org/Graphics/SVG/1.1/DTD/svg11.dtd">
<svg version='1.1' width='29px' height='31px' xmlns='http://www.w3.org/2000/svg' xmlns:xlink='http://www.w3.org/1999/xlink'>
	<g transform="translate(-237.05,-133.324)">
		<path d="M 237.05 140.663 Q 237.126 139.782 237.229 139.163 Q 237.305 138.582 237.384 138.379 Q 237.466 137.768 237.716 137.303 Q 238.171 136.034 239.474 135.513 Q 240.016 135.342 240.653 135.266 Q 240.726 135.266 240.8 135.266 Q 246.613 135.163 251.584 134.045 Q 251.611 134.045 251.661 134.045 Q 251.884 133.968 252.132 133.892 Q 254.079 133.458 256.095 133.324 Q 256.095 133.324 256.118 133.324 Q 256.605 133.342 257.139 133.408 Q 257.213 133.405 257.287 133.403 Q 257.287 133.403 257.311 133.403 Q 257.311 133.403 257.311 133.403 Q 257.729 133.347 258.124 133.437 Q 258.1 133.413 258.1 133.413 Q 260.387 133.613 261.35 135.25 Q 261.376 135.25 261.403 135.274 Q 262.218 136.339 263.203 137.655 Q 263.463 137.984 263.721 138.363 Q 263.747 138.363 263.774 138.387 Q 264.345 139.1 264.611 140.047 Q 264.637 140.145 264.639 140.242 Q 265.108 141.703 265.1 143.558 Q 265.1 143.629 265.1 143.7 Q 265.092 146.334 265.089 148.897 Q 265.113 149.045 265.113 149.216 Q 265.066 150.032 265.113 150.942 Q 265.113 150.968 265.113 151.018 Q 265.161 152.295 265.184 153.524 Q 265.208 156.132 264.903 158.497 Q 264.761 162.513 263.447 163.726 Q 263.229 163.85 262.939 163.903 Q 262.916 163.903 262.892 163.903 Q 262.453 164.037 261.989 164.213 Q 261.318 164.55 260.237 163.697 Q 259.834 163.508 259.405 162.953 Q 256.703 160.397 256.037 153.332 Q 256.037 153.332 256.037 153.308 Q 255.989 152.403 256.018 151.589 Q 255.884 149.937 256.008 148.134 Q 255.392 147.511 254.85 146.916 Q 253.921 145.929 253.095 144.953 Q 252.992 144.816 252.889 144.679 Q 252.584 144.384 252.445 144.134 Q 252.418 144.087 252.416 144.063 Q 252.261 143.879 252.176 143.718 Q 251.734 143.797 251.292 143.732 Q 250.721 143.671 249.724 143.655 Q 247.545 144.061 242.697 143.671 Q 237.868 143.279 237.05 140.711 L 237.05 140.663" fill="#0066CC"/>
	</g>
</svg>
