<?xml version="1.0"?>
<!DOCTYPE svg PUBLIC "-//W3C//DTD SVG 1.1//EN" "http://www.w3.org/Graphics/SVG/1.1/DTD/svg11.dtd">
<svg version='1.1' width='28px' height='55px' xmlns='http://www.w3.org/2000/svg' xmlns:xlink='http://www.w3.org/1999/xlink'>
	<g transform="translate(-143.163,-119.75)">
		<path d="M 143.163 122.263 Q 143.163 121.946 143.246 121.663 Q 143.38 121.38 143.598 121.165 Q 143.615 121.115 143.665 121.065 Q 143.95 120.748 144.367 120.53 Q 144.517 120.463 144.667 120.413 Q 144.917 120.328 145.2 120.228 Q 145.6 120.093 146.033 120.011 Q 146.45 119.911 146.883 119.846 Q 147.283 119.798 147.665 119.75 Q 148.854 119.741 149.948 119.891 Q 150.213 119.946 150.461 120 Q 150.974 120.109 151.47 120.235 Q 154.009 121.02 156.476 122.15 Q 158.415 122.985 160.041 123.967 Q 161.239 124.657 162.257 125.443 Q 162.257 125.461 162.289 125.511 Q 163.502 126.38 164.617 127.446 Q 165.7 128.478 166.667 129.724 Q 166.667 129.741 166.7 129.759 Q 167.126 130.263 167.487 130.85 Q 168.502 132.393 169.176 134.215 Q 169.191 134.298 169.241 134.413 Q 169.274 134.513 169.307 134.63 Q 169.487 135.133 169.635 135.635 L 169.602 135.635 Q 170.57 138.93 170.657 143.074 L 170.691 145.376 Q 170.691 145.576 170.709 145.776 Q 170.761 148.678 170.813 151.598 Q 170.848 153.215 170.865 154.833 Q 170.865 155.133 170.883 155.433 Q 170.952 161.835 170.917 168.307 Q 170.917 169.424 170.865 170.559 Q 170.813 171.243 170.761 171.928 Q 170.726 172.328 170.578 172.713 Q 170.446 173.048 170.248 173.35 Q 169.835 173.92 169.276 174.246 Q 169.226 174.263 169.159 174.28 Q 168.641 174.367 168.124 174.472 Q 167.207 174.628 166.237 174.68 Q 165.42 174.733 164.62 174.628 Q 163.167 174.437 161.993 174.089 Q 161.993 174.089 161.993 174.089 Q 161.546 173.883 161.233 173.578 Q 161.07 173.428 160.939 173.246 Q 160.548 172.678 160.548 171.98 Q 160.565 170.196 160.583 168.461 Q 160.583 168.093 160.583 167.743 Q 160.635 165.309 160.67 162.891 Q 160.687 160.539 160.704 158.187 Q 160.704 156.752 160.722 155.317 Q 160.722 154.3 160.722 153.317 Q 160.722 147.898 160.6 142.478 Q 160.6 142.328 160.6 142.211 Q 160.5 140.863 160.204 139.776 Q 160.172 139.759 160.172 139.709 Q 159.811 138.657 159.189 137.93 Q 158.452 137.02 157.389 136.435 Q 157.357 136.402 157.357 136.402 Q 156.063 135.528 154.72 134.9 Q 153.507 134.152 152.015 133.633 Q 151.424 133.435 150.833 133.287 Q 150.8 133.27 150.8 133.252 Q 149.635 132.857 148.485 132.559 Q 147.252 132.224 146.052 132.004 Q 145.789 131.963 145.493 131.824 Q 145.346 131.754 145.165 131.685 Q 144.591 131.459 144.18 130.891 Q 143.737 130.237 143.65 129.437 Q 143.615 129.02 143.58 128.602 Q 143.459 126.935 143.32 125.302 Q 143.25 123.817 143.163 122.333 L 143.163 122.263" fill="#0066CC"/>
	</g>
</svg>
