<?xml version="1.0"?>
<!DOCTYPE svg PUBLIC "-//W3C//DTD SVG 1.1//EN" "http://www.w3.org/Graphics/SVG/1.1/DTD/svg11.dtd">
<svg version='1.1' width='11px' height='63px' xmlns='http://www.w3.org/2000/svg' xmlns:xlink='http://www.w3.org/1999/xlink'>
	<g transform="translate(-84.0853,-110.46)">
		<path d="M 84.0853 113.621 Q 84.0853 112.826 84.5706 112.291 Q 85.0559 111.65 85.8059 111.538 Q 88.95 111.026 92.1794 110.491 Q 92.8971 110.362 93.4382 110.762 Q 93.7088 110.929 93.8471 111.185 Q 93.9412 111.391 93.9529 111.691 Q 94.0176 112.935 94.2529 114.368 Q 94.8941 117.497 94.8294 121.874 Q 94.7588 127.485 94.7294 132.785 Q 94.7235 133.865 94.7176 134.938 Q 94.7176 135.038 94.7176 135.132 Q 94.7118 138.606 94.7176 142.032 L 94.7294 142.121 Q 94.7235 142.632 94.7235 143.144 L 94.7294 143.226 Q 94.7294 144.924 94.7294 146.615 L 94.7235 146.703 Q 94.7059 155.365 94.7176 163.862 Q 94.7176 164.018 94.7176 164.174 Q 94.7235 166.885 94.7412 169.556 Q 94.7471 170.35 94.2676 170.924 Q 93.7441 171.503 93.0441 171.591 Q 91.6882 171.821 90.3824 172.032 Q 88.6029 172.356 86.7882 172.615 Q 86.0382 172.721 85.5471 172.329 Q 85.05 171.968 85.0265 171.368 Q 84.9324 169.529 84.6441 167.291 Q 84.1265 164.159 84.1147 159.903 Q 84.1088 152.179 84.1206 143.35 Q 84.1206 143.194 84.1206 143.038 Q 84.1265 134.297 84.1382 125.303 Q 84.1147 125.132 84.0971 124.962 L 84.0912 117.25 Q 84.0853 115.915 84.0853 114.574 Q 84.0853 114.1 84.0853 113.632 L 84.0853 113.621" fill="#0066CC"/>
	</g>
</svg>
