<?xml version="1.0"?>
<!DOCTYPE svg PUBLIC "-//W3C//DTD SVG 1.1//EN" "http://www.w3.org/Graphics/SVG/1.1/DTD/svg11.dtd">
<svg version='1.1' width='9px' height='78px' xmlns='http://www.w3.org/2000/svg' xmlns:xlink='http://www.w3.org/1999/xlink'>
	<g transform="translate(-227.141,-108.75)">
		<path d="M 227.141 178.184 Q 227.173 177.509 227.205 176.32 Q 227.336 172.957 227.482 167.355 Q 227.53 164.148 227.577 160.873 Q 227.868 145.357 227.875 135.482 Q 227.859 134.198 227.843 132.998 Q 227.8 125.623 227.705 121.559 Q 227.689 120.759 227.673 119.991 Q 227.659 118.725 227.661 117.57 Q 227.664 117.02 227.698 116.47 Q 227.718 114.15 227.868 111.75 Q 227.868 111.5 227.868 111.25 Q 228.48 110.152 229.311 109.805 Q 229.498 109.675 229.684 109.545 Q 230.6 108.948 231.63 108.898 Q 232.639 108.532 233.532 109.075 Q 233.757 109.636 234.03 110.275 Q 235.25 113.375 235.645 117.398 Q 235.709 118.8 235.693 120.282 Q 235.252 146.961 235.375 173.216 Q 235.407 175.4 235.439 177.584 Q 235.486 180.218 235.309 182.789 Q 235.259 183.089 235.175 183.355 Q 235.141 183.405 235.107 183.455 Q 234.214 185.384 232.557 185.625 Q 231.311 186.066 230.002 185.948 Q 229.77 185.755 229.455 185.564 Q 229.323 185.477 229.259 185.425 Q 229.014 185.15 228.768 184.88 Q 228.141 183.132 227.339 180.652 Q 227.289 180.302 227.273 179.952 Q 227.257 179.502 227.241 179.052 Q 227.191 178.652 227.141 178.252 L 227.141 178.184" fill="#0066CC"/>
	</g>
</svg>
