<?xml version="1.0"?>
<!DOCTYPE svg PUBLIC "-//W3C//DTD SVG 1.1//EN" "http://www.w3.org/Graphics/SVG/1.1/DTD/svg11.dtd">
<svg version='1.1' width='54px' height='53px' xmlns='http://www.w3.org/2000/svg' xmlns:xlink='http://www.w3.org/1999/xlink'>
	<g transform="translate(-123.228,-120.872)">
		<path d="M 167.875 129.575 Q 170.355 132.986 171.475 137.125 Q 171.54 137.359 171.6 137.6 Q 171.651 137.682 171.675 137.775 Q 172.195 140.153 172.275 142.45 L 172.275 142.475 Q 172.294 142.634 172.325 142.8 Q 172.332 142.947 172.35 143.1 Q 172.467 143.075 172.575 143.05 Q 173.24 142.94 173.8 143.025 Q 173.838 143.019 173.875 143.025 L 173.925 143.025 Q 174.3 143.046 174.6 143.1 Q 174.691 143.127 174.775 143.15 Q 175.276 142.999 175.825 143.075 Q 176.144 142.941 176.5 142.9 L 176.55 142.9 L 176.5 150.525 Q 176.475 150.53 176.45 150.525 Q 175.817 150.665 175.275 150.625 Q 175.161 150.658 175.025 150.675 Q 174.8 150.696 174.6 150.675 Q 174.47 150.674 174.35 150.65 Q 174.049 150.702 173.8 150.675 Q 173.722 150.666 173.65 150.65 Q 173.588 150.666 173.525 150.675 Q 173.449 150.685 173.375 150.7 Q 173.325 150.696 173.275 150.7 L 173.275 150.75 Q 173.16 151.665 172.975 152.55 Q 172.477 154.973 171.475 157.225 Q 170.933 158.425 170.25 159.575 Q 169.18 161.454 167.85 163.125 Q 167.789 163.194 167.7 163.225 L 167.675 163.25 Q 164.777 166.67 160.925 169.025 Q 160.865 169.083 160.8 169.125 Q 156.416 171.835 151.2 172.675 Q 147.552 173.247 143.8 172.725 Q 141.397 172.358 139.15 171.575 Q 136.77 170.721 134.65 169.45 Q 130.693 167.142 128 163.15 Q 127.947 163.067 127.925 162.975 Q 126.736 161.258 125.675 159.45 Q 125.617 159.389 125.575 159.325 Q 125.56 159.287 125.55 159.25 Q 124.834 157.175 124.375 155.1 Q 124.364 155.041 124.375 154.975 Q 123.78 152.914 123.425 150.8 L 123.425 150.7 Q 123.395 150.45 123.375 150.2 L 123.375 150.175 Q 123.002 146.132 123.575 142 Q 124.26 137.583 126.625 133.9 Q 128.021 131.796 129.675 129.95 Q 131.493 127.866 133.675 126.25 Q 134.428 125.702 135.2 125.2 Q 136.654 124.235 138.175 123.425 Q 142.465 121.179 147.175 120.925 Q 150.153 120.768 152.925 121.075 Q 157.538 121.556 161.575 123.925 Q 165.325 126.04 167.775 129.475 Q 167.826 129.511 167.875 129.575 Z M 165.575 145.025 Q 165.561 145.001 165.55 144.975 Q 164.892 142.948 164.425 140.875 Q 163.706 137.463 161.425 134.85 Q 161.375 134.819 161.325 134.775 Q 160.642 134.029 159.775 133.375 Q 158.399 132.4 156.875 131.425 Q 153.758 129.5 150 129.775 L 149.95 129.775 Q 146.142 130.076 142.475 131.275 Q 138.487 132.616 135.875 135.85 Q 135.564 136.224 135.275 136.625 Q 134.253 138.114 133.425 139.7 Q 133.413 139.725 133.4 139.75 Q 133.387 139.776 133.375 139.8 Q 132.779 140.716 132.5 141.75 Q 132.5 141.827 132.475 141.9 Q 132.059 143.177 131.825 144.5 L 131.825 144.525 Q 131.538 147.335 131.875 150.1 Q 132.032 151.38 132.325 152.65 Q 133.251 156.93 136.25 160.175 Q 136.309 160.244 136.35 160.325 Q 137.208 161.25 138.3 161.925 Q 138.378 161.933 138.45 161.975 Q 141.646 163.956 145.6 164.375 Q 149.537 164.853 153.1 163.275 Q 155.795 162.016 158.2 160.225 Q 159.701 159.101 160.875 157.65 Q 160.933 157.573 161.025 157.525 L 161.05 157.5 Q 162.16 156.171 163.025 154.675 Q 163.465 153.957 163.8 153.2 Q 163.825 153.117 163.875 153.05 Q 164.146 152.767 164.325 152.4 Q 165.025 150.962 165.675 149.475 Q 165.768 149.234 165.8 149.025 Q 165.824 148.914 165.9 148.825 Q 165.921 148.8 165.95 148.775 Q 166.073 148.211 166.175 147.625 Q 166.239 147.188 166.4 146.75 Q 166.422 146.711 166.45 146.675 Q 166.503 146.587 166.575 146.5 Q 166.493 146.445 166.425 146.375 L 166.375 146.325 Q 166.057 145.967 165.825 145.575 Q 165.794 145.527 165.775 145.475 Q 165.72 145.296 165.625 145.125 Q 165.595 145.076 165.575 145.025 Z" fill="#0066CC"/>
	</g>
</svg>
