<?xml version="1.0"?>
<!DOCTYPE svg PUBLIC "-//W3C//DTD SVG 1.1//EN" "http://www.w3.org/Graphics/SVG/1.1/DTD/svg11.dtd">
<svg version='1.1' width='28px' height='47px' xmlns='http://www.w3.org/2000/svg' xmlns:xlink='http://www.w3.org/1999/xlink'>
	<g transform="translate(-94.7333,-125.193)">
		<path d="M 94.7333 128.96 Q 95.44 128.413 96.2267 127.937 Q 96.2733 127.887 96.3233 127.887 Q 97.24 127.3 98.1767 126.83 Q 98.13 126.83 98.13 126.83 Q 99.1233 126.307 100.193 125.963 Q 100.393 125.913 100.597 125.867 Q 103.063 125.173 105.69 125.193 Q 106.343 125.2 107 125.253 Q 107.05 125.253 107.097 125.253 Q 109.86 125.453 112.203 126.357 Q 112.253 126.357 112.303 126.36 Q 115.157 127.457 117.273 129.567 Q 118.373 130.617 119.183 131.94 Q 119.443 132.333 119.68 132.797 Q 119.947 133.297 120.203 133.883 Q 120.747 135.113 121.107 136.627 Q 121.107 136.673 121.107 136.723 Q 121.627 139.117 121.737 142.033 Q 121.737 142.083 121.737 142.183 Q 121.74 142.337 121.743 142.493 Q 121.74 143.997 121.747 145.53 Q 121.747 145.63 121.747 145.73 Q 121.727 150.183 121.753 154.713 Q 121.753 154.763 121.753 154.813 Q 121.757 157.173 121.77 159.563 L 121.77 159.563 Q 121.787 164.327 121.82 169.14 Q 121.777 169.933 121.267 170.493 Q 120.71 171.053 119.967 171.103 Q 119.55 171.133 119.18 171.163 Q 119.087 171.17 118.993 171.177 Q 116.277 171.467 113.403 171.543 Q 113.253 171.55 113.1 171.553 Q 112.947 171.557 112.793 171.557 Q 112.693 171.56 112.597 171.513 Q 112.107 171.38 111.757 171.053 Q 111.7 171.007 111.643 170.957 Q 111.437 170.723 111.277 170.483 Q 111.107 170.15 111.08 169.763 Q 110.937 167.307 110.89 164.657 Q 110.767 158.683 110.747 152.76 L 110.747 152.757 Q 110.723 149.37 110.713 146.017 Q 110.707 143.297 110.477 140.973 Q 110.477 140.927 110.477 140.927 Q 110.197 138.973 109.737 137.783 Q 109.683 137.69 109.63 137.597 Q 109.63 137.643 109.677 137.643 Q 109.027 136.723 108 136.317 Q 107.9 136.27 107.847 136.27 Q 106.557 135.727 104.513 135.74 Q 104.41 135.74 104.307 135.74 Q 104.207 135.743 104.107 135.743 Q 102.04 135.867 99.8333 136.92 Q 99.17 137.21 98.5067 137.547 Q 98.4567 137.547 98.4067 137.55 Q 96.77 138.5 95.2533 139.557 Q 94.8533 134.64 94.7367 129.373 Q 94.7333 129.173 94.7333 128.973 L 94.7333 128.96" fill="#0066CC"/>
	</g>
</svg>
