<?xml version="1.0"?>
<!DOCTYPE svg PUBLIC "-//W3C//DTD SVG 1.1//EN" "http://www.w3.org/Graphics/SVG/1.1/DTD/svg11.dtd">
<svg version='1.1' width='26px' height='21px' xmlns='http://www.w3.org/2000/svg' xmlns:xlink='http://www.w3.org/1999/xlink'>
	<g transform="translate(-240.2,-134.504)">
		<path d="M 240.2 142.947 Q 240.295 142.324 240.434 141.797 Q 240.529 141.474 240.663 141.234 Q 240.837 140.826 241.087 140.489 Q 241.616 139.663 242.605 139.197 Q 243.037 139.082 243.489 138.987 Q 243.545 138.987 243.6 138.987 Q 247.847 138.147 251.713 136.771 Q 251.758 136.771 251.808 136.771 Q 252.013 136.676 252.224 136.582 Q 253.784 136.018 255.321 135.405 Q 255.321 135.405 255.326 135.405 Q 255.629 135.332 255.942 135.268 Q 255.997 135.229 256.053 135.189 Q 256.053 135.189 256.058 135.189 Q 256.058 135.189 256.058 135.189 Q 256.384 135.061 256.705 135.003 Q 256.7 134.997 256.7 134.997 Q 258.453 134.497 259.95 134.55 Q 259.995 134.55 260.039 134.555 Q 261.426 134.442 262.889 134.579 Q 263.297 134.613 263.666 134.697 Q 263.711 134.697 263.755 134.703 Q 264.621 134.9 265.108 135.461 Q 265.153 135.521 265.192 135.582 Q 265.918 136.489 265.8 138.068 Q 265.8 138.084 265.8 138.1 Q 265.682 140.163 265.642 142.211 Q 265.647 142.321 265.647 142.437 Q 265.637 143.124 265.647 143.832 Q 265.647 143.876 265.647 143.926 Q 265.658 144.871 265.663 145.805 Q 265.668 147.824 265.289 149.711 Q 264.908 152.197 263.761 153.945 Q 263.634 154.05 263.492 154.139 Q 263.487 154.139 263.482 154.139 Q 263.189 154.403 262.892 154.597 Q 262.276 155.1 261.453 154.911 Q 261.013 154.868 260.529 154.589 Q 256.739 152.661 256.553 148.174 Q 256.553 148.174 256.553 148.168 Q 256.542 147.539 256.626 146.892 Q 256.713 145.553 257.168 144.063 Q 256.332 144.158 255.55 144.337 Q 254.216 144.584 253.021 144.989 Q 252.882 145.037 252.742 145.084 Q 252.363 145.213 252.021 145.313 Q 251.976 145.303 251.937 145.297 Q 251.708 145.334 251.495 145.376 Q 251.163 145.511 250.832 145.574 Q 250.316 145.716 249.705 145.829 Q 247.121 146.658 244.411 146.066 Q 241.626 145.434 240.2 142.958 L 240.2 142.947" fill="#0066CC"/>
	</g>
</svg>
