<?xml version="1.0"?>
<!DOCTYPE svg PUBLIC "-//W3C//DTD SVG 1.1//EN" "http://www.w3.org/Graphics/SVG/1.1/DTD/svg11.dtd">
<svg version='1.1' width='25px' height='60px' xmlns='http://www.w3.org/2000/svg' xmlns:xlink='http://www.w3.org/1999/xlink'>
	<g transform="translate(-147.72,-116.75)">
		<path d="M 147.72 119.22 Q 147.72 118.893 147.793 118.62 Q 147.946 118.346 148.172 118.148 Q 148.198 118.098 148.248 118.048 Q 148.55 117.722 148.976 117.496 Q 149.126 117.42 149.276 117.37 Q 149.526 117.267 149.8 117.167 Q 150.2 117.015 150.624 116.941 Q 151.05 116.841 151.474 116.793 Q 151.874 116.772 152.248 116.75 Q 153.507 116.837 154.522 117.187 Q 154.77 117.293 154.991 117.4 Q 155.461 117.613 155.904 117.852 Q 158.113 119.254 160.189 120.95 Q 161.798 122.202 163.137 123.576 Q 164.109 124.535 164.935 125.565 Q 164.935 125.591 164.959 125.641 Q 165.928 126.746 166.826 127.993 Q 167.7 129.217 168.476 130.611 Q 168.476 130.637 168.5 130.663 Q 168.839 131.22 169.13 131.85 Q 169.928 133.515 170.489 135.398 Q 170.487 135.472 170.537 135.57 Q 170.561 135.67 170.585 135.796 Q 170.73 136.324 170.852 136.852 L 170.828 136.852 Q 171.604 140.296 171.735 144.361 L 171.787 146.689 Q 171.787 146.889 171.813 147.089 Q 171.891 150.017 171.97 152.972 Q 172.022 154.598 172.048 156.224 Q 172.048 156.524 172.074 156.824 Q 172.178 163.252 172.126 169.785 Q 172.126 170.911 172.048 172.063 Q 171.97 172.765 171.891 173.467 Q 171.839 173.867 171.717 174.27 Q 171.593 174.622 171.422 174.95 Q 171.052 175.554 170.589 175.993 Q 170.539 176.02 170.463 176.046 Q 169.937 176.176 169.411 176.333 Q 168.485 176.567 167.48 176.646 Q 166.654 176.724 165.854 176.567 Q 164.376 176.28 163.315 175.759 Q 163.315 175.759 163.315 175.759 Q 162.893 175.474 162.624 175.117 Q 162.504 174.967 162.409 174.793 Q 162.122 174.217 162.122 173.546 Q 162.148 171.743 162.174 169.991 Q 162.174 169.615 162.174 169.265 Q 162.252 166.813 162.304 164.387 Q 162.33 162.009 162.357 159.63 Q 162.357 158.178 162.383 156.726 Q 162.383 155.7 162.383 154.726 Q 162.383 149.272 162.2 143.817 Q 162.2 143.667 162.2 143.541 Q 162.1 142.22 161.857 141.089 Q 161.833 141.063 161.833 141.013 Q 161.541 139.935 161.059 139.096 Q 160.478 138.054 159.659 137.252 Q 159.635 137.228 159.635 137.228 Q 158.62 136.067 157.554 135.1 Q 156.585 133.978 155.398 133.024 Q 154.911 132.652 154.424 132.33 Q 154.4 132.304 154.4 132.278 Q 153.452 131.535 152.502 130.863 Q 151.478 130.111 150.478 129.457 Q 150.259 129.32 150.015 129.111 Q 149.893 129.007 149.748 128.902 Q 149.287 128.563 148.946 127.987 Q 148.58 127.28 148.45 126.48 Q 148.398 126.054 148.346 125.628 Q 148.163 123.952 147.954 122.328 Q 147.85 120.826 147.72 119.324 L 147.72 119.22" fill="#0066CC"/>
	</g>
</svg>
