<?xml version="1.0"?>
<!DOCTYPE svg PUBLIC "-//W3C//DTD SVG 1.1//EN" "http://www.w3.org/Graphics/SVG/1.1/DTD/svg11.dtd">
<svg version='1.1' width='31px' height='43px' xmlns='http://www.w3.org/2000/svg' xmlns:xlink='http://www.w3.org/1999/xlink'>
	<g transform="translate(-233.9,-131.059)">
		<path d="M 233.9 138.379 Q 233.958 137.239 234.024 136.529 Q 234.082 135.689 234.105 135.524 Q 234.095 134.711 234.345 134.116 Q 234.726 132.405 236.342 131.829 Q 236.995 131.603 237.816 131.545 Q 237.908 131.545 238 131.545 Q 245.379 132.179 251.455 131.318 Q 251.463 131.318 251.513 131.318 Q 251.755 131.261 252.039 131.203 Q 254.374 130.897 256.868 131.242 Q 256.868 131.242 256.911 131.242 Q 257.582 131.353 258.337 131.547 Q 258.429 131.582 258.521 131.616 Q 258.521 131.616 258.563 131.616 Q 258.563 131.616 258.563 131.616 Q 259.074 131.634 259.542 131.871 Q 259.5 131.829 259.5 131.829 Q 262.321 132.729 262.75 135.95 Q 262.758 135.95 262.766 135.992 Q 263.011 138.237 263.516 140.732 Q 263.629 141.355 263.776 142.029 Q 263.784 142.029 263.792 142.071 Q 264.068 143.3 264.113 144.634 Q 264.121 144.768 264.087 144.903 Q 264.297 146.916 264.4 149.047 Q 264.4 149.174 264.4 149.3 Q 264.503 152.505 264.537 155.584 Q 264.579 155.768 264.579 155.995 Q 264.495 156.939 264.579 158.053 Q 264.579 158.061 264.579 158.111 Q 264.663 159.718 264.705 161.242 Q 264.747 164.439 264.516 167.284 Q 264.613 172.829 263.134 173.508 Q 262.824 173.65 262.387 173.666 Q 262.345 173.666 262.303 173.666 Q 261.716 173.671 261.087 173.829 Q 260.361 174 259.021 172.484 Q 258.655 172.147 258.282 171.316 Q 256.666 168.134 255.521 158.489 Q 255.521 158.489 255.521 158.447 Q 255.437 157.266 255.411 156.287 Q 255.055 154.321 254.847 152.205 Q 254.453 150.863 254.15 149.495 Q 253.626 147.274 253.168 144.916 Q 253.103 144.595 253.037 144.274 Q 252.805 143.555 252.868 142.955 Q 252.861 142.871 252.895 142.829 Q 252.813 142.424 252.858 142.061 Q 252.305 142.084 251.753 141.889 Q 251.126 141.626 249.742 141.482 Q 247.968 141.463 240.984 141.276 Q 234.111 141.124 233.9 138.463 L 233.9 138.379" fill="#0066CC"/>
	</g>
</svg>
