<?xml version="1.0"?>
<!DOCTYPE svg PUBLIC "-//W3C//DTD SVG 1.1//EN" "http://www.w3.org/Graphics/SVG/1.1/DTD/svg11.dtd">
<svg version='1.1' width='53px' height='52px' xmlns='http://www.w3.org/2000/svg' xmlns:xlink='http://www.w3.org/1999/xlink'>
	<g transform="translate(-123.459,-121.454)">
		<path d="M 123.612 150.394 Q 123.222 146.378 123.828 142.281 Q 124.231 139.759 125.179 137.487 Q 125.228 137.437 125.278 137.388 Q 125.925 135.759 126.869 134.278 Q 128.21 132.207 129.9 130.384 Q 131.687 128.318 133.872 126.743 Q 133.872 126.743 133.874 126.743 Q 133.874 126.743 133.874 126.743 Q 134.618 126.201 135.363 125.709 Q 136.799 124.775 138.334 123.99 Q 142.538 121.781 147.243 121.528 Q 147.241 121.529 147.241 121.529 Q 150.16 121.328 152.938 121.662 Q 156.451 121.994 159.678 123.446 Q 159.776 123.494 159.875 123.543 Q 160.069 123.643 160.263 123.744 Q 160.807 124.035 161.301 124.329 Q 161.403 124.376 161.506 124.425 Q 161.851 124.618 162.149 124.81 Q 162.694 125.151 163.238 125.493 Q 163.684 125.782 164.082 126.121 Q 166.131 127.724 167.674 129.838 Q 167.722 129.838 167.771 129.935 Q 169.413 132.2 170.449 134.784 Q 170.547 135.081 170.647 135.379 Q 171.054 136.365 171.356 137.406 Q 171.406 137.604 171.456 137.851 Q 171.506 137.951 171.556 138.051 Q 171.804 139.285 171.949 140.525 Q 172.093 141.615 172.141 142.656 Q 172.141 142.657 172.141 142.707 Q 172.141 142.856 172.19 143.004 Q 172.19 143.153 172.19 143.301 Q 172.287 143.256 172.432 143.259 Q 173.063 143.175 173.597 143.285 Q 173.646 143.24 173.694 143.291 Q 173.694 143.293 173.743 143.294 Q 174.082 143.301 174.374 143.357 Q 174.471 143.409 174.568 143.412 Q 175.053 143.276 175.587 143.384 Q 175.878 143.246 176.218 143.204 Q 176.266 143.206 176.266 143.207 Q 176.266 143.993 176.268 144.826 Q 176.271 147.8 176.21 150.768 Q 176.21 150.768 176.162 150.768 Q 175.528 150.878 175.04 150.891 Q 174.894 150.894 174.797 150.946 Q 174.553 150.949 174.357 150.951 Q 174.307 150.954 174.306 150.957 Q 174.209 150.91 174.112 150.912 Q 173.818 150.966 173.572 150.972 Q 173.474 150.925 173.424 150.926 Q 173.375 150.926 173.326 150.975 Q 173.228 150.976 173.178 150.978 Q 173.129 150.979 173.081 150.981 Q 173.081 151.029 173.081 151.029 Q 172.928 151.919 172.772 152.807 Q 172.666 153.4 172.51 153.993 Q 172.001 155.76 171.251 157.432 Q 171.051 157.875 170.851 158.269 Q 170.453 159.01 170.006 159.75 Q 168.957 161.576 167.612 163.25 Q 167.562 163.3 167.463 163.35 Q 167.46 163.35 167.46 163.35 Q 167.01 163.847 166.56 164.343 Q 165.765 165.182 164.922 165.968 Q 164.874 166.018 164.825 166.068 Q 162.994 167.693 160.876 168.972 Q 160.875 169.021 160.875 169.069 Q 160.826 169.069 160.778 169.069 Q 160.678 169.119 160.626 169.169 Q 158.188 170.653 155.466 171.591 Q 153.393 172.329 151.109 172.672 Q 149.231 172.966 147.346 172.966 Q 145.565 172.966 143.785 172.719 Q 141.41 172.325 139.182 171.581 Q 138.835 171.432 138.488 171.284 Q 136.509 170.493 134.728 169.451 Q 132.944 168.409 131.407 166.971 Q 131.407 166.971 131.407 166.971 Q 129.579 165.337 128.147 163.209 Q 128.097 163.11 128.096 163.06 Q 127.057 161.575 126.169 160.035 Q 126.169 160.035 126.169 160.035 Q 126.022 159.788 125.875 159.541 Q 125.776 159.491 125.776 159.441 Q 125.728 159.393 125.728 159.344 Q 125.034 157.268 124.59 155.238 Q 124.541 155.19 124.59 155.141 Q 123.999 153.063 123.66 150.982 Q 123.66 150.934 123.66 150.885 Q 123.612 150.688 123.612 150.491 L 123.612 150.394" fill="#0066CC"/>
		<path d="M 132.147 144.849 Q 132.341 143.569 132.781 142.291 Q 133.663 140.224 133.663 140.175 Q 134.351 138.841 135.144 137.66 Q 135.343 137.366 135.541 137.121 Q 135.788 136.679 136.132 136.335 Q 138.696 133.149 142.637 131.869 Q 146.316 130.694 149.963 130.394 Q 153.154 130.146 155.915 131.451 Q 156.36 131.694 156.804 131.985 Q 158.284 132.904 159.665 133.874 Q 160.504 134.503 161.199 135.229 Q 161.941 136.004 162.485 136.828 Q 162.732 137.215 162.931 137.603 Q 163.428 138.526 163.732 139.306 Q 164.072 140.194 164.266 141.179 Q 164.606 142.851 165.14 144.524 Q 165.237 144.869 165.334 145.215 Q 165.334 145.215 165.382 145.263 Q 165.382 145.313 165.431 145.363 Q 165.479 145.512 165.576 145.709 Q 165.576 145.759 165.625 145.809 Q 165.819 146.153 166.159 146.546 Q 166.159 146.546 166.207 146.594 Q 166.256 146.644 166.353 146.694 Q 166.256 146.794 166.207 146.894 Q 166.159 146.896 166.159 146.946 Q 166.013 147.388 165.965 147.831 Q 165.819 148.372 165.722 148.962 Q 165.674 148.963 165.674 149.013 Q 165.576 149.065 165.576 149.213 Q 165.528 149.41 165.479 149.656 Q 164.801 151.085 164.169 152.513 Q 163.975 152.859 163.731 153.156 Q 163.682 153.206 163.634 153.304 Q 163.343 153.985 163.003 154.666 Q 162.954 154.715 162.906 154.763 Q 162.012 156.187 160.944 157.521 L 160.943 157.571 Q 160.846 157.569 160.797 157.665 Q 160.506 157.999 160.215 158.284 Q 159.275 159.318 158.144 160.201 Q 155.782 161.924 153.128 163.206 Q 152 163.697 150.872 163.994 Q 150.825 163.994 150.776 163.994 Q 148.368 164.593 145.763 164.31 Q 142.372 163.932 139.51 162.428 Q 139.116 162.234 138.722 161.991 Q 138.674 161.943 138.576 161.943 Q 137.493 161.263 136.653 160.388 Q 136.603 160.291 136.553 160.243 Q 134.115 157.662 133.06 154.381 Q 133.062 154.332 133.062 154.284 Q 132.813 153.599 132.662 152.863 Q 132.36 151.637 132.209 150.36 Q 131.857 147.66 132.147 144.903 Q 132.147 144.854 132.147 144.854 L 132.147 144.849" fill="#0066CC"/>
	</g>
</svg>
