<?xml version="1.0"?>
<!DOCTYPE svg PUBLIC "-//W3C//DTD SVG 1.1//EN" "http://www.w3.org/Graphics/SVG/1.1/DTD/svg11.dtd">
<svg version='1.1' width='27px' height='58px' xmlns='http://www.w3.org/2000/svg' xmlns:xlink='http://www.w3.org/1999/xlink'>
	<g transform="translate(-145.441,-118.25)">
		<path d="M 145.441 120.741 Q 145.441 120.42 145.52 120.141 Q 145.663 119.863 145.885 119.657 Q 145.907 119.607 145.957 119.557 Q 146.25 119.235 146.672 119.013 Q 146.822 118.941 146.972 118.891 Q 147.222 118.798 147.5 118.698 Q 147.9 118.554 148.328 118.476 Q 148.75 118.376 149.178 118.32 Q 149.578 118.285 149.957 118.25 Q 151.18 118.289 152.235 118.539 Q 152.491 118.62 152.726 118.7 Q 153.217 118.861 153.687 119.043 Q 156.061 120.137 158.333 121.55 Q 160.107 122.593 161.589 123.772 Q 162.674 124.596 163.596 125.504 Q 163.596 125.526 163.624 125.576 Q 164.715 126.563 165.722 127.72 Q 166.7 128.848 167.572 130.167 Q 167.572 130.189 167.6 130.211 Q 167.983 130.741 168.309 131.35 Q 169.215 132.954 169.833 134.807 Q 169.839 134.885 169.889 134.991 Q 169.917 135.091 169.946 135.213 Q 170.109 135.728 170.243 136.243 L 170.215 136.243 Q 171.087 139.613 171.196 143.717 L 171.239 146.033 Q 171.239 146.233 171.261 146.433 Q 171.326 149.348 171.391 152.285 Q 171.435 153.907 171.457 155.528 Q 171.457 155.828 171.478 156.128 Q 171.565 162.543 171.522 169.046 Q 171.522 170.167 171.457 171.311 Q 171.391 172.004 171.326 172.698 Q 171.283 173.098 171.148 173.491 Q 171.02 173.835 170.835 174.15 Q 170.443 174.737 169.933 175.12 Q 169.883 175.141 169.811 175.163 Q 169.289 175.272 168.767 175.402 Q 167.846 175.598 166.859 175.663 Q 166.037 175.728 165.237 175.598 Q 163.772 175.359 162.654 174.924 Q 162.654 174.924 162.654 174.924 Q 162.22 174.678 161.928 174.348 Q 161.787 174.198 161.674 174.02 Q 161.335 173.448 161.335 172.763 Q 161.357 170.97 161.378 169.226 Q 161.378 168.854 161.378 168.504 Q 161.443 166.061 161.487 163.639 Q 161.509 161.274 161.53 158.909 Q 161.53 157.465 161.552 156.022 Q 161.552 155 161.552 154.022 Q 161.552 148.585 161.4 143.148 Q 161.4 142.998 161.4 142.876 Q 161.3 141.541 161.03 140.433 Q 161.002 140.411 161.002 140.361 Q 160.676 139.296 160.124 138.513 Q 159.465 137.537 158.524 136.843 Q 158.496 136.815 158.496 136.815 Q 157.341 135.798 156.137 135 Q 155.046 134.065 153.707 133.328 Q 153.167 133.043 152.628 132.809 Q 152.6 132.787 152.6 132.765 Q 151.543 132.196 150.493 131.711 Q 149.365 131.167 148.265 130.73 Q 148.024 130.641 147.754 130.467 Q 147.62 130.38 147.457 130.293 Q 146.939 130.011 146.563 129.439 Q 146.159 128.759 146.05 127.959 Q 146.007 127.537 145.963 127.115 Q 145.811 125.443 145.637 123.815 Q 145.55 122.322 145.441 120.828 L 145.441 120.741" fill="#0066CC"/>
	</g>
</svg>
