<?xml version="1.0"?>
<!DOCTYPE svg PUBLIC "-//W3C//DTD SVG 1.1//EN" "http://www.w3.org/Graphics/SVG/1.1/DTD/svg11.dtd">
<svg version='1.1' width='16px' height='74px' xmlns='http://www.w3.org/2000/svg' xmlns:xlink='http://www.w3.org/1999/xlink'>
	<g transform="translate(-160.225,-108.397)">
		<path d="M 167.3 112.4 Q 167.702 112.426 168.05 112.5 Q 169.504 112.855 170.3 113.75 Q 170.872 114.484 171.275 115.275 Q 173.565 120.629 174.85 126.5 Q 175.553 129.976 176.1 133.475 Q 176.496 136.017 176.825 138.575 Q 177.07 140.607 177.275 142.65 Q 177.273 142.688 177.275 142.725 Q 177.283 142.859 177.3 143 L 178 154.3 Q 178.011 154.488 178.025 154.675 Q 178.186 157.7 178.35 160.725 Q 178.43 162.382 178.475 164.05 Q 178.494 164.338 178.525 164.625 Q 178.771 171.146 178.625 177.825 Q 178.637 179.007 178.475 180.2 Q 178.249 181.339 178.025 182.525 Q 177.7 183.65 177.375 184.775 Q 176.821 185.119 176.15 185.425 Q 175.192 185.892 174.1 186.05 Q 173.248 186.19 172.425 185.875 Q 170.897 185.341 170.125 184.325 Q 169.804 183.867 169.625 183.325 Q 169.708 180.726 169.75 178.175 Q 169.75 177.807 169.75 177.45 Q 169.89 174.951 169.975 172.5 Q 170.054 170.048 170.075 167.6 Q 170.121 166.087 170.15 164.575 Q 170.153 163.575 170.15 162.575 Q 170.149 148.96 167.9 135.35 Q 167.34 132.754 166.75 130.175 Q 165.732 125.771 164.625 121.425 Q 164.29 119.763 163.9 118.15 Q 163.691 116.486 163.425 114.825 Q 163.449 114.502 163.475 114.225 Q 163.747 113.942 164.025 113.75 Q 164.406 113.406 164.85 113.15 Q 165.235 112.892 165.625 112.725 L 165.65 112.725 Q 166.035 112.566 166.425 112.5 Q 166.887 112.38 167.3 112.4 Z" transform="translate(-3.2,-4)" fill="#0066CC"/>
	</g>
</svg>
