<?xml version="1.0"?>
<!DOCTYPE svg PUBLIC "-//W3C//DTD SVG 1.1//EN" "http://www.w3.org/Graphics/SVG/1.1/DTD/svg11.dtd">
<svg version='1.1' width='41px' height='50px' xmlns='http://www.w3.org/2000/svg' xmlns:xlink='http://www.w3.org/1999/xlink'>
	<g transform="translate(-71.4,-128.003)">
		<path d="M 71.4 141.111 Q 71.5 140.211 71.7395 139.4 Q 71.8026 139.15 71.8789 138.913 Q 71.8789 138.863 71.8921 138.826 Q 72.5921 136.942 74.0289 135.934 Q 74.8132 135.732 75.6368 135.582 Q 75.9105 135.532 76.1974 135.495 Q 78.9579 135.153 82.0553 134.789 Q 82.0684 134.789 82.0816 134.753 Q 82.8921 134.668 83.7158 134.584 L 83.7289 134.584 L 89.3974 133.879 Q 89.3868 133.916 89.45 133.953 Q 89.6868 133.879 89.9237 133.818 Q 89.9737 133.818 90.0237 133.832 Q 95.6132 132.287 100.492 130.105 Q 101.039 129.779 101.679 129.545 Q 102.326 129.234 103.082 129.082 Q 104.526 128.521 105.911 128.305 Q 105.947 128.305 105.984 128.318 Q 106.345 128.226 106.705 128.111 Q 107.474 127.889 108.118 128.124 Q 109.184 128.463 109.989 130.034 Q 110.25 130.558 110.461 131.082 Q 110.547 131.282 110.634 131.495 Q 111.174 133.192 111.421 135.155 Q 111.421 135.255 111.421 135.355 Q 111.774 138.95 111.039 143.232 Q 110.758 144.779 110.526 146.353 Q 110.526 146.403 110.526 146.453 Q 110.061 149.321 109.708 152.345 Q 109.708 152.345 109.708 152.345 Q 109.439 154.553 109.258 156.8 Q 108.966 159.745 108.724 162.779 Q 108.518 165.387 108.363 168.034 Q 108.363 168.134 108.363 168.234 Q 107.992 172.068 107.003 175.061 Q 106.926 175.271 106.837 175.468 Q 106.747 175.666 106.658 175.85 Q 106.595 176.011 106.545 176.158 Q 106.303 176.639 105.95 176.945 Q 105.761 177.129 105.534 177.25 Q 104.871 177.653 104.026 177.658 Q 101.432 177.797 100.768 174.145 Q 100.705 173.868 100.655 173.592 Q 99.6632 168.437 99.6658 163.337 Q 99.6737 161.089 99.7579 158.942 Q 99.7579 158.942 99.7579 158.929 Q 99.9658 149.511 101.211 141.821 Q 100.768 141.871 100.303 141.897 Q 96.7553 143.147 92.8316 144.111 Q 92.6947 144.161 92.5579 144.197 Q 90.7105 144.682 88.7895 145.129 Q 88.7263 145.166 88.7368 145.203 L 85.8895 146.158 Q 85.8395 146.158 85.7895 146.171 Q 83.6395 146.863 81.5816 147.411 Q 81.5816 147.411 81.5816 147.447 Q 74.5632 149.003 71.7079 141.932 Q 71.5711 141.632 71.4737 141.332 L 71.4 141.111" fill="#0066CC"/>
	</g>
</svg>
