<?xml version="1.0"?>
<!DOCTYPE svg PUBLIC "-//W3C//DTD SVG 1.1//EN" "http://www.w3.org/Graphics/SVG/1.1/DTD/svg11.dtd">
<svg version='1.1' width='31px' height='48px' xmlns='http://www.w3.org/2000/svg' xmlns:xlink='http://www.w3.org/1999/xlink'>
	<g transform="translate(-232.71,-129.007)">
		<path d="M 232.71 137.81 Q 232.83 135.24 232.83 134.75 Q 232.79 133.9 232.99 133.25 Q 233.4 130.65 235.96 130.05 Q 236.04 130.03 236.12 130.01 Q 236.8 129.93 237.44 129.85 Q 239.47 129.78 241.42 129.66 Q 241.45 129.66 241.49 129.66 Q 245.56 129.48 249.34 129.2 Q 249.73 129.16 250.12 129.12 Q 250.13 129.12 250.17 129.12 Q 250.43 129.08 250.73 129.04 Q 253.27 128.88 255.87 129.49 Q 255.87 129.49 255.91 129.49 Q 256.74 129.67 257.64 130.03 Q 257.65 130.03 257.7 130.03 Q 257.7 130.03 257.7 130.03 Q 258.24 130.12 258.73 130.42 Q 258.69 130.38 258.69 130.38 Q 260.5 131.18 261.35 132.86 Q 261.92 133.93 262.14 135.37 Q 262.14 135.37 262.14 135.41 Q 262.45 138.72 262.92 142.55 Q 262.92 142.55 262.92 142.6 Q 263.08 144.02 263.05 145.5 Q 263.05 145.65 263.01 145.8 Q 263.02 146.32 263.06 146.84 Q 263.14 148.57 263.22 150.3 Q 263.34 153.86 263.38 157.3 Q 263.42 157.5 263.42 157.74 Q 263.34 158.76 263.42 159.94 L 263.42 159.99 Q 263.66 165.2 263.42 169.77 Q 263.5 172.81 263.22 174.61 Q 263.1 175.33 262.79 175.8 Q 262.46 176.32 262.03 176.42 Q 261.91 176.47 261.75 176.51 Q 261.43 176.55 261.04 176.55 Q 260.4 176.51 259.72 176.63 Q 258.85 176.71 257.42 175.27 Q 256.77 174.79 256.12 173.23 Q 255.79 172.71 255.52 171.96 Q 255.29 171.21 255.13 170.29 Q 254.57 166.41 253.97 160.69 L 253.97 160.65 Q 253.89 159.4 253.85 158.35 Q 253.21 154.71 252.81 150.75 Q 252.53 147.92 252.29 145.01 Q 252.25 144.68 252.21 144.35 Q 252.05 143.46 252.16 142.69 Q 252.16 142.59 252.2 142.53 Q 252.15 142.03 252.22 141.58 Q 251.73 141.47 251.24 141.17 Q 251.08 141.03 250.79 140.89 Q 250.79 140.88 250.79 140.88 Q 250.21 140.58 249.43 140.34 Q 248.86 140.03 247.42 139.83 Q 247.42 139.83 247.42 139.82 Q 246.54 139.58 245.3 139.5 Q 245.25 139.49 245.2 139.49 Q 243.75 139.33 241.74 139.29 Q 241.11 139.29 240.48 139.3 Q 238.5 139.35 236.93 139.37 Q 233.14 139.15 232.71 137.97 L 232.71 137.81" fill="#0066CC"/>
	</g>
</svg>
