<?xml version="1.0"?>
<!DOCTYPE svg PUBLIC "-//W3C//DTD SVG 1.1//EN" "http://www.w3.org/Graphics/SVG/1.1/DTD/svg11.dtd">
<svg version='1.1' width='49px' height='16px' xmlns='http://www.w3.org/2000/svg' xmlns:xlink='http://www.w3.org/1999/xlink'>
	<g transform="translate(-28.3162,-112.244)">
		<path d="M 28.3162 118.999 Q 28.3309 118.213 28.8147 117.649 Q 28.9 117.541 28.9926 117.434 Q 29.2985 117.154 29.6544 117.06 Q 29.8618 116.974 30.1265 116.951 Q 30.1765 116.944 30.2265 116.944 Q 30.5118 116.929 30.8118 116.929 Q 35.6294 116.907 40.3515 116.576 Q 42.2015 116.451 44.0441 116.275 Q 45.4647 116.15 46.8779 116.01 Q 59.4971 114.709 71.55 112.562 Q 73.0691 112.224 74.625 112.246 Q 75.3956 112.26 75.9603 112.818 Q 76.5529 113.36 76.6412 114.168 Q 76.7221 115.01 76.8029 115.904 Q 77.0015 118.356 76.9794 120.749 Q 76.9721 121.534 76.4309 122.091 Q 76.1103 122.463 75.6971 122.665 Q 75.4618 122.751 75.1838 122.796 Q 67.8574 124.068 60.3544 125.038 Q 57.9147 125.369 55.4529 125.671 Q 53.4338 125.906 51.4 126.119 Q 49.3441 126.325 47.3029 126.546 Q 47.2103 126.553 47.125 126.553 L 47.125 126.546 Q 45.9544 126.656 44.7838 126.751 Q 44.5412 126.766 44.3059 126.781 Q 43.7912 126.84 43.2765 126.891 Q 43.1838 126.899 43.0838 126.906 Q 39.5059 127.207 35.8838 127.428 Q 33.325 127.597 30.8544 127.457 Q 30.0338 127.421 29.4765 126.885 Q 28.9044 126.343 28.8088 125.55 Q 28.625 123.759 28.4779 121.843 Q 28.3971 120.45 28.3235 119.028 L 28.3162 118.999" fill="#0066CC"/>
	</g>
</svg>
