<?xml version="1.0"?>
<!DOCTYPE svg PUBLIC "-//W3C//DTD SVG 1.1//EN" "http://www.w3.org/Graphics/SVG/1.1/DTD/svg11.dtd">
<svg version='1.1' width='28px' height='65px' xmlns='http://www.w3.org/2000/svg' xmlns:xlink='http://www.w3.org/1999/xlink'>
	<g transform="translate(-193.03,-115.26)">
		<path d="M 193.063 124.93 Q 192.783 122.14 194.83 120.79 Q 195.953 120.053 197.727 119.813 Q 199.203 119.833 200.65 119.917 Q 204.34 120.107 207.933 120.933 Q 208.407 121.013 208.837 121.093 Q 208.99 119.773 209.18 118.523 Q 209.4 117.36 210.22 116.657 Q 210.99 115.947 212.323 115.647 Q 212.517 115.61 212.71 115.567 Q 212.797 115.573 212.883 115.58 Q 213.363 115.48 213.93 115.43 Q 214.897 115.297 216.007 115.27 Q 216.75 115.237 217.573 115.31 Q 219.777 115.457 219.8 116.557 Q 219.88 116.633 219.787 118.463 Q 219.727 119.4 219.667 120.72 Q 219.623 121.45 219.573 122.31 Q 219.53 122.79 219.487 123.277 Q 219.227 126.527 219.21 131.24 Q 219.18 133.94 219.25 137.17 Q 219.277 140.153 219.39 143.537 Q 219.637 151.433 219.87 157.6 Q 219.87 157.643 219.87 157.693 Q 219.907 158.897 219.977 160.077 Q 219.977 160.8 219.983 161.523 Q 220.047 163.657 220.057 165.61 Q 220.103 168.72 219.84 171.16 Q 219.687 172.723 219.4 173.943 Q 219.043 175.79 218.4 176.793 Q 218.287 177.01 218.13 177.227 Q 216.843 179.187 214.97 179.397 Q 213.98 179.513 212.85 179.17 Q 211.993 178.897 211.02 178.357 Q 210.233 177.867 209.36 177.247 Q 209.723 172.697 209.48 163.12 Q 209.43 162.053 209.423 160.943 Q 209.267 154.17 209.353 145.323 Q 209.353 144.393 209.347 143.47 Q 209.347 143.327 209.347 143.14 Q 209.34 142.13 209.333 141.163 Q 209.32 140.3 209.253 139.543 Q 208.903 136.407 208.513 133.397 Q 208.403 132.74 208.243 132.133 Q 208.117 131.743 207.897 131.397 Q 207.697 131.137 207.453 130.963 Q 207.067 130.58 206.593 130.327 Q 205.627 129.907 204.66 129.667 Q 204.373 129.587 204.087 129.507 Q 203.63 129.433 203.173 129.36 Q 201.527 128.983 199.893 128.6 L 199.887 128.6 Q 198.457 128.247 197.143 127.877 Q 196.39 127.62 195.657 127.343 Q 195.657 127.337 195.657 127.337 Q 194.917 127.06 194.333 126.653 Q 193.687 126.047 193.187 125.397 Q 193.1 125.203 193.063 125.017 L 193.063 124.93" fill="#0066CC"/>
	</g>
</svg>
