<?xml version="1.0"?>
<!DOCTYPE svg PUBLIC "-//W3C//DTD SVG 1.1//EN" "http://www.w3.org/Graphics/SVG/1.1/DTD/svg11.dtd">
<svg version='1.1' width='11px' height='77px' xmlns='http://www.w3.org/2000/svg' xmlns:xlink='http://www.w3.org/1999/xlink'>
	<g transform="translate(-175.068,-110.882)">
		<path d="M 175.068 139.668 Q 175.068 139.318 175.073 138.977 Q 175.095 138.586 175.123 138.205 Q 175.2 137.809 175.286 137.423 Q 175.323 137.036 175.359 136.659 Q 175.441 136.277 175.523 135.909 Q 175.541 135.586 175.559 135.314 Q 175.582 135.082 175.6 134.855 Q 175.636 134.495 175.668 134.136 Q 175.891 132.986 176.055 131.886 Q 176.141 131.127 176.273 130.418 Q 176.277 130.291 176.282 130.164 Q 176.627 127.041 177.127 123.977 Q 177.509 121.645 178.014 119.455 Q 178.664 116.395 179.618 113.564 Q 179.668 113.395 179.764 113.227 Q 180 112.65 180.327 112.118 Q 180.936 111.282 182.086 110.945 Q 182.364 110.891 182.686 110.882 Q 182.873 110.9 183.059 110.918 Q 183.195 110.932 183.377 110.995 Q 183.655 111.023 183.977 111.232 Q 183.977 111.236 184.023 111.241 Q 184.345 111.409 184.668 111.668 Q 184.991 111.927 185.359 112.277 Q 185.586 112.486 185.818 112.786 Q 185.868 113.086 185.918 113.432 Q 185.873 113.768 185.873 114.105 Q 185.868 114.2 185.873 114.295 Q 185.873 114.395 185.873 114.5 Q 185.791 115.791 185.709 117.082 Q 185.491 118.868 185.318 120.7 Q 184.923 123.727 184.527 126.755 Q 184.482 127 184.441 127.245 Q 184.264 128.836 184.086 130.427 Q 183.868 132.064 183.741 133.75 Q 183.609 134.941 183.477 136.132 Q 183.436 136.727 183.391 137.323 Q 183.391 137.668 183.395 138.014 Q 182.914 145.195 182.814 152.395 Q 182.814 153.636 182.8 154.882 Q 182.777 156.123 182.759 157.368 Q 182.727 158.559 182.7 159.755 Q 182.645 160.373 182.586 160.995 Q 182.545 161.991 182.491 162.914 Q 182.459 163.791 182.432 164.627 Q 182.377 165.109 182.382 165.586 Q 182.355 166.409 182.405 167.214 Q 182.395 167.336 182.386 167.459 Q 182.368 167.791 182.359 168.123 Q 182.45 169.155 182.541 170.186 Q 182.636 171.464 182.732 172.745 Q 182.732 173.118 182.777 173.495 Q 182.827 174.073 182.877 174.65 Q 183.023 176.3 183.209 177.955 Q 183.255 178.532 183.3 179.155 Q 183.3 179.445 183.345 179.827 Q 183.441 181.145 183.536 182.464 Q 183.627 183.455 183.723 184.491 Q 183.632 184.818 183.495 185.145 Q 183.45 185.268 183.359 185.391 Q 182.995 185.991 182.405 186.464 Q 182.041 186.691 181.632 186.873 Q 180.995 187.177 180.314 187.027 Q 179.45 186.809 178.677 186.364 Q 178.132 185.995 177.677 185.673 Q 177.355 184.482 177.032 183.291 Q 176.8 182 176.564 180.755 Q 176.373 179.464 176.318 178.173 Q 175.814 170.877 175.586 163.723 Q 175.582 163.427 175.577 163.132 Q 175.573 162.627 175.564 162.123 Q 175.495 160.736 175.468 159.441 Q 175.441 158 175.414 156.564 Q 175.377 154.677 175.295 152.795 Q 175.291 152.6 175.286 152.405 Q 175.232 149.673 175.177 146.95 Q 175.145 145.114 175.109 143.286 Q 175.091 141.65 175.068 140.014 Q 175.068 139.909 175.068 139.805 L 175.068 139.668" fill="#0066CC"/>
	</g>
</svg>
