<?xml version="1.0"?>
<!DOCTYPE svg PUBLIC "-//W3C//DTD SVG 1.1//EN" "http://www.w3.org/Graphics/SVG/1.1/DTD/svg11.dtd">
<svg version='1.1' width='24px' height='17px' xmlns='http://www.w3.org/2000/svg' xmlns:xlink='http://www.w3.org/1999/xlink'>
	<g transform="translate(-119.25,-156.481)">
		<path d="M 119.25 159.75 Q 119.8 159.3 120.1 158.65 Q 120.25 158.35 120.3 158.05 Q 122.05 156.05 124.8 156.6 Q 125.6 157.05 126.2 157.65 Q 126.641 158.125 127.225 158.3 Q 127.986 159.471 128.75 160.55 Q 129.404 161.417 130.15 162.1 Q 130.194 162.15 130.225 162.2 Q 132.838 164.481 136.25 165.2 Q 138.323 165.667 140.35 166.325 Q 140.376 166.336 140.4 166.35 Q 140.451 166.37 140.5 166.4 Q 140.671 166.495 140.85 166.55 Q 140.902 166.569 140.95 166.6 Q 141.342 166.832 141.7 167.15 Q 141.7 167.312 141.7 167.475 Q 142.368 168.06 142.25 168.975 Q 142.275 169.137 142.275 169.3 Q 142.32 169.864 142.025 170.575 Q 141.999 171.138 141.65 171.85 Q 141.312 172.559 140.675 172.725 Q 140.369 172.964 139.95 173 L 139.95 173.05 Q 139.191 173.116 138.45 173.225 Q 138.464 173.176 138.475 173.125 Q 138.159 173.087 137.85 173.05 L 137.825 173.05 Q 135.528 172.97 133.15 172.45 Q 133.057 172.426 132.975 172.375 Q 132.734 172.315 132.5 172.25 Q 128.361 171.13 124.95 168.65 Q 124.886 168.601 124.85 168.55 Q 121.694 166.299 119.65 162.95 Q 119.463 161.35 119.25 159.75 Z" fill="#0066CC"/>
	</g>
</svg>
