<?xml version="1.0"?>
<!DOCTYPE svg PUBLIC "-//W3C//DTD SVG 1.1//EN" "http://www.w3.org/Graphics/SVG/1.1/DTD/svg11.dtd">
<svg version='1.1' width='41px' height='38px' xmlns='http://www.w3.org/2000/svg' xmlns:xlink='http://www.w3.org/1999/xlink'>
	<g transform="translate(-128.671,-135.122)">
		<path d="M 128.694 155.053 Q 128.551 151.849 129.299 149.022 Q 129.772 147.171 130.685 145.569 Q 130.699 145.519 130.749 145.506 Q 131.325 144.371 132.128 143.349 Q 133.257 141.984 134.7 140.796 Q 136.169 139.541 138.001 138.566 Q 138.001 138.566 138.038 138.566 Q 138.038 138.566 138.038 138.566 Q 138.641 138.237 139.281 137.921 Q 140.363 137.375 141.546 136.943 Q 144.656 135.722 148.266 135.399 Q 148.229 135.435 148.229 135.435 Q 150.407 135.199 152.656 135.144 Q 155.287 135.053 157.949 135.34 Q 158.012 135.353 158.075 135.366 Q 158.128 135.466 158.181 135.603 Q 158.584 135.682 158.937 135.835 Q 159.074 135.812 159.247 135.825 Q 159.487 135.841 159.713 135.857 Q 160.153 135.987 160.556 136.116 Q 160.896 136.159 161.259 136.215 Q 163.272 136.688 164.638 137.956 Q 164.651 137.956 164.665 137.982 Q 166.131 139.4 166.813 141.596 Q 166.876 141.822 166.976 142.085 Q 167.56 142.718 167.897 143.547 Q 167.947 143.71 167.997 143.887 Q 168.047 143.987 168.097 144.087 Q 168.31 144.932 168.313 145.925 Q 168.316 146.768 168.329 147.597 Q 168.329 147.634 168.329 147.684 Q 168.329 147.797 168.343 147.91 Q 168.343 148.024 168.343 148.137 Q 168.369 148.197 168.409 148.271 Q 168.581 148.575 168.726 148.932 Q 168.74 148.993 168.753 149.079 Q 168.753 149.116 168.766 149.153 Q 168.859 149.337 168.938 149.534 Q 168.965 149.621 168.991 149.694 Q 169.124 149.912 169.269 150.196 Q 169.349 150.34 169.441 150.51 Q 169.454 150.547 169.454 150.584 Q 169.454 151.016 169.491 151.462 Q 169.565 153.8 169.257 155.991 Q 169.257 155.991 169.244 155.991 Q 168.999 156.349 168.793 156.679 Q 168.753 156.753 168.726 156.84 Q 168.624 156.913 168.534 156.987 Q 168.484 157.06 168.447 157.134 Q 168.421 157.157 168.394 157.194 Q 168.241 157.354 168.101 157.501 Q 168.038 157.525 167.988 157.562 Q 167.975 157.562 167.962 157.575 Q 167.899 157.612 167.849 157.649 Q 167.835 157.685 167.822 157.722 Q 167.822 157.735 167.822 157.735 Q 167.599 158.378 167.301 158.984 Q 167.054 159.4 166.757 159.816 Q 166.037 160.807 165.287 161.809 Q 165.087 162.075 164.887 162.328 Q 164.524 162.857 164.147 163.35 Q 163.134 164.612 161.894 165.65 Q 161.844 165.7 161.781 165.75 Q 161.707 165.75 161.707 165.75 Q 161.257 166.176 160.807 166.566 Q 160.118 167.159 159.451 167.591 Q 159.438 167.641 159.425 167.691 Q 158.053 168.716 156.712 169.501 Q 156.675 169.515 156.675 169.528 Q 156.662 169.528 156.649 169.528 Q 156.549 169.578 156.462 169.628 Q 154.306 170.724 152.254 171.379 Q 150.816 171.835 148.921 172.001 Q 147.572 172.154 146.04 172.154 Q 144.718 172.154 143.432 171.978 Q 141.657 171.725 139.959 171.122 Q 139.682 171.009 139.406 170.896 Q 137.921 170.316 136.599 169.487 Q 135.203 168.621 133.984 167.465 Q 133.984 167.465 133.984 167.465 Q 132.685 166.219 131.676 164.621 Q 131.626 164.557 131.59 164.507 Q 130.834 163.375 130.228 162.082 Q 130.228 162.082 130.228 162.082 Q 130.151 161.906 130.075 161.729 Q 130.012 161.679 130.012 161.629 Q 129.999 161.616 129.999 161.603 Q 129.446 160.091 129.143 158.556 Q 129.129 158.543 129.143 158.529 Q 128.763 156.981 128.707 155.359 Q 128.707 155.346 128.707 155.332 Q 128.694 155.206 128.694 155.079 L 128.694 155.053" fill="#0066CC"/>
		<path d="M 139.276 153.213 Q 139.329 152.428 139.522 151.679 Q 139.981 150.388 139.981 150.375 Q 140.387 149.429 141.003 148.707 Q 141.166 148.554 141.329 148.415 Q 141.506 148.185 141.709 147.982 Q 143.39 146.313 145.919 145.528 Q 147.904 144.953 150.281 144.653 Q 152.06 144.44 153.868 144.687 Q 154.207 144.753 154.51 144.832 Q 155.496 145.01 156.418 145.238 Q 157.01 145.374 157.563 145.535 Q 158.129 145.71 158.532 145.899 Q 158.709 145.968 158.872 146.074 Q 159.299 146.362 159.709 146.647 Q 159.801 147.253 159.854 147.885 Q 159.947 148.887 160.093 149.888 Q 160.119 150.128 160.146 150.368 Q 160.146 150.368 160.159 150.381 Q 160.159 150.431 160.172 150.481 Q 160.185 150.594 160.212 150.721 Q 160.212 150.771 160.225 150.821 Q 160.278 151.024 160.371 151.24 Q 160.371 151.24 160.384 151.253 Q 160.397 151.303 160.424 151.353 Q 160.397 151.453 160.384 151.553 Q 160.371 151.59 160.371 151.64 Q 160.331 151.906 160.318 152.172 Q 160.278 152.501 160.251 152.844 Q 160.238 152.881 160.238 152.931 Q 160.212 153.018 160.212 153.131 Q 160.199 153.257 160.185 153.397 Q 160.037 154.332 159.828 155.231 Q 159.775 155.471 159.672 155.697 Q 159.659 155.747 159.646 155.81 Q 159.566 156.032 159.474 156.254 Q 159.46 156.268 159.447 156.281 Q 158.694 157.069 158.403 158.015 L 158.366 158.065 Q 158.34 158.028 158.326 158.018 Q 158.247 157.963 158.168 157.896 Q 157.475 158.541 156.803 159.037 Q 155.359 160.088 153.799 160.947 Q 153.2 161.226 152.601 161.453 Q 152.625 161.453 152.612 161.453 Q 151.191 162.016 149.681 162.157 Q 147.701 162.309 145.757 161.899 Q 145.504 161.846 145.251 161.779 Q 145.238 161.766 145.212 161.766 Q 144.516 161.581 143.924 161.306 Q 143.874 161.279 143.824 161.266 Q 141.668 160.344 140.507 158.722 Q 140.544 158.709 140.544 158.696 Q 140.331 158.363 140.144 157.981 Q 139.807 157.319 139.621 156.607 Q 139.234 155.107 139.276 153.374 Q 139.276 153.36 139.276 153.36 L 139.276 153.213" fill="#0066CC"/>
	</g>
</svg>
