<?xml version="1.0"?>
<!DOCTYPE svg PUBLIC "-//W3C//DTD SVG 1.1//EN" "http://www.w3.org/Graphics/SVG/1.1/DTD/svg11.dtd">
<svg version='1.1' width='32px' height='47px' xmlns='http://www.w3.org/2000/svg' xmlns:xlink='http://www.w3.org/1999/xlink'>
	<g transform="translate(-88.3333,-126.314)">
		<path d="M 88.3333 130.52 Q 88.78 129.693 89.4867 129.057 Q 89.5133 129.007 89.5633 129.007 Q 90.28 128.2 91.1367 127.61 Q 91.11 127.61 91.11 127.61 Q 92.0633 126.947 93.2533 126.643 Q 93.4533 126.593 93.6767 126.567 Q 96.2433 126.213 99.03 126.353 Q 99.7033 126.4 100.4 126.473 Q 100.45 126.473 100.477 126.473 Q 103.32 126.673 105.923 127.297 Q 105.973 127.297 106.023 127.32 Q 109.197 127.797 111.713 128.767 Q 113.113 129.217 114.283 129.78 Q 114.603 129.833 115.06 130.077 Q 115.427 130.277 116.023 130.783 Q 116.827 131.593 117.547 133.187 Q 117.547 133.213 117.547 133.263 Q 118.487 135.617 118.957 138.633 Q 118.957 138.683 118.957 138.783 Q 118.98 138.957 119.003 139.153 Q 118.98 140.677 119.027 142.41 Q 119.027 142.51 119.027 142.61 Q 118.887 147.083 119.073 152.093 Q 119.073 152.143 119.073 152.193 Q 119.097 154.613 119.19 157.243 L 119.19 157.243 Q 119.307 162.087 119.54 167.28 Q 119.537 168.033 119.267 168.653 Q 118.97 169.273 118.567 169.623 Q 118.35 169.833 118.16 170.043 Q 118.107 170.09 118.053 170.137 Q 116.437 172.167 113.723 172.703 Q 113.573 172.75 113.4 172.773 Q 113.227 172.797 113.053 172.797 Q 112.953 172.82 112.877 172.793 Q 112.447 172.76 112.097 172.573 Q 112 172.547 111.903 172.497 Q 111.657 172.363 111.437 172.183 Q 111.147 171.95 110.96 171.643 Q 109.957 169.747 109.63 166.497 Q 108.767 160.083 108.627 154.02 L 108.627 153.997 Q 108.463 150.39 108.393 147.017 Q 108.347 144.177 108.237 141.713 Q 108.237 141.687 108.237 141.687 Q 108.077 139.713 107.857 138.283 Q 107.783 138.23 107.71 138.177 Q 107.71 138.203 107.737 138.203 Q 106.787 137.763 105.6 137.617 Q 105.5 137.59 105.427 137.59 Q 103.897 137.387 101.893 137.48 Q 101.77 137.48 101.647 137.48 Q 101.547 137.503 101.447 137.503 Q 99.28 137.767 97.0333 138.54 Q 96.29 138.77 95.5467 139.027 Q 95.4967 139.027 95.4467 139.05 Q 93.59 139.7 91.9733 140.197 Q 89.1733 136.98 88.3567 131.013 Q 88.3333 130.813 88.3333 130.613 L 88.3333 130.52" fill="#0066CC"/>
	</g>
</svg>
