<?xml version="1.0"?>
<!DOCTYPE svg PUBLIC "-//W3C//DTD SVG 1.1//EN" "http://www.w3.org/Graphics/SVG/1.1/DTD/svg11.dtd">
<svg version='1.1' width='46px' height='43px' xmlns='http://www.w3.org/2000/svg' xmlns:xlink='http://www.w3.org/1999/xlink'>
	<g transform="translate(-126.729,-130.062)">
		<path d="M 126.788 153.306 Q 126.553 149.797 127.247 146.494 Q 127.694 144.391 128.621 142.538 Q 128.647 142.488 128.697 142.462 Q 129.3 141.141 130.156 139.947 Q 131.365 138.318 132.9 136.891 Q 134.488 135.332 136.453 134.132 Q 136.453 134.132 136.476 134.132 Q 136.476 134.132 136.476 134.132 Q 137.132 133.724 137.812 133.341 Q 139.026 132.65 140.341 132.085 Q 143.862 130.494 147.882 130.197 Q 147.859 130.221 147.859 130.221 Q 150.315 129.997 152.762 130.088 Q 155.724 130.156 158.597 130.879 Q 158.674 130.906 158.75 130.932 Q 158.856 131.032 158.962 131.156 Q 159.418 131.315 159.824 131.521 Q 159.947 131.524 160.094 131.55 Q 160.374 131.632 160.626 131.715 Q 161.106 131.924 161.562 132.132 Q 161.941 132.268 162.318 132.429 Q 164.344 133.326 165.776 134.912 Q 165.803 134.912 165.829 134.965 Q 167.362 136.7 168.176 139.041 Q 168.253 139.294 168.353 139.571 Q 168.871 140.335 169.194 141.244 Q 169.244 141.421 169.294 141.624 Q 169.344 141.724 169.394 141.824 Q 169.621 142.815 169.676 143.9 Q 169.732 144.835 169.759 145.744 Q 169.759 145.768 169.759 145.818 Q 169.759 145.944 169.785 146.071 Q 169.785 146.197 169.785 146.324 Q 169.838 146.344 169.918 146.391 Q 170.262 146.55 170.553 146.815 Q 170.579 146.835 170.606 146.909 Q 170.606 146.932 170.632 146.956 Q 170.818 147.074 170.976 147.218 Q 171.029 147.291 171.082 147.338 Q 171.347 147.424 171.638 147.641 Q 171.797 147.679 171.982 147.771 Q 172.009 147.794 172.009 147.818 Q 172.009 148.382 172.032 148.974 Q 172.079 151.55 171.865 154.032 Q 171.865 154.032 171.838 154.032 Q 171.447 154.297 171.135 154.509 Q 171.056 154.556 171.003 154.629 Q 170.847 154.676 170.718 154.724 Q 170.668 154.771 170.644 154.818 Q 170.591 154.815 170.538 154.838 Q 170.332 154.959 170.153 155.053 Q 170.076 155.05 170.026 155.074 Q 170 155.074 169.974 155.1 Q 169.897 155.124 169.847 155.147 Q 169.821 155.171 169.794 155.194 Q 169.794 155.221 169.794 155.221 Q 169.597 155.956 169.353 156.668 Q 169.159 157.15 168.915 157.632 Q 168.274 158.915 167.524 160.168 Q 167.324 160.5 167.124 160.806 Q 166.747 161.415 166.344 162 Q 165.318 163.474 164.038 164.75 Q 163.988 164.8 163.912 164.85 Q 163.865 164.85 163.865 164.85 Q 163.415 165.303 162.965 165.732 Q 162.235 166.418 161.503 166.982 Q 161.476 167.032 161.45 167.082 Q 159.906 168.332 158.274 169.303 Q 158.25 169.329 158.25 169.356 Q 158.224 169.356 158.197 169.356 Q 158.097 169.406 158.024 169.456 Q 155.762 170.697 153.459 171.459 Q 151.782 172.021 149.741 172.253 Q 148.194 172.459 146.529 172.459 Q 145.035 172.459 143.565 172.256 Q 141.565 171.95 139.668 171.294 Q 139.365 171.168 139.062 171.041 Q 137.391 170.382 135.897 169.474 Q 134.356 168.541 133.018 167.279 Q 133.018 167.279 133.018 167.279 Q 131.521 165.888 130.353 164.091 Q 130.303 164.015 130.279 163.965 Q 129.418 162.7 128.706 161.315 Q 128.706 161.315 128.706 161.315 Q 128.603 161.112 128.5 160.909 Q 128.424 160.859 128.424 160.809 Q 128.397 160.782 128.397 160.756 Q 127.791 159.032 127.435 157.312 Q 127.409 157.285 127.435 157.259 Q 126.976 155.512 126.815 153.718 Q 126.815 153.691 126.815 153.665 Q 126.788 153.512 126.788 153.359 L 126.788 153.306" fill="#0066CC"/>
		<path d="M 136.603 150.076 Q 136.709 149.106 136.994 148.159 Q 137.612 146.576 137.612 146.55 Q 138.124 145.459 138.806 144.565 Q 138.982 144.359 139.159 144.179 Q 139.362 143.871 139.618 143.615 Q 141.629 141.376 144.688 140.406 Q 147.309 139.606 150.162 139.306 Q 152.471 139.079 154.635 139.724 Q 155.015 139.856 155.371 140.015 Q 156.541 140.471 157.635 140.976 Q 158.321 141.297 158.926 141.671 Q 159.559 142.071 160.015 142.497 Q 160.218 142.685 160.394 142.897 Q 160.847 143.424 161.218 143.894 Q 161.403 144.606 161.509 145.371 Q 161.694 146.624 161.985 147.876 Q 162.038 148.156 162.091 148.435 Q 162.091 148.435 162.118 148.462 Q 162.118 148.512 162.144 148.562 Q 162.171 148.688 162.224 148.841 Q 162.224 148.891 162.25 148.941 Q 162.356 149.197 162.541 149.479 Q 162.541 149.479 162.568 149.506 Q 162.594 149.556 162.647 149.606 Q 162.594 149.706 162.568 149.806 Q 162.541 149.829 162.541 149.879 Q 162.462 150.212 162.435 150.544 Q 162.356 150.953 162.303 151.388 Q 162.276 151.412 162.276 151.462 Q 162.224 151.535 162.224 151.662 Q 162.197 151.815 162.171 151.994 Q 161.824 153.115 161.456 154.212 Q 161.35 154.491 161.194 154.744 Q 161.168 154.794 161.141 154.871 Q 160.982 155.265 160.797 155.659 Q 160.771 155.685 160.744 155.712 Q 159.938 156.738 159.356 157.829 L 159.332 157.879 Q 159.279 157.856 159.253 157.885 Q 159.094 157.976 158.935 158.041 Q 158.15 158.832 157.306 159.474 Q 155.518 160.776 153.547 161.794 Q 152.75 162.153 151.953 162.406 Q 151.95 162.406 151.924 162.406 Q 150.132 162.982 148.212 162.965 Q 145.703 162.918 143.415 162.097 Q 143.109 161.991 142.803 161.859 Q 142.776 161.832 142.724 161.832 Q 141.882 161.462 141.197 160.962 Q 141.147 160.909 141.097 160.882 Q 138.835 159.338 137.715 157.094 Q 137.738 157.068 137.738 157.041 Q 137.512 156.576 137.338 156.062 Q 137.015 155.188 136.841 154.265 Q 136.468 152.315 136.603 150.197 Q 136.603 150.171 136.603 150.171 L 136.603 150.076" fill="#0066CC"/>
	</g>
</svg>
