<?xml version="1.0"?>
<!DOCTYPE svg PUBLIC "-//W3C//DTD SVG 1.1//EN" "http://www.w3.org/Graphics/SVG/1.1/DTD/svg11.dtd">
<svg version='1.1' width='9px' height='78px' xmlns='http://www.w3.org/2000/svg' xmlns:xlink='http://www.w3.org/1999/xlink'>
	<g transform="translate(-228.123,-108.789)">
		<path d="M 228.123 178.777 Q 228.168 178.177 228.214 176.886 Q 228.359 173.645 228.545 167.914 Q 228.614 164.768 228.682 161.418 Q 229.055 146.045 229 136.095 Q 228.977 134.818 228.955 133.618 Q 228.85 126.318 228.714 122.227 Q 228.691 121.427 228.668 120.673 Q 228.627 119.4 228.609 118.286 Q 228.591 117.736 228.618 117.186 Q 228.605 114.9 228.755 112.5 Q 228.755 112.25 228.755 112 Q 229.264 110.882 229.959 110.364 Q 230.118 110.2 230.277 110.036 Q 231.05 109.268 231.964 109.068 Q 232.891 108.545 233.845 109 Q 234.145 109.459 234.514 110.05 Q 236.15 112.85 236.586 116.968 Q 236.677 118.35 236.655 119.845 Q 236.132 146.409 236.5 172.623 Q 236.545 174.8 236.591 176.977 Q 236.659 179.605 236.427 182.141 Q 236.377 182.441 236.3 182.714 Q 236.273 182.764 236.245 182.814 Q 235.441 184.777 233.995 185.25 Q 232.859 185.923 231.632 185.968 Q 231.386 185.864 231.064 185.741 Q 230.918 185.682 230.827 185.65 Q 230.541 185.45 230.255 185.214 Q 229.423 183.745 228.341 181.232 Q 228.291 180.882 228.268 180.532 Q 228.245 180.082 228.223 179.632 Q 228.173 179.232 228.123 178.832 L 228.123 178.777" fill="#0066CC"/>
	</g>
</svg>
