<?xml version="1.0"?>
<!DOCTYPE svg PUBLIC "-//W3C//DTD SVG 1.1//EN" "http://www.w3.org/Graphics/SVG/1.1/DTD/svg11.dtd">
<svg version='1.1' width='28px' height='28px' xmlns='http://www.w3.org/2000/svg' xmlns:xlink='http://www.w3.org/1999/xlink'>
	<g transform="translate(-237.95,-133.866)">
		<path d="M 237.95 141.316 Q 238.032 140.508 238.145 139.916 Q 238.226 139.408 238.321 139.195 Q 238.429 138.642 238.679 138.213 Q 239.155 137.071 240.368 136.566 Q 240.879 136.411 241.463 136.329 Q 241.532 136.329 241.6 136.329 Q 246.966 136.016 251.621 134.824 Q 251.653 134.824 251.703 134.824 Q 251.921 134.742 252.158 134.661 Q 253.995 134.189 255.874 133.918 Q 255.874 133.918 255.892 133.918 Q 256.326 133.911 256.797 133.939 Q 256.866 133.926 256.934 133.913 Q 256.934 133.913 256.953 133.913 Q 256.953 133.913 256.953 133.913 Q 257.345 133.837 257.718 133.884 Q 257.7 133.866 257.7 133.866 Q 259.834 133.866 260.95 135.05 Q 260.982 135.05 261.013 135.068 Q 261.992 135.797 263.113 136.776 Q 263.416 137.021 263.705 137.316 Q 263.737 137.316 263.768 137.334 Q 264.424 137.9 264.753 138.737 Q 264.784 138.824 264.797 138.911 Q 265.339 140.213 265.3 141.989 Q 265.3 142.045 265.3 142.1 Q 265.261 144.571 265.247 146.987 Q 265.266 147.124 265.266 147.279 Q 265.229 148.058 265.266 148.911 Q 265.266 148.942 265.266 148.992 Q 265.303 150.174 265.321 151.318 Q 265.339 153.758 265.013 155.987 Q 264.803 159.566 263.537 160.932 Q 263.345 161.05 263.097 161.113 Q 263.079 161.113 263.061 161.113 Q 262.663 161.284 262.247 161.466 Q 261.592 161.85 260.584 161.187 Q 260.171 161.039 259.726 160.563 Q 256.713 158.187 256.184 151.858 Q 256.184 151.858 256.184 151.839 Q 256.147 151.013 256.192 150.247 Q 256.121 148.684 256.339 146.971 Q 255.661 146.553 255.05 146.179 Q 254.005 145.545 253.074 144.963 Q 252.961 144.879 252.847 144.795 Q 252.521 144.621 252.324 144.471 Q 252.292 144.434 252.279 144.416 Q 252.103 144.295 251.982 144.192 Q 251.571 144.287 251.161 144.258 Q 250.605 144.255 249.718 144.276 Q 247.424 144.803 243.187 144.355 Q 238.942 143.895 237.95 141.353 L 237.95 141.316" fill="#0066CC"/>
	</g>
</svg>
