<?xml version="1.0"?>
<!DOCTYPE svg PUBLIC "-//W3C//DTD SVG 1.1//EN" "http://www.w3.org/Graphics/SVG/1.1/DTD/svg11.dtd">
<svg version='1.1' width='43px' height='45px' xmlns='http://www.w3.org/2000/svg' xmlns:xlink='http://www.w3.org/1999/xlink'>
	<g transform="translate(-27.225,-111.329)">
		<path d="M 62.85 113.475 Q 65.2113 108.4 68.675 115.325 Q 70.7736 119.517 69.3 122.725 Q 65.1793 131.798 59.8 138.575 Q 57.9859 140.86 56.025 142.875 Q 54.4848 144.487 52.85 145.925 Q 51.0535 147.341 49.35 148.85 Q 49.3193 148.876 49.3 148.9 L 49.3 148.85 Q 48.2992 149.578 47.275 150.25 Q 47.1174 150.353 46.95 150.45 Q 46.3568 150.841 45.75 151.2 Q 45.676 151.254 45.6 151.3 Q 42.1396 153.364 38.375 154.85 Q 31.8172 157.458 28.325 149.325 Q 27.7299 147.936 27.225 146.225 Q 27.3361 145.386 27.5 144.575 Q 27.5486 144.173 27.65 143.8 Q 27.9596 143.44 28.325 143.3 Q 28.5748 143.198 28.85 143.2 Q 34.3379 143.033 39.175 140.8 Q 41.0576 139.939 42.85 138.75 Q 44.1006 137.909 45.3 136.925 Q 56.0184 128.081 62.85 113.475 Z" fill="#0066CC"/>
	</g>
</svg>
