<?xml version="1.0"?>
<!DOCTYPE svg PUBLIC "-//W3C//DTD SVG 1.1//EN" "http://www.w3.org/Graphics/SVG/1.1/DTD/svg11.dtd">
<svg version='1.1' width='28px' height='45px' xmlns='http://www.w3.org/2000/svg' xmlns:xlink='http://www.w3.org/1999/xlink'>
	<g transform="translate(-189.617,-125.464)">
		<path d="M 189.688 130.65 Q 190 129.05 191.713 127.85 Q 191.762 127.8 191.813 127.75 Q 191.8 127.75 191.8 127.75 Q 193.75 126.6 195.813 125.975 Q 197.25 125.563 198.763 125.488 Q 200.113 125.413 201.463 125.575 Q 204.963 125.213 208 126.675 Q 208.137 126.738 208.275 126.763 Q 208.288 126.813 208.3 126.863 Q 208.65 126.85 208.988 126.875 Q 209.713 126.738 210.488 126.75 Q 210.575 126.725 210.663 126.7 Q 213.1 126.488 214.875 128.287 Q 215.1 129.125 215.313 129.95 Q 215.35 130.563 215.35 131.175 Q 215.438 133.488 215.55 136.525 Q 215.588 137.287 215.625 138.088 Q 215.7 140.2 215.85 142.625 Q 216.412 151.738 216.9 158.563 L 216.9 158.6 Q 216.863 159.512 217.013 160.538 Q 217.013 161.088 217.05 161.638 Q 217.088 162.15 217.088 162.663 Q 217.125 163.313 216.95 163.9 Q 216.8 164.488 216.525 164.938 Q 215.725 166.55 214.375 168.088 Q 213.713 168.838 212.788 169.363 Q 212.675 169.438 212.563 169.513 Q 211.938 169.813 211.35 169.788 Q 210.725 169.813 210.188 169.588 Q 210.15 169.575 210.113 169.563 Q 208.762 169.425 208.012 168.05 Q 207.563 167.275 207.3 166.35 Q 207.113 165.6 207 164.813 L 206.55 151.063 Q 206.512 149.675 206.475 148.213 Q 206.438 145.813 206.338 143.325 Q 206.338 143.313 206.338 143.313 Q 206.275 141.6 206.125 140.025 Q 206.125 140.025 206.125 140.012 Q 206.075 139.588 206.013 139.188 Q 205.888 138.6 205.688 138.125 Q 205.675 138.075 205.663 138.038 Q 205.412 137.188 205.075 136.4 Q 204.85 135.75 204.388 135.6 Q 204.338 135.563 204.288 135.563 Q 202.275 134.85 200.038 134.963 Q 197.688 135.012 195.125 135.813 Q 194.637 135.762 194.15 135.75 Q 193.175 135.488 192.275 135.188 L 192.238 135.175 Q 190.7 134.7 190.137 133.325 L 190.137 133.287 Q 189.425 131.938 189.688 130.7 L 189.688 130.65" fill="#0066CC"/>
	</g>
</svg>
