<?xml version="1.0"?>
<!DOCTYPE svg PUBLIC "-//W3C//DTD SVG 1.1//EN" "http://www.w3.org/Graphics/SVG/1.1/DTD/svg11.dtd">
<svg version='1.1' width='45px' height='34px' xmlns='http://www.w3.org/2000/svg' xmlns:xlink='http://www.w3.org/1999/xlink'>
	<g transform="translate(-27.6544,-111.683)">
		<path d="M 27.6544 135.913 Q 27.7221 135.181 27.9676 134.563 Q 28 134.429 28.0662 134.296 Q 28.2132 133.91 28.4103 133.657 Q 28.6441 133.438 28.9618 133.337 Q 29.0118 133.303 29.0618 133.303 Q 29.2941 133.235 29.5941 133.235 Q 34.8353 133.134 39.6368 131.612 Q 41.4868 131.037 43.3029 130.225 Q 44.6176 129.65 45.8985 129.007 Q 57.3265 123.021 66.15 113.144 Q 67.3779 111.588 68.775 111.69 Q 69.4397 111.757 70.0574 112.341 Q 70.6235 112.857 71.0294 113.691 Q 71.4015 114.507 71.7735 115.56 Q 72.6868 118.197 72.5853 120.563 Q 72.5515 121.296 72.2221 121.879 Q 72.0074 122.331 71.7265 122.718 Q 71.5441 122.937 71.3456 123.14 Q 66.0838 128.991 60.0103 133.456 Q 57.9676 134.978 55.8235 136.365 Q 54.0956 137.447 52.3 138.428 Q 50.4029 139.375 48.5735 140.39 Q 48.5074 140.424 48.475 140.424 L 48.475 140.39 Q 47.4103 140.897 46.3456 141.337 Q 46.1294 141.404 45.9471 141.472 Q 45.3794 141.743 44.8118 141.979 Q 44.7456 142.013 44.6456 142.047 Q 41.1471 143.434 37.4456 144.449 Q 34.675 145.226 32.3103 144.584 Q 31.5956 144.415 31.0118 143.932 Q 30.3603 143.416 29.9206 142.65 Q 29.075 141.071 28.3985 138.916 Q 28.0265 137.55 27.6882 136.049 L 27.6544 135.913" fill="#0066CC"/>
	</g>
</svg>
