<?xml version="1.0"?>
<!DOCTYPE svg PUBLIC "-//W3C//DTD SVG 1.1//EN" "http://www.w3.org/Graphics/SVG/1.1/DTD/svg11.dtd">
<svg version='1.1' width='48px' height='46px' xmlns='http://www.w3.org/2000/svg' xmlns:xlink='http://www.w3.org/1999/xlink'>
	<g transform="translate(-125.643,-127.203)">
		<path d="M 125.729 152.335 Q 125.443 148.657 126.107 145.09 Q 126.54 142.847 127.474 140.854 Q 127.507 140.804 127.557 140.771 Q 128.175 139.347 129.06 138.057 Q 130.313 136.281 131.9 134.722 Q 133.554 132.994 135.593 131.669 Q 135.593 131.669 135.609 131.669 Q 135.609 131.669 135.609 131.669 Q 136.294 131.216 136.996 130.797 Q 138.284 130.025 139.672 129.387 Q 143.421 127.59 147.669 127.307 Q 147.653 127.324 147.653 127.324 Q 150.263 127.107 152.821 127.279 Q 155.966 127.435 158.957 128.401 Q 159.041 128.435 159.125 128.469 Q 159.26 128.569 159.396 128.685 Q 159.881 128.888 160.316 129.124 Q 160.432 129.141 160.565 129.175 Q 160.866 129.294 161.134 129.413 Q 161.635 129.666 162.121 129.919 Q 162.522 130.106 162.906 130.326 Q 164.94 131.459 166.409 133.221 Q 166.443 133.221 166.476 133.288 Q 168.046 135.2 168.934 137.622 Q 169.018 137.89 169.118 138.174 Q 169.599 139.012 169.915 139.965 Q 169.965 140.149 170.015 140.366 Q 170.065 140.466 170.115 140.566 Q 170.349 141.638 170.434 142.775 Q 170.519 143.762 170.553 144.715 Q 170.553 144.731 170.553 144.781 Q 170.553 144.915 170.587 145.049 Q 170.587 145.182 170.587 145.316 Q 170.654 145.315 170.756 145.347 Q 171.196 145.425 171.568 145.638 Q 171.601 145.637 171.635 145.703 Q 171.635 145.719 171.669 145.735 Q 171.906 145.816 172.109 145.931 Q 172.176 145.997 172.244 146.029 Q 172.582 146.041 172.954 146.222 Q 173.157 146.201 173.394 146.249 Q 173.428 146.265 173.428 146.281 Q 173.428 146.919 173.444 147.591 Q 173.476 150.3 173.313 152.944 Q 173.313 152.944 173.279 152.944 Q 172.807 153.157 172.437 153.303 Q 172.335 153.335 172.268 153.401 Q 172.082 153.434 171.931 153.466 Q 171.881 153.499 171.865 153.531 Q 171.797 153.513 171.729 153.529 Q 171.494 153.628 171.293 153.693 Q 171.209 153.675 171.159 153.691 Q 171.125 153.691 171.091 153.725 Q 171.007 153.741 170.957 153.757 Q 170.924 153.774 170.89 153.79 Q 170.89 153.824 170.89 153.824 Q 170.707 154.61 170.493 155.381 Q 170.328 155.9 170.113 156.419 Q 169.516 157.863 168.766 159.256 Q 168.566 159.625 168.366 159.96 Q 167.982 160.613 167.565 161.25 Q 166.531 162.841 165.229 164.25 Q 165.179 164.3 165.096 164.35 Q 165.063 164.35 165.063 164.35 Q 164.613 164.818 164.163 165.269 Q 163.412 166.006 162.643 166.644 Q 162.609 166.694 162.575 166.744 Q 160.935 168.119 159.141 169.193 Q 159.125 169.226 159.125 169.26 Q 159.091 169.26 159.057 169.26 Q 158.957 169.31 158.891 169.36 Q 156.571 170.682 154.128 171.503 Q 152.319 172.124 150.197 172.393 Q 148.54 172.628 146.801 172.628 Q 145.212 172.628 143.638 172.41 Q 141.513 172.075 139.506 171.39 Q 139.188 171.256 138.871 171.122 Q 137.097 170.419 135.507 169.466 Q 133.885 168.497 132.481 167.176 Q 132.481 167.176 132.481 167.176 Q 130.874 165.704 129.618 163.797 Q 129.568 163.713 129.551 163.663 Q 128.631 162.325 127.86 160.888 Q 127.86 160.888 127.86 160.888 Q 127.743 160.671 127.625 160.453 Q 127.541 160.403 127.541 160.353 Q 127.507 160.319 127.507 160.285 Q 126.872 158.444 126.487 156.621 Q 126.453 156.587 126.487 156.553 Q 125.984 154.696 125.763 152.806 Q 125.763 152.772 125.763 152.738 Q 125.729 152.571 125.729 152.403 L 125.729 152.335" fill="#0066CC"/>
		<path d="M 135.118 148.334 Q 135.253 147.26 135.59 146.203 Q 136.296 144.459 136.296 144.425 Q 136.866 143.253 137.585 142.263 Q 137.769 142.028 137.953 141.826 Q 138.171 141.474 138.456 141.188 Q 140.651 138.634 144.004 137.56 Q 146.978 136.635 150.096 136.335 Q 152.699 136.101 155.062 136.966 Q 155.463 137.135 155.849 137.338 Q 157.122 137.949 158.312 138.609 Q 159.049 139.032 159.684 139.524 Q 160.353 140.049 160.838 140.607 Q 161.056 140.862 161.24 141.132 Q 161.707 141.791 162.056 142.365 Q 162.293 143.135 162.428 143.974 Q 162.665 145.366 163.037 146.759 Q 163.104 147.06 163.172 147.362 Q 163.172 147.362 163.206 147.396 Q 163.206 147.446 163.24 147.496 Q 163.274 147.629 163.341 147.797 Q 163.341 147.847 163.375 147.897 Q 163.51 148.182 163.747 148.501 Q 163.747 148.501 163.781 148.535 Q 163.815 148.585 163.882 148.635 Q 163.815 148.735 163.781 148.835 Q 163.747 148.851 163.747 148.901 Q 163.646 149.271 163.612 149.64 Q 163.51 150.093 163.443 150.579 Q 163.409 150.596 163.409 150.646 Q 163.341 150.712 163.341 150.846 Q 163.307 151.013 163.274 151.215 Q 162.816 152.438 162.36 153.646 Q 162.225 153.947 162.04 154.215 Q 162.006 154.265 161.972 154.349 Q 161.769 154.838 161.532 155.328 Q 161.499 155.362 161.465 155.396 Q 160.629 156.554 159.885 157.726 L 159.869 157.776 Q 159.801 157.76 159.768 157.812 Q 159.565 157.984 159.362 158.122 Q 158.525 158.994 157.585 159.716 Q 155.606 161.159 153.407 162.265 Q 152.5 162.668 151.593 162.935 Q 151.575 162.935 151.541 162.935 Q 149.544 163.519 147.396 163.413 Q 144.593 163.256 142.113 162.207 Q 141.778 162.072 141.443 161.903 Q 141.409 161.869 141.341 161.869 Q 140.419 161.396 139.682 160.771 Q 139.632 160.703 139.582 160.669 Q 137.262 158.779 136.163 156.19 Q 136.179 156.156 136.179 156.122 Q 135.946 155.584 135.779 154.996 Q 135.463 154.004 135.297 152.963 Q 134.931 150.763 135.118 148.432 Q 135.118 148.399 135.118 148.399 L 135.118 148.334" fill="#0066CC"/>
	</g>
</svg>
