<?xml version="1.0"?>
<!DOCTYPE svg PUBLIC "-//W3C//DTD SVG 1.1//EN" "http://www.w3.org/Graphics/SVG/1.1/DTD/svg11.dtd">
<svg version='1.1' width='10px' height='75px' xmlns='http://www.w3.org/2000/svg' xmlns:xlink='http://www.w3.org/1999/xlink'>
	<g transform="translate(-80.5956,-109.628)">
		<path d="M 80.5956 123.441 Q 80.5956 122.678 80.7412 121.957 Q 80.8868 121.1 81.1118 120.401 Q 82.125 117.203 83.4088 113.857 Q 83.6941 113.049 83.9265 112.399 Q 84.0426 112.134 84.1191 111.896 Q 84.1824 111.607 84.2559 111.382 Q 84.6603 109.971 86.1309 109.735 Q 90.1382 108.819 89.7338 115.697 Q 89.2926 122.946 89.1088 128.246 Q 89.0721 129.479 89.0353 130.676 Q 89.0353 130.776 89.0353 130.84 Q 88.9985 134.962 89.0353 138.79 L 89.1088 138.816 Q 89.0721 139.39 89.0721 139.963 L 89.1088 139.953 Q 89.1088 141.897 89.1088 143.804 L 89.0721 143.831 Q 88.9618 154.129 89.0353 163.399 Q 89.0353 163.585 89.0353 163.772 Q 89.0721 167.071 89.1824 170.112 Q 89.2191 170.875 89.1103 171.572 Q 88.9882 172.306 88.8132 172.857 Q 88.4765 174.291 88.1897 175.615 Q 87.8309 177.637 87.2515 179.254 Q 87.0265 179.916 86.8441 180.359 Q 86.625 180.985 86.4779 181.435 Q 85.8897 183.859 84.0882 183.782 Q 80.8529 183.893 80.7794 176.981 Q 80.7426 170.709 80.8162 157.525 Q 80.8162 157.338 80.8162 157.151 Q 80.8529 147.669 80.9265 136.606 Q 80.7794 136.59 80.6691 136.574 L 80.6324 127.75 Q 80.5956 126.229 80.5956 124.672 Q 80.5956 124.075 80.5956 123.515 L 80.5956 123.441" fill="#0066CC"/>
	</g>
</svg>
