<?xml version="1.0"?>
<!DOCTYPE svg PUBLIC "-//W3C//DTD SVG 1.1//EN" "http://www.w3.org/Graphics/SVG/1.1/DTD/svg11.dtd">
<svg version='1.1' width='50px' height='12px' xmlns='http://www.w3.org/2000/svg' xmlns:xlink='http://www.w3.org/1999/xlink'>
	<g transform="translate(-28.4632,-112.369)">
		<path d="M 28.4632 115.24 Q 28.4662 114.443 29.0029 113.89 Q 29.1 113.788 29.1985 113.687 Q 29.5397 113.431 29.9309 113.372 Q 30.1324 113.315 30.3853 113.31 Q 30.4353 113.309 30.4853 113.309 Q 30.7824 113.306 31.0824 113.306 Q 35.8059 113.301 40.5103 113.235 Q 42.3603 113.21 44.2088 113.175 Q 45.6529 113.15 47.0956 113.122 Q 59.9794 112.862 72.75 112.432 Q 74.3338 112.365 75.925 112.369 Q 76.7191 112.372 77.2721 112.924 Q 77.8706 113.472 77.8882 114.274 Q 77.9044 115.122 77.9206 115.981 Q 77.9603 118.391 77.9559 120.79 Q 77.9544 121.587 77.3662 122.138 Q 77.0221 122.493 76.5794 122.653 Q 76.3324 122.71 76.0368 122.719 Q 68.2515 122.974 60.4309 123.168 Q 57.9029 123.234 55.3706 123.294 Q 53.2868 123.341 51.2 123.384 Q 49.1088 123.425 47.0206 123.469 Q 46.9221 123.471 46.825 123.471 L 46.825 123.469 Q 45.6309 123.491 44.4368 123.51 Q 44.1882 123.513 43.9412 123.516 Q 43.4382 123.528 42.9353 123.538 Q 42.8368 123.54 42.7368 123.541 Q 39.1412 123.601 35.5368 123.646 Q 33.025 123.679 30.5309 123.651 Q 29.6868 123.644 29.1353 123.097 Q 28.5809 122.549 28.5618 121.75 Q 28.525 119.912 28.4956 118.049 Q 28.4794 116.65 28.4647 115.246 L 28.4632 115.24" fill="#0066CC"/>
	</g>
</svg>
