<?xml version="1.0"?>
<!DOCTYPE svg PUBLIC "-//W3C//DTD SVG 1.1//EN" "http://www.w3.org/Graphics/SVG/1.1/DTD/svg11.dtd">
<svg version='1.1' width='35px' height='47px' xmlns='http://www.w3.org/2000/svg' xmlns:xlink='http://www.w3.org/1999/xlink'>
	<g transform="translate(-83,-127.134)">
		<path d="M 83 131.82 Q 83.23 130.76 83.87 129.99 Q 83.88 129.94 83.93 129.94 Q 84.48 128.95 85.27 128.26 Q 85.26 128.26 85.26 128.26 Q 86.18 127.48 87.47 127.21 Q 87.67 127.16 87.91 127.15 Q 90.56 127.08 93.48 127.32 Q 94.17 127.4 94.9 127.49 Q 94.95 127.49 94.96 127.49 Q 97.87 127.69 100.69 128.08 Q 100.74 128.08 100.79 128.12 Q 104.23 128.08 107.08 128.1 Q 108.73 128.05 110.2 127.98 Q 110.57 127.75 111.21 127.81 Q 111.66 127.76 112.54 128.2 Q 113.56 128.66 114.58 130.32 Q 114.58 130.33 114.58 130.38 Q 115.87 132.7 116.64 135.8 Q 116.64 135.85 116.64 135.95 Q 116.68 136.14 116.72 136.37 Q 116.68 137.91 116.76 139.81 Q 116.76 139.91 116.76 140.01 Q 116.52 144.5 116.84 149.91 Q 116.84 149.96 116.84 150.01 Q 116.88 152.48 117.04 155.31 L 117.04 155.31 Q 117.24 160.22 117.64 165.73 Q 117.67 166.45 117.6 167.12 Q 117.52 167.79 117.4 168.39 Q 117.35 168.75 117.31 169.11 Q 117.29 169.19 117.27 169.27 Q 116.57 172.75 113.99 173.67 Q 113.84 173.75 113.65 173.79 Q 113.46 173.83 113.27 173.83 Q 113.17 173.87 113.11 173.86 Q 112.73 173.91 112.38 173.84 Q 112.25 173.83 112.12 173.78 Q 111.84 173.73 111.57 173.6 Q 111.18 173.45 110.86 173.21 Q 109.14 171.78 108.58 168.03 Q 107.1 161.25 106.86 155.07 L 106.86 155.03 Q 106.58 151.24 106.46 147.85 Q 106.38 144.91 106.37 142.33 Q 106.37 142.32 106.37 142.32 Q 106.31 140.33 106.29 138.7 Q 106.2 138.68 106.11 138.66 Q 106.11 138.67 106.12 138.67 Q 104.92 138.63 103.6 138.7 Q 103.5 138.69 103.41 138.69 Q 101.68 138.77 99.71 138.93 Q 99.57 138.93 99.43 138.93 Q 99.33 138.97 99.23 138.97 Q 96.98 139.35 94.7 139.89 Q 93.89 140.07 93.08 140.26 Q 93.03 140.26 92.98 140.3 Q 90.94 140.7 89.24 140.73 Q 84.44 138.93 83.04 132.38 Q 83 132.18 83 131.98 L 83 131.82" fill="#0066CC"/>
	</g>
</svg>
