<?xml version="1.0"?>
<!DOCTYPE svg PUBLIC "-//W3C//DTD SVG 1.1//EN" "http://www.w3.org/Graphics/SVG/1.1/DTD/svg11.dtd">
<svg version='1.1' width='52px' height='50px' xmlns='http://www.w3.org/2000/svg' xmlns:xlink='http://www.w3.org/1999/xlink'>
	<g transform="translate(-124.116,-123.181)">
		<path d="M 124.247 150.976 Q 123.888 147.062 124.512 143.124 Q 124.924 140.685 125.868 138.497 Q 125.912 138.447 125.962 138.403 Q 126.6 136.835 127.526 135.412 Q 128.841 133.429 130.5 131.685 Q 132.247 129.721 134.388 128.221 Q 134.388 128.221 134.394 128.221 Q 134.394 128.221 134.394 128.221 Q 135.121 127.706 135.853 127.235 Q 137.244 126.35 138.735 125.609 Q 142.803 123.524 147.371 123.262 Q 147.365 123.268 147.365 123.268 Q 150.191 123.062 152.903 123.347 Q 156.306 123.626 159.462 124.932 Q 159.556 124.976 159.65 125.021 Q 159.826 125.121 160.003 125.226 Q 160.529 125.491 161.006 125.768 Q 161.112 125.806 161.224 125.85 Q 161.556 126.021 161.844 126.191 Q 162.376 126.506 162.903 126.821 Q 163.335 127.079 163.729 127.382 Q 165.774 128.844 167.294 130.853 Q 167.338 130.853 167.382 130.941 Q 169.003 133.1 169.994 135.635 Q 170.088 135.924 170.188 136.218 Q 170.618 137.159 170.924 138.174 Q 170.974 138.368 171.024 138.606 Q 171.074 138.706 171.124 138.806 Q 171.368 139.991 171.494 141.2 Q 171.621 142.259 171.665 143.274 Q 171.665 143.279 171.665 143.329 Q 171.665 143.474 171.709 143.618 Q 171.709 143.762 171.709 143.906 Q 171.797 143.874 171.929 143.885 Q 172.503 143.85 172.988 143.991 Q 173.032 143.959 173.076 144.015 Q 173.076 144.021 173.121 144.026 Q 173.429 144.056 173.694 144.129 Q 173.782 144.185 173.871 144.197 Q 174.312 144.106 174.797 144.235 Q 175.062 144.132 175.371 144.118 Q 175.415 144.124 175.415 144.129 Q 175.415 144.871 175.421 145.656 Q 175.432 148.55 175.341 151.421 Q 175.341 151.421 175.297 151.421 Q 174.712 151.562 174.259 151.615 Q 174.126 151.626 174.038 151.682 Q 173.812 151.694 173.629 151.706 Q 173.579 151.718 173.574 151.729 Q 173.485 151.691 173.397 151.697 Q 173.121 151.765 172.888 151.788 Q 172.794 151.75 172.744 151.756 Q 172.7 151.756 172.656 151.8 Q 172.562 151.806 172.512 151.812 Q 172.468 151.818 172.424 151.824 Q 172.424 151.868 172.424 151.868 Q 172.262 152.726 172.088 153.579 Q 171.965 154.15 171.791 154.721 Q 171.256 156.391 170.506 157.979 Q 170.306 158.4 170.106 158.776 Q 169.712 159.491 169.274 160.2 Q 168.229 161.956 166.897 163.55 Q 166.847 163.6 166.753 163.65 Q 166.741 163.65 166.741 163.65 Q 166.291 164.138 165.841 164.621 Q 165.059 165.429 164.238 166.171 Q 164.194 166.221 164.15 166.271 Q 162.376 167.821 160.356 169.038 Q 160.35 169.082 160.35 169.126 Q 160.306 169.126 160.262 169.126 Q 160.162 169.176 160.106 169.226 Q 157.703 170.662 155.065 171.565 Q 153.071 172.268 150.835 172.588 Q 149.024 172.865 147.182 172.865 Q 145.459 172.865 143.741 172.626 Q 141.441 172.25 139.279 171.524 Q 138.941 171.379 138.603 171.235 Q 136.685 170.471 134.962 169.456 Q 133.226 168.435 131.729 167.032 Q 131.729 167.032 131.729 167.032 Q 129.968 165.447 128.588 163.385 Q 128.538 163.291 128.532 163.241 Q 127.529 161.8 126.676 160.291 Q 126.676 160.291 126.676 160.291 Q 126.538 160.053 126.4 159.815 Q 126.306 159.765 126.306 159.715 Q 126.262 159.671 126.262 159.626 Q 125.585 157.621 125.159 155.653 Q 125.115 155.609 125.159 155.565 Q 124.594 153.553 124.291 151.529 Q 124.291 151.485 124.291 151.441 Q 124.247 151.253 124.247 151.065 L 124.247 150.976" fill="#0066CC"/>
		<path d="M 133.038 145.894 Q 133.215 144.676 133.624 143.465 Q 134.453 141.494 134.453 141.45 Q 135.106 140.165 135.876 139.041 Q 136.071 138.765 136.265 138.532 Q 136.503 138.118 136.829 137.791 Q 139.282 134.794 143.047 133.576 Q 146.515 132.476 150.003 132.176 Q 153.018 131.932 155.659 133.106 Q 156.091 133.326 156.518 133.591 Q 157.935 134.418 159.259 135.294 Q 160.068 135.862 160.744 136.518 Q 161.465 137.218 161.991 137.962 Q 162.229 138.309 162.424 138.662 Q 162.912 139.506 163.229 140.224 Q 163.538 141.076 163.715 142.018 Q 164.024 143.606 164.509 145.194 Q 164.597 145.526 164.685 145.859 Q 164.685 145.859 164.729 145.903 Q 164.729 145.953 164.774 146.003 Q 164.818 146.147 164.906 146.335 Q 164.906 146.385 164.95 146.435 Q 165.126 146.762 165.435 147.132 Q 165.435 147.132 165.479 147.176 Q 165.524 147.226 165.612 147.276 Q 165.524 147.376 165.479 147.476 Q 165.435 147.482 165.435 147.532 Q 165.303 147.953 165.259 148.374 Q 165.126 148.888 165.038 149.447 Q 164.994 149.453 164.994 149.503 Q 164.906 149.559 164.906 149.703 Q 164.862 149.891 164.818 150.124 Q 164.206 151.491 163.626 152.853 Q 163.45 153.185 163.224 153.474 Q 163.179 153.524 163.135 153.618 Q 162.871 154.241 162.562 154.865 Q 162.518 154.909 162.474 154.953 Q 161.597 156.297 160.626 157.582 L 160.621 157.632 Q 160.532 157.626 160.488 157.709 Q 160.224 157.994 159.959 158.235 Q 159.05 159.221 157.976 160.056 Q 155.729 161.694 153.212 162.924 Q 152.15 163.388 151.088 163.676 Q 151.05 163.676 151.006 163.676 Q 148.721 164.271 146.253 164.041 Q 143.038 163.729 140.291 162.362 Q 139.915 162.185 139.538 161.965 Q 139.494 161.921 139.406 161.921 Q 138.371 161.303 137.562 160.503 Q 137.512 160.415 137.462 160.371 Q 135.059 157.997 133.991 154.924 Q 133.997 154.879 133.997 154.835 Q 133.753 154.194 133.597 153.503 Q 133.291 152.347 133.135 151.141 Q 132.779 148.591 133.038 145.962 Q 133.038 145.918 133.038 145.918 L 133.038 145.894" fill="#0066CC"/>
	</g>
</svg>
