<?xml version="1.0"?>
<!DOCTYPE svg PUBLIC "-//W3C//DTD SVG 1.1//EN" "http://www.w3.org/Graphics/SVG/1.1/DTD/svg11.dtd">
<svg version='1.1' width='32px' height='47px' xmlns='http://www.w3.org/2000/svg' xmlns:xlink='http://www.w3.org/1999/xlink'>
	<g transform="translate(-87.2667,-126.491)">
		<path d="M 87.2667 130.78 Q 87.67 129.907 88.3633 129.243 Q 88.3867 129.193 88.4367 129.193 Q 89.12 128.35 89.9633 127.74 Q 89.94 127.74 89.94 127.74 Q 90.8867 127.053 92.0967 126.757 Q 92.2967 126.707 92.5233 126.683 Q 95.1067 126.387 97.92 126.547 Q 98.5967 126.6 99.3 126.677 Q 99.35 126.677 99.3733 126.677 Q 102.23 126.877 104.877 127.453 Q 104.927 127.453 104.977 127.48 Q 108.203 127.853 110.787 128.633 Q 112.237 128.983 113.467 129.42 Q 113.797 129.417 114.29 129.623 Q 114.673 129.773 115.327 130.267 Q 116.173 131.007 116.953 132.613 Q 116.953 132.637 116.953 132.687 Q 117.963 135.033 118.493 138.067 Q 118.493 138.117 118.493 138.217 Q 118.52 138.393 118.547 138.597 Q 118.52 140.123 118.573 141.89 Q 118.573 141.99 118.573 142.09 Q 118.413 146.567 118.627 151.657 Q 118.627 151.707 118.627 151.757 Q 118.653 154.187 118.76 156.857 L 118.76 156.857 Q 118.893 161.713 119.16 166.97 Q 119.163 167.717 118.933 168.347 Q 118.68 168.977 118.333 169.377 Q 118.15 169.617 117.99 169.857 Q 117.943 169.91 117.897 169.963 Q 116.463 172.283 113.777 172.897 Q 113.627 172.95 113.45 172.977 Q 113.273 173.003 113.097 173.003 Q 112.997 173.03 112.923 173.007 Q 112.503 172.99 112.153 172.827 Q 112.05 172.803 111.947 172.753 Q 111.693 172.637 111.463 172.467 Q 111.153 172.25 110.94 171.957 Q 109.793 170.153 109.42 166.803 Q 108.433 160.317 108.273 154.23 L 108.273 154.203 Q 108.087 150.56 108.007 147.183 Q 107.953 144.323 107.863 141.837 Q 107.863 141.813 107.863 141.813 Q 107.723 139.837 107.543 138.367 Q 107.467 138.32 107.39 138.273 Q 107.39 138.297 107.413 138.297 Q 106.413 137.937 105.2 137.833 Q 105.1 137.81 105.023 137.81 Q 103.453 137.663 101.457 137.77 Q 101.33 137.77 101.203 137.77 Q 101.103 137.797 101.003 137.797 Q 98.82 138.083 96.5667 138.81 Q 95.81 139.03 95.0533 139.273 Q 95.0033 139.273 94.9533 139.3 Q 93.06 139.9 91.4267 140.303 Q 88.2267 137.37 87.2933 131.287 Q 87.2667 131.087 87.2667 130.887 L 87.2667 130.78" fill="#0066CC"/>
	</g>
</svg>
