<?xml version="1.0"?>
<!DOCTYPE svg PUBLIC "-//W3C//DTD SVG 1.1//EN" "http://www.w3.org/Graphics/SVG/1.1/DTD/svg11.dtd">
<svg version='1.1' width='28px' height='68px' xmlns='http://www.w3.org/2000/svg' xmlns:xlink='http://www.w3.org/1999/xlink'>
	<g transform="translate(-193.515,-113.634)">
		<path d="M 210.9 115.25 Q 212.799 113.2 218.5 113.75 Q 220.867 113.964 220.7 115.15 Q 220.693 115.192 220.075 122.225 Q 219.467 129.267 219.825 143.225 Q 220.165 157.174 220.45 166.025 Q 220.746 174.868 219.3 177.875 Q 216.716 183.595 209.6 179.275 Q 210.036 174.865 209.8 164.6 Q 209.608 156.166 209.7 144.25 Q 209.701 144.075 209.7 143.9 L 209.575 133.225 Q 209.55 132.478 209.45 131.775 Q 209.35 131.341 209.125 130.95 Q 208.939 130.667 208.7 130.425 Q 208.278 130.006 207.8 129.675 Q 206.8 129.188 205.8 128.875 Q 205.501 128.776 205.2 128.675 L 198.025 126.825 Q 197.231 126.603 196.45 126.35 Q 195.65 126.122 195 125.675 Q 194.3 125.106 193.675 124.45 Q 193.584 124.203 193.55 123.925 Q 193.1 119.286 198.4 118.675 Q 204.339 119.021 209.95 120.375 L 209.975 117.425 Q 210.105 116.104 210.9 115.25 Z" fill="#0066CC"/>
	</g>
</svg>
