<?xml version="1.0"?>
<!DOCTYPE svg PUBLIC "-//W3C//DTD SVG 1.1//EN" "http://www.w3.org/Graphics/SVG/1.1/DTD/svg11.dtd">
<svg version='1.1' width='24px' height='62px' xmlns='http://www.w3.org/2000/svg' xmlns:xlink='http://www.w3.org/1999/xlink'>
	<g transform="translate(-148.859,-116)">
		<path d="M 148.859 118.459 Q 148.859 118.13 148.93 117.859 Q 149.087 117.587 149.315 117.393 Q 149.343 117.343 149.393 117.293 Q 149.7 116.965 150.128 116.737 Q 150.278 116.659 150.428 116.609 Q 150.678 116.502 150.95 116.402 Q 151.35 116.246 151.772 116.174 Q 152.2 116.074 152.622 116.03 Q 153.022 116.015 153.393 116 Q 154.67 116.111 155.665 116.511 Q 155.909 116.63 156.124 116.75 Q 156.583 116.989 157.013 117.257 Q 159.139 118.813 161.117 120.65 Q 162.643 122.007 163.911 123.478 Q 164.826 124.504 165.604 125.596 Q 165.604 125.624 165.626 125.674 Q 166.535 126.837 167.378 128.13 Q 168.2 129.402 168.928 130.833 Q 168.928 130.861 168.95 130.889 Q 169.267 131.459 169.541 132.1 Q 170.285 133.796 170.817 135.693 Q 170.811 135.765 170.861 135.859 Q 170.883 135.959 170.904 136.087 Q 171.041 136.622 171.157 137.157 L 171.135 137.157 Q 171.863 140.637 172.004 144.683 L 172.061 147.017 Q 172.061 147.217 172.089 147.417 Q 172.174 150.352 172.259 153.315 Q 172.315 154.943 172.343 156.572 Q 172.343 156.872 172.372 157.172 Q 172.485 163.607 172.428 170.154 Q 172.428 171.283 172.343 172.439 Q 172.259 173.146 172.174 173.852 Q 172.117 174.252 172.002 174.659 Q 171.88 175.015 171.715 175.35 Q 171.357 175.963 170.917 176.43 Q 170.867 176.459 170.789 176.487 Q 170.261 176.628 169.733 176.798 Q 168.804 177.052 167.791 177.137 Q 166.963 177.222 166.163 177.052 Q 164.678 176.741 163.646 176.176 Q 163.646 176.176 163.646 176.176 Q 163.23 175.872 162.972 175.502 Q 162.863 175.352 162.776 175.18 Q 162.515 174.602 162.515 173.937 Q 162.543 172.13 162.572 170.374 Q 162.572 169.996 162.572 169.646 Q 162.657 167.189 162.713 164.761 Q 162.741 162.376 162.77 159.991 Q 162.77 158.535 162.798 157.078 Q 162.798 156.05 162.798 155.078 Q 162.798 149.615 162.6 144.152 Q 162.6 144.002 162.6 143.874 Q 162.5 142.559 162.27 141.417 Q 162.248 141.389 162.248 141.339 Q 161.974 140.254 161.526 139.387 Q 160.985 138.313 160.226 137.457 Q 160.204 137.435 160.204 137.435 Q 159.259 136.202 158.263 135.15 Q 157.354 133.935 156.243 132.872 Q 155.783 132.457 155.322 132.091 Q 155.3 132.063 155.3 132.035 Q 154.407 131.204 153.507 130.439 Q 152.535 129.583 151.585 128.82 Q 151.376 128.659 151.146 128.433 Q 151.03 128.32 150.893 128.207 Q 150.461 127.839 150.137 127.261 Q 149.791 126.541 149.65 125.741 Q 149.593 125.313 149.537 124.885 Q 149.339 123.207 149.113 121.585 Q 149 120.078 148.859 118.572 L 148.859 118.459" fill="#0066CC"/>
	</g>
</svg>
