<?xml version="1.0"?>
<!DOCTYPE svg PUBLIC "-//W3C//DTD SVG 1.1//EN" "http://www.w3.org/Graphics/SVG/1.1/DTD/svg11.dtd">
<svg version='1.1' width='32px' height='51px' xmlns='http://www.w3.org/2000/svg' xmlns:xlink='http://www.w3.org/1999/xlink'>
	<g transform="translate(-138.607,-122.596)">
		<path d="M 138.607 125.307 Q 138.607 124.998 138.698 124.707 Q 138.815 124.415 139.024 124.183 Q 139.033 124.133 139.083 124.083 Q 139.35 123.774 139.759 123.565 Q 139.909 123.507 140.059 123.457 Q 140.309 123.389 140.6 123.289 Q 141 123.172 141.441 123.08 Q 141.85 122.98 142.291 122.898 Q 142.691 122.824 143.083 122.75 Q 144.202 122.646 145.374 122.596 Q 145.657 122.598 145.93 122.6 Q 146.487 122.604 147.035 122.617 Q 149.904 122.785 152.763 123.35 Q 155.033 123.767 156.946 124.359 Q 158.37 124.778 159.578 125.322 Q 159.578 125.33 159.62 125.38 Q 161.076 126.015 162.409 126.898 Q 163.7 127.739 164.859 128.837 Q 164.859 128.846 164.9 128.854 Q 165.413 129.307 165.843 129.85 Q 167.076 131.272 167.863 133.033 Q 167.896 133.124 167.946 133.257 Q 167.987 133.357 168.028 133.465 Q 168.243 133.941 168.417 134.417 L 168.376 134.417 Q 169.535 137.565 169.578 141.787 L 169.596 144.063 Q 169.596 144.263 169.604 144.463 Q 169.63 147.339 169.657 150.224 Q 169.674 151.833 169.683 153.441 Q 169.683 153.741 169.691 154.041 Q 169.726 160.417 169.709 166.828 Q 169.709 167.937 169.683 169.054 Q 169.657 169.722 169.63 170.389 Q 169.613 170.789 169.439 171.157 Q 169.298 171.474 169.074 171.75 Q 168.617 172.285 167.963 172.498 Q 167.913 172.507 167.854 172.515 Q 167.346 172.559 166.837 172.611 Q 165.928 172.689 164.993 172.715 Q 164.185 172.741 163.385 172.689 Q 161.959 172.593 160.672 172.42 Q 160.672 172.42 160.672 172.42 Q 160.198 172.291 159.841 172.039 Q 159.635 171.889 159.47 171.698 Q 158.974 171.139 158.974 170.415 Q 158.983 168.648 158.991 166.93 Q 158.991 166.572 158.991 166.222 Q 159.017 163.804 159.035 161.396 Q 159.043 159.07 159.052 156.743 Q 159.052 155.326 159.061 153.909 Q 159.061 152.9 159.061 151.909 Q 159.061 146.524 159 141.139 Q 159 140.989 159 140.88 Q 158.9 139.507 158.552 138.463 Q 158.511 138.454 158.511 138.404 Q 158.08 137.378 157.32 136.765 Q 156.426 135.985 155.12 135.617 Q 155.078 135.576 155.078 135.576 Q 153.507 134.989 151.885 134.7 Q 150.428 134.326 148.633 134.241 Q 147.937 134.217 147.241 134.243 Q 147.2 134.235 147.2 134.226 Q 145.817 134.178 144.467 134.254 Q 143.026 134.337 141.626 134.552 Q 141.32 134.607 140.972 134.537 Q 140.798 134.502 140.583 134.467 Q 139.896 134.354 139.415 133.796 Q 138.893 133.193 138.85 132.393 Q 138.833 131.985 138.815 131.576 Q 138.754 129.917 138.685 128.276 Q 138.65 126.809 138.607 125.341 L 138.607 125.307" fill="#0066CC"/>
	</g>
</svg>
