<?xml version="1.0"?>
<!DOCTYPE svg PUBLIC "-//W3C//DTD SVG 1.1//EN" "http://www.w3.org/Graphics/SVG/1.1/DTD/svg11.dtd">
<svg version='1.1' width='66px' height='43px' xmlns='http://www.w3.org/2000/svg' xmlns:xlink='http://www.w3.org/1999/xlink'>
	<g transform="translate(-107.029,-28)">
		<path d="M 172.8 67.05 Q 172.565 67.051 172.325 67.05 Q 161.788 67.0143 151.925 60.675 Q 142.064 54.3297 141.625 53.625 Q 132.957 63.4754 118.425 70.075 Q 115.216 71.5486 111.025 69.45 Q 104.1 65.9859 109.175 63.625 Q 123.781 56.7938 132.625 46.075 Q 138.622 38.7691 138.9 29.625 Q 138.898 29.3498 139 29.1 Q 139.141 28.7346 139.5 28.425 Q 139.873 28.3236 140.275 28.275 Q 141.086 28.1111 141.925 28 Q 143.636 28.5051 145.025 29.1 Q 153.159 32.5928 150.55 39.15 Q 148.242 44.9982 144.55 50.075 Q 144.858 50.0164 145.175 49.95 L 145.125 49.85 Q 152.315 53.5287 160.175 56.525 Q 166.144 58.7863 172.8 60.05 Q 172.8 63.5465 172.8 67.05 Z" fill="#0066CC"/>
	</g>
</svg>
