<?xml version="1.0"?>
<!DOCTYPE svg PUBLIC "-//W3C//DTD SVG 1.1//EN" "http://www.w3.org/Graphics/SVG/1.1/DTD/svg11.dtd">
<svg version='1.1' width='14px' height='47px' xmlns='http://www.w3.org/2000/svg' xmlns:xlink='http://www.w3.org/1999/xlink'>
	<g transform="translate(-48.1735,-131.59)">
		<path d="M 48.1735 132.928 L 48.2735 132.947 Q 48.5397 132.832 48.8059 132.718 Q 48.8059 132.718 48.825 132.699 Q 51.3279 132.125 53.8691 131.59 Q 53.9191 131.59 54.0074 131.647 Q 54.4544 131.743 54.9971 131.953 Q 56.2456 132.259 57.6471 132.832 Q 58.2971 136.957 59.4059 141.797 Q 61.8338 153.901 61.8338 166.274 Q 61.8338 171.016 61.6426 175.09 Q 61.5735 175.775 61.1956 176.287 Q 60.7868 176.837 60.2662 177.009 Q 58.7588 177.793 57.0794 178.041 Q 55.5515 178.366 54.1382 177.678 Q 53.5676 177.525 53.1515 176.975 Q 52.7044 176.425 52.6279 175.663 Q 52.4559 173.5 52.3221 171 Q 51.8441 160.738 50.7162 150.974 Q 49.6647 142.519 48.4029 134.294 Q 48.3074 133.782 48.2118 133.271 Q 48.1926 133.121 48.1735 132.99 L 48.1735 132.928" fill="#0066CC"/>
	</g>
</svg>
