<?xml version="1.0"?>
<!DOCTYPE svg PUBLIC "-//W3C//DTD SVG 1.1//EN" "http://www.w3.org/Graphics/SVG/1.1/DTD/svg11.dtd">
<svg version='1.1' width='46px' height='44px' xmlns='http://www.w3.org/2000/svg' xmlns:xlink='http://www.w3.org/1999/xlink'>
	<g transform="translate(-126.512,-129.491)">
		<path d="M 126.576 153.112 Q 126.331 149.569 127.019 146.213 Q 127.463 144.082 128.391 142.201 Q 128.419 142.151 128.469 142.124 Q 129.075 140.782 129.937 139.569 Q 131.154 137.91 132.7 136.457 Q 134.301 134.865 136.281 133.64 Q 136.281 133.64 136.303 133.64 Q 136.303 133.64 136.303 133.64 Q 136.965 133.222 137.649 132.832 Q 138.878 132.125 140.207 131.546 Q 143.774 129.913 147.84 129.619 Q 147.818 129.641 147.818 129.641 Q 150.304 129.419 152.774 129.526 Q 155.772 129.612 158.669 130.384 Q 158.747 130.412 158.825 130.44 Q 158.937 130.54 159.049 130.662 Q 159.51 130.829 159.922 131.041 Q 160.044 131.047 160.188 131.075 Q 160.472 131.165 160.728 131.254 Q 161.212 131.472 161.674 131.69 Q 162.057 131.835 162.435 132.009 Q 164.463 132.953 165.903 134.574 Q 165.931 134.574 165.959 134.629 Q 167.499 136.4 168.328 138.757 Q 168.406 139.013 168.506 139.291 Q 169.016 140.071 169.338 140.988 Q 169.388 141.166 169.438 141.372 Q 169.488 141.472 169.538 141.572 Q 169.766 142.579 169.828 143.675 Q 169.89 144.621 169.918 145.538 Q 169.918 145.56 169.918 145.61 Q 169.918 145.738 169.946 145.866 Q 169.946 145.994 169.946 146.122 Q 170.001 146.138 170.085 146.182 Q 170.449 146.325 170.756 146.579 Q 170.784 146.596 170.812 146.668 Q 170.812 146.69 170.84 146.712 Q 171.035 146.822 171.203 146.96 Q 171.259 147.032 171.315 147.076 Q 171.594 147.147 171.901 147.357 Q 172.069 147.384 172.265 147.466 Q 172.293 147.488 172.293 147.51 Q 172.293 148.09 172.315 148.697 Q 172.359 151.3 172.154 153.815 Q 172.154 153.815 172.126 153.815 Q 171.719 154.069 171.396 154.268 Q 171.312 154.312 171.256 154.384 Q 171.094 154.428 170.96 154.472 Q 170.91 154.516 170.888 154.56 Q 170.832 154.554 170.776 154.576 Q 170.565 154.693 170.381 154.781 Q 170.303 154.775 170.253 154.797 Q 170.225 154.797 170.197 154.825 Q 170.119 154.847 170.069 154.869 Q 170.041 154.891 170.013 154.913 Q 170.013 154.941 170.013 154.941 Q 169.819 155.687 169.581 156.41 Q 169.393 156.9 169.154 157.39 Q 168.522 158.704 167.772 159.985 Q 167.572 160.325 167.372 160.637 Q 166.994 161.254 166.588 161.85 Q 165.56 163.347 164.276 164.65 Q 164.226 164.7 164.149 164.75 Q 164.104 164.75 164.104 164.75 Q 163.654 165.206 163.204 165.64 Q 162.471 166.335 161.731 166.915 Q 161.703 166.965 161.675 167.015 Q 160.112 168.29 158.447 169.281 Q 158.425 169.309 158.425 169.337 Q 158.397 169.337 158.369 169.337 Q 158.269 169.387 158.197 169.437 Q 155.924 170.694 153.593 171.468 Q 151.89 172.041 149.832 172.281 Q 148.263 172.493 146.584 172.493 Q 145.071 172.493 143.579 172.287 Q 141.554 171.975 139.635 171.313 Q 139.329 171.185 139.024 171.057 Q 137.332 170.39 135.819 169.472 Q 134.262 168.532 132.91 167.259 Q 132.91 167.259 132.91 167.259 Q 131.391 165.851 130.206 164.032 Q 130.156 163.954 130.134 163.904 Q 129.26 162.625 128.537 161.229 Q 128.537 161.229 128.537 161.229 Q 128.431 161.024 128.325 160.818 Q 128.247 160.768 128.247 160.718 Q 128.219 160.69 128.219 160.662 Q 127.607 158.915 127.246 157.174 Q 127.218 157.146 127.246 157.118 Q 126.778 155.349 126.604 153.535 Q 126.604 153.507 126.604 153.479 Q 126.576 153.324 126.576 153.168 L 126.576 153.112" fill="#0066CC"/>
		<path d="M 136.306 149.728 Q 136.418 148.737 136.713 147.768 Q 137.349 146.153 137.349 146.125 Q 137.872 145.018 138.562 144.104 Q 138.74 143.893 138.918 143.709 Q 139.124 143.391 139.385 143.129 Q 141.434 140.828 144.551 139.837 Q 147.243 139.012 150.149 138.712 Q 152.516 138.484 154.721 139.172 Q 155.104 139.312 155.466 139.479 Q 156.657 139.966 157.771 140.503 Q 158.466 140.844 159.078 141.241 Q 159.718 141.666 160.179 142.119 Q 160.385 142.321 160.563 142.544 Q 161.019 143.097 161.385 143.588 Q 161.581 144.312 161.693 145.091 Q 161.888 146.372 162.196 147.653 Q 162.251 147.937 162.307 148.221 Q 162.307 148.221 162.335 148.249 Q 162.335 148.299 162.363 148.349 Q 162.391 148.476 162.447 148.632 Q 162.447 148.682 162.475 148.732 Q 162.587 148.994 162.782 149.284 Q 162.782 149.284 162.81 149.312 Q 162.838 149.362 162.894 149.412 Q 162.838 149.512 162.81 149.612 Q 162.782 149.634 162.782 149.684 Q 162.699 150.024 162.671 150.363 Q 162.587 150.781 162.531 151.226 Q 162.503 151.249 162.503 151.299 Q 162.447 151.371 162.447 151.499 Q 162.419 151.654 162.391 151.838 Q 162.022 152.979 161.637 154.099 Q 161.525 154.382 161.363 154.638 Q 161.335 154.688 161.307 154.766 Q 161.14 155.179 160.944 155.593 Q 160.916 155.621 160.888 155.649 Q 160.076 156.701 159.462 157.809 L 159.44 157.859 Q 159.384 157.837 159.356 157.871 Q 159.188 157.978 159.021 158.057 Q 158.225 158.865 157.362 159.522 Q 155.535 160.853 153.519 161.888 Q 152.7 162.256 151.881 162.512 Q 151.875 162.512 151.847 162.512 Q 150.015 163.09 148.049 163.054 Q 145.481 162.985 143.154 162.119 Q 142.843 162.007 142.531 161.868 Q 142.503 161.84 142.447 161.84 Q 141.59 161.449 140.894 160.924 Q 140.844 160.868 140.794 160.84 Q 138.521 159.226 137.404 156.913 Q 137.426 156.885 137.426 156.857 Q 137.199 156.378 137.026 155.849 Q 136.704 154.951 136.532 154.004 Q 136.16 152.004 136.306 149.844 Q 136.306 149.816 136.306 149.816 L 136.306 149.728" fill="#0066CC"/>
	</g>
</svg>
