<?xml version="1.0"?>
<!DOCTYPE svg PUBLIC "-//W3C//DTD SVG 1.1//EN" "http://www.w3.org/Graphics/SVG/1.1/DTD/svg11.dtd">
<svg version='1.1' width='37px' height='49px' xmlns='http://www.w3.org/2000/svg' xmlns:xlink='http://www.w3.org/1999/xlink'>
	<g transform="translate(-78,-127.014)">
		<path d="M 78 134.424 Q 78.1 133.524 78.4263 132.8 Q 78.5184 132.55 78.6526 132.342 Q 78.6526 132.292 78.6947 132.284 Q 79.3947 130.545 80.8026 129.739 Q 81.4421 129.421 82.2079 129.271 Q 82.4237 129.221 82.6816 129.213 Q 85.3553 129.218 88.3368 129.376 Q 88.3789 129.376 88.4211 129.368 Q 89.1447 129.429 89.9105 129.489 L 89.9526 129.489 L 95.3316 129.653 Q 95.4079 129.661 95.5 129.668 Q 95.7079 129.653 95.9158 129.679 Q 95.9658 129.679 96.0158 129.721 Q 101.692 128.958 106.195 127.587 Q 106.626 127.203 107.353 127.113 Q 107.884 126.889 108.871 127.171 Q 110.084 127.247 111.324 128.537 Q 111.332 128.537 111.339 128.579 Q 111.613 128.834 111.887 129.124 Q 112.366 129.626 112.779 130.266 Q 113.439 131.242 113.926 132.639 Q 114.1 133.105 114.224 133.571 Q 114.282 133.771 114.339 134.013 Q 114.416 135.595 114.547 137.587 Q 114.547 137.687 114.547 137.787 Q 114.466 141.15 114.426 145.171 Q 114.405 146.603 114.434 148.118 Q 114.434 148.168 114.434 148.218 Q 114.374 150.797 114.455 153.763 Q 114.455 153.763 114.455 153.763 Q 114.476 155.768 114.555 157.9 Q 114.611 160.613 114.716 163.503 Q 114.829 165.908 114.992 168.439 Q 114.992 168.539 114.992 168.639 Q 114.795 172.879 112.618 174.424 Q 112.484 174.547 112.308 174.629 Q 112.132 174.711 111.955 174.75 Q 111.863 174.824 111.813 174.855 Q 111.368 175.076 110.9 175.063 Q 110.624 175.103 110.339 175.05 Q 109.647 175.018 109.034 174.705 Q 107.221 173.832 106.529 170.613 Q 106.437 170.279 106.387 169.945 Q 105.192 165.108 104.761 160.558 Q 104.566 158.426 104.505 156.395 Q 104.505 156.395 104.505 156.353 Q 103.961 147.224 104.424 140.547 Q 104.329 140.047 104.268 139.582 Q 100.837 140.282 96.9711 140.724 Q 96.8632 140.774 96.7553 140.782 Q 95.0237 141.121 93.2763 141.453 Q 93.1842 141.461 93.1079 141.468 L 90.3763 142.105 Q 90.3263 142.105 90.2763 142.147 Q 88.1263 142.492 86.2711 142.374 Q 86.2711 142.374 86.2711 142.382 Q 80.0921 141.968 78.1053 135.071 Q 77.9974 134.771 78.0158 134.471 L 78 134.424" fill="#0066CC"/>
	</g>
</svg>
