<?xml version="1.0"?>
<!DOCTYPE svg PUBLIC "-//W3C//DTD SVG 1.1//EN" "http://www.w3.org/Graphics/SVG/1.1/DTD/svg11.dtd">
<svg version='1.1' width='11px' height='63px' xmlns='http://www.w3.org/2000/svg' xmlns:xlink='http://www.w3.org/1999/xlink'>
	<g transform="translate(-83.9191,-110.6)">
		<path d="M 83.9191 114.088 Q 83.9191 113.296 84.3882 112.751 Q 84.8574 112.1 85.5824 111.96 Q 88.625 111.321 91.7618 110.651 Q 92.4588 110.49 92.9853 110.84 Q 93.2485 110.987 93.3838 111.219 Q 93.4765 111.401 93.4912 111.676 Q 93.5721 112.794 93.8662 114.147 Q 94.6676 117.084 94.5868 121.579 Q 94.4985 127.269 94.4618 132.569 Q 94.4544 133.656 94.4471 134.735 Q 94.4471 134.835 94.4471 134.928 Q 94.4397 138.432 94.4471 141.878 L 94.4618 141.963 Q 94.4544 142.478 94.4544 142.993 L 94.4618 143.071 Q 94.4618 144.779 94.4618 146.481 L 94.4544 146.566 Q 94.4324 155.306 94.4471 163.84 Q 94.4471 163.997 94.4471 164.154 Q 94.4544 166.894 94.4765 169.582 Q 94.4838 170.375 94.0221 170.954 Q 93.5176 171.541 92.8426 171.651 Q 91.5353 171.938 90.2779 172.203 Q 88.5662 172.607 86.8103 172.931 Q 86.0853 173.063 85.6088 172.712 Q 85.125 172.397 85.0956 171.847 Q 84.9779 170.212 84.6176 168.076 Q 83.9706 165.099 83.9559 160.716 Q 83.9485 153.062 83.9632 144.025 Q 83.9632 143.868 83.9632 143.71 Q 83.9706 134.934 83.9853 125.841 Q 83.9559 125.678 83.9338 125.515 L 83.9265 117.75 Q 83.9191 116.406 83.9191 115.054 Q 83.9191 114.575 83.9191 114.103 L 83.9191 114.088" fill="#0066CC"/>
	</g>
</svg>
