<?xml version="1.0"?>
<!DOCTYPE svg PUBLIC "-//W3C//DTD SVG 1.1//EN" "http://www.w3.org/Graphics/SVG/1.1/DTD/svg11.dtd">
<svg version='1.1' width='31px' height='48px' xmlns='http://www.w3.org/2000/svg' xmlns:xlink='http://www.w3.org/1999/xlink'>
	<g transform="translate(-232.817,-128.353)">
		<path d="M 232.817 138.083 Q 232.917 135.7 232.917 135.05 Q 232.883 134.233 233.05 133.583 Q 233.4 131.017 235.533 130.117 Q 235.6 130.083 235.667 130.05 Q 236.233 129.85 236.767 129.65 Q 238.75 129.4 240.667 129.167 Q 240.683 129.167 240.717 129.167 Q 244.7 128.733 248.5 128.5 Q 248.883 128.467 249.267 128.433 Q 249.283 128.433 249.317 128.433 Q 249.583 128.4 249.883 128.367 Q 252.45 128.267 254.983 128.917 Q 254.983 128.917 255.017 128.917 Q 255.833 129.117 256.7 129.483 Q 256.717 129.483 256.767 129.483 Q 256.767 129.483 256.767 129.483 Q 257.3 129.6 257.783 129.9 Q 257.75 129.867 257.75 129.867 Q 259.5 130.7 260.417 132.333 Q 261.033 133.383 261.333 134.783 Q 261.333 134.783 261.333 134.817 Q 261.85 138.033 262.333 141.85 Q 262.333 141.85 262.333 141.9 Q 262.5 143.3 262.483 144.767 Q 262.483 144.917 262.45 145.067 Q 262.467 145.6 262.5 146.133 Q 262.567 147.85 262.633 149.567 Q 262.733 153.1 262.767 156.533 Q 262.8 156.733 262.8 156.967 Q 262.733 158 262.8 159.167 L 262.8 159.217 Q 263 164.333 262.8 168.917 Q 262.867 171.85 262.633 173.75 Q 262.533 174.483 262.183 174.967 Q 261.833 175.467 261.383 175.567 Q 261.25 175.617 261.083 175.65 Q 260.75 175.683 260.367 175.683 Q 259.733 175.65 259.067 175.75 Q 258.117 175.817 256.7 174.617 Q 255.95 174.217 255.2 172.917 Q 254.783 172.483 254.467 171.767 Q 254.183 171.05 254.05 170.15 Q 253.583 166.183 253.083 160.683 L 253.083 160.65 Q 253.017 159.433 252.983 158.383 Q 252.45 154.75 252.117 150.85 Q 251.883 148.033 251.683 145.15 Q 251.65 144.833 251.617 144.517 Q 251.483 143.633 251.567 142.85 Q 251.567 142.75 251.6 142.683 Q 251.55 142.183 251.6 141.733 Q 251.183 141.55 250.767 141.217 Q 250.633 141.05 250.383 140.883 Q 250.383 140.867 250.383 140.867 Q 249.883 140.5 249.217 140.2 Q 248.7 139.75 247.433 139.45 Q 247.433 139.45 247.433 139.433 Q 246.6 139.067 245.4 138.933 Q 245.35 138.917 245.3 138.917 Q 243.883 138.683 241.867 138.65 Q 241.25 138.65 240.633 138.667 Q 238.7 138.75 237.083 138.917 Q 233.533 138.917 232.817 138.217 L 232.817 138.083" fill="#0066CC"/>
	</g>
</svg>
