<?xml version="1.0"?>
<!DOCTYPE svg PUBLIC "-//W3C//DTD SVG 1.1//EN" "http://www.w3.org/Graphics/SVG/1.1/DTD/svg11.dtd">
<svg version='1.1' width='23px' height='63px' xmlns='http://www.w3.org/2000/svg' xmlns:xlink='http://www.w3.org/1999/xlink'>
	<g transform="translate(-149.998,-115.25)">
		<path d="M 149.998 117.698 Q 149.998 117.367 150.067 117.098 Q 150.228 116.828 150.459 116.639 Q 150.489 116.589 150.539 116.539 Q 150.85 116.209 151.28 115.978 Q 151.43 115.898 151.58 115.848 Q 151.83 115.737 152.1 115.637 Q 152.5 115.476 152.92 115.407 Q 153.35 115.307 153.77 115.267 Q 154.17 115.259 154.539 115.25 Q 155.833 115.385 156.809 115.835 Q 157.048 115.967 157.257 116.1 Q 157.704 116.365 158.122 116.661 Q 160.165 118.372 162.046 120.35 Q 163.489 121.811 164.685 123.38 Q 165.543 124.474 166.274 125.626 Q 166.274 125.657 166.293 125.707 Q 167.141 126.928 167.93 128.267 Q 168.7 129.587 169.38 131.054 Q 169.38 131.085 169.4 131.115 Q 169.696 131.698 169.952 132.35 Q 170.641 134.076 171.146 135.989 Q 171.135 136.059 171.185 136.148 Q 171.204 136.248 171.224 136.378 Q 171.352 136.92 171.461 137.461 L 171.441 137.461 Q 172.122 140.978 172.274 145.004 L 172.335 147.346 Q 172.335 147.546 172.365 147.746 Q 172.457 150.687 172.548 153.659 Q 172.609 155.289 172.639 156.92 Q 172.639 157.22 172.67 157.52 Q 172.791 163.961 172.73 170.524 Q 172.73 171.654 172.639 172.815 Q 172.548 173.526 172.457 174.237 Q 172.396 174.637 172.287 175.048 Q 172.167 175.409 172.009 175.75 Q 171.661 176.372 171.246 176.867 Q 171.196 176.898 171.115 176.928 Q 170.585 177.08 170.054 177.263 Q 169.124 177.537 168.102 177.628 Q 167.272 177.72 166.472 177.537 Q 164.98 177.202 163.976 176.593 Q 163.976 176.593 163.976 176.593 Q 163.567 176.27 163.32 175.887 Q 163.222 175.737 163.143 175.567 Q 162.909 174.987 162.909 174.328 Q 162.939 172.517 162.97 170.757 Q 162.97 170.376 162.97 170.026 Q 163.061 167.565 163.122 165.135 Q 163.152 162.743 163.183 160.352 Q 163.183 158.891 163.213 157.43 Q 163.213 156.4 163.213 155.43 Q 163.213 149.959 163 144.487 Q 163 144.337 163 144.207 Q 162.9 142.898 162.683 141.746 Q 162.663 141.715 162.663 141.665 Q 162.407 140.574 161.993 139.678 Q 161.491 138.572 160.793 137.661 Q 160.774 137.641 160.774 137.641 Q 159.898 136.337 158.972 135.2 Q 158.124 133.891 157.089 132.72 Q 156.654 132.261 156.22 131.852 Q 156.2 131.822 156.2 131.791 Q 155.361 130.874 154.511 130.015 Q 153.591 129.054 152.691 128.183 Q 152.493 127.998 152.276 127.754 Q 152.167 127.633 152.039 127.511 Q 151.635 127.115 151.328 126.535 Q 151.002 125.802 150.85 125.002 Q 150.789 124.572 150.728 124.141 Q 150.515 122.461 150.272 120.841 Q 150.15 119.33 149.998 117.82 L 149.998 117.698" fill="#0066CC"/>
	</g>
</svg>
