<?xml version="1.0"?>
<!DOCTYPE svg PUBLIC "-//W3C//DTD SVG 1.1//EN" "http://www.w3.org/Graphics/SVG/1.1/DTD/svg11.dtd">
<svg version='1.1' width='30px' height='38px' xmlns='http://www.w3.org/2000/svg' xmlns:xlink='http://www.w3.org/1999/xlink'>
	<g transform="translate(-235.25,-132.095)">
		<path d="M 235.25 139.358 Q 235.316 138.329 235.397 137.658 Q 235.463 136.929 235.511 136.747 Q 235.539 136.021 235.789 135.482 Q 236.203 133.961 237.684 133.408 Q 238.289 133.205 239.032 133.139 Q 239.116 133.139 239.2 133.139 Q 245.908 133.458 251.511 132.487 Q 251.526 132.487 251.576 132.487 Q 251.811 132.421 252.079 132.355 Q 254.247 131.995 256.537 132.134 Q 256.537 132.134 256.571 132.134 Q 257.163 132.205 257.824 132.345 Q 257.908 132.363 257.992 132.382 Q 257.992 132.382 258.026 132.382 Q 258.026 132.382 258.026 132.382 Q 258.497 132.368 258.934 132.542 Q 258.9 132.508 258.9 132.508 Q 261.492 133.108 262.15 135.65 Q 262.166 135.65 262.182 135.684 Q 262.671 137.424 263.382 139.413 Q 263.558 139.911 263.753 140.458 Q 263.768 140.458 263.784 140.492 Q 264.187 141.5 264.326 142.668 Q 264.342 142.787 264.324 142.905 Q 264.645 144.682 264.7 146.695 Q 264.7 146.797 264.7 146.9 Q 264.755 149.861 264.774 152.718 Q 264.808 152.887 264.808 153.089 Q 264.739 153.979 264.808 155.005 Q 264.808 155.021 264.808 155.071 Q 264.876 156.537 264.911 157.934 Q 264.945 160.879 264.682 163.518 Q 264.676 168.408 263.268 169.316 Q 262.997 169.45 262.624 169.482 Q 262.589 169.482 262.555 169.482 Q 262.032 169.542 261.474 169.708 Q 260.771 169.95 259.542 168.718 Q 259.161 168.445 258.763 167.732 Q 256.682 164.818 255.742 156.279 Q 255.742 156.279 255.742 156.245 Q 255.674 155.182 255.671 154.274 Q 255.411 152.442 255.345 150.461 Q 254.855 149.426 254.45 148.389 Q 253.753 146.697 253.137 144.932 Q 253.055 144.689 252.974 144.447 Q 252.711 143.911 252.687 143.461 Q 252.671 143.392 252.689 143.358 Q 252.576 143.047 252.566 142.771 Q 252.061 142.818 251.555 142.679 Q 250.953 142.503 249.734 142.413 Q 247.787 142.576 241.718 142.303 Q 235.721 142.047 235.25 139.426 L 235.25 139.358" fill="#0066CC"/>
	</g>
</svg>
