<?xml version="1.0"?>
<!DOCTYPE svg PUBLIC "-//W3C//DTD SVG 1.1//EN" "http://www.w3.org/Graphics/SVG/1.1/DTD/svg11.dtd">
<svg version='1.1' width='22px' height='80px' xmlns='http://www.w3.org/2000/svg' xmlns:xlink='http://www.w3.org/1999/xlink'>
	<g transform="translate(-202.268,-107.436)">
		<path d="M 202.391 125.723 Q 203.486 121.345 207.15 119.041 Q 211.482 116.318 214.418 113.855 Q 214.445 113.809 214.473 113.764 Q 214.473 112.036 214.75 110.609 Q 214.795 110.441 214.841 110.273 Q 215.218 109.005 216.218 108.318 Q 217.468 107.423 219.7 107.436 Q 221.195 107.464 221.945 108.264 Q 221.973 108.286 222 108.309 Q 222.391 108.832 222.864 109.409 Q 224.077 110.405 223.95 111.945 Q 223.836 113.859 223.441 119.591 Q 222.905 128.686 223.236 141.482 Q 223.236 141.877 223.236 142.273 Q 223.536 156.241 223.859 167.505 Q 224.064 174.077 223.695 178.768 Q 223.582 179.814 223.368 180.695 Q 222.541 183.805 220.736 185.395 Q 218.864 187.895 215.759 186.459 Q 215.136 185.486 214.255 183.364 Q 214.655 178.977 214.709 171.259 Q 214.7 167.664 214.7 163.359 Q 214.695 156.886 214.609 148.841 Q 214.609 148.691 214.609 148.514 Q 214.514 142.845 214.35 136.841 Q 214.3 136.023 214.223 135.232 Q 214.168 134.736 214.036 134.268 Q 213.927 133.945 213.791 133.677 Q 213.55 133.182 213.255 132.768 Q 212.686 131.95 212.118 131.241 Q 211.955 131.027 211.791 130.814 Q 211.173 130.014 210.555 129.218 Q 208.309 130.35 206.227 129.845 Q 205.855 129.745 205.505 129.645 Q 204.614 129.35 203.905 129.009 Q 203.059 128.577 202.682 127.927 Q 202.255 127.168 202.268 126.291 Q 202.305 126.045 202.391 125.777 L 202.391 125.723" fill="#0066CC"/>
	</g>
</svg>
