<?xml version="1.0"?>
<!DOCTYPE svg PUBLIC "-//W3C//DTD SVG 1.1//EN" "http://www.w3.org/Graphics/SVG/1.1/DTD/svg11.dtd">
<svg version='1.1' width='83px' height='61px' xmlns='http://www.w3.org/2000/svg' xmlns:xlink='http://www.w3.org/1999/xlink'>
	<g transform="translate(-102.775,-28)">
		<path d="M 172.325 67.05 Q 161.788 67.0143 151.925 60.675 Q 142.064 54.3297 141.625 53.625 Q 132.957 63.4754 118.425 70.075 Q 115.216 71.5486 111.025 69.45 Q 104.1 65.9859 109.175 63.625 Q 123.781 56.7938 132.625 46.075 Q 138.622 38.7691 138.9 29.625 Q 138.898 29.3498 139 29.1 Q 139.141 28.7346 139.5 28.425 Q 139.873 28.3236 140.275 28.275 Q 141.086 28.1111 141.925 28 Q 143.636 28.5051 145.025 29.1 Q 153.159 32.5928 150.55 39.15 Q 148.242 44.9982 144.55 50.075 Q 144.858 50.0164 145.175 49.95 L 145.125 49.85 Q 152.315 53.5287 160.175 56.525 Q 168.073 59.5174 177.175 60.75 Q 186.236 61.9904 184.55 64.55 Q 182.866 67.0957 172.325 67.05 Z M 133 79.55 Q 133.145 79.5764 133.3 79.6 Q 133.145 79.6012 133 79.6 Z M 108.75 88.325 Q 100.805 88.8963 103.425 83.425 Q 104.561 81.0643 107.9 80.7 Q 117.92 79.6461 126.7 79.9 L 132.55 79.95 Q 132.677 79.9176 132.8 79.9 Q 133.032 79.941 133.225 80 Q 135.128 80.0801 137.025 80.275 Q 137.193 80.2838 137.35 80.3 Q 137.428 80.3004 137.5 80.3 L 137.6 80.3 Q 139.65 80.4 141.65 80.35 L 141.675 80.325 Q 141.838 80.326 142 80.325 Q 142 83.8365 142 87.35 Q 137.115 87.2637 132.225 87.225 Q 131.999 87.2832 131.775 87.3 Q 130.608 87.202 129.4 87.3 Q 129.4 87.35 129.35 87.35 L 129.325 87.375 Q 125.916 87.2781 121.975 87.475 Q 116.697 87.7447 108.75 88.325 Z" fill="#0066CC"/>
	</g>
</svg>
