<?xml version="1.0"?>
<!DOCTYPE svg PUBLIC "-//W3C//DTD SVG 1.1//EN" "http://www.w3.org/Graphics/SVG/1.1/DTD/svg11.dtd">
<svg version='1.1' width='9px' height='78px' xmlns='http://www.w3.org/2000/svg' xmlns:xlink='http://www.w3.org/1999/xlink'>
	<g transform="translate(-229.432,-108.794)">
		<path d="M 229.432 179.568 Q 229.495 179.068 229.559 177.641 Q 229.723 174.564 229.964 168.659 Q 230.059 165.595 230.155 162.145 Q 230.636 146.964 230.5 136.914 Q 230.468 135.645 230.436 134.445 Q 230.25 127.245 230.059 123.118 Q 230.027 122.318 229.995 121.582 Q 229.918 120.3 229.873 119.241 Q 229.827 118.691 229.845 118.141 Q 229.786 115.9 229.936 113.5 Q 229.936 113.25 229.936 113 Q 230.309 111.855 230.823 111.109 Q 230.945 110.9 231.068 110.691 Q 231.65 109.695 232.409 109.295 Q 233.227 108.564 234.264 108.9 Q 234.664 109.223 235.159 109.75 Q 237.35 112.15 237.841 116.395 Q 237.968 117.75 237.936 119.264 Q 237.305 145.673 238 171.832 Q 238.064 174 238.127 176.168 Q 238.223 178.786 237.918 181.277 Q 237.868 181.577 237.8 181.859 Q 237.782 181.909 237.764 181.959 Q 237.077 183.968 235.914 184.75 Q 234.923 185.732 233.805 185.995 Q 233.541 186.009 233.209 185.977 Q 233.045 185.955 232.918 185.95 Q 232.577 185.85 232.236 185.659 Q 231.132 184.564 229.677 182.005 Q 229.627 181.655 229.595 181.305 Q 229.564 180.855 229.532 180.405 Q 229.482 180.005 229.432 179.605 L 229.432 179.568" fill="#0066CC"/>
	</g>
</svg>
