<?xml version="1.0"?>
<!DOCTYPE svg PUBLIC "-//W3C//DTD SVG 1.1//EN" "http://www.w3.org/Graphics/SVG/1.1/DTD/svg11.dtd">
<svg version='1.1' width='37px' height='48px' xmlns='http://www.w3.org/2000/svg' xmlns:xlink='http://www.w3.org/1999/xlink'>
	<g transform="translate(-80.8667,-126.863)">
		<path d="M 80.8667 132.34 Q 81.01 131.187 81.6233 130.363 Q 81.6267 130.313 81.6767 130.313 Q 82.16 129.25 82.9233 128.52 Q 82.92 128.52 82.92 128.52 Q 83.8267 127.693 85.1567 127.437 Q 85.3567 127.387 85.6033 127.383 Q 88.2867 127.427 91.26 127.707 Q 91.9567 127.8 92.7 127.897 Q 92.75 127.897 92.7533 127.897 Q 95.69 128.097 98.5967 128.393 Q 98.6467 128.393 98.6967 128.44 Q 102.243 128.193 105.227 127.833 Q 106.977 127.583 108.567 127.26 Q 108.957 126.917 109.67 126.903 Q 110.153 126.753 111.147 127.167 Q 112.253 127.487 113.393 129.173 Q 113.393 129.177 113.393 129.227 Q 114.823 131.533 115.713 134.667 Q 115.713 134.717 115.713 134.817 Q 115.76 135.013 115.807 135.257 Q 115.76 136.803 115.853 138.77 Q 115.853 138.87 115.853 138.97 Q 115.573 143.467 115.947 149.037 Q 115.947 149.087 115.947 149.137 Q 115.993 151.627 116.18 154.537 L 116.18 154.537 Q 116.413 159.473 116.88 165.11 Q 116.923 165.817 116.933 166.507 Q 116.94 167.197 116.933 167.897 Q 116.95 168.317 116.97 168.737 Q 116.963 168.83 116.957 168.923 Q 116.623 172.983 114.097 174.057 Q 113.947 174.15 113.75 174.197 Q 113.553 174.243 113.357 174.243 Q 113.257 174.29 113.203 174.287 Q 112.843 174.37 112.493 174.347 Q 112.35 174.343 112.207 174.293 Q 111.913 174.277 111.623 174.167 Q 111.193 174.05 110.82 173.837 Q 108.813 172.593 108.16 168.643 Q 106.433 161.717 106.153 155.49 L 106.153 155.443 Q 105.827 151.58 105.687 148.183 Q 105.593 145.203 105.623 142.577 Q 105.623 142.573 105.623 142.573 Q 105.603 140.577 105.663 138.867 Q 105.567 138.86 105.47 138.853 Q 105.47 138.857 105.473 138.857 Q 104.173 138.977 102.8 139.133 Q 102.7 139.13 102.603 139.13 Q 100.793 139.323 98.8367 139.51 Q 98.69 139.51 98.5433 139.51 Q 98.4433 139.557 98.3433 139.557 Q 96.06 139.983 93.7667 140.43 Q 92.93 140.59 92.0933 140.753 Q 92.0433 140.753 91.9933 140.8 Q 89.88 141.1 88.1467 140.943 Q 82.5467 139.71 80.9133 132.927 Q 80.8667 132.727 80.8667 132.527 L 80.8667 132.34" fill="#0066CC"/>
	</g>
</svg>
