<?xml version="1.0"?>
<!DOCTYPE svg PUBLIC "-//W3C//DTD SVG 1.1//EN" "http://www.w3.org/Graphics/SVG/1.1/DTD/svg11.dtd">
<svg version='1.1' width='28px' height='61px' xmlns='http://www.w3.org/2000/svg' xmlns:xlink='http://www.w3.org/1999/xlink'>
	<g transform="translate(-192.547,-116.851)">
		<path d="M 192.577 125.91 Q 192.317 123.28 194.31 121.93 Q 195.407 121.207 197.053 120.927 Q 198.457 120.867 199.85 120.883 Q 203.38 120.913 206.867 121.667 Q 207.313 121.727 207.723 121.787 Q 208.03 120.647 208.36 119.597 Q 208.7 118.62 209.54 118.063 Q 210.33 117.493 211.597 117.293 Q 211.783 117.27 211.97 117.233 Q 212.043 117.247 212.117 117.26 Q 212.577 117.16 213.11 117.11 Q 214.043 116.943 215.113 116.89 Q 215.85 116.823 216.647 116.87 Q 218.703 116.963 218.9 117.963 Q 219.06 118.067 219.073 119.677 Q 219.053 120.6 219.033 121.84 Q 218.997 122.55 218.947 123.37 Q 218.91 123.83 218.873 124.303 Q 218.653 127.453 218.67 131.98 Q 218.66 134.58 218.75 137.69 Q 218.803 140.607 218.93 143.823 Q 219.223 151.467 219.49 157.4 Q 219.49 157.437 219.49 157.487 Q 219.513 158.643 219.603 159.803 Q 219.603 160.5 219.617 161.197 Q 219.693 163.263 219.663 165.17 Q 219.657 168.14 219.28 170.52 Q 219.073 171.997 218.7 173.137 Q 218.237 174.83 217.5 175.687 Q 217.373 175.87 217.21 176.053 Q 215.837 177.773 214.09 177.743 Q 213.16 177.727 212.15 177.29 Q 211.387 176.943 210.54 176.363 Q 209.867 175.833 209.12 175.193 Q 209.397 170.543 209.16 161.64 Q 209.11 160.607 209.097 159.537 Q 208.933 152.99 209.007 144.497 Q 209.007 143.587 208.993 142.69 Q 208.993 142.553 208.993 142.38 Q 208.98 141.41 208.967 140.477 Q 208.94 139.6 208.807 138.937 Q 208.157 136.113 207.427 133.543 Q 207.257 132.98 207.037 132.467 Q 206.883 132.137 206.643 131.843 Q 206.443 131.623 206.207 131.477 Q 205.833 131.16 205.387 130.953 Q 204.453 130.613 203.52 130.433 Q 203.247 130.373 202.973 130.313 Q 202.51 130.267 202.047 130.22 Q 200.453 129.917 198.887 129.6 L 198.873 129.6 Q 197.463 129.293 196.237 128.903 Q 195.53 128.64 194.863 128.337 Q 194.863 128.323 194.863 128.323 Q 194.183 128.02 193.667 127.607 Q 193.073 126.993 192.673 126.343 Q 192.6 126.157 192.577 125.983 L 192.577 125.91" fill="#0066CC"/>
	</g>
</svg>
