<?xml version="1.0"?>
<!DOCTYPE svg PUBLIC "-//W3C//DTD SVG 1.1//EN" "http://www.w3.org/Graphics/SVG/1.1/DTD/svg11.dtd">
<svg version='1.1' width='9px' height='78px' xmlns='http://www.w3.org/2000/svg' xmlns:xlink='http://www.w3.org/1999/xlink'>
	<g transform="translate(-227.795,-108.779)">
		<path d="M 227.795 178.58 Q 227.836 177.955 227.877 176.698 Q 228.018 173.416 228.191 167.727 Q 228.252 164.561 228.314 161.236 Q 228.659 145.816 228.625 135.891 Q 228.605 134.611 228.584 133.411 Q 228.5 126.086 228.377 122.005 Q 228.357 121.205 228.336 120.445 Q 228.305 119.175 228.293 118.048 Q 228.282 117.498 228.311 116.948 Q 228.309 114.65 228.459 112.25 Q 228.459 112 228.459 111.75 Q 229.002 110.639 229.743 110.177 Q 229.911 110.025 230.08 109.873 Q 230.9 109.161 231.852 109.011 Q 232.807 108.541 233.741 109.025 Q 234.016 109.518 234.352 110.125 Q 235.85 113.025 236.273 117.111 Q 236.355 118.5 236.334 119.991 Q 235.839 146.593 236.125 172.82 Q 236.166 175 236.207 177.18 Q 236.268 179.809 236.055 182.357 Q 236.005 182.657 235.925 182.927 Q 235.895 182.977 235.866 183.027 Q 235.032 184.98 233.516 185.375 Q 232.343 185.97 231.089 185.961 Q 230.848 185.827 230.527 185.682 Q 230.386 185.614 230.305 185.575 Q 230.032 185.35 229.759 185.102 Q 228.995 183.541 228.007 181.039 Q 227.957 180.689 227.936 180.339 Q 227.916 179.889 227.895 179.439 Q 227.845 179.039 227.795 178.639 L 227.795 178.58" fill="#0066CC"/>
	</g>
</svg>
