<?xml version="1.0"?>
<!DOCTYPE svg PUBLIC "-//W3C//DTD SVG 1.1//EN" "http://www.w3.org/Graphics/SVG/1.1/DTD/svg11.dtd">
<svg version='1.1' width='96px' height='40px' xmlns='http://www.w3.org/2000/svg' xmlns:xlink='http://www.w3.org/1999/xlink'>
	<g transform="translate(-98.8058,-202.45)">
		<path d="M 129.65 220.25 Q 154.185 221.576 169.625 221.5 Q 185.066 221.426 191.65 220.4 Q 197.789 225.977 189.725 228 Q 185.446 229.139 181.025 229.025 Q 160.187 228.537 139.35 228.05 Q 120.131 227.604 101.075 229.075 Q 101.025 229.071 100.975 229.075 Q 99.2871 229.206 98.975 227.35 Q 98.1861 222.885 101.075 221.4 Q 102.606 220.618 105.175 220.675 Q 117.07 221.02 127 213.75 Q 131.102 210.737 132.35 215.95 Q 132.813 217.995 129.65 220.25 Z M 114.65 233.05 Q 117.055 232.901 119.2 233.05 Q 119.754 233.09 120.3 233.15 Q 124.352 233.605 135.275 234.15 Q 146.198 234.69 162.75 233.9 Q 167.215 233.685 170.55 233.5 Q 170.55 237.664 170.55 241.8 Q 143.912 240.45 117.275 241.25 Q 110.431 241.467 108.3 237.225 Q 106.641 233.99 111.15 233.4 Q 112.966 233.153 114.65 233.05 Z M 125.5 204.25 Q 147.217 203.986 168.125 202.45 Q 177.569 206.047 168.675 210.15 Q 166.177 211.285 162.925 211.5 Q 141.91 212.885 122.05 210.05 Q 120.75 209.862 120.45 208.75 Q 119.459 204.33 125.5 204.25 Z" fill="#0066CC"/>
	</g>
</svg>
