<?xml version="1.0"?>
<!DOCTYPE svg PUBLIC "-//W3C//DTD SVG 1.1//EN" "http://www.w3.org/Graphics/SVG/1.1/DTD/svg11.dtd">
<svg version='1.1' width='29px' height='33px' xmlns='http://www.w3.org/2000/svg' xmlns:xlink='http://www.w3.org/1999/xlink'>
	<g transform="translate(-236.6,-133.026)">
		<path d="M 236.6 140.337 Q 236.674 139.418 236.771 138.787 Q 236.845 138.168 236.916 137.971 Q 236.984 137.332 237.234 136.847 Q 237.679 135.516 239.026 134.987 Q 239.584 134.808 240.247 134.734 Q 240.324 134.734 240.4 134.734 Q 246.437 134.737 251.566 133.655 Q 251.589 133.655 251.639 133.655 Q 251.866 133.582 252.118 133.508 Q 254.121 133.092 256.205 133.026 Q 256.205 133.026 256.232 133.026 Q 256.745 133.058 257.311 133.142 Q 257.387 133.145 257.463 133.147 Q 257.463 133.147 257.489 133.147 Q 257.489 133.147 257.489 133.147 Q 257.921 133.103 258.326 133.213 Q 258.3 133.187 258.3 133.187 Q 260.663 133.487 261.55 135.35 Q 261.574 135.35 261.597 135.376 Q 262.332 136.611 263.247 138.095 Q 263.487 138.466 263.729 138.887 Q 263.753 138.887 263.776 138.913 Q 264.305 139.7 264.539 140.703 Q 264.563 140.805 264.561 140.908 Q 264.992 142.447 265 144.342 Q 265 144.421 265 144.5 Q 265.008 147.216 265.011 149.853 Q 265.037 150.005 265.037 150.184 Q 264.984 151.018 265.037 151.958 Q 265.037 151.982 265.037 152.032 Q 265.089 153.355 265.116 154.626 Q 265.142 157.318 264.847 159.753 Q 264.739 163.987 263.403 165.124 Q 263.171 165.25 262.861 165.297 Q 262.834 165.297 262.808 165.297 Q 262.347 165.413 261.861 165.587 Q 261.182 165.9 260.063 164.953 Q 259.666 164.742 259.245 164.147 Q 256.697 161.503 255.963 154.068 Q 255.963 154.068 255.963 154.042 Q 255.911 153.097 255.932 152.261 Q 255.766 150.563 255.842 148.716 Q 255.258 147.989 254.75 147.284 Q 253.879 146.121 253.105 144.947 Q 253.008 144.784 252.911 144.621 Q 252.616 144.266 252.505 143.966 Q 252.482 143.913 252.484 143.887 Q 252.339 143.671 252.274 143.482 Q 251.816 143.553 251.358 143.468 Q 250.779 143.379 249.726 143.345 Q 247.605 143.689 242.453 143.329 Q 237.332 142.971 236.6 140.389 L 236.6 140.337" fill="#0066CC"/>
	</g>
</svg>
