<?xml version="1.0"?>
<!DOCTYPE svg PUBLIC "-//W3C//DTD SVG 1.1//EN" "http://www.w3.org/Graphics/SVG/1.1/DTD/svg11.dtd">
<svg version='1.1' width='40px' height='36px' xmlns='http://www.w3.org/2000/svg' xmlns:xlink='http://www.w3.org/1999/xlink'>
	<g transform="translate(-129.101,-136.217)">
		<path d="M 129.118 155.441 Q 128.996 152.304 129.754 149.584 Q 130.234 147.788 131.144 146.243 Q 131.154 146.193 131.204 146.182 Q 131.775 145.088 132.566 144.104 Q 133.678 142.799 135.1 141.663 Q 136.543 140.476 138.346 139.551 Q 138.346 139.551 138.385 139.551 Q 138.385 139.551 138.385 139.551 Q 138.976 139.24 139.607 138.938 Q 140.66 138.425 141.813 138.022 Q 144.832 136.884 148.351 136.554 Q 148.312 136.594 148.312 136.594 Q 150.428 136.354 152.632 136.268 Q 155.19 136.141 157.804 136.331 Q 157.865 136.341 157.925 136.351 Q 157.966 136.451 158.007 136.591 Q 158.399 136.653 158.74 136.794 Q 158.879 136.765 159.059 136.775 Q 159.29 136.776 159.51 136.778 Q 159.941 136.89 160.332 137.001 Q 160.663 137.024 161.024 137.056 Q 163.034 137.435 164.385 138.632 Q 164.396 138.632 164.406 138.653 Q 165.857 140 166.51 142.163 Q 166.571 142.384 166.671 142.644 Q 167.269 143.247 167.609 144.059 Q 167.659 144.219 167.709 144.39 Q 167.759 144.49 167.809 144.59 Q 168.019 145.403 168.01 146.375 Q 168.001 147.197 168.012 148.009 Q 168.012 148.049 168.012 148.099 Q 168.012 148.209 168.022 148.319 Q 168.022 148.429 168.022 148.54 Q 168.043 148.609 168.074 148.688 Q 168.207 149.025 168.321 149.403 Q 168.331 149.472 168.341 149.562 Q 168.341 149.601 168.351 149.641 Q 168.424 149.84 168.485 150.049 Q 168.506 150.138 168.526 150.218 Q 168.629 150.465 168.743 150.763 Q 168.804 150.931 168.876 151.119 Q 168.887 151.159 168.887 151.199 Q 168.887 151.601 168.926 152.015 Q 169.006 154.3 168.678 156.426 Q 168.678 156.426 168.668 156.426 Q 168.454 156.804 168.272 157.162 Q 168.241 157.241 168.221 157.331 Q 168.129 157.41 168.049 157.49 Q 167.999 157.569 167.959 157.649 Q 167.938 157.678 167.918 157.718 Q 167.776 157.887 167.646 158.046 Q 167.585 158.075 167.535 158.115 Q 167.525 158.115 167.515 158.125 Q 167.454 158.165 167.404 158.204 Q 167.394 158.244 167.384 158.284 Q 167.384 158.294 167.384 158.294 Q 167.154 158.916 166.846 159.499 Q 166.587 159.9 166.278 160.301 Q 165.54 161.228 164.79 162.174 Q 164.59 162.425 164.39 162.666 Q 164.029 163.178 163.659 163.65 Q 162.649 164.865 161.418 165.85 Q 161.368 165.9 161.307 165.95 Q 161.228 165.95 161.228 165.95 Q 160.778 166.371 160.328 166.751 Q 159.647 167.324 158.996 167.726 Q 158.985 167.776 158.975 167.826 Q 157.641 168.801 156.365 169.546 Q 156.325 169.556 156.325 169.566 Q 156.315 169.566 156.304 169.566 Q 156.204 169.616 156.115 169.666 Q 153.982 170.729 151.987 171.362 Q 150.601 171.794 148.738 171.946 Q 147.434 172.087 145.931 172.087 Q 144.647 172.087 143.403 171.916 Q 141.678 171.675 140.024 171.084 Q 139.753 170.974 139.482 170.863 Q 138.038 170.301 136.754 169.49 Q 135.391 168.638 134.199 167.506 Q 134.199 167.506 134.199 167.506 Q 132.944 166.293 131.971 164.738 Q 131.921 164.678 131.881 164.628 Q 131.149 163.525 130.566 162.253 Q 130.566 162.253 130.566 162.253 Q 130.496 162.082 130.425 161.912 Q 130.365 161.862 130.365 161.812 Q 130.354 161.801 130.354 161.791 Q 129.813 160.326 129.522 158.832 Q 129.512 158.822 129.522 158.812 Q 129.16 157.307 129.128 155.724 Q 129.128 155.713 129.128 155.703 Q 129.118 155.582 129.118 155.462 L 129.118 155.441" fill="#0066CC"/>
		<path d="M 139.871 153.91 Q 139.912 153.166 140.084 152.462 Q 140.507 151.235 140.507 151.225 Q 140.89 150.312 141.491 149.628 Q 141.651 149.487 141.812 149.356 Q 141.982 149.144 142.174 148.953 Q 143.781 147.41 146.193 146.666 Q 148.037 146.141 150.307 145.841 Q 151.969 145.631 153.697 145.79 Q 154.028 145.841 154.319 145.903 Q 155.263 146.019 156.147 146.185 Q 156.719 146.279 157.26 146.394 Q 157.812 146.519 158.203 146.654 Q 158.374 146.697 158.534 146.779 Q 158.954 147.015 159.374 147.259 Q 159.446 147.841 159.487 148.444 Q 159.559 149.39 159.672 150.335 Q 159.693 150.566 159.713 150.797 Q 159.713 150.797 159.724 150.807 Q 159.724 150.857 159.734 150.907 Q 159.744 151.018 159.765 151.138 Q 159.765 151.188 159.775 151.238 Q 159.816 151.429 159.888 151.631 Q 159.888 151.631 159.899 151.641 Q 159.909 151.691 159.929 151.741 Q 159.909 151.841 159.899 151.941 Q 159.888 151.981 159.888 152.031 Q 159.857 152.282 159.847 152.534 Q 159.816 152.846 159.796 153.168 Q 159.785 153.207 159.785 153.257 Q 159.765 153.347 159.765 153.457 Q 159.754 153.578 159.744 153.709 Q 159.64 154.603 159.466 155.457 Q 159.425 155.688 159.334 155.909 Q 159.324 155.959 159.313 156.019 Q 159.251 156.203 159.179 156.387 Q 159.169 156.397 159.159 156.407 Q 158.418 157.143 158.191 158.056 L 158.151 158.106 Q 158.131 158.066 158.121 158.047 Q 158.059 157.96 157.997 157.863 Q 157.325 158.476 156.691 158.94 Q 155.324 159.935 153.854 160.759 Q 153.3 161.021 152.746 161.241 Q 152.775 161.241 152.765 161.241 Q 151.426 161.801 150.007 161.978 Q 148.146 162.174 146.278 161.854 Q 146.037 161.813 145.796 161.762 Q 145.785 161.751 145.765 161.751 Q 145.101 161.607 144.529 161.382 Q 144.479 161.362 144.429 161.351 Q 142.297 160.568 141.128 159.084 Q 141.168 159.074 141.168 159.063 Q 140.957 158.76 140.768 158.407 Q 140.428 157.793 140.238 157.128 Q 139.849 155.728 139.871 154.079 Q 139.871 154.069 139.871 154.069 L 139.871 153.91" fill="#0066CC"/>
	</g>
</svg>
