<?xml version="1.0"?>
<!DOCTYPE svg PUBLIC "-//W3C//DTD SVG 1.1//EN" "http://www.w3.org/Graphics/SVG/1.1/DTD/svg11.dtd">
<svg version='1.1' width='26px' height='20px' xmlns='http://www.w3.org/2000/svg' xmlns:xlink='http://www.w3.org/1999/xlink'>
	<g transform="translate(-240.65,-134.138)">
		<path d="M 240.65 143.274 Q 240.747 142.687 240.892 142.174 Q 240.989 141.887 241.132 141.642 Q 241.318 141.263 241.568 140.945 Q 242.108 140.182 243.053 139.724 Q 243.468 139.616 243.895 139.518 Q 243.947 139.518 244 139.518 Q 248.024 138.574 251.732 137.161 Q 251.779 137.161 251.829 137.161 Q 252.032 137.063 252.237 136.966 Q 253.742 136.384 255.211 135.703 Q 255.211 135.703 255.213 135.703 Q 255.489 135.616 255.771 135.534 Q 255.824 135.489 255.876 135.445 Q 255.876 135.445 255.879 135.445 Q 255.879 135.445 255.879 135.445 Q 256.192 135.305 256.503 135.226 Q 256.5 135.224 256.5 135.224 Q 258.176 134.624 259.75 134.45 Q 259.797 134.45 259.845 134.453 Q 261.313 134.171 262.845 134.139 Q 263.274 134.132 263.658 134.174 Q 263.705 134.174 263.753 134.176 Q 264.661 134.3 265.179 134.805 Q 265.226 134.861 265.271 134.916 Q 266.034 135.745 265.9 137.284 Q 265.9 137.292 265.9 137.3 Q 265.766 139.282 265.721 141.255 Q 265.724 141.361 265.724 141.468 Q 265.718 142.137 265.724 142.816 Q 265.724 142.863 265.724 142.913 Q 265.729 143.811 265.732 144.703 Q 265.734 146.637 265.345 148.455 Q 264.929 150.724 263.805 152.547 Q 263.692 152.65 263.571 152.745 Q 263.568 152.745 263.566 152.745 Q 263.295 153.026 263.021 153.224 Q 262.413 153.75 261.626 153.655 Q 261.182 153.634 260.689 153.395 Q 256.745 151.555 256.626 147.437 Q 256.626 147.437 256.626 147.434 Q 256.621 146.845 256.713 146.221 Q 256.832 144.926 257.334 143.482 Q 256.466 143.679 255.65 143.968 Q 254.258 144.392 253.011 144.995 Q 252.866 145.068 252.721 145.142 Q 252.332 145.332 251.961 145.482 Q 251.913 145.476 251.868 145.474 Q 251.629 145.542 251.397 145.613 Q 251.082 145.755 250.766 145.837 Q 250.258 146.008 249.703 146.139 Q 247.061 147.029 244.655 146.408 Q 242.163 145.742 240.65 143.279 L 240.65 143.274" fill="#0066CC"/>
	</g>
</svg>
