<?xml version="1.0"?>
<!DOCTYPE svg PUBLIC "-//W3C//DTD SVG 1.1//EN" "http://www.w3.org/Graphics/SVG/1.1/DTD/svg11.dtd">
<svg version='1.1' width='48px' height='20px' xmlns='http://www.w3.org/2000/svg' xmlns:xlink='http://www.w3.org/1999/xlink'>
	<g transform="translate(-28.1691,-112.12)">
		<path d="M 28.1691 122.757 Q 28.1956 121.984 28.6265 121.407 Q 28.7 121.294 28.7868 121.181 Q 29.0574 120.878 29.3779 120.749 Q 29.5912 120.632 29.8676 120.593 Q 29.9176 120.579 29.9676 120.579 Q 30.2412 120.553 30.5412 120.553 Q 35.4529 120.513 40.1926 119.918 Q 42.0426 119.693 43.8794 119.375 Q 45.2765 119.15 46.6603 118.899 Q 59.0147 116.556 70.35 112.691 Q 71.8044 112.082 73.325 112.122 Q 74.0721 112.149 74.6485 112.712 Q 75.2353 113.249 75.3941 114.062 Q 75.5397 114.899 75.6853 115.828 Q 76.0426 118.321 76.0029 120.707 Q 75.9897 121.481 75.4956 122.044 Q 75.1985 122.434 74.8147 122.676 Q 74.5912 122.793 74.3309 122.872 Q 67.4632 125.162 60.2779 126.909 Q 57.9265 127.504 55.5353 128.047 Q 53.5809 128.471 51.6 128.854 Q 49.5794 129.225 47.5853 129.622 Q 47.4985 129.635 47.425 129.635 L 47.425 129.622 Q 46.2779 129.821 45.1309 129.993 Q 44.8941 130.019 44.6706 130.046 Q 44.1441 130.151 43.6176 130.244 Q 43.5309 130.257 43.4309 130.271 Q 39.8706 130.813 36.2309 131.21 Q 33.625 131.515 31.1779 131.263 Q 30.3809 131.197 29.8176 130.674 Q 29.2279 130.137 29.0559 129.35 Q 28.725 127.606 28.4603 125.637 Q 28.3147 124.25 28.1824 122.81 L 28.1691 122.757" fill="#0066CC"/>
	</g>
</svg>
