<?xml version="1.0"?>
<!DOCTYPE svg PUBLIC "-//W3C//DTD SVG 1.1//EN" "http://www.w3.org/Graphics/SVG/1.1/DTD/svg11.dtd">
<svg version='1.1' width='12px' height='71px' xmlns='http://www.w3.org/2000/svg' xmlns:xlink='http://www.w3.org/1999/xlink'>
	<g transform="translate(-173.586,-113.189)">
		<path d="M 173.586 136.786 Q 173.586 136.436 173.595 136.105 Q 173.641 135.723 173.695 135.359 Q 173.8 134.968 173.923 134.595 Q 173.995 134.223 174.068 133.868 Q 174.182 133.505 174.295 133.168 Q 174.332 132.873 174.368 132.627 Q 174.414 132.414 174.45 132.209 Q 174.523 131.891 174.586 131.573 Q 174.932 130.573 175.159 129.673 Q 175.282 129.055 175.445 128.486 Q 175.455 128.382 175.464 128.277 Q 175.905 125.782 176.455 123.355 Q 176.868 121.491 177.377 119.759 Q 178.027 117.341 178.936 115.127 Q 178.986 114.991 179.077 114.855 Q 179.3 114.4 179.605 113.986 Q 180.173 113.364 181.223 113.191 Q 181.477 113.182 181.773 113.214 Q 181.945 113.25 182.118 113.286 Q 182.241 113.314 182.405 113.391 Q 182.659 113.445 182.955 113.664 Q 182.955 113.673 182.995 113.682 Q 183.291 113.868 183.586 114.136 Q 183.882 114.405 184.218 114.755 Q 184.423 114.973 184.636 115.273 Q 184.686 115.573 184.736 115.914 Q 184.695 116.236 184.695 116.559 Q 184.686 116.65 184.695 116.741 Q 184.695 116.841 184.695 116.95 Q 184.632 118.232 184.568 119.514 Q 184.382 121.286 184.236 123.1 Q 183.895 126.105 183.555 129.109 Q 183.514 129.35 183.482 129.591 Q 183.327 131.173 183.173 132.755 Q 182.986 134.377 182.882 136.05 Q 182.768 137.232 182.655 138.414 Q 182.623 139.005 182.582 139.595 Q 182.582 139.936 182.591 140.277 Q 182.177 147.391 182.077 154.541 Q 182.077 155.773 182.05 157.014 Q 182.005 158.245 181.968 159.486 Q 181.905 160.668 181.85 161.859 Q 181.741 162.445 181.623 163.041 Q 181.491 163.982 181.332 164.827 Q 181.218 165.632 181.114 166.355 Q 181.005 166.768 180.964 167.173 Q 180.859 167.868 180.859 168.527 Q 180.841 168.623 180.823 168.718 Q 180.786 168.982 180.768 169.245 Q 180.85 170.059 180.932 170.873 Q 181.023 171.877 181.114 172.891 Q 181.114 173.186 181.155 173.491 Q 181.205 173.945 181.255 174.4 Q 181.395 175.7 181.568 177.009 Q 181.609 177.464 181.65 177.959 Q 181.65 178.191 181.691 178.505 Q 181.782 179.541 181.873 180.577 Q 181.955 181.359 182.045 182.182 Q 181.964 182.436 181.841 182.691 Q 181.8 182.786 181.718 182.882 Q 181.391 183.332 180.859 183.677 Q 180.532 183.832 180.164 183.945 Q 179.591 184.155 178.977 183.955 Q 178.2 183.668 177.505 183.177 Q 177.014 182.791 176.605 182.445 Q 176.309 181.264 176.014 180.082 Q 175.8 178.8 175.577 177.559 Q 175.395 176.277 175.336 174.995 Q 174.827 167.755 174.523 160.645 Q 174.514 160.355 174.505 160.064 Q 174.495 159.555 174.477 159.045 Q 174.391 157.673 174.336 156.382 Q 174.282 154.95 174.227 153.527 Q 174.155 151.655 174.041 149.791 Q 174.032 149.6 174.023 149.409 Q 173.914 146.695 173.805 144 Q 173.741 142.177 173.668 140.373 Q 173.632 138.75 173.586 137.127 Q 173.586 137.018 173.586 136.909 L 173.586 136.786" fill="#0066CC"/>
	</g>
</svg>
