<?xml version="1.0"?>
<!DOCTYPE svg PUBLIC "-//W3C//DTD SVG 1.1//EN" "http://www.w3.org/Graphics/SVG/1.1/DTD/svg11.dtd">
<svg version='1.1' width='9px' height='78px' xmlns='http://www.w3.org/2000/svg' xmlns:xlink='http://www.w3.org/1999/xlink'>
	<g transform="translate(-228.777,-108.797)">
		<path d="M 228.777 179.173 Q 228.832 178.623 228.886 177.264 Q 229.041 174.105 229.255 168.286 Q 229.336 165.182 229.418 161.782 Q 229.845 146.505 229.75 136.505 Q 229.723 135.232 229.695 134.032 Q 229.55 126.782 229.386 122.673 Q 229.359 121.873 229.332 121.127 Q 229.273 119.85 229.241 118.764 Q 229.209 118.214 229.232 117.664 Q 229.195 115.4 229.345 113 Q 229.345 112.75 229.345 112.5 Q 229.786 111.368 230.391 110.736 Q 230.532 110.55 230.673 110.364 Q 231.35 109.482 232.186 109.182 Q 233.059 108.555 234.055 108.95 Q 234.405 109.341 234.836 109.9 Q 236.75 112.5 237.214 116.682 Q 237.323 118.05 237.295 119.555 Q 236.718 146.041 237.25 172.227 Q 237.305 174.4 237.359 176.573 Q 237.441 179.195 237.173 181.709 Q 237.123 182.009 237.05 182.286 Q 237.027 182.336 237.005 182.386 Q 236.259 184.373 234.955 185 Q 233.891 185.827 232.718 185.982 Q 232.464 185.936 232.136 185.859 Q 231.982 185.818 231.873 185.8 Q 231.559 185.65 231.245 185.436 Q 230.277 184.155 229.009 181.618 Q 228.959 181.268 228.932 180.918 Q 228.905 180.468 228.877 180.018 Q 228.827 179.618 228.777 179.218 L 228.777 179.173" fill="#0066CC"/>
	</g>
</svg>
