<?xml version="1.0"?>
<!DOCTYPE svg PUBLIC "-//W3C//DTD SVG 1.1//EN" "http://www.w3.org/Graphics/SVG/1.1/DTD/svg11.dtd">
<svg version='1.1' width='232px' height='63px' xmlns='http://www.w3.org/2000/svg' xmlns:xlink='http://www.w3.org/1999/xlink'>
	<g transform="translate(115.625,31)">
		<path d="M 231.4 109.85 Q 232.194 109.859 232.75 110.425 Q 233.337 110.972 233.35 111.75 L 233.35 128.675 Q 233.35 129.359 233.35 130 L 233.35 130.1 Q 233.35 130.201 233.35 130.3 L 233.375 132 L 233.4 128.65 Q 235.146 127.486 236.875 126.7 L 236.825 126.7 Q 240.378 124.977 244.3 124.975 Q 251.601 124.982 255.725 129.7 Q 259.71 134.091 259.7 142.575 L 259.7 169.45 Q 259.699 170.228 259.125 170.775 Q 258.556 171.34 257.75 171.35 L 250.575 171.35 Q 249.769 171.34 249.2 170.775 Q 248.626 170.228 248.625 169.45 L 248.625 145.85 Q 248.613 143.127 248.35 140.825 L 248.35 140.8 Q 248.091 138.753 247.5 137.55 Q 247.486 137.526 247.475 137.5 Q 246.88 136.522 245.9 136.075 Q 245.837 136.05 245.775 136.025 Q 244.552 135.428 242.475 135.425 Q 240.235 135.447 237.825 136.625 Q 235.52 137.735 233.35 139.425 L 233.35 169.45 Q 233.337 170.228 232.75 170.775 Q 232.194 171.34 231.4 171.35 L 224.2 171.35 Q 223.406 171.34 222.85 170.775 Q 222.263 170.228 222.25 169.45 L 222.25 111.75 Q 222.263 110.972 222.85 110.425 Q 223.406 109.859 224.2 109.85 Z M 215.4 142.575 L 215.4 169.45 Q 215.399 170.228 214.825 170.775 Q 214.256 171.34 213.45 171.35 L 206.275 171.35 Q 205.469 171.34 204.9 170.775 Q 204.313 170.228 204.3 169.45 L 204.3 145.85 Q 204.3 143.127 204.05 140.825 L 204.05 140.8 Q 203.791 138.753 203.2 137.55 Q 203.186 137.526 203.175 137.5 Q 202.581 136.522 201.6 136.075 Q 201.537 136.05 201.475 136.025 Q 200.252 135.428 198.175 135.425 Q 195.935 135.447 193.525 136.625 Q 191.221 137.735 189.05 139.425 L 189.05 169.45 Q 189.037 170.228 188.45 170.775 Q 187.881 171.34 187.075 171.35 L 179.9 171.35 Q 179.106 171.34 178.55 170.775 Q 177.963 170.228 177.95 169.45 L 177.95 128.075 Q 177.963 127.297 178.55 126.75 Q 179.106 126.184 179.9 126.175 L 187.075 126.175 Q 187.881 126.184 188.45 126.75 Q 189.037 127.297 189.05 128.075 L 189.05 128.675 Q 190.821 127.497 192.575 126.7 L 192.525 126.7 Q 196.078 124.977 200 124.975 Q 207.301 124.982 211.425 129.7 Q 215.41 134.091 215.4 142.575 Z M 167.175 133.2 L 167.15 133.175 Q 168.488 136.19 168.5 140.475 L 168.5 168.825 Q 168.487 169.603 167.9 170.15 Q 167.331 170.715 166.525 170.725 L 159.35 170.725 Q 158.544 170.715 157.975 170.15 Q 157.401 169.603 157.4 168.825 L 157.4 168.275 Q 156.224 169.111 155.125 169.675 L 155.075 169.7 Q 152.957 170.742 151.05 171.3 Q 149.087 171.867 145.525 171.85 Q 142.45 171.844 139.75 170.75 Q 137.05 169.66 134.95 167.625 L 134.925 167.625 Q 132.961 165.674 131.75 162.85 L 131.75 162.825 Q 130.572 159.956 130.575 156.8 Q 130.574 151.939 132.725 148.575 Q 132.752 148.551 132.775 148.525 Q 134.86 145.039 139.525 143 Q 139.563 142.988 139.6 142.975 Q 143.424 141.217 148.625 140.6 L 148.6 140.65 Q 152.699 140.102 157.3 139.775 Q 157.351 139.778 157.4 139.775 Q 157.395 139.659 157.375 139.55 Q 157.294 138.126 156.875 137.15 Q 156.863 137.125 156.85 137.1 Q 156.33 136.122 155.45 135.575 Q 154.385 134.966 152.825 134.775 L 152.775 134.75 Q 150.973 134.466 149.05 134.475 Q 146.7 134.478 143.625 135.175 Q 143.598 135.187 143.575 135.2 Q 140.356 135.85 137.2 137.1 Q 136.835 137.246 136.45 137.25 L 136 137.25 Q 135.194 137.24 134.625 136.675 Q 134.051 136.128 134.05 135.35 L 134.05 128.325 Q 134.041 127.702 134.425 127.2 Q 134.822 126.685 135.45 126.5 Q 137.538 125.914 141.375 125.2 Q 145.213 124.544 149.05 124.55 Q 153.651 124.537 156.875 125.2 L 156.95 125.225 Q 160.332 126.015 163.05 127.95 L 163.075 127.95 Q 165.862 129.973 167.175 133.2 Z M 78.2 114.3 L 78.2 120.8 Q 78.1865 121.578 77.6 122.125 Q 77.0313 122.69 76.225 122.7 L 59.075 122.7 L 59.075 169.45 Q 59.0615 170.228 58.475 170.775 Q 57.9186 171.34 57.125 171.35 L 49.55 171.35 Q 48.7436 171.34 48.175 170.775 Q 47.6006 170.228 47.6 169.45 L 47.6 122.7 L 30.425 122.7 Q 29.6186 122.69 29.05 122.125 Q 28.4756 121.578 28.475 120.8 L 28.475 114.3 Q 28.4756 113.51 29.05 112.95 Q 29.6186 112.397 30.425 112.4 L 76.225 112.4 Q 77.0313 112.397 77.6 112.95 Q 78.1865 113.51 78.2 114.3 Z M 95.8 111.75 L 95.8 128.675 Q 97.5713 127.497 99.325 126.7 L 99.3 126.7 Q 102.852 124.977 106.775 124.975 Q 114.063 124.982 118.175 129.7 Q 122.172 134.091 122.175 142.575 L 122.175 169.45 Q 122.162 170.228 121.575 170.775 Q 121.006 171.34 120.2 171.35 L 113.025 171.35 Q 112.231 171.34 111.675 170.775 Q 111.088 170.228 111.075 169.45 L 111.075 145.85 Q 111.075 143.127 110.825 140.825 L 110.825 140.8 Q 110.548 138.71 109.925 137.5 L 109.975 137.55 Q 109.379 136.533 108.375 136.075 Q 108.3 136.05 108.225 136.025 Q 107.014 135.428 104.95 135.425 Q 102.697 135.447 100.275 136.625 Q 97.9703 137.735 95.8 139.425 L 95.8 169.45 Q 95.799 170.228 95.225 170.775 Q 94.6561 171.34 93.85 171.35 L 86.675 171.35 Q 85.8688 171.34 85.3 170.775 Q 84.726 170.228 84.725 169.45 L 84.725 111.75 Q 84.726 110.972 85.3 110.425 Q 85.8688 109.859 86.675 109.85 L 93.85 109.85 Q 94.6561 109.859 95.225 110.425 Q 95.799 110.972 95.8 111.75 Z M 153.1 149.65 Q 149.406 150.017 147.125 150.675 L 147.15 150.625 Q 144.756 151.372 143.175 152.85 Q 141.936 154.093 141.925 156.35 Q 141.936 158.964 143.35 160.35 L 143.3 160.35 Q 144.964 161.684 148.075 161.675 Q 150.966 161.685 153.3 160.5 L 153.25 160.5 Q 155.382 159.373 157.3 157.825 Q 157.33 157.804 157.35 157.775 Q 157.379 157.767 157.4 157.75 L 157.4 149.25 Q 157.367 149.253 157.325 149.25 Q 157.196 149.267 157.05 149.275 Q 155.297 149.442 153.1 149.65 Z" transform="translate(-144.1,-140.85)" fill="#0066CC"/>
	</g>
</svg>
