<?xml version="1.0"?>
<!DOCTYPE svg PUBLIC "-//W3C//DTD SVG 1.1//EN" "http://www.w3.org/Graphics/SVG/1.1/DTD/svg11.dtd">
<svg version='1.1' width='51px' height='50px' xmlns='http://www.w3.org/2000/svg' xmlns:xlink='http://www.w3.org/1999/xlink'>
	<g transform="translate(-124.335,-123.757)">
		<path d="M 124.459 151.171 Q 124.11 147.29 124.74 143.404 Q 125.154 140.994 126.097 138.834 Q 126.14 138.784 126.19 138.741 Q 126.825 137.194 127.746 135.79 Q 129.051 133.837 130.7 132.119 Q 132.434 130.188 134.56 128.713 Q 134.56 128.713 134.568 128.713 Q 134.568 128.713 134.568 128.713 Q 135.288 128.207 136.016 127.744 Q 137.393 126.875 138.869 126.149 Q 142.891 124.104 147.413 123.84 Q 147.406 123.847 147.406 123.847 Q 150.201 123.64 152.891 123.909 Q 156.257 124.171 159.39 125.428 Q 159.482 125.471 159.575 125.513 Q 159.746 125.613 159.916 125.721 Q 160.437 125.976 160.907 126.247 Q 161.015 126.282 161.129 126.325 Q 161.457 126.488 161.743 126.651 Q 162.271 126.957 162.791 127.263 Q 163.219 127.512 163.612 127.803 Q 165.654 129.218 167.168 131.191 Q 167.21 131.191 167.253 131.276 Q 168.866 133.4 169.843 135.919 Q 169.935 136.204 170.035 136.497 Q 170.472 137.424 170.779 138.429 Q 170.829 138.622 170.879 138.857 Q 170.929 138.957 170.979 139.057 Q 171.222 140.226 171.343 141.425 Q 171.463 142.474 171.506 143.479 Q 171.506 143.487 171.506 143.537 Q 171.506 143.679 171.549 143.822 Q 171.549 143.965 171.549 144.107 Q 171.634 144.079 171.762 144.094 Q 172.316 144.075 172.785 144.226 Q 172.828 144.199 172.871 144.256 Q 172.871 144.263 172.913 144.271 Q 173.212 144.307 173.468 144.387 Q 173.553 144.444 173.638 144.459 Q 174.065 144.382 174.534 144.519 Q 174.79 144.428 175.088 144.422 Q 175.131 144.429 175.131 144.437 Q 175.131 145.163 175.138 145.932 Q 175.153 148.8 175.051 151.638 Q 175.051 151.638 175.009 151.638 Q 174.44 151.79 173.999 151.856 Q 173.871 151.871 173.785 151.928 Q 173.565 151.943 173.387 151.957 Q 173.337 151.972 173.329 151.987 Q 173.244 151.951 173.159 151.959 Q 172.888 152.031 172.66 152.06 Q 172.568 152.025 172.518 152.032 Q 172.475 152.032 172.432 152.075 Q 172.34 152.082 172.29 152.09 Q 172.247 152.097 172.204 152.104 Q 172.204 152.147 172.204 152.147 Q 172.04 152.996 171.86 153.837 Q 171.731 154.4 171.551 154.963 Q 171.007 156.601 170.257 158.162 Q 170.057 158.575 169.857 158.946 Q 169.465 159.651 169.029 160.35 Q 167.987 162.082 166.659 163.65 Q 166.609 163.7 166.516 163.75 Q 166.501 163.75 166.501 163.75 Q 166.051 164.235 165.601 164.713 Q 164.824 165.512 164.01 166.238 Q 163.968 166.288 163.925 166.338 Q 162.171 167.863 160.182 169.06 Q 160.175 169.103 160.175 169.146 Q 160.132 169.146 160.09 169.146 Q 159.99 169.196 159.932 169.246 Q 157.541 170.665 154.931 171.556 Q 152.963 172.247 150.744 172.56 Q 148.954 172.831 147.128 172.831 Q 145.424 172.831 143.726 172.596 Q 141.451 172.225 139.312 171.504 Q 138.976 171.362 138.641 171.219 Q 136.744 170.463 135.04 169.457 Q 133.321 168.444 131.837 167.053 Q 131.837 167.053 131.837 167.053 Q 130.097 165.484 128.735 163.444 Q 128.685 163.351 128.678 163.301 Q 127.687 161.875 126.846 160.376 Q 126.846 160.376 126.846 160.376 Q 126.71 160.141 126.575 159.906 Q 126.482 159.856 126.482 159.806 Q 126.44 159.763 126.44 159.721 Q 125.769 157.738 125.349 155.791 Q 125.306 155.749 125.349 155.706 Q 124.793 153.716 124.501 151.712 Q 124.501 151.669 124.501 151.626 Q 124.459 151.441 124.459 151.256 L 124.459 151.171" fill="#0066CC"/>
		<path d="M 133.335 146.243 Q 133.506 145.046 133.904 143.856 Q 134.716 141.918 134.716 141.875 Q 135.357 140.606 136.121 139.501 Q 136.313 139.231 136.506 139.003 Q 136.741 138.597 137.062 138.276 Q 139.478 135.343 143.184 134.146 Q 146.581 133.071 150.016 132.771 Q 152.972 132.528 155.574 133.657 Q 156.001 133.871 156.422 134.126 Q 157.819 134.922 159.124 135.768 Q 159.922 136.315 160.593 136.947 Q 161.306 137.622 161.826 138.34 Q 162.062 138.674 162.254 139.015 Q 162.74 139.832 163.062 140.529 Q 163.36 141.371 163.531 142.297 Q 163.829 143.857 164.299 145.418 Q 164.384 145.746 164.469 146.074 Q 164.469 146.074 164.512 146.116 Q 164.512 146.166 164.554 146.216 Q 164.597 146.359 164.682 146.544 Q 164.682 146.594 164.725 146.644 Q 164.896 146.965 165.194 147.328 Q 165.194 147.328 165.237 147.371 Q 165.279 147.421 165.365 147.471 Q 165.279 147.571 165.237 147.671 Q 165.194 147.678 165.194 147.728 Q 165.066 148.141 165.024 148.554 Q 164.896 149.06 164.81 149.609 Q 164.768 149.616 164.768 149.666 Q 164.682 149.724 164.682 149.866 Q 164.64 150.051 164.597 150.279 Q 164.007 151.626 163.446 152.966 Q 163.275 153.294 163.054 153.579 Q 163.012 153.629 162.969 153.722 Q 162.713 154.326 162.415 154.931 Q 162.372 154.974 162.329 155.016 Q 161.459 156.334 160.521 157.603 L 160.513 157.653 Q 160.428 157.646 160.385 157.724 Q 160.129 157.993 159.874 158.219 Q 158.975 159.188 157.921 160.007 Q 155.712 161.618 153.24 162.829 Q 152.2 163.285 151.16 163.571 Q 151.125 163.571 151.082 163.571 Q 148.838 164.163 146.416 163.951 Q 143.26 163.662 140.551 162.34 Q 140.181 162.169 139.81 161.956 Q 139.768 161.913 139.682 161.913 Q 138.663 161.316 137.865 160.541 Q 137.815 160.456 137.765 160.413 Q 135.374 158.109 134.301 155.104 Q 134.309 155.062 134.309 155.019 Q 134.066 154.393 133.909 153.716 Q 133.601 152.584 133.444 151.401 Q 133.087 148.901 133.335 146.315 Q 133.335 146.272 133.335 146.272 L 133.335 146.243" fill="#0066CC"/>
	</g>
</svg>
