<?xml version="1.0"?>
<!DOCTYPE svg PUBLIC "-//W3C//DTD SVG 1.1//EN" "http://www.w3.org/Graphics/SVG/1.1/DTD/svg11.dtd">
<svg version='1.1' width='35px' height='47px' xmlns='http://www.w3.org/2000/svg' xmlns:xlink='http://www.w3.org/1999/xlink'>
	<g transform="translate(-134.05,-124.55)">
		<path d="M 167.175 133.2 L 167.15 133.175 Q 168.488 136.19 168.5 140.475 L 168.5 168.825 Q 168.487 169.603 167.9 170.15 Q 167.331 170.715 166.525 170.725 L 159.35 170.725 Q 158.544 170.715 157.975 170.15 Q 157.401 169.603 157.4 168.825 L 157.4 139.775 Q 157.395 139.659 157.375 139.55 Q 157.294 138.126 156.875 137.15 Q 156.863 137.125 156.85 137.1 Q 156.33 136.122 155.45 135.575 Q 154.385 134.966 152.825 134.775 L 152.775 134.75 Q 150.973 134.466 149.05 134.475 Q 146.7 134.478 143.625 135.175 Q 143.598 135.187 143.575 135.2 Q 140.356 135.85 137.2 137.1 Q 136.835 137.246 136.45 137.25 L 136 137.25 Q 135.194 137.24 134.625 136.675 Q 134.051 136.128 134.05 135.35 L 134.05 128.325 Q 134.041 127.702 134.425 127.2 Q 134.822 126.685 135.45 126.5 Q 137.538 125.914 141.375 125.2 Q 145.213 124.544 149.05 124.55 Q 153.651 124.537 156.875 125.2 L 156.95 125.225 Q 160.332 126.015 163.05 127.95 L 163.075 127.95 Q 165.862 129.973 167.175 133.2 Z" fill="#0066CC"/>
	</g>
</svg>
