<?xml version="1.0"?>
<!DOCTYPE svg PUBLIC "-//W3C//DTD SVG 1.1//EN" "http://www.w3.org/Graphics/SVG/1.1/DTD/svg11.dtd">
<svg version='1.1' width='11px' height='62px' xmlns='http://www.w3.org/2000/svg' xmlns:xlink='http://www.w3.org/1999/xlink'>
	<g transform="translate(-84.2515,-110.314)">
		<path d="M 84.2515 113.153 Q 84.2515 112.357 84.7529 111.831 Q 85.2544 111.2 86.0294 111.116 Q 89.275 110.732 92.5971 110.331 Q 93.3353 110.234 93.8912 110.684 Q 94.1691 110.872 94.3103 111.151 Q 94.4059 111.381 94.4147 111.706 Q 94.4632 113.076 94.6397 114.588 Q 95.1206 117.91 95.0721 122.168 Q 95.0191 127.701 94.9971 133.001 Q 94.9926 134.074 94.9882 135.141 Q 94.9882 135.241 94.9882 135.337 Q 94.9838 138.779 94.9882 142.187 L 94.9971 142.278 Q 94.9926 142.787 94.9926 143.296 L 94.9971 143.382 Q 94.9971 145.068 94.9971 146.749 L 94.9926 146.84 Q 94.9794 155.424 94.9882 163.884 Q 94.9882 164.038 94.9882 164.193 Q 94.9926 166.876 95.0059 169.529 Q 95.0103 170.325 94.5132 170.893 Q 93.9706 171.465 93.2456 171.531 Q 91.8412 171.703 90.4868 171.862 Q 88.6397 172.104 86.7662 172.299 Q 85.9912 172.378 85.4853 171.947 Q 84.975 171.538 84.9574 170.888 Q 84.8868 168.847 84.6706 166.506 Q 84.2824 163.219 84.2735 159.09 Q 84.2691 151.297 84.2779 142.675 Q 84.2779 142.521 84.2779 142.366 Q 84.2824 133.66 84.2912 124.765 Q 84.2735 124.587 84.2603 124.409 L 84.2559 116.75 Q 84.2515 115.424 84.2515 114.093 Q 84.2515 113.625 84.2515 113.162 L 84.2515 113.153" fill="#0066CC"/>
	</g>
</svg>
