<?xml version="1.0"?>
<!DOCTYPE svg PUBLIC "-//W3C//DTD SVG 1.1//EN" "http://www.w3.org/Graphics/SVG/1.1/DTD/svg11.dtd">
<svg version='1.1' width='22px' height='64px' xmlns='http://www.w3.org/2000/svg' xmlns:xlink='http://www.w3.org/1999/xlink'>
	<g transform="translate(-151.137,-114.5)">
		<path d="M 151.137 116.937 Q 151.137 116.604 151.204 116.337 Q 151.37 116.07 151.602 115.885 Q 151.635 115.835 151.685 115.785 Q 152 115.452 152.433 115.22 Q 152.583 115.137 152.733 115.087 Q 152.983 114.972 153.25 114.872 Q 153.65 114.707 154.067 114.639 Q 154.5 114.539 154.917 114.504 Q 155.317 114.502 155.685 114.5 Q 156.996 114.659 157.952 115.159 Q 158.187 115.304 158.389 115.45 Q 158.826 115.741 159.23 116.065 Q 161.191 117.93 162.974 120.05 Q 164.335 121.615 165.459 123.283 Q 166.261 124.443 166.943 125.657 Q 166.943 125.689 166.961 125.739 Q 167.748 127.02 168.483 128.404 Q 169.2 129.772 169.833 131.276 Q 169.833 131.309 169.85 131.341 Q 170.124 131.937 170.363 132.6 Q 170.998 134.357 171.474 136.285 Q 171.459 136.352 171.509 136.437 Q 171.526 136.537 171.543 136.67 Q 171.663 137.217 171.765 137.765 L 171.748 137.765 Q 172.38 141.32 172.543 145.326 L 172.609 147.674 Q 172.609 147.874 172.641 148.074 Q 172.739 151.022 172.837 154.002 Q 172.902 155.635 172.935 157.267 Q 172.935 157.567 172.967 157.867 Q 173.098 164.315 173.033 170.893 Q 173.033 172.026 172.935 173.191 Q 172.837 173.907 172.739 174.622 Q 172.674 175.022 172.572 175.437 Q 172.454 175.802 172.302 176.15 Q 171.965 176.78 171.574 177.304 Q 171.524 177.337 171.441 177.37 Q 170.909 177.533 170.376 177.728 Q 169.443 178.022 168.413 178.12 Q 167.58 178.217 166.78 178.022 Q 165.283 177.663 164.307 177.011 Q 164.307 177.011 164.307 177.011 Q 163.904 176.667 163.667 176.272 Q 163.58 176.122 163.511 175.954 Q 163.302 175.372 163.302 174.72 Q 163.335 172.904 163.367 171.139 Q 163.367 170.757 163.367 170.407 Q 163.465 167.941 163.53 165.509 Q 163.563 163.111 163.596 160.713 Q 163.596 159.248 163.628 157.783 Q 163.628 156.75 163.628 155.783 Q 163.628 150.302 163.4 144.822 Q 163.4 144.672 163.4 144.539 Q 163.3 143.237 163.096 142.074 Q 163.078 142.041 163.078 141.991 Q 162.839 140.893 162.461 139.97 Q 161.998 138.83 161.361 137.865 Q 161.343 137.848 161.343 137.848 Q 160.537 136.472 159.68 135.25 Q 158.893 133.848 157.935 132.567 Q 157.526 132.065 157.117 131.613 Q 157.1 131.58 157.1 131.548 Q 156.315 130.543 155.515 129.591 Q 154.648 128.526 153.798 127.546 Q 153.611 127.337 153.407 127.076 Q 153.304 126.946 153.185 126.815 Q 152.809 126.391 152.52 125.809 Q 152.213 125.063 152.05 124.263 Q 151.985 123.83 151.92 123.398 Q 151.691 121.715 151.43 120.098 Q 151.3 118.583 151.137 117.067 L 151.137 116.937" fill="#0066CC"/>
	</g>
</svg>
