<?xml version="1.0"?>
<!DOCTYPE svg PUBLIC "-//W3C//DTD SVG 1.1//EN" "http://www.w3.org/Graphics/SVG/1.1/DTD/svg11.dtd">
<svg version='1.1' width='14px' height='65px' xmlns='http://www.w3.org/2000/svg' xmlns:xlink='http://www.w3.org/1999/xlink'>
	<g transform="translate(-163.214,-113.627)">
		<path d="M 163.214 116.614 Q 163.214 116.264 163.255 115.995 Q 163.459 115.677 163.705 115.441 Q 164 115.082 164.377 114.805 Q 164.705 114.527 165.032 114.332 Q 165.368 114.095 165.705 113.982 Q 165.868 113.877 166.032 113.823 Q 166.236 113.736 166.4 113.691 Q 166.727 113.659 167.014 113.627 Q 168.218 113.677 168.891 114.177 Q 169.268 114.545 169.655 114.964 Q 169.695 115.018 169.736 115.073 Q 170.845 116.968 171.745 118.995 Q 172.382 120.409 172.923 121.891 Q 173.573 123.959 174.164 126.073 Q 174.214 126.159 174.273 126.245 Q 174.4 126.65 174.545 127.064 Q 174.827 127.936 175.177 128.909 Q 175.273 129.218 175.377 129.536 Q 175.455 129.7 175.532 129.864 Q 175.559 129.986 175.595 130.159 Q 175.691 130.405 175.795 130.686 Q 175.795 130.727 175.805 130.768 Q 175.909 131.082 176.014 131.414 Q 176.118 131.745 176.232 132.095 Q 176.277 132.377 176.364 132.677 Q 176.414 132.977 176.464 133.286 Q 176.455 133.514 176.455 133.741 Q 176.414 133.8 176.455 133.859 Q 176.455 133.959 176.455 134.1 Q 176.518 135.318 176.582 136.536 Q 176.618 138.214 176.664 139.9 Q 176.705 142.745 176.745 145.591 Q 176.736 145.8 176.768 146.009 Q 176.773 147.527 176.777 149.045 Q 176.814 150.573 176.868 152.15 Q 176.882 153.268 176.895 154.386 Q 176.927 154.945 176.918 155.505 Q 176.918 155.814 176.959 156.123 Q 177.023 162.759 176.923 169.559 Q 176.923 170.727 176.8 171.936 Q 176.595 173.105 176.432 174.314 Q 176.145 175.432 175.9 176.591 Q 175.409 176.955 174.877 177.359 Q 174.109 177.918 173.218 178.223 Q 172.532 178.518 171.886 178.445 Q 171.395 178.382 171.036 178.277 Q 170.391 178.082 170.041 177.723 Q 169.959 177.627 169.877 177.532 Q 169.714 177.318 169.632 177.105 Q 169.65 176.391 169.668 175.677 Q 169.727 174.773 169.786 173.909 Q 169.786 173.664 169.795 173.459 Q 169.845 173.055 169.895 172.65 Q 170.005 171.5 170.082 170.391 Q 170.091 169.986 170.1 169.591 Q 170.1 169.409 170.109 169.245 Q 170.168 168.309 170.227 167.373 Q 170.245 166.691 170.305 166.018 Q 170.286 165.764 170.259 165.509 Q 170.25 165.414 170.232 165.318 Q 170.159 164.718 170.041 164.173 Q 169.968 163.818 169.886 163.455 Q 169.759 162.995 169.623 162.445 Q 169.45 161.682 169.295 160.873 Q 169.186 160.359 169.095 159.855 Q 168.991 158.736 168.886 157.618 Q 168.8 156.4 168.673 155.191 Q 168.555 153.973 168.464 152.755 Q 167.923 145.895 167.077 139.105 Q 167.036 138.845 166.995 138.586 Q 166.955 138.045 166.873 137.505 Q 166.659 136.227 166.414 134.968 Q 166.168 133.6 165.923 132.273 Q 165.595 130.495 165.259 128.759 Q 165.218 128.6 165.177 128.441 Q 164.686 125.855 164.195 123.35 Q 163.909 121.623 163.582 119.977 Q 163.418 118.45 163.214 116.923 Q 163.214 116.782 163.214 116.641 L 163.214 116.614" fill="#0066CC"/>
	</g>
</svg>
