<?xml version="1.0"?>
<!DOCTYPE svg PUBLIC "-//W3C//DTD SVG 1.1//EN" "http://www.w3.org/Graphics/SVG/1.1/DTD/svg11.dtd">
<svg version='1.1' width='12px' height='47px' xmlns='http://www.w3.org/2000/svg' xmlns:xlink='http://www.w3.org/1999/xlink'>
	<g transform="translate(-182.51,-124.599)">
		<path d="M 182.51 128.48 Q 182.57 127.7 182.93 127.07 Q 183.08 126.8 183.28 126.59 Q 183.53 126.38 183.8 126.26 Q 183.8 126.24 183.8 126.22 Q 184.28 125.88 184.88 125.56 Q 185.49 125.24 186.2 124.94 Q 186.25 124.94 186.3 124.92 Q 187.48 124.66 188.7 124.6 Q 189.4 124.6 190.1 124.6 Q 190.82 124.58 191.39 124.91 Q 191.54 125 191.66 125.09 Q 192.13 125.38 192.39 125.78 Q 192.49 125.95 192.59 126.12 L 192.65 126.24 Q 192.71 126.35 192.77 126.46 Q 192.81 126.54 192.85 126.64 Q 192.89 126.74 192.93 126.84 Q 193.19 127.71 193.31 128.71 Q 193.31 128.91 193.33 129.11 Q 193.33 129.26 193.35 129.41 Q 193.39 130.18 193.45 130.95 Q 193.51 132.15 193.55 133.37 Q 193.59 134.79 193.61 136.19 L 193.61 167.03 Q 193.61 167.75 193.25 168.32 Q 193.1 168.64 192.89 168.87 Q 192.64 169.11 192.38 169.29 Q 191.98 169.51 191.6 169.75 Q 190.62 170.41 189.16 170.69 Q 188.83 170.75 188.5 170.81 Q 187.9 170.93 187.3 171.03 Q 186.75 171.11 186.2 171.13 Q 185.46 171.17 184.85 170.8 Q 184.36 170.52 184.08 170.14 Q 183.97 170 183.89 169.81 Q 183.45 169.02 183.11 168.11 Q 182.93 167.68 182.79 167.23 Q 182.63 166.63 182.51 166.01 L 182.51 128.56 L 182.51 128.48" fill="#0066CC"/>
	</g>
</svg>
