<?xml version="1.0"?>
<!DOCTYPE svg PUBLIC "-//W3C//DTD SVG 1.1//EN" "http://www.w3.org/Graphics/SVG/1.1/DTD/svg11.dtd">
<svg version='1.1' width='21px' height='83px' xmlns='http://www.w3.org/2000/svg' xmlns:xlink='http://www.w3.org/1999/xlink'>
	<g transform="translate(-203.945,-106.156)">
		<path d="M 204.159 126.077 Q 205.564 121.755 208.9 119.109 Q 212.918 115.782 215.332 112.545 Q 215.355 112.491 215.377 112.436 Q 215.377 110.664 215.7 109.241 Q 215.755 109.059 215.809 108.877 Q 216.232 107.595 217.282 106.932 Q 218.582 106.077 220.85 106.164 Q 222.405 106.236 223.005 107.186 Q 223.027 107.214 223.05 107.241 Q 223.359 107.868 223.736 108.541 Q 224.723 109.695 224.6 111.305 Q 224.464 113.591 224.109 119.059 Q 223.595 128.614 223.914 141.268 Q 223.914 141.673 223.914 142.077 Q 224.214 156.059 224.541 167.795 Q 224.736 174.323 224.455 179.282 Q 224.368 180.336 224.182 181.255 Q 223.459 184.395 221.814 186.255 Q 220.036 189.205 216.991 187.891 Q 216.214 187.014 215.145 184.886 Q 215.595 180.473 215.691 172.591 Q 215.7 168.936 215.7 164.541 Q 215.705 157.964 215.591 149.759 Q 215.591 149.609 215.591 149.436 Q 215.486 143.705 215.3 137.559 Q 215.25 136.727 215.177 135.918 Q 215.132 135.414 215.014 134.932 Q 214.923 134.605 214.809 134.323 Q 214.6 133.818 214.345 133.382 Q 213.864 132.5 213.382 131.709 Q 213.245 131.473 213.109 131.236 Q 212.577 130.336 212.045 129.432 Q 209.791 130.9 207.723 130.405 Q 207.345 130.305 206.995 130.205 Q 206.086 129.9 205.395 129.541 Q 204.541 129.073 204.218 128.373 Q 203.845 127.582 203.982 126.659 Q 204.045 126.405 204.159 126.123 L 204.159 126.077" fill="#0066CC"/>
	</g>
</svg>
