<?xml version="1.0"?>
<!DOCTYPE svg PUBLIC "-//W3C//DTD SVG 1.1//EN" "http://www.w3.org/Graphics/SVG/1.1/DTD/svg11.dtd">
<svg version='1.1' width='15px' height='46px' xmlns='http://www.w3.org/2000/svg' xmlns:xlink='http://www.w3.org/1999/xlink'>
	<g transform="translate(-48.4824,-136.376)">
		<path d="M 48.4824 138.435 L 48.5824 138.465 Q 48.7765 138.288 48.9706 138.112 Q 48.9706 138.112 49 138.082 Q 51.2353 137.2 53.5294 136.376 Q 53.5794 136.376 53.6882 136.465 Q 54.0529 136.612 54.5647 136.935 Q 55.5971 137.406 56.8647 138.288 Q 57.8647 141.888 59.5706 146.615 Q 63.3059 157.968 63.3059 169.732 Q 63.3059 174.444 63.0118 178.126 Q 62.9324 178.75 62.6471 179.241 Q 62.3412 179.791 61.9441 180.056 Q 60.7559 181.262 59.3029 181.644 Q 57.8676 182.144 56.6088 181.085 Q 56.1618 180.85 55.8176 180.3 Q 55.4529 179.75 55.3353 179.009 Q 55.0706 177 54.8647 174.5 Q 54.1294 164.609 52.3941 155.482 Q 50.7765 147.429 48.8353 139.729 Q 48.6882 139.238 48.5412 138.747 Q 48.5118 138.597 48.4824 138.476 L 48.4824 138.435" fill="#0066CC"/>
	</g>
</svg>
