<?xml version="1.0"?>
<!DOCTYPE svg PUBLIC "-//W3C//DTD SVG 1.1//EN" "http://www.w3.org/Graphics/SVG/1.1/DTD/svg11.dtd">
<svg version='1.1' width='13px' height='49px' xmlns='http://www.w3.org/2000/svg' xmlns:xlink='http://www.w3.org/1999/xlink'>
	<g transform="translate(-47.7765,-125.435)">
		<path d="M 47.7765 125.847 L 47.8765 125.853 Q 48.2353 125.818 48.5941 125.782 Q 48.5941 125.782 48.6 125.776 Q 51.4471 125.6 54.3059 125.435 Q 54.3559 125.435 54.4176 125.453 Q 54.9706 125.482 55.5529 125.547 Q 57.0794 125.641 58.6529 125.818 Q 58.8529 130.618 59.1941 135.603 Q 59.9412 148.674 59.9412 161.826 Q 59.9412 166.609 59.8824 171.185 Q 59.8265 171.95 59.3294 172.488 Q 58.7882 173.038 58.1088 173.091 Q 56.1912 173.332 54.2206 173.409 Q 52.5735 173.509 50.9618 173.297 Q 50.2324 173.25 49.7235 172.7 Q 49.1706 172.15 49.1471 171.362 Q 49.0941 169 49.0529 166.5 Q 48.9059 155.762 48.5588 145.176 Q 48.2353 136.206 47.8471 127.306 Q 47.8176 126.768 47.7882 126.229 Q 47.7824 126.079 47.7765 125.935 L 47.7765 125.847" fill="#0066CC"/>
	</g>
</svg>
