<?xml version="1.0"?>
<!DOCTYPE svg PUBLIC "-//W3C//DTD SVG 1.1//EN" "http://www.w3.org/Graphics/SVG/1.1/DTD/svg11.dtd">
<svg version='1.1' width='39px' height='35px' xmlns='http://www.w3.org/2000/svg' xmlns:xlink='http://www.w3.org/1999/xlink'>
	<g transform="translate(-129.743,-137.809)">
		<path d="M 129.753 156.024 Q 129.662 152.988 130.438 150.426 Q 130.926 148.715 131.832 147.253 Q 131.838 147.203 131.888 147.197 Q 132.45 146.165 133.224 145.238 Q 134.309 144.021 135.7 142.965 Q 137.103 141.879 138.862 141.029 Q 138.862 141.029 138.906 141.029 Q 138.906 141.029 138.906 141.029 Q 139.479 140.744 140.097 140.465 Q 141.106 140 142.215 139.641 Q 145.097 138.626 148.479 138.288 Q 148.435 138.332 148.435 138.332 Q 150.459 138.088 152.597 137.953 Q 155.044 137.774 157.588 137.818 Q 157.644 137.824 157.7 137.829 Q 157.724 137.929 157.747 138.074 Q 158.121 138.109 158.444 138.232 Q 158.588 138.194 158.776 138.2 Q 158.994 138.179 159.206 138.159 Q 159.624 138.244 159.997 138.329 Q 160.315 138.321 160.671 138.318 Q 162.676 138.556 164.006 139.647 Q 164.012 139.647 164.018 139.659 Q 165.447 140.9 166.056 143.015 Q 166.112 143.226 166.212 143.482 Q 166.832 144.041 167.176 144.826 Q 167.226 144.982 167.276 145.144 Q 167.326 145.244 167.376 145.344 Q 167.582 146.109 167.556 147.05 Q 167.529 147.841 167.535 148.626 Q 167.535 148.671 167.535 148.721 Q 167.535 148.826 167.541 148.932 Q 167.541 149.038 167.541 149.144 Q 167.553 149.226 167.571 149.315 Q 167.647 149.7 167.712 150.109 Q 167.718 150.191 167.724 150.285 Q 167.724 150.329 167.729 150.374 Q 167.771 150.594 167.806 150.821 Q 167.818 150.915 167.829 151.003 Q 167.888 151.294 167.953 151.615 Q 167.988 151.818 168.029 152.032 Q 168.035 152.076 168.035 152.121 Q 168.035 152.479 168.079 152.844 Q 168.168 155.05 167.809 157.079 Q 167.809 157.079 167.803 157.079 Q 167.638 157.488 167.491 157.885 Q 167.474 157.974 167.462 158.068 Q 167.388 158.156 167.321 158.244 Q 167.271 158.332 167.226 158.421 Q 167.215 158.459 167.203 158.503 Q 167.079 158.685 166.962 158.862 Q 166.906 158.9 166.856 158.944 Q 166.85 158.944 166.844 158.95 Q 166.788 158.994 166.738 159.038 Q 166.732 159.082 166.726 159.126 Q 166.726 159.132 166.726 159.132 Q 166.488 159.724 166.162 160.271 Q 165.885 160.65 165.559 161.029 Q 164.794 161.859 164.044 162.721 Q 163.844 162.95 163.644 163.174 Q 163.288 163.659 162.926 164.1 Q 161.921 165.244 160.703 166.15 Q 160.653 166.2 160.597 166.25 Q 160.509 166.25 160.509 166.25 Q 160.059 166.662 159.609 167.029 Q 158.941 167.571 158.312 167.929 Q 158.306 167.979 158.3 168.029 Q 157.024 168.929 155.844 169.612 Q 155.8 169.618 155.8 169.624 Q 155.794 169.624 155.788 169.624 Q 155.688 169.674 155.594 169.724 Q 153.497 170.738 151.585 171.335 Q 150.279 171.732 148.465 171.862 Q 147.226 171.985 145.768 171.985 Q 144.541 171.985 143.359 171.824 Q 141.709 171.6 140.121 171.026 Q 139.859 170.921 139.597 170.815 Q 138.215 170.279 136.988 169.494 Q 135.674 168.665 134.521 167.568 Q 134.521 167.568 134.521 167.568 Q 133.332 166.403 132.412 164.915 Q 132.362 164.859 132.318 164.809 Q 131.621 163.75 131.074 162.509 Q 131.074 162.509 131.074 162.509 Q 131.012 162.347 130.95 162.185 Q 130.894 162.135 130.894 162.085 Q 130.888 162.079 130.888 162.074 Q 130.365 160.679 130.091 159.247 Q 130.085 159.241 130.091 159.235 Q 129.756 157.797 129.759 156.271 Q 129.759 156.265 129.759 156.259 Q 129.753 156.147 129.753 156.035 L 129.753 156.024" fill="#0066CC"/>
		<path d="M 140.762 154.956 Q 140.785 154.274 140.926 153.635 Q 141.297 152.506 141.297 152.5 Q 141.644 151.635 142.224 151.009 Q 142.379 150.885 142.535 150.768 Q 142.697 150.582 142.871 150.409 Q 144.368 149.056 146.603 148.374 Q 148.235 147.924 150.347 147.624 Q 151.832 147.418 153.441 147.444 Q 153.759 147.474 154.032 147.509 Q 154.915 147.532 155.741 147.606 Q 156.282 147.638 156.806 147.682 Q 157.335 147.732 157.709 147.788 Q 157.871 147.791 158.026 147.838 Q 158.438 147.994 158.871 148.176 Q 158.912 148.724 158.935 149.282 Q 158.976 150.144 159.041 151.006 Q 159.053 151.224 159.065 151.441 Q 159.065 151.441 159.071 151.447 Q 159.071 151.497 159.076 151.547 Q 159.082 151.653 159.094 151.765 Q 159.094 151.815 159.1 151.865 Q 159.124 152.038 159.165 152.218 Q 159.165 152.218 159.171 152.224 Q 159.176 152.274 159.188 152.324 Q 159.176 152.424 159.171 152.524 Q 159.165 152.568 159.165 152.618 Q 159.147 152.847 159.141 153.076 Q 159.124 153.362 159.112 153.653 Q 159.106 153.697 159.106 153.747 Q 159.094 153.841 159.094 153.947 Q 159.088 154.059 159.082 154.176 Q 159.044 155.009 158.924 155.797 Q 158.9 156.015 158.826 156.226 Q 158.821 156.276 158.815 156.332 Q 158.779 156.459 158.738 156.585 Q 158.732 156.591 158.726 156.597 Q 158.003 157.253 157.874 158.118 L 157.829 158.168 Q 157.818 158.124 157.812 158.091 Q 157.776 157.956 157.741 157.815 Q 157.1 158.379 156.524 158.794 Q 155.271 159.706 153.938 160.476 Q 153.45 160.712 152.962 160.924 Q 153 160.924 152.994 160.924 Q 151.779 161.479 150.497 161.709 Q 148.812 161.971 147.059 161.788 Q 146.835 161.765 146.612 161.735 Q 146.606 161.729 146.594 161.729 Q 145.979 161.647 145.438 161.497 Q 145.388 161.485 145.338 161.479 Q 143.241 160.903 142.059 159.626 Q 142.103 159.621 142.103 159.615 Q 141.897 159.356 141.703 159.047 Q 141.359 158.503 141.165 157.909 Q 140.771 156.659 140.762 155.138 Q 140.762 155.132 140.762 155.132 L 140.762 154.956" fill="#0066CC"/>
	</g>
</svg>
