<?xml version="1.0"?>
<!DOCTYPE svg PUBLIC "-//W3C//DTD SVG 1.1//EN" "http://www.w3.org/Graphics/SVG/1.1/DTD/svg11.dtd">
<svg version='1.1' width='27px' height='47px' xmlns='http://www.w3.org/2000/svg' xmlns:xlink='http://www.w3.org/1999/xlink'>
	<g transform="translate(-233.297,-125.337)">
		<path d="M 233.297 139.313 Q 233.307 137.77 233.307 136.4 Q 233.303 135.733 233.32 135.083 Q 233.4 132.667 233.613 130.417 Q 233.62 130.323 233.627 130.23 Q 233.683 129.49 233.737 128.75 Q 235.51 127.69 237.277 126.947 Q 237.233 126.947 237.237 126.947 Q 240.83 125.373 244.72 125.35 Q 245.073 125.347 245.427 125.343 Q 245.473 125.343 245.477 125.343 Q 245.773 125.34 246.073 125.337 Q 248.76 125.507 250.993 126.337 Q 250.993 126.337 250.997 126.337 Q 251.753 126.627 252.47 127.023 Q 252.517 127.023 252.567 127.023 Q 252.567 127.023 252.567 127.023 Q 253.07 127.26 253.523 127.56 Q 253.52 127.557 253.52 127.557 Q 255 128.54 256.217 129.963 Q 257.043 130.923 257.703 132.143 Q 257.703 132.143 257.703 132.147 Q 259.15 134.943 259.693 138.7 Q 259.693 138.7 259.693 138.75 Q 259.89 140.06 259.933 141.467 Q 259.933 141.617 259.93 141.767 Q 259.977 142.36 259.98 142.953 Q 259.987 144.61 259.993 146.267 Q 260.003 149.68 260.007 153.083 Q 260.01 153.283 260.01 153.487 Q 260.003 154.58 260.01 155.687 L 260.01 155.737 Q 260.03 160.433 260.01 165.077 Q 260.017 167.53 259.993 169.88 Q 259.983 170.673 259.453 171.217 Q 259.013 171.627 258.473 171.727 Q 258.28 171.777 258.083 171.78 Q 257.69 171.783 257.337 171.783 Q 256.733 171.78 256.127 171.79 Q 254.817 171.797 253.46 171.677 Q 252.26 171.637 251.06 171.507 Q 250.253 171.463 249.727 170.897 Q 249.203 170.33 249.19 169.52 Q 249.143 165.163 249.093 160.653 L 249.093 160.65 Q 249.087 159.583 249.083 158.533 Q 249.03 154.93 248.997 151.3 Q 248.973 148.543 248.953 145.78 Q 248.95 145.523 248.947 145.267 Q 248.933 144.413 248.897 143.57 Q 248.897 143.47 248.9 143.373 Q 248.85 142.873 248.81 142.423 Q 248.723 141.91 248.637 141.427 Q 248.623 141.14 248.553 140.853 Q 248.553 140.807 248.553 140.807 Q 248.413 140.14 248.257 139.57 Q 247.98 138.49 247.493 137.74 Q 247.493 137.74 247.493 137.693 Q 246.87 136.757 245.85 136.383 Q 245.8 136.337 245.75 136.337 Q 244.483 135.773 242.437 135.77 Q 241.88 135.77 241.323 135.817 Q 239.6 136.05 237.773 136.877 Q 235.303 137.867 233.297 139.327 L 233.297 139.313" fill="#0066CC"/>
	</g>
</svg>
