<?xml version="1.0"?>
<!DOCTYPE svg PUBLIC "-//W3C//DTD SVG 1.1//EN" "http://www.w3.org/Graphics/SVG/1.1/DTD/svg11.dtd">
<svg version='1.1' width='10px' height='69px' xmlns='http://www.w3.org/2000/svg' xmlns:xlink='http://www.w3.org/1999/xlink'>
	<g transform="translate(-81.5926,-110.994)">
		<path d="M 81.5926 120.635 Q 81.5926 119.863 81.8353 119.196 Q 82.0779 118.4 82.4529 117.869 Q 84.075 115.438 85.9147 112.896 Q 86.3235 112.281 86.6441 111.931 Q 86.8044 111.79 86.8985 111.693 Q 86.9706 111.546 87.0265 111.471 Q 87.3338 110.818 88.4515 111.059 Q 91.4971 111.299 91.1897 117.462 Q 90.8544 124.243 90.7147 129.543 Q 90.6868 130.732 90.6588 131.894 Q 90.6588 131.994 90.6588 132.066 Q 90.6309 136.003 90.6588 139.716 L 90.7147 139.76 Q 90.6868 140.316 90.6868 140.872 L 90.7147 140.888 Q 90.7147 142.762 90.7147 144.607 L 90.6868 144.651 Q 90.6029 154.482 90.6588 163.531 Q 90.6588 163.709 90.6588 163.887 Q 90.6868 167.018 90.7706 169.953 Q 90.7985 170.725 90.5838 171.387 Q 90.3471 172.076 90.0221 172.496 Q 89.3941 173.585 88.8162 174.591 Q 88.0515 176.128 87.1191 177.357 Q 86.7441 177.86 86.4735 178.065 Q 86.175 178.409 86.0632 178.559 Q 85.6162 179.765 84.2471 179.071 Q 81.7882 178.254 81.7324 172.101 Q 81.7044 165.415 81.7603 153.475 Q 81.7603 153.297 81.7603 153.119 Q 81.7882 143.849 81.8441 133.376 Q 81.7324 133.316 81.6485 133.256 L 81.6206 124.75 Q 81.5926 123.282 81.5926 121.787 Q 81.5926 121.225 81.5926 120.691 L 81.5926 120.635" fill="#0066CC"/>
	</g>
</svg>
