<?xml version="1.0"?>
<!DOCTYPE svg PUBLIC "-//W3C//DTD SVG 1.1//EN" "http://www.w3.org/Graphics/SVG/1.1/DTD/svg11.dtd">
<svg version='1.1' width='13px' height='56px' xmlns='http://www.w3.org/2000/svg' xmlns:xlink='http://www.w3.org/1999/xlink'>
	<g transform="translate(-169.141,-119.591)">
		<path d="M 169.141 128.141 Q 169.141 127.791 169.164 127.486 Q 169.277 127.132 169.414 126.823 Q 169.6 126.445 169.832 126.114 Q 170.014 125.782 170.195 125.495 Q 170.405 125.186 170.614 124.945 Q 170.705 124.732 170.795 124.568 Q 170.909 124.409 171 124.273 Q 171.182 124.077 171.341 123.882 Q 172.055 123.332 172.473 123.032 Q 172.705 122.836 172.964 122.691 Q 172.986 122.655 173.009 122.618 Q 173.736 122.005 174.436 121.486 Q 174.945 121.027 175.468 120.673 Q 176.118 120.177 176.891 119.818 Q 176.941 119.777 177.018 119.736 Q 177.2 119.65 177.436 119.591 Q 177.882 119.609 178.632 119.927 Q 178.818 120.055 179.032 120.209 Q 179.164 120.3 179.295 120.391 Q 179.377 120.459 179.486 120.577 Q 179.673 120.714 179.886 120.959 Q 179.886 120.982 179.914 121.005 Q 180.127 121.245 180.341 121.541 Q 180.555 121.836 180.795 122.186 Q 180.932 122.432 181.091 122.732 Q 181.141 123.032 181.191 123.359 Q 181.164 123.641 181.164 123.923 Q 181.141 124 181.164 124.077 Q 181.164 124.177 181.164 124.3 Q 181.155 125.555 181.145 126.809 Q 181.055 128.541 180.991 130.3 Q 180.814 133.236 180.636 136.173 Q 180.609 136.4 180.605 136.627 Q 180.518 138.182 180.432 139.736 Q 180.341 141.318 180.305 142.95 Q 180.245 144.105 180.186 145.259 Q 180.182 145.836 180.155 146.414 Q 180.155 146.741 180.177 147.068 Q 179.968 153.977 179.868 160.977 Q 179.868 162.182 179.8 163.409 Q 179.686 164.614 179.595 165.841 Q 179.436 166.995 179.3 168.173 Q 179.027 168.664 178.732 169.177 Q 178.327 169.955 177.855 170.568 Q 177.495 171.155 177.159 171.536 Q 176.886 171.745 176.709 171.932 Q 176.373 172.245 176.223 172.468 Q 176.177 172.482 176.132 172.495 Q 176.041 172.555 175.995 172.614 Q 176.05 172.773 176.105 172.932 Q 176.182 173.118 176.259 173.327 Q 176.259 173.391 176.286 173.477 Q 176.336 173.564 176.386 173.65 Q 176.514 173.9 176.645 174.173 Q 176.673 174.259 176.7 174.373 Q 176.7 174.427 176.727 174.536 Q 176.805 174.727 176.882 174.918 Q 176.936 175.073 177.014 175.255 Q 176.959 175.291 176.877 175.327 Q 176.85 175.341 176.795 175.355 Q 176.577 175.355 176.223 175.318 Q 176.005 175.255 175.759 175.164 Q 175.377 175.086 174.968 174.736 Q 174.45 174.245 173.986 173.618 Q 173.659 173.177 173.386 172.764 Q 173.173 171.609 172.959 170.455 Q 172.8 169.2 172.618 167.973 Q 172.464 166.718 172.391 165.464 Q 171.868 158.386 171.332 151.414 Q 171.309 151.136 171.286 150.859 Q 171.264 150.336 171.218 149.814 Q 171.077 148.482 170.941 147.205 Q 170.805 145.8 170.668 144.418 Q 170.486 142.586 170.277 140.777 Q 170.255 140.6 170.232 140.423 Q 169.959 137.764 169.686 135.15 Q 169.527 133.368 169.345 131.632 Q 169.255 130.05 169.141 128.468 Q 169.141 128.345 169.141 128.223 L 169.141 128.141" fill="#0066CC"/>
	</g>
</svg>
