<?xml version="1.0"?>
<!DOCTYPE svg PUBLIC "-//W3C//DTD SVG 1.1//EN" "http://www.w3.org/Graphics/SVG/1.1/DTD/svg11.dtd">
<svg version='1.1' width='11px' height='65px' xmlns='http://www.w3.org/2000/svg' xmlns:xlink='http://www.w3.org/1999/xlink'>
	<g transform="translate(-82.5897,-111.458)">
		<path d="M 82.5897 117.829 Q 82.5897 117.049 82.9294 116.434 Q 83.2691 115.7 83.7941 115.337 Q 86.025 113.674 88.4206 111.934 Q 88.9529 111.513 89.3618 111.463 Q 89.5662 111.446 89.6779 111.49 Q 89.7588 111.484 89.7971 111.559 Q 90.0074 111.665 90.7721 112.382 Q 92.8559 113.778 92.6456 119.226 Q 92.4162 125.54 92.3206 130.84 Q 92.3015 131.985 92.2824 133.112 Q 92.2824 133.212 92.2824 133.293 Q 92.2632 137.044 92.2824 140.643 L 92.3206 140.704 Q 92.3015 141.243 92.3015 141.781 L 92.3206 141.824 Q 92.3206 143.626 92.3206 145.41 L 92.3015 145.472 Q 92.2441 154.835 92.2824 163.663 Q 92.2824 163.832 92.2824 164.001 Q 92.3015 166.965 92.3588 169.794 Q 92.3779 170.575 92.0574 171.201 Q 91.7059 171.847 91.2309 172.134 Q 90.3118 172.879 89.4426 173.568 Q 88.2721 174.619 86.9868 175.46 Q 86.4618 175.804 86.1029 175.771 Q 85.725 175.832 85.6485 175.682 Q 85.3426 175.671 84.4059 174.359 Q 82.7235 172.616 82.6853 167.222 Q 82.6662 160.121 82.7044 149.425 Q 82.7044 149.256 82.7044 149.087 Q 82.7235 140.028 82.7618 130.147 Q 82.6853 130.043 82.6279 129.938 L 82.6088 121.75 Q 82.5897 120.335 82.5897 118.901 Q 82.5897 118.375 82.5897 117.868 L 82.5897 117.829" fill="#0066CC"/>
	</g>
</svg>
