<?xml version="1.0"?>
<!DOCTYPE svg PUBLIC "-//W3C//DTD SVG 1.1//EN" "http://www.w3.org/Graphics/SVG/1.1/DTD/svg11.dtd">
<svg version='1.1' width='22px' height='65px' xmlns='http://www.w3.org/2000/svg' xmlns:xlink='http://www.w3.org/1999/xlink'>
	<g transform="translate(-152.276,-113.741)">
		<path d="M 152.276 116.176 Q 152.276 115.841 152.341 115.576 Q 152.511 115.311 152.746 115.13 Q 152.78 115.08 152.83 115.03 Q 153.15 114.696 153.585 114.461 Q 153.735 114.376 153.885 114.326 Q 154.135 114.207 154.4 114.107 Q 154.8 113.937 155.215 113.872 Q 155.65 113.772 156.065 113.741 Q 156.465 113.746 156.83 113.75 Q 158.159 113.933 159.096 114.483 Q 159.326 114.641 159.522 114.8 Q 159.948 115.117 160.339 115.47 Q 162.217 117.489 163.902 119.75 Q 165.18 121.42 166.233 123.185 Q 166.978 124.413 167.613 125.687 Q 167.613 125.722 167.628 125.772 Q 168.354 127.111 169.035 128.541 Q 169.7 129.957 170.285 131.498 Q 170.285 131.533 170.3 131.567 Q 170.552 132.176 170.774 132.85 Q 171.354 134.637 171.802 136.58 Q 171.783 136.646 171.833 136.726 Q 171.848 136.826 171.863 136.961 Q 171.974 137.515 172.07 138.07 L 172.054 138.07 Q 172.639 141.661 172.813 145.648 L 172.883 148.002 Q 172.883 148.202 172.917 148.402 Q 173.022 151.357 173.126 154.346 Q 173.196 155.98 173.23 157.615 Q 173.23 157.915 173.265 158.215 Q 173.404 164.67 173.335 171.263 Q 173.335 172.398 173.23 173.567 Q 173.126 174.287 173.022 175.007 Q 172.952 175.407 172.857 175.826 Q 172.741 176.196 172.596 176.55 Q 172.27 177.189 171.902 177.741 Q 171.852 177.776 171.767 177.811 Q 171.233 177.985 170.698 178.193 Q 169.763 178.507 168.724 178.611 Q 167.889 178.715 167.089 178.507 Q 165.585 178.124 164.637 177.428 Q 164.637 177.428 164.637 177.428 Q 164.241 177.065 164.015 176.657 Q 163.939 176.507 163.878 176.341 Q 163.696 175.757 163.696 175.111 Q 163.73 173.291 163.765 171.522 Q 163.765 171.137 163.765 170.787 Q 163.87 168.317 163.939 165.883 Q 163.974 163.478 164.009 161.074 Q 164.009 159.604 164.043 158.135 Q 164.043 157.1 164.043 156.135 Q 164.043 150.646 163.8 145.157 Q 163.8 145.007 163.8 144.872 Q 163.7 143.576 163.509 142.402 Q 163.493 142.367 163.493 142.317 Q 163.272 141.213 162.928 140.261 Q 162.504 139.089 161.928 138.07 Q 161.913 138.054 161.913 138.054 Q 161.176 136.607 160.389 135.3 Q 159.663 133.804 158.78 132.415 Q 158.398 131.87 158.015 131.374 Q 158 131.339 158 131.304 Q 157.27 130.213 156.52 129.167 Q 155.704 127.998 154.904 126.909 Q 154.728 126.676 154.537 126.398 Q 154.441 126.259 154.33 126.12 Q 153.983 125.667 153.711 125.083 Q 153.424 124.324 153.25 123.524 Q 153.18 123.089 153.111 122.654 Q 152.867 120.97 152.589 119.354 Q 152.45 117.835 152.276 116.315 L 152.276 116.176" fill="#0066CC"/>
	</g>
</svg>
