<?xml version="1.0"?>
<!DOCTYPE svg PUBLIC "-//W3C//DTD SVG 1.1//EN" "http://www.w3.org/Graphics/SVG/1.1/DTD/svg11.dtd">
<svg version='1.1' width='17px' height='44px' xmlns='http://www.w3.org/2000/svg' xmlns:xlink='http://www.w3.org/1999/xlink'>
	<g transform="translate(-48.9676,-143.899)">
		<path d="M 48.9676 147.09 L 49.0676 147.135 Q 49.1485 146.862 49.2294 146.588 Q 49.2294 146.588 49.275 146.543 Q 51.0897 145.175 52.9956 143.899 Q 53.0456 143.899 53.1868 144.035 Q 53.4221 144.263 53.8853 144.765 Q 54.5779 145.494 55.6353 146.862 Q 57.1853 149.637 59.8294 154.185 Q 65.6191 164.357 65.6191 175.168 Q 65.6191 179.831 65.1632 182.899 Q 65.0676 183.425 64.9279 183.884 Q 64.7838 184.434 64.5809 184.844 Q 63.8941 186.713 62.7971 187.306 Q 61.5074 188.081 60.4912 186.44 Q 60.2382 186.075 60.0074 185.525 Q 59.7721 184.975 59.5897 184.266 Q 59.1794 182.5 58.8603 180 Q 57.7206 170.691 55.0309 162.568 Q 52.5235 155.146 49.5147 148.271 Q 49.2868 147.812 49.0588 147.353 Q 49.0132 147.203 48.9676 147.099 L 48.9676 147.09" fill="#0066CC"/>
	</g>
</svg>
