<?xml version="1.0"?>
<!DOCTYPE svg PUBLIC "-//W3C//DTD SVG 1.1//EN" "http://www.w3.org/Graphics/SVG/1.1/DTD/svg11.dtd">
<svg version='1.1' width='15px' height='46px' xmlns='http://www.w3.org/2000/svg' xmlns:xlink='http://www.w3.org/1999/xlink'>
	<g transform="translate(-48.4382,-135.693)">
		<path d="M 48.4382 137.649 L 48.5382 137.676 Q 48.7426 137.509 48.9471 137.341 Q 48.9471 137.341 48.975 137.313 Q 51.2485 136.475 53.5779 135.693 Q 53.6279 135.693 53.7338 135.776 Q 54.1103 135.916 54.6265 136.224 Q 55.6897 136.671 56.9765 137.509 Q 57.9265 141.184 59.5471 145.926 Q 63.0956 157.387 63.0956 169.238 Q 63.0956 173.954 62.8162 177.693 Q 62.7382 178.325 62.4397 178.819 Q 62.1191 179.369 61.7044 179.621 Q 60.4706 180.766 58.9853 181.129 Q 57.5368 181.604 56.2559 180.599 Q 55.7912 180.375 55.4368 179.825 Q 55.0603 179.275 54.9485 178.531 Q 54.6971 176.5 54.5015 174 Q 53.8029 164.056 52.1544 154.838 Q 50.6176 146.728 48.7735 138.953 Q 48.6338 138.459 48.4941 137.965 Q 48.4662 137.815 48.4382 137.693 L 48.4382 137.649" fill="#0066CC"/>
	</g>
</svg>
