<?xml version="1.0"?>
<!DOCTYPE svg PUBLIC "-//W3C//DTD SVG 1.1//EN" "http://www.w3.org/Graphics/SVG/1.1/DTD/svg11.dtd">
<svg version='1.1' width='16px' height='45px' xmlns='http://www.w3.org/2000/svg' xmlns:xlink='http://www.w3.org/1999/xlink'>
	<g transform="translate(-48.6147,-138.428)">
		<path d="M 48.6147 140.796 L 48.7147 140.829 Q 48.8779 140.626 49.0412 140.424 Q 49.0412 140.424 49.075 140.39 Q 51.1956 139.375 53.3838 138.428 Q 53.4338 138.428 53.5515 138.529 Q 53.8809 138.699 54.3794 139.071 Q 55.3191 139.612 56.5294 140.626 Q 57.6794 144.001 59.6412 148.679 Q 63.9368 159.71 63.9368 171.215 Q 63.9368 175.913 63.5985 179.428 Q 63.5147 180.025 63.2691 180.507 Q 63.0074 181.057 62.6632 181.362 Q 61.6118 182.749 60.2559 183.188 Q 58.8603 183.763 57.6676 182.546 Q 57.2735 182.275 56.9603 181.725 Q 56.6309 181.175 56.4956 180.443 Q 56.1912 178.5 55.9544 176 Q 55.1088 166.268 53.1132 157.415 Q 51.2529 149.534 49.0206 142.059 Q 48.8515 141.576 48.6824 141.094 Q 48.6485 140.944 48.6147 140.828 L 48.6147 140.796" fill="#0066CC"/>
	</g>
</svg>
