<?xml version="1.0"?>
<!DOCTYPE svg PUBLIC "-//W3C//DTD SVG 1.1//EN" "http://www.w3.org/Graphics/SVG/1.1/DTD/svg11.dtd">
<svg version='1.1' width='27px' height='39px' xmlns='http://www.w3.org/2000/svg' xmlns:xlink='http://www.w3.org/1999/xlink'>
	<g transform="translate(-116.247,-135.1)">
		<path d="M 122.4 135.75 Q 123.134 135.634 123.5 135.1 Q 124.405 135.1 125.3 135.1 Q 125.35 135.1 125.45 135.1 Q 125.65 135.3 125.85 135.45 Q 126.6 135.95 127.25 136.55 Q 127.35 136.65 127.45 136.75 Q 127.55 137.3 127.75 137.85 Q 128 138.5 128 139.15 Q 127.956 139.754 128 140.325 Q 127.178 141.68 126.65 143.25 Q 125.451 146.917 125.15 150.725 L 125.15 150.775 Q 124.876 154.533 126.8 157.65 Q 127.775 159.174 128.75 160.55 Q 129.404 161.417 130.15 162.1 Q 130.194 162.15 130.225 162.2 Q 132.838 164.481 136.25 165.2 Q 138.323 165.667 140.35 166.325 Q 140.376 166.336 140.4 166.35 Q 140.451 166.37 140.5 166.4 Q 140.671 166.495 140.85 166.55 Q 140.902 166.569 140.95 166.6 Q 141.342 166.832 141.7 167.15 Q 141.7 167.312 141.7 167.475 Q 142.368 168.06 142.25 168.975 Q 142.275 169.137 142.275 169.3 Q 142.32 169.864 142.025 170.575 Q 141.999 171.138 141.65 171.85 Q 141.312 172.559 140.675 172.725 Q 140.369 172.964 139.95 173 L 139.95 173.05 Q 139.191 173.116 138.45 173.225 Q 138.464 173.176 138.475 173.125 Q 138.159 173.087 137.85 173.05 L 137.825 173.05 Q 135.528 172.97 133.15 172.45 Q 133.057 172.426 132.975 172.375 Q 132.734 172.315 132.5 172.25 Q 128.361 171.13 124.95 168.65 Q 124.886 168.601 124.85 168.55 Q 121.415 166.1 119.3 162.35 Q 116.931 158.313 116.45 153.7 Q 116.143 150.928 116.3 147.95 Q 116.554 143.24 118.8 138.95 Q 119.312 137.989 119.875 137.05 Q 120.976 136.725 121.95 135.8 Q 122.171 135.782 122.4 135.75 Z" fill="#0066CC"/>
	</g>
</svg>
