<?xml version="1.0"?>
<!DOCTYPE svg PUBLIC "-//W3C//DTD SVG 1.1//EN" "http://www.w3.org/Graphics/SVG/1.1/DTD/svg11.dtd">
<svg version='1.1' width='32px' height='47px' xmlns='http://www.w3.org/2000/svg' xmlns:xlink='http://www.w3.org/1999/xlink'>
	<g transform="translate(-233,-130.338)">
		<path d="M 233 137.726 Q 233.053 136.513 233.108 135.776 Q 233.161 134.863 233.168 134.708 Q 233.132 133.837 233.382 133.205 Q 233.742 131.368 235.447 130.776 Q 236.132 130.534 237.005 130.482 Q 237.103 130.482 237.2 130.482 Q 245.026 131.326 251.418 130.539 Q 251.421 130.539 251.471 130.539 Q 251.718 130.487 252.013 130.434 Q 254.458 130.166 257.089 130.647 Q 257.089 130.647 257.137 130.647 Q 257.861 130.784 258.679 131.016 Q 258.776 131.061 258.874 131.105 Q 258.874 131.105 258.921 131.105 Q 258.921 131.105 258.921 131.105 Q 259.458 131.145 259.947 131.424 Q 259.9 131.376 259.9 131.376 Q 262.874 132.476 263.15 136.15 Q 263.153 136.15 263.155 136.197 Q 263.237 138.779 263.605 141.611 Q 263.676 142.318 263.792 143.076 Q 263.795 143.076 263.797 143.124 Q 263.989 144.5 263.971 145.945 Q 263.974 146.089 263.929 146.234 Q 264.066 148.405 264.2 150.616 Q 264.2 150.758 264.2 150.9 Q 264.334 154.268 264.379 157.495 Q 264.426 157.689 264.426 157.932 Q 264.332 158.913 264.426 160.084 Q 264.426 160.087 264.426 160.137 Q 264.521 161.839 264.568 163.447 Q 264.616 166.813 264.405 169.795 Q 264.571 175.776 263.045 176.303 Q 262.708 176.45 262.229 176.455 Q 262.182 176.455 262.134 176.455 Q 261.505 176.424 260.829 176.576 Q 260.087 176.7 258.674 174.995 Q 258.318 174.616 257.961 173.705 Q 256.655 170.345 255.374 159.963 Q 255.374 159.963 255.374 159.916 Q 255.279 158.655 255.237 157.629 Q 254.818 155.574 254.516 153.368 Q 254.184 151.821 253.95 150.232 Q 253.542 147.658 253.189 144.905 Q 253.134 144.532 253.079 144.158 Q 252.868 143.318 252.989 142.618 Q 252.987 142.524 253.032 142.476 Q 252.971 142.008 253.053 141.587 Q 252.468 141.595 251.884 141.363 Q 251.242 141.042 249.747 140.861 Q 248.089 140.721 240.495 140.592 Q 233.037 140.508 233 137.821 L 233 137.726" fill="#0066CC"/>
	</g>
</svg>
