<?xml version="1.0"?>
<!DOCTYPE svg PUBLIC "-//W3C//DTD SVG 1.1//EN" "http://www.w3.org/Graphics/SVG/1.1/DTD/svg11.dtd">
<svg version='1.1' width='38px' height='49px' xmlns='http://www.w3.org/2000/svg' xmlns:xlink='http://www.w3.org/1999/xlink'>
	<g transform="translate(-79.7728,-126.387)">
		<path d="M 80.525 130.475 Q 81.5574 128.057 83.975 127.55 Q 84.202 127.495 84.425 127.5 Q 87.8162 127.634 91.6 128.075 L 91.65 128.075 L 97.55 128.55 Q 97.6045 128.554 97.65 128.575 Q 103.332 128.042 107.75 126.875 Q 108.14 126.479 108.9 126.45 Q 109.387 126.265 110.425 126.625 Q 111.593 126.88 112.775 128.6 L 112.775 128.625 Q 114.351 131.003 115.25 134.25 Q 115.317 134.472 115.325 134.7 Q 115.316 136.248 115.4 138.25 Q 115.405 138.336 115.4 138.425 Q 115.109 142.953 115.5 148.6 Q 115.502 148.652 115.5 148.7 Q 115.535 151.222 115.725 154.125 L 115.725 154.15 Q 116.085 160.694 116.8 168.55 Q 116.806 168.65 116.8 168.75 Q 116.642 173.109 114.15 174.25 Q 113.783 174.451 113.375 174.45 Q 113.317 174.48 113.25 174.5 Q 112.745 174.672 112.225 174.525 Q 111.931 174.546 111.625 174.45 Q 108.794 173.807 107.95 168.925 Q 106.115 161.954 105.8 155.7 L 105.8 155.65 Q 104.937 145.718 105.325 138.95 Q 101.931 139.478 98.075 139.8 Q 97.9836 139.832 97.875 139.85 L 91.6 141 Q 91.548 141.013 91.5 141.025 Q 82.1049 142.139 79.85 133.175 Q 79.7598 132.887 79.775 132.6 Q 79.9045 131.397 80.5 130.525 Q 80.508 130.499 80.525 130.475 Z" fill="#0066CC"/>
	</g>
</svg>
