<?xml version="1.0"?>
<!DOCTYPE svg PUBLIC "-//W3C//DTD SVG 1.1//EN" "http://www.w3.org/Graphics/SVG/1.1/DTD/svg11.dtd">
<svg version='1.1' width='32px' height='48px' xmlns='http://www.w3.org/2000/svg' xmlns:xlink='http://www.w3.org/1999/xlink'>
	<g transform="translate(-232.521,-129.947)">
		<path d="M 232.9 132.75 Q 233.421 130.09 236.6 129.95 Q 236.687 129.943 236.775 129.95 Q 244.861 130.911 251.4 130.125 L 251.425 130.125 Q 251.711 130.084 252 130.05 Q 254.498 129.787 257.2 130.325 L 257.225 130.325 Q 258.11 130.524 259.025 130.825 L 259.075 130.85 L 259.1 130.85 Q 259.654 130.914 260.15 131.175 L 260.075 131.125 Q 263.127 132.372 263.325 136.225 L 263.325 136.275 Q 263.343 139.759 263.8 143.6 L 263.8 143.625 Q 263.954 145.083 263.9 146.575 Q 263.896 146.74 263.85 146.9 Q 263.938 149.137 264.075 151.375 Q 264.23 154.979 264.3 158.45 Q 264.371 158.668 264.35 158.9 Q 264.26 159.906 264.35 161.1 L 264.35 161.125 Q 264.667 166.506 264.35 171.025 Q 264.571 177.251 263 177.675 Q 262.67 177.826 262.025 177.825 Q 261.381 177.812 260.675 177.925 Q 259.962 178.045 258.475 176.25 Q 256.996 174.456 255.3 160.7 L 255.3 160.65 Q 255.185 159.354 255.125 158.3 Q 254.369 154.665 253.85 150.6 Q 253.453 147.468 253.1 144.1 Q 252.914 143.176 253.025 142.45 Q 253.039 142.366 253.075 142.3 Q 253.068 141.799 253.15 141.325 Q 252.562 141.37 251.925 141.075 Q 251.29 140.77 249.725 140.55 Q 248.159 140.328 240.25 140.25 Q 232.343 140.183 232.525 137.375 Q 232.713 134.57 232.7 134.3 Q 232.67 133.423 232.9 132.75 Z" fill="#0066CC"/>
	</g>
</svg>
