<?xml version="1.0"?>
<!DOCTYPE svg PUBLIC "-//W3C//DTD SVG 1.1//EN" "http://www.w3.org/Graphics/SVG/1.1/DTD/svg11.dtd">
<svg version='1.1' width='16px' height='45px' xmlns='http://www.w3.org/2000/svg' xmlns:xlink='http://www.w3.org/1999/xlink'>
	<g transform="translate(-48.7029,-139.796)">
		<path d="M 48.7029 142.369 L 48.8029 142.406 Q 48.9456 142.185 49.0882 141.965 Q 49.0882 141.965 49.125 141.928 Q 51.1691 140.825 53.2868 139.796 Q 53.3368 139.796 53.4603 139.906 Q 53.7662 140.09 54.2559 140.494 Q 55.1338 141.082 56.3059 142.185 Q 57.5559 145.41 59.6882 150.056 Q 64.3574 160.872 64.3574 172.203 Q 64.3574 176.893 63.9897 180.296 Q 63.9029 180.875 63.6838 181.351 Q 63.4515 181.901 63.1426 182.232 Q 62.1824 183.74 60.8912 184.218 Q 59.5221 184.843 58.3735 183.519 Q 58.0147 183.225 57.7221 182.675 Q 57.4162 182.125 57.2691 181.399 Q 56.9382 179.5 56.6809 177 Q 55.7618 167.374 53.5926 158.703 Q 51.5706 150.937 49.1441 143.612 Q 48.9603 143.135 48.7765 142.659 Q 48.7397 142.509 48.7029 142.396 L 48.7029 142.369" fill="#0066CC"/>
	</g>
</svg>
