<?xml version="1.0"?>
<!DOCTYPE svg PUBLIC "-//W3C//DTD SVG 1.1//EN" "http://www.w3.org/Graphics/SVG/1.1/DTD/svg11.dtd">
<svg version='1.1' width='14px' height='48px' xmlns='http://www.w3.org/2000/svg' xmlns:xlink='http://www.w3.org/1999/xlink'>
	<g transform="translate(-48.0412,-129.538)">
		<path d="M 48.0412 130.568 L 48.1412 130.582 Q 48.4382 130.494 48.7353 130.406 Q 48.7353 130.406 48.75 130.391 Q 51.3676 129.95 54.0147 129.538 Q 54.0647 129.538 54.1441 129.582 Q 54.6265 129.656 55.1824 129.818 Q 56.5235 130.053 57.9824 130.494 Q 58.4824 134.844 59.3353 139.732 Q 61.2029 152.159 61.2029 164.791 Q 61.2029 169.547 61.0559 173.788 Q 60.9912 174.5 60.5735 175.021 Q 60.1206 175.571 59.5471 175.703 Q 57.9029 176.306 56.1265 176.497 Q 54.5588 176.747 53.0794 176.218 Q 52.4559 176.1 52.0088 175.55 Q 51.5265 175 51.4676 174.229 Q 51.3353 172 51.2324 169.5 Q 50.8647 159.079 49.9971 149.041 Q 49.1882 140.415 48.2176 131.965 Q 48.1441 131.444 48.0706 130.924 Q 48.0559 130.774 48.0412 130.638 L 48.0412 130.568" fill="#0066CC"/>
	</g>
</svg>
