<?xml version="1.0"?>
<!DOCTYPE svg PUBLIC "-//W3C//DTD SVG 1.1//EN" "http://www.w3.org/Graphics/SVG/1.1/DTD/svg11.dtd">
<svg version='1.1' width='28px' height='48px' xmlns='http://www.w3.org/2000/svg' xmlns:xlink='http://www.w3.org/1999/xlink'>
	<g transform="translate(-190.357,-123.859)">
		<path d="M 190.387 130.32 Q 190.217 128.41 191.97 127.06 Q 192.947 126.397 194.023 125.937 Q 195.097 125.517 196.25 125.233 Q 199.06 124.543 202.067 124.967 Q 202.393 124.937 202.713 124.907 Q 203.71 124.577 204.67 124.427 Q 205.55 124.29 206.48 124.393 Q 207.36 124.453 208.327 124.703 Q 208.483 124.74 208.64 124.733 Q 208.653 124.777 208.667 124.82 Q 209.037 124.72 209.42 124.67 Q 210.203 124.353 211.093 124.18 Q 211.8 123.963 212.477 123.89 Q 213.873 123.743 214.85 124.293 Q 215.37 124.517 215.863 125.137 Q 216.023 126 216.183 126.88 Q 216.177 127.5 216.127 128.14 Q 216.12 128.51 216.113 128.923 Q 216.073 131.623 216.24 135.31 Q 216.32 137.46 216.5 140.03 Q 216.673 142.647 216.86 145.113 Q 217.363 151.617 217.78 156.5 Q 217.78 156.507 217.78 156.557 Q 217.743 157.503 217.923 158.573 Q 217.923 159.15 217.967 159.727 Q 218.103 161.493 217.893 163.19 Q 217.647 165.53 216.76 167.64 Q 216.313 168.727 215.55 169.507 Q 214.607 170.51 213.45 170.707 Q 213.263 170.74 213.07 170.773 Q 211.307 171.413 210.13 170.303 Q 209.47 169.687 209 168.83 Q 208.657 168.153 208.38 167.393 Q 208.217 166.683 208.04 165.953 Q 207.927 160.853 207.72 154.98 Q 207.67 154.097 207.627 153.207 Q 207.433 147.68 207.447 140.777 Q 207.447 139.957 207.403 139.18 Q 207.403 139.073 207.403 138.96 Q 207.36 138.17 207.317 137.387 Q 207.23 136.45 206.797 136.207 Q 204.797 134.793 202.537 134.203 Q 202.097 134.06 201.607 133.967 Q 201.333 133.907 201.003 133.853 Q 200.803 133.813 200.597 133.787 Q 200.283 133.77 199.957 133.773 Q 199.173 133.793 198.39 133.883 Q 198.177 133.913 197.963 133.943 Q 197.47 134.017 196.977 134.09 Q 195.623 134.117 194.357 134.1 L 194.313 134.1 Q 192.993 134.003 192.157 133.523 Q 191.66 133.23 191.293 132.807 Q 191.293 132.763 191.293 132.763 Q 190.883 132.34 190.667 131.897 Q 190.313 131.253 190.363 130.603 Q 190.35 130.447 190.387 130.333 L 190.387 130.32" fill="#0066CC"/>
	</g>
</svg>
