<?xml version="1.0"?>
<!DOCTYPE svg PUBLIC "-//W3C//DTD SVG 1.1//EN" "http://www.w3.org/Graphics/SVG/1.1/DTD/svg11.dtd">
<svg version='1.1' width='28px' height='47px' xmlns='http://www.w3.org/2000/svg' xmlns:xlink='http://www.w3.org/1999/xlink'>
	<g transform="translate(-93.6667,-125.384)">
		<path d="M 93.6667 129.22 Q 94.33 128.627 95.1033 128.123 Q 95.1467 128.073 95.1967 128.073 Q 96.08 127.45 97.0033 126.96 Q 96.96 126.96 96.96 126.96 Q 97.9467 126.413 99.0367 126.077 Q 99.2367 126.027 99.4433 125.983 Q 101.927 125.347 104.58 125.387 Q 105.237 125.4 105.9 125.457 Q 105.95 125.457 105.993 125.457 Q 108.77 125.657 111.157 126.513 Q 111.207 126.513 111.257 126.52 Q 114.163 127.513 116.347 129.433 Q 117.497 130.383 118.367 131.58 Q 118.637 131.917 118.91 132.343 Q 119.193 132.793 119.507 133.367 Q 120.093 134.527 120.513 136.053 Q 120.513 136.097 120.513 136.147 Q 121.103 138.533 121.273 141.467 Q 121.273 141.517 121.273 141.617 Q 121.28 141.773 121.287 141.937 Q 121.28 143.443 121.293 145.01 Q 121.293 145.11 121.293 145.21 Q 121.253 149.667 121.307 154.277 Q 121.307 154.327 121.307 154.377 Q 121.313 156.747 121.34 159.177 L 121.34 159.177 Q 121.373 163.953 121.44 168.83 Q 121.403 169.617 120.933 170.187 Q 120.42 170.757 119.733 170.857 Q 119.35 170.917 119.01 170.977 Q 118.923 170.99 118.837 171.003 Q 116.303 171.583 113.457 171.737 Q 113.307 171.75 113.15 171.757 Q 112.993 171.763 112.837 171.763 Q 112.737 171.77 112.643 171.727 Q 112.163 171.61 111.813 171.307 Q 111.75 171.263 111.687 171.213 Q 111.473 170.997 111.303 170.767 Q 111.113 170.45 111.06 170.077 Q 110.773 167.713 110.68 164.963 Q 110.433 158.917 110.393 152.97 L 110.393 152.963 Q 110.347 149.54 110.327 146.183 Q 110.313 143.443 110.103 141.097 Q 110.103 141.053 110.103 141.053 Q 109.843 139.097 109.423 137.867 Q 109.367 137.78 109.31 137.693 Q 109.31 137.737 109.353 137.737 Q 108.653 136.897 107.6 136.533 Q 107.5 136.49 107.443 136.49 Q 106.113 136.003 104.077 136.03 Q 103.97 136.03 103.863 136.03 Q 103.763 136.037 103.663 136.037 Q 101.58 136.183 99.3667 137.19 Q 98.69 137.47 98.0133 137.793 Q 97.9633 137.793 97.9133 137.8 Q 96.24 138.7 94.7067 139.663 Q 93.9067 135.03 93.6733 129.647 Q 93.6667 129.447 93.6667 129.247 L 93.6667 129.22" fill="#0066CC"/>
	</g>
</svg>
