<?xml version="1.0"?>
<!DOCTYPE svg PUBLIC "-//W3C//DTD SVG 1.1//EN" "http://www.w3.org/Graphics/SVG/1.1/DTD/svg11.dtd">
<svg version='1.1' width='9px' height='78px' xmlns='http://www.w3.org/2000/svg' xmlns:xlink='http://www.w3.org/1999/xlink'>
	<g transform="translate(-230.414,-108.771)">
		<path d="M 230.414 180.161 Q 230.491 179.736 230.568 178.207 Q 230.745 175.252 231.027 169.218 Q 231.143 166.216 231.259 162.691 Q 231.823 147.652 231.625 137.527 Q 231.586 136.266 231.548 135.066 Q 231.3 127.941 231.068 123.786 Q 231.03 122.986 230.991 122.264 Q 230.886 120.975 230.82 119.957 Q 230.755 119.407 230.766 118.857 Q 230.673 116.65 230.823 114.25 Q 230.823 114 230.823 113.75 Q 231.093 112.584 231.47 111.668 Q 231.566 111.425 231.661 111.182 Q 232.1 110.016 232.743 109.466 Q 233.48 108.577 234.577 108.825 Q 235.052 109.045 235.643 109.525 Q 238.25 111.625 238.782 115.966 Q 238.936 117.3 238.898 118.827 Q 238.184 145.12 239.125 171.239 Q 239.202 173.4 239.28 175.561 Q 239.395 178.173 239.036 180.63 Q 238.986 180.93 238.925 181.218 Q 238.914 181.268 238.902 181.318 Q 238.305 183.361 237.352 184.375 Q 236.47 185.589 235.434 186.016 Q 235.157 186.118 234.818 186.155 Q 234.641 186.159 234.486 186.175 Q 234.105 186.15 233.723 185.993 Q 232.414 185.177 230.68 182.584 Q 230.63 182.234 230.591 181.884 Q 230.552 181.434 230.514 180.984 Q 230.464 180.584 230.414 180.184 L 230.414 180.161" fill="#0066CC"/>
	</g>
</svg>
