<?xml version="1.0"?>
<!DOCTYPE svg PUBLIC "-//W3C//DTD SVG 1.1//EN" "http://www.w3.org/Graphics/SVG/1.1/DTD/svg11.dtd">
<svg version='1.1' width='10px' height='71px' xmlns='http://www.w3.org/2000/svg' xmlns:xlink='http://www.w3.org/1999/xlink'>
	<g transform="translate(-81.2603,-110.611)">
		<path d="M 81.2603 121.571 Q 81.2603 120.801 81.4706 120.116 Q 81.6809 119.3 82.0059 118.713 Q 83.425 116.026 85.0794 113.216 Q 85.4471 112.537 85.7382 112.087 Q 85.8838 111.904 85.9721 111.76 Q 86.0412 111.566 86.1029 111.441 Q 86.4426 110.535 87.6779 110.618 Q 91.0441 110.472 90.7044 116.874 Q 90.3338 123.81 90.1794 129.11 Q 90.1485 130.315 90.1176 131.488 Q 90.1176 131.588 90.1176 131.657 Q 90.0868 135.656 90.1176 139.407 L 90.1794 139.446 Q 90.1485 140.007 90.1485 140.569 L 90.1794 140.576 Q 90.1794 142.474 90.1794 144.34 L 90.1485 144.378 Q 90.0559 154.365 90.1176 163.487 Q 90.1176 163.668 90.1176 163.849 Q 90.1485 167.035 90.2412 170.006 Q 90.2721 170.775 90.0926 171.449 Q 89.8941 172.153 89.6191 172.616 Q 89.0882 173.821 88.6074 174.932 Q 87.9779 176.631 87.1632 177.99 Q 86.8382 178.546 86.5971 178.829 Q 86.325 179.268 86.2015 179.518 Q 85.7074 181.129 84.1941 180.641 Q 81.4765 180.134 81.4147 173.728 Q 81.3838 167.179 81.4456 154.825 Q 81.4456 154.644 81.4456 154.463 Q 81.4765 145.122 81.5382 134.453 Q 81.4147 134.407 81.3221 134.362 L 81.2912 125.75 Q 81.2603 124.265 81.2603 122.749 Q 81.2603 122.175 81.2603 121.632 L 81.2603 121.571" fill="#0066CC"/>
	</g>
</svg>
