<?xml version="1.0"?>
<!DOCTYPE svg PUBLIC "-//W3C//DTD SVG 1.1//EN" "http://www.w3.org/Graphics/SVG/1.1/DTD/svg11.dtd">
<svg version='1.1' width='12px' height='49px' xmlns='http://www.w3.org/2000/svg' xmlns:xlink='http://www.w3.org/1999/xlink'>
	<g transform="translate(-189.35,-122.125)">
		<path d="M 190.7 123.05 Q 190.753 123.026 190.8 123 Q 191.95 122.35 193.2 122.2 Q 194.65 122.15 196.1 122.125 Q 197.02 122.211 197.9 122.4 L 198.05 122.4 Q 198.19 122.44 198.325 122.475 Q 198.44 122.562 198.55 122.65 Q 198.65 122.75 198.75 122.85 Q 199.419 123.603 199.675 124.6 Q 199.717 124.795 199.75 125 Q 199.772 125.15 199.8 125.3 Q 199.914 126.1 200.025 126.9 Q 200.2 128.1 200.3 129.35 Q 200.4 130.8 200.45 132.2 L 200.45 165.3 Q 200.25 166.3 200.15 167.35 Q 199.95 169 198.55 169.7 Q 198.257 169.868 197.95 170 Q 197.35 170.3 196.75 170.55 Q 195 171.15 193.2 170.475 Q 191.916 170.079 190.85 169.25 Q 190.4 168.85 190.025 168.4 Q 189.629 167.803 189.35 167.125 L 189.35 129.025 Q 189.5 128.3 189.5 127.55 Q 189.5 127.25 189.55 126.95 Q 189.65 126.65 189.65 126.35 Q 189.65 125.425 189.925 124.6 Q 190.175 123.775 190.7 123.05 Z" fill="#0066CC"/>
	</g>
</svg>
