<?xml version="1.0"?>
<!DOCTYPE svg PUBLIC "-//W3C//DTD SVG 1.1//EN" "http://www.w3.org/Graphics/SVG/1.1/DTD/svg11.dtd">
<svg version='1.1' width='28px' height='45px' xmlns='http://www.w3.org/2000/svg' xmlns:xlink='http://www.w3.org/1999/xlink'>
	<g transform="translate(-189.428,-125.314)">
		<path d="M 189.475 130 Q 190.25 128.55 191.975 127.5 Q 192.025 127.45 192.075 127.4 Q 192.05 127.4 192.05 127.4 Q 194.05 126.3 196.175 125.75 Q 197.65 125.375 199.175 125.325 Q 200.575 125.275 201.925 125.45 Q 205.475 125.375 208.4 127 Q 208.525 127.075 208.65 127.125 Q 208.675 127.175 208.7 127.225 Q 209.05 127.3 209.375 127.4 Q 210.075 127.475 210.775 127.7 Q 210.85 127.7 210.925 127.7 Q 213.1 128.175 214.6 130.225 Q 214.85 131.05 215.075 131.9 Q 215.15 132.525 215.2 133.15 Q 215.425 135.525 215.5 138.55 Q 215.525 139.325 215.55 140.125 Q 215.6 142.3 215.7 144.7 Q 216.075 153.525 216.4 160.825 L 216.4 160.85 Q 216.375 161.775 216.475 162.775 Q 216.475 163.325 216.5 163.875 Q 216.525 164.4 216.525 164.925 Q 216.55 165.625 216.25 166.2 Q 215.95 166.775 215.5 167.075 Q 214.2 168.15 212.55 169.175 Q 211.725 169.675 210.725 170.025 Q 210.6 170.075 210.475 170.125 Q 209.775 170.325 209.2 170.125 Q 208.6 169.975 208.225 169.575 Q 208.2 169.55 208.175 169.525 Q 207.275 168.9 206.775 167.45 Q 206.475 166.65 206.3 165.75 Q 206.175 165 206.1 164.225 L 205.8 150.325 Q 205.775 148.9 205.75 147.425 Q 205.725 144.925 205.575 142.5 Q 205.575 142.475 205.575 142.475 Q 205.45 140.65 205.15 139.2 Q 205.15 139.2 205.15 139.175 Q 205.05 138.775 204.925 138.425 Q 204.675 137.85 204.325 137.45 Q 204.3 137.4 204.275 137.375 Q 203.825 136.675 203.2 136.1 Q 202.85 135.65 202.325 135.55 Q 202.275 135.525 202.225 135.525 Q 200.15 135.05 197.875 135.525 Q 195.525 135.925 193.1 137.025 Q 192.775 136.775 192.45 136.55 Q 191.8 135.925 191.2 135.275 L 191.175 135.25 Q 190.15 134.35 189.775 132.85 L 189.775 132.825 Q 189.3 131.425 189.475 130.1 L 189.475 130" fill="#0066CC"/>
	</g>
</svg>
