<?xml version="1.0"?>
<!DOCTYPE svg PUBLIC "-//W3C//DTD SVG 1.1//EN" "http://www.w3.org/Graphics/SVG/1.1/DTD/svg11.dtd">
<svg version='1.1' width='32px' height='48px' xmlns='http://www.w3.org/2000/svg' xmlns:xlink='http://www.w3.org/1999/xlink'>
	<g transform="translate(-232.657,-129.33)">
		<path d="M 232.657 137.673 Q 232.787 135.01 232.787 134.6 Q 232.743 133.733 232.96 133.083 Q 233.4 130.467 236.173 130.017 Q 236.26 130.003 236.347 129.99 Q 237.083 129.97 237.777 129.95 Q 239.83 129.97 241.797 129.907 Q 241.833 129.907 241.877 129.907 Q 245.99 129.853 249.76 129.55 Q 250.153 129.507 250.547 129.463 Q 250.553 129.463 250.597 129.463 Q 250.853 129.42 251.153 129.377 Q 253.68 129.187 256.313 129.777 Q 256.313 129.777 256.357 129.777 Q 257.193 129.947 258.11 130.303 Q 258.117 130.303 258.167 130.303 Q 258.167 130.303 258.167 130.303 Q 258.71 130.38 259.203 130.68 Q 259.16 130.637 259.16 130.637 Q 261 131.42 261.817 133.123 Q 262.363 134.203 262.543 135.663 Q 262.543 135.663 262.543 135.707 Q 262.75 139.063 263.213 142.9 Q 263.213 142.9 263.213 142.95 Q 263.37 144.38 263.333 145.867 Q 263.333 146.017 263.29 146.167 Q 263.297 146.68 263.34 147.193 Q 263.427 148.93 263.513 150.667 Q 263.643 154.24 263.687 157.683 Q 263.73 157.883 263.73 158.127 Q 263.643 159.14 263.73 160.327 L 263.73 160.377 Q 263.99 165.633 263.73 170.197 Q 263.817 173.29 263.513 175.04 Q 263.383 175.753 263.093 176.217 Q 262.773 176.747 262.353 176.847 Q 262.24 176.897 262.083 176.94 Q 261.77 176.983 261.377 176.983 Q 260.733 176.94 260.047 177.07 Q 259.217 177.157 257.78 175.597 Q 257.18 175.077 256.58 173.387 Q 256.293 172.823 256.047 172.057 Q 255.843 171.29 255.67 170.36 Q 255.063 166.523 254.413 160.693 L 254.413 160.65 Q 254.327 159.383 254.283 158.333 Q 253.59 154.69 253.157 150.7 Q 252.853 147.863 252.593 144.94 Q 252.55 144.603 252.507 144.267 Q 252.333 143.373 252.457 142.61 Q 252.457 142.51 252.5 142.453 Q 252.45 141.953 252.53 141.503 Q 252.003 141.43 251.477 141.147 Q 251.303 141.02 250.993 140.893 Q 250.993 140.887 250.993 140.887 Q 250.373 140.62 249.537 140.41 Q 248.94 140.17 247.413 140.02 Q 247.413 140.02 247.413 140.013 Q 246.51 139.837 245.25 139.783 Q 245.2 139.777 245.15 139.777 Q 243.683 139.653 241.677 139.61 Q 241.04 139.61 240.403 139.617 Q 238.4 139.65 236.853 139.597 Q 232.943 139.267 232.657 137.847 L 232.657 137.673" fill="#0066CC"/>
	</g>
</svg>
