<?xml version="1.0"?>
<!DOCTYPE svg PUBLIC "-//W3C//DTD SVG 1.1//EN" "http://www.w3.org/Graphics/SVG/1.1/DTD/svg11.dtd">
<svg version='1.1' width='41px' height='51px' xmlns='http://www.w3.org/2000/svg' xmlns:xlink='http://www.w3.org/1999/xlink'>
	<g transform="translate(-70.8,-127.848)">
		<path d="M 70.8 141.718 Q 70.9 140.818 71.1316 140 Q 71.1921 139.75 71.2632 139.511 Q 71.2632 139.461 71.2737 139.421 Q 71.9737 137.524 73.4132 136.497 Q 74.2105 136.305 75.0395 136.155 Q 75.3184 136.105 75.6079 136.066 Q 78.3763 135.692 81.4842 135.282 Q 81.4947 135.282 81.5053 135.242 Q 82.3237 135.145 83.1526 135.047 L 83.1632 135.047 L 88.8579 134.263 Q 88.8395 134.303 88.9 134.342 Q 89.1395 134.263 89.3789 134.195 Q 89.4289 134.195 89.4789 134.205 Q 95.0605 132.589 99.9737 130.334 Q 100.532 130.013 101.163 129.766 Q 101.821 129.447 102.555 129.255 Q 104.021 128.637 105.418 128.284 Q 105.458 128.284 105.497 128.295 Q 105.866 128.171 106.234 128.018 Q 107.029 127.732 107.695 127.929 Q 108.797 128.211 109.632 129.797 Q 109.9 130.326 110.118 130.855 Q 110.208 131.055 110.297 131.266 Q 110.879 132.974 111.137 134.934 Q 111.137 135.034 111.137 135.134 Q 111.529 138.75 110.732 143.055 Q 110.426 144.613 110.171 146.192 Q 110.171 146.242 110.171 146.292 Q 109.668 149.187 109.276 152.216 Q 109.276 152.216 109.276 152.216 Q 108.982 154.442 108.776 156.7 Q 108.453 159.666 108.179 162.713 Q 107.945 165.339 107.761 167.997 Q 107.761 168.097 107.761 168.197 Q 107.374 171.995 106.492 175.118 Q 106.421 175.337 106.339 175.545 Q 106.258 175.753 106.176 175.95 Q 106.116 176.118 106.066 176.276 Q 105.842 176.782 105.5 177.116 Q 105.318 177.313 105.097 177.45 Q 104.437 177.892 103.571 177.926 Q 100.905 178.158 100.245 174.466 Q 100.184 174.195 100.134 173.924 Q 99.1605 168.739 99.2026 163.589 Q 99.2289 161.332 99.3263 159.174 Q 99.3263 159.174 99.3263 159.163 Q 99.6026 149.718 100.918 141.937 Q 100.445 142.037 99.9421 142.108 Q 96.3842 143.408 92.4553 144.418 Q 92.3158 144.468 92.1763 144.508 Q 90.3184 145.005 88.3816 145.463 Q 88.3211 145.503 88.3395 145.542 L 85.4816 146.526 Q 85.4316 146.526 85.3816 146.537 Q 83.2316 147.261 81.1553 147.868 Q 81.1553 147.868 81.1553 147.908 Q 74.0605 149.642 71.1263 142.555 Q 70.9868 142.255 70.8789 141.955 L 70.8 141.718" fill="#0066CC"/>
	</g>
</svg>
