<?xml version="1.0"?>
<!DOCTYPE svg PUBLIC "-//W3C//DTD SVG 1.1//EN" "http://www.w3.org/Graphics/SVG/1.1/DTD/svg11.dtd">
<svg version='1.1' width='38px' height='34px' xmlns='http://www.w3.org/2000/svg' xmlns:xlink='http://www.w3.org/1999/xlink'>
	<g transform="translate(-130.171,-138.809)">
		<path d="M 130.176 156.412 Q 130.106 153.444 130.894 150.988 Q 131.388 149.332 132.291 147.926 Q 132.294 147.876 132.344 147.874 Q 132.9 146.882 133.662 145.994 Q 134.729 144.835 136.1 143.832 Q 137.476 142.815 139.206 142.015 Q 139.206 142.015 139.253 142.015 Q 139.253 142.015 139.253 142.015 Q 139.815 141.747 140.424 141.482 Q 141.403 141.05 142.482 140.721 Q 145.274 139.788 148.565 139.444 Q 148.518 139.491 148.518 139.491 Q 150.479 139.244 152.574 139.076 Q 154.947 138.862 157.444 138.809 Q 157.497 138.812 157.55 138.815 Q 157.562 138.915 157.574 139.062 Q 157.935 139.079 158.247 139.191 Q 158.394 139.147 158.588 139.15 Q 158.797 139.115 159.003 139.079 Q 159.412 139.147 159.774 139.215 Q 160.082 139.185 160.435 139.159 Q 162.438 139.303 163.753 140.324 Q 163.756 140.324 163.759 140.329 Q 165.174 141.5 165.753 143.582 Q 165.806 143.788 165.906 144.041 Q 166.541 144.571 166.888 145.338 Q 166.938 145.491 166.988 145.647 Q 167.038 145.747 167.088 145.847 Q 167.291 146.579 167.253 147.5 Q 167.215 148.271 167.218 149.038 Q 167.218 149.085 167.218 149.135 Q 167.218 149.238 167.221 149.341 Q 167.221 149.444 167.221 149.547 Q 167.226 149.638 167.235 149.732 Q 167.274 150.15 167.306 150.579 Q 167.309 150.671 167.312 150.768 Q 167.312 150.815 167.315 150.862 Q 167.335 151.097 167.353 151.335 Q 167.359 151.432 167.365 151.526 Q 167.394 151.847 167.426 152.182 Q 167.444 152.409 167.465 152.641 Q 167.468 152.688 167.468 152.735 Q 167.468 153.065 167.515 153.397 Q 167.609 155.55 167.229 157.515 Q 167.229 157.515 167.226 157.515 Q 167.094 157.944 166.971 158.368 Q 166.962 158.462 166.956 158.559 Q 166.894 158.653 166.835 158.747 Q 166.785 158.841 166.738 158.935 Q 166.732 158.979 166.726 159.026 Q 166.615 159.218 166.506 159.406 Q 166.453 159.45 166.403 159.497 Q 166.4 159.497 166.397 159.5 Q 166.344 159.547 166.294 159.594 Q 166.291 159.641 166.288 159.688 Q 166.288 159.691 166.288 159.691 Q 166.044 160.262 165.706 160.785 Q 165.418 161.15 165.079 161.515 Q 164.297 162.279 163.547 163.085 Q 163.347 163.3 163.147 163.512 Q 162.794 163.979 162.438 164.4 Q 161.435 165.497 160.226 166.35 Q 160.176 166.4 160.124 166.45 Q 160.029 166.45 160.029 166.45 Q 159.579 166.856 159.129 167.215 Q 158.471 167.735 157.856 168.065 Q 157.853 168.115 157.85 168.165 Q 156.612 169.015 155.497 169.656 Q 155.45 169.659 155.45 169.662 Q 155.447 169.662 155.444 169.662 Q 155.344 169.712 155.247 169.762 Q 153.174 170.744 151.318 171.318 Q 150.065 171.691 148.282 171.806 Q 147.088 171.918 145.659 171.918 Q 144.471 171.918 143.329 171.762 Q 141.729 171.55 140.185 170.988 Q 139.929 170.885 139.674 170.782 Q 138.332 170.265 137.144 169.497 Q 135.862 168.682 134.735 167.609 Q 134.735 167.609 134.735 167.609 Q 133.591 166.476 132.706 165.032 Q 132.656 164.979 132.609 164.929 Q 131.935 163.9 131.412 162.679 Q 131.412 162.679 131.412 162.679 Q 131.356 162.524 131.3 162.368 Q 131.247 162.318 131.247 162.268 Q 131.244 162.265 131.244 162.262 Q 130.732 160.915 130.471 159.524 Q 130.468 159.521 130.471 159.518 Q 130.153 158.124 130.179 156.635 Q 130.179 156.632 130.179 156.629 Q 130.176 156.524 130.176 156.418 L 130.176 156.412" fill="#0066CC"/>
		<path d="M 141.356 155.653 Q 141.368 155.012 141.488 154.418 Q 141.824 153.353 141.824 153.35 Q 142.147 152.518 142.712 151.929 Q 142.865 151.818 143.018 151.709 Q 143.174 151.541 143.335 151.379 Q 144.759 150.153 146.876 149.512 Q 148.368 149.112 150.374 148.812 Q 151.741 148.609 153.271 148.547 Q 153.579 148.562 153.841 148.579 Q 154.682 148.541 155.471 148.553 Q 155.991 148.544 156.503 148.541 Q 157.018 148.541 157.379 148.544 Q 157.535 148.521 157.688 148.544 Q 158.094 148.647 158.535 148.788 Q 158.556 149.312 158.568 149.841 Q 158.588 150.647 158.621 151.453 Q 158.626 151.662 158.632 151.871 Q 158.632 151.871 158.635 151.874 Q 158.635 151.924 158.638 151.974 Q 158.641 152.076 158.647 152.182 Q 158.647 152.232 158.65 152.282 Q 158.662 152.444 158.682 152.609 Q 158.682 152.609 158.685 152.612 Q 158.688 152.662 158.694 152.712 Q 158.688 152.812 158.685 152.912 Q 158.682 152.959 158.682 153.009 Q 158.674 153.224 158.671 153.438 Q 158.662 153.706 158.656 153.976 Q 158.653 154.024 158.653 154.074 Q 158.647 154.171 158.647 154.274 Q 158.644 154.379 158.641 154.488 Q 158.647 155.279 158.562 156.024 Q 158.55 156.232 158.488 156.438 Q 158.485 156.488 158.482 156.541 Q 158.465 156.629 158.444 156.718 Q 158.441 156.721 158.438 156.724 Q 157.726 157.326 157.662 158.159 L 157.615 158.209 Q 157.609 158.162 157.606 158.121 Q 157.588 157.953 157.571 157.782 Q 156.95 158.315 156.412 158.697 Q 155.235 159.553 153.994 160.288 Q 153.55 160.506 153.106 160.712 Q 153.15 160.712 153.147 160.712 Q 152.015 161.265 150.824 161.529 Q 149.256 161.835 147.579 161.744 Q 147.368 161.732 147.156 161.718 Q 147.153 161.715 147.147 161.715 Q 146.565 161.674 146.044 161.574 Q 145.994 161.568 145.944 161.565 Q 143.871 161.126 142.679 159.988 Q 142.726 159.985 142.726 159.982 Q 142.524 159.753 142.326 159.474 Q 141.979 158.976 141.782 158.429 Q 141.385 157.279 141.356 155.844 Q 141.356 155.841 141.356 155.841 L 141.356 155.653" fill="#0066CC"/>
	</g>
</svg>
