<?xml version="1.0"?>
<!DOCTYPE svg PUBLIC "-//W3C//DTD SVG 1.1//EN" "http://www.w3.org/Graphics/SVG/1.1/DTD/svg11.dtd">
<svg version='1.1' width='43px' height='44px' xmlns='http://www.w3.org/2000/svg' xmlns:xlink='http://www.w3.org/1999/xlink'>
	<g transform="translate(-27.2868,-111.372)">
		<path d="M 27.2868 145.31 Q 27.3838 144.607 27.4971 143.96 Q 27.5 143.812 27.5515 143.663 Q 27.6103 143.219 27.7191 142.878 Q 27.9676 142.585 28.3147 142.44 Q 28.3647 142.391 28.4147 142.391 Q 28.6176 142.294 28.9176 142.294 Q 34.3941 142.149 39.2397 139.965 Q 41.0897 139.14 42.8912 137.975 Q 44.1471 137.15 45.3544 136.228 Q 56.1206 127.638 63.15 113.468 Q 64.2162 111.235 65.525 111.381 Q 66.1309 111.478 66.7779 112.076 Q 67.3294 112.578 67.9118 113.426 Q 68.4456 114.228 68.9794 115.369 Q 70.2897 118.109 70.1441 120.46 Q 70.0956 121.163 69.8838 121.762 Q 69.7279 122.257 69.5206 122.747 Q 69.3676 123.04 69.2132 123.331 Q 65.0985 131.726 59.8191 138.132 Q 57.9971 140.316 56.0294 142.306 Q 54.4632 143.859 52.8 145.266 Q 50.9912 146.625 49.2794 148.081 Q 49.2279 148.129 49.225 148.129 L 49.225 148.081 Q 48.2191 148.809 47.2132 149.44 Q 47.0118 149.537 46.8588 149.634 Q 46.2618 150.022 45.6647 150.362 Q 45.6132 150.41 45.5132 150.459 Q 42.0588 152.449 38.3132 153.904 Q 35.425 155.021 33.1191 154.099 Q 32.4632 153.856 31.8647 153.403 Q 31.1691 152.901 30.5382 152.15 Q 29.325 150.688 28.3544 148.401 Q 27.8206 147.05 27.3353 145.504 L 27.2868 145.31" fill="#0066CC"/>
	</g>
</svg>
