<?xml version="1.0"?>
<!DOCTYPE svg PUBLIC "-//W3C//DTD SVG 1.1//EN" "http://www.w3.org/Graphics/SVG/1.1/DTD/svg11.dtd">
<svg version='1.1' width='27px' height='46px' xmlns='http://www.w3.org/2000/svg' xmlns:xlink='http://www.w3.org/1999/xlink'>
	<g transform="translate(-189.239,-125.16)">
		<path d="M 189.263 129.35 Q 190.5 128.05 192.238 127.15 Q 192.288 127.1 192.338 127.05 Q 192.3 127.05 192.3 127.05 Q 194.35 126 196.538 125.525 Q 198.05 125.188 199.588 125.162 Q 201.037 125.138 202.388 125.325 Q 205.988 125.538 208.8 127.325 Q 208.913 127.412 209.025 127.488 Q 209.063 127.538 209.1 127.588 Q 209.45 127.75 209.763 127.925 Q 210.438 128.213 211.063 128.65 Q 211.125 128.675 211.188 128.7 Q 213.1 129.863 214.325 132.162 Q 214.6 132.975 214.838 133.85 Q 214.95 134.488 215.05 135.125 Q 215.413 137.563 215.45 140.575 Q 215.463 141.363 215.475 142.163 Q 215.5 144.4 215.55 146.775 Q 215.738 155.313 215.9 163.088 L 215.9 163.1 Q 215.888 164.038 215.938 165.012 Q 215.938 165.563 215.95 166.113 Q 215.963 166.65 215.963 167.188 Q 215.975 167.938 215.55 168.5 Q 215.1 169.063 214.475 169.213 Q 212.675 169.75 210.725 170.263 Q 209.738 170.513 208.663 170.688 Q 208.525 170.713 208.388 170.738 Q 207.613 170.838 207.05 170.463 Q 206.475 170.138 206.263 169.563 Q 206.25 169.525 206.238 169.488 Q 205.788 168.375 205.538 166.85 Q 205.388 166.025 205.3 165.15 Q 205.238 164.4 205.2 163.638 L 205.05 149.588 Q 205.038 148.125 205.025 146.637 Q 205.013 144.038 204.813 141.675 Q 204.813 141.638 204.813 141.638 Q 204.625 139.7 204.175 138.375 Q 204.175 138.375 204.175 138.338 Q 204.025 137.963 203.838 137.663 Q 203.463 137.1 202.963 136.775 Q 202.925 136.725 202.887 136.713 Q 202.238 136.163 201.325 135.8 Q 200.85 135.55 200.263 135.5 Q 200.213 135.488 200.163 135.488 Q 198.025 135.25 195.713 136.088 Q 193.363 136.838 191.075 138.238 Q 190.913 137.788 190.75 137.35 Q 190.425 136.363 190.125 135.363 L 190.113 135.325 Q 189.6 134 189.413 132.375 L 189.413 132.363 Q 189.175 130.913 189.263 129.5 L 189.263 129.35" fill="#0066CC"/>
	</g>
</svg>
