<?xml version="1.0"?>
<!DOCTYPE svg PUBLIC "-//W3C//DTD SVG 1.1//EN" "http://www.w3.org/Graphics/SVG/1.1/DTD/svg11.dtd">
<svg version='1.1' width='47px' height='27px' xmlns='http://www.w3.org/2000/svg' xmlns:xlink='http://www.w3.org/1999/xlink'>
	<g transform="translate(-27.9118,-111.902)">
		<path d="M 27.9118 129.335 Q 27.9588 128.582 28.2971 127.985 Q 28.35 127.862 28.4265 127.738 Q 28.6353 127.394 28.8941 127.203 Q 29.1176 127.035 29.4147 126.965 Q 29.4647 126.941 29.5147 126.941 Q 29.7676 126.894 30.0676 126.894 Q 35.1441 126.824 39.9147 125.765 Q 41.7647 125.365 43.5912 124.8 Q 44.9471 124.4 46.2794 123.953 Q 58.1706 119.788 68.25 112.918 Q 69.5912 111.835 71.05 111.906 Q 71.7559 111.953 72.3529 112.526 Q 72.9294 113.053 73.2118 113.876 Q 73.4706 114.703 73.7294 115.694 Q 74.3647 118.259 74.2941 120.635 Q 74.2706 121.388 73.8588 121.962 Q 73.6029 122.382 73.2706 122.697 Q 73.0676 122.865 72.8382 123.006 Q 66.7735 127.076 60.1441 130.182 Q 57.9471 131.241 55.6794 132.206 Q 53.8382 132.959 51.95 133.641 Q 49.9912 134.3 48.0794 135.006 Q 48.0029 135.029 47.95 135.029 L 47.95 135.006 Q 46.8441 135.359 45.7382 135.665 Q 45.5118 135.712 45.3088 135.759 Q 44.7618 135.947 44.2147 136.112 Q 44.1382 136.135 44.0382 136.159 Q 40.5088 137.124 36.8382 137.829 Q 34.15 138.371 31.7441 137.924 Q 30.9882 137.806 30.4147 137.303 Q 29.7941 136.776 29.4882 136 Q 28.9 134.338 28.4294 132.276 Q 28.1706 130.9 27.9353 129.429 L 27.9118 129.335" fill="#0066CC"/>
	</g>
</svg>
