<?xml version="1.0"?>
<!DOCTYPE svg PUBLIC "-//W3C//DTD SVG 1.1//EN" "http://www.w3.org/Graphics/SVG/1.1/DTD/svg11.dtd">
<svg version='1.1' width='9px' height='84px' xmlns='http://www.w3.org/2000/svg' xmlns:xlink='http://www.w3.org/1999/xlink'>
	<g transform="translate(-79.075,-107.075)">
		<path d="M 79.075 129 Q 79.0758 128.316 79.075 127.625 Q 79.0707 120.32 79.925 112.2 Q 80.2895 108.861 82.65 107.725 Q 88.1217 105.105 87.55 113.05 Q 86.9695 120.997 86.7 126.275 Q 86.634 127.595 86.6 128.85 Q 86.5979 128.925 86.6 129 Q 86.5252 133.423 86.6 137.4 L 86.675 137.4 Q 86.667 137.991 86.65 138.575 L 86.7 138.55 Q 86.6818 140.589 86.675 142.6 L 86.625 142.6 Q 86.5082 153.602 86.6 163.175 Q 86.598 163.376 86.6 163.575 Q 86.7301 171.149 87.225 177.125 Q 88.2422 189.315 83.85 190.825 Q 79.4547 192.339 79.35 184.3 Q 79.2865 178.652 79.4 163.575 Q 79.401 163.376 79.4 163.175 Q 79.4486 153.403 79.525 141.425 Q 79.3451 141.478 79.175 141.525 L 79.125 132.25 Q 79.0963 130.638 79.075 129 Z" fill="#0066CC"/>
	</g>
</svg>
