<?xml version="1.0"?>
<!DOCTYPE svg PUBLIC "-//W3C//DTD SVG 1.1//EN" "http://www.w3.org/Graphics/SVG/1.1/DTD/svg11.dtd">
<svg version='1.1' width='29px' height='47px' xmlns='http://www.w3.org/2000/svg' xmlns:xlink='http://www.w3.org/1999/xlink'>
	<g transform="translate(-233.083,-126.683)">
		<path d="M 233.083 138.767 Q 233.133 136.85 233.133 135.8 Q 233.117 135.067 233.2 134.417 Q 233.4 131.933 234.467 130.283 Q 234.5 130.217 234.533 130.15 Q 234.817 129.65 235.083 129.15 Q 236.95 128.45 238.783 127.933 Q 238.767 127.933 238.783 127.933 Q 242.55 126.867 246.4 126.75 Q 246.767 126.733 247.133 126.717 Q 247.167 126.717 247.183 126.717 Q 247.467 126.7 247.767 126.683 Q 250.4 126.733 252.767 127.483 Q 252.767 127.483 252.783 127.483 Q 253.567 127.733 254.35 128.117 Q 254.383 128.117 254.433 128.117 Q 254.433 128.117 254.433 128.117 Q 254.95 128.3 255.417 128.6 Q 255.4 128.583 255.4 128.583 Q 257 129.5 258.083 131.017 Q 258.817 132.017 259.317 133.317 Q 259.317 133.317 259.317 133.333 Q 260.35 136.317 260.867 140.1 Q 260.867 140.1 260.867 140.15 Q 261.05 141.5 261.067 142.933 Q 261.067 143.083 261.05 143.233 Q 261.083 143.8 261.1 144.367 Q 261.133 146.05 261.167 147.733 Q 261.217 151.2 261.233 154.617 Q 261.25 154.817 261.25 155.033 Q 261.217 156.1 261.25 157.233 L 261.25 157.283 Q 261.35 162.167 261.25 166.783 Q 261.283 169.45 261.167 171.6 Q 261.117 172.367 260.667 172.883 Q 260.267 173.333 259.767 173.433 Q 259.6 173.483 259.417 173.5 Q 259.05 173.517 258.683 173.517 Q 258.067 173.5 257.433 173.55 Q 256.283 173.583 254.9 172.983 Q 253.9 172.783 252.9 172.133 Q 252.267 171.917 251.833 171.283 Q 251.417 170.65 251.35 169.8 Q 251.117 165.617 250.867 160.667 L 250.867 160.65 Q 250.833 159.517 250.817 158.467 Q 250.55 154.85 250.383 151.1 Q 250.267 148.317 250.167 145.5 Q 250.15 145.217 250.133 144.933 Q 250.067 144.067 250.083 143.25 Q 250.083 143.15 250.1 143.067 Q 250.05 142.567 250.05 142.117 Q 249.817 141.75 249.583 141.333 Q 249.517 141.1 249.367 140.867 Q 249.367 140.833 249.367 140.833 Q 249.067 140.3 248.683 139.85 Q 248.3 139.05 247.467 138.5 Q 247.467 138.5 247.467 138.467 Q 246.75 137.783 245.65 137.517 Q 245.6 137.483 245.55 137.483 Q 244.217 137.067 242.183 137.05 Q 241.6 137.05 241.017 137.083 Q 239.2 137.25 237.467 137.783 Q 234.517 138.333 233.083 138.833 L 233.083 138.767" fill="#0066CC"/>
	</g>
</svg>
