<?xml version="1.0"?>
<!DOCTYPE svg PUBLIC "-//W3C//DTD SVG 1.1//EN" "http://www.w3.org/Graphics/SVG/1.1/DTD/svg11.dtd">
<svg version='1.1' width='46px' height='32px' xmlns='http://www.w3.org/2000/svg' xmlns:xlink='http://www.w3.org/1999/xlink'>
	<g transform="translate(-27.7279,-111.746)">
		<path d="M 27.7279 134.034 Q 27.7897 133.296 28.0618 132.684 Q 28.1 132.553 28.1691 132.422 Q 28.3338 132.049 28.5485 131.813 Q 28.7794 131.609 29.0912 131.516 Q 29.1412 131.485 29.1912 131.485 Q 29.4294 131.424 29.7294 131.424 Q 34.9235 131.331 39.7162 129.941 Q 41.5662 129.416 43.3853 128.675 Q 44.7118 128.15 46.0074 127.563 Q 57.5676 122.097 66.75 113.079 Q 68.0103 111.659 69.425 111.751 Q 70.1015 111.813 70.7132 112.394 Q 71.2824 112.913 71.6529 113.744 Q 71.9926 114.563 72.3324 115.599 Q 73.1662 118.215 73.0735 120.584 Q 73.0426 121.322 72.6897 121.903 Q 72.4632 122.346 72.1676 122.712 Q 71.9794 122.916 71.7721 123.101 Q 66.2809 128.444 60.0485 132.521 Q 57.9618 133.91 55.7824 135.176 Q 54.0221 136.165 52.2 137.06 Q 50.2853 137.925 48.4324 138.851 Q 48.3632 138.882 48.325 138.882 L 48.325 138.851 Q 47.2485 139.315 46.1721 139.716 Q 45.9529 139.778 45.7647 139.84 Q 45.2029 140.087 44.6412 140.303 Q 44.5721 140.334 44.4721 140.365 Q 40.9647 141.631 37.2721 142.557 Q 34.525 143.268 32.1485 142.681 Q 31.4221 142.526 30.8412 142.038 Q 30.1985 141.519 29.7971 140.75 Q 29.025 139.147 28.4074 137.019 Q 28.0676 135.65 27.7588 134.157 L 27.7279 134.034" fill="#0066CC"/>
	</g>
</svg>
