<?xml version="1.0"?>
<!DOCTYPE svg PUBLIC "-//W3C//DTD SVG 1.1//EN" "http://www.w3.org/Graphics/SVG/1.1/DTD/svg11.dtd">
<svg version='1.1' width='18px' height='70px' xmlns='http://www.w3.org/2000/svg' xmlns:xlink='http://www.w3.org/1999/xlink'>
	<g transform="translate(-156.833,-110.689)">
		<path d="M 156.833 113.133 Q 156.833 112.789 156.889 112.533 Q 157.076 112.276 157.32 112.113 Q 157.363 112.063 157.413 112.013 Q 157.75 111.67 158.193 111.426 Q 158.343 111.333 158.493 111.283 Q 158.743 111.146 159 111.046 Q 159.4 110.859 159.807 110.802 Q 160.25 110.702 160.657 110.689 Q 161.057 110.72 161.413 110.75 Q 162.811 111.028 163.67 111.778 Q 163.883 111.989 164.052 112.2 Q 164.435 112.622 164.774 113.087 Q 166.322 115.724 167.615 118.55 Q 168.563 120.637 169.328 122.793 Q 169.848 124.291 170.291 125.809 Q 170.291 125.852 170.298 125.902 Q 170.78 127.476 171.243 129.089 Q 171.7 130.696 172.093 132.385 Q 172.093 132.428 172.1 132.472 Q 172.265 133.133 172.417 133.85 Q 172.78 135.759 173.115 137.763 Q 173.078 137.82 173.128 137.883 Q 173.135 137.983 173.141 138.126 Q 173.217 138.707 173.287 139.287 L 173.28 139.287 Q 173.674 143.026 173.891 146.935 L 173.978 149.315 Q 173.978 149.515 174.022 149.715 Q 174.152 152.696 174.283 155.72 Q 174.37 157.363 174.413 159.007 Q 174.413 159.307 174.457 159.607 Q 174.63 166.087 174.543 172.741 Q 174.543 173.885 174.413 175.072 Q 174.283 175.809 174.152 176.546 Q 174.065 176.946 173.996 177.383 Q 173.889 177.77 173.77 178.15 Q 173.487 178.824 173.215 179.489 Q 173.165 179.533 173.072 179.576 Q 172.528 179.793 171.985 180.054 Q 171.041 180.446 169.967 180.576 Q 169.124 180.707 168.324 180.446 Q 166.793 179.967 165.959 179.098 Q 165.959 179.098 165.959 179.098 Q 165.589 178.657 165.407 178.196 Q 165.374 178.046 165.348 177.889 Q 165.27 177.296 165.27 176.676 Q 165.313 174.839 165.357 173.052 Q 165.357 172.659 165.357 172.309 Q 165.487 169.822 165.574 167.378 Q 165.617 164.948 165.661 162.517 Q 165.661 161.03 165.704 159.543 Q 165.704 158.5 165.704 157.543 Q 165.704 152.02 165.4 146.496 Q 165.4 146.346 165.4 146.202 Q 165.3 144.933 165.161 143.715 Q 165.154 143.672 165.154 143.622 Q 165.002 142.491 164.798 141.426 Q 164.53 140.124 164.198 138.887 Q 164.191 138.88 164.191 138.88 Q 163.733 137.146 163.224 135.5 Q 162.741 133.63 162.163 131.807 Q 161.885 131.087 161.607 130.417 Q 161.6 130.374 161.6 130.33 Q 161.087 128.891 160.537 127.472 Q 159.93 125.885 159.33 124.361 Q 159.198 124.033 159.059 123.685 Q 158.989 123.511 158.913 123.337 Q 158.678 122.772 158.476 122.178 Q 158.267 121.367 158.05 120.567 Q 157.963 120.124 157.876 119.68 Q 157.572 117.987 157.224 116.38 Q 157.05 114.843 156.833 113.307 L 156.833 113.133" fill="#0066CC"/>
	</g>
</svg>
