<?xml version="1.0"?>
<!DOCTYPE svg PUBLIC "-//W3C//DTD SVG 1.1//EN" "http://www.w3.org/Graphics/SVG/1.1/DTD/svg11.dtd">
<svg version='1.1' width='96px' height='239px' xmlns='http://www.w3.org/2000/svg' xmlns:xlink='http://www.w3.org/1999/xlink'>
	<g transform="translate(47.7537,119.35)">
		<path d="M 180.425 63.625 Q 185.5 65.9859 178.575 69.45 Q 174.384 71.5486 171.175 70.075 Q 156.643 63.4754 147.975 53.625 Q 147.536 54.3297 137.675 60.675 Q 127.812 67.0143 117.275 67.05 Q 106.734 67.0957 105.05 64.55 Q 103.364 61.9904 112.425 60.75 Q 121.527 59.5174 129.425 56.525 Q 137.285 53.5287 144.475 49.85 L 144.425 49.95 Q 144.742 50.0164 145.05 50.075 Q 141.358 44.9982 139.05 39.15 Q 136.441 32.5928 144.575 29.1 Q 145.964 28.5051 147.675 28 Q 148.514 28.1111 149.325 28.275 Q 149.727 28.3236 150.1 28.425 Q 150.459 28.7346 150.6 29.1 Q 150.702 29.3498 150.7 29.625 Q 150.978 38.7691 156.975 46.075 Q 165.819 56.7938 180.425 63.625 Z M 181.7 80.7 Q 185.039 81.0643 186.175 83.425 Q 188.795 88.8963 180.85 88.325 Q 172.903 87.7447 167.625 87.475 Q 162.346 87.2111 158 87.45 Q 161.254 97.0916 166.25 105.125 Q 167.688 107.431 165.075 108.95 Q 159.45 112.16 151.55 110.275 Q 144.659 108.596 137.625 107.6 Q 127.886 106.284 118.075 105.125 Q 115.315 104.757 114.9 102.55 Q 114.322 99.608 118.15 98.925 Q 123.631 97.9734 129.325 98.125 Q 141.478 98.5508 151.5 100.5 Q 148.79 94.4711 147.1 87.5 Q 128.556 87.0039 116.55 88.025 Q 104.536 89.0428 103.05 84.65 Q 101.554 80.2551 109.475 80.15 Q 117.405 80.0482 144.2 80.3 Q 141.484 72.3832 149.775 69.175 Q 150.637 69.2861 151.5 69.45 Q 153.906 70.0234 155.175 71.7 Q 155.856 75.5252 156.65 79.95 L 162.9 79.9 Q 171.68 79.6461 181.7 80.7 Z M 167.65 134.45 Q 168.21 135.203 168.725 135.975 Q 169.69 137.429 170.5 138.95 Q 172.746 143.24 173 147.95 Q 173.157 150.928 172.85 153.7 Q 172.369 158.313 170 162.35 Q 167.885 166.1 164.45 168.55 Q 164.414 168.601 164.35 168.65 Q 160.939 171.13 156.8 172.25 Q 156.566 172.315 156.325 172.375 Q 156.243 172.426 156.15 172.45 Q 153.772 172.97 151.475 173.05 L 151.45 173.05 Q 151.141 173.087 150.825 173.125 Q 151.008 173.965 150.9 174.65 L 150.9 174.7 Q 150.873 175.189 150.775 175.55 Q 150.926 176.051 150.85 176.6 Q 150.994 176.942 151.025 177.325 Q 156.317 177.47 161.575 177.85 Q 165.47 178.132 169.35 178.55 Q 175.9 179.35 181.95 181.05 Q 182.85 181.35 183.7 181.8 Q 184.75 182.45 185.25 183.7 Q 185.35 184 185.4 184.35 Q 185.45 184.7 185.35 185.1 Q 185.3 185.45 185.15 185.8 Q 185 186.15 184.75 186.5 Q 184.5 186.9 184.15 187.25 Q 183.95 187.5 183.65 187.75 Q 183.35 187.8 183 187.85 Q 181.15 187.7 179.3 187.6 Q 177.5 187.35 175.65 187.15 Q 167.95 186 160.1 185.05 Q 144.95 183.85 129.95 184.6 Q 128.85 184.66 127.75 184.725 Q 126.1 184.83 124.45 184.95 Q 121.75 185.1 119.05 185.3 Q 116.35 185.5 113.6 185.75 Q 110.4 185.95 107.15 186.2 Q 105.15 185.75 104.15 183.9 Q 103.75 183.2 103.85 182.45 Q 103.95 181.5 104.4 180.65 Q 104.7 180.05 105.05 179.55 Q 106.25 179.2 107.45 178.85 Q 108.75 178.6 110 178.35 Q 111.3 178.15 112.6 178.1 Q 120.255 177.579 127.75 177.45 Q 129.605 177.41 131.45 177.4 Q 136.85 177.35 142.25 177.3 Q 142.82 177.292 143.4 177.275 Q 143.258 176.613 143.3 176.05 Q 143.267 175.936 143.25 175.8 Q 143.215 175.428 143.275 175.125 Q 143.207 174.731 143.275 174.425 Q 143.259 174.363 143.25 174.3 Q 143.234 174.171 143.225 174.05 L 143.175 174.05 Q 139.785 173.623 136.7 172.25 Q 135.499 171.721 134.35 171.05 Q 132.471 169.98 130.8 168.65 Q 130.731 168.589 130.7 168.5 L 130.675 168.475 Q 127.255 165.577 124.9 161.725 Q 124.842 161.665 124.8 161.6 Q 122.09 157.216 121.25 152 Q 120.678 148.352 121.2 144.6 Q 121.567 142.197 122.35 139.95 Q 123.192 137.57 124.45 135.45 Q 126.758 131.493 130.75 128.8 Q 130.833 128.747 130.925 128.725 Q 132.642 127.536 134.45 126.475 Q 134.511 126.417 134.575 126.375 Q 134.613 126.36 134.65 126.35 Q 136.725 125.621 138.8 125.15 Q 138.859 125.139 138.925 125.15 Q 140.986 124.555 143.1 124.2 L 143.2 124.2 Q 143.45 124.17 143.7 124.15 L 143.725 124.15 Q 147.768 123.777 151.9 124.35 Q 156.317 125.035 160 127.4 Q 162.104 128.796 163.95 130.45 Q 166.034 132.268 167.65 134.45 Z M 112.075 229.025 Q 107.654 229.139 103.375 228 Q 95.3105 225.977 101.45 220.4 Q 108.034 221.426 123.475 221.5 Q 138.915 221.576 163.45 220.25 Q 160.287 217.995 160.75 215.95 Q 161.998 210.737 166.1 213.75 Q 176.03 221.02 187.925 220.675 Q 190.494 220.618 192.025 221.4 Q 194.914 222.885 194.125 227.35 Q 193.813 229.206 192.125 229.075 Q 192.075 229.071 192.025 229.075 Q 172.969 227.604 153.75 228.05 Q 132.913 228.537 112.075 229.025 Z M 130.35 233.9 Q 146.902 234.69 157.825 234.15 Q 168.748 233.605 172.8 233.15 Q 173.346 233.09 173.9 233.05 Q 176.045 232.901 178.45 233.05 Q 180.134 233.153 181.95 233.4 Q 186.459 233.99 184.8 237.225 Q 182.669 241.467 175.825 241.25 Q 147.6 240.402 119.375 241.975 Q 116.488 242.14 113.8 241.6 Q 102.86 239.371 110.375 233.15 Q 110.724 233.095 111.075 233.05 Q 111.522 232.993 111.975 232.95 Q 112.363 232.877 112.775 232.85 Q 113.082 232.926 114.775 233.05 Q 118.75 233.342 130.35 233.9 Z M 130.175 211.5 Q 126.923 211.285 124.425 210.15 Q 115.531 206.047 124.975 202.45 Q 145.883 203.986 167.6 204.25 Q 173.641 204.33 172.65 208.75 Q 172.35 209.862 171.05 210.05 Q 151.19 212.885 130.175 211.5 Z M 150.325 241.85 Q 150.85 241.95 151.375 242.1 Q 152.878 242.65 153.675 244.25 Q 155.261 250.55 158.125 256.35 Q 159.805 259.8 160.25 263.55 Q 160.645 267.05 157.425 266.75 Q 153.897 266.5 150.325 266.55 Q 146.088 266.65 142.6 264.4 Q 141.007 263.35 141.75 261.6 Q 144.271 255.7 151.025 258.25 Q 150.23 255.9 148.95 253.75 Q 144.192 245.8 150.325 241.85 Z M 164.15 150.775 L 164.15 150.725 Q 163.849 146.917 162.65 143.25 Q 161.309 139.262 158.075 136.65 Q 157.701 136.339 157.3 136.05 Q 155.798 135.028 154.2 134.2 Q 154.175 134.188 154.15 134.175 Q 154.124 134.162 154.1 134.15 Q 153.184 133.554 152.15 133.275 Q 152.073 133.275 152 133.25 Q 150.723 132.834 149.4 132.6 L 149.375 132.6 Q 146.565 132.313 143.8 132.65 Q 142.52 132.807 141.25 133.1 Q 136.982 134.039 133.75 137.05 Q 133.681 137.109 133.6 137.15 Q 132.675 138.008 132 139.1 Q 131.992 139.178 131.95 139.25 Q 129.969 142.447 129.55 146.4 Q 129.072 150.337 130.65 153.9 Q 131.909 156.595 133.7 159 Q 134.824 160.489 136.275 161.65 Q 136.352 161.708 136.4 161.8 L 136.425 161.825 Q 137.754 162.935 139.25 163.8 Q 139.968 164.24 140.725 164.575 Q 140.808 164.6 140.875 164.65 Q 141.158 164.921 141.525 165.1 Q 142.963 165.8 144.45 166.45 Q 144.691 166.543 144.9 166.575 Q 145.011 166.599 145.1 166.675 Q 145.125 166.696 145.15 166.725 Q 145.714 166.848 146.3 166.95 Q 146.737 167.014 147.175 167.175 Q 147.214 167.197 147.25 167.225 Q 147.338 167.278 147.425 167.35 Q 147.48 167.268 147.55 167.2 L 147.6 167.15 Q 147.958 166.832 148.35 166.6 Q 148.398 166.569 148.45 166.55 Q 148.629 166.495 148.8 166.4 Q 148.849 166.37 148.9 166.35 Q 148.924 166.336 148.95 166.325 Q 150.977 165.667 153.05 165.2 Q 156.463 164.481 159.075 162.2 Q 159.106 162.15 159.15 162.1 Q 159.896 161.417 160.55 160.55 Q 161.525 159.174 162.5 157.65 Q 164.424 154.533 164.15 150.775 Z" transform="translate(-146.55,-147.35)" fill="#0066CC"/>
	</g>
</svg>
