<?xml version="1.0"?>
<!DOCTYPE svg PUBLIC "-//W3C//DTD SVG 1.1//EN" "http://www.w3.org/Graphics/SVG/1.1/DTD/svg11.dtd">
<svg version='1.1' width='42px' height='52px' xmlns='http://www.w3.org/2000/svg' xmlns:xlink='http://www.w3.org/1999/xlink'>
	<g transform="translate(-69,-127.332)">
		<path d="M 69 143.542 Q 69.1 142.642 69.3079 141.8 Q 69.3605 141.55 69.4158 141.303 Q 69.4158 141.253 69.4184 141.205 Q 70.1184 139.268 71.5658 138.187 Q 72.4026 138.026 73.2474 137.876 Q 73.5421 137.826 73.8395 137.779 Q 76.6316 137.311 79.7711 136.758 Q 79.7737 136.758 79.7763 136.711 Q 80.6184 136.574 81.4632 136.437 L 81.4658 136.437 L 87.2395 135.416 Q 87.1974 135.463 87.25 135.511 Q 87.4974 135.416 87.7447 135.324 Q 87.7947 135.324 87.8447 135.326 Q 93.4026 133.497 98.4184 131.021 Q 99.0079 130.716 99.6158 130.429 Q 100.305 130.087 100.976 129.776 Q 102.505 128.984 103.942 128.221 Q 103.989 128.221 104.037 128.224 Q 104.429 128.005 104.821 127.742 Q 105.695 127.258 106.424 127.345 Q 107.637 127.453 108.558 129.087 Q 108.85 129.632 109.092 130.176 Q 109.189 130.376 109.287 130.579 Q 109.995 132.318 110.284 134.271 Q 110.284 134.371 110.284 134.471 Q 110.795 138.15 109.808 142.526 Q 109.432 144.116 109.105 145.711 Q 109.105 145.761 109.105 145.811 Q 108.492 148.784 107.982 151.829 Q 107.982 151.829 107.982 151.829 Q 107.608 154.111 107.332 156.4 Q 106.913 159.429 106.545 162.516 Q 106.224 165.197 105.953 167.887 Q 105.953 167.987 105.953 168.087 Q 105.518 171.774 104.961 175.292 Q 104.905 175.534 104.847 175.774 Q 104.789 176.013 104.732 176.25 Q 104.679 176.442 104.629 176.632 Q 104.461 177.208 104.15 177.629 Q 103.992 177.866 103.787 178.05 Q 103.134 178.611 102.205 178.732 Q 99.3263 179.239 98.6737 175.429 Q 98.6211 175.174 98.5711 174.918 Q 97.6526 169.647 97.8132 164.347 Q 97.8947 162.058 98.0316 159.868 Q 98.0316 159.868 98.0316 159.866 Q 98.5132 150.342 100.042 142.284 Q 99.4737 142.534 98.8605 142.739 Q 95.2711 144.189 91.3263 145.342 Q 91.1789 145.392 91.0316 145.439 Q 89.1421 145.976 87.1579 146.466 Q 87.1053 146.513 87.1474 146.561 L 84.2579 147.632 Q 84.2079 147.632 84.1579 147.634 Q 82.0079 148.453 79.8763 149.242 Q 79.8763 149.242 79.8763 149.289 Q 72.5526 151.561 69.3816 144.426 Q 69.2342 144.126 69.0947 143.826 L 69 143.542" fill="#0066CC"/>
	</g>
</svg>
