<?xml version="1.0"?>
<!DOCTYPE svg PUBLIC "-//W3C//DTD SVG 1.1//EN" "http://www.w3.org/Graphics/SVG/1.1/DTD/svg11.dtd">
<svg version='1.1' width='9px' height='82px' xmlns='http://www.w3.org/2000/svg' xmlns:xlink='http://www.w3.org/1999/xlink'>
	<g transform="translate(-79.4324,-107.677)">
		<path d="M 79.4324 126.715 Q 79.4324 125.962 79.4647 125.179 Q 79.4971 124.25 79.5471 123.356 Q 79.85 119.262 80.4853 114.979 Q 80.6265 113.944 80.7559 112.944 Q 80.8206 112.535 80.8765 112.132 Q 80.9294 111.679 81.0235 111.279 Q 81.5412 108.982 83.4235 108.191 Q 88.5529 105.926 88.0353 113.638 Q 87.4706 121.432 87.2353 126.732 Q 87.1882 128.018 87.1412 129.256 Q 87.1412 129.356 87.1412 129.409 Q 87.0941 133.747 87.1412 137.709 L 87.2353 137.715 Q 87.1882 138.309 87.1882 138.903 L 87.2353 138.862 Q 87.2353 140.888 87.2353 142.868 L 87.1882 142.874 Q 87.0471 153.718 87.1412 163.244 Q 87.1412 163.441 87.1412 163.638 Q 87.1882 167.132 87.3294 170.297 Q 87.3765 171.05 87.3912 171.788 Q 87.4029 172.574 87.4029 173.279 Q 87.4059 175.115 87.4588 176.809 Q 87.5735 179.397 87.4059 181.468 Q 87.3559 182.315 87.2765 183.035 Q 87.15 183.991 86.9618 184.791 Q 86.2088 188.635 83.9029 189.279 Q 79.7618 190.471 79.6676 182.674 Q 79.6206 176.885 79.7147 162.25 Q 79.7147 162.053 79.7147 161.856 Q 79.7618 152.126 79.8559 140.374 Q 79.6676 140.409 79.5265 140.444 L 79.4794 131.25 Q 79.4324 129.668 79.4324 128.038 Q 79.4324 127.4 79.4324 126.809 L 79.4324 126.715" fill="#0066CC"/>
	</g>
</svg>
