<?xml version="1.0"?>
<!DOCTYPE svg PUBLIC "-//W3C//DTD SVG 1.1//EN" "http://www.w3.org/Graphics/SVG/1.1/DTD/svg11.dtd">
<svg version='1.1' width='10px' height='66px' xmlns='http://www.w3.org/2000/svg' xmlns:xlink='http://www.w3.org/1999/xlink'>
	<g transform="translate(-82.0912,-111.415)">
		<path d="M 82.0912 119.232 Q 82.0912 118.456 82.3824 117.815 Q 82.6735 117.05 83.1235 116.603 Q 85.05 114.556 87.1676 112.415 Q 87.6382 111.897 88.0029 111.697 Q 88.1853 111.618 88.2882 111.591 Q 88.3647 111.515 88.4118 111.515 Q 88.6706 111.241 89.6118 111.721 Q 92.1765 112.538 91.9176 118.344 Q 91.6353 124.891 91.5176 130.191 Q 91.4941 131.359 91.4706 132.503 Q 91.4706 132.603 91.4706 132.679 Q 91.4471 136.524 91.4706 140.179 L 91.5176 140.232 Q 91.4941 140.779 91.4941 141.326 L 91.5176 141.356 Q 91.5176 143.194 91.5176 145.009 L 91.4941 145.062 Q 91.4235 154.659 91.4706 163.597 Q 91.4706 163.771 91.4706 163.944 Q 91.4941 166.991 91.5647 169.874 Q 91.5882 170.65 91.3206 171.294 Q 91.0265 171.962 90.6265 172.315 Q 89.8529 173.232 89.1294 174.079 Q 88.1618 175.374 87.0529 176.409 Q 86.6029 176.832 86.2882 176.918 Q 85.95 177.121 85.8559 177.121 Q 85.4794 177.718 84.3265 176.715 Q 82.2559 175.435 82.2088 169.662 Q 82.1853 162.768 82.2324 151.45 Q 82.2324 151.276 82.2324 151.103 Q 82.2559 141.938 82.3029 131.762 Q 82.2088 131.679 82.1382 131.597 L 82.1147 123.25 Q 82.0912 121.809 82.0912 120.344 Q 82.0912 119.8 82.0912 119.279 L 82.0912 119.232" fill="#0066CC"/>
	</g>
</svg>
