<?xml version="1.0"?>
<!DOCTYPE svg PUBLIC "-//W3C//DTD SVG 1.1//EN" "http://www.w3.org/Graphics/SVG/1.1/DTD/svg11.dtd">
<svg version='1.1' width='30px' height='47px' xmlns='http://www.w3.org/2000/svg' xmlns:xlink='http://www.w3.org/1999/xlink'>
	<g transform="translate(-90.4667,-125.949)">
		<path d="M 90.4667 130 Q 91 129.267 91.7333 128.683 Q 91.7667 128.633 91.8167 128.633 Q 92.6 127.9 93.4833 127.35 Q 93.45 127.35 93.45 127.35 Q 94.4167 126.733 95.5667 126.417 Q 95.7667 126.367 95.9833 126.333 Q 98.5167 125.867 101.25 125.967 Q 101.917 126 102.6 126.067 Q 102.65 126.067 102.683 126.067 Q 105.5 126.267 108.017 126.983 Q 108.067 126.983 108.117 127 Q 111.183 127.683 113.567 129.033 Q 114.867 129.683 115.917 130.5 Q 116.217 130.667 116.6 130.983 Q 116.933 131.283 117.417 131.817 Q 118.133 132.767 118.733 134.333 Q 118.733 134.367 118.733 134.417 Q 119.533 136.783 119.883 139.767 Q 119.883 139.817 119.883 139.917 Q 119.9 140.083 119.917 140.267 Q 119.9 141.783 119.933 143.45 Q 119.933 143.55 119.933 143.65 Q 119.833 148.117 119.967 152.967 Q 119.967 153.017 119.967 153.067 Q 119.983 155.467 120.05 158.017 L 120.05 158.017 Q 120.133 162.833 120.3 167.9 Q 120.283 168.667 119.933 169.267 Q 119.55 169.867 119.033 170.117 Q 118.75 170.267 118.5 170.417 Q 118.433 170.45 118.367 170.483 Q 116.383 171.933 113.617 172.317 Q 113.467 172.35 113.3 172.367 Q 113.133 172.383 112.967 172.383 Q 112.867 172.4 112.783 172.367 Q 112.333 172.3 111.983 172.067 Q 111.9 172.033 111.817 171.983 Q 111.583 171.817 111.383 171.617 Q 111.133 171.35 111 171.017 Q 110.283 168.933 110.05 165.883 Q 109.433 159.617 109.333 153.6 L 109.333 153.583 Q 109.217 150.05 109.167 146.683 Q 109.133 143.883 108.983 141.467 Q 108.983 141.433 108.983 141.433 Q 108.783 139.467 108.483 138.117 Q 108.417 138.05 108.35 137.983 Q 108.35 138.017 108.383 138.017 Q 107.533 137.417 106.4 137.183 Q 106.3 137.15 106.233 137.15 Q 104.783 136.833 102.767 136.9 Q 102.65 136.9 102.533 136.9 Q 102.433 136.917 102.333 136.917 Q 100.2 137.133 97.9667 138 Q 97.25 138.25 96.5333 138.533 Q 96.4833 138.533 96.4333 138.55 Q 94.65 139.3 93.0667 139.983 Q 91.0667 136.2 90.4833 130.467 Q 90.4667 130.267 90.4667 130.067 L 90.4667 130" fill="#0066CC"/>
	</g>
</svg>
