<?xml version="1.0"?>
<!DOCTYPE svg PUBLIC "-//W3C//DTD SVG 1.1//EN" "http://www.w3.org/Graphics/SVG/1.1/DTD/svg11.dtd">
<svg version='1.1' width='44px' height='39px' xmlns='http://www.w3.org/2000/svg' xmlns:xlink='http://www.w3.org/1999/xlink'>
	<g transform="translate(-27.4706,-111.528)">
		<path d="M 27.4706 140.612 Q 27.5529 139.894 27.7324 139.262 Q 27.75 139.121 27.8088 138.979 Q 27.9118 138.565 28.0647 138.268 Q 28.3059 138.012 28.6382 137.888 Q 28.6882 137.847 28.7382 137.847 Q 28.9559 137.765 29.2559 137.765 Q 34.6147 137.641 39.4382 135.788 Q 41.2882 135.088 43.0971 134.1 Q 44.3824 133.4 45.6265 132.618 Q 56.7235 125.329 64.65 113.306 Q 65.7971 111.412 67.15 111.535 Q 67.7853 111.618 68.4176 112.209 Q 68.9765 112.718 69.4706 113.559 Q 69.9235 114.368 70.3765 115.465 Q 71.4882 118.153 71.3647 120.512 Q 71.3235 121.229 71.0529 121.821 Q 70.8676 122.294 70.6235 122.732 Q 70.4559 122.988 70.2794 123.235 Q 65.5912 130.359 59.9147 135.794 Q 57.9824 137.647 55.9265 139.335 Q 54.2794 140.653 52.55 141.847 Q 50.6971 143 48.9265 144.235 Q 48.8676 144.276 48.85 144.276 L 48.85 144.235 Q 47.8147 144.853 46.7794 145.388 Q 46.5706 145.471 46.4029 145.553 Q 45.8206 145.882 45.2382 146.171 Q 45.1794 146.212 45.0794 146.253 Q 41.6029 147.941 37.8794 149.176 Q 35.05 150.124 32.7147 149.341 Q 32.0294 149.135 31.4382 148.668 Q 30.7647 148.159 30.2294 147.4 Q 29.2 145.879 28.3765 143.659 Q 27.9235 142.3 27.5118 140.776 L 27.4706 140.612" fill="#0066CC"/>
	</g>
</svg>
