<?xml version="1.0"?>
<!DOCTYPE svg PUBLIC "-//W3C//DTD SVG 1.1//EN" "http://www.w3.org/Graphics/SVG/1.1/DTD/svg11.dtd">
<svg version='1.1' width='21px' height='67px' xmlns='http://www.w3.org/2000/svg' xmlns:xlink='http://www.w3.org/1999/xlink'>
	<g transform="translate(-153.415,-112.978)">
		<path d="M 153.415 115.415 Q 153.415 115.078 153.478 114.815 Q 153.652 114.552 153.889 114.376 Q 153.926 114.326 153.976 114.276 Q 154.3 113.939 154.737 113.702 Q 154.887 113.615 155.037 113.565 Q 155.287 113.441 155.55 113.341 Q 155.95 113.167 156.363 113.104 Q 156.8 113.004 157.213 112.978 Q 157.613 112.989 157.976 113 Q 159.322 113.207 160.239 113.807 Q 160.465 113.978 160.654 114.15 Q 161.07 114.493 161.448 114.874 Q 163.243 117.048 164.83 119.45 Q 166.026 121.224 167.007 123.087 Q 167.696 124.383 168.283 125.717 Q 168.283 125.754 168.296 125.804 Q 168.961 127.202 169.587 128.678 Q 170.2 130.141 170.737 131.72 Q 170.737 131.757 170.75 131.793 Q 170.98 132.415 171.185 133.1 Q 171.711 134.917 172.13 136.876 Q 172.107 136.939 172.157 137.015 Q 172.17 137.115 172.183 137.252 Q 172.285 137.813 172.374 138.374 L 172.361 138.374 Q 172.898 142.002 173.083 145.97 L 173.157 148.33 Q 173.157 148.53 173.193 148.73 Q 173.304 151.691 173.415 154.689 Q 173.489 156.326 173.526 157.963 Q 173.526 158.263 173.563 158.563 Q 173.711 165.024 173.637 171.633 Q 173.637 172.77 173.526 173.943 Q 173.415 174.667 173.304 175.391 Q 173.23 175.791 173.141 176.215 Q 173.028 176.589 172.889 176.95 Q 172.574 177.598 172.23 178.178 Q 172.18 178.215 172.093 178.252 Q 171.557 178.437 171.02 178.659 Q 170.083 178.991 169.035 179.102 Q 168.198 179.213 167.398 178.991 Q 165.887 178.585 164.967 177.846 Q 164.967 177.846 164.967 177.846 Q 164.578 177.463 164.363 177.041 Q 164.298 176.891 164.246 176.728 Q 164.089 176.141 164.089 175.502 Q 164.126 173.678 164.163 171.904 Q 164.163 171.517 164.163 171.167 Q 164.274 168.693 164.348 166.257 Q 164.385 163.846 164.422 161.435 Q 164.422 159.961 164.459 158.487 Q 164.459 157.45 164.459 156.487 Q 164.459 150.989 164.2 145.491 Q 164.2 145.341 164.2 145.204 Q 164.1 143.915 163.922 142.73 Q 163.909 142.693 163.909 142.643 Q 163.704 141.533 163.396 140.552 Q 163.011 139.348 162.496 138.274 Q 162.483 138.261 162.483 138.261 Q 161.815 136.741 161.098 135.35 Q 160.433 133.761 159.626 132.263 Q 159.27 131.674 158.913 131.135 Q 158.9 131.098 158.9 131.061 Q 158.224 129.883 157.524 128.743 Q 156.761 127.47 156.011 126.272 Q 155.846 126.015 155.667 125.72 Q 155.578 125.572 155.476 125.424 Q 155.157 124.943 154.902 124.357 Q 154.635 123.585 154.45 122.785 Q 154.376 122.348 154.302 121.911 Q 154.043 120.224 153.748 118.611 Q 153.6 117.087 153.415 115.563 L 153.415 115.415" fill="#0066CC"/>
	</g>
</svg>
