<?xml version="1.0"?>
<!DOCTYPE svg PUBLIC "-//W3C//DTD SVG 1.1//EN" "http://www.w3.org/Graphics/SVG/1.1/DTD/svg11.dtd">
<svg version='1.1' width='27px' height='25px' xmlns='http://www.w3.org/2000/svg' xmlns:xlink='http://www.w3.org/1999/xlink'>
	<g transform="translate(-238.85,-134.275)">
		<path d="M 238.85 141.968 Q 238.937 141.234 239.061 140.668 Q 239.147 140.234 239.258 140.011 Q 239.392 139.516 239.642 139.124 Q 240.139 138.108 241.263 137.618 Q 241.742 137.479 242.274 137.392 Q 242.337 137.392 242.4 137.392 Q 247.318 136.868 251.658 135.603 Q 251.695 135.603 251.745 135.603 Q 251.958 135.516 252.184 135.429 Q 253.911 134.921 255.653 134.513 Q 255.653 134.513 255.666 134.513 Q 256.047 134.479 256.455 134.471 Q 256.518 134.447 256.582 134.424 Q 256.582 134.424 256.595 134.424 Q 256.595 134.424 256.595 134.424 Q 256.961 134.326 257.313 134.332 Q 257.3 134.318 257.3 134.318 Q 259.282 134.118 260.55 134.85 Q 260.587 134.85 260.624 134.863 Q 261.766 135.255 263.024 135.897 Q 263.368 136.058 263.689 136.268 Q 263.726 136.268 263.763 136.282 Q 264.503 136.7 264.895 137.426 Q 264.932 137.503 264.955 137.579 Q 265.571 138.724 265.5 140.421 Q 265.5 140.461 265.5 140.5 Q 265.429 142.808 265.405 145.076 Q 265.418 145.203 265.418 145.342 Q 265.392 146.084 265.418 146.879 Q 265.418 146.916 265.418 146.966 Q 265.445 148.053 265.458 149.113 Q 265.471 151.384 265.124 153.476 Q 264.845 156.618 263.626 158.137 Q 263.461 158.25 263.255 158.324 Q 263.242 158.324 263.229 158.324 Q 262.874 158.532 262.505 158.718 Q 261.866 159.15 260.932 158.676 Q 260.508 158.571 260.047 158.174 Q 256.724 155.976 256.332 150.384 Q 256.332 150.384 256.332 150.371 Q 256.305 149.624 256.366 148.905 Q 256.358 147.432 256.671 145.808 Q 255.929 145.595 255.25 145.442 Q 254.089 145.161 253.053 144.974 Q 252.929 144.942 252.805 144.911 Q 252.458 144.858 252.203 144.808 Q 252.166 144.782 252.142 144.768 Q 251.945 144.711 251.787 144.666 Q 251.408 144.776 251.029 144.784 Q 250.489 144.839 249.713 144.897 Q 247.303 145.545 243.676 145.039 Q 240.016 144.511 238.85 141.995 L 238.85 141.968" fill="#0066CC"/>
	</g>
</svg>
