<?xml version="1.0"?>
<!DOCTYPE svg PUBLIC "-//W3C//DTD SVG 1.1//EN" "http://www.w3.org/Graphics/SVG/1.1/DTD/svg11.dtd">
<svg version='1.1' width='28px' height='45px' xmlns='http://www.w3.org/2000/svg' xmlns:xlink='http://www.w3.org/1999/xlink'>
	<g transform="translate(-189.797,-125.384)">
		<path d="M 215.15 126.35 L 215.525 128 Q 215.563 128.596 215.475 129.2 Q 215.443 131.979 215.7 136.05 Q 215.809 138.12 216 140.525 Q 216.748 149.935 217.4 156.275 L 217.375 156.325 Q 217.334 157.235 217.55 158.275 Q 217.571 158.856 217.575 159.4 Q 218 163.4 216.2 167 Q 215.7 168 214.85 168.7 Q 213.65 169.7 212.15 169.6 Q 210.3 170 209.25 168.65 Q 208.65 167.9 208.3 166.95 Q 208.038 166.181 207.875 165.4 L 207.3 151.8 Q 207.109 146.502 207.1 139.95 Q 207.05 138.3 206.95 136.7 Q 206.85 135.75 206.35 135.6 Q 201.75 133.4 195.825 134.925 Q 194.553 135.06 193.325 135.1 L 193.3 135.1 Q 191.245 135.066 190.5 133.775 L 190.5 133.725 Q 189.564 132.43 189.875 131.3 Q 189.758 129.569 191.425 128.2 Q 193.35 126.9 195.45 126.2 Q 198.1 125.35 201 125.7 Q 204.45 125.05 207.6 126.35 Q 207.739 126.381 207.875 126.375 Q 207.892 126.425 207.9 126.475 Q 208.258 126.42 208.6 126.325 Q 209.35 126 210.2 125.8 Q 213 124.75 215.15 126.35 Z" fill="#0066CC"/>
	</g>
</svg>
