<?xml version="1.0"?>
<!DOCTYPE svg PUBLIC "-//W3C//DTD SVG 1.1//EN" "http://www.w3.org/Graphics/SVG/1.1/DTD/svg11.dtd">
<svg version='1.1' width='45px' height='36px' xmlns='http://www.w3.org/2000/svg' xmlns:xlink='http://www.w3.org/1999/xlink'>
	<g transform="translate(-27.5809,-111.621)">
		<path d="M 27.5809 137.793 Q 27.6544 137.066 27.8735 136.443 Q 27.9 136.306 27.9632 136.169 Q 28.0926 135.772 28.2721 135.501 Q 28.5088 135.268 28.8324 135.157 Q 28.8824 135.121 28.9324 135.121 Q 29.1588 135.047 29.4588 135.047 Q 34.7471 134.937 39.5574 133.282 Q 41.4074 132.657 43.2206 131.775 Q 44.5235 131.15 45.7897 130.451 Q 57.0853 123.944 65.55 113.209 Q 66.7456 111.518 68.125 111.628 Q 68.7779 111.701 69.4015 112.288 Q 69.9647 112.801 70.4059 113.638 Q 70.8103 114.451 71.2147 115.522 Q 72.2074 118.179 72.0971 120.543 Q 72.0603 121.269 71.7544 121.856 Q 71.5515 122.316 71.2853 122.724 Q 71.1088 122.957 70.9191 123.178 Q 65.8868 129.538 59.9721 134.391 Q 57.9735 136.046 55.8647 137.553 Q 54.1691 138.729 52.4 139.796 Q 50.5206 140.825 48.7147 141.928 Q 48.6515 141.965 48.625 141.965 L 48.625 141.928 Q 47.5721 142.479 46.5191 142.957 Q 46.3059 143.031 46.1294 143.104 Q 45.5559 143.399 44.9824 143.656 Q 44.9191 143.693 44.8191 143.729 Q 41.3294 145.237 37.6191 146.34 Q 34.825 147.185 32.4721 146.487 Q 31.7691 146.303 31.1824 145.826 Q 30.5221 145.313 30.0441 144.55 Q 29.125 142.994 28.3897 140.813 Q 27.9853 139.45 27.6176 137.94 L 27.5809 137.793" fill="#0066CC"/>
	</g>
</svg>
