<?xml version="1.0"?>
<!DOCTYPE svg PUBLIC "-//W3C//DTD SVG 1.1//EN" "http://www.w3.org/Graphics/SVG/1.1/DTD/svg11.dtd">
<svg version='1.1' width='31px' height='40px' xmlns='http://www.w3.org/2000/svg' xmlns:xlink='http://www.w3.org/1999/xlink'>
	<g transform="translate(-234.8,-131.758)">
		<path d="M 234.8 139.032 Q 234.863 137.966 234.939 137.282 Q 235.003 136.516 235.042 136.339 Q 235.058 135.584 235.308 135.026 Q 235.711 133.442 237.237 132.882 Q 237.858 132.671 238.626 132.608 Q 238.713 132.608 238.8 132.608 Q 245.732 133.032 251.492 132.097 Q 251.505 132.097 251.555 132.097 Q 251.792 132.034 252.066 131.971 Q 254.289 131.629 256.647 131.837 Q 256.647 131.837 256.684 131.837 Q 257.303 131.921 257.995 132.079 Q 258.082 132.103 258.168 132.126 Q 258.168 132.126 258.205 132.126 Q 258.205 132.126 258.205 132.126 Q 258.689 132.124 259.137 132.318 Q 259.1 132.282 259.1 132.282 Q 261.768 132.982 262.35 135.75 Q 262.363 135.75 262.376 135.787 Q 262.784 137.695 263.426 139.853 Q 263.582 140.392 263.761 140.982 Q 263.774 140.982 263.787 141.018 Q 264.147 142.1 264.255 143.324 Q 264.268 143.447 264.245 143.571 Q 264.529 145.426 264.6 147.479 Q 264.6 147.589 264.6 147.7 Q 264.671 150.742 264.695 153.674 Q 264.732 153.847 264.732 154.058 Q 264.658 154.966 264.732 156.021 Q 264.732 156.034 264.732 156.084 Q 264.805 157.597 264.842 159.037 Q 264.879 162.066 264.626 164.774 Q 264.655 169.882 263.224 170.713 Q 262.939 170.85 262.545 170.876 Q 262.508 170.876 262.471 170.876 Q 261.926 170.918 261.345 171.082 Q 260.634 171.3 259.368 169.974 Q 258.992 169.679 258.603 168.926 Q 256.676 165.924 255.668 157.016 Q 255.668 157.016 255.668 156.979 Q 255.595 155.876 255.584 154.945 Q 255.292 153.068 255.179 151.042 Q 254.721 149.905 254.35 148.758 Q 253.711 146.889 253.147 144.926 Q 253.071 144.658 252.995 144.389 Q 252.742 143.792 252.747 143.292 Q 252.734 143.218 252.758 143.182 Q 252.655 142.839 252.663 142.534 Q 252.142 142.574 251.621 142.416 Q 251.011 142.211 249.737 142.103 Q 247.847 142.205 241.474 141.961 Q 235.184 141.739 234.8 139.105 L 234.8 139.032" fill="#0066CC"/>
	</g>
</svg>
