<?xml version="1.0"?>
<!DOCTYPE svg PUBLIC "-//W3C//DTD SVG 1.1//EN" "http://www.w3.org/Graphics/SVG/1.1/DTD/svg11.dtd">
<svg version='1.1' width='53px' height='51px' xmlns='http://www.w3.org/2000/svg' xmlns:xlink='http://www.w3.org/1999/xlink'>
	<g transform="translate(-123.678,-122.03)">
		<path d="M 123.824 150.588 Q 123.444 146.606 124.056 142.562 Q 124.462 140.068 125.409 137.824 Q 125.456 137.774 125.506 137.726 Q 126.15 136.118 127.088 134.656 Q 128.421 132.615 130.1 130.818 Q 131.874 128.785 134.044 127.235 Q 134.044 127.235 134.047 127.235 Q 134.047 127.235 134.047 127.235 Q 134.785 126.703 135.526 126.218 Q 136.947 125.3 138.468 124.529 Q 142.626 122.362 147.285 122.106 Q 147.282 122.109 147.282 122.109 Q 150.171 121.906 152.926 122.224 Q 156.403 122.538 159.606 123.941 Q 159.703 123.988 159.8 124.035 Q 159.988 124.135 160.176 124.238 Q 160.715 124.521 161.203 124.809 Q 161.306 124.853 161.412 124.9 Q 161.753 125.085 162.047 125.271 Q 162.588 125.603 163.126 125.935 Q 163.568 126.215 163.965 126.541 Q 166.012 128.097 167.547 130.176 Q 167.594 130.176 167.641 130.271 Q 169.276 132.5 170.297 135.068 Q 170.394 135.362 170.494 135.659 Q 170.909 136.629 171.212 137.662 Q 171.262 137.859 171.312 138.103 Q 171.362 138.203 171.412 138.303 Q 171.659 139.521 171.797 140.75 Q 171.935 141.829 171.982 142.862 Q 171.982 142.865 171.982 142.915 Q 171.982 143.062 172.029 143.209 Q 172.029 143.356 172.029 143.503 Q 172.124 143.462 172.265 143.468 Q 172.876 143.4 173.394 143.521 Q 173.441 143.479 173.488 143.532 Q 173.488 143.535 173.535 143.538 Q 173.865 143.553 174.147 143.615 Q 174.241 143.668 174.335 143.674 Q 174.806 143.553 175.324 143.668 Q 175.606 143.541 175.935 143.509 Q 175.982 143.512 175.982 143.515 Q 175.982 144.285 175.985 145.103 Q 175.991 148.05 175.921 150.985 Q 175.921 150.985 175.874 150.985 Q 175.256 151.106 174.779 151.132 Q 174.638 151.138 174.544 151.191 Q 174.306 151.197 174.115 151.203 Q 174.065 151.209 174.062 151.215 Q 173.968 151.171 173.874 151.174 Q 173.585 151.232 173.344 151.244 Q 173.247 151.2 173.197 151.203 Q 173.15 151.203 173.103 151.25 Q 173.006 151.253 172.956 151.256 Q 172.909 151.259 172.862 151.262 Q 172.862 151.309 172.862 151.309 Q 172.706 152.188 172.544 153.065 Q 172.432 153.65 172.271 154.235 Q 171.753 155.971 171.003 157.615 Q 170.803 158.05 170.603 158.438 Q 170.206 159.171 169.762 159.9 Q 168.715 161.703 167.374 163.35 Q 167.324 163.4 167.226 163.45 Q 167.221 163.45 167.221 163.45 Q 166.771 163.944 166.321 164.435 Q 165.529 165.265 164.694 166.035 Q 164.647 166.085 164.6 166.135 Q 162.788 167.735 160.703 168.994 Q 160.7 169.041 160.7 169.088 Q 160.653 169.088 160.606 169.088 Q 160.506 169.138 160.453 169.188 Q 158.026 170.656 155.332 171.582 Q 153.285 172.309 151.018 172.644 Q 149.162 172.932 147.291 172.932 Q 145.529 172.932 143.771 172.688 Q 141.421 172.3 139.215 171.562 Q 138.871 171.415 138.526 171.268 Q 136.568 170.485 134.806 169.453 Q 133.038 168.418 131.515 166.991 Q 131.515 166.991 131.515 166.991 Q 129.709 165.374 128.294 163.268 Q 128.244 163.171 128.241 163.121 Q 127.215 161.65 126.338 160.121 Q 126.338 160.121 126.338 160.121 Q 126.194 159.876 126.05 159.632 Q 125.953 159.582 125.953 159.532 Q 125.906 159.485 125.906 159.438 Q 125.218 157.385 124.779 155.376 Q 124.732 155.329 124.779 155.282 Q 124.197 153.226 123.871 151.165 Q 123.871 151.118 123.871 151.071 Q 123.824 150.876 123.824 150.682 L 123.824 150.588" fill="#0066CC"/>
		<path d="M 132.444 145.197 Q 132.632 143.938 133.062 142.682 Q 133.926 140.647 133.926 140.6 Q 134.603 139.282 135.388 138.121 Q 135.585 137.832 135.782 137.591 Q 136.026 137.159 136.365 136.821 Q 138.891 133.697 142.774 132.438 Q 146.382 131.288 149.976 130.988 Q 153.109 130.741 155.829 132.003 Q 156.271 132.238 156.709 132.521 Q 158.168 133.409 159.529 134.347 Q 160.359 134.956 161.047 135.659 Q 161.782 136.409 162.321 137.206 Q 162.565 137.579 162.762 137.956 Q 163.256 138.853 163.565 139.612 Q 163.894 140.488 164.082 141.459 Q 164.412 143.103 164.929 144.747 Q 165.024 145.088 165.118 145.429 Q 165.118 145.429 165.165 145.476 Q 165.165 145.526 165.212 145.576 Q 165.259 145.724 165.353 145.918 Q 165.353 145.968 165.4 146.018 Q 165.588 146.356 165.918 146.741 Q 165.918 146.741 165.965 146.788 Q 166.012 146.838 166.106 146.888 Q 166.012 146.988 165.965 147.088 Q 165.918 147.091 165.918 147.141 Q 165.776 147.576 165.729 148.012 Q 165.588 148.544 165.494 149.124 Q 165.447 149.126 165.447 149.176 Q 165.353 149.229 165.353 149.376 Q 165.306 149.571 165.259 149.812 Q 164.603 151.221 163.988 152.626 Q 163.8 152.968 163.562 153.262 Q 163.515 153.312 163.468 153.409 Q 163.185 154.071 162.856 154.732 Q 162.809 154.779 162.762 154.826 Q 161.874 156.224 160.838 157.541 L 160.835 157.591 Q 160.741 157.588 160.694 157.679 Q 160.412 157.997 160.129 158.268 Q 159.2 159.285 158.088 160.153 Q 155.765 161.847 153.156 163.112 Q 152.05 163.594 150.944 163.888 Q 150.9 163.888 150.853 163.888 Q 148.485 164.485 145.926 164.221 Q 142.594 163.865 139.771 162.406 Q 139.382 162.218 138.994 161.982 Q 138.947 161.935 138.853 161.935 Q 137.785 161.276 136.956 160.426 Q 136.906 160.332 136.856 160.285 Q 134.429 157.774 133.371 154.562 Q 133.374 154.515 133.374 154.468 Q 133.126 153.797 132.974 153.076 Q 132.671 151.874 132.518 150.621 Q 132.165 147.971 132.444 145.256 Q 132.444 145.209 132.444 145.209 L 132.444 145.197" fill="#0066CC"/>
	</g>
</svg>
