<?xml version="1.0"?>
<!DOCTYPE svg PUBLIC "-//W3C//DTD SVG 1.1//EN" "http://www.w3.org/Graphics/SVG/1.1/DTD/svg11.dtd">
<svg version='1.1' width='12px' height='47px' xmlns='http://www.w3.org/2000/svg' xmlns:xlink='http://www.w3.org/1999/xlink'>
	<g transform="translate(-180.99,-125.133)">
		<path d="M 180.99 128.353 Q 181.03 127.567 181.47 126.963 Q 181.653 126.7 181.887 126.51 Q 182.17 126.32 182.5 126.24 Q 182.5 126.227 182.5 126.213 Q 183.087 125.987 183.753 125.773 Q 184.443 125.56 185.2 125.36 Q 185.25 125.36 185.3 125.347 Q 186.487 125.173 187.7 125.133 Q 188.4 125.133 189.1 125.133 Q 189.847 125.12 190.41 125.523 Q 190.56 125.633 190.673 125.743 Q 191.103 126.087 191.277 126.553 Q 191.343 126.75 191.41 126.947 L 191.45 127.093 Q 191.49 127.217 191.53 127.34 Q 191.557 127.427 191.583 127.527 Q 191.61 127.627 191.637 127.727 Q 191.81 128.623 191.89 129.623 Q 191.89 129.823 191.903 130.023 Q 191.903 130.173 191.917 130.323 Q 191.943 131.087 191.983 131.85 Q 192.023 133.05 192.05 134.263 Q 192.077 135.677 192.09 137.077 L 192.09 167.837 Q 192.09 168.583 191.65 169.147 Q 191.467 169.46 191.21 169.663 Q 190.927 169.857 190.62 169.977 Q 190.153 170.123 189.7 170.283 Q 188.547 170.723 187.073 170.91 Q 186.737 170.95 186.4 170.99 Q 185.8 171.07 185.2 171.137 Q 184.65 171.19 184.1 171.203 Q 183.34 171.23 182.75 170.8 Q 182.273 170.48 182.053 170.06 Q 181.963 169.9 181.91 169.69 Q 181.617 168.813 181.39 167.857 Q 181.27 167.42 181.177 166.97 Q 181.07 166.37 180.99 165.757 L 180.99 128.407 L 180.99 128.353" fill="#0066CC"/>
	</g>
</svg>
