<?xml version="1.0"?>
<!DOCTYPE svg PUBLIC "-//W3C//DTD SVG 1.1//EN" "http://www.w3.org/Graphics/SVG/1.1/DTD/svg11.dtd">
<svg version='1.1' width='47px' height='26px' xmlns='http://www.w3.org/2000/svg' xmlns:xlink='http://www.w3.org/1999/xlink'>
	<g transform="translate(-27.9485,-111.933)">
		<path d="M 27.9485 128.396 Q 27.9926 127.64 28.3441 127.046 Q 28.4 126.924 28.4779 126.801 Q 28.6956 126.463 28.9632 126.281 Q 29.1853 126.121 29.4794 126.054 Q 29.5294 126.032 29.5794 126.032 Q 29.8353 125.988 30.1353 125.988 Q 35.1882 125.922 39.9544 124.929 Q 41.8044 124.554 43.6324 124.025 Q 44.9941 123.65 46.3338 123.231 Q 58.2912 119.326 68.55 112.885 Q 69.9074 111.871 71.375 111.937 Q 72.0868 111.981 72.6809 112.553 Q 73.2588 113.081 73.5235 113.903 Q 73.7662 114.731 74.0088 115.713 Q 74.6044 118.268 74.5382 120.646 Q 74.5162 121.401 74.0926 121.974 Q 73.8309 122.39 73.4912 122.694 Q 73.2853 122.854 73.0515 122.987 Q 66.8721 126.803 60.1632 129.715 Q 57.9441 130.707 55.6588 131.612 Q 53.8015 132.318 51.9 132.957 Q 49.9324 133.575 48.0088 134.237 Q 47.9309 134.259 47.875 134.259 L 47.875 134.237 Q 46.7632 134.568 45.6515 134.854 Q 45.4235 134.899 45.2176 134.943 Q 44.6735 135.119 44.1294 135.274 Q 44.0515 135.296 43.9515 135.318 Q 40.4176 136.222 36.7515 136.884 Q 34.075 137.391 31.6632 136.972 Q 30.9015 136.862 30.3294 136.356 Q 29.7132 135.828 29.4265 135.05 Q 28.875 133.376 28.4338 131.328 Q 28.1912 129.95 27.9706 128.484 L 27.9485 128.396" fill="#0066CC"/>
	</g>
</svg>
