<?xml version="1.0"?>
<!DOCTYPE svg PUBLIC "-//W3C//DTD SVG 1.1//EN" "http://www.w3.org/Graphics/SVG/1.1/DTD/svg11.dtd">
<svg version='1.1' width='41px' height='51px' xmlns='http://www.w3.org/2000/svg' xmlns:xlink='http://www.w3.org/1999/xlink'>
	<g transform="translate(-70.2,-127.684)">
		<path d="M 70.2 142.326 Q 70.3 141.426 70.5237 140.6 Q 70.5816 140.35 70.6474 140.108 Q 70.6474 140.058 70.6553 140.016 Q 71.3553 138.105 72.7974 137.061 Q 73.6079 136.879 74.4421 136.729 Q 74.7263 136.679 75.0184 136.637 Q 77.7947 136.232 80.9132 135.774 Q 80.9211 135.774 80.9289 135.732 Q 81.7553 135.621 82.5895 135.511 L 82.5974 135.511 L 88.3184 134.647 Q 88.2921 134.689 88.35 134.732 Q 88.5921 134.647 88.8342 134.571 Q 88.8842 134.571 88.9342 134.579 Q 94.5079 132.892 99.4553 130.563 Q 100.024 130.247 100.647 129.987 Q 101.316 129.661 102.029 129.429 Q 103.516 128.753 104.926 128.263 Q 104.968 128.263 105.011 128.271 Q 105.387 128.116 105.763 127.926 Q 106.584 127.574 107.271 127.734 Q 108.411 127.958 109.274 129.561 Q 109.55 130.095 109.776 130.629 Q 109.868 130.829 109.961 131.037 Q 110.584 132.755 110.853 134.713 Q 110.853 134.813 110.853 134.913 Q 111.284 138.55 110.424 142.879 Q 110.095 144.447 109.816 146.032 Q 109.816 146.082 109.816 146.132 Q 109.276 149.053 108.845 152.087 Q 108.845 152.087 108.845 152.087 Q 108.524 154.332 108.295 156.6 Q 107.939 159.587 107.634 162.647 Q 107.371 165.292 107.158 167.961 Q 107.158 168.061 107.158 168.161 Q 106.755 171.921 105.982 175.176 Q 105.916 175.403 105.842 175.621 Q 105.768 175.839 105.695 176.05 Q 105.637 176.226 105.587 176.395 Q 105.382 176.924 105.05 177.287 Q 104.876 177.497 104.661 177.65 Q 104.003 178.132 103.116 178.195 Q 100.379 178.518 99.7211 174.787 Q 99.6632 174.521 99.6132 174.255 Q 98.6579 169.042 98.7395 163.842 Q 98.7842 161.574 98.8947 159.405 Q 98.8947 159.405 98.8947 159.397 Q 99.2395 149.926 100.626 142.053 Q 100.121 142.203 99.5816 142.318 Q 96.0132 143.668 92.0789 144.726 Q 91.9368 144.776 91.7947 144.818 Q 89.9263 145.329 87.9737 145.797 Q 87.9158 145.839 87.9421 145.882 L 85.0737 146.895 Q 85.0237 146.895 84.9737 146.903 Q 82.8237 147.658 80.7289 148.326 Q 80.7289 148.326 80.7289 148.368 Q 73.5579 150.282 70.5447 143.179 Q 70.4026 142.879 70.2842 142.579 L 70.2 142.326" fill="#0066CC"/>
	</g>
</svg>
