<?xml version="1.0"?>
<!DOCTYPE svg PUBLIC "-//W3C//DTD SVG 1.1//EN" "http://www.w3.org/Graphics/SVG/1.1/DTD/svg11.dtd">
<svg version='1.1' width='12px' height='49px' xmlns='http://www.w3.org/2000/svg' xmlns:xlink='http://www.w3.org/1999/xlink'>
	<g transform="translate(-187.83,-122.717)">
		<path d="M 187.83 128.923 Q 187.96 128.167 188.04 127.443 Q 188.073 127.15 188.157 126.87 Q 188.29 126.59 188.35 126.33 Q 188.35 126.287 188.35 126.243 Q 188.457 125.507 188.823 124.813 Q 189.153 124.12 189.7 123.47 Q 189.75 123.47 189.8 123.427 Q 190.957 122.863 192.2 122.733 Q 192.9 122.733 193.6 122.733 Q 194.227 122.69 194.82 122.763 Q 194.97 122.783 195.113 122.803 Q 195.723 122.907 196.287 123.073 Q 196.503 123.15 196.72 123.227 L 196.85 123.253 Q 196.98 123.317 197.11 123.38 Q 197.197 123.437 197.283 123.537 Q 197.37 123.637 197.457 123.737 Q 198.02 124.513 198.28 125.513 Q 198.28 125.713 198.323 125.913 Q 198.323 126.063 198.367 126.213 Q 198.453 127.007 198.583 127.8 Q 198.713 129 198.8 130.243 Q 198.887 131.687 198.93 133.087 L 198.93 164.207 Q 198.93 164.833 198.85 165.427 Q 198.817 165.77 198.77 166.093 Q 198.637 166.497 198.54 166.887 Q 198.373 167.363 198.25 167.883 Q 197.877 169.313 196.463 169.92 Q 196.157 170.05 195.85 170.18 Q 195.25 170.44 194.65 170.657 Q 194.1 170.83 193.55 170.873 Q 192.88 170.96 192.2 170.8 Q 191.663 170.66 191.173 170.42 Q 190.993 170.35 190.82 170.23 Q 189.867 169.743 189.13 168.997 Q 188.74 168.59 188.437 168.14 Q 188.09 167.54 187.83 166.897 L 187.83 129.097 L 187.83 128.923" fill="#0066CC"/>
	</g>
</svg>
