<?xml version="1.0"?>
<!DOCTYPE svg PUBLIC "-//W3C//DTD SVG 1.1//EN" "http://www.w3.org/Graphics/SVG/1.1/DTD/svg11.dtd">
<svg version='1.1' width='12px' height='46px' xmlns='http://www.w3.org/2000/svg' xmlns:xlink='http://www.w3.org/1999/xlink'>
	<g transform="translate(-180.23,-125.4)">
		<path d="M 180.23 128.29 Q 180.26 127.5 180.74 126.91 Q 180.94 126.65 181.19 126.47 Q 181.49 126.29 181.85 126.23 Q 181.85 126.22 181.85 126.21 Q 182.49 126.04 183.19 125.88 Q 183.92 125.72 184.7 125.57 Q 184.75 125.57 184.8 125.56 Q 185.99 125.43 187.2 125.4 Q 187.9 125.4 188.6 125.4 Q 189.36 125.39 189.92 125.83 Q 190.07 125.95 190.18 126.07 Q 190.59 126.44 190.72 126.94 Q 190.77 127.15 190.82 127.36 L 190.85 127.52 Q 190.88 127.65 190.91 127.78 Q 190.93 127.87 190.95 127.97 Q 190.97 128.07 190.99 128.17 Q 191.12 129.08 191.18 130.08 Q 191.18 130.28 191.19 130.48 Q 191.19 130.63 191.2 130.78 Q 191.22 131.54 191.25 132.3 Q 191.28 133.5 191.3 134.71 Q 191.32 136.12 191.33 137.52 L 191.33 168.24 Q 191.33 169 190.85 169.56 Q 190.65 169.87 190.37 170.06 Q 190.07 170.23 189.74 170.32 Q 189.24 170.43 188.75 170.55 Q 187.51 170.88 186.03 171.02 Q 185.69 171.05 185.35 171.08 Q 184.75 171.14 184.15 171.19 Q 183.6 171.23 183.05 171.24 Q 182.28 171.26 181.7 170.8 Q 181.23 170.46 181.04 170.02 Q 180.96 169.85 180.92 169.63 Q 180.7 168.71 180.53 167.73 Q 180.44 167.29 180.37 166.84 Q 180.29 166.24 180.23 165.63 L 180.23 128.33 L 180.23 128.29" fill="#0066CC"/>
	</g>
</svg>
