<?xml version="1.0"?>
<!DOCTYPE svg PUBLIC "-//W3C//DTD SVG 1.1//EN" "http://www.w3.org/Graphics/SVG/1.1/DTD/svg11.dtd">
<svg version='1.1' width='44px' height='41px' xmlns='http://www.w3.org/2000/svg' xmlns:xlink='http://www.w3.org/1999/xlink'>
	<g transform="translate(-127.378,-131.767)">
		<path d="M 127.424 153.888 Q 127.219 150.481 127.931 147.337 Q 128.387 145.318 129.309 143.549 Q 129.331 143.499 129.381 143.476 Q 129.975 142.218 130.813 141.081 Q 131.996 139.54 133.5 138.193 Q 135.049 136.735 136.969 135.61 Q 136.969 135.61 136.997 135.61 Q 136.997 135.61 136.997 135.61 Q 137.635 135.228 138.301 134.868 Q 139.472 134.225 140.743 133.704 Q 144.126 132.237 148.01 131.931 Q 147.982 131.959 147.982 131.959 Q 150.346 131.731 152.726 131.774 Q 155.578 131.788 158.381 132.366 Q 158.453 132.388 158.525 132.41 Q 158.613 132.51 158.701 132.638 Q 159.14 132.771 159.528 132.959 Q 159.656 132.953 159.812 132.975 Q 160.078 133.035 160.322 133.096 Q 160.788 133.278 161.226 133.46 Q 161.593 133.565 161.965 133.691 Q 163.987 134.447 165.397 135.926 Q 165.419 135.926 165.441 135.971 Q 166.951 137.6 167.722 139.893 Q 167.794 140.137 167.894 140.409 Q 168.434 141.129 168.762 142.012 Q 168.812 142.184 168.862 142.378 Q 168.912 142.478 168.962 142.578 Q 169.184 143.521 169.222 144.575 Q 169.26 145.479 169.282 146.362 Q 169.282 146.39 169.282 146.44 Q 169.282 146.562 169.304 146.684 Q 169.304 146.806 169.304 146.928 Q 169.349 146.962 169.415 147.018 Q 169.701 147.225 169.944 147.521 Q 169.966 147.554 169.988 147.632 Q 169.988 147.66 170.01 147.688 Q 170.165 147.828 170.297 147.99 Q 170.341 148.068 170.385 148.124 Q 170.606 148.253 170.849 148.493 Q 170.981 148.566 171.135 148.684 Q 171.157 148.712 171.157 148.74 Q 171.157 149.26 171.185 149.803 Q 171.241 152.3 170.996 154.685 Q 170.996 154.685 170.974 154.685 Q 170.631 154.981 170.354 155.232 Q 170.288 155.288 170.244 155.366 Q 170.106 155.422 169.99 155.478 Q 169.94 155.534 169.912 155.59 Q 169.868 155.596 169.824 155.624 Q 169.635 155.757 169.469 155.869 Q 169.397 155.875 169.347 155.903 Q 169.325 155.903 169.303 155.925 Q 169.231 155.953 169.181 155.981 Q 169.159 156.009 169.137 156.037 Q 169.137 156.059 169.137 156.059 Q 168.931 156.763 168.669 157.44 Q 168.457 157.9 168.196 158.36 Q 167.528 159.546 166.778 160.715 Q 166.578 161.025 166.378 161.313 Q 166.006 161.896 165.612 162.45 Q 164.59 163.853 163.324 165.05 Q 163.274 165.1 163.201 165.15 Q 163.146 165.15 163.146 165.15 Q 162.696 165.594 162.246 166.01 Q 161.529 166.665 160.819 167.185 Q 160.797 167.235 160.775 167.285 Q 159.288 168.46 157.753 169.369 Q 157.725 169.391 157.725 169.413 Q 157.703 169.413 157.681 169.413 Q 157.581 169.463 157.503 169.513 Q 155.276 170.706 153.057 171.432 Q 151.46 171.959 149.468 172.169 Q 147.987 172.357 146.366 172.357 Q 144.929 172.357 143.521 172.163 Q 141.596 171.875 139.765 171.237 Q 139.471 171.115 139.176 170.993 Q 137.568 170.36 136.131 169.478 Q 134.638 168.568 133.34 167.341 Q 133.34 167.341 133.34 167.341 Q 131.909 165.999 130.794 164.268 Q 130.744 164.196 130.716 164.146 Q 129.89 162.925 129.213 161.571 Q 129.213 161.571 129.213 161.571 Q 129.119 161.376 129.025 161.182 Q 128.953 161.132 128.953 161.082 Q 128.931 161.06 128.931 161.038 Q 128.343 159.385 128.004 157.726 Q 127.982 157.704 128.004 157.682 Q 127.572 156.001 127.446 154.265 Q 127.446 154.243 127.446 154.221 Q 127.424 154.076 127.424 153.932 L 127.424 153.888" fill="#0066CC"/>
		<path d="M 137.494 151.122 Q 137.582 150.213 137.837 149.332 Q 138.401 147.847 138.401 147.825 Q 138.878 146.782 139.538 145.946 Q 139.71 145.757 139.882 145.591 Q 140.076 145.309 140.315 145.071 Q 142.216 143.022 145.099 142.113 Q 147.507 141.388 150.201 141.088 Q 152.334 140.866 154.379 141.378 Q 154.746 141.488 155.084 141.621 Q 156.193 141.984 157.229 142.397 Q 157.884 142.656 158.472 142.959 Q 159.082 143.284 159.521 143.631 Q 159.715 143.779 159.887 143.956 Q 160.331 144.403 160.715 144.812 Q 160.869 145.488 160.957 146.209 Q 161.112 147.378 161.354 148.547 Q 161.399 148.813 161.443 149.079 Q 161.443 149.079 161.465 149.101 Q 161.465 149.151 161.487 149.201 Q 161.509 149.324 161.553 149.468 Q 161.553 149.518 161.575 149.568 Q 161.663 149.806 161.818 150.066 Q 161.818 150.066 161.84 150.088 Q 161.862 150.138 161.906 150.188 Q 161.862 150.288 161.84 150.388 Q 161.818 150.416 161.818 150.466 Q 161.751 150.776 161.729 151.087 Q 161.663 151.469 161.619 151.874 Q 161.597 151.901 161.597 151.951 Q 161.553 152.029 161.553 152.151 Q 161.531 152.296 161.509 152.462 Q 161.228 153.521 160.913 154.551 Q 160.825 154.818 160.687 155.062 Q 160.665 155.112 160.643 155.184 Q 160.51 155.521 160.356 155.857 Q 160.334 155.879 160.312 155.901 Q 159.524 156.849 159.038 157.891 L 159.01 157.941 Q 158.966 157.913 158.944 157.929 Q 158.812 157.972 158.679 157.993 Q 157.925 158.735 157.138 159.328 Q 155.465 160.547 153.631 161.512 Q 152.9 161.844 152.169 162.088 Q 152.175 162.088 152.153 162.088 Q 150.485 162.66 148.701 162.696 Q 146.369 162.715 144.196 162.031 Q 143.907 161.943 143.619 161.832 Q 143.597 161.81 143.553 161.81 Q 142.76 161.501 142.106 161.076 Q 142.056 161.032 142.006 161.01 Q 139.779 159.674 138.646 157.637 Q 138.674 157.615 138.674 157.593 Q 138.451 157.172 138.274 156.701 Q 137.946 155.899 137.768 155.046 Q 137.39 153.246 137.494 151.256 Q 137.494 151.234 137.494 151.234 L 137.494 151.122" fill="#0066CC"/>
	</g>
</svg>
