<?xml version="1.0"?>
<!DOCTYPE svg PUBLIC "-//W3C//DTD SVG 1.1//EN" "http://www.w3.org/Graphics/SVG/1.1/DTD/svg11.dtd">
<svg version='1.1' width='10px' height='74px' xmlns='http://www.w3.org/2000/svg' xmlns:xlink='http://www.w3.org/1999/xlink'>
	<g transform="translate(-80.7618,-109.886)">
		<path d="M 80.7618 122.974 Q 80.7618 122.209 80.9235 121.497 Q 81.0853 120.65 81.3353 119.979 Q 82.45 116.909 83.8265 113.697 Q 84.1324 112.921 84.3794 112.321 Q 84.5029 112.076 84.5824 111.862 Q 84.6471 111.597 84.7176 111.397 Q 85.1059 110.112 86.5176 109.956 Q 90.3647 109.232 89.9765 115.991 Q 89.5529 123.162 89.3765 128.462 Q 89.3412 129.688 89.3059 130.879 Q 89.3059 130.979 89.3059 131.044 Q 89.2706 135.135 89.3059 138.944 L 89.3765 138.974 Q 89.3412 139.544 89.3412 140.115 L 89.3765 140.109 Q 89.3765 142.041 89.3765 143.938 L 89.3412 143.968 Q 89.2353 154.188 89.3059 163.421 Q 89.3059 163.606 89.3059 163.791 Q 89.3412 167.062 89.4471 170.085 Q 89.4824 170.85 89.3559 171.541 Q 89.2147 172.268 89.0147 172.797 Q 88.6294 174.174 88.2941 175.444 Q 87.8676 177.385 87.2294 178.938 Q 86.9794 179.574 86.7824 179.976 Q 86.55 180.556 86.4088 180.956 Q 85.8441 183.176 84.1147 182.997 Q 81.0088 182.953 80.9382 176.168 Q 80.9029 169.826 80.9735 156.85 Q 80.9735 156.665 80.9735 156.479 Q 81.0088 147.032 81.0794 136.068 Q 80.9382 136.044 80.8324 136.021 L 80.7971 127.25 Q 80.7618 125.738 80.7618 124.191 Q 80.7618 123.6 80.7618 123.044 L 80.7618 122.974" fill="#0066CC"/>
	</g>
</svg>
