<?xml version="1.0"?>
<!DOCTYPE svg PUBLIC "-//W3C//DTD SVG 1.1//EN" "http://www.w3.org/Graphics/SVG/1.1/DTD/svg11.dtd">
<svg version='1.1' width='11px' height='63px' xmlns='http://www.w3.org/2000/svg' xmlns:xlink='http://www.w3.org/1999/xlink'>
	<g transform="translate(-83.5868,-110.864)">
		<path d="M 83.5868 115.024 Q 83.5868 114.234 84.0235 113.672 Q 84.4603 113 85.1353 112.804 Q 87.975 111.909 90.9265 110.972 Q 91.5824 110.746 92.0794 110.996 Q 92.3279 111.101 92.4574 111.287 Q 92.5471 111.422 92.5676 111.647 Q 92.6809 112.512 93.0926 113.706 Q 94.2147 116.257 94.1015 120.991 Q 93.9779 126.837 93.9265 132.137 Q 93.9162 133.238 93.9059 134.329 Q 93.9059 134.429 93.9059 134.519 Q 93.8956 138.085 93.9059 141.569 L 93.9265 141.649 Q 93.9162 142.169 93.9162 142.69 L 93.9265 142.759 Q 93.9265 144.491 93.9265 146.213 L 93.9162 146.293 Q 93.8853 155.188 93.9059 163.796 Q 93.9059 163.956 93.9059 164.116 Q 93.9162 166.912 93.9471 169.635 Q 93.9574 170.425 93.5309 171.016 Q 93.0647 171.618 92.4397 171.772 Q 91.2294 172.174 90.0691 172.544 Q 88.4926 173.11 86.8544 173.563 Q 86.1794 173.749 85.7324 173.476 Q 85.275 173.256 85.2338 172.806 Q 85.0691 171.576 84.5647 169.647 Q 83.6588 166.978 83.6382 162.343 Q 83.6279 154.826 83.6485 145.375 Q 83.6485 145.215 83.6485 145.054 Q 83.6588 136.207 83.6794 126.918 Q 83.6382 126.769 83.6074 126.621 L 83.5971 118.75 Q 83.5868 117.388 83.5868 116.016 Q 83.5868 115.525 83.5868 115.044 L 83.5868 115.024" fill="#0066CC"/>
	</g>
</svg>
