<?xml version="1.0"?>
<!DOCTYPE svg PUBLIC "-//W3C//DTD SVG 1.1//EN" "http://www.w3.org/Graphics/SVG/1.1/DTD/svg11.dtd">
<svg version='1.1' width='12px' height='61px' xmlns='http://www.w3.org/2000/svg' xmlns:xlink='http://www.w3.org/1999/xlink'>
	<g transform="translate(-170.623,-117.614)">
		<path d="M 170.623 131.023 Q 170.623 130.673 170.641 130.359 Q 170.732 129.995 170.841 129.668 Q 171 129.286 171.195 128.941 Q 171.341 128.595 171.486 128.286 Q 171.664 127.959 171.841 127.686 Q 171.914 127.445 171.986 127.255 Q 172.077 127.077 172.15 126.918 Q 172.295 126.682 172.423 126.445 Q 173.014 125.745 173.368 125.245 Q 173.564 124.909 173.791 124.623 Q 173.809 124.564 173.827 124.505 Q 174.459 123.264 175.109 122.109 Q 175.586 121.182 176.105 120.368 Q 176.755 119.232 177.573 118.255 Q 177.623 118.182 177.705 118.109 Q 177.9 117.9 178.159 117.723 Q 178.645 117.527 179.495 117.682 Q 179.705 117.764 179.945 117.877 Q 180.091 117.95 180.236 118.023 Q 180.332 118.077 180.459 118.182 Q 180.668 118.291 180.909 118.527 Q 180.909 118.545 180.941 118.564 Q 181.182 118.786 181.423 119.073 Q 181.664 119.359 181.936 119.709 Q 182.095 119.945 182.273 120.245 Q 182.323 120.545 182.373 120.877 Q 182.341 121.173 182.341 121.468 Q 182.323 121.55 182.341 121.632 Q 182.341 121.732 182.341 121.85 Q 182.314 123.114 182.286 124.377 Q 182.164 126.123 182.073 127.9 Q 181.841 130.859 181.609 133.818 Q 181.577 134.05 181.564 134.282 Q 181.455 135.845 181.345 137.409 Q 181.223 139.005 181.164 140.65 Q 181.086 141.814 181.009 142.977 Q 180.995 143.559 180.964 144.141 Q 180.964 144.473 180.982 144.805 Q 180.705 151.782 180.605 158.832 Q 180.605 160.045 180.55 161.277 Q 180.459 162.491 180.386 163.723 Q 180.259 164.886 180.15 166.068 Q 179.932 166.591 179.695 167.132 Q 179.382 167.964 179.014 168.655 Q 178.736 169.314 178.477 169.809 Q 178.259 170.086 178.127 170.345 Q 177.868 170.786 177.768 171.155 Q 177.732 171.195 177.695 171.236 Q 177.623 171.364 177.586 171.491 Q 177.65 171.868 177.714 172.245 Q 177.795 172.705 177.877 173.182 Q 177.877 173.323 177.909 173.482 Q 177.959 173.691 178.009 173.9 Q 178.141 174.5 178.286 175.118 Q 178.318 175.327 178.35 175.568 Q 178.35 175.682 178.382 175.859 Q 178.464 176.332 178.545 176.805 Q 178.609 177.168 178.691 177.564 Q 178.627 177.673 178.532 177.782 Q 178.5 177.823 178.436 177.864 Q 178.182 178.014 177.768 178.105 Q 177.514 178.114 177.227 178.091 Q 176.782 178.109 176.305 177.809 Q 175.7 177.386 175.159 176.805 Q 174.777 176.382 174.459 175.991 Q 174.218 174.827 173.977 173.664 Q 173.8 172.4 173.605 171.168 Q 173.441 169.905 173.373 168.641 Q 172.855 161.509 172.395 154.491 Q 172.377 154.209 172.359 153.927 Q 172.341 153.409 172.305 152.891 Q 172.182 151.545 172.073 150.264 Q 171.964 148.85 171.855 147.455 Q 171.709 145.609 171.532 143.782 Q 171.514 143.6 171.495 143.418 Q 171.277 140.741 171.059 138.1 Q 170.932 136.305 170.786 134.545 Q 170.714 132.95 170.623 131.355 Q 170.623 131.236 170.623 131.118 L 170.623 131.023" fill="#0066CC"/>
	</g>
</svg>
