<?xml version="1.0"?>
<!DOCTYPE svg PUBLIC "-//W3C//DTD SVG 1.1//EN" "http://www.w3.org/Graphics/SVG/1.1/DTD/svg11.dtd">
<svg version='1.1' width='13px' height='57px' xmlns='http://www.w3.org/2000/svg' xmlns:xlink='http://www.w3.org/1999/xlink'>
	<g transform="translate(-166.177,-118.576)">
		<path d="M 166.177 122.377 Q 166.177 122.027 166.209 121.741 Q 166.368 121.405 166.559 121.132 Q 166.8 120.764 167.105 120.459 Q 167.359 120.155 167.614 119.914 Q 167.886 119.641 168.159 119.464 Q 168.286 119.305 168.414 119.195 Q 168.573 119.073 168.7 118.982 Q 168.955 118.868 169.177 118.755 Q 170.136 118.505 170.682 118.605 Q 170.986 118.691 171.309 118.827 Q 171.341 118.836 171.373 118.845 Q 172.291 119.486 173.091 120.241 Q 173.664 120.718 174.195 121.282 Q 174.845 122.068 175.527 122.945 Q 175.577 122.968 175.645 122.991 Q 175.8 123.15 175.991 123.327 Q 176.355 123.773 176.905 124.418 Q 177.045 124.636 177.205 124.873 Q 177.309 125 177.414 125.127 Q 177.468 125.223 177.541 125.368 Q 177.682 125.559 177.841 125.823 Q 177.841 125.855 177.859 125.886 Q 178.018 126.164 178.177 126.477 Q 178.336 126.791 178.514 127.141 Q 178.605 127.405 178.727 127.705 Q 178.777 128.005 178.827 128.323 Q 178.809 128.577 178.809 128.832 Q 178.777 128.9 178.809 128.968 Q 178.809 129.068 178.809 129.2 Q 178.836 130.436 178.864 131.673 Q 178.836 133.377 178.827 135.1 Q 178.759 137.991 178.691 140.882 Q 178.673 141.1 178.686 141.318 Q 178.645 142.855 178.605 144.391 Q 178.577 145.945 178.586 147.55 Q 178.564 148.686 178.541 149.823 Q 178.555 150.391 178.536 150.959 Q 178.536 151.277 178.568 151.595 Q 178.495 158.368 178.395 165.268 Q 178.395 166.455 178.3 167.673 Q 178.141 168.859 178.014 170.077 Q 177.791 171.214 177.6 172.382 Q 177.218 172.809 176.805 173.268 Q 176.218 173.936 175.536 174.395 Q 175.014 174.836 174.523 174.991 Q 174.141 175.064 173.873 175.105 Q 173.382 175.164 173.132 175.095 Q 173.068 175.055 173.005 175.014 Q 172.877 174.936 172.814 174.859 Q 172.85 174.582 172.886 174.305 Q 172.955 173.945 173.023 173.618 Q 173.023 173.527 173.041 173.468 Q 173.091 173.309 173.141 173.15 Q 173.259 172.7 173.364 172.282 Q 173.382 172.123 173.4 171.982 Q 173.4 171.918 173.418 171.891 Q 173.486 171.518 173.555 171.145 Q 173.591 170.882 173.659 170.636 Q 173.623 170.527 173.568 170.418 Q 173.55 170.377 173.514 170.336 Q 173.368 170.036 173.132 169.745 Q 172.986 169.536 172.823 169.309 Q 172.568 169.041 172.295 168.591 Q 171.95 167.964 171.641 167.245 Q 171.423 166.768 171.241 166.309 Q 171.082 165.173 170.923 164.036 Q 170.8 162.8 170.645 161.582 Q 170.509 160.345 170.427 159.109 Q 169.895 152.141 169.205 145.259 Q 169.173 144.991 169.141 144.723 Q 169.109 144.191 169.045 143.659 Q 168.868 142.355 168.677 141.086 Q 168.486 139.7 168.295 138.345 Q 168.041 136.541 167.768 134.768 Q 167.736 134.6 167.705 134.432 Q 167.323 131.809 166.941 129.25 Q 166.718 127.495 166.464 125.805 Q 166.336 124.25 166.177 122.695 Q 166.177 122.564 166.177 122.432 L 166.177 122.377" fill="#0066CC"/>
	</g>
</svg>
