<?xml version="1.0"?>
<!DOCTYPE svg PUBLIC "-//W3C//DTD SVG 1.1//EN" "http://www.w3.org/Graphics/SVG/1.1/DTD/svg11.dtd">
<svg version='1.1' width='11px' height='62px' xmlns='http://www.w3.org/2000/svg' xmlns:xlink='http://www.w3.org/1999/xlink'>
	<g transform="translate(-84.5838,-110.008)">
		<path d="M 84.5838 112.218 Q 84.5838 111.419 85.1176 110.91 Q 85.6515 110.3 86.4765 110.272 Q 89.925 110.144 93.4324 110.01 Q 94.2118 109.978 94.7971 110.528 Q 95.0897 110.757 95.2368 111.084 Q 95.3353 111.36 95.3382 111.735 Q 95.3544 113.359 95.4132 115.029 Q 95.5735 118.737 95.5574 122.756 Q 95.5397 128.134 95.5324 133.434 Q 95.5309 134.491 95.5294 135.547 Q 95.5294 135.647 95.5294 135.746 Q 95.5279 139.126 95.5294 142.496 L 95.5324 142.593 Q 95.5309 143.096 95.5309 143.599 L 95.5324 143.694 Q 95.5324 145.356 95.5324 147.016 L 95.5309 147.113 Q 95.5265 155.541 95.5294 163.928 Q 95.5294 164.079 95.5294 164.231 Q 95.5309 166.859 95.5353 169.476 Q 95.5368 170.275 95.0044 170.831 Q 94.4235 171.388 93.6485 171.41 Q 92.1471 171.468 90.6956 171.521 Q 88.7132 171.601 86.7221 171.666 Q 85.8971 171.693 85.3618 171.182 Q 84.825 170.679 84.8191 169.929 Q 84.7956 167.482 84.7235 164.935 Q 84.5941 161.34 84.5912 157.463 Q 84.5897 149.532 84.5926 141.325 Q 84.5926 141.174 84.5926 141.022 Q 84.5941 132.387 84.5971 123.688 Q 84.5912 123.496 84.5868 123.303 L 84.5853 115.75 Q 84.5838 114.441 84.5838 113.131 Q 84.5838 112.675 84.5838 112.221 L 84.5838 112.218" fill="#0066CC"/>
	</g>
</svg>
