<?xml version="1.0"?>
<!DOCTYPE svg PUBLIC "-//W3C//DTD SVG 1.1//EN" "http://www.w3.org/Graphics/SVG/1.1/DTD/svg11.dtd">
<svg version='1.1' width='13px' height='48px' xmlns='http://www.w3.org/2000/svg' xmlns:xlink='http://www.w3.org/1999/xlink'>
	<g transform="translate(-47.8647,-126.803)">
		<path d="M 47.8647 127.421 L 47.9647 127.429 Q 48.3029 127.376 48.6412 127.324 Q 48.6412 127.324 48.65 127.315 Q 51.4206 127.05 54.2088 126.803 Q 54.2588 126.803 54.3265 126.829 Q 54.8559 126.874 55.4294 126.971 Q 56.8941 127.112 58.4294 127.376 Q 58.7294 132.026 59.2412 136.979 Q 60.3618 149.835 60.3618 162.815 Q 60.3618 167.588 60.2735 172.053 Q 60.2147 172.8 59.7441 173.332 Q 59.2324 173.882 58.5882 173.962 Q 56.7618 174.324 54.8559 174.438 Q 53.2353 174.588 51.6676 174.271 Q 50.9735 174.2 50.4853 173.65 Q 49.9559 173.1 49.9206 172.318 Q 49.8412 170 49.7794 167.5 Q 49.5588 156.868 49.0382 146.465 Q 48.5529 137.609 47.9706 128.859 Q 47.9265 128.326 47.8824 127.794 Q 47.8735 127.644 47.8647 127.503 L 47.8647 127.421" fill="#0066CC"/>
	</g>
</svg>
