<?xml version="1.0"?>
<!DOCTYPE svg PUBLIC "-//W3C//DTD SVG 1.1//EN" "http://www.w3.org/Graphics/SVG/1.1/DTD/svg11.dtd">
<svg version='1.1' width='12px' height='66px' xmlns='http://www.w3.org/2000/svg' xmlns:xlink='http://www.w3.org/1999/xlink'>
	<g transform="translate(-172.105,-115.436)">
		<path d="M 172.105 133.905 Q 172.105 133.555 172.118 133.232 Q 172.186 132.859 172.268 132.514 Q 172.4 132.127 172.559 131.768 Q 172.668 131.409 172.777 131.077 Q 172.923 130.732 173.068 130.427 Q 173.123 130.159 173.177 129.941 Q 173.245 129.745 173.3 129.564 Q 173.409 129.286 173.505 129.009 Q 173.973 128.159 174.264 127.459 Q 174.423 126.982 174.618 126.555 Q 174.632 126.473 174.645 126.391 Q 175.182 124.523 175.782 122.732 Q 176.227 121.336 176.741 120.064 Q 177.391 118.286 178.255 116.691 Q 178.305 116.586 178.391 116.482 Q 178.6 116.15 178.882 115.855 Q 179.409 115.445 180.359 115.436 Q 180.591 115.473 180.859 115.545 Q 181.018 115.6 181.177 115.655 Q 181.286 115.695 181.432 115.786 Q 181.664 115.868 181.932 116.095 Q 181.932 116.109 181.968 116.123 Q 182.236 116.327 182.505 116.605 Q 182.773 116.882 183.077 117.232 Q 183.259 117.459 183.455 117.759 Q 183.505 118.059 183.555 118.395 Q 183.518 118.705 183.518 119.014 Q 183.505 119.1 183.518 119.186 Q 183.518 119.286 183.518 119.4 Q 183.473 120.673 183.427 121.945 Q 183.273 123.705 183.155 125.5 Q 182.868 128.482 182.582 131.464 Q 182.545 131.7 182.523 131.936 Q 182.391 133.509 182.259 135.082 Q 182.105 136.691 182.023 138.35 Q 181.927 139.523 181.832 140.695 Q 181.809 141.282 181.773 141.868 Q 181.773 142.205 181.786 142.541 Q 181.441 149.586 181.341 156.686 Q 181.341 157.909 181.3 159.145 Q 181.232 160.368 181.177 161.605 Q 181.082 162.777 181 163.964 Q 180.836 164.518 180.659 165.086 Q 180.436 165.973 180.173 166.741 Q 179.977 167.473 179.795 168.082 Q 179.632 168.427 179.545 168.759 Q 179.364 169.327 179.314 169.841 Q 179.286 169.909 179.259 169.977 Q 179.205 170.173 179.177 170.368 Q 179.25 170.964 179.323 171.559 Q 179.409 172.291 179.495 173.036 Q 179.495 173.255 179.532 173.486 Q 179.582 173.818 179.632 174.15 Q 179.768 175.1 179.927 176.064 Q 179.964 176.395 180 176.764 Q 180 176.936 180.036 177.182 Q 180.123 177.936 180.209 178.691 Q 180.282 179.264 180.368 179.873 Q 180.295 180.055 180.186 180.236 Q 180.15 180.305 180.077 180.373 Q 179.786 180.673 179.314 180.891 Q 179.023 180.973 178.695 181.018 Q 178.186 181.132 177.641 180.882 Q 176.95 180.527 176.332 179.991 Q 175.895 179.586 175.532 179.218 Q 175.264 178.045 174.995 176.873 Q 174.8 175.6 174.591 174.364 Q 174.418 173.091 174.355 171.818 Q 173.841 164.632 173.459 157.568 Q 173.445 157.282 173.432 156.995 Q 173.418 156.482 173.391 155.968 Q 173.286 154.609 173.205 153.323 Q 173.123 151.9 173.041 150.491 Q 172.932 148.632 172.786 146.786 Q 172.773 146.6 172.759 146.414 Q 172.595 143.718 172.432 141.05 Q 172.336 139.241 172.227 137.459 Q 172.173 135.85 172.105 134.241 Q 172.105 134.127 172.105 134.014 L 172.105 133.905" fill="#0066CC"/>
	</g>
</svg>
