<?xml version="1.0"?>
<!DOCTYPE svg PUBLIC "-//W3C//DTD SVG 1.1//EN" "http://www.w3.org/Graphics/SVG/1.1/DTD/svg11.dtd">
<svg version='1.1' width='16px' height='45px' xmlns='http://www.w3.org/2000/svg' xmlns:xlink='http://www.w3.org/1999/xlink'>
	<g transform="translate(-48.7471,-140.479)">
		<path d="M 48.7471 143.156 L 48.8471 143.194 Q 48.9794 142.965 49.1118 142.735 Q 49.1118 142.735 49.15 142.697 Q 51.1559 141.55 53.2382 140.479 Q 53.2882 140.479 53.4147 140.594 Q 53.7088 140.785 54.1941 141.206 Q 55.0412 141.818 56.1941 142.965 Q 57.4941 146.115 59.7118 150.744 Q 64.5676 161.453 64.5676 172.697 Q 64.5676 177.382 64.1853 180.729 Q 64.0971 181.3 63.8912 181.774 Q 63.6735 182.324 63.3824 182.668 Q 62.4676 184.235 61.2088 184.732 Q 59.8529 185.382 58.7265 184.006 Q 58.3853 183.7 58.1029 183.15 Q 57.8088 182.6 57.6559 181.876 Q 57.3118 180 57.0441 177.5 Q 56.0882 167.926 53.8324 159.347 Q 51.7294 151.638 49.2059 144.388 Q 49.0147 143.915 48.8235 143.441 Q 48.7853 143.291 48.7471 143.179 L 48.7471 143.156" fill="#0066CC"/>
	</g>
</svg>
