<?xml version="1.0"?>
<!DOCTYPE svg PUBLIC "-//W3C//DTD SVG 1.1//EN" "http://www.w3.org/Graphics/SVG/1.1/DTD/svg11.dtd">
<svg version='1.1' width='27px' height='70px' xmlns='http://www.w3.org/2000/svg' xmlns:xlink='http://www.w3.org/1999/xlink'>
	<g transform="translate(-195.314,-112.46)">
		<path d="M 195.318 124.305 Q 195.177 119.709 200.15 118.768 Q 205.736 118.464 210.764 119.091 Q 210.809 119.082 210.855 119.073 Q 210.855 117.527 210.95 116.082 Q 210.959 115.968 210.968 115.855 Q 211.164 114.641 211.964 113.864 Q 213.014 112.805 215.1 112.527 Q 216.359 112.373 217.709 112.573 Q 217.755 112.577 217.8 112.582 Q 218.518 112.686 219.373 112.882 Q 221.495 113.241 221.35 114.509 Q 221.327 114.932 220.768 121.718 Q 220.141 128.977 220.527 142.336 Q 220.527 142.695 220.527 143.055 Q 220.827 156.968 221.132 166.341 Q 221.373 173.095 220.659 176.714 Q 220.436 177.723 220.114 178.459 Q 218.868 181.441 216.427 181.959 Q 214.173 182.659 210.832 180.732 Q 210.827 179.377 210.691 177.273 Q 210.891 172.995 210.782 165.932 Q 210.7 162.573 210.7 158.632 Q 210.659 152.577 210.682 145.168 Q 210.682 145.018 210.682 144.823 Q 210.623 139.409 210.55 133.968 Q 210.5 133.205 210.405 132.486 Q 210.314 132.027 210.127 131.614 Q 209.945 131.309 209.718 131.095 Q 209.35 130.636 208.891 130.314 Q 207.977 129.75 207.064 129.368 Q 206.791 129.245 206.518 129.123 Q 205.555 128.723 204.591 128.364 Q 202.382 128.15 200.245 127.609 Q 199.891 127.509 199.541 127.409 Q 198.723 127.15 197.941 126.882 Q 197.132 126.595 196.536 126.145 Q 195.891 125.514 195.414 124.818 Q 195.341 124.609 195.318 124.395 L 195.318 124.305" fill="#0066CC"/>
	</g>
</svg>
