<?xml version="1.0"?>
<!DOCTYPE svg PUBLIC "-//W3C//DTD SVG 1.1//EN" "http://www.w3.org/Graphics/SVG/1.1/DTD/svg11.dtd">
<svg version='1.1' width='39px' height='35px' xmlns='http://www.w3.org/2000/svg' xmlns:xlink='http://www.w3.org/1999/xlink'>
	<g transform="translate(-129.529,-137.288)">
		<path d="M 129.541 155.829 Q 129.44 152.76 130.21 150.146 Q 130.696 148.406 131.603 146.916 Q 131.61 146.866 131.66 146.859 Q 132.225 145.806 133.004 144.86 Q 134.099 143.613 135.5 142.531 Q 136.916 141.412 138.69 140.537 Q 138.69 140.537 138.732 140.537 Q 138.732 140.537 138.732 140.537 Q 139.312 140.243 139.934 139.956 Q 140.957 139.475 142.081 139.101 Q 145.009 138.046 148.437 137.71 Q 148.394 137.753 148.394 137.753 Q 150.449 137.51 152.609 137.391 Q 155.093 137.229 157.66 137.322 Q 157.718 137.329 157.775 137.337 Q 157.804 137.437 157.834 137.579 Q 158.213 137.624 158.543 137.753 Q 158.685 137.718 158.871 137.725 Q 159.093 137.712 159.307 137.699 Q 159.729 137.793 160.109 137.887 Q 160.431 137.888 160.788 137.897 Q 162.796 138.182 164.132 139.309 Q 164.14 139.309 164.147 139.324 Q 165.584 140.6 166.207 142.731 Q 166.265 142.946 166.365 143.203 Q 166.978 143.776 167.321 144.571 Q 167.371 144.728 167.421 144.893 Q 167.471 144.993 167.521 145.093 Q 167.728 145.874 167.707 146.825 Q 167.687 147.626 167.694 148.421 Q 167.694 148.463 167.694 148.513 Q 167.694 148.621 167.701 148.728 Q 167.701 148.835 167.701 148.943 Q 167.716 149.021 167.738 149.106 Q 167.834 149.475 167.915 149.874 Q 167.922 149.951 167.929 150.044 Q 167.929 150.087 167.937 150.129 Q 167.988 150.343 168.032 150.563 Q 168.047 150.656 168.062 150.741 Q 168.135 151.018 168.216 151.331 Q 168.26 151.522 168.312 151.728 Q 168.319 151.771 168.319 151.813 Q 168.319 152.187 168.362 152.568 Q 168.447 154.8 168.099 156.862 Q 168.099 156.862 168.091 156.862 Q 167.91 157.26 167.751 157.644 Q 167.729 157.729 167.715 157.822 Q 167.635 157.907 167.563 157.993 Q 167.513 158.078 167.471 158.163 Q 167.456 158.199 167.441 158.241 Q 167.312 158.419 167.19 158.59 Q 167.132 158.625 167.082 158.668 Q 167.075 158.668 167.068 158.675 Q 167.01 158.718 166.96 158.76 Q 166.953 158.803 166.946 158.846 Q 166.946 158.853 166.946 158.853 Q 166.71 159.454 166.39 160.013 Q 166.119 160.4 165.799 160.787 Q 165.043 161.649 164.293 162.538 Q 164.093 162.775 163.893 163.004 Q 163.535 163.499 163.171 163.95 Q 162.163 165.118 160.941 166.05 Q 160.891 166.1 160.834 166.15 Q 160.749 166.15 160.749 166.15 Q 160.299 166.565 159.849 166.937 Q 159.176 167.488 158.54 167.862 Q 158.532 167.912 158.525 167.962 Q 157.229 168.887 156.018 169.59 Q 155.975 169.597 155.975 169.604 Q 155.968 169.604 155.96 169.604 Q 155.86 169.654 155.768 169.704 Q 153.659 170.735 151.719 171.344 Q 150.387 171.753 148.556 171.89 Q 147.296 172.019 145.822 172.019 Q 144.576 172.019 143.374 171.854 Q 141.699 171.625 140.088 171.046 Q 139.824 170.938 139.559 170.831 Q 138.156 170.287 136.91 169.493 Q 135.579 168.656 134.413 167.547 Q 134.413 167.547 134.413 167.547 Q 133.203 166.366 132.265 164.856 Q 132.215 164.799 132.172 164.749 Q 131.463 163.675 130.904 162.424 Q 130.904 162.424 130.904 162.424 Q 130.84 162.259 130.775 162.094 Q 130.718 162.044 130.718 161.994 Q 130.71 161.987 130.71 161.979 Q 130.181 160.562 129.901 159.109 Q 129.894 159.101 129.901 159.094 Q 129.557 157.634 129.549 156.088 Q 129.549 156.081 129.549 156.074 Q 129.541 155.959 129.541 155.844 L 129.541 155.829" fill="#0066CC"/>
		<path d="M 140.465 154.607 Q 140.494 153.904 140.646 153.244 Q 141.034 152.082 141.034 152.075 Q 141.393 151.194 141.979 150.549 Q 142.137 150.419 142.294 150.297 Q 142.459 150.103 142.638 149.924 Q 144.172 148.507 146.466 147.804 Q 148.169 147.329 150.334 147.029 Q 151.878 146.822 153.526 146.893 Q 153.849 146.929 154.128 146.974 Q 155.031 147.028 155.876 147.132 Q 156.428 147.185 156.957 147.253 Q 157.494 147.328 157.874 147.41 Q 158.038 147.426 158.196 147.485 Q 158.61 147.668 159.038 147.871 Q 159.09 148.429 159.119 149.003 Q 159.171 149.893 159.251 150.782 Q 159.266 151.004 159.281 151.226 Q 159.281 151.226 159.288 151.234 Q 159.288 151.284 159.296 151.334 Q 159.303 151.441 159.318 151.556 Q 159.318 151.606 159.325 151.656 Q 159.354 151.835 159.406 152.022 Q 159.406 152.022 159.413 152.029 Q 159.421 152.079 159.435 152.129 Q 159.421 152.229 159.413 152.329 Q 159.406 152.372 159.406 152.422 Q 159.384 152.659 159.376 152.896 Q 159.354 153.19 159.34 153.491 Q 159.332 153.534 159.332 153.584 Q 159.318 153.676 159.318 153.784 Q 159.31 153.899 159.303 154.021 Q 159.243 154.874 159.104 155.684 Q 159.075 155.906 158.996 156.121 Q 158.988 156.171 158.981 156.228 Q 158.937 156.374 158.885 156.519 Q 158.878 156.526 158.871 156.534 Q 158.141 157.216 157.979 158.097 L 157.937 158.147 Q 157.922 158.104 157.915 158.076 Q 157.871 157.957 157.826 157.831 Q 157.175 158.412 156.579 158.843 Q 155.288 159.782 153.91 160.571 Q 153.4 160.815 152.89 161.029 Q 152.925 161.029 152.918 161.029 Q 151.662 161.587 150.334 161.799 Q 148.59 162.038 146.799 161.81 Q 146.569 161.781 146.34 161.744 Q 146.332 161.737 146.318 161.737 Q 145.687 161.634 145.135 161.459 Q 145.085 161.444 145.035 161.437 Q 142.926 160.791 141.749 159.446 Q 141.791 159.438 141.791 159.431 Q 141.584 159.157 141.391 158.834 Q 141.049 158.266 140.856 157.649 Q 140.463 156.349 140.465 154.785 Q 140.465 154.778 140.465 154.778 L 140.465 154.607" fill="#0066CC"/>
	</g>
</svg>
