<?xml version="1.0"?>
<!DOCTYPE svg PUBLIC "-//W3C//DTD SVG 1.1//EN" "http://www.w3.org/Graphics/SVG/1.1/DTD/svg11.dtd">
<svg version='1.1' width='18px' height='93px' xmlns='http://www.w3.org/2000/svg' xmlns:xlink='http://www.w3.org/1999/xlink'>
	<g transform="translate(-210.333,-100.939)">
		<path d="M 211.232 127.495 Q 213.873 123.391 215.9 119.382 Q 218.664 113.636 218.986 107.309 Q 218.991 107.218 218.995 107.127 Q 218.995 105.173 219.5 103.768 Q 219.591 103.532 219.682 103.295 Q 220.286 101.959 221.536 101.386 Q 223.036 100.695 225.45 101.073 Q 227.241 101.327 227.241 102.877 Q 227.245 102.923 227.25 102.968 Q 227.232 104.014 227.227 105.068 Q 227.305 106.859 227.2 108.741 Q 226.973 112.518 226.782 116.932 Q 226.359 128.323 226.623 140.414 Q 226.623 140.855 226.623 141.295 Q 226.923 155.332 227.268 168.959 Q 227.427 175.305 227.491 181.336 Q 227.514 182.427 227.436 183.491 Q 227.132 186.759 226.123 189.691 Q 224.727 194.441 221.918 193.618 Q 220.523 193.123 218.709 190.977 Q 219.359 186.455 219.618 177.918 Q 219.7 174.027 219.7 169.268 Q 219.741 162.273 219.518 153.432 Q 219.518 153.282 219.518 153.127 Q 219.377 147.141 219.1 140.432 Q 219.05 139.545 218.995 138.664 Q 218.986 138.123 218.923 137.586 Q 218.905 137.241 218.882 136.905 Q 218.8 136.364 218.709 135.836 Q 218.573 134.7 218.436 133.582 Q 218.409 133.255 218.382 132.927 Q 218.195 131.627 218.009 130.286 Q 215.718 133.1 213.705 132.641 Q 213.309 132.541 212.959 132.441 Q 211.977 132.1 211.359 131.668 Q 210.468 131.055 210.364 130.155 Q 210.209 129.236 210.836 128.132 Q 211.009 127.841 211.232 127.505 L 211.232 127.495" fill="#0066CC"/>
	</g>
</svg>
