<?xml version="1.0"?>
<!DOCTYPE svg PUBLIC "-//W3C//DTD SVG 1.1//EN" "http://www.w3.org/Graphics/SVG/1.1/DTD/svg11.dtd">
<svg version='1.1' width='13px' height='54px' xmlns='http://www.w3.org/2000/svg' xmlns:xlink='http://www.w3.org/1999/xlink'>
	<g transform="translate(-167.659,-120.732)">
		<path d="M 167.659 125.259 Q 167.659 124.909 167.686 124.614 Q 167.823 124.268 167.986 123.977 Q 168.2 123.605 168.468 123.286 Q 168.686 122.968 168.905 122.705 Q 169.145 122.414 169.386 122.205 Q 169.495 122.018 169.605 121.882 Q 169.741 121.741 169.85 121.627 Q 170.068 121.473 170.259 121.318 Q 171.095 120.918 171.577 120.818 Q 171.845 120.764 172.136 120.759 Q 172.164 120.745 172.191 120.732 Q 173.014 120.745 173.764 120.864 Q 174.305 120.873 174.832 120.977 Q 175.482 121.123 176.209 121.382 Q 176.259 121.373 176.332 121.364 Q 176.5 121.4 176.714 121.459 Q 177.118 121.691 177.768 122.173 Q 177.932 122.345 178.118 122.541 Q 178.236 122.65 178.355 122.759 Q 178.423 122.841 178.514 122.973 Q 178.677 123.136 178.864 123.391 Q 178.864 123.418 178.886 123.445 Q 179.073 123.705 179.259 124.009 Q 179.445 124.314 179.655 124.664 Q 179.768 124.918 179.909 125.218 Q 179.959 125.518 180.009 125.841 Q 179.986 126.109 179.986 126.377 Q 179.959 126.45 179.986 126.523 Q 179.986 126.623 179.986 126.75 Q 179.995 127.995 180.005 129.241 Q 179.945 130.959 179.909 132.7 Q 179.786 135.614 179.664 138.527 Q 179.641 138.75 179.645 138.973 Q 179.582 140.518 179.518 142.064 Q 179.459 143.632 179.445 145.25 Q 179.405 146.395 179.364 147.541 Q 179.368 148.114 179.345 148.686 Q 179.345 149.009 179.373 149.332 Q 179.232 156.173 179.132 163.123 Q 179.132 164.318 179.05 165.541 Q 178.914 166.736 178.805 167.959 Q 178.614 169.105 178.45 170.277 Q 178.123 170.736 177.768 171.223 Q 177.273 171.945 176.695 172.482 Q 176.255 172.995 175.841 173.264 Q 175.514 173.405 175.291 173.518 Q 174.877 173.705 174.677 173.782 Q 174.623 173.768 174.568 173.755 Q 174.459 173.745 174.405 173.736 Q 174.45 173.677 174.495 173.618 Q 174.568 173.532 174.641 173.473 Q 174.641 173.459 174.664 173.473 Q 174.714 173.436 174.764 173.4 Q 174.886 173.3 175.005 173.227 Q 175.027 173.191 175.05 173.177 Q 175.05 173.173 175.073 173.214 Q 175.145 173.123 175.218 173.032 Q 175.264 172.977 175.336 172.945 Q 175.291 172.909 175.223 172.873 Q 175.2 172.859 175.155 172.845 Q 174.973 172.695 174.677 172.532 Q 174.495 172.395 174.291 172.236 Q 173.973 172.064 173.632 171.664 Q 173.2 171.105 172.814 170.432 Q 172.541 169.973 172.314 169.536 Q 172.127 168.391 171.941 167.245 Q 171.8 166 171.632 164.777 Q 171.486 163.532 171.409 162.286 Q 170.882 155.264 170.268 148.336 Q 170.241 148.064 170.214 147.791 Q 170.186 147.264 170.132 146.736 Q 169.973 145.418 169.809 144.145 Q 169.645 142.75 169.482 141.382 Q 169.264 139.564 169.023 137.773 Q 168.995 137.6 168.968 137.427 Q 168.641 134.786 168.314 132.2 Q 168.123 130.432 167.905 128.718 Q 167.795 127.15 167.659 125.582 Q 167.659 125.455 167.659 125.327 L 167.659 125.259" fill="#0066CC"/>
	</g>
</svg>
