<?xml version="1.0"?>
<!DOCTYPE svg PUBLIC "-//W3C//DTD SVG 1.1//EN" "http://www.w3.org/Graphics/SVG/1.1/DTD/svg11.dtd">
<svg version='1.1' width='9px' height='78px' xmlns='http://www.w3.org/2000/svg' xmlns:xlink='http://www.w3.org/1999/xlink'>
	<g transform="translate(-230.741,-108.759)">
		<path d="M 230.741 180.359 Q 230.823 179.959 230.905 178.395 Q 231.086 175.482 231.382 169.405 Q 231.505 166.423 231.627 162.873 Q 232.218 147.882 232 137.732 Q 231.959 136.473 231.918 135.273 Q 231.65 128.173 231.405 124.009 Q 231.364 123.209 231.323 122.491 Q 231.209 121.2 231.136 120.195 Q 231.064 119.645 231.073 119.095 Q 230.968 116.9 231.118 114.5 Q 231.118 114.25 231.118 114 Q 231.355 112.827 231.686 111.855 Q 231.773 111.6 231.859 111.345 Q 232.25 110.123 232.855 109.523 Q 233.564 108.582 234.682 108.8 Q 235.182 108.986 235.805 109.45 Q 238.55 111.45 239.095 115.823 Q 239.259 117.15 239.218 118.682 Q 238.477 144.936 239.5 171.041 Q 239.582 173.2 239.664 175.359 Q 239.786 177.968 239.409 180.414 Q 239.359 180.714 239.3 181.005 Q 239.291 181.055 239.282 181.105 Q 238.714 183.159 237.832 184.25 Q 236.986 185.541 235.977 186.023 Q 235.695 186.155 235.355 186.214 Q 235.173 186.227 235.009 186.25 Q 234.614 186.25 234.218 186.105 Q 232.841 185.382 231.014 182.777 Q 230.964 182.427 230.923 182.077 Q 230.882 181.627 230.841 181.177 Q 230.791 180.777 230.741 180.377 L 230.741 180.359" fill="#0066CC"/>
	</g>
</svg>
