<?xml version="1.0"?>
<!DOCTYPE svg PUBLIC "-//W3C//DTD SVG 1.1//EN" "http://www.w3.org/Graphics/SVG/1.1/DTD/svg11.dtd">
<svg version='1.1' width='40px' height='49px' xmlns='http://www.w3.org/2000/svg' xmlns:xlink='http://www.w3.org/1999/xlink'>
	<g transform="translate(-72.6,-128.275)">
		<path d="M 72.6 139.895 Q 72.7 138.995 72.9553 138.2 Q 73.0237 137.95 73.1105 137.718 Q 73.1105 137.668 73.1289 137.637 Q 73.8289 135.779 75.2605 134.808 Q 76.0184 134.584 76.8316 134.434 Q 77.0947 134.384 77.3763 134.353 Q 80.1211 134.074 83.1974 133.805 Q 83.2158 133.805 83.2342 133.774 Q 84.0289 133.716 84.8421 133.658 L 84.8605 133.658 L 90.4763 133.111 Q 90.4816 133.142 90.55 133.174 Q 90.7816 133.111 91.0132 133.066 Q 91.0632 133.066 91.1132 133.084 Q 96.7184 131.682 101.529 129.647 Q 102.055 129.311 102.711 129.103 Q 103.337 128.808 104.134 128.734 Q 105.537 128.289 106.895 128.347 Q 106.926 128.347 106.958 128.366 Q 107.303 128.337 107.647 128.295 Q 108.363 128.205 108.966 128.513 Q 109.958 128.968 110.705 130.508 Q 110.95 131.021 111.145 131.534 Q 111.226 131.734 111.308 131.953 Q 111.763 133.629 111.989 135.597 Q 111.989 135.697 111.989 135.797 Q 112.263 139.35 111.655 143.584 Q 111.421 145.111 111.237 146.674 Q 111.237 146.724 111.237 146.774 Q 110.845 149.589 110.571 152.603 Q 110.571 152.603 110.571 152.603 Q 110.355 154.774 110.221 157 Q 109.992 159.903 109.813 162.911 Q 109.666 165.482 109.568 168.108 Q 109.568 168.208 109.568 168.308 Q 109.229 172.216 108.024 174.945 Q 107.937 175.139 107.832 175.316 Q 107.726 175.492 107.621 175.65 Q 107.553 175.795 107.503 175.921 Q 107.224 176.355 106.85 176.603 Q 106.645 176.761 106.408 176.85 Q 105.739 177.174 104.937 177.121 Q 102.484 177.076 101.816 173.503 Q 101.747 173.216 101.697 172.929 Q 100.668 167.832 100.592 162.832 Q 100.563 160.605 100.621 158.479 Q 100.621 158.479 100.621 158.461 Q 100.692 149.095 101.795 141.589 Q 101.416 141.539 101.024 141.476 Q 97.4974 142.626 93.5842 143.495 Q 93.4526 143.545 93.3211 143.576 Q 91.4947 144.034 89.6053 144.461 Q 89.5368 144.492 89.5316 144.524 L 86.7053 145.421 Q 86.6553 145.421 86.6053 145.439 Q 84.4553 146.068 82.4342 146.495 Q 82.4342 146.495 82.4342 146.526 Q 75.5684 147.724 72.8711 140.684 Q 72.7395 140.384 72.6632 140.084 L 72.6 139.895" fill="#0066CC"/>
	</g>
</svg>
