<?xml version="1.0"?>
<!DOCTYPE svg PUBLIC "-//W3C//DTD SVG 1.1//EN" "http://www.w3.org/Graphics/SVG/1.1/DTD/svg11.dtd">
<svg version='1.1' width='50px' height='14px' xmlns='http://www.w3.org/2000/svg' xmlns:xlink='http://www.w3.org/1999/xlink'>
	<g transform="translate(-28.3897,-112.307)">
		<path d="M 28.3897 117.119 Q 28.3985 116.328 28.9088 115.769 Q 29 115.665 29.0956 115.56 Q 29.4191 115.293 29.7926 115.216 Q 29.9971 115.144 30.2559 115.131 Q 30.3059 115.126 30.3559 115.126 Q 30.6471 115.118 30.9471 115.118 Q 35.7176 115.104 40.4309 114.906 Q 42.2809 114.831 44.1265 114.725 Q 45.5588 114.65 46.9868 114.566 Q 59.7382 113.785 72.15 112.497 Q 73.7015 112.294 75.275 112.307 Q 76.0574 112.316 76.6162 112.871 Q 77.2118 113.416 77.2647 114.221 Q 77.3132 115.066 77.3618 115.943 Q 77.4809 118.374 77.4676 120.769 Q 77.4632 121.56 76.8985 122.115 Q 76.5662 122.478 76.1382 122.659 Q 75.8971 122.731 75.6103 122.757 Q 68.0544 123.521 60.3926 124.103 Q 57.9088 124.301 55.4118 124.482 Q 53.3603 124.624 51.3 124.751 Q 49.2265 124.875 47.1618 125.007 Q 47.0662 125.012 46.975 125.012 L 46.975 125.007 Q 45.7926 125.074 44.6103 125.131 Q 44.3647 125.14 44.1235 125.149 Q 43.6147 125.184 43.1059 125.215 Q 43.0103 125.219 42.9103 125.224 Q 39.3235 125.404 35.7103 125.537 Q 33.175 125.638 30.6926 125.554 Q 29.8603 125.532 29.3059 124.991 Q 28.7426 124.446 28.6853 123.65 Q 28.575 121.835 28.4868 119.946 Q 28.4382 118.55 28.3941 117.137 L 28.3897 117.119" fill="#0066CC"/>
	</g>
</svg>
