<?xml version="1.0"?>
<!DOCTYPE svg PUBLIC "-//W3C//DTD SVG 1.1//EN" "http://www.w3.org/Graphics/SVG/1.1/DTD/svg11.dtd">
<svg version='1.1' width='28px' height='47px' xmlns='http://www.w3.org/2000/svg' xmlns:xlink='http://www.w3.org/1999/xlink'>
	<g transform="translate(-233.19,-126.01)">
		<path d="M 233.19 139.04 Q 233.22 137.31 233.22 136.1 Q 233.21 135.4 233.26 134.75 Q 233.4 132.3 234.04 130.35 Q 234.06 130.27 234.08 130.19 Q 234.25 129.57 234.41 128.95 Q 236.23 128.07 238.03 127.44 Q 238 127.44 238.01 127.44 Q 241.69 126.12 245.56 126.05 Q 245.92 126.04 246.28 126.03 Q 246.32 126.03 246.33 126.03 Q 246.62 126.02 246.92 126.01 Q 249.58 126.12 251.88 126.91 Q 251.88 126.91 251.89 126.91 Q 252.66 127.18 253.41 127.57 Q 253.45 127.57 253.5 127.57 Q 253.5 127.57 253.5 127.57 Q 254.01 127.78 254.47 128.08 Q 254.46 128.07 254.46 128.07 Q 256 129.02 257.15 130.49 Q 257.93 131.47 258.51 132.73 Q 258.51 132.73 258.51 132.74 Q 259.75 135.63 260.28 139.4 Q 260.28 139.4 260.28 139.45 Q 260.47 140.78 260.5 142.2 Q 260.5 142.35 260.49 142.5 Q 260.53 143.08 260.54 143.66 Q 260.56 145.33 260.58 147 Q 260.61 150.44 260.62 153.85 Q 260.63 154.05 260.63 154.26 Q 260.61 155.34 260.63 156.46 L 260.63 156.51 Q 260.69 161.3 260.63 165.93 Q 260.65 168.49 260.58 170.74 Q 260.55 171.52 260.06 172.05 Q 259.64 172.48 259.12 172.58 Q 258.94 172.63 258.75 172.64 Q 258.37 172.65 258.01 172.65 Q 257.4 172.64 256.78 172.67 Q 255.55 172.69 254.18 172.33 Q 253.08 172.21 251.98 171.82 Q 251.26 171.69 250.78 171.09 Q 250.31 170.49 250.27 169.66 Q 250.13 165.39 249.98 160.66 L 249.98 160.65 Q 249.96 159.55 249.95 158.5 Q 249.79 154.89 249.69 151.2 Q 249.62 148.43 249.56 145.64 Q 249.55 145.37 249.54 145.1 Q 249.5 144.24 249.49 143.41 Q 249.49 143.31 249.5 143.22 Q 249.45 142.72 249.43 142.27 Q 249.27 141.83 249.11 141.38 Q 249.07 141.12 248.96 140.86 Q 248.96 140.82 248.96 140.82 Q 248.74 140.22 248.47 139.71 Q 248.14 138.77 247.48 138.12 Q 247.48 138.12 247.48 138.08 Q 246.81 137.27 245.75 136.95 Q 245.7 136.91 245.65 136.91 Q 244.35 136.42 242.31 136.41 Q 241.74 136.41 241.17 136.45 Q 239.4 136.65 237.62 137.33 Q 234.91 138.1 233.19 139.08 L 233.19 139.04" fill="#0066CC"/>
	</g>
</svg>
