<?xml version="1.0"?>
<!DOCTYPE svg PUBLIC "-//W3C//DTD SVG 1.1//EN" "http://www.w3.org/Graphics/SVG/1.1/DTD/svg11.dtd">
<svg version='1.1' width='9px' height='78px' xmlns='http://www.w3.org/2000/svg' xmlns:xlink='http://www.w3.org/1999/xlink'>
	<g transform="translate(-225.505,-108.536)">
		<path d="M 225.505 177.195 Q 225.514 176.395 225.523 175.377 Q 225.632 171.809 225.709 166.423 Q 225.723 163.114 225.736 159.964 Q 225.891 144.209 226 134.459 Q 225.995 133.164 225.991 131.964 Q 226.05 124.464 226.023 120.445 Q 226.018 119.645 226.014 118.855 Q 226.045 117.6 226.082 116.377 Q 226.118 115.827 226.164 115.277 Q 226.241 112.9 226.391 110.5 Q 226.391 110.25 226.391 110 Q 227.173 108.936 228.232 108.873 Q 228.464 108.8 228.695 108.727 Q 229.85 108.414 231.073 108.614 Q 232.218 108.509 233.009 109.2 Q 233.109 109.932 233.223 110.65 Q 233.75 114.25 234.077 118.114 Q 234.095 119.55 234.091 121.009 Q 233.786 147.882 233.5 174.205 Q 233.509 176.4 233.518 178.595 Q 233.532 181.241 233.445 183.868 Q 233.395 184.168 233.3 184.423 Q 233.255 184.473 233.209 184.523 Q 232.168 186.395 230.159 186.25 Q 228.732 186.305 227.286 185.914 Q 227.077 185.573 226.773 185.268 Q 226.664 185.136 226.645 185.05 Q 226.468 184.65 226.291 184.323 Q 226.005 182.109 225.668 179.686 Q 225.618 179.336 225.614 178.986 Q 225.609 178.536 225.605 178.086 Q 225.555 177.686 225.505 177.286 L 225.505 177.195" fill="#0066CC"/>
	</g>
</svg>
