<?xml version="1.0"?>
<!DOCTYPE svg PUBLIC "-//W3C//DTD SVG 1.1//EN" "http://www.w3.org/Graphics/SVG/1.1/DTD/svg11.dtd">
<svg version='1.1' width='48px' height='24px' xmlns='http://www.w3.org/2000/svg' xmlns:xlink='http://www.w3.org/1999/xlink'>
	<g transform="translate(-28.0221,-111.995)">
		<path d="M 28.0221 126.516 Q 28.0603 125.754 28.4382 125.166 Q 28.5 125.047 28.5809 124.928 Q 28.8162 124.601 29.1015 124.437 Q 29.3206 124.291 29.6088 124.234 Q 29.6588 124.215 29.7088 124.215 Q 29.9706 124.176 30.2706 124.176 Q 35.2765 124.119 40.0338 123.259 Q 41.8838 122.934 43.7147 122.475 Q 45.0882 122.15 46.4426 121.787 Q 58.5324 118.403 69.15 112.821 Q 70.5397 111.941 72.025 111.999 Q 72.7485 112.037 73.3368 112.606 Q 73.9176 113.137 74.1471 113.956 Q 74.3574 114.787 74.5676 115.751 Q 75.0838 118.285 75.0265 120.666 Q 75.0074 121.428 74.5603 121.997 Q 74.2868 122.404 73.9324 122.688 Q 73.7206 122.834 73.4779 122.949 Q 67.0691 126.256 60.2015 128.779 Q 57.9382 129.64 55.6176 130.424 Q 53.7279 131.035 51.8 131.59 Q 49.8147 132.125 47.8676 132.699 Q 47.7868 132.718 47.725 132.718 L 47.725 132.699 Q 46.6015 132.985 45.4779 133.234 Q 45.2471 133.272 45.0353 133.31 Q 44.4971 133.463 43.9588 133.597 Q 43.8779 133.616 43.7779 133.635 Q 40.2353 134.419 36.5779 134.993 Q 33.925 135.432 31.5015 135.069 Q 30.7279 134.974 30.1588 134.462 Q 29.5515 133.931 29.3029 133.15 Q 28.825 131.453 28.4426 129.431 Q 28.2324 128.05 28.0412 126.593 L 28.0221 126.516" fill="#0066CC"/>
	</g>
</svg>
