<?xml version="1.0"?>
<!DOCTYPE svg PUBLIC "-//W3C//DTD SVG 1.1//EN" "http://www.w3.org/Graphics/SVG/1.1/DTD/svg11.dtd">
<svg version='1.1' width='50px' height='48px' xmlns='http://www.w3.org/2000/svg' xmlns:xlink='http://www.w3.org/1999/xlink'>
	<g transform="translate(-124.771,-124.907)">
		<path d="M 124.882 151.559 Q 124.554 147.746 125.196 143.966 Q 125.616 141.612 126.556 139.507 Q 126.596 139.457 126.646 139.418 Q 127.275 137.912 128.184 136.546 Q 129.472 134.651 131.1 132.987 Q 132.807 131.124 134.904 129.699 Q 134.904 129.699 134.915 129.699 Q 134.915 129.699 134.915 129.699 Q 135.624 129.21 136.343 128.762 Q 137.69 127.925 139.137 127.228 Q 143.068 125.266 147.499 124.996 Q 147.488 125.006 147.488 125.006 Q 150.222 124.796 152.868 125.032 Q 156.16 125.259 159.246 126.419 Q 159.335 126.459 159.425 126.499 Q 159.584 126.599 159.743 126.709 Q 160.251 126.947 160.71 127.206 Q 160.821 127.235 160.941 127.275 Q 161.26 127.424 161.54 127.572 Q 162.059 127.86 162.568 128.149 Q 162.987 128.376 163.376 128.644 Q 165.416 129.965 166.915 131.868 Q 166.954 131.868 166.994 131.947 Q 168.593 134 169.54 136.487 Q 169.629 136.766 169.729 137.056 Q 170.181 137.953 170.491 138.941 Q 170.541 139.131 170.591 139.36 Q 170.641 139.46 170.691 139.56 Q 170.931 140.697 171.04 141.875 Q 171.149 142.903 171.188 143.891 Q 171.188 143.901 171.188 143.951 Q 171.188 144.091 171.228 144.231 Q 171.228 144.371 171.228 144.51 Q 171.307 144.491 171.426 144.512 Q 171.943 144.525 172.379 144.697 Q 172.419 144.678 172.459 144.738 Q 172.459 144.749 172.499 144.759 Q 172.776 144.81 173.015 144.901 Q 173.094 144.962 173.174 144.982 Q 173.571 144.935 174.007 145.087 Q 174.246 145.019 174.524 145.031 Q 174.563 145.041 174.563 145.051 Q 174.563 145.749 174.574 146.485 Q 174.594 149.3 174.472 152.074 Q 174.472 152.074 174.432 152.074 Q 173.896 152.246 173.478 152.338 Q 173.359 152.359 173.279 152.419 Q 173.071 152.44 172.901 152.46 Q 172.851 152.481 172.841 152.501 Q 172.762 152.472 172.682 152.482 Q 172.424 152.563 172.204 152.604 Q 172.115 152.575 172.065 152.585 Q 172.025 152.585 171.985 152.625 Q 171.896 152.635 171.846 152.646 Q 171.806 152.656 171.766 152.666 Q 171.766 152.706 171.766 152.706 Q 171.596 153.534 171.404 154.351 Q 171.263 154.9 171.072 155.449 Q 170.51 157.022 169.76 158.526 Q 169.56 158.925 169.36 159.284 Q 168.971 159.972 168.541 160.65 Q 167.501 162.335 166.182 163.85 Q 166.132 163.9 166.043 163.95 Q 166.022 163.95 166.022 163.95 Q 165.572 164.429 165.122 164.899 Q 164.353 165.676 163.554 166.374 Q 163.515 166.424 163.475 166.474 Q 161.759 167.949 159.835 169.104 Q 159.825 169.144 159.825 169.184 Q 159.785 169.184 159.746 169.184 Q 159.646 169.234 159.585 169.284 Q 157.218 170.671 154.663 171.538 Q 152.749 172.206 150.562 172.504 Q 148.816 172.763 147.019 172.763 Q 145.353 172.763 143.697 172.534 Q 141.472 172.175 139.376 171.466 Q 139.047 171.326 138.718 171.187 Q 136.862 170.449 135.196 169.46 Q 133.509 168.462 132.051 167.094 Q 132.051 167.094 132.051 167.094 Q 130.356 165.557 129.029 163.562 Q 128.979 163.472 128.969 163.422 Q 128.001 162.025 127.184 160.547 Q 127.184 160.547 127.184 160.547 Q 127.054 160.318 126.925 160.088 Q 126.835 160.038 126.835 159.988 Q 126.796 159.949 126.796 159.909 Q 126.137 157.974 125.728 156.068 Q 125.688 156.028 125.728 155.988 Q 125.19 154.043 124.922 152.076 Q 124.922 152.037 124.922 151.997 Q 124.882 151.818 124.882 151.638 L 124.882 151.559" fill="#0066CC"/>
		<path d="M 133.929 146.94 Q 134.088 145.784 134.466 144.638 Q 135.243 142.765 135.243 142.725 Q 135.86 141.488 136.609 140.422 Q 136.799 140.163 136.988 139.944 Q 137.218 139.556 137.526 139.247 Q 139.869 136.44 143.457 135.284 Q 146.713 134.259 150.043 133.959 Q 152.881 133.719 155.403 134.76 Q 155.822 134.959 156.231 135.197 Q 157.587 135.931 158.853 136.715 Q 159.631 137.221 160.29 137.806 Q 160.988 138.431 161.497 139.096 Q 161.726 139.403 161.916 139.721 Q 162.396 140.485 162.726 141.141 Q 163.004 141.959 163.163 142.856 Q 163.441 144.36 163.878 145.865 Q 163.957 146.184 164.037 146.503 Q 164.037 146.503 164.076 146.543 Q 164.076 146.593 164.116 146.643 Q 164.156 146.782 164.235 146.962 Q 164.235 147.012 164.275 147.062 Q 164.434 147.371 164.712 147.719 Q 164.712 147.719 164.751 147.759 Q 164.791 147.809 164.871 147.859 Q 164.791 147.959 164.751 148.059 Q 164.712 148.069 164.712 148.119 Q 164.593 148.518 164.553 148.916 Q 164.434 149.404 164.354 149.932 Q 164.315 149.943 164.315 149.993 Q 164.235 150.053 164.235 150.193 Q 164.196 150.372 164.156 150.591 Q 163.61 151.897 163.084 153.193 Q 162.925 153.512 162.716 153.791 Q 162.676 153.841 162.637 153.931 Q 162.399 154.497 162.121 155.063 Q 162.081 155.103 162.041 155.143 Q 161.182 156.407 160.309 157.644 L 160.299 157.694 Q 160.219 157.684 160.179 157.753 Q 159.941 157.99 159.703 158.187 Q 158.825 159.124 157.809 159.91 Q 155.676 161.465 153.296 162.641 Q 152.3 163.079 151.304 163.359 Q 151.275 163.359 151.235 163.359 Q 149.074 163.949 146.743 163.772 Q 143.704 163.526 141.072 162.296 Q 140.713 162.137 140.354 161.938 Q 140.315 161.899 140.235 161.899 Q 139.249 161.343 138.471 160.618 Q 138.421 160.538 138.371 160.499 Q 136.003 158.332 134.922 155.466 Q 134.932 155.426 134.932 155.387 Q 134.693 154.79 134.532 154.143 Q 134.222 153.057 134.062 151.922 Q 133.701 149.522 133.929 147.021 Q 133.929 146.981 133.929 146.981 L 133.929 146.94" fill="#0066CC"/>
	</g>
</svg>
