<?xml version="1.0"?>
<!DOCTYPE svg PUBLIC "-//W3C//DTD SVG 1.1//EN" "http://www.w3.org/Graphics/SVG/1.1/DTD/svg11.dtd">
<svg version='1.1' width='9px' height='78px' xmlns='http://www.w3.org/2000/svg' xmlns:xlink='http://www.w3.org/1999/xlink'>
	<g transform="translate(-225.177,-108.433)">
		<path d="M 225.177 176.998 Q 225.182 176.173 225.186 175.189 Q 225.291 171.58 225.355 166.236 Q 225.361 162.907 225.368 159.782 Q 225.495 143.98 225.625 134.255 Q 225.623 132.957 225.62 131.757 Q 225.7 124.232 225.686 120.223 Q 225.684 119.423 225.682 118.627 Q 225.723 117.375 225.766 116.139 Q 225.809 115.589 225.857 115.039 Q 225.945 112.65 226.095 110.25 Q 226.095 110 226.095 109.75 Q 226.911 108.693 228.016 108.686 Q 228.257 108.625 228.498 108.564 Q 229.7 108.307 230.961 108.557 Q 232.134 108.505 232.905 109.225 Q 232.98 109.991 233.061 110.725 Q 233.45 114.425 233.764 118.257 Q 233.773 119.7 233.77 121.155 Q 233.493 148.066 233.125 174.402 Q 233.13 176.6 233.134 178.798 Q 233.141 181.445 233.073 184.084 Q 233.023 184.384 232.925 184.636 Q 232.877 184.686 232.83 184.736 Q 231.759 186.598 229.68 186.375 Q 228.216 186.352 226.743 185.907 Q 226.539 185.536 226.236 185.209 Q 226.132 185.068 226.123 184.975 Q 225.959 184.55 225.795 184.211 Q 225.577 181.905 225.334 179.493 Q 225.284 179.143 225.282 178.793 Q 225.28 178.343 225.277 177.893 Q 225.227 177.493 225.177 177.093 L 225.177 176.998" fill="#0066CC"/>
	</g>
</svg>
