<?xml version="1.0"?>
<!DOCTYPE svg PUBLIC "-//W3C//DTD SVG 1.1//EN" "http://www.w3.org/Graphics/SVG/1.1/DTD/svg11.dtd">
<svg version='1.1' width='47px' height='44px' xmlns='http://www.w3.org/2000/svg' xmlns:xlink='http://www.w3.org/1999/xlink'>
	<g transform="translate(-126.295,-128.92)">
		<path d="M 126.365 152.918 Q 126.109 149.341 126.791 145.932 Q 127.232 143.774 128.162 141.865 Q 128.191 141.815 128.241 141.785 Q 128.85 140.424 129.718 139.191 Q 130.944 137.503 132.5 136.024 Q 134.115 134.397 136.109 133.147 Q 136.109 133.147 136.129 133.147 Q 136.129 133.147 136.129 133.147 Q 136.797 132.721 137.485 132.324 Q 138.729 131.6 140.074 131.006 Q 143.685 129.332 147.797 129.041 Q 147.776 129.062 147.776 129.062 Q 150.294 128.841 152.785 128.965 Q 155.821 129.068 158.741 129.888 Q 158.821 129.918 158.9 129.947 Q 159.018 130.047 159.135 130.168 Q 159.603 130.344 160.021 130.562 Q 160.141 130.571 160.282 130.6 Q 160.571 130.697 160.829 130.794 Q 161.318 131.021 161.785 131.247 Q 162.174 131.403 162.553 131.588 Q 164.582 132.579 166.029 134.235 Q 166.059 134.235 166.088 134.294 Q 167.635 136.1 168.479 138.474 Q 168.559 138.732 168.659 139.012 Q 169.162 139.806 169.482 140.732 Q 169.532 140.912 169.582 141.121 Q 169.632 141.221 169.682 141.321 Q 169.912 142.344 169.979 143.45 Q 170.047 144.406 170.076 145.332 Q 170.076 145.353 170.076 145.403 Q 170.076 145.532 170.106 145.662 Q 170.106 145.791 170.106 145.921 Q 170.165 145.932 170.253 145.974 Q 170.635 146.1 170.959 146.344 Q 170.988 146.356 171.018 146.426 Q 171.018 146.447 171.047 146.468 Q 171.253 146.571 171.429 146.703 Q 171.488 146.774 171.547 146.815 Q 171.841 146.871 172.165 147.074 Q 172.341 147.088 172.547 147.162 Q 172.576 147.182 172.576 147.203 Q 172.576 147.797 172.597 148.421 Q 172.638 151.05 172.444 153.597 Q 172.444 153.597 172.415 153.597 Q 171.991 153.841 171.656 154.026 Q 171.568 154.068 171.509 154.138 Q 171.341 154.179 171.203 154.221 Q 171.153 154.262 171.132 154.303 Q 171.074 154.294 171.015 154.315 Q 170.797 154.426 170.609 154.509 Q 170.529 154.5 170.479 154.521 Q 170.45 154.521 170.421 154.55 Q 170.341 154.571 170.291 154.591 Q 170.262 154.612 170.232 154.632 Q 170.232 154.662 170.232 154.662 Q 170.041 155.418 169.809 156.153 Q 169.626 156.65 169.394 157.147 Q 168.771 158.494 168.021 159.803 Q 167.821 160.15 167.621 160.468 Q 167.241 161.094 166.832 161.7 Q 165.803 163.221 164.515 164.55 Q 164.465 164.6 164.385 164.65 Q 164.344 164.65 164.344 164.65 Q 163.894 165.109 163.444 165.547 Q 162.706 166.253 161.959 166.847 Q 161.929 166.897 161.9 166.947 Q 160.318 168.247 158.621 169.259 Q 158.6 169.288 158.6 169.318 Q 158.571 169.318 158.541 169.318 Q 158.441 169.368 158.371 169.418 Q 156.085 170.691 153.726 171.476 Q 151.997 172.062 149.924 172.309 Q 148.332 172.526 146.638 172.526 Q 145.106 172.526 143.594 172.318 Q 141.544 172 139.603 171.332 Q 139.294 171.203 138.985 171.074 Q 137.274 170.397 135.741 169.471 Q 134.168 168.524 132.803 167.238 Q 132.803 167.238 132.803 167.238 Q 131.262 165.815 130.059 163.974 Q 130.009 163.894 129.988 163.844 Q 129.103 162.55 128.368 161.144 Q 128.368 161.144 128.368 161.144 Q 128.259 160.935 128.15 160.726 Q 128.071 160.676 128.071 160.626 Q 128.041 160.597 128.041 160.568 Q 127.424 158.797 127.056 157.035 Q 127.026 157.006 127.056 156.976 Q 126.579 155.185 126.394 153.353 Q 126.394 153.324 126.394 153.294 Q 126.365 153.135 126.365 152.976 L 126.365 152.918" fill="#0066CC"/>
		<path d="M 136.009 149.379 Q 136.126 148.368 136.432 147.376 Q 137.085 145.729 137.085 145.7 Q 137.621 144.576 138.318 143.644 Q 138.497 143.426 138.676 143.238 Q 138.885 142.912 139.153 142.644 Q 141.238 140.279 144.415 139.268 Q 147.176 138.418 150.135 138.118 Q 152.562 137.888 154.806 138.621 Q 155.194 138.768 155.562 138.944 Q 156.774 139.462 157.906 140.029 Q 158.612 140.391 159.229 140.812 Q 159.876 141.262 160.344 141.741 Q 160.553 141.956 160.732 142.191 Q 161.191 142.771 161.553 143.282 Q 161.759 144.018 161.876 144.812 Q 162.082 146.121 162.406 147.429 Q 162.465 147.718 162.524 148.006 Q 162.524 148.006 162.553 148.035 Q 162.553 148.085 162.582 148.135 Q 162.612 148.265 162.671 148.424 Q 162.671 148.474 162.7 148.524 Q 162.818 148.791 163.024 149.088 Q 163.024 149.088 163.053 149.118 Q 163.082 149.168 163.141 149.218 Q 163.082 149.318 163.053 149.418 Q 163.024 149.438 163.024 149.488 Q 162.935 149.835 162.906 150.182 Q 162.818 150.609 162.759 151.065 Q 162.729 151.085 162.729 151.135 Q 162.671 151.206 162.671 151.335 Q 162.641 151.494 162.612 151.682 Q 162.221 152.844 161.818 153.985 Q 161.7 154.274 161.532 154.532 Q 161.503 154.582 161.474 154.662 Q 161.297 155.094 161.091 155.526 Q 161.062 155.556 161.032 155.585 Q 160.215 156.665 159.568 157.788 L 159.547 157.838 Q 159.488 157.818 159.459 157.856 Q 159.282 157.979 159.106 158.074 Q 158.3 158.897 157.418 159.571 Q 155.553 160.929 153.491 161.982 Q 152.65 162.359 151.809 162.618 Q 151.8 162.618 151.771 162.618 Q 149.897 163.197 147.885 163.144 Q 145.259 163.053 142.894 162.141 Q 142.576 162.024 142.259 161.876 Q 142.229 161.847 142.171 161.847 Q 141.297 161.435 140.591 160.885 Q 140.541 160.826 140.491 160.797 Q 138.206 159.115 137.094 156.732 Q 137.115 156.703 137.115 156.674 Q 136.885 156.179 136.715 155.635 Q 136.394 154.715 136.224 153.744 Q 135.853 151.694 136.009 149.491 Q 136.009 149.462 136.009 149.462 L 136.009 149.379" fill="#0066CC"/>
	</g>
</svg>
