<?xml version="1.0"?>
<!DOCTYPE svg PUBLIC "-//W3C//DTD SVG 1.1//EN" "http://www.w3.org/Graphics/SVG/1.1/DTD/svg11.dtd">
<svg version='1.1' width='10px' height='66px' xmlns='http://www.w3.org/2000/svg' xmlns:xlink='http://www.w3.org/1999/xlink'>
	<g transform="translate(-82.2574,-111.499)">
		<path d="M 82.2574 118.765 Q 82.2574 117.987 82.5647 117.354 Q 82.8721 116.6 83.3471 116.181 Q 85.375 114.262 87.5853 112.254 Q 88.0765 111.769 88.4559 111.619 Q 88.6456 111.56 88.7515 111.557 Q 88.8294 111.504 88.8735 111.529 Q 89.1162 111.382 89.9985 111.941 Q 92.4029 112.951 92.1603 118.638 Q 91.8956 125.107 91.7853 130.407 Q 91.7632 131.568 91.7412 132.706 Q 91.7412 132.806 91.7412 132.884 Q 91.7191 136.697 91.7412 140.334 L 91.7853 140.39 Q 91.7632 140.934 91.7632 141.478 L 91.7853 141.512 Q 91.7853 143.338 91.7853 145.143 L 91.7632 145.199 Q 91.6971 154.718 91.7412 163.619 Q 91.7412 163.791 91.7412 163.963 Q 91.7632 166.982 91.8294 169.847 Q 91.8515 170.625 91.5662 171.263 Q 91.2529 171.924 90.8279 172.254 Q 90.0059 173.115 89.2338 173.909 Q 88.1985 175.122 87.0309 176.093 Q 86.5559 176.49 86.2265 176.535 Q 85.875 176.691 85.7868 176.641 Q 85.4338 177.035 84.3529 175.929 Q 82.4118 174.496 82.3676 168.849 Q 82.3456 161.885 82.3897 150.775 Q 82.3897 150.603 82.3897 150.431 Q 82.4118 141.301 82.4559 131.224 Q 82.3676 131.134 82.3015 131.044 L 82.2794 122.75 Q 82.2574 121.318 82.2574 119.863 Q 82.2574 119.325 82.2574 118.809 L 82.2574 118.765" fill="#0066CC"/>
	</g>
</svg>
