<?xml version="1.0"?>
<!DOCTYPE svg PUBLIC "-//W3C//DTD SVG 1.1//EN" "http://www.w3.org/Graphics/SVG/1.1/DTD/svg11.dtd">
<svg version='1.1' width='10px' height='78px' xmlns='http://www.w3.org/2000/svg' xmlns:xlink='http://www.w3.org/1999/xlink'>
	<g transform="translate(-231.395,-108.729)">
		<path d="M 231.395 180.755 Q 231.486 180.405 231.577 178.773 Q 231.768 175.941 232.091 169.777 Q 232.227 166.836 232.364 163.236 Q 233.009 148.341 232.75 138.141 Q 232.705 136.886 232.659 135.686 Q 232.35 128.636 232.077 124.455 Q 232.032 123.655 231.986 122.945 Q 231.855 121.65 231.768 120.673 Q 231.682 120.123 231.686 119.573 Q 231.559 117.4 231.709 115 Q 231.709 114.75 231.709 114.5 Q 231.877 113.314 232.118 112.227 Q 232.186 111.95 232.255 111.673 Q 232.55 110.336 233.077 109.636 Q 233.732 108.591 234.891 108.75 Q 235.441 108.868 236.127 109.3 Q 239.15 111.1 239.723 115.536 Q 239.905 116.85 239.859 118.391 Q 239.064 144.568 240.25 170.645 Q 240.341 172.8 240.432 174.955 Q 240.568 177.559 240.155 179.982 Q 240.105 180.282 240.05 180.577 Q 240.045 180.627 240.041 180.677 Q 239.532 182.755 238.791 184 Q 238.018 185.445 237.064 186.036 Q 236.773 186.227 236.427 186.332 Q 236.236 186.364 236.055 186.4 Q 235.632 186.45 235.209 186.327 Q 233.695 185.791 231.682 183.164 Q 231.632 182.814 231.586 182.464 Q 231.541 182.014 231.495 181.564 Q 231.445 181.164 231.395 180.764 L 231.395 180.755" fill="#0066CC"/>
	</g>
</svg>
