<?xml version="1.0"?>
<!DOCTYPE svg PUBLIC "-//W3C//DTD SVG 1.1//EN" "http://www.w3.org/Graphics/SVG/1.1/DTD/svg11.dtd">
<svg version='1.1' width='30px' height='38px' xmlns='http://www.w3.org/2000/svg' xmlns:xlink='http://www.w3.org/1999/xlink'>
	<g transform="translate(-121.425,-28)">
		<path d="M 140.275 28.275 Q 141.086 28.1111 141.925 28 Q 143.636 28.5051 145.025 29.1 Q 153.159 32.5928 150.55 39.15 Q 148.242 44.9982 144.55 50.075 Q 144.65 50.0559 144.75 50.025 Q 144.726 50.0678 144.7 50.1 Q 143.206 51.9562 141.75 53.775 Q 141.66 53.6805 141.625 53.625 Q 135.512 60.5721 126.475 65.9 Q 126.647 59.4961 121.425 56.5 Q 127.862 51.8471 132.625 46.075 Q 138.622 38.7691 138.9 29.625 Q 138.898 29.3498 139 29.1 Q 139.141 28.7346 139.5 28.425 Q 139.873 28.3236 140.275 28.275 Z" fill="#0066CC"/>
	</g>
</svg>
