<?xml version="1.0"?>
<!DOCTYPE svg PUBLIC "-//W3C//DTD SVG 1.1//EN" "http://www.w3.org/Graphics/SVG/1.1/DTD/svg11.dtd">
<svg version='1.1' width='8px' height='8px' xmlns='http://www.w3.org/2000/svg' xmlns:xlink='http://www.w3.org/1999/xlink'>
	<g transform="translate(-134.89,-165.675)">
		<path d="M 142.025 170.575 Q 141.999 171.138 141.65 171.85 Q 141.312 172.559 140.675 172.725 Q 140.369 172.964 139.95 173 L 139.95 173.05 Q 139.191 173.116 138.45 173.225 Q 138.464 173.176 138.475 173.125 Q 138.159 173.087 137.85 173.05 L 137.825 173.05 Q 137.376 173.034 136.925 173 Q 136.942 172.91 136.95 172.825 Q 135.306 172.197 134.95 169.9 Q 134.55 167.45 136.8 166.25 Q 137.47 165.895 138.15 165.8 Q 138.146 165.732 138.15 165.675 Q 138.297 165.714 138.45 165.75 L 138.5 165.75 Q 139.492 165.925 140.2 166.275 Q 140.277 166.301 140.35 166.325 Q 140.376 166.336 140.4 166.35 Q 140.451 166.37 140.5 166.4 Q 140.671 166.495 140.85 166.55 Q 140.902 166.569 140.95 166.6 Q 141.342 166.832 141.7 167.15 Q 141.7 167.312 141.7 167.475 Q 142.368 168.06 142.25 168.975 Q 142.275 169.137 142.275 169.3 Q 142.32 169.864 142.025 170.575 Z" fill="#0066CC"/>
	</g>
</svg>
