<?xml version="1.0"?>
<!DOCTYPE svg PUBLIC "-//W3C//DTD SVG 1.1//EN" "http://www.w3.org/Graphics/SVG/1.1/DTD/svg11.dtd">
<svg version='1.1' width='11px' height='64px' xmlns='http://www.w3.org/2000/svg' xmlns:xlink='http://www.w3.org/1999/xlink'>
	<g transform="translate(-82.9221,-111.301)">
		<path d="M 82.9221 116.894 Q 82.9221 116.11 83.2941 115.513 Q 83.6662 114.8 84.2412 114.493 Q 86.675 113.085 89.2559 111.613 Q 89.8294 111.257 90.2676 111.307 Q 90.4868 111.331 90.6044 111.422 Q 90.6882 111.463 90.7206 111.588 Q 90.8985 111.947 91.5456 112.824 Q 93.3088 114.604 93.1309 119.815 Q 92.9368 125.972 92.8559 131.272 Q 92.8397 132.403 92.8235 133.518 Q 92.8235 133.618 92.8235 133.701 Q 92.8074 137.391 92.8235 140.951 L 92.8559 141.019 Q 92.8397 141.551 92.8397 142.084 L 92.8559 142.135 Q 92.8559 143.915 92.8559 145.678 L 92.8397 145.746 Q 92.7912 154.953 92.8235 163.707 Q 92.8235 163.874 92.8235 164.04 Q 92.8397 166.947 92.8882 169.741 Q 92.9044 170.525 92.5485 171.14 Q 92.1588 171.771 91.6338 172.013 Q 90.6176 172.644 89.6515 173.226 Q 88.3456 174.116 86.9426 174.828 Q 86.3676 175.119 85.9794 175.006 Q 85.575 174.974 85.5103 174.724 Q 85.2515 174.306 84.4588 172.788 Q 83.0353 170.737 83.0029 165.596 Q 82.9868 158.356 83.0191 148.075 Q 83.0191 147.909 83.0191 147.743 Q 83.0353 138.754 83.0676 129.071 Q 83.0029 128.951 82.9544 128.832 L 82.9382 120.75 Q 82.9221 119.353 82.9221 117.94 Q 82.9221 117.425 82.9221 116.926 L 82.9221 116.894" fill="#0066CC"/>
	</g>
</svg>
