<?xml version="1.0"?>
<!DOCTYPE svg PUBLIC "-//W3C//DTD SVG 1.1//EN" "http://www.w3.org/Graphics/SVG/1.1/DTD/svg11.dtd">
<svg version='1.1' width='34px' height='47px' xmlns='http://www.w3.org/2000/svg' xmlns:xlink='http://www.w3.org/1999/xlink'>
	<g transform="translate(-84.0667,-126.987)">
		<path d="M 84.0667 131.56 Q 84.34 130.547 84.9933 129.803 Q 85.0067 129.753 85.0567 129.753 Q 85.64 128.8 86.4433 128.13 Q 86.43 128.13 86.43 128.13 Q 87.3567 127.373 88.6267 127.097 Q 88.8267 127.047 89.0633 127.033 Q 91.6967 126.907 94.59 127.127 Q 95.2767 127.2 96 127.287 Q 96.05 127.287 96.0633 127.287 Q 98.96 127.487 101.737 127.923 Q 101.787 127.923 101.837 127.96 Q 105.223 128.023 108.007 128.233 Q 109.607 128.283 111.017 128.34 Q 111.377 128.167 111.98 128.263 Q 112.413 128.263 113.237 128.717 Q 114.213 129.247 115.173 130.893 Q 115.173 130.907 115.173 130.957 Q 116.393 133.283 117.103 136.367 Q 117.103 136.417 117.103 136.517 Q 117.14 136.703 117.177 136.927 Q 117.14 138.463 117.213 140.33 Q 117.213 140.43 117.213 140.53 Q 116.993 145.017 117.287 150.347 Q 117.287 150.397 117.287 150.447 Q 117.323 152.907 117.47 155.697 L 117.47 155.697 Q 117.653 160.593 118.02 166.04 Q 118.043 166.767 117.933 167.427 Q 117.81 168.087 117.633 168.637 Q 117.55 168.967 117.48 169.297 Q 117.453 169.37 117.427 169.443 Q 116.543 172.633 113.937 173.477 Q 113.787 173.55 113.6 173.587 Q 113.413 173.623 113.227 173.623 Q 113.127 173.66 113.063 173.647 Q 112.673 173.68 112.323 173.587 Q 112.2 173.573 112.077 173.523 Q 111.803 173.457 111.543 173.317 Q 111.173 173.15 110.88 172.897 Q 109.303 171.373 108.79 167.723 Q 107.433 161.017 107.213 154.86 L 107.213 154.823 Q 106.957 151.07 106.847 147.683 Q 106.773 144.763 106.743 142.207 Q 106.743 142.193 106.743 142.193 Q 106.663 140.207 106.603 138.617 Q 106.517 138.59 106.43 138.563 Q 106.43 138.577 106.443 138.577 Q 105.293 138.457 104 138.483 Q 103.9 138.47 103.813 138.47 Q 102.123 138.493 100.147 138.64 Q 100.01 138.64 99.8733 138.64 Q 99.7733 138.677 99.6733 138.677 Q 97.44 139.033 95.1667 139.62 Q 94.37 139.81 93.5733 140.013 Q 93.5233 140.013 93.4733 140.05 Q 91.47 140.5 89.7867 140.623 Q 85.3867 138.54 84.1033 132.107 Q 84.0667 131.907 84.0667 131.707 L 84.0667 131.56" fill="#0066CC"/>
	</g>
</svg>
