<?xml version="1.0"?>
<!DOCTYPE svg PUBLIC "-//W3C//DTD SVG 1.1//EN" "http://www.w3.org/Graphics/SVG/1.1/DTD/svg11.dtd">
<svg version='1.1' width='14px' height='47px' xmlns='http://www.w3.org/2000/svg' xmlns:xlink='http://www.w3.org/1999/xlink'>
	<g transform="translate(-48.2618,-132.957)">
		<path d="M 48.2618 134.501 L 48.3618 134.524 Q 48.6074 134.391 48.8529 134.259 Q 48.8529 134.259 48.875 134.237 Q 51.3015 133.575 53.7721 132.957 Q 53.8221 132.957 53.9162 133.024 Q 54.3397 133.134 54.8735 133.376 Q 56.0603 133.729 57.4235 134.391 Q 58.1735 138.366 59.4529 143.174 Q 62.2544 155.063 62.2544 167.262 Q 62.2544 171.996 62.0338 175.957 Q 61.9618 176.625 61.6103 177.131 Q 61.2309 177.681 60.7456 177.879 Q 59.3294 178.784 57.7147 179.071 Q 56.2132 179.446 54.8441 178.651 Q 54.3088 178.475 53.9132 177.925 Q 53.4897 177.375 53.4015 176.619 Q 53.2029 174.5 53.0485 172 Q 52.4971 161.844 51.1956 152.262 Q 49.9824 143.922 48.5265 135.847 Q 48.4162 135.341 48.3059 134.835 Q 48.2838 134.685 48.2618 134.557 L 48.2618 134.501" fill="#0066CC"/>
	</g>
</svg>
