<?xml version="1.0"?>
<!DOCTYPE svg PUBLIC "-//W3C//DTD SVG 1.1//EN" "http://www.w3.org/Graphics/SVG/1.1/DTD/svg11.dtd">
<svg version='1.1' width='10px' height='78px' xmlns='http://www.w3.org/2000/svg' xmlns:xlink='http://www.w3.org/1999/xlink'>
	<g transform="translate(-231.723,-108.711)">
		<path d="M 231.723 180.952 Q 231.818 180.627 231.914 178.961 Q 232.109 176.17 232.445 169.964 Q 232.589 167.043 232.732 163.418 Q 233.405 148.57 233.125 138.345 Q 233.077 137.093 233.03 135.893 Q 232.7 128.868 232.414 124.677 Q 232.366 123.877 232.318 123.173 Q 232.177 121.875 232.084 120.911 Q 231.991 120.361 231.993 119.811 Q 231.855 117.65 232.005 115.25 Q 232.005 115 232.005 114.75 Q 232.139 113.557 232.334 112.414 Q 232.393 112.125 232.452 111.836 Q 232.7 110.443 233.189 109.693 Q 233.816 108.595 234.995 108.725 Q 235.57 108.809 236.289 109.225 Q 239.45 110.925 240.036 115.393 Q 240.227 116.7 240.18 118.245 Q 239.357 144.384 240.625 170.448 Q 240.72 172.6 240.816 174.752 Q 240.959 177.355 240.527 179.766 Q 240.477 180.066 240.425 180.364 Q 240.423 180.414 240.42 180.464 Q 239.941 182.552 239.27 183.875 Q 238.534 185.398 237.607 186.043 Q 237.311 186.264 236.964 186.391 Q 236.768 186.432 236.577 186.475 Q 236.141 186.55 235.705 186.439 Q 234.123 185.995 232.016 183.357 Q 231.966 183.007 231.918 182.657 Q 231.87 182.207 231.823 181.757 Q 231.773 181.357 231.723 180.957 L 231.723 180.952" fill="#0066CC"/>
	</g>
</svg>
